%TF.GenerationSoftware,KiCad,Pcbnew,9.0.3*%
%TF.CreationDate,2025-07-12T12:33:21+07:00*%
%TF.ProjectId,CFBoard,4346426f-6172-4642-9e6b-696361645f70,rev?*%
%TF.SameCoordinates,Original*%
%TF.FileFunction,Legend,Top*%
%TF.FilePolarity,Positive*%
%FSLAX45Y45*%
G04 Gerber Fmt 4.5, Leading zero omitted, Abs format (unit mm)*
G04 Created by KiCad (PCBNEW 9.0.3) date 2025-07-12 12:33:21*
%MOMM*%
%LPD*%
G01*
G04 APERTURE LIST*
%ADD10C,0.150000*%
%ADD11C,0.100000*%
%ADD12C,0.120000*%
%TA.AperFunction,Profile*%
%ADD13C,0.300000*%
%TD*%
G04 APERTURE END LIST*
D10*
X14716090Y-8403508D02*
X14711328Y-8408270D01*
X14711328Y-8408270D02*
X14697043Y-8413032D01*
X14697043Y-8413032D02*
X14687519Y-8413032D01*
X14687519Y-8413032D02*
X14673233Y-8408270D01*
X14673233Y-8408270D02*
X14663709Y-8398746D01*
X14663709Y-8398746D02*
X14658948Y-8389222D01*
X14658948Y-8389222D02*
X14654186Y-8370175D01*
X14654186Y-8370175D02*
X14654186Y-8355889D01*
X14654186Y-8355889D02*
X14658948Y-8336841D01*
X14658948Y-8336841D02*
X14663709Y-8327318D01*
X14663709Y-8327318D02*
X14673233Y-8317794D01*
X14673233Y-8317794D02*
X14687519Y-8313032D01*
X14687519Y-8313032D02*
X14697043Y-8313032D01*
X14697043Y-8313032D02*
X14711328Y-8317794D01*
X14711328Y-8317794D02*
X14716090Y-8322556D01*
X14777995Y-8313032D02*
X14797043Y-8313032D01*
X14797043Y-8313032D02*
X14806567Y-8317794D01*
X14806567Y-8317794D02*
X14816090Y-8327318D01*
X14816090Y-8327318D02*
X14820852Y-8346365D01*
X14820852Y-8346365D02*
X14820852Y-8379698D01*
X14820852Y-8379698D02*
X14816090Y-8398746D01*
X14816090Y-8398746D02*
X14806567Y-8408270D01*
X14806567Y-8408270D02*
X14797043Y-8413032D01*
X14797043Y-8413032D02*
X14777995Y-8413032D01*
X14777995Y-8413032D02*
X14768471Y-8408270D01*
X14768471Y-8408270D02*
X14758948Y-8398746D01*
X14758948Y-8398746D02*
X14754186Y-8379698D01*
X14754186Y-8379698D02*
X14754186Y-8346365D01*
X14754186Y-8346365D02*
X14758948Y-8327318D01*
X14758948Y-8327318D02*
X14768471Y-8317794D01*
X14768471Y-8317794D02*
X14777995Y-8313032D01*
X14863709Y-8413032D02*
X14863709Y-8313032D01*
X14863709Y-8313032D02*
X14920852Y-8413032D01*
X14920852Y-8413032D02*
X14920852Y-8313032D01*
X14968471Y-8413032D02*
X14968471Y-8313032D01*
X14968471Y-8313032D02*
X15025614Y-8413032D01*
X15025614Y-8413032D02*
X15025614Y-8313032D01*
X15125614Y-8413032D02*
X15068471Y-8413032D01*
X15097043Y-8413032D02*
X15097043Y-8313032D01*
X15097043Y-8313032D02*
X15087519Y-8327318D01*
X15087519Y-8327318D02*
X15077995Y-8336841D01*
X15077995Y-8336841D02*
X15068471Y-8341603D01*
X13825858Y-10216217D02*
X13830620Y-10220979D01*
X13830620Y-10220979D02*
X13835382Y-10235264D01*
X13835382Y-10235264D02*
X13835382Y-10244788D01*
X13835382Y-10244788D02*
X13830620Y-10259074D01*
X13830620Y-10259074D02*
X13821096Y-10268598D01*
X13821096Y-10268598D02*
X13811572Y-10273359D01*
X13811572Y-10273359D02*
X13792525Y-10278121D01*
X13792525Y-10278121D02*
X13778239Y-10278121D01*
X13778239Y-10278121D02*
X13759191Y-10273359D01*
X13759191Y-10273359D02*
X13749668Y-10268598D01*
X13749668Y-10268598D02*
X13740144Y-10259074D01*
X13740144Y-10259074D02*
X13735382Y-10244788D01*
X13735382Y-10244788D02*
X13735382Y-10235264D01*
X13735382Y-10235264D02*
X13740144Y-10220979D01*
X13740144Y-10220979D02*
X13744906Y-10216217D01*
X13768715Y-10130502D02*
X13835382Y-10130502D01*
X13730620Y-10154312D02*
X13802048Y-10178121D01*
X13802048Y-10178121D02*
X13802048Y-10116217D01*
X15995482Y-10360809D02*
X15895482Y-10360809D01*
X15895482Y-10360809D02*
X15895482Y-10337000D01*
X15895482Y-10337000D02*
X15900244Y-10322714D01*
X15900244Y-10322714D02*
X15909768Y-10313190D01*
X15909768Y-10313190D02*
X15919291Y-10308429D01*
X15919291Y-10308429D02*
X15938339Y-10303667D01*
X15938339Y-10303667D02*
X15952625Y-10303667D01*
X15952625Y-10303667D02*
X15971672Y-10308429D01*
X15971672Y-10308429D02*
X15981196Y-10313190D01*
X15981196Y-10313190D02*
X15990720Y-10322714D01*
X15990720Y-10322714D02*
X15995482Y-10337000D01*
X15995482Y-10337000D02*
X15995482Y-10360809D01*
X15995482Y-10208429D02*
X15995482Y-10265571D01*
X15995482Y-10237000D02*
X15895482Y-10237000D01*
X15895482Y-10237000D02*
X15909768Y-10246524D01*
X15909768Y-10246524D02*
X15919291Y-10256048D01*
X15919291Y-10256048D02*
X15924053Y-10265571D01*
X15983482Y-10938190D02*
X15883482Y-10938190D01*
X15983482Y-10881048D02*
X15926339Y-10923905D01*
X15883482Y-10881048D02*
X15940625Y-10938190D01*
X16010382Y-11715217D02*
X15962763Y-11748550D01*
X16010382Y-11772359D02*
X15910382Y-11772359D01*
X15910382Y-11772359D02*
X15910382Y-11734264D01*
X15910382Y-11734264D02*
X15915144Y-11724740D01*
X15915144Y-11724740D02*
X15919906Y-11719978D01*
X15919906Y-11719978D02*
X15929429Y-11715217D01*
X15929429Y-11715217D02*
X15943715Y-11715217D01*
X15943715Y-11715217D02*
X15953239Y-11719978D01*
X15953239Y-11719978D02*
X15958001Y-11724740D01*
X15958001Y-11724740D02*
X15962763Y-11734264D01*
X15962763Y-11734264D02*
X15962763Y-11772359D01*
X15943715Y-11629502D02*
X16010382Y-11629502D01*
X15905620Y-11653312D02*
X15977048Y-11677121D01*
X15977048Y-11677121D02*
X15977048Y-11615217D01*
X14442233Y-8920482D02*
X14408900Y-8872863D01*
X14385090Y-8920482D02*
X14385090Y-8820482D01*
X14385090Y-8820482D02*
X14423186Y-8820482D01*
X14423186Y-8820482D02*
X14432709Y-8825244D01*
X14432709Y-8825244D02*
X14437471Y-8830006D01*
X14437471Y-8830006D02*
X14442233Y-8839530D01*
X14442233Y-8839530D02*
X14442233Y-8853815D01*
X14442233Y-8853815D02*
X14437471Y-8863339D01*
X14437471Y-8863339D02*
X14432709Y-8868101D01*
X14432709Y-8868101D02*
X14423186Y-8872863D01*
X14423186Y-8872863D02*
X14385090Y-8872863D01*
X14537471Y-8920482D02*
X14480329Y-8920482D01*
X14508900Y-8920482D02*
X14508900Y-8820482D01*
X14508900Y-8820482D02*
X14499376Y-8834768D01*
X14499376Y-8834768D02*
X14489852Y-8844291D01*
X14489852Y-8844291D02*
X14480329Y-8849053D01*
X11170482Y-11065217D02*
X11122863Y-11098550D01*
X11170482Y-11122359D02*
X11070482Y-11122359D01*
X11070482Y-11122359D02*
X11070482Y-11084264D01*
X11070482Y-11084264D02*
X11075244Y-11074740D01*
X11075244Y-11074740D02*
X11080006Y-11069979D01*
X11080006Y-11069979D02*
X11089530Y-11065217D01*
X11089530Y-11065217D02*
X11103815Y-11065217D01*
X11103815Y-11065217D02*
X11113339Y-11069979D01*
X11113339Y-11069979D02*
X11118101Y-11074740D01*
X11118101Y-11074740D02*
X11122863Y-11084264D01*
X11122863Y-11084264D02*
X11122863Y-11122359D01*
X11080006Y-11027121D02*
X11075244Y-11022359D01*
X11075244Y-11022359D02*
X11070482Y-11012836D01*
X11070482Y-11012836D02*
X11070482Y-10989026D01*
X11070482Y-10989026D02*
X11075244Y-10979502D01*
X11075244Y-10979502D02*
X11080006Y-10974740D01*
X11080006Y-10974740D02*
X11089530Y-10969979D01*
X11089530Y-10969979D02*
X11099053Y-10969979D01*
X11099053Y-10969979D02*
X11113339Y-10974740D01*
X11113339Y-10974740D02*
X11170482Y-11031883D01*
X11170482Y-11031883D02*
X11170482Y-10969979D01*
X16989395Y-8820032D02*
X16956062Y-8772413D01*
X16932252Y-8820032D02*
X16932252Y-8720032D01*
X16932252Y-8720032D02*
X16970348Y-8720032D01*
X16970348Y-8720032D02*
X16979871Y-8724794D01*
X16979871Y-8724794D02*
X16984633Y-8729556D01*
X16984633Y-8729556D02*
X16989395Y-8739080D01*
X16989395Y-8739080D02*
X16989395Y-8753365D01*
X16989395Y-8753365D02*
X16984633Y-8762889D01*
X16984633Y-8762889D02*
X16979871Y-8767651D01*
X16979871Y-8767651D02*
X16970348Y-8772413D01*
X16970348Y-8772413D02*
X16932252Y-8772413D01*
X17032252Y-8767651D02*
X17065586Y-8767651D01*
X17079871Y-8820032D02*
X17032252Y-8820032D01*
X17032252Y-8820032D02*
X17032252Y-8720032D01*
X17032252Y-8720032D02*
X17079871Y-8720032D01*
X17175110Y-8724794D02*
X17165586Y-8720032D01*
X17165586Y-8720032D02*
X17151300Y-8720032D01*
X17151300Y-8720032D02*
X17137014Y-8724794D01*
X17137014Y-8724794D02*
X17127491Y-8734318D01*
X17127491Y-8734318D02*
X17122729Y-8743841D01*
X17122729Y-8743841D02*
X17117967Y-8762889D01*
X17117967Y-8762889D02*
X17117967Y-8777175D01*
X17117967Y-8777175D02*
X17122729Y-8796222D01*
X17122729Y-8796222D02*
X17127491Y-8805746D01*
X17127491Y-8805746D02*
X17137014Y-8815270D01*
X17137014Y-8815270D02*
X17151300Y-8820032D01*
X17151300Y-8820032D02*
X17160824Y-8820032D01*
X17160824Y-8820032D02*
X17175110Y-8815270D01*
X17175110Y-8815270D02*
X17179871Y-8810508D01*
X17179871Y-8810508D02*
X17179871Y-8777175D01*
X17179871Y-8777175D02*
X17160824Y-8777175D01*
X17275110Y-8820032D02*
X17217967Y-8820032D01*
X17246538Y-8820032D02*
X17246538Y-8720032D01*
X17246538Y-8720032D02*
X17237014Y-8734318D01*
X17237014Y-8734318D02*
X17227491Y-8743841D01*
X17227491Y-8743841D02*
X17217967Y-8748603D01*
D11*
X14323809Y-12345742D02*
X14323809Y-12426694D01*
X14323809Y-12426694D02*
X14328571Y-12436218D01*
X14328571Y-12436218D02*
X14333333Y-12440980D01*
X14333333Y-12440980D02*
X14342857Y-12445742D01*
X14342857Y-12445742D02*
X14361905Y-12445742D01*
X14361905Y-12445742D02*
X14371428Y-12440980D01*
X14371428Y-12440980D02*
X14376190Y-12436218D01*
X14376190Y-12436218D02*
X14380952Y-12426694D01*
X14380952Y-12426694D02*
X14380952Y-12345742D01*
X14471428Y-12379075D02*
X14471428Y-12445742D01*
X14447619Y-12340980D02*
X14423809Y-12412408D01*
X14423809Y-12412408D02*
X14485714Y-12412408D01*
D10*
X16210958Y-12591667D02*
X16215720Y-12596428D01*
X16215720Y-12596428D02*
X16220482Y-12610714D01*
X16220482Y-12610714D02*
X16220482Y-12620238D01*
X16220482Y-12620238D02*
X16215720Y-12634524D01*
X16215720Y-12634524D02*
X16206196Y-12644047D01*
X16206196Y-12644047D02*
X16196672Y-12648809D01*
X16196672Y-12648809D02*
X16177625Y-12653571D01*
X16177625Y-12653571D02*
X16163339Y-12653571D01*
X16163339Y-12653571D02*
X16144291Y-12648809D01*
X16144291Y-12648809D02*
X16134768Y-12644047D01*
X16134768Y-12644047D02*
X16125244Y-12634524D01*
X16125244Y-12634524D02*
X16120482Y-12620238D01*
X16120482Y-12620238D02*
X16120482Y-12610714D01*
X16120482Y-12610714D02*
X16125244Y-12596428D01*
X16125244Y-12596428D02*
X16130006Y-12591667D01*
X16120482Y-12558333D02*
X16120482Y-12496428D01*
X16120482Y-12496428D02*
X16158577Y-12529762D01*
X16158577Y-12529762D02*
X16158577Y-12515476D01*
X16158577Y-12515476D02*
X16163339Y-12505952D01*
X16163339Y-12505952D02*
X16168101Y-12501190D01*
X16168101Y-12501190D02*
X16177625Y-12496428D01*
X16177625Y-12496428D02*
X16201434Y-12496428D01*
X16201434Y-12496428D02*
X16210958Y-12501190D01*
X16210958Y-12501190D02*
X16215720Y-12505952D01*
X16215720Y-12505952D02*
X16220482Y-12515476D01*
X16220482Y-12515476D02*
X16220482Y-12544047D01*
X16220482Y-12544047D02*
X16215720Y-12553571D01*
X16215720Y-12553571D02*
X16210958Y-12558333D01*
X12438709Y-9263032D02*
X12438709Y-9343984D01*
X12438709Y-9343984D02*
X12443471Y-9353508D01*
X12443471Y-9353508D02*
X12448233Y-9358270D01*
X12448233Y-9358270D02*
X12457757Y-9363032D01*
X12457757Y-9363032D02*
X12476805Y-9363032D01*
X12476805Y-9363032D02*
X12486328Y-9358270D01*
X12486328Y-9358270D02*
X12491090Y-9353508D01*
X12491090Y-9353508D02*
X12495852Y-9343984D01*
X12495852Y-9343984D02*
X12495852Y-9263032D01*
X12595852Y-9363032D02*
X12538709Y-9363032D01*
X12567281Y-9363032D02*
X12567281Y-9263032D01*
X12567281Y-9263032D02*
X12557757Y-9277318D01*
X12557757Y-9277318D02*
X12548233Y-9286841D01*
X12548233Y-9286841D02*
X12538709Y-9291603D01*
X18525858Y-9191217D02*
X18530620Y-9195979D01*
X18530620Y-9195979D02*
X18535382Y-9210264D01*
X18535382Y-9210264D02*
X18535382Y-9219788D01*
X18535382Y-9219788D02*
X18530620Y-9234074D01*
X18530620Y-9234074D02*
X18521096Y-9243598D01*
X18521096Y-9243598D02*
X18511572Y-9248359D01*
X18511572Y-9248359D02*
X18492525Y-9253121D01*
X18492525Y-9253121D02*
X18478239Y-9253121D01*
X18478239Y-9253121D02*
X18459191Y-9248359D01*
X18459191Y-9248359D02*
X18449668Y-9243598D01*
X18449668Y-9243598D02*
X18440144Y-9234074D01*
X18440144Y-9234074D02*
X18435382Y-9219788D01*
X18435382Y-9219788D02*
X18435382Y-9210264D01*
X18435382Y-9210264D02*
X18440144Y-9195979D01*
X18440144Y-9195979D02*
X18444906Y-9191217D01*
X18444906Y-9153121D02*
X18440144Y-9148359D01*
X18440144Y-9148359D02*
X18435382Y-9138836D01*
X18435382Y-9138836D02*
X18435382Y-9115026D01*
X18435382Y-9115026D02*
X18440144Y-9105502D01*
X18440144Y-9105502D02*
X18444906Y-9100740D01*
X18444906Y-9100740D02*
X18454430Y-9095979D01*
X18454430Y-9095979D02*
X18463953Y-9095979D01*
X18463953Y-9095979D02*
X18478239Y-9100740D01*
X18478239Y-9100740D02*
X18535382Y-9157883D01*
X18535382Y-9157883D02*
X18535382Y-9095979D01*
X15250858Y-9184217D02*
X15255620Y-9188979D01*
X15255620Y-9188979D02*
X15260382Y-9203264D01*
X15260382Y-9203264D02*
X15260382Y-9212788D01*
X15260382Y-9212788D02*
X15255620Y-9227074D01*
X15255620Y-9227074D02*
X15246096Y-9236598D01*
X15246096Y-9236598D02*
X15236572Y-9241359D01*
X15236572Y-9241359D02*
X15217525Y-9246121D01*
X15217525Y-9246121D02*
X15203239Y-9246121D01*
X15203239Y-9246121D02*
X15184191Y-9241359D01*
X15184191Y-9241359D02*
X15174668Y-9236598D01*
X15174668Y-9236598D02*
X15165144Y-9227074D01*
X15165144Y-9227074D02*
X15160382Y-9212788D01*
X15160382Y-9212788D02*
X15160382Y-9203264D01*
X15160382Y-9203264D02*
X15165144Y-9188979D01*
X15165144Y-9188979D02*
X15169906Y-9184217D01*
X15260382Y-9088979D02*
X15260382Y-9146121D01*
X15260382Y-9117550D02*
X15160382Y-9117550D01*
X15160382Y-9117550D02*
X15174668Y-9127074D01*
X15174668Y-9127074D02*
X15184191Y-9136598D01*
X15184191Y-9136598D02*
X15188953Y-9146121D01*
X11170482Y-12165217D02*
X11122863Y-12198550D01*
X11170482Y-12222359D02*
X11070482Y-12222359D01*
X11070482Y-12222359D02*
X11070482Y-12184264D01*
X11070482Y-12184264D02*
X11075244Y-12174740D01*
X11075244Y-12174740D02*
X11080006Y-12169978D01*
X11080006Y-12169978D02*
X11089530Y-12165217D01*
X11089530Y-12165217D02*
X11103815Y-12165217D01*
X11103815Y-12165217D02*
X11113339Y-12169978D01*
X11113339Y-12169978D02*
X11118101Y-12174740D01*
X11118101Y-12174740D02*
X11122863Y-12184264D01*
X11122863Y-12184264D02*
X11122863Y-12222359D01*
X11070482Y-12131883D02*
X11070482Y-12069978D01*
X11070482Y-12069978D02*
X11108577Y-12103312D01*
X11108577Y-12103312D02*
X11108577Y-12089026D01*
X11108577Y-12089026D02*
X11113339Y-12079502D01*
X11113339Y-12079502D02*
X11118101Y-12074740D01*
X11118101Y-12074740D02*
X11127625Y-12069978D01*
X11127625Y-12069978D02*
X11151434Y-12069978D01*
X11151434Y-12069978D02*
X11160958Y-12074740D01*
X11160958Y-12074740D02*
X11165720Y-12079502D01*
X11165720Y-12079502D02*
X11170482Y-12089026D01*
X11170482Y-12089026D02*
X11170482Y-12117597D01*
X11170482Y-12117597D02*
X11165720Y-12127121D01*
X11165720Y-12127121D02*
X11160958Y-12131883D01*
X16195482Y-13198809D02*
X16095482Y-13198809D01*
X16095482Y-13198809D02*
X16095482Y-13175000D01*
X16095482Y-13175000D02*
X16100244Y-13160714D01*
X16100244Y-13160714D02*
X16109768Y-13151190D01*
X16109768Y-13151190D02*
X16119291Y-13146428D01*
X16119291Y-13146428D02*
X16138339Y-13141667D01*
X16138339Y-13141667D02*
X16152625Y-13141667D01*
X16152625Y-13141667D02*
X16171672Y-13146428D01*
X16171672Y-13146428D02*
X16181196Y-13151190D01*
X16181196Y-13151190D02*
X16190720Y-13160714D01*
X16190720Y-13160714D02*
X16195482Y-13175000D01*
X16195482Y-13175000D02*
X16195482Y-13198809D01*
X16105006Y-13103571D02*
X16100244Y-13098809D01*
X16100244Y-13098809D02*
X16095482Y-13089286D01*
X16095482Y-13089286D02*
X16095482Y-13065476D01*
X16095482Y-13065476D02*
X16100244Y-13055952D01*
X16100244Y-13055952D02*
X16105006Y-13051190D01*
X16105006Y-13051190D02*
X16114529Y-13046428D01*
X16114529Y-13046428D02*
X16124053Y-13046428D01*
X16124053Y-13046428D02*
X16138339Y-13051190D01*
X16138339Y-13051190D02*
X16195482Y-13108333D01*
X16195482Y-13108333D02*
X16195482Y-13046428D01*
X17356710Y-11282032D02*
X17356710Y-11362984D01*
X17356710Y-11362984D02*
X17361471Y-11372508D01*
X17361471Y-11372508D02*
X17366233Y-11377270D01*
X17366233Y-11377270D02*
X17375757Y-11382032D01*
X17375757Y-11382032D02*
X17394805Y-11382032D01*
X17394805Y-11382032D02*
X17404329Y-11377270D01*
X17404329Y-11377270D02*
X17409090Y-11372508D01*
X17409090Y-11372508D02*
X17413852Y-11362984D01*
X17413852Y-11362984D02*
X17413852Y-11282032D01*
X17456710Y-11291556D02*
X17461471Y-11286794D01*
X17461471Y-11286794D02*
X17470995Y-11282032D01*
X17470995Y-11282032D02*
X17494805Y-11282032D01*
X17494805Y-11282032D02*
X17504329Y-11286794D01*
X17504329Y-11286794D02*
X17509090Y-11291556D01*
X17509090Y-11291556D02*
X17513852Y-11301079D01*
X17513852Y-11301079D02*
X17513852Y-11310603D01*
X17513852Y-11310603D02*
X17509090Y-11324889D01*
X17509090Y-11324889D02*
X17451948Y-11382032D01*
X17451948Y-11382032D02*
X17513852Y-11382032D01*
X14442233Y-9370482D02*
X14408900Y-9322863D01*
X14385090Y-9370482D02*
X14385090Y-9270482D01*
X14385090Y-9270482D02*
X14423186Y-9270482D01*
X14423186Y-9270482D02*
X14432709Y-9275244D01*
X14432709Y-9275244D02*
X14437471Y-9280006D01*
X14437471Y-9280006D02*
X14442233Y-9289530D01*
X14442233Y-9289530D02*
X14442233Y-9303815D01*
X14442233Y-9303815D02*
X14437471Y-9313339D01*
X14437471Y-9313339D02*
X14432709Y-9318101D01*
X14432709Y-9318101D02*
X14423186Y-9322863D01*
X14423186Y-9322863D02*
X14385090Y-9322863D01*
X14532709Y-9270482D02*
X14485090Y-9270482D01*
X14485090Y-9270482D02*
X14480329Y-9318101D01*
X14480329Y-9318101D02*
X14485090Y-9313339D01*
X14485090Y-9313339D02*
X14494614Y-9308577D01*
X14494614Y-9308577D02*
X14518424Y-9308577D01*
X14518424Y-9308577D02*
X14527948Y-9313339D01*
X14527948Y-9313339D02*
X14532709Y-9318101D01*
X14532709Y-9318101D02*
X14537471Y-9327625D01*
X14537471Y-9327625D02*
X14537471Y-9351434D01*
X14537471Y-9351434D02*
X14532709Y-9360958D01*
X14532709Y-9360958D02*
X14527948Y-9365720D01*
X14527948Y-9365720D02*
X14518424Y-9370482D01*
X14518424Y-9370482D02*
X14494614Y-9370482D01*
X14494614Y-9370482D02*
X14485090Y-9365720D01*
X14485090Y-9365720D02*
X14480329Y-9360958D01*
X13835958Y-12966667D02*
X13840720Y-12971428D01*
X13840720Y-12971428D02*
X13845482Y-12985714D01*
X13845482Y-12985714D02*
X13845482Y-12995238D01*
X13845482Y-12995238D02*
X13840720Y-13009524D01*
X13840720Y-13009524D02*
X13831196Y-13019047D01*
X13831196Y-13019047D02*
X13821672Y-13023809D01*
X13821672Y-13023809D02*
X13802625Y-13028571D01*
X13802625Y-13028571D02*
X13788339Y-13028571D01*
X13788339Y-13028571D02*
X13769291Y-13023809D01*
X13769291Y-13023809D02*
X13759768Y-13019047D01*
X13759768Y-13019047D02*
X13750244Y-13009524D01*
X13750244Y-13009524D02*
X13745482Y-12995238D01*
X13745482Y-12995238D02*
X13745482Y-12985714D01*
X13745482Y-12985714D02*
X13750244Y-12971428D01*
X13750244Y-12971428D02*
X13755006Y-12966667D01*
X13745482Y-12876190D02*
X13745482Y-12923809D01*
X13745482Y-12923809D02*
X13793101Y-12928571D01*
X13793101Y-12928571D02*
X13788339Y-12923809D01*
X13788339Y-12923809D02*
X13783577Y-12914286D01*
X13783577Y-12914286D02*
X13783577Y-12890476D01*
X13783577Y-12890476D02*
X13788339Y-12880952D01*
X13788339Y-12880952D02*
X13793101Y-12876190D01*
X13793101Y-12876190D02*
X13802625Y-12871428D01*
X13802625Y-12871428D02*
X13826434Y-12871428D01*
X13826434Y-12871428D02*
X13835958Y-12876190D01*
X13835958Y-12876190D02*
X13840720Y-12880952D01*
X13840720Y-12880952D02*
X13845482Y-12890476D01*
X13845482Y-12890476D02*
X13845482Y-12914286D01*
X13845482Y-12914286D02*
X13840720Y-12923809D01*
X13840720Y-12923809D02*
X13835958Y-12928571D01*
X11140720Y-9183333D02*
X11145482Y-9169048D01*
X11145482Y-9169048D02*
X11145482Y-9145238D01*
X11145482Y-9145238D02*
X11140720Y-9135714D01*
X11140720Y-9135714D02*
X11135958Y-9130952D01*
X11135958Y-9130952D02*
X11126434Y-9126190D01*
X11126434Y-9126190D02*
X11116910Y-9126190D01*
X11116910Y-9126190D02*
X11107387Y-9130952D01*
X11107387Y-9130952D02*
X11102625Y-9135714D01*
X11102625Y-9135714D02*
X11097863Y-9145238D01*
X11097863Y-9145238D02*
X11093101Y-9164286D01*
X11093101Y-9164286D02*
X11088339Y-9173809D01*
X11088339Y-9173809D02*
X11083577Y-9178571D01*
X11083577Y-9178571D02*
X11074053Y-9183333D01*
X11074053Y-9183333D02*
X11064530Y-9183333D01*
X11064530Y-9183333D02*
X11055006Y-9178571D01*
X11055006Y-9178571D02*
X11050244Y-9173809D01*
X11050244Y-9173809D02*
X11045482Y-9164286D01*
X11045482Y-9164286D02*
X11045482Y-9140476D01*
X11045482Y-9140476D02*
X11050244Y-9126190D01*
X11045482Y-9092857D02*
X11145482Y-9069048D01*
X11145482Y-9069048D02*
X11074053Y-9050000D01*
X11074053Y-9050000D02*
X11145482Y-9030952D01*
X11145482Y-9030952D02*
X11045482Y-9007143D01*
X11145482Y-8916667D02*
X11145482Y-8973809D01*
X11145482Y-8945238D02*
X11045482Y-8945238D01*
X11045482Y-8945238D02*
X11059768Y-8954762D01*
X11059768Y-8954762D02*
X11069291Y-8964286D01*
X11069291Y-8964286D02*
X11074053Y-8973809D01*
X15263809Y-9785482D02*
X15263809Y-9866434D01*
X15263809Y-9866434D02*
X15268571Y-9875958D01*
X15268571Y-9875958D02*
X15273333Y-9880720D01*
X15273333Y-9880720D02*
X15282857Y-9885482D01*
X15282857Y-9885482D02*
X15301905Y-9885482D01*
X15301905Y-9885482D02*
X15311428Y-9880720D01*
X15311428Y-9880720D02*
X15316190Y-9875958D01*
X15316190Y-9875958D02*
X15320952Y-9866434D01*
X15320952Y-9866434D02*
X15320952Y-9785482D01*
X15359048Y-9785482D02*
X15420952Y-9785482D01*
X15420952Y-9785482D02*
X15387619Y-9823577D01*
X15387619Y-9823577D02*
X15401905Y-9823577D01*
X15401905Y-9823577D02*
X15411428Y-9828339D01*
X15411428Y-9828339D02*
X15416190Y-9833101D01*
X15416190Y-9833101D02*
X15420952Y-9842625D01*
X15420952Y-9842625D02*
X15420952Y-9866434D01*
X15420952Y-9866434D02*
X15416190Y-9875958D01*
X15416190Y-9875958D02*
X15411428Y-9880720D01*
X15411428Y-9880720D02*
X15401905Y-9885482D01*
X15401905Y-9885482D02*
X15373333Y-9885482D01*
X15373333Y-9885482D02*
X15363809Y-9880720D01*
X15363809Y-9880720D02*
X15359048Y-9875958D01*
X14402857Y-9856230D02*
X14357143Y-9856230D01*
X14380000Y-9856230D02*
X14380000Y-9776230D01*
X14380000Y-9776230D02*
X14372381Y-9787658D01*
X14372381Y-9787658D02*
X14364762Y-9795277D01*
X14364762Y-9795277D02*
X14357143Y-9799087D01*
D12*
%TO.C,CONN1*%
X13979900Y-7924550D02*
X13979900Y-8049550D01*
X14008900Y-7953550D02*
X14008900Y-8550550D01*
X14008900Y-8550550D02*
X15770900Y-8550550D01*
X14009900Y-7954550D02*
X14009900Y-8029550D01*
X14009900Y-8029550D02*
X14189900Y-8029550D01*
X14009900Y-8179550D02*
X14084900Y-8179550D01*
X14084900Y-8179550D02*
X14084900Y-8474550D01*
X14084900Y-8474550D02*
X14889900Y-8474550D01*
X14104900Y-7924550D02*
X13979900Y-7924550D01*
X14189900Y-7954550D02*
X14009900Y-7954550D01*
X14189900Y-8029550D02*
X14189900Y-7954550D01*
X14339900Y-7954550D02*
X14339900Y-8029550D01*
X14339900Y-8029550D02*
X15439900Y-8029550D01*
X15439900Y-7954550D02*
X14339900Y-7954550D01*
X15439900Y-8029550D02*
X15439900Y-7954550D01*
X15589900Y-7954550D02*
X15589900Y-8029550D01*
X15589900Y-8029550D02*
X15769900Y-8029550D01*
X15694900Y-8179550D02*
X15694900Y-8474550D01*
X15694900Y-8474550D02*
X14889900Y-8474550D01*
X15769900Y-7954550D02*
X15589900Y-7954550D01*
X15769900Y-8029550D02*
X15769900Y-7954550D01*
X15769900Y-8179550D02*
X15694900Y-8179550D01*
X15770900Y-7953550D02*
X14008900Y-7953550D01*
X15770900Y-8550550D02*
X15770900Y-7953550D01*
%TO.C,C4*%
X13697900Y-9773050D02*
X13697900Y-9926050D01*
X13881900Y-9773050D02*
X13881900Y-9926050D01*
%TO.C,D1*%
X15803000Y-10059000D02*
X15816000Y-10059000D01*
X15803000Y-10501000D02*
X16097000Y-10501000D01*
X15803000Y-10513000D02*
X16097000Y-10513000D01*
X15803000Y-10525000D02*
X16097000Y-10525000D01*
X15803000Y-10603000D02*
X15803000Y-10059000D01*
X15816000Y-10603000D02*
X15803000Y-10603000D01*
X16084000Y-10603000D02*
X16097000Y-10603000D01*
X16097000Y-10059000D02*
X16084000Y-10059000D01*
X16097000Y-10603000D02*
X16097000Y-10059000D01*
%TO.C,R4*%
X15827900Y-11371550D02*
X15827900Y-12025550D01*
X15827900Y-12025550D02*
X15860900Y-12025550D01*
X15860900Y-11371550D02*
X15827900Y-11371550D01*
X16068900Y-11371550D02*
X16101900Y-11371550D01*
X16101900Y-11371550D02*
X16101900Y-12025550D01*
X16101900Y-12025550D02*
X16068900Y-12025550D01*
%TO.C,R1*%
X14131900Y-8730550D02*
X14131900Y-8763550D01*
X14131900Y-9004550D02*
X14131900Y-8971550D01*
X14785900Y-8730550D02*
X14131900Y-8730550D01*
X14785900Y-8763550D02*
X14785900Y-8730550D01*
X14785900Y-8971550D02*
X14785900Y-9004550D01*
X14785900Y-9004550D02*
X14131900Y-9004550D01*
%TO.C,R2*%
X10977900Y-10721550D02*
X10977900Y-11375550D01*
X10977900Y-11375550D02*
X11010900Y-11375550D01*
X11010900Y-10721550D02*
X10977900Y-10721550D01*
X11218900Y-10721550D02*
X11251900Y-10721550D01*
X11251900Y-10721550D02*
X11251900Y-11375550D01*
X11251900Y-11375550D02*
X11218900Y-11375550D01*
D10*
%TO.C,REG1*%
X15932900Y-7936350D02*
X18142700Y-7936350D01*
X15932900Y-8874550D02*
X16288500Y-8874550D01*
X15932900Y-9612750D02*
X15932900Y-7936350D01*
X16288500Y-7936350D02*
X16288500Y-8674550D01*
X16288500Y-8674550D02*
X15932900Y-8674550D01*
X16288500Y-8874550D02*
X16288500Y-9612750D01*
X16390100Y-8012550D02*
X16390100Y-8241150D01*
X16390100Y-8241150D02*
X16593300Y-8114150D01*
X16542500Y-9257150D02*
X17482300Y-9257150D01*
X16593300Y-8012550D02*
X16593300Y-8241150D01*
X16593300Y-8114150D02*
X16390100Y-8012550D01*
X17482300Y-9257150D02*
X17253700Y-9079350D01*
X17482300Y-9257150D02*
X17253700Y-9434950D01*
X17622000Y-8076050D02*
X17723600Y-8076050D01*
X17622000Y-9460350D02*
X17723600Y-9460350D01*
X17672800Y-9409550D02*
X17672800Y-9511150D01*
X17787100Y-8672950D02*
X17787100Y-7936350D01*
X17787100Y-8876150D02*
X18142700Y-8876150D01*
X17787800Y-9614550D02*
X17787062Y-8876150D01*
X17888700Y-8723750D02*
X18041100Y-8723750D01*
X17888700Y-8825350D02*
X17964900Y-8825350D01*
X17964900Y-8672950D02*
X17964900Y-8723750D01*
X17964900Y-8723750D02*
X17888700Y-8723750D01*
X17964900Y-8825350D02*
X17964900Y-8876150D01*
X18041100Y-8825350D02*
X17888700Y-8825350D01*
X18142700Y-7936350D02*
X18142700Y-9612750D01*
X18142700Y-8672950D02*
X17787100Y-8672950D01*
X18142700Y-9612750D02*
X15932900Y-9612750D01*
X17729596Y-8076050D02*
G75*
G02*
X17616004Y-8076050I-56796J0D01*
G01*
X17616004Y-8076050D02*
G75*
G02*
X17729596Y-8076050I56796J0D01*
G01*
X17729596Y-9460350D02*
G75*
G02*
X17616004Y-9460350I-56796J0D01*
G01*
X17616004Y-9460350D02*
G75*
G02*
X17729596Y-9460350I56796J0D01*
G01*
%TO.C,U4*%
D11*
X13952900Y-13552550D02*
X15476900Y-13552550D01*
X15476900Y-12282550D01*
X13952900Y-12282550D01*
X13952900Y-13552550D01*
D12*
%TO.C,C3*%
X15710900Y-12523550D02*
X15558000Y-12523550D01*
X15710900Y-12527550D02*
X15558400Y-12527550D01*
X15710900Y-12531550D02*
X15558900Y-12531550D01*
X15710900Y-12535550D02*
X15559400Y-12535550D01*
X15710900Y-12539550D02*
X15560000Y-12539550D01*
X15710900Y-12543550D02*
X15560600Y-12543550D01*
X15710900Y-12547550D02*
X15561300Y-12547550D01*
X15710900Y-12551550D02*
X15562100Y-12551550D01*
X15710900Y-12555550D02*
X15563000Y-12555550D01*
X15710900Y-12559550D02*
X15563900Y-12559550D01*
X15710900Y-12563550D02*
X15564800Y-12563550D01*
X15710900Y-12567550D02*
X15565900Y-12567550D01*
X15710900Y-12571550D02*
X15567000Y-12571550D01*
X15710900Y-12575550D02*
X15568200Y-12575550D01*
X15710900Y-12579550D02*
X15569400Y-12579550D01*
X15710900Y-12583550D02*
X15570700Y-12583550D01*
X15710900Y-12587550D02*
X15572100Y-12587550D01*
X15710900Y-12591550D02*
X15573600Y-12591550D01*
X15710900Y-12595550D02*
X15575100Y-12595550D01*
X15710900Y-12599550D02*
X15576700Y-12599550D01*
X15710900Y-12603550D02*
X15578400Y-12603550D01*
X15710900Y-12607550D02*
X15580200Y-12607550D01*
X15710900Y-12611550D02*
X15582000Y-12611550D01*
X15710900Y-12615550D02*
X15584000Y-12615550D01*
X15710900Y-12619550D02*
X15586000Y-12619550D01*
X15710900Y-12623550D02*
X15588100Y-12623550D01*
X15710900Y-12627550D02*
X15590300Y-12627550D01*
X15710900Y-12631550D02*
X15592600Y-12631550D01*
X15710900Y-12635550D02*
X15595000Y-12635550D01*
X15710900Y-12639550D02*
X15597400Y-12639550D01*
X15710900Y-12643550D02*
X15600000Y-12643550D01*
X15710900Y-12647550D02*
X15602700Y-12647550D01*
X15710900Y-12651550D02*
X15605500Y-12651550D01*
X15710900Y-12655550D02*
X15608400Y-12655550D01*
X15710900Y-12659550D02*
X15611400Y-12659550D01*
X15710900Y-12663550D02*
X15614600Y-12663550D01*
X15710900Y-12667550D02*
X15617900Y-12667550D01*
X15710900Y-12671550D02*
X15621300Y-12671550D01*
X15710900Y-12675550D02*
X15624800Y-12675550D01*
X15710900Y-12679550D02*
X15628500Y-12679550D01*
X15710900Y-12683550D02*
X15632400Y-12683550D01*
X15710900Y-12687550D02*
X15636400Y-12687550D01*
X15710900Y-12691550D02*
X15640600Y-12691550D01*
X15710900Y-12695550D02*
X15645000Y-12695550D01*
X15710900Y-12699550D02*
X15649700Y-12699550D01*
X15710900Y-12703550D02*
X15654500Y-12703550D01*
X15710900Y-12707550D02*
X15659600Y-12707550D01*
X15710900Y-12711550D02*
X15665000Y-12711550D01*
X15710900Y-12715550D02*
X15670600Y-12715550D01*
X15710900Y-12719550D02*
X15676600Y-12719550D01*
X15710900Y-12723550D02*
X15683000Y-12723550D01*
X15710900Y-12727550D02*
X15689800Y-12727550D01*
X15843200Y-12759550D02*
X15786600Y-12759550D01*
X15866600Y-12755550D02*
X15763200Y-12755550D01*
X15882600Y-12751550D02*
X15747200Y-12751550D01*
X15895400Y-12747550D02*
X15734400Y-12747550D01*
X15906300Y-12743550D02*
X15723500Y-12743550D01*
X15916000Y-12739550D02*
X15713800Y-12739550D01*
X15924700Y-12735550D02*
X15705100Y-12735550D01*
X15932600Y-12731550D02*
X15697200Y-12731550D01*
X15940000Y-12727550D02*
X15918900Y-12727550D01*
X15946800Y-12723550D02*
X15918900Y-12723550D01*
X15953200Y-12719550D02*
X15918900Y-12719550D01*
X15959200Y-12715550D02*
X15918900Y-12715550D01*
X15962400Y-12219072D02*
X15962400Y-12269072D01*
X15964800Y-12711550D02*
X15918900Y-12711550D01*
X15970200Y-12707550D02*
X15918900Y-12707550D01*
X15975300Y-12703550D02*
X15918900Y-12703550D01*
X15980100Y-12699550D02*
X15918900Y-12699550D01*
X15984800Y-12695550D02*
X15918900Y-12695550D01*
X15987400Y-12244072D02*
X15937400Y-12244072D01*
X15989200Y-12691550D02*
X15918900Y-12691550D01*
X15993400Y-12687550D02*
X15918900Y-12687550D01*
X15997400Y-12683550D02*
X15918900Y-12683550D01*
X16001300Y-12679550D02*
X15918900Y-12679550D01*
X16005000Y-12675550D02*
X15918900Y-12675550D01*
X16008500Y-12671550D02*
X15918900Y-12671550D01*
X16011900Y-12667550D02*
X15918900Y-12667550D01*
X16015200Y-12663550D02*
X15918900Y-12663550D01*
X16018400Y-12659550D02*
X15918900Y-12659550D01*
X16021400Y-12655550D02*
X15918900Y-12655550D01*
X16024300Y-12651550D02*
X15918900Y-12651550D01*
X16027100Y-12647550D02*
X15918900Y-12647550D01*
X16029800Y-12643550D02*
X15918900Y-12643550D01*
X16032400Y-12639550D02*
X15918900Y-12639550D01*
X16034800Y-12635550D02*
X15918900Y-12635550D01*
X16037200Y-12631550D02*
X15918900Y-12631550D01*
X16039500Y-12627550D02*
X15918900Y-12627550D01*
X16041700Y-12623550D02*
X15918900Y-12623550D01*
X16043800Y-12619550D02*
X15918900Y-12619550D01*
X16045800Y-12615550D02*
X15918900Y-12615550D01*
X16047800Y-12611550D02*
X15918900Y-12611550D01*
X16049600Y-12607550D02*
X15918900Y-12607550D01*
X16051400Y-12603550D02*
X15918900Y-12603550D01*
X16053100Y-12599550D02*
X15918900Y-12599550D01*
X16054700Y-12595550D02*
X15918900Y-12595550D01*
X16056200Y-12591550D02*
X15918900Y-12591550D01*
X16057700Y-12587550D02*
X15918900Y-12587550D01*
X16059100Y-12583550D02*
X15918900Y-12583550D01*
X16060400Y-12579550D02*
X15918900Y-12579550D01*
X16061600Y-12575550D02*
X15918900Y-12575550D01*
X16062800Y-12571550D02*
X15918900Y-12571550D01*
X16063900Y-12567550D02*
X15918900Y-12567550D01*
X16065000Y-12563550D02*
X15918900Y-12563550D01*
X16065900Y-12559550D02*
X15918900Y-12559550D01*
X16066800Y-12555550D02*
X15918900Y-12555550D01*
X16067700Y-12551550D02*
X15918900Y-12551550D01*
X16068500Y-12547550D02*
X15918900Y-12547550D01*
X16069200Y-12543550D02*
X15918900Y-12543550D01*
X16069800Y-12539550D02*
X15918900Y-12539550D01*
X16070400Y-12535550D02*
X15918900Y-12535550D01*
X16070900Y-12531550D02*
X15918900Y-12531550D01*
X16071400Y-12527550D02*
X15918900Y-12527550D01*
X16071800Y-12523550D02*
X15918900Y-12523550D01*
X16072100Y-12519550D02*
X15557700Y-12519550D01*
X16072400Y-12515550D02*
X15557400Y-12515550D01*
X16072600Y-12511550D02*
X15557200Y-12511550D01*
X16072800Y-12507550D02*
X15557000Y-12507550D01*
X16072900Y-12499550D02*
X15556900Y-12499550D01*
X16072900Y-12503550D02*
X15556900Y-12503550D01*
X16076900Y-12499550D02*
G75*
G02*
X15552900Y-12499550I-262000J0D01*
G01*
X15552900Y-12499550D02*
G75*
G02*
X16076900Y-12499550I262000J0D01*
G01*
%TO.C,U1*%
X11365400Y-8126050D02*
X13640400Y-8126050D01*
X11365400Y-13441050D02*
X11365400Y-8126050D01*
X11607900Y-8237550D02*
X11740900Y-8237550D01*
X11607900Y-8370550D02*
X11607900Y-8237550D01*
X11607900Y-8497550D02*
X11873900Y-8497550D01*
X11607900Y-13329550D02*
X11607900Y-8497550D01*
X11873900Y-8497550D02*
X11873900Y-13329550D01*
X11873900Y-13329550D02*
X11607900Y-13329550D01*
X13137900Y-8243550D02*
X13391900Y-8243550D01*
X13137900Y-13323550D02*
X13137900Y-8243550D01*
X13391900Y-8243550D02*
X13391900Y-13323550D01*
X13391900Y-13323550D02*
X13137900Y-13323550D01*
X13640400Y-8126050D02*
X13640400Y-13441050D01*
X13640400Y-13441050D02*
X11365400Y-13441050D01*
%TO.C,C2*%
X18231900Y-8766061D02*
X18747900Y-8766061D01*
X18231900Y-8770061D02*
X18747900Y-8770061D01*
X18232000Y-8762061D02*
X18747800Y-8762061D01*
X18232200Y-8758061D02*
X18747600Y-8758061D01*
X18232400Y-8754061D02*
X18747400Y-8754061D01*
X18232700Y-8750061D02*
X18747100Y-8750061D01*
X18233000Y-8746061D02*
X18385900Y-8746061D01*
X18233400Y-8742061D02*
X18385900Y-8742061D01*
X18233900Y-8738061D02*
X18385900Y-8738061D01*
X18234400Y-8734061D02*
X18385900Y-8734061D01*
X18235000Y-8730061D02*
X18385900Y-8730061D01*
X18235600Y-8726061D02*
X18385900Y-8726061D01*
X18236300Y-8722061D02*
X18385900Y-8722061D01*
X18237100Y-8718061D02*
X18385900Y-8718061D01*
X18238000Y-8714061D02*
X18385900Y-8714061D01*
X18238900Y-8710061D02*
X18385900Y-8710061D01*
X18239800Y-8706061D02*
X18385900Y-8706061D01*
X18240900Y-8702061D02*
X18385900Y-8702061D01*
X18242000Y-8698061D02*
X18385900Y-8698061D01*
X18243200Y-8694061D02*
X18385900Y-8694061D01*
X18244400Y-8690061D02*
X18385900Y-8690061D01*
X18245700Y-8686061D02*
X18385900Y-8686061D01*
X18247100Y-8682061D02*
X18385900Y-8682061D01*
X18248600Y-8678061D02*
X18385900Y-8678061D01*
X18250100Y-8674061D02*
X18385900Y-8674061D01*
X18251700Y-8670061D02*
X18385900Y-8670061D01*
X18253400Y-8666061D02*
X18385900Y-8666061D01*
X18255200Y-8662061D02*
X18385900Y-8662061D01*
X18257000Y-8658061D02*
X18385900Y-8658061D01*
X18259000Y-8654061D02*
X18385900Y-8654061D01*
X18261000Y-8650061D02*
X18385900Y-8650061D01*
X18263100Y-8646061D02*
X18385900Y-8646061D01*
X18265300Y-8642061D02*
X18385900Y-8642061D01*
X18267600Y-8638061D02*
X18385900Y-8638061D01*
X18270000Y-8634061D02*
X18385900Y-8634061D01*
X18272400Y-8630061D02*
X18385900Y-8630061D01*
X18275000Y-8626061D02*
X18385900Y-8626061D01*
X18277700Y-8622061D02*
X18385900Y-8622061D01*
X18280500Y-8618061D02*
X18385900Y-8618061D01*
X18283400Y-8614061D02*
X18385900Y-8614061D01*
X18286400Y-8610061D02*
X18385900Y-8610061D01*
X18289600Y-8606061D02*
X18385900Y-8606061D01*
X18292900Y-8602061D02*
X18385900Y-8602061D01*
X18296300Y-8598061D02*
X18385900Y-8598061D01*
X18299800Y-8594061D02*
X18385900Y-8594061D01*
X18303500Y-8590061D02*
X18385900Y-8590061D01*
X18307400Y-8586061D02*
X18385900Y-8586061D01*
X18311400Y-8582061D02*
X18385900Y-8582061D01*
X18315600Y-8578061D02*
X18385900Y-8578061D01*
X18317400Y-9025539D02*
X18367400Y-9025539D01*
X18320000Y-8574061D02*
X18385900Y-8574061D01*
X18324700Y-8570061D02*
X18385900Y-8570061D01*
X18329500Y-8566061D02*
X18385900Y-8566061D01*
X18334600Y-8562061D02*
X18385900Y-8562061D01*
X18340000Y-8558061D02*
X18385900Y-8558061D01*
X18342400Y-9050539D02*
X18342400Y-9000539D01*
X18345600Y-8554061D02*
X18385900Y-8554061D01*
X18351600Y-8550061D02*
X18385900Y-8550061D01*
X18358000Y-8546061D02*
X18385900Y-8546061D01*
X18364800Y-8542061D02*
X18385900Y-8542061D01*
X18372200Y-8538061D02*
X18607600Y-8538061D01*
X18380100Y-8534061D02*
X18599700Y-8534061D01*
X18388800Y-8530061D02*
X18591000Y-8530061D01*
X18398500Y-8526061D02*
X18581300Y-8526061D01*
X18409400Y-8522061D02*
X18570400Y-8522061D01*
X18422200Y-8518061D02*
X18557600Y-8518061D01*
X18438200Y-8514061D02*
X18541600Y-8514061D01*
X18461600Y-8510061D02*
X18518200Y-8510061D01*
X18593900Y-8542061D02*
X18615000Y-8542061D01*
X18593900Y-8546061D02*
X18621800Y-8546061D01*
X18593900Y-8550061D02*
X18628200Y-8550061D01*
X18593900Y-8554061D02*
X18634200Y-8554061D01*
X18593900Y-8558061D02*
X18639800Y-8558061D01*
X18593900Y-8562061D02*
X18645200Y-8562061D01*
X18593900Y-8566061D02*
X18650300Y-8566061D01*
X18593900Y-8570061D02*
X18655100Y-8570061D01*
X18593900Y-8574061D02*
X18659800Y-8574061D01*
X18593900Y-8578061D02*
X18664200Y-8578061D01*
X18593900Y-8582061D02*
X18668400Y-8582061D01*
X18593900Y-8586061D02*
X18672400Y-8586061D01*
X18593900Y-8590061D02*
X18676300Y-8590061D01*
X18593900Y-8594061D02*
X18680000Y-8594061D01*
X18593900Y-8598061D02*
X18683500Y-8598061D01*
X18593900Y-8602061D02*
X18686900Y-8602061D01*
X18593900Y-8606061D02*
X18690200Y-8606061D01*
X18593900Y-8610061D02*
X18693400Y-8610061D01*
X18593900Y-8614061D02*
X18696400Y-8614061D01*
X18593900Y-8618061D02*
X18699300Y-8618061D01*
X18593900Y-8622061D02*
X18702100Y-8622061D01*
X18593900Y-8626061D02*
X18704800Y-8626061D01*
X18593900Y-8630061D02*
X18707400Y-8630061D01*
X18593900Y-8634061D02*
X18709800Y-8634061D01*
X18593900Y-8638061D02*
X18712200Y-8638061D01*
X18593900Y-8642061D02*
X18714500Y-8642061D01*
X18593900Y-8646061D02*
X18716700Y-8646061D01*
X18593900Y-8650061D02*
X18718800Y-8650061D01*
X18593900Y-8654061D02*
X18720800Y-8654061D01*
X18593900Y-8658061D02*
X18722800Y-8658061D01*
X18593900Y-8662061D02*
X18724600Y-8662061D01*
X18593900Y-8666061D02*
X18726400Y-8666061D01*
X18593900Y-8670061D02*
X18728100Y-8670061D01*
X18593900Y-8674061D02*
X18729700Y-8674061D01*
X18593900Y-8678061D02*
X18731200Y-8678061D01*
X18593900Y-8682061D02*
X18732700Y-8682061D01*
X18593900Y-8686061D02*
X18734100Y-8686061D01*
X18593900Y-8690061D02*
X18735400Y-8690061D01*
X18593900Y-8694061D02*
X18736600Y-8694061D01*
X18593900Y-8698061D02*
X18737800Y-8698061D01*
X18593900Y-8702061D02*
X18738900Y-8702061D01*
X18593900Y-8706061D02*
X18740000Y-8706061D01*
X18593900Y-8710061D02*
X18740900Y-8710061D01*
X18593900Y-8714061D02*
X18741800Y-8714061D01*
X18593900Y-8718061D02*
X18742700Y-8718061D01*
X18593900Y-8722061D02*
X18743500Y-8722061D01*
X18593900Y-8726061D02*
X18744200Y-8726061D01*
X18593900Y-8730061D02*
X18744800Y-8730061D01*
X18593900Y-8734061D02*
X18745400Y-8734061D01*
X18593900Y-8738061D02*
X18745900Y-8738061D01*
X18593900Y-8742061D02*
X18746400Y-8742061D01*
X18593900Y-8746061D02*
X18746800Y-8746061D01*
X18751900Y-8770061D02*
G75*
G02*
X18227900Y-8770061I-262000J0D01*
G01*
X18227900Y-8770061D02*
G75*
G02*
X18751900Y-8770061I262000J0D01*
G01*
%TO.C,C1*%
X15091900Y-9070550D02*
X15737900Y-9070550D01*
X15091900Y-9074550D02*
X15737900Y-9074550D01*
X15092000Y-9066550D02*
X15737800Y-9066550D01*
X15092100Y-9062550D02*
X15737700Y-9062550D01*
X15092300Y-9058550D02*
X15737500Y-9058550D01*
X15092500Y-9054550D02*
X15737300Y-9054550D01*
X15092800Y-9050550D02*
X15310900Y-9050550D01*
X15093100Y-9046550D02*
X15310900Y-9046550D01*
X15093500Y-9042550D02*
X15310900Y-9042550D01*
X15093900Y-9038550D02*
X15310900Y-9038550D01*
X15094400Y-9034550D02*
X15310900Y-9034550D01*
X15094900Y-9030550D02*
X15310900Y-9030550D01*
X15095400Y-9026550D02*
X15310900Y-9026550D01*
X15096100Y-9022550D02*
X15310900Y-9022550D01*
X15096700Y-9018550D02*
X15310900Y-9018550D01*
X15097500Y-9014550D02*
X15310900Y-9014550D01*
X15098200Y-9010550D02*
X15310900Y-9010550D01*
X15099000Y-9006550D02*
X15310900Y-9006550D01*
X15099900Y-9002550D02*
X15310900Y-9002550D01*
X15100900Y-8998550D02*
X15310900Y-8998550D01*
X15101800Y-8994550D02*
X15310900Y-8994550D01*
X15102900Y-8990550D02*
X15310900Y-8990550D01*
X15104000Y-8986550D02*
X15310900Y-8986550D01*
X15105100Y-8982550D02*
X15310900Y-8982550D01*
X15106300Y-8978550D02*
X15310900Y-8978550D01*
X15107600Y-8974550D02*
X15310900Y-8974550D01*
X15108900Y-8970550D02*
X15310900Y-8970550D01*
X15110200Y-8966550D02*
X15310900Y-8966550D01*
X15111700Y-8962550D02*
X15310900Y-8962550D01*
X15113200Y-8958550D02*
X15310900Y-8958550D01*
X15114700Y-8954550D02*
X15310900Y-8954550D01*
X15116300Y-8950550D02*
X15310900Y-8950550D01*
X15118000Y-8946550D02*
X15310900Y-8946550D01*
X15119700Y-8942550D02*
X15310900Y-8942550D01*
X15121500Y-8938550D02*
X15310900Y-8938550D01*
X15123400Y-8934550D02*
X15310900Y-8934550D01*
X15125300Y-8930550D02*
X15310900Y-8930550D01*
X15127300Y-8926550D02*
X15310900Y-8926550D01*
X15129400Y-8922550D02*
X15310900Y-8922550D01*
X15131500Y-8918550D02*
X15310900Y-8918550D01*
X15133700Y-8914550D02*
X15310900Y-8914550D01*
X15136000Y-8910550D02*
X15310900Y-8910550D01*
X15138400Y-8906550D02*
X15310900Y-8906550D01*
X15140800Y-8902550D02*
X15310900Y-8902550D01*
X15143300Y-8898550D02*
X15310900Y-8898550D01*
X15145900Y-8894550D02*
X15310900Y-8894550D01*
X15148600Y-8890550D02*
X15310900Y-8890550D01*
X15151300Y-8886550D02*
X15310900Y-8886550D01*
X15154200Y-8882550D02*
X15310900Y-8882550D01*
X15157200Y-8878550D02*
X15310900Y-8878550D01*
X15160200Y-8874550D02*
X15310900Y-8874550D01*
X15163300Y-8870550D02*
X15310900Y-8870550D01*
X15166600Y-8866550D02*
X15310900Y-8866550D01*
X15169900Y-8862550D02*
X15310900Y-8862550D01*
X15173400Y-8858550D02*
X15310900Y-8858550D01*
X15177000Y-8854550D02*
X15310900Y-8854550D01*
X15180700Y-8850550D02*
X15310900Y-8850550D01*
X15184500Y-8846550D02*
X15310900Y-8846550D01*
X15188500Y-8842550D02*
X15641300Y-8842550D01*
X15192600Y-8838550D02*
X15637200Y-8838550D01*
X15196800Y-8834550D02*
X15633000Y-8834550D01*
X15199500Y-9393074D02*
X15262500Y-9393074D01*
X15201200Y-8830550D02*
X15628600Y-8830550D01*
X15205800Y-8826550D02*
X15624000Y-8826550D01*
X15210500Y-8822550D02*
X15619300Y-8822550D01*
X15215400Y-8818550D02*
X15614400Y-8818550D01*
X15220600Y-8814550D02*
X15609200Y-8814550D01*
X15225900Y-8810550D02*
X15603900Y-8810550D01*
X15231000Y-9424574D02*
X15231000Y-9361574D01*
X15231500Y-8806550D02*
X15598300Y-8806550D01*
X15237400Y-8802550D02*
X15592400Y-8802550D01*
X15243500Y-8798550D02*
X15586300Y-8798550D01*
X15250000Y-8794550D02*
X15579800Y-8794550D01*
X15256800Y-8790550D02*
X15573000Y-8790550D01*
X15264000Y-8786550D02*
X15565800Y-8786550D01*
X15271700Y-8782550D02*
X15558100Y-8782550D01*
X15279900Y-8778550D02*
X15549900Y-8778550D01*
X15288800Y-8774550D02*
X15541000Y-8774550D01*
X15298400Y-8770550D02*
X15531400Y-8770550D01*
X15309100Y-8766550D02*
X15520700Y-8766550D01*
X15321000Y-8762550D02*
X15508800Y-8762550D01*
X15334800Y-8758550D02*
X15495000Y-8758550D01*
X15351600Y-8754550D02*
X15478200Y-8754550D01*
X15374700Y-8750550D02*
X15455100Y-8750550D01*
X15518900Y-8846550D02*
X15645300Y-8846550D01*
X15518900Y-8850550D02*
X15649100Y-8850550D01*
X15518900Y-8854550D02*
X15652800Y-8854550D01*
X15518900Y-8858550D02*
X15656400Y-8858550D01*
X15518900Y-8862550D02*
X15659900Y-8862550D01*
X15518900Y-8866550D02*
X15663200Y-8866550D01*
X15518900Y-8870550D02*
X15666500Y-8870550D01*
X15518900Y-8874550D02*
X15669600Y-8874550D01*
X15518900Y-8878550D02*
X15672600Y-8878550D01*
X15518900Y-8882550D02*
X15675600Y-8882550D01*
X15518900Y-8886550D02*
X15678500Y-8886550D01*
X15518900Y-8890550D02*
X15681200Y-8890550D01*
X15518900Y-8894550D02*
X15683900Y-8894550D01*
X15518900Y-8898550D02*
X15686500Y-8898550D01*
X15518900Y-8902550D02*
X15689000Y-8902550D01*
X15518900Y-8906550D02*
X15691400Y-8906550D01*
X15518900Y-8910550D02*
X15693800Y-8910550D01*
X15518900Y-8914550D02*
X15696100Y-8914550D01*
X15518900Y-8918550D02*
X15698300Y-8918550D01*
X15518900Y-8922550D02*
X15700400Y-8922550D01*
X15518900Y-8926550D02*
X15702500Y-8926550D01*
X15518900Y-8930550D02*
X15704500Y-8930550D01*
X15518900Y-8934550D02*
X15706400Y-8934550D01*
X15518900Y-8938550D02*
X15708300Y-8938550D01*
X15518900Y-8942550D02*
X15710100Y-8942550D01*
X15518900Y-8946550D02*
X15711800Y-8946550D01*
X15518900Y-8950550D02*
X15713500Y-8950550D01*
X15518900Y-8954550D02*
X15715100Y-8954550D01*
X15518900Y-8958550D02*
X15716600Y-8958550D01*
X15518900Y-8962550D02*
X15718100Y-8962550D01*
X15518900Y-8966550D02*
X15719600Y-8966550D01*
X15518900Y-8970550D02*
X15720900Y-8970550D01*
X15518900Y-8974550D02*
X15722200Y-8974550D01*
X15518900Y-8978550D02*
X15723500Y-8978550D01*
X15518900Y-8982550D02*
X15724700Y-8982550D01*
X15518900Y-8986550D02*
X15725800Y-8986550D01*
X15518900Y-8990550D02*
X15726900Y-8990550D01*
X15518900Y-8994550D02*
X15728000Y-8994550D01*
X15518900Y-8998550D02*
X15728900Y-8998550D01*
X15518900Y-9002550D02*
X15729900Y-9002550D01*
X15518900Y-9006550D02*
X15730800Y-9006550D01*
X15518900Y-9010550D02*
X15731600Y-9010550D01*
X15518900Y-9014550D02*
X15732300Y-9014550D01*
X15518900Y-9018550D02*
X15733100Y-9018550D01*
X15518900Y-9022550D02*
X15733700Y-9022550D01*
X15518900Y-9026550D02*
X15734400Y-9026550D01*
X15518900Y-9030550D02*
X15734900Y-9030550D01*
X15518900Y-9034550D02*
X15735400Y-9034550D01*
X15518900Y-9038550D02*
X15735900Y-9038550D01*
X15518900Y-9042550D02*
X15736300Y-9042550D01*
X15518900Y-9046550D02*
X15736700Y-9046550D01*
X15518900Y-9050550D02*
X15737000Y-9050550D01*
X15741900Y-9074550D02*
G75*
G02*
X15087900Y-9074550I-327000J0D01*
G01*
X15087900Y-9074550D02*
G75*
G02*
X15741900Y-9074550I327000J0D01*
G01*
%TO.C,R3*%
X10977900Y-11821550D02*
X10977900Y-12475550D01*
X10977900Y-12475550D02*
X11010900Y-12475550D01*
X11010900Y-11821550D02*
X10977900Y-11821550D01*
X11218900Y-11821550D02*
X11251900Y-11821550D01*
X11251900Y-11821550D02*
X11251900Y-12475550D01*
X11251900Y-12475550D02*
X11218900Y-12475550D01*
%TO.C,D2*%
X15691300Y-13280550D02*
X15706900Y-13280550D01*
X15922900Y-13280550D02*
X15938500Y-13280550D01*
X15691348Y-13280550D02*
G75*
G02*
X15706900Y-12957406I123552J156000D01*
G01*
X15706900Y-13228646D02*
G75*
G02*
X15706900Y-13020454I108000J104096D01*
G01*
X15922900Y-12957406D02*
G75*
G02*
X15938452Y-13280550I-108000J-167144D01*
G01*
X15922900Y-13020454D02*
G75*
G02*
X15922900Y-13228646I-108000J-104096D01*
G01*
D11*
%TO.C,U2*%
X16155297Y-12436878D02*
X16349652Y-12532968D01*
X16157792Y-10181369D02*
X16155297Y-12436878D01*
X16169352Y-10092093D02*
X16157792Y-10181369D01*
X16192188Y-10016589D02*
X16169352Y-10092093D01*
X16224940Y-9953404D02*
X16192188Y-10016589D01*
X16266250Y-9901084D02*
X16224940Y-9953404D01*
X16289748Y-12738924D02*
X16289748Y-12938243D01*
X16289748Y-12938243D02*
X16351484Y-12938243D01*
X16314755Y-9858176D02*
X16266250Y-9901084D01*
X16349652Y-12532968D02*
X16352631Y-13213802D01*
X16351153Y-13218273D02*
X16932282Y-13218273D01*
X16353248Y-13139326D02*
X16358540Y-12530785D01*
X16355012Y-12738924D02*
X16289748Y-12738924D01*
X16358540Y-12530785D02*
X16513762Y-12530785D01*
X16369098Y-9823224D02*
X16314755Y-9858176D01*
X16427918Y-9794776D02*
X16369098Y-9823224D01*
X16489854Y-9771377D02*
X16427918Y-9794776D01*
X16510234Y-13139326D02*
X16353248Y-13139326D01*
X16513762Y-12530785D02*
X16566679Y-12583701D01*
X16563151Y-13089938D02*
X16510234Y-13139326D01*
X16566679Y-12583701D02*
X16691915Y-12583701D01*
X16691915Y-12583701D02*
X16691915Y-13089938D01*
X16691915Y-13089938D02*
X16563151Y-13089938D01*
X16932282Y-13218273D02*
X16934915Y-13089929D01*
X16934915Y-13089929D02*
X17818037Y-13090598D01*
X17036907Y-12595695D02*
X17036907Y-13177069D01*
X17036907Y-13177069D02*
X17750865Y-13177069D01*
X17750865Y-12595695D02*
X17036907Y-12595695D01*
X17750865Y-13177069D02*
X17750865Y-12595695D01*
X17817840Y-13210824D02*
X18725919Y-13208216D01*
X17818037Y-13090598D02*
X17817840Y-13210824D01*
X18393645Y-9774252D02*
X16489854Y-9771377D01*
X18453425Y-9792819D02*
X18393645Y-9774252D01*
X18507844Y-9817512D02*
X18453425Y-9792819D01*
X18556951Y-9848276D02*
X18507844Y-9817512D01*
X18600795Y-9885055D02*
X18556951Y-9848276D01*
X18639425Y-9927792D02*
X18600795Y-9885055D01*
X18672890Y-9976433D02*
X18639425Y-9927792D01*
X18701238Y-10030921D02*
X18672890Y-9976433D01*
X18724520Y-10091201D02*
X18701238Y-10030921D01*
X18725919Y-13208216D02*
X18724520Y-10091201D01*
D12*
%TO.C,R5*%
X14131900Y-9180550D02*
X14131900Y-9213550D01*
X14131900Y-9454550D02*
X14131900Y-9421550D01*
X14785900Y-9180550D02*
X14131900Y-9180550D01*
X14785900Y-9213550D02*
X14785900Y-9180550D01*
X14785900Y-9421550D02*
X14785900Y-9454550D01*
X14785900Y-9454550D02*
X14131900Y-9454550D01*
%TO.C,C5*%
X13697900Y-13216050D02*
X13697900Y-13369050D01*
X13881900Y-13216050D02*
X13881900Y-13369050D01*
%TO.C,SW1*%
X10964000Y-10265000D02*
X11236000Y-10265000D01*
X11236000Y-9243000D01*
X10964000Y-9243000D01*
X10964000Y-10265000D01*
D10*
%TO.C,U3*%
X13950900Y-9572550D02*
X15728900Y-9572550D01*
X13950900Y-12162550D02*
X13950900Y-9572550D01*
X15728900Y-9572550D02*
X15728900Y-12162550D01*
X15728900Y-12162550D02*
X13950900Y-12162550D01*
%TD*%
D13*
X10814900Y-7824550D02*
X18814900Y-7824550D01*
X18814900Y-13824550D01*
X10814900Y-13824550D01*
X10814900Y-7824550D01*
M02*
