%TF.GenerationSoftware,KiCad,Pcbnew,9.0.3*%
%TF.CreationDate,2025-07-17T19:28:32+07:00*%
%TF.ProjectId,CFBoard,4346426f-6172-4642-9e6b-696361645f70,rev?*%
%TF.SameCoordinates,Original*%
%TF.FileFunction,Soldermask,Bot*%
%TF.FilePolarity,Negative*%
%FSLAX45Y45*%
G04 Gerber Fmt 4.5, Leading zero omitted, Abs format (unit mm)*
G04 Created by KiCad (PCBNEW 9.0.3) date 2025-07-17 19:28:32*
%MOMM*%
%LPD*%
G01*
G04 APERTURE LIST*
G04 Aperture macros list*
%AMRoundRect*
0 Rectangle with rounded corners*
0 $1 Rounding radius*
0 $2 $3 $4 $5 $6 $7 $8 $9 X,Y pos of 4 corners*
0 Add a 4 corners polygon primitive as box body*
4,1,4,$2,$3,$4,$5,$6,$7,$8,$9,$2,$3,0*
0 Add four circle primitives for the rounded corners*
1,1,$1+$1,$2,$3*
1,1,$1+$1,$4,$5*
1,1,$1+$1,$6,$7*
1,1,$1+$1,$8,$9*
0 Add four rect primitives between the rounded corners*
20,1,$1+$1,$2,$3,$4,$5,0*
20,1,$1+$1,$4,$5,$6,$7,0*
20,1,$1+$1,$6,$7,$8,$9,0*
20,1,$1+$1,$8,$9,$2,$3,0*%
G04 Aperture macros list end*
%ADD10C,1.600000*%
%ADD11RoundRect,0.250000X-0.600000X-0.725000X0.600000X-0.725000X0.600000X0.725000X-0.600000X0.725000X0*%
%ADD12O,1.700000X1.950000*%
%ADD13C,3.200000*%
%ADD14RoundRect,0.249999X-0.850001X0.850001X-0.850001X-0.850001X0.850001X-0.850001X0.850001X0.850001X0*%
%ADD15C,2.200000*%
%ADD16R,2.000000X2.000000*%
%ADD17R,1.700000X1.700000*%
%ADD18C,2.000000*%
%ADD19RoundRect,0.250000X-0.550000X0.550000X-0.550000X-0.550000X0.550000X-0.550000X0.550000X0.550000X0*%
%ADD20R,2.000000X1.700000*%
%ADD21RoundRect,0.250000X0.550000X-0.550000X0.550000X0.550000X-0.550000X0.550000X-0.550000X-0.550000X0*%
%ADD22R,1.800000X1.800000*%
%ADD23C,1.800000*%
%ADD24R,1.500000X1.500000*%
%TA.AperFunction,Profile*%
%ADD25C,0.300000*%
%TD*%
G04 APERTURE END LIST*
D10*
%TO.C,R5*%
X14566000Y-8968000D03*
X13804000Y-8968000D03*
%TD*%
%TO.C,R3*%
X10841000Y-11418000D03*
X10841000Y-12180000D03*
%TD*%
%TO.C,R2*%
X10841000Y-10318000D03*
X10841000Y-11080000D03*
%TD*%
%TO.C,R1*%
X14566000Y-8518000D03*
X13804000Y-8518000D03*
%TD*%
D11*
%TO.C,CONN1*%
X13861100Y-7937950D03*
D12*
X14111100Y-7937950D03*
X14361100Y-7937950D03*
X14611100Y-7937950D03*
X14861100Y-7937950D03*
X15111100Y-7937950D03*
%TD*%
D13*
%TO.C,REF\u002A\u002A*%
X10839900Y-13199550D03*
%TD*%
D10*
%TO.C,C4*%
X13528600Y-9380450D03*
X13528600Y-9880450D03*
%TD*%
D14*
%TO.C,D1*%
X15676100Y-9650000D03*
D15*
X15676100Y-10412000D03*
%TD*%
D10*
%TO.C,R4*%
X15691000Y-10968000D03*
X15691000Y-11730000D03*
%TD*%
D13*
%TO.C,REF\u002A\u002A*%
X18250000Y-7800000D03*
%TD*%
D16*
%TO.C,REG1*%
X15799000Y-8806050D03*
X15799000Y-9100450D03*
X15799000Y-7800450D03*
X15799000Y-8094850D03*
X17653200Y-8806050D03*
X17653200Y-9100450D03*
X17653200Y-7800450D03*
X17653200Y-8094850D03*
%TD*%
D17*
%TO.C,U4*%
X13806000Y-13076000D03*
D18*
X13806000Y-12822000D03*
X13806000Y-12568000D03*
X13806000Y-12314000D03*
X13806000Y-12060000D03*
%TD*%
D19*
%TO.C,C3*%
X15541000Y-12025000D03*
D10*
X15541000Y-12275000D03*
%TD*%
D13*
%TO.C,REF\u002A\u002A*%
X10839900Y-7800000D03*
%TD*%
D20*
%TO.C,U1*%
X11467000Y-8021000D03*
D18*
X11467000Y-8275000D03*
X11467000Y-8529000D03*
X11467000Y-8783000D03*
X11467000Y-9037000D03*
X11467000Y-9291000D03*
X11467000Y-9545000D03*
X11467000Y-9799000D03*
X11467000Y-10053000D03*
X11467000Y-10307000D03*
X11467000Y-10561000D03*
X11467000Y-10815000D03*
X11467000Y-11069000D03*
X11467000Y-11323000D03*
X11467000Y-11577000D03*
X11467000Y-11831000D03*
X11467000Y-12085000D03*
X11467000Y-12339000D03*
X11467000Y-12593000D03*
X11467000Y-12847000D03*
X12991000Y-12847000D03*
X12991000Y-12593000D03*
X12991000Y-12339000D03*
X12991000Y-12085000D03*
X12991000Y-11831000D03*
X12991000Y-11577000D03*
X12991000Y-11323000D03*
X12991000Y-11069000D03*
X12991000Y-10815000D03*
X12991000Y-10561000D03*
X12991000Y-10307000D03*
X12991000Y-10053000D03*
X12991000Y-9799000D03*
X12991000Y-9545000D03*
X12991000Y-9291000D03*
X12991000Y-9037000D03*
X12991000Y-8783000D03*
X12991000Y-8529000D03*
X12991000Y-8275000D03*
X12991000Y-8021000D03*
%TD*%
D21*
%TO.C,C2*%
X18178200Y-8570961D03*
D10*
X18178200Y-8320961D03*
%TD*%
D21*
%TO.C,C1*%
X15141000Y-8850000D03*
D10*
X15141000Y-8600000D03*
%TD*%
D22*
%TO.C,D2*%
X15541000Y-12902000D03*
D23*
X15541000Y-12648000D03*
%TD*%
D18*
%TO.C,U2*%
X18300000Y-12003000D03*
X18300000Y-11749000D03*
X18300000Y-11495000D03*
X18300000Y-11241000D03*
X18300000Y-10987000D03*
X18300000Y-10733000D03*
X18300000Y-10479000D03*
X18300000Y-10225000D03*
X16014000Y-10225000D03*
X16014000Y-10479000D03*
X16014000Y-10733000D03*
X16014000Y-10987000D03*
X16014000Y-11241000D03*
X16014000Y-11495000D03*
X16014000Y-11749000D03*
X16014000Y-12003000D03*
%TD*%
D10*
%TO.C,C5*%
X13526100Y-12575450D03*
X13526100Y-13075450D03*
%TD*%
D24*
%TO.C,SW1*%
X10826100Y-9404450D03*
D10*
X10826100Y-9658450D03*
X10826100Y-9150450D03*
%TD*%
D17*
%TO.C,U3*%
X13805600Y-9391450D03*
D18*
X13805600Y-9645450D03*
X13805600Y-9899450D03*
X13805600Y-10153450D03*
X13805600Y-10407450D03*
X13805600Y-10661450D03*
X13805600Y-10915450D03*
X13805600Y-11169450D03*
X13805600Y-11423450D03*
X13805600Y-11677450D03*
%TD*%
D13*
%TO.C,REF\u002A\u002A*%
X18250000Y-13200000D03*
%TD*%
D25*
X10550000Y-7500000D02*
X18550000Y-7500000D01*
X18550000Y-13500000D01*
X10550000Y-13500000D01*
X10550000Y-7500000D01*
M02*
