%TF.GenerationSoftware,KiCad,Pcbnew,9.0.3*%
%TF.CreationDate,2025-07-17T22:22:16+07:00*%
%TF.ProjectId,CFBoard,4346426f-6172-4642-9e6b-696361645f70,rev?*%
%TF.SameCoordinates,Original*%
%TF.FileFunction,Copper,L1,Top*%
%TF.FilePolarity,Positive*%
%FSLAX45Y45*%
G04 Gerber Fmt 4.5, Leading zero omitted, Abs format (unit mm)*
G04 Created by KiCad (PCBNEW 9.0.3) date 2025-07-17 22:22:16*
%MOMM*%
%LPD*%
G01*
G04 APERTURE LIST*
G04 Aperture macros list*
%AMRoundRect*
0 Rectangle with rounded corners*
0 $1 Rounding radius*
0 $2 $3 $4 $5 $6 $7 $8 $9 X,Y pos of 4 corners*
0 Add a 4 corners polygon primitive as box body*
4,1,4,$2,$3,$4,$5,$6,$7,$8,$9,$2,$3,0*
0 Add four circle primitives for the rounded corners*
1,1,$1+$1,$2,$3*
1,1,$1+$1,$4,$5*
1,1,$1+$1,$6,$7*
1,1,$1+$1,$8,$9*
0 Add four rect primitives between the rounded corners*
20,1,$1+$1,$2,$3,$4,$5,0*
20,1,$1+$1,$4,$5,$6,$7,0*
20,1,$1+$1,$6,$7,$8,$9,0*
20,1,$1+$1,$8,$9,$2,$3,0*%
G04 Aperture macros list end*
%TA.AperFunction,ComponentPad*%
%ADD10C,1.600000*%
%TD*%
%TA.AperFunction,ComponentPad*%
%ADD11RoundRect,0.250000X-0.600000X-0.725000X0.600000X-0.725000X0.600000X0.725000X-0.600000X0.725000X0*%
%TD*%
%TA.AperFunction,ComponentPad*%
%ADD12O,1.700000X1.950000*%
%TD*%
%TA.AperFunction,ComponentPad*%
%ADD13RoundRect,0.249999X-0.850001X0.850001X-0.850001X-0.850001X0.850001X-0.850001X0.850001X0.850001X0*%
%TD*%
%TA.AperFunction,ComponentPad*%
%ADD14C,2.200000*%
%TD*%
%TA.AperFunction,ComponentPad*%
%ADD15R,2.000000X2.000000*%
%TD*%
%TA.AperFunction,ComponentPad*%
%ADD16R,1.700000X1.700000*%
%TD*%
%TA.AperFunction,ComponentPad*%
%ADD17C,2.000000*%
%TD*%
%TA.AperFunction,ComponentPad*%
%ADD18RoundRect,0.250000X-0.550000X0.550000X-0.550000X-0.550000X0.550000X-0.550000X0.550000X0.550000X0*%
%TD*%
%TA.AperFunction,ComponentPad*%
%ADD19R,2.000000X1.700000*%
%TD*%
%TA.AperFunction,ComponentPad*%
%ADD20RoundRect,0.250000X0.550000X-0.550000X0.550000X0.550000X-0.550000X0.550000X-0.550000X-0.550000X0*%
%TD*%
%TA.AperFunction,ComponentPad*%
%ADD21R,1.800000X1.800000*%
%TD*%
%TA.AperFunction,ComponentPad*%
%ADD22C,1.800000*%
%TD*%
%TA.AperFunction,ComponentPad*%
%ADD23R,1.500000X1.500000*%
%TD*%
%TA.AperFunction,ViaPad*%
%ADD24C,0.600000*%
%TD*%
%TA.AperFunction,Conductor*%
%ADD25C,1.000000*%
%TD*%
%TA.AperFunction,Conductor*%
%ADD26C,0.400000*%
%TD*%
%TA.AperFunction,Profile*%
%ADD27C,0.300000*%
%TD*%
G04 APERTURE END LIST*
D10*
%TO.P,R5,1*%
%TO.N,Net-(U3-INT)*%
X14566000Y-8968000D03*
%TO.P,R5,2*%
%TO.N,Net-(U1-PB0)*%
X13804000Y-8968000D03*
%TD*%
%TO.P,R3,1*%
%TO.N,Net-(U1-PB7)*%
X10841000Y-11418000D03*
%TO.P,R3,2*%
%TO.N,Net-(U2-Tx)*%
X10841000Y-12180000D03*
%TD*%
%TO.P,R2,1*%
%TO.N,Net-(U1-PB6)*%
X10841000Y-10318000D03*
%TO.P,R2,2*%
%TO.N,Net-(U2-Rx)*%
X10841000Y-11080000D03*
%TD*%
%TO.P,R1,1*%
%TO.N,Net-(U2-D5)*%
X14566000Y-8518000D03*
%TO.P,R1,2*%
%TO.N,Net-(U1-RST)*%
X13804000Y-8518000D03*
%TD*%
D11*
%TO.P,CONN1,1,VIN*%
%TO.N,Net-(CONN1-VIN)*%
X13861100Y-7937950D03*
D12*
%TO.P,CONN1,2,GND*%
%TO.N,GNDPWR*%
X14111100Y-7937950D03*
%TO.P,CONN1,3,Signal_1*%
%TO.N,Net-(CONN1-Signal_1)*%
X14361100Y-7937950D03*
%TO.P,CONN1,4,Signal_2*%
%TO.N,Net-(CONN1-Signal_2)*%
X14611100Y-7937950D03*
%TO.P,CONN1,5,Signal_3*%
%TO.N,Net-(CONN1-Signal_3)*%
X14861100Y-7937950D03*
%TO.P,CONN1,6,Signal_4*%
%TO.N,Net-(CONN1-Signal_4)*%
X15111100Y-7937950D03*
%TD*%
D10*
%TO.P,C4,1*%
%TO.N,DIODPWR*%
X13528600Y-9380450D03*
%TO.P,C4,2*%
%TO.N,GNDREG*%
X13528600Y-9880450D03*
%TD*%
D13*
%TO.P,D1,1,K*%
%TO.N,DIODPWR*%
X15676100Y-9650000D03*
D14*
%TO.P,D1,2,A*%
%TO.N,Net-(D1-A)*%
X15676100Y-10412000D03*
%TD*%
D10*
%TO.P,R4,1*%
%TO.N,Net-(D2-K)*%
X15691000Y-10968000D03*
%TO.P,R4,2*%
%TO.N,Net-(U2-D7)*%
X15691000Y-11730000D03*
%TD*%
D15*
%TO.P,REG1,1,VIN+*%
%TO.N,Net-(REG1-VIN+)*%
X15799000Y-8806050D03*
X15799000Y-9100450D03*
%TO.P,REG1,2,VIN-*%
%TO.N,GNDPWR*%
X15799000Y-7800450D03*
X15799000Y-8094850D03*
%TO.P,REG1,3,VOUT+*%
%TO.N,Net-(REG1-VOUT+)*%
X17653200Y-8806050D03*
X17653200Y-9100450D03*
%TO.P,REG1,4,VOUT-*%
%TO.N,GNDREG*%
X17653200Y-7800450D03*
X17653200Y-8094850D03*
%TD*%
D16*
%TO.P,U4,1,VIN*%
%TO.N,DIODPWR*%
X13806000Y-13076000D03*
D17*
%TO.P,U4,2,GND*%
%TO.N,GNDREG*%
X13806000Y-12822000D03*
%TO.P,U4,3,SCL*%
%TO.N,Net-(U1-PB8)*%
X13806000Y-12568000D03*
%TO.P,U4,4,SDA*%
%TO.N,Net-(U1-PB9)*%
X13806000Y-12314000D03*
%TO.P,U4,5,NC*%
%TO.N,unconnected-(U4-NC-Pad5)*%
X13806000Y-12060000D03*
%TD*%
D18*
%TO.P,C3,1*%
%TO.N,Net-(D1-A)*%
X15541000Y-12025000D03*
D10*
%TO.P,C3,2*%
%TO.N,GNDREG*%
X15541000Y-12275000D03*
%TD*%
D19*
%TO.P,U1,1,PB12*%
%TO.N,unconnected-(U1-PB12-Pad1)*%
X11467000Y-8021000D03*
D17*
%TO.P,U1,2,PB13*%
%TO.N,unconnected-(U1-PB13-Pad2)*%
X11467000Y-8275000D03*
%TO.P,U1,3,PB14*%
%TO.N,unconnected-(U1-PB14-Pad3)*%
X11467000Y-8529000D03*
%TO.P,U1,4,PB15*%
%TO.N,unconnected-(U1-PB15-Pad4)*%
X11467000Y-8783000D03*
%TO.P,U1,5,PA8*%
%TO.N,unconnected-(U1-PA8-Pad5)*%
X11467000Y-9037000D03*
%TO.P,U1,6,PA9*%
%TO.N,unconnected-(U1-PA9-Pad6)*%
X11467000Y-9291000D03*
%TO.P,U1,7,PA10*%
%TO.N,unconnected-(U1-PA10-Pad7)*%
X11467000Y-9545000D03*
%TO.P,U1,8,PA11*%
%TO.N,unconnected-(U1-PA11-Pad8)*%
X11467000Y-9799000D03*
%TO.P,U1,9,PA12*%
%TO.N,unconnected-(U1-PA12-Pad9)*%
X11467000Y-10053000D03*
%TO.P,U1,10,PA15*%
%TO.N,unconnected-(U1-PA15-Pad10)*%
X11467000Y-10307000D03*
%TO.P,U1,11,PB3*%
%TO.N,unconnected-(U1-PB3-Pad11)*%
X11467000Y-10561000D03*
%TO.P,U1,12,PB4*%
%TO.N,unconnected-(U1-PB4-Pad12)*%
X11467000Y-10815000D03*
%TO.P,U1,13,PB5*%
%TO.N,unconnected-(U1-PB5-Pad13)*%
X11467000Y-11069000D03*
%TO.P,U1,14,PB6*%
%TO.N,Net-(U1-PB6)*%
X11467000Y-11323000D03*
%TO.P,U1,15,PB7*%
%TO.N,Net-(U1-PB7)*%
X11467000Y-11577000D03*
%TO.P,U1,16,PB8*%
%TO.N,Net-(U1-PB8)*%
X11467000Y-11831000D03*
%TO.P,U1,17,PB9*%
%TO.N,Net-(U1-PB9)*%
X11467000Y-12085000D03*
%TO.P,U1,18,5V*%
%TO.N,unconnected-(U1-5V-Pad18)*%
X11467000Y-12339000D03*
%TO.P,U1,19,GND*%
%TO.N,unconnected-(U1-GND-Pad19)*%
X11467000Y-12593000D03*
%TO.P,U1,20,3V3*%
%TO.N,unconnected-(U1-3V3-Pad20)*%
X11467000Y-12847000D03*
%TO.P,U1,21,VBat*%
%TO.N,unconnected-(U1-VBat-Pad21)*%
X12991000Y-12847000D03*
%TO.P,U1,22,PC13*%
%TO.N,unconnected-(U1-PC13-Pad22)*%
X12991000Y-12593000D03*
%TO.P,U1,23,PC14*%
%TO.N,unconnected-(U1-PC14-Pad23)*%
X12991000Y-12339000D03*
%TO.P,U1,24,PC15*%
%TO.N,unconnected-(U1-PC15-Pad24)*%
X12991000Y-12085000D03*
%TO.P,U1,25,PA0*%
%TO.N,Net-(CONN1-Signal_1)*%
X12991000Y-11831000D03*
%TO.P,U1,26,PA1*%
%TO.N,Net-(CONN1-Signal_2)*%
X12991000Y-11577000D03*
%TO.P,U1,27,PA2*%
%TO.N,Net-(CONN1-Signal_3)*%
X12991000Y-11323000D03*
%TO.P,U1,28,PA3*%
%TO.N,Net-(CONN1-Signal_4)*%
X12991000Y-11069000D03*
%TO.P,U1,29,PA4*%
%TO.N,unconnected-(U1-PA4-Pad29)*%
X12991000Y-10815000D03*
%TO.P,U1,30,PA5*%
%TO.N,unconnected-(U1-PA5-Pad30)*%
X12991000Y-10561000D03*
%TO.P,U1,31,PA6*%
%TO.N,unconnected-(U1-PA6-Pad31)*%
X12991000Y-10307000D03*
%TO.P,U1,32,PA7*%
%TO.N,unconnected-(U1-PA7-Pad32)*%
X12991000Y-10053000D03*
%TO.P,U1,33,PB0*%
%TO.N,Net-(U1-PB0)*%
X12991000Y-9799000D03*
%TO.P,U1,34,PB1*%
%TO.N,unconnected-(U1-PB1-Pad34)*%
X12991000Y-9545000D03*
%TO.P,U1,35,PB10*%
%TO.N,unconnected-(U1-PB10-Pad35)*%
X12991000Y-9291000D03*
%TO.P,U1,36,PB11*%
%TO.N,unconnected-(U1-PB11-Pad36)*%
X12991000Y-9037000D03*
%TO.P,U1,37,RST*%
%TO.N,Net-(U1-RST)*%
X12991000Y-8783000D03*
%TO.P,U1,38,3V3*%
%TO.N,DIODPWR*%
X12991000Y-8529000D03*
%TO.P,U1,39,GND*%
%TO.N,GNDREG*%
X12991000Y-8275000D03*
%TO.P,U1,40,GND*%
%TO.N,unconnected-(U1-GND-Pad40)*%
X12991000Y-8021000D03*
%TD*%
D20*
%TO.P,C2,1*%
%TO.N,Net-(REG1-VOUT+)*%
X18178200Y-8570961D03*
D10*
%TO.P,C2,2*%
%TO.N,GNDREG*%
X18178200Y-8320961D03*
%TD*%
D20*
%TO.P,C1,1*%
%TO.N,Net-(REG1-VIN+)*%
X15141000Y-8850000D03*
D10*
%TO.P,C1,2*%
%TO.N,GNDPWR*%
X15141000Y-8600000D03*
%TD*%
D21*
%TO.P,D2,1,K*%
%TO.N,Net-(D2-K)*%
X15541000Y-12902000D03*
D22*
%TO.P,D2,2,A*%
%TO.N,GNDREG*%
X15541000Y-12648000D03*
%TD*%
D17*
%TO.P,U2,1,5V*%
%TO.N,Net-(REG1-VOUT+)*%
X18300000Y-12003000D03*
%TO.P,U2,2,GND*%
%TO.N,GNDREG*%
X18300000Y-11749000D03*
%TO.P,U2,3,D4*%
%TO.N,unconnected-(U2-D4-Pad3)*%
X18300000Y-11495000D03*
%TO.P,U2,4,D3*%
%TO.N,unconnected-(U2-D3-Pad4)*%
X18300000Y-11241000D03*
%TO.P,U2,5,D2*%
%TO.N,unconnected-(U2-D2-Pad5)*%
X18300000Y-10987000D03*
%TO.P,U2,6,D1*%
%TO.N,unconnected-(U2-D1-Pad6)*%
X18300000Y-10733000D03*
%TO.P,U2,7,Rx*%
%TO.N,Net-(U2-Rx)*%
X18300000Y-10479000D03*
%TO.P,U2,8,Tx*%
%TO.N,Net-(U2-Tx)*%
X18300000Y-10225000D03*
%TO.P,U2,9,Rst*%
%TO.N,unconnected-(U2-Rst-Pad9)*%
X16014000Y-10225000D03*
%TO.P,U2,10,A0*%
%TO.N,unconnected-(U2-A0-Pad10)*%
X16014000Y-10479000D03*
%TO.P,U2,11,D0*%
%TO.N,unconnected-(U2-D0-Pad11)*%
X16014000Y-10733000D03*
%TO.P,U2,12,D5*%
%TO.N,Net-(U2-D5)*%
X16014000Y-10987000D03*
%TO.P,U2,13,D6*%
%TO.N,unconnected-(U2-D6-Pad13)*%
X16014000Y-11241000D03*
%TO.P,U2,14,D7*%
%TO.N,Net-(U2-D7)*%
X16014000Y-11495000D03*
%TO.P,U2,15,D8*%
%TO.N,unconnected-(U2-D8-Pad15)*%
X16014000Y-11749000D03*
%TO.P,U2,16,3.3V*%
%TO.N,Net-(D1-A)*%
X16014000Y-12003000D03*
%TD*%
D10*
%TO.P,C5,1*%
%TO.N,GNDREG*%
X13526100Y-12575450D03*
%TO.P,C5,2*%
%TO.N,DIODPWR*%
X13526100Y-13075450D03*
%TD*%
D23*
%TO.P,SW1,1,A*%
%TO.N,Net-(CONN1-VIN)*%
X10826100Y-9404450D03*
D10*
%TO.P,SW1,2,B*%
%TO.N,Net-(REG1-VIN+)*%
X10826100Y-9658450D03*
%TO.P,SW1,3*%
%TO.N,N/C*%
X10826100Y-9150450D03*
%TD*%
D16*
%TO.P,U3,1,VIN*%
%TO.N,DIODPWR*%
X13805600Y-9391450D03*
D17*
%TO.P,U3,2,GND*%
%TO.N,GNDREG*%
X13805600Y-9645450D03*
%TO.P,U3,3,SCL*%
%TO.N,Net-(U1-PB8)*%
X13805600Y-9899450D03*
%TO.P,U3,4,SDA*%
%TO.N,Net-(U1-PB9)*%
X13805600Y-10153450D03*
%TO.P,U3,5,EDA*%
%TO.N,unconnected-(U3-EDA-Pad5)*%
X13805600Y-10407450D03*
%TO.P,U3,6,ECL*%
%TO.N,unconnected-(U3-ECL-Pad6)*%
X13805600Y-10661450D03*
%TO.P,U3,7,AD0*%
%TO.N,unconnected-(U3-AD0-Pad7)*%
X13805600Y-10915450D03*
%TO.P,U3,8,INT*%
%TO.N,Net-(U3-INT)*%
X13805600Y-11169450D03*
%TO.P,U3,9,NCS*%
%TO.N,unconnected-(U3-NCS-Pad9)*%
X13805600Y-11423450D03*
%TO.P,U3,10,FSYNC*%
%TO.N,unconnected-(U3-FSYNC-Pad10)*%
X13805600Y-11677450D03*
%TD*%
D24*
%TO.N,Net-(U1-PB8)*%
X12000100Y-13188099D03*
%TO.N,Net-(U1-PB9)*%
X12000000Y-13268200D03*
%TD*%
D25*
%TO.N,DIODPWR*%
X13528600Y-9380450D02*
X13794600Y-9380450D01*
X13526100Y-13075450D02*
X13805450Y-13075450D01*
D26*
%TO.N,Net-(CONN1-Signal_1)*%
X14361100Y-7937950D02*
X14223500Y-7800350D01*
X14223500Y-7800350D02*
X13583236Y-7800350D01*
X13415936Y-7633050D02*
X12678367Y-7633050D01*
X13583236Y-7800350D02*
X13415936Y-7633050D01*
X12678367Y-7633050D02*
X12560700Y-7750717D01*
X12560700Y-7750717D02*
X12560700Y-11400700D01*
X12560700Y-11400700D02*
X12991000Y-11831000D01*
%TO.N,Net-(U1-PB8)*%
X12000100Y-13188099D02*
X11986099Y-13188099D01*
X11986099Y-13188099D02*
X11866000Y-13068000D01*
%TO.N,Net-(U1-PB9)*%
X11981206Y-13268200D02*
X11805900Y-13092894D01*
X12000000Y-13268200D02*
X11981206Y-13268200D01*
%TO.N,Net-(CONN1-Signal_2)*%
X12703262Y-7693150D02*
X12620800Y-7775612D01*
X14473500Y-8075550D02*
X13773442Y-8075550D01*
X12620800Y-7775612D02*
X12620800Y-11206800D01*
X13391042Y-7693150D02*
X12703262Y-7693150D01*
X14611100Y-7937950D02*
X14473500Y-8075550D01*
X12620800Y-11206800D02*
X12991000Y-11577000D01*
X13773442Y-8075550D02*
X13391042Y-7693150D01*
%TO.N,Net-(CONN1-Signal_3)*%
X12728156Y-7753250D02*
X12680900Y-7800506D01*
X12680900Y-7800506D02*
X12680900Y-11012900D01*
X13366148Y-7753250D02*
X12728156Y-7753250D01*
X12680900Y-11012900D02*
X12991000Y-11323000D01*
X14663400Y-8135650D02*
X13748548Y-8135650D01*
X14861100Y-7937950D02*
X14663400Y-8135650D01*
X13748548Y-8135650D02*
X13366148Y-7753250D01*
%TO.N,Net-(CONN1-Signal_4)*%
X13341254Y-7813350D02*
X12753050Y-7813350D01*
X12741000Y-7825400D02*
X12741000Y-10866000D01*
X13723654Y-8195750D02*
X13341254Y-7813350D01*
X12741000Y-10866000D02*
X12944000Y-11069000D01*
X15111100Y-7937950D02*
X14853300Y-8195750D01*
X14853300Y-8195750D02*
X13723654Y-8195750D01*
X12753050Y-7813350D02*
X12741000Y-7825400D01*
%TO.N,Net-(D2-K)*%
X15250000Y-11940006D02*
X15250000Y-12800000D01*
X15691000Y-10968000D02*
X15500000Y-11159000D01*
X15500000Y-11690006D02*
X15250000Y-11940006D01*
X15500000Y-11159000D02*
X15500000Y-11690006D01*
X15352000Y-12902000D02*
X15541000Y-12902000D01*
X15250000Y-12800000D02*
X15352000Y-12902000D01*
%TO.N,Net-(U2-D5)*%
X14566000Y-8691000D02*
X15300000Y-9425000D01*
X16225000Y-9750000D02*
X16225000Y-10776000D01*
X16225000Y-10776000D02*
X16014000Y-10987000D01*
X15900000Y-9425000D02*
X16225000Y-9750000D01*
X15300000Y-9425000D02*
X15900000Y-9425000D01*
X14566000Y-8518000D02*
X14566000Y-8691000D01*
%TO.N,Net-(U1-RST)*%
X13256000Y-8518000D02*
X12991000Y-8783000D01*
X13804000Y-8518000D02*
X13256000Y-8518000D01*
%TO.N,Net-(U2-Rx)*%
X14193491Y-13270491D02*
X17566053Y-13270491D01*
X10641000Y-12268000D02*
X10714497Y-12341497D01*
X18147550Y-10479000D02*
X18300000Y-10479000D01*
X10714497Y-12341497D02*
X10917503Y-12341497D01*
X11941317Y-13398300D02*
X14065683Y-13398300D01*
X11316106Y-13178100D02*
X11721117Y-13178100D01*
X11721117Y-13178100D02*
X11941317Y-13398300D01*
X11180900Y-12604894D02*
X11180900Y-13042894D01*
X18061200Y-10565350D02*
X18147550Y-10479000D01*
X10641000Y-11280000D02*
X10641000Y-12268000D01*
X10841000Y-11080000D02*
X10641000Y-11280000D01*
X10917503Y-12341497D02*
X11180900Y-12604894D01*
X17566053Y-13270491D02*
X18061200Y-12775344D01*
X18061200Y-12775344D02*
X18061200Y-10565350D01*
X14065683Y-13398300D02*
X14193491Y-13270491D01*
X11180900Y-13042894D02*
X11316106Y-13178100D01*
%TO.N,Net-(U1-PB6)*%
X11191000Y-10518000D02*
X11191000Y-11318000D01*
X10841000Y-10318000D02*
X10991000Y-10318000D01*
X10991000Y-10318000D02*
X11191000Y-10518000D01*
X11196000Y-11323000D02*
X11467000Y-11323000D01*
X11191000Y-11318000D02*
X11196000Y-11323000D01*
%TO.N,Net-(U2-Tx)*%
X17541159Y-13210391D02*
X18001100Y-12750450D01*
X18001100Y-10523900D02*
X18300000Y-10225000D01*
X18001100Y-12750450D02*
X18001100Y-10523900D01*
X11241000Y-12580000D02*
X11241000Y-13018000D01*
X11241000Y-13018000D02*
X11341000Y-13118000D01*
X14168597Y-13210391D02*
X17541159Y-13210391D01*
X11341000Y-13118000D02*
X11746012Y-13118000D01*
X11966212Y-13338200D02*
X14040788Y-13338200D01*
X11746012Y-13118000D02*
X11966212Y-13338200D01*
X14040788Y-13338200D02*
X14168597Y-13210391D01*
X10841000Y-12180000D02*
X11241000Y-12580000D01*
%TO.N,Net-(U1-PB7)*%
X10991000Y-11418000D02*
X11150000Y-11577000D01*
X11150000Y-11577000D02*
X11467000Y-11577000D01*
X10841000Y-11418000D02*
X10991000Y-11418000D01*
%TO.N,Net-(U2-D7)*%
X15691000Y-11730000D02*
X15691000Y-11584000D01*
X15691000Y-11584000D02*
X15780000Y-11495000D01*
X15780000Y-11495000D02*
X16014000Y-11495000D01*
%TO.N,Net-(U1-PB9)*%
X13805600Y-10153450D02*
X13636594Y-10153450D01*
X13510100Y-12187106D02*
X13636994Y-12314000D01*
X13510100Y-11074031D02*
X13510100Y-12187106D01*
X11805900Y-12282900D02*
X11608000Y-12085000D01*
X11608000Y-12085000D02*
X11467000Y-12085000D01*
X13555200Y-10234844D02*
X13555200Y-11028931D01*
X13636594Y-10153450D02*
X13555200Y-10234844D01*
X13555200Y-11028931D02*
X13510100Y-11074031D01*
X11805900Y-13092894D02*
X11805900Y-12282900D01*
X13636994Y-12314000D02*
X13806000Y-12314000D01*
%TO.N,Net-(U1-PB0)*%
X13175000Y-8683994D02*
X13175000Y-9750000D01*
X13280894Y-8578100D02*
X13175000Y-8683994D01*
X13804000Y-8968000D02*
X13804000Y-8691100D01*
X13175000Y-9750000D02*
X13040000Y-9750000D01*
X13804000Y-8691100D02*
X13691000Y-8578100D01*
X13691000Y-8578100D02*
X13280894Y-8578100D01*
%TO.N,Net-(U1-PB8)*%
X11675000Y-12067006D02*
X11675000Y-11925000D01*
X13495100Y-10209950D02*
X13495100Y-11004036D01*
X13450000Y-12212000D02*
X13806000Y-12568000D01*
X11866000Y-13068000D02*
X11866000Y-12258006D01*
X13805600Y-9899450D02*
X13495100Y-10209950D01*
X11866000Y-12258006D02*
X11675000Y-12067006D01*
X13450000Y-11049136D02*
X13450000Y-12212000D01*
X11561000Y-11925000D02*
X11467000Y-11831000D01*
X11675000Y-11925000D02*
X11561000Y-11925000D01*
X13495100Y-11004036D02*
X13450000Y-11049136D01*
%TD*%
%TA.AperFunction,Conductor*%
%TO.N,DIODPWR*%
G36*
X12642326Y-7552018D02*
G01*
X12646901Y-7557299D01*
X12647896Y-7564215D01*
X12644993Y-7570570D01*
X12642511Y-7572760D01*
X12633713Y-7578638D01*
X12633713Y-7578639D01*
X12506289Y-7706063D01*
X12506289Y-7706063D01*
X12498622Y-7717537D01*
X12493342Y-7730284D01*
X12493342Y-7730284D01*
X12493342Y-7730285D01*
X12490753Y-7743300D01*
X12490753Y-7743301D01*
X12490650Y-7743818D01*
X12490650Y-7743818D01*
X12490650Y-11393801D01*
X12490650Y-11407599D01*
X12490650Y-11407600D01*
X12490650Y-11407600D01*
X12493342Y-11421132D01*
X12493342Y-11421133D01*
X12498622Y-11433881D01*
X12506289Y-11445354D01*
X12506289Y-11445355D01*
X12842252Y-11781317D01*
X12845600Y-11787450D01*
X12845277Y-11793917D01*
X12844645Y-11795863D01*
X12844645Y-11795863D01*
X12840950Y-11819190D01*
X12840950Y-11842810D01*
X12844645Y-11866137D01*
X12851943Y-11888600D01*
X12861230Y-11906825D01*
X12862666Y-11909643D01*
X12876548Y-11928751D01*
X12893249Y-11945452D01*
X12896713Y-11947968D01*
X12900979Y-11953501D01*
X12901577Y-11960463D01*
X12898316Y-11966642D01*
X12896713Y-11968031D01*
X12894936Y-11969322D01*
X12893249Y-11970548D01*
X12876548Y-11987249D01*
X12876548Y-11987249D01*
X12876548Y-11987249D01*
X12873684Y-11991191D01*
X12862666Y-12006357D01*
X12851943Y-12027400D01*
X12844645Y-12049863D01*
X12840950Y-12073190D01*
X12840950Y-12096810D01*
X12844645Y-12120137D01*
X12851943Y-12142600D01*
X12859663Y-12157751D01*
X12862666Y-12163643D01*
X12876548Y-12182751D01*
X12893249Y-12199452D01*
X12896713Y-12201968D01*
X12900979Y-12207501D01*
X12901577Y-12214463D01*
X12898316Y-12220642D01*
X12896713Y-12222031D01*
X12894936Y-12223322D01*
X12893249Y-12224548D01*
X12876548Y-12241249D01*
X12876548Y-12241249D01*
X12876548Y-12241249D01*
X12873691Y-12245181D01*
X12862666Y-12260357D01*
X12851943Y-12281400D01*
X12844645Y-12303863D01*
X12840950Y-12327190D01*
X12840950Y-12350810D01*
X12844645Y-12374137D01*
X12851943Y-12396600D01*
X12859663Y-12411751D01*
X12862666Y-12417643D01*
X12876548Y-12436751D01*
X12893249Y-12453452D01*
X12896713Y-12455968D01*
X12900979Y-12461501D01*
X12901577Y-12468463D01*
X12898316Y-12474642D01*
X12896713Y-12476031D01*
X12894936Y-12477322D01*
X12893249Y-12478548D01*
X12876548Y-12495249D01*
X12876548Y-12495249D01*
X12876548Y-12495249D01*
X12870586Y-12503455D01*
X12862666Y-12514357D01*
X12851943Y-12535400D01*
X12844645Y-12557863D01*
X12840950Y-12581190D01*
X12840950Y-12604810D01*
X12844645Y-12628137D01*
X12851943Y-12650600D01*
X12859663Y-12665751D01*
X12862666Y-12671643D01*
X12876548Y-12690751D01*
X12893249Y-12707452D01*
X12896713Y-12709968D01*
X12900979Y-12715501D01*
X12901577Y-12722463D01*
X12898316Y-12728642D01*
X12896713Y-12730031D01*
X12894936Y-12731322D01*
X12893249Y-12732548D01*
X12876548Y-12749249D01*
X12876548Y-12749249D01*
X12876548Y-12749249D01*
X12872498Y-12754824D01*
X12862666Y-12768357D01*
X12851943Y-12789400D01*
X12844645Y-12811863D01*
X12840950Y-12835190D01*
X12840950Y-12858810D01*
X12844645Y-12882137D01*
X12851943Y-12904600D01*
X12859663Y-12919751D01*
X12862666Y-12925643D01*
X12876548Y-12944751D01*
X12893249Y-12961452D01*
X12912357Y-12975334D01*
X12920138Y-12979299D01*
X12933400Y-12986057D01*
X12933400Y-12986057D01*
X12933401Y-12986057D01*
X12942411Y-12988984D01*
X12955863Y-12993355D01*
X12979190Y-12997050D01*
X12979191Y-12997050D01*
X13002810Y-12997050D01*
X13026137Y-12993355D01*
X13028411Y-12992616D01*
X13048599Y-12986057D01*
X13069643Y-12975334D01*
X13088751Y-12961452D01*
X13095262Y-12954940D01*
X13476301Y-12954940D01*
X13526100Y-13004739D01*
X13526100Y-13004739D01*
X13575899Y-12954940D01*
X13575899Y-12954940D01*
X13556542Y-12948651D01*
X13536332Y-12945450D01*
X13515868Y-12945450D01*
X13495658Y-12948651D01*
X13495658Y-12948651D01*
X13476301Y-12954940D01*
X13095262Y-12954940D01*
X13105452Y-12944751D01*
X13119334Y-12925643D01*
X13130057Y-12904599D01*
X13137355Y-12882137D01*
X13141050Y-12858810D01*
X13141050Y-12835190D01*
X13137355Y-12811863D01*
X13132129Y-12795777D01*
X13130057Y-12789401D01*
X13130057Y-12789400D01*
X13130057Y-12789400D01*
X13119334Y-12768357D01*
X13118799Y-12767620D01*
X13105452Y-12749249D01*
X13088751Y-12732548D01*
X13085287Y-12730032D01*
X13081021Y-12724499D01*
X13080423Y-12717537D01*
X13083683Y-12711358D01*
X13085287Y-12709968D01*
X13088751Y-12707452D01*
X13105452Y-12690751D01*
X13119334Y-12671643D01*
X13130057Y-12650599D01*
X13137355Y-12628137D01*
X13137499Y-12627228D01*
X13141050Y-12604810D01*
X13141050Y-12581190D01*
X13137355Y-12557863D01*
X13131933Y-12541176D01*
X13130057Y-12535401D01*
X13130057Y-12535400D01*
X13130057Y-12535400D01*
X13121298Y-12518210D01*
X13119334Y-12514357D01*
X13105452Y-12495249D01*
X13088751Y-12478548D01*
X13085287Y-12476032D01*
X13081021Y-12470499D01*
X13080423Y-12463537D01*
X13083683Y-12457358D01*
X13085287Y-12455968D01*
X13088751Y-12453452D01*
X13105452Y-12436751D01*
X13119334Y-12417643D01*
X13130057Y-12396599D01*
X13137355Y-12374137D01*
X13141050Y-12350810D01*
X13141050Y-12327190D01*
X13137355Y-12303863D01*
X13130057Y-12281400D01*
X13119334Y-12260357D01*
X13105452Y-12241249D01*
X13088751Y-12224548D01*
X13085287Y-12222032D01*
X13082872Y-12218900D01*
X13379950Y-12218900D01*
X13382642Y-12232432D01*
X13382642Y-12232433D01*
X13387922Y-12245181D01*
X13395589Y-12256654D01*
X13395589Y-12256655D01*
X13566382Y-12427447D01*
X13569730Y-12433580D01*
X13569232Y-12440549D01*
X13565045Y-12446142D01*
X13558498Y-12448584D01*
X13555674Y-12448463D01*
X13536335Y-12445400D01*
X13515865Y-12445400D01*
X13513433Y-12445785D01*
X13495646Y-12448602D01*
X13476178Y-12454928D01*
X13457939Y-12464221D01*
X13441379Y-12476253D01*
X13426903Y-12490729D01*
X13414871Y-12507289D01*
X13405578Y-12525528D01*
X13399252Y-12544996D01*
X13396050Y-12565215D01*
X13396050Y-12585685D01*
X13399252Y-12605903D01*
X13405578Y-12625372D01*
X13414871Y-12643611D01*
X13426903Y-12660171D01*
X13441379Y-12674647D01*
X13455585Y-12684968D01*
X13457939Y-12686679D01*
X13469437Y-12692537D01*
X13476178Y-12695972D01*
X13476178Y-12695972D01*
X13476178Y-12695972D01*
X13486614Y-12699363D01*
X13495646Y-12702298D01*
X13504135Y-12703642D01*
X13515865Y-12705500D01*
X13515865Y-12705500D01*
X13536335Y-12705500D01*
X13536335Y-12705500D01*
X13556553Y-12702298D01*
X13576022Y-12695972D01*
X13594261Y-12686679D01*
X13603559Y-12679923D01*
X13610821Y-12674647D01*
X13610821Y-12674647D01*
X13610822Y-12674647D01*
X13625297Y-12660172D01*
X13625297Y-12660171D01*
X13625297Y-12660171D01*
X13637329Y-12643611D01*
X13639655Y-12639046D01*
X13645676Y-12627228D01*
X13650473Y-12622148D01*
X13657256Y-12620469D01*
X13663869Y-12622723D01*
X13667773Y-12627228D01*
X13671178Y-12633910D01*
X13677666Y-12646643D01*
X13691548Y-12665751D01*
X13708249Y-12682452D01*
X13711713Y-12684968D01*
X13715979Y-12690501D01*
X13716577Y-12697463D01*
X13713316Y-12703642D01*
X13711713Y-12705031D01*
X13709936Y-12706322D01*
X13708249Y-12707548D01*
X13691548Y-12724249D01*
X13691548Y-12724249D01*
X13691548Y-12724249D01*
X13685586Y-12732455D01*
X13677666Y-12743357D01*
X13666943Y-12764400D01*
X13659645Y-12786863D01*
X13655950Y-12810190D01*
X13655950Y-12833810D01*
X13659645Y-12857137D01*
X13666943Y-12879600D01*
X13677666Y-12900643D01*
X13691548Y-12919751D01*
X13691548Y-12919751D01*
X13699095Y-12927298D01*
X13702444Y-12933430D01*
X13701945Y-12940399D01*
X13697758Y-12945993D01*
X13697266Y-12946309D01*
X13685281Y-12955281D01*
X13685281Y-12955281D01*
X13676665Y-12966791D01*
X13676664Y-12966791D01*
X13671640Y-12980262D01*
X13671640Y-12980263D01*
X13671000Y-12986215D01*
X13671000Y-13022427D01*
X13669031Y-13029131D01*
X13663751Y-13033707D01*
X13656835Y-13034701D01*
X13650480Y-13031799D01*
X13646807Y-13026259D01*
X13646609Y-13025651D01*
X13596811Y-13075450D01*
X13596811Y-13075450D01*
X13646609Y-13125249D01*
X13646807Y-13124641D01*
X13650751Y-13118873D01*
X13657186Y-13116153D01*
X13664071Y-13117345D01*
X13669219Y-13122069D01*
X13671000Y-13128472D01*
X13671000Y-13165784D01*
X13671640Y-13171737D01*
X13671640Y-13171738D01*
X13676664Y-13185209D01*
X13676665Y-13185209D01*
X13685281Y-13196719D01*
X13685281Y-13196719D01*
X13696791Y-13205335D01*
X13696791Y-13205335D01*
X13710262Y-13210360D01*
X13710263Y-13210360D01*
X13716215Y-13211000D01*
X13716217Y-13211000D01*
X13756000Y-13211000D01*
X13856000Y-13211000D01*
X13895783Y-13211000D01*
X13895784Y-13211000D01*
X13901737Y-13210360D01*
X13901738Y-13210360D01*
X13915209Y-13205335D01*
X13915209Y-13205335D01*
X13926719Y-13196719D01*
X13926719Y-13196719D01*
X13935335Y-13185209D01*
X13935335Y-13185209D01*
X13940360Y-13171738D01*
X13940360Y-13171737D01*
X13941000Y-13165784D01*
X13941000Y-13165783D01*
X13941000Y-13126000D01*
X13856000Y-13126000D01*
X13856000Y-13211000D01*
X13756000Y-13211000D01*
X13756000Y-13088400D01*
X13756815Y-13085624D01*
X13759407Y-13095299D01*
X13765990Y-13106701D01*
X13775299Y-13116010D01*
X13786701Y-13122592D01*
X13799417Y-13126000D01*
X13812583Y-13126000D01*
X13825299Y-13122592D01*
X13836701Y-13116010D01*
X13846010Y-13106701D01*
X13852592Y-13095299D01*
X13856000Y-13082583D01*
X13856000Y-13069417D01*
X13852592Y-13056701D01*
X13846010Y-13045299D01*
X13836701Y-13035990D01*
X13825299Y-13029407D01*
X13815189Y-13026698D01*
X13818400Y-13026000D01*
X13941000Y-13026000D01*
X13941000Y-12986217D01*
X13941000Y-12986215D01*
X13940360Y-12980263D01*
X13940360Y-12980262D01*
X13935335Y-12966791D01*
X13935335Y-12966791D01*
X13926719Y-12955281D01*
X13926719Y-12955281D01*
X13914499Y-12946133D01*
X13914676Y-12945896D01*
X13910788Y-12942007D01*
X13909304Y-12935179D01*
X13911747Y-12928633D01*
X13912903Y-12927299D01*
X13920452Y-12919751D01*
X13934334Y-12900643D01*
X13945057Y-12879599D01*
X13952355Y-12857137D01*
X13954332Y-12844654D01*
X13956050Y-12833810D01*
X13956050Y-12810190D01*
X13952355Y-12786863D01*
X13946383Y-12768484D01*
X13945057Y-12764401D01*
X13945057Y-12764400D01*
X13945057Y-12764400D01*
X13937336Y-12749249D01*
X13934334Y-12743357D01*
X13920452Y-12724249D01*
X13903751Y-12707548D01*
X13903618Y-12707452D01*
X13902986Y-12706992D01*
X13900287Y-12705032D01*
X13896021Y-12699499D01*
X13895423Y-12692537D01*
X13898683Y-12686358D01*
X13900287Y-12684968D01*
X13903751Y-12682452D01*
X13920452Y-12665751D01*
X13934334Y-12646643D01*
X13945057Y-12625599D01*
X13952355Y-12603137D01*
X13953764Y-12594239D01*
X13956050Y-12579810D01*
X13956050Y-12556190D01*
X13952355Y-12532863D01*
X13947594Y-12518210D01*
X13945057Y-12510401D01*
X13945057Y-12510400D01*
X13945057Y-12510400D01*
X13935033Y-12490729D01*
X13934334Y-12489357D01*
X13920452Y-12470249D01*
X13903751Y-12453548D01*
X13903618Y-12453452D01*
X13900287Y-12451032D01*
X13896021Y-12445499D01*
X13895423Y-12438537D01*
X13898683Y-12432358D01*
X13900287Y-12430968D01*
X13903751Y-12428452D01*
X13920452Y-12411751D01*
X13934334Y-12392643D01*
X13945057Y-12371599D01*
X13952355Y-12349137D01*
X13953302Y-12343161D01*
X13956050Y-12325810D01*
X13956050Y-12302190D01*
X13952355Y-12278863D01*
X13947760Y-12264722D01*
X13945057Y-12256401D01*
X13945057Y-12256400D01*
X13945057Y-12256400D01*
X13937336Y-12241249D01*
X13934334Y-12235357D01*
X13920452Y-12216249D01*
X13903751Y-12199548D01*
X13903618Y-12199452D01*
X13900287Y-12197032D01*
X13896021Y-12191499D01*
X13895423Y-12184537D01*
X13898683Y-12178358D01*
X13900287Y-12176968D01*
X13903751Y-12174452D01*
X13920452Y-12157751D01*
X13934334Y-12138643D01*
X13945057Y-12117599D01*
X13952355Y-12095137D01*
X13953960Y-12085002D01*
X13956050Y-12071810D01*
X13956050Y-12048190D01*
X13952355Y-12024863D01*
X13948969Y-12014441D01*
X13945057Y-12002401D01*
X13945057Y-12002400D01*
X13945057Y-12002400D01*
X13934334Y-11981357D01*
X13920452Y-11962249D01*
X13903751Y-11945548D01*
X13884643Y-11931666D01*
X13878923Y-11928751D01*
X13863600Y-11920943D01*
X13841137Y-11913645D01*
X13817810Y-11909950D01*
X13817809Y-11909950D01*
X13794191Y-11909950D01*
X13794190Y-11909950D01*
X13770863Y-11913645D01*
X13748400Y-11920943D01*
X13727357Y-11931666D01*
X13718547Y-11938067D01*
X13708249Y-11945548D01*
X13708249Y-11945548D01*
X13708249Y-11945548D01*
X13691548Y-11962249D01*
X13691548Y-11962249D01*
X13691548Y-11962249D01*
X13687300Y-11968096D01*
X13677666Y-11981357D01*
X13666943Y-12002400D01*
X13659645Y-12024863D01*
X13655950Y-12048190D01*
X13655950Y-12071810D01*
X13659645Y-12095137D01*
X13666943Y-12117600D01*
X13677666Y-12138643D01*
X13691548Y-12157751D01*
X13708249Y-12174452D01*
X13711713Y-12176968D01*
X13715979Y-12182501D01*
X13716577Y-12189463D01*
X13713316Y-12195642D01*
X13711713Y-12197031D01*
X13709936Y-12198322D01*
X13708249Y-12199548D01*
X13691548Y-12216249D01*
X13677678Y-12235339D01*
X13672145Y-12239606D01*
X13665184Y-12240203D01*
X13659004Y-12236943D01*
X13658878Y-12236819D01*
X13583782Y-12161722D01*
X13580433Y-12155590D01*
X13580150Y-12152954D01*
X13580150Y-11108182D01*
X13582118Y-11101479D01*
X13583782Y-11099414D01*
X13609611Y-11073585D01*
X13609611Y-11073585D01*
X13609935Y-11073101D01*
X13617277Y-11062112D01*
X13621167Y-11052722D01*
X13621972Y-11050778D01*
X13622292Y-11050005D01*
X13622558Y-11049364D01*
X13623211Y-11046081D01*
X13624423Y-11039988D01*
X13625250Y-11035830D01*
X13625250Y-10268996D01*
X13627218Y-10262292D01*
X13628882Y-10260228D01*
X13643128Y-10245982D01*
X13658479Y-10230631D01*
X13664611Y-10227283D01*
X13671580Y-10227781D01*
X13677173Y-10231968D01*
X13677278Y-10232111D01*
X13691148Y-10251201D01*
X13707849Y-10267902D01*
X13711313Y-10270418D01*
X13715579Y-10275951D01*
X13716177Y-10282913D01*
X13712916Y-10289092D01*
X13711313Y-10290482D01*
X13709536Y-10291772D01*
X13707849Y-10292998D01*
X13691148Y-10309699D01*
X13691148Y-10309699D01*
X13691148Y-10309699D01*
X13689266Y-10312289D01*
X13677266Y-10328807D01*
X13666543Y-10349850D01*
X13659245Y-10372313D01*
X13655550Y-10395640D01*
X13655550Y-10419260D01*
X13659245Y-10442587D01*
X13666543Y-10465050D01*
X13675362Y-10482357D01*
X13677266Y-10486093D01*
X13691148Y-10505201D01*
X13707849Y-10521902D01*
X13711313Y-10524418D01*
X13715579Y-10529951D01*
X13716177Y-10536913D01*
X13712916Y-10543092D01*
X13711313Y-10544482D01*
X13709536Y-10545772D01*
X13707849Y-10546998D01*
X13691148Y-10563699D01*
X13691148Y-10563699D01*
X13691148Y-10563699D01*
X13686897Y-10569550D01*
X13677266Y-10582807D01*
X13666543Y-10603850D01*
X13659245Y-10626313D01*
X13655550Y-10649640D01*
X13655550Y-10673260D01*
X13659245Y-10696587D01*
X13666543Y-10719050D01*
X13675362Y-10736357D01*
X13677266Y-10740093D01*
X13691148Y-10759201D01*
X13707849Y-10775902D01*
X13711313Y-10778418D01*
X13715579Y-10783951D01*
X13716177Y-10790913D01*
X13712916Y-10797092D01*
X13711313Y-10798482D01*
X13709536Y-10799772D01*
X13707849Y-10800998D01*
X13691148Y-10817699D01*
X13691148Y-10817699D01*
X13691148Y-10817699D01*
X13685186Y-10825905D01*
X13677266Y-10836807D01*
X13666543Y-10857850D01*
X13659245Y-10880313D01*
X13655550Y-10903640D01*
X13655550Y-10927260D01*
X13659245Y-10950587D01*
X13666543Y-10973050D01*
X13675362Y-10990357D01*
X13677266Y-10994093D01*
X13691148Y-11013201D01*
X13707849Y-11029902D01*
X13711313Y-11032418D01*
X13715579Y-11037951D01*
X13716177Y-11044913D01*
X13712916Y-11051092D01*
X13711313Y-11052482D01*
X13710983Y-11052721D01*
X13707849Y-11054998D01*
X13691148Y-11071699D01*
X13691148Y-11071699D01*
X13691148Y-11071699D01*
X13689778Y-11073585D01*
X13677266Y-11090807D01*
X13666543Y-11111850D01*
X13659245Y-11134313D01*
X13655550Y-11157640D01*
X13655550Y-11181260D01*
X13659245Y-11204587D01*
X13666543Y-11227050D01*
X13675362Y-11244357D01*
X13677266Y-11248093D01*
X13691148Y-11267201D01*
X13707849Y-11283902D01*
X13711313Y-11286418D01*
X13715579Y-11291951D01*
X13716177Y-11298913D01*
X13712916Y-11305092D01*
X13711313Y-11306481D01*
X13709983Y-11307448D01*
X13707849Y-11308998D01*
X13691148Y-11325699D01*
X13691148Y-11325699D01*
X13691148Y-11325699D01*
X13689561Y-11327884D01*
X13677266Y-11344807D01*
X13666543Y-11365850D01*
X13659245Y-11388313D01*
X13655550Y-11411640D01*
X13655550Y-11435260D01*
X13659245Y-11458587D01*
X13666543Y-11481050D01*
X13675362Y-11498357D01*
X13677266Y-11502093D01*
X13691148Y-11521201D01*
X13707849Y-11537902D01*
X13711313Y-11540418D01*
X13715579Y-11545951D01*
X13716177Y-11552913D01*
X13712916Y-11559092D01*
X13711313Y-11560481D01*
X13709536Y-11561772D01*
X13707849Y-11562998D01*
X13691148Y-11579699D01*
X13691148Y-11579699D01*
X13691148Y-11579699D01*
X13689561Y-11581884D01*
X13677266Y-11598807D01*
X13666543Y-11619850D01*
X13659245Y-11642313D01*
X13655550Y-11665640D01*
X13655550Y-11689260D01*
X13659245Y-11712587D01*
X13666543Y-11735050D01*
X13675362Y-11752357D01*
X13677266Y-11756093D01*
X13691148Y-11775201D01*
X13707849Y-11791902D01*
X13726957Y-11805784D01*
X13736899Y-11810850D01*
X13748000Y-11816507D01*
X13748000Y-11816507D01*
X13748001Y-11816507D01*
X13756261Y-11819191D01*
X13770463Y-11823805D01*
X13793790Y-11827500D01*
X13793791Y-11827500D01*
X13817410Y-11827500D01*
X13840737Y-11823805D01*
X13863199Y-11816507D01*
X13884243Y-11805784D01*
X13903351Y-11791902D01*
X13920052Y-11775201D01*
X13933934Y-11756093D01*
X13944657Y-11735049D01*
X13951955Y-11712587D01*
X13953315Y-11704000D01*
X13955650Y-11689260D01*
X13955650Y-11665640D01*
X13951955Y-11642313D01*
X13946550Y-11625678D01*
X13944657Y-11619851D01*
X13944657Y-11619850D01*
X13944657Y-11619850D01*
X13933934Y-11598807D01*
X13920052Y-11579699D01*
X13903351Y-11562998D01*
X13899887Y-11560482D01*
X13895621Y-11554949D01*
X13895023Y-11547987D01*
X13898283Y-11541808D01*
X13899887Y-11540418D01*
X13903351Y-11537902D01*
X13920052Y-11521201D01*
X13933934Y-11502093D01*
X13944657Y-11481049D01*
X13951955Y-11458587D01*
X13953560Y-11448453D01*
X13955650Y-11435260D01*
X13955650Y-11411640D01*
X13951955Y-11388313D01*
X13947732Y-11375316D01*
X13944657Y-11365851D01*
X13944657Y-11365850D01*
X13944657Y-11365850D01*
X13936498Y-11349839D01*
X13933934Y-11344807D01*
X13920052Y-11325699D01*
X13903351Y-11308998D01*
X13899887Y-11306482D01*
X13895621Y-11300949D01*
X13895023Y-11293987D01*
X13898283Y-11287808D01*
X13899887Y-11286418D01*
X13903351Y-11283902D01*
X13920052Y-11267201D01*
X13933934Y-11248093D01*
X13944657Y-11227049D01*
X13951955Y-11204587D01*
X13953315Y-11196000D01*
X13955650Y-11181260D01*
X13955650Y-11157640D01*
X13951955Y-11134313D01*
X13946817Y-11118499D01*
X13944657Y-11111851D01*
X13944657Y-11111851D01*
X13944657Y-11111850D01*
X13936683Y-11096201D01*
X13933934Y-11090807D01*
X13920052Y-11071699D01*
X13903351Y-11054998D01*
X13899887Y-11052482D01*
X13895621Y-11046949D01*
X13895023Y-11039988D01*
X13898283Y-11033808D01*
X13899887Y-11032418D01*
X13903351Y-11029902D01*
X13920052Y-11013201D01*
X13933934Y-10994093D01*
X13944657Y-10973049D01*
X13951955Y-10950587D01*
X13953315Y-10942000D01*
X13955650Y-10927260D01*
X13955650Y-10903640D01*
X13951955Y-10880313D01*
X13946817Y-10864499D01*
X13944657Y-10857851D01*
X13944657Y-10857851D01*
X13944657Y-10857850D01*
X13934517Y-10837950D01*
X13933934Y-10836807D01*
X13920052Y-10817699D01*
X13903351Y-10800998D01*
X13899887Y-10798482D01*
X13895621Y-10792949D01*
X13895023Y-10785988D01*
X13898283Y-10779808D01*
X13899887Y-10778418D01*
X13903351Y-10775902D01*
X13920052Y-10759201D01*
X13933934Y-10740093D01*
X13944657Y-10719049D01*
X13951955Y-10696587D01*
X13953315Y-10688000D01*
X13955650Y-10673260D01*
X13955650Y-10649640D01*
X13951955Y-10626313D01*
X13946817Y-10610499D01*
X13944657Y-10603851D01*
X13944657Y-10603851D01*
X13944657Y-10603850D01*
X13939000Y-10592749D01*
X13933934Y-10582807D01*
X13920052Y-10563699D01*
X13903351Y-10546998D01*
X13899887Y-10544482D01*
X13895621Y-10538949D01*
X13895023Y-10531988D01*
X13898283Y-10525808D01*
X13899887Y-10524418D01*
X13903351Y-10521902D01*
X13920052Y-10505201D01*
X13933934Y-10486093D01*
X13944657Y-10465049D01*
X13951955Y-10442587D01*
X13953315Y-10434000D01*
X13955650Y-10419260D01*
X13955650Y-10399404D01*
X15516050Y-10399404D01*
X15516050Y-10424596D01*
X15519527Y-10446548D01*
X15519991Y-10449479D01*
X15527776Y-10473438D01*
X15539213Y-10495885D01*
X15554020Y-10516265D01*
X15554020Y-10516265D01*
X15571834Y-10534079D01*
X15571835Y-10534080D01*
X15578537Y-10538949D01*
X15592215Y-10548887D01*
X15604599Y-10555197D01*
X15614662Y-10560324D01*
X15614662Y-10560324D01*
X15614662Y-10560324D01*
X15638621Y-10568109D01*
X15663504Y-10572050D01*
X15663504Y-10572050D01*
X15688696Y-10572050D01*
X15688696Y-10572050D01*
X15713578Y-10568109D01*
X15737538Y-10560324D01*
X15759984Y-10548887D01*
X15780366Y-10534079D01*
X15798179Y-10516266D01*
X15812987Y-10495885D01*
X15824424Y-10473438D01*
X15832209Y-10449479D01*
X15836150Y-10424596D01*
X15836150Y-10399404D01*
X15832209Y-10374522D01*
X15824424Y-10350562D01*
X15824424Y-10350562D01*
X15824424Y-10350562D01*
X15818763Y-10339451D01*
X15812987Y-10328116D01*
X15809090Y-10322751D01*
X15798180Y-10307735D01*
X15798179Y-10307735D01*
X15780365Y-10289921D01*
X15780365Y-10289920D01*
X15759985Y-10275113D01*
X15759985Y-10275113D01*
X15759984Y-10275113D01*
X15752975Y-10271541D01*
X15737538Y-10263676D01*
X15713578Y-10255891D01*
X15688696Y-10251950D01*
X15663504Y-10251950D01*
X15651063Y-10253921D01*
X15638621Y-10255891D01*
X15614662Y-10263676D01*
X15592215Y-10275113D01*
X15571835Y-10289920D01*
X15571834Y-10289921D01*
X15554020Y-10307735D01*
X15554020Y-10307735D01*
X15539213Y-10328115D01*
X15527776Y-10350562D01*
X15519991Y-10374521D01*
X15518229Y-10385643D01*
X15516050Y-10399404D01*
X13955650Y-10399404D01*
X13955650Y-10395640D01*
X13951955Y-10372313D01*
X13946817Y-10356499D01*
X13944657Y-10349851D01*
X13944657Y-10349851D01*
X13944657Y-10349850D01*
X13933934Y-10328807D01*
X13920052Y-10309699D01*
X13903351Y-10292998D01*
X13899887Y-10290482D01*
X13895621Y-10284949D01*
X13895023Y-10277988D01*
X13898283Y-10271808D01*
X13899887Y-10270418D01*
X13903351Y-10267902D01*
X13920052Y-10251201D01*
X13933934Y-10232093D01*
X13944657Y-10211049D01*
X13951955Y-10188587D01*
X13953315Y-10180000D01*
X13955650Y-10165260D01*
X13955650Y-10141640D01*
X13951955Y-10118313D01*
X13948569Y-10107891D01*
X13944657Y-10095851D01*
X13944657Y-10095851D01*
X13944657Y-10095850D01*
X13939000Y-10084749D01*
X13933934Y-10074807D01*
X13920052Y-10055699D01*
X13903351Y-10038998D01*
X13899887Y-10036482D01*
X13895621Y-10030949D01*
X13895023Y-10023988D01*
X13898283Y-10017808D01*
X13899887Y-10016418D01*
X13903351Y-10013902D01*
X13920052Y-9997201D01*
X13933934Y-9978093D01*
X13944657Y-9957049D01*
X13951955Y-9934587D01*
X13953315Y-9926000D01*
X13955650Y-9911260D01*
X13955650Y-9887640D01*
X13951955Y-9864313D01*
X13944657Y-9841850D01*
X13933934Y-9820807D01*
X13931429Y-9817358D01*
X13920052Y-9801699D01*
X13903351Y-9784998D01*
X13899887Y-9782482D01*
X13895621Y-9776949D01*
X13895023Y-9769988D01*
X13898283Y-9763808D01*
X13899887Y-9762418D01*
X13903351Y-9759902D01*
X13920052Y-9743201D01*
X13922378Y-9739999D01*
X15516100Y-9739999D01*
X15517149Y-9750270D01*
X15517149Y-9750270D01*
X15522664Y-9766912D01*
X15522664Y-9766913D01*
X15531868Y-9781834D01*
X15531868Y-9781834D01*
X15544265Y-9794232D01*
X15544266Y-9794232D01*
X15559187Y-9803435D01*
X15559188Y-9803436D01*
X15575830Y-9808951D01*
X15586102Y-9810000D01*
X15626100Y-9810000D01*
X15726100Y-9810000D01*
X15766097Y-9810000D01*
X15766099Y-9810000D01*
X15776370Y-9808951D01*
X15776370Y-9808951D01*
X15793012Y-9803436D01*
X15793013Y-9803435D01*
X15807934Y-9794232D01*
X15807934Y-9794232D01*
X15820332Y-9781834D01*
X15820332Y-9781834D01*
X15829535Y-9766913D01*
X15829536Y-9766912D01*
X15835050Y-9750270D01*
X15836100Y-9739999D01*
X15836100Y-9739997D01*
X15836100Y-9700000D01*
X15726100Y-9700000D01*
X15726100Y-9810000D01*
X15626100Y-9810000D01*
X15626100Y-9810000D01*
X15626100Y-9700000D01*
X15516100Y-9700000D01*
X15516100Y-9739999D01*
X13922378Y-9739999D01*
X13933934Y-9724093D01*
X13944657Y-9703049D01*
X13951486Y-9682032D01*
X13951955Y-9680587D01*
X13951955Y-9680587D01*
X13951955Y-9680587D01*
X13954904Y-9661968D01*
X13955650Y-9657260D01*
X13955650Y-9633640D01*
X13951955Y-9610313D01*
X13944657Y-9587850D01*
X13933934Y-9566807D01*
X13920052Y-9547699D01*
X13912505Y-9540152D01*
X13909156Y-9534020D01*
X13909655Y-9527051D01*
X13913842Y-9521457D01*
X13914334Y-9521141D01*
X13926319Y-9512169D01*
X13926319Y-9512169D01*
X13934935Y-9500659D01*
X13934935Y-9500659D01*
X13939960Y-9487188D01*
X13939960Y-9487187D01*
X13940600Y-9481234D01*
X13940600Y-9481233D01*
X13940600Y-9441450D01*
X13818000Y-9441450D01*
X13815224Y-9440635D01*
X13824899Y-9438043D01*
X13836301Y-9431460D01*
X13845610Y-9422151D01*
X13852192Y-9410749D01*
X13855600Y-9398033D01*
X13855600Y-9384867D01*
X13852192Y-9372151D01*
X13845610Y-9360749D01*
X13836301Y-9351440D01*
X13824899Y-9344858D01*
X13812183Y-9341450D01*
X13855600Y-9341450D01*
X13940600Y-9341450D01*
X13940600Y-9301667D01*
X13940600Y-9301666D01*
X13939960Y-9295713D01*
X13939960Y-9295712D01*
X13934935Y-9282241D01*
X13934935Y-9282241D01*
X13926319Y-9270731D01*
X13926319Y-9270731D01*
X13914809Y-9262115D01*
X13914809Y-9262115D01*
X13901338Y-9257090D01*
X13901337Y-9257090D01*
X13895384Y-9256450D01*
X13855600Y-9256450D01*
X13855600Y-9341450D01*
X13812183Y-9341450D01*
X13799017Y-9341450D01*
X13786301Y-9344858D01*
X13774899Y-9351440D01*
X13765590Y-9360749D01*
X13759007Y-9372151D01*
X13756298Y-9382261D01*
X13755600Y-9379050D01*
X13755600Y-9256450D01*
X13715815Y-9256450D01*
X13709863Y-9257090D01*
X13709862Y-9257090D01*
X13696391Y-9262115D01*
X13696391Y-9262115D01*
X13684881Y-9270731D01*
X13684881Y-9270731D01*
X13676265Y-9282241D01*
X13676264Y-9282241D01*
X13671240Y-9295712D01*
X13671240Y-9295713D01*
X13670600Y-9301666D01*
X13670600Y-9320081D01*
X13668631Y-9326785D01*
X13663351Y-9331361D01*
X13656435Y-9332355D01*
X13655305Y-9332139D01*
X13649109Y-9330651D01*
X13599311Y-9380450D01*
X13599311Y-9380450D01*
X13649109Y-9430249D01*
X13655305Y-9428761D01*
X13662283Y-9429110D01*
X13667965Y-9433177D01*
X13670547Y-9439669D01*
X13670600Y-9440819D01*
X13670600Y-9481234D01*
X13671240Y-9487187D01*
X13671240Y-9487188D01*
X13676264Y-9500659D01*
X13676265Y-9500659D01*
X13684881Y-9512169D01*
X13684881Y-9512169D01*
X13697101Y-9521317D01*
X13696923Y-9521554D01*
X13700810Y-9525442D01*
X13702295Y-9532269D01*
X13699853Y-9538815D01*
X13698695Y-9540152D01*
X13691148Y-9547699D01*
X13677266Y-9566807D01*
X13666543Y-9587850D01*
X13659245Y-9610313D01*
X13655550Y-9633640D01*
X13655550Y-9657260D01*
X13659245Y-9680587D01*
X13666543Y-9703050D01*
X13675362Y-9720357D01*
X13677266Y-9724093D01*
X13691148Y-9743201D01*
X13707849Y-9759902D01*
X13711313Y-9762418D01*
X13715579Y-9767951D01*
X13716177Y-9774913D01*
X13712916Y-9781092D01*
X13711313Y-9782482D01*
X13710349Y-9783182D01*
X13707849Y-9784998D01*
X13691148Y-9801699D01*
X13691148Y-9801699D01*
X13691148Y-9801699D01*
X13685880Y-9808951D01*
X13677265Y-9820807D01*
X13671732Y-9831667D01*
X13666934Y-9836747D01*
X13660152Y-9838426D01*
X13653539Y-9836172D01*
X13649363Y-9830952D01*
X13649343Y-9830962D01*
X13649293Y-9830864D01*
X13649227Y-9830781D01*
X13649122Y-9830530D01*
X13649122Y-9830528D01*
X13639829Y-9812289D01*
X13637403Y-9808951D01*
X13627797Y-9795729D01*
X13613321Y-9781253D01*
X13596761Y-9769222D01*
X13596761Y-9769221D01*
X13596761Y-9769221D01*
X13586245Y-9763863D01*
X13578522Y-9759928D01*
X13559053Y-9753602D01*
X13541599Y-9750838D01*
X13538835Y-9750400D01*
X13518365Y-9750400D01*
X13515933Y-9750785D01*
X13498146Y-9753602D01*
X13478678Y-9759928D01*
X13460439Y-9769222D01*
X13443879Y-9781253D01*
X13429403Y-9795729D01*
X13417371Y-9812289D01*
X13408078Y-9830528D01*
X13401752Y-9849997D01*
X13398550Y-9870215D01*
X13398550Y-9890685D01*
X13401752Y-9910903D01*
X13408078Y-9930372D01*
X13417371Y-9948611D01*
X13429403Y-9965171D01*
X13443879Y-9979647D01*
X13459375Y-9990906D01*
X13460439Y-9991679D01*
X13471277Y-9997201D01*
X13478678Y-10000972D01*
X13478678Y-10000972D01*
X13478678Y-10000972D01*
X13487946Y-10003983D01*
X13498146Y-10007298D01*
X13508256Y-10008899D01*
X13518365Y-10010500D01*
X13518365Y-10010500D01*
X13538835Y-10010500D01*
X13538835Y-10010500D01*
X13559053Y-10007298D01*
X13568640Y-10004183D01*
X13575624Y-10003983D01*
X13581608Y-10007591D01*
X13584690Y-10013861D01*
X13583894Y-10020803D01*
X13581240Y-10024744D01*
X13440689Y-10165295D01*
X13433022Y-10176769D01*
X13427742Y-10189517D01*
X13427742Y-10189518D01*
X13425489Y-10200841D01*
X13425489Y-10200842D01*
X13425050Y-10203051D01*
X13425050Y-10969884D01*
X13423081Y-10976588D01*
X13421418Y-10978653D01*
X13395589Y-11004482D01*
X13395589Y-11004482D01*
X13387922Y-11015956D01*
X13382642Y-11028703D01*
X13382642Y-11028704D01*
X13380173Y-11041115D01*
X13380173Y-11041116D01*
X13379950Y-11042237D01*
X13379950Y-12205101D01*
X13379950Y-12218899D01*
X13379950Y-12218900D01*
X13379950Y-12218900D01*
X13082872Y-12218900D01*
X13081021Y-12216499D01*
X13080423Y-12209537D01*
X13083683Y-12203358D01*
X13085287Y-12201968D01*
X13088751Y-12199452D01*
X13105452Y-12182751D01*
X13119334Y-12163643D01*
X13130057Y-12142599D01*
X13137355Y-12120137D01*
X13141050Y-12096810D01*
X13141050Y-12073190D01*
X13137355Y-12049863D01*
X13130057Y-12027400D01*
X13119334Y-12006357D01*
X13105452Y-11987249D01*
X13088751Y-11970548D01*
X13085287Y-11968032D01*
X13081021Y-11962499D01*
X13080423Y-11955537D01*
X13083683Y-11949358D01*
X13085287Y-11947968D01*
X13088751Y-11945452D01*
X13105452Y-11928751D01*
X13119334Y-11909643D01*
X13130057Y-11888599D01*
X13137355Y-11866137D01*
X13137382Y-11865968D01*
X13141050Y-11842810D01*
X13141050Y-11819190D01*
X13137355Y-11795863D01*
X13130642Y-11775201D01*
X13130057Y-11773401D01*
X13130057Y-11773400D01*
X13130057Y-11773400D01*
X13119334Y-11752357D01*
X13105452Y-11733249D01*
X13088751Y-11716548D01*
X13085287Y-11714032D01*
X13081021Y-11708499D01*
X13080423Y-11701537D01*
X13083683Y-11695358D01*
X13085287Y-11693968D01*
X13088751Y-11691452D01*
X13105452Y-11674751D01*
X13119334Y-11655643D01*
X13130057Y-11634599D01*
X13137355Y-11612137D01*
X13137382Y-11611968D01*
X13141050Y-11588810D01*
X13141050Y-11565190D01*
X13137355Y-11541863D01*
X13133340Y-11529505D01*
X13130057Y-11519401D01*
X13130057Y-11519400D01*
X13130057Y-11519400D01*
X13122710Y-11504981D01*
X13119334Y-11498357D01*
X13105452Y-11479249D01*
X13088751Y-11462548D01*
X13085287Y-11460032D01*
X13081021Y-11454499D01*
X13080423Y-11447537D01*
X13083683Y-11441358D01*
X13085287Y-11439968D01*
X13088751Y-11437452D01*
X13105452Y-11420751D01*
X13119334Y-11401643D01*
X13130057Y-11380599D01*
X13137355Y-11358137D01*
X13137706Y-11355922D01*
X13141050Y-11334810D01*
X13141050Y-11311190D01*
X13137355Y-11287863D01*
X13130642Y-11267201D01*
X13130057Y-11265401D01*
X13130057Y-11265400D01*
X13130057Y-11265400D01*
X13121238Y-11248093D01*
X13119334Y-11244357D01*
X13105452Y-11225249D01*
X13088751Y-11208548D01*
X13085287Y-11206032D01*
X13081021Y-11200499D01*
X13080423Y-11193537D01*
X13083683Y-11187358D01*
X13085287Y-11185968D01*
X13088751Y-11183452D01*
X13105452Y-11166751D01*
X13119334Y-11147643D01*
X13130057Y-11126599D01*
X13137355Y-11104137D01*
X13137776Y-11101479D01*
X13141050Y-11080810D01*
X13141050Y-11057190D01*
X13138892Y-11043568D01*
X13138003Y-11037951D01*
X13137355Y-11033863D01*
X13130057Y-11011401D01*
X13130057Y-11011401D01*
X13130057Y-11011400D01*
X13119334Y-10990357D01*
X13119007Y-10989907D01*
X13105452Y-10971249D01*
X13088751Y-10954548D01*
X13085287Y-10952032D01*
X13081021Y-10946499D01*
X13080423Y-10939538D01*
X13083683Y-10933358D01*
X13085287Y-10931968D01*
X13088751Y-10929452D01*
X13105452Y-10912751D01*
X13119334Y-10893643D01*
X13130057Y-10872599D01*
X13137355Y-10850137D01*
X13137776Y-10847478D01*
X13141050Y-10826810D01*
X13141050Y-10803190D01*
X13137355Y-10779863D01*
X13130642Y-10759201D01*
X13130057Y-10757401D01*
X13130057Y-10757401D01*
X13130057Y-10757400D01*
X13119334Y-10736357D01*
X13105452Y-10717249D01*
X13088751Y-10700548D01*
X13085287Y-10698032D01*
X13081021Y-10692499D01*
X13080423Y-10685538D01*
X13083683Y-10679358D01*
X13085287Y-10677968D01*
X13088751Y-10675452D01*
X13105452Y-10658751D01*
X13119334Y-10639643D01*
X13130057Y-10618599D01*
X13137355Y-10596137D01*
X13137636Y-10594366D01*
X13141050Y-10572810D01*
X13141050Y-10549190D01*
X13137355Y-10525863D01*
X13132656Y-10511400D01*
X13130057Y-10503401D01*
X13130057Y-10503401D01*
X13130057Y-10503400D01*
X13123595Y-10490719D01*
X13119334Y-10482357D01*
X13105452Y-10463249D01*
X13088751Y-10446548D01*
X13085287Y-10444032D01*
X13081021Y-10438499D01*
X13080423Y-10431538D01*
X13083683Y-10425358D01*
X13085287Y-10423968D01*
X13088751Y-10421452D01*
X13105452Y-10404751D01*
X13119334Y-10385643D01*
X13130057Y-10364599D01*
X13137355Y-10342137D01*
X13137382Y-10341968D01*
X13141050Y-10318810D01*
X13141050Y-10295190D01*
X13137355Y-10271863D01*
X13130642Y-10251201D01*
X13130057Y-10249401D01*
X13130057Y-10249401D01*
X13130057Y-10249400D01*
X13121174Y-10231968D01*
X13119334Y-10228357D01*
X13105452Y-10209249D01*
X13088751Y-10192548D01*
X13085287Y-10190032D01*
X13081021Y-10184499D01*
X13080423Y-10177538D01*
X13083683Y-10171358D01*
X13085287Y-10169968D01*
X13088751Y-10167452D01*
X13105452Y-10150751D01*
X13119334Y-10131643D01*
X13130057Y-10110599D01*
X13137355Y-10088137D01*
X13139467Y-10074807D01*
X13141050Y-10064810D01*
X13141050Y-10041190D01*
X13137355Y-10017863D01*
X13130642Y-9997201D01*
X13130057Y-9995401D01*
X13130057Y-9995401D01*
X13130057Y-9995400D01*
X13119334Y-9974357D01*
X13105452Y-9955249D01*
X13088751Y-9938548D01*
X13085287Y-9936032D01*
X13081021Y-9930499D01*
X13080423Y-9923538D01*
X13083683Y-9917358D01*
X13085287Y-9915968D01*
X13088751Y-9913452D01*
X13105452Y-9896751D01*
X13119334Y-9877643D01*
X13130057Y-9856599D01*
X13137355Y-9834137D01*
X13137930Y-9830510D01*
X13140923Y-9824197D01*
X13146854Y-9820504D01*
X13150177Y-9820050D01*
X13181899Y-9820050D01*
X13191004Y-9818239D01*
X13195433Y-9817358D01*
X13208181Y-9812078D01*
X13219654Y-9804411D01*
X13229411Y-9794654D01*
X13237077Y-9783181D01*
X13242358Y-9770433D01*
X13243952Y-9762418D01*
X13245050Y-9756900D01*
X13245050Y-9500959D01*
X13478801Y-9500959D01*
X13498159Y-9507249D01*
X13518368Y-9510450D01*
X13538832Y-9510450D01*
X13559041Y-9507249D01*
X13578399Y-9500959D01*
X13528600Y-9451161D01*
X13528600Y-9451161D01*
X13478801Y-9500959D01*
X13245050Y-9500959D01*
X13245050Y-9370218D01*
X13398600Y-9370218D01*
X13398600Y-9390682D01*
X13401801Y-9410892D01*
X13401801Y-9410892D01*
X13408090Y-9430249D01*
X13408090Y-9430249D01*
X13457889Y-9380450D01*
X13452623Y-9375184D01*
X13488600Y-9375184D01*
X13488600Y-9385716D01*
X13491326Y-9395889D01*
X13496592Y-9405011D01*
X13504039Y-9412458D01*
X13513161Y-9417724D01*
X13523334Y-9420450D01*
X13533866Y-9420450D01*
X13544039Y-9417724D01*
X13553161Y-9412458D01*
X13560608Y-9405011D01*
X13565874Y-9395889D01*
X13568600Y-9385716D01*
X13568600Y-9375184D01*
X13565874Y-9365011D01*
X13560608Y-9355889D01*
X13553161Y-9348442D01*
X13544039Y-9343176D01*
X13533866Y-9340450D01*
X13523334Y-9340450D01*
X13513161Y-9343176D01*
X13504039Y-9348442D01*
X13496592Y-9355889D01*
X13491326Y-9365011D01*
X13488600Y-9375184D01*
X13452623Y-9375184D01*
X13408090Y-9330651D01*
X13401801Y-9350008D01*
X13401801Y-9350008D01*
X13398600Y-9370218D01*
X13245050Y-9370218D01*
X13245050Y-9259940D01*
X13478801Y-9259940D01*
X13528600Y-9309739D01*
X13528600Y-9309739D01*
X13578399Y-9259941D01*
X13578399Y-9259940D01*
X13559042Y-9253651D01*
X13538832Y-9250450D01*
X13518368Y-9250450D01*
X13498158Y-9253651D01*
X13498158Y-9253651D01*
X13478801Y-9259940D01*
X13245050Y-9259940D01*
X13245050Y-8718146D01*
X13247018Y-8711442D01*
X13248682Y-8709378D01*
X13306278Y-8651782D01*
X13312410Y-8648433D01*
X13315046Y-8648150D01*
X13656848Y-8648150D01*
X13663552Y-8650119D01*
X13665616Y-8651782D01*
X13730318Y-8716484D01*
X13733667Y-8722616D01*
X13733950Y-8725252D01*
X13733950Y-8851826D01*
X13731981Y-8858529D01*
X13728838Y-8861857D01*
X13719279Y-8868803D01*
X13719278Y-8868803D01*
X13704803Y-8883279D01*
X13692771Y-8899839D01*
X13683478Y-8918078D01*
X13677152Y-8937547D01*
X13673950Y-8957765D01*
X13673950Y-8978235D01*
X13677152Y-8998453D01*
X13683478Y-9017922D01*
X13692771Y-9036161D01*
X13704803Y-9052721D01*
X13719279Y-9067197D01*
X13734775Y-9078456D01*
X13735839Y-9079229D01*
X13747461Y-9085150D01*
X13754078Y-9088522D01*
X13754078Y-9088522D01*
X13754078Y-9088522D01*
X13764514Y-9091913D01*
X13773546Y-9094848D01*
X13783656Y-9096449D01*
X13793765Y-9098050D01*
X13793765Y-9098050D01*
X13814235Y-9098050D01*
X13814235Y-9098050D01*
X13834453Y-9094848D01*
X13853922Y-9088522D01*
X13872161Y-9079229D01*
X13881922Y-9072137D01*
X13888721Y-9067197D01*
X13888721Y-9067197D01*
X13888722Y-9067197D01*
X13903197Y-9052722D01*
X13903197Y-9052722D01*
X13903197Y-9052721D01*
X13913005Y-9039222D01*
X13915229Y-9036161D01*
X13924522Y-9017922D01*
X13930848Y-8998453D01*
X13934050Y-8978235D01*
X13934050Y-8957765D01*
X13932649Y-8948917D01*
X13930848Y-8937547D01*
X13925974Y-8922548D01*
X13924522Y-8918078D01*
X13924522Y-8918078D01*
X13924522Y-8918078D01*
X13920407Y-8910002D01*
X13915229Y-8899839D01*
X13913494Y-8897452D01*
X13903197Y-8883279D01*
X13888722Y-8868803D01*
X13888721Y-8868803D01*
X13879161Y-8861857D01*
X13874895Y-8856324D01*
X13874050Y-8851826D01*
X13874050Y-8684200D01*
X13874050Y-8684200D01*
X13871358Y-8670668D01*
X13871358Y-8670668D01*
X13871358Y-8670667D01*
X13871059Y-8669946D01*
X13867358Y-8661011D01*
X13866077Y-8657919D01*
X13861074Y-8650431D01*
X13858986Y-8643763D01*
X13860834Y-8637025D01*
X13865754Y-8632493D01*
X13872161Y-8629229D01*
X13879161Y-8624143D01*
X13888721Y-8617197D01*
X13888721Y-8617197D01*
X13888722Y-8617197D01*
X13903197Y-8602722D01*
X13903197Y-8602722D01*
X13903197Y-8602721D01*
X13908473Y-8595459D01*
X13915229Y-8586161D01*
X13924522Y-8567922D01*
X13930848Y-8548453D01*
X13934050Y-8528235D01*
X13934050Y-8507765D01*
X14435950Y-8507765D01*
X14435950Y-8528235D01*
X14439152Y-8548453D01*
X14445478Y-8567922D01*
X14454771Y-8586161D01*
X14466803Y-8602721D01*
X14481278Y-8617197D01*
X14490838Y-8624143D01*
X14495105Y-8629676D01*
X14495950Y-8634174D01*
X14495950Y-8684101D01*
X14495950Y-8697899D01*
X14495950Y-8697900D01*
X14495950Y-8697900D01*
X14498642Y-8711432D01*
X14498642Y-8711433D01*
X14503922Y-8724181D01*
X14511589Y-8735655D01*
X14593984Y-8818050D01*
X14597332Y-8824182D01*
X14596834Y-8831151D01*
X14592647Y-8836745D01*
X14586100Y-8839186D01*
X14583276Y-8839065D01*
X14576235Y-8837950D01*
X14555765Y-8837950D01*
X14553333Y-8838335D01*
X14535546Y-8841152D01*
X14516078Y-8847478D01*
X14497839Y-8856772D01*
X14481279Y-8868803D01*
X14466803Y-8883279D01*
X14454771Y-8899839D01*
X14445478Y-8918078D01*
X14439152Y-8937547D01*
X14435950Y-8957765D01*
X14435950Y-8978235D01*
X14439152Y-8998453D01*
X14445478Y-9017922D01*
X14454771Y-9036161D01*
X14466803Y-9052721D01*
X14481279Y-9067197D01*
X14496775Y-9078456D01*
X14497839Y-9079229D01*
X14509461Y-9085150D01*
X14516078Y-9088522D01*
X14516078Y-9088522D01*
X14516078Y-9088522D01*
X14526514Y-9091913D01*
X14535546Y-9094848D01*
X14545656Y-9096449D01*
X14555765Y-9098050D01*
X14555765Y-9098050D01*
X14576235Y-9098050D01*
X14576235Y-9098050D01*
X14596453Y-9094848D01*
X14615922Y-9088522D01*
X14634161Y-9079229D01*
X14643922Y-9072137D01*
X14650721Y-9067197D01*
X14650721Y-9067197D01*
X14650722Y-9067197D01*
X14665197Y-9052722D01*
X14665197Y-9052722D01*
X14665197Y-9052721D01*
X14675005Y-9039222D01*
X14677229Y-9036161D01*
X14686522Y-9017922D01*
X14692848Y-8998453D01*
X14696050Y-8978235D01*
X14696050Y-8957765D01*
X14694935Y-8950723D01*
X14695830Y-8943795D01*
X14700330Y-8938449D01*
X14707005Y-8936385D01*
X14713736Y-8938258D01*
X14715950Y-8940016D01*
X15255345Y-9479411D01*
X15255345Y-9479411D01*
X15266819Y-9487078D01*
X15279567Y-9492358D01*
X15279567Y-9492358D01*
X15279568Y-9492358D01*
X15279568Y-9492358D01*
X15293100Y-9495050D01*
X15293101Y-9495050D01*
X15293101Y-9495050D01*
X15525048Y-9495050D01*
X15531752Y-9497019D01*
X15536327Y-9502299D01*
X15537321Y-9509215D01*
X15534419Y-9515570D01*
X15533816Y-9516218D01*
X15531868Y-9518166D01*
X15531868Y-9518166D01*
X15522664Y-9533087D01*
X15522664Y-9533088D01*
X15517149Y-9549730D01*
X15516100Y-9560001D01*
X15516100Y-9600000D01*
X15652703Y-9600000D01*
X15642329Y-9605989D01*
X15632089Y-9616229D01*
X15624848Y-9628771D01*
X15621100Y-9642759D01*
X15621100Y-9657241D01*
X15624848Y-9671229D01*
X15632089Y-9683771D01*
X15642329Y-9694011D01*
X15654871Y-9701252D01*
X15668859Y-9705000D01*
X15683341Y-9705000D01*
X15697329Y-9701252D01*
X15709871Y-9694011D01*
X15720111Y-9683771D01*
X15727352Y-9671229D01*
X15731100Y-9657241D01*
X15731100Y-9642759D01*
X15727352Y-9628771D01*
X15720111Y-9616229D01*
X15709871Y-9605989D01*
X15699497Y-9600000D01*
X15836100Y-9600000D01*
X15836100Y-9560003D01*
X15836100Y-9560001D01*
X15835050Y-9549730D01*
X15835050Y-9549730D01*
X15829536Y-9533088D01*
X15829535Y-9533087D01*
X15820332Y-9518166D01*
X15820332Y-9518166D01*
X15818384Y-9516218D01*
X15815036Y-9510086D01*
X15815534Y-9503117D01*
X15819721Y-9497523D01*
X15826268Y-9495082D01*
X15827152Y-9495050D01*
X15865848Y-9495050D01*
X15872552Y-9497019D01*
X15874616Y-9498682D01*
X16151318Y-9775384D01*
X16154667Y-9781516D01*
X16154950Y-9784152D01*
X16154950Y-10125558D01*
X16152981Y-10132261D01*
X16147701Y-10136837D01*
X16140785Y-10137831D01*
X16134430Y-10134929D01*
X16132518Y-10132846D01*
X16132093Y-10132261D01*
X16128452Y-10127249D01*
X16111751Y-10110548D01*
X16092643Y-10096666D01*
X16091043Y-10095850D01*
X16071600Y-10085943D01*
X16049137Y-10078645D01*
X16025810Y-10074950D01*
X16025809Y-10074950D01*
X16002191Y-10074950D01*
X16002190Y-10074950D01*
X15978863Y-10078645D01*
X15956400Y-10085943D01*
X15935357Y-10096666D01*
X15924455Y-10104586D01*
X15916249Y-10110548D01*
X15916249Y-10110549D01*
X15916249Y-10110549D01*
X15899548Y-10127249D01*
X15899548Y-10127249D01*
X15899548Y-10127249D01*
X15895907Y-10132261D01*
X15885666Y-10146357D01*
X15874943Y-10167400D01*
X15867645Y-10189863D01*
X15863950Y-10213190D01*
X15863950Y-10236810D01*
X15867645Y-10260137D01*
X15874943Y-10282600D01*
X15880242Y-10292999D01*
X15885666Y-10303643D01*
X15899548Y-10322751D01*
X15916249Y-10339452D01*
X15919713Y-10341968D01*
X15923979Y-10347501D01*
X15924577Y-10354463D01*
X15921316Y-10360642D01*
X15919713Y-10362032D01*
X15917936Y-10363322D01*
X15916249Y-10364548D01*
X15899548Y-10381249D01*
X15899548Y-10381249D01*
X15899548Y-10381249D01*
X15895979Y-10386161D01*
X15885666Y-10400357D01*
X15874943Y-10421400D01*
X15867645Y-10443863D01*
X15863950Y-10467190D01*
X15863950Y-10490810D01*
X15867645Y-10514137D01*
X15874943Y-10536600D01*
X15882868Y-10552152D01*
X15885666Y-10557643D01*
X15899548Y-10576751D01*
X15916249Y-10593452D01*
X15919713Y-10595968D01*
X15923979Y-10601501D01*
X15924577Y-10608463D01*
X15921316Y-10614642D01*
X15919713Y-10616032D01*
X15917936Y-10617322D01*
X15916249Y-10618548D01*
X15899548Y-10635249D01*
X15899548Y-10635249D01*
X15899548Y-10635249D01*
X15895907Y-10640261D01*
X15885666Y-10654357D01*
X15874943Y-10675400D01*
X15867645Y-10697863D01*
X15863950Y-10721190D01*
X15863950Y-10744810D01*
X15867645Y-10768137D01*
X15874943Y-10790600D01*
X15880242Y-10800999D01*
X15885666Y-10811643D01*
X15899548Y-10830751D01*
X15916249Y-10847452D01*
X15919713Y-10849968D01*
X15923979Y-10855501D01*
X15924577Y-10862463D01*
X15921316Y-10868642D01*
X15919713Y-10870032D01*
X15917936Y-10871322D01*
X15916249Y-10872548D01*
X15899548Y-10889249D01*
X15899548Y-10889249D01*
X15899548Y-10889249D01*
X15893586Y-10897455D01*
X15885666Y-10908357D01*
X15874943Y-10929400D01*
X15867645Y-10951863D01*
X15863950Y-10975190D01*
X15863950Y-10998810D01*
X15867645Y-11022137D01*
X15874943Y-11044600D01*
X15885346Y-11065016D01*
X15885666Y-11065643D01*
X15899548Y-11084751D01*
X15916249Y-11101452D01*
X15919713Y-11103968D01*
X15923979Y-11109501D01*
X15924577Y-11116463D01*
X15921316Y-11122642D01*
X15919713Y-11124032D01*
X15917936Y-11125322D01*
X15916249Y-11126548D01*
X15899548Y-11143249D01*
X15899548Y-11143249D01*
X15899548Y-11143249D01*
X15895979Y-11148161D01*
X15885666Y-11162357D01*
X15874943Y-11183400D01*
X15867645Y-11205863D01*
X15863950Y-11229190D01*
X15863950Y-11252810D01*
X15867645Y-11276137D01*
X15874943Y-11298600D01*
X15882868Y-11314152D01*
X15885666Y-11319643D01*
X15899548Y-11338751D01*
X15916249Y-11355452D01*
X15919713Y-11357968D01*
X15923979Y-11363501D01*
X15924577Y-11370463D01*
X15921316Y-11376642D01*
X15919713Y-11378031D01*
X15917936Y-11379322D01*
X15916249Y-11380548D01*
X15899548Y-11397249D01*
X15899548Y-11397249D01*
X15899548Y-11397249D01*
X15893586Y-11405455D01*
X15885666Y-11416357D01*
X15884737Y-11418180D01*
X15879939Y-11423259D01*
X15873688Y-11424950D01*
X15773100Y-11424950D01*
X15759568Y-11427642D01*
X15759567Y-11427642D01*
X15746819Y-11432922D01*
X15735345Y-11440589D01*
X15636589Y-11539345D01*
X15628922Y-11550819D01*
X15623642Y-11563567D01*
X15623642Y-11563568D01*
X15622401Y-11569805D01*
X15620950Y-11577100D01*
X15620950Y-11613825D01*
X15618981Y-11620529D01*
X15615838Y-11623857D01*
X15606279Y-11630803D01*
X15606278Y-11630803D01*
X15591459Y-11645623D01*
X15591363Y-11645527D01*
X15586025Y-11649010D01*
X15579039Y-11649058D01*
X15573135Y-11645321D01*
X15570189Y-11638986D01*
X15570050Y-11637136D01*
X15570050Y-11193152D01*
X15572018Y-11186448D01*
X15573681Y-11184384D01*
X15658385Y-11099680D01*
X15664517Y-11096332D01*
X15669093Y-11096201D01*
X15674539Y-11097064D01*
X15680765Y-11098050D01*
X15680765Y-11098050D01*
X15701235Y-11098050D01*
X15701235Y-11098050D01*
X15721453Y-11094848D01*
X15740922Y-11088522D01*
X15759161Y-11079229D01*
X15769525Y-11071699D01*
X15775721Y-11067197D01*
X15775721Y-11067197D01*
X15775722Y-11067197D01*
X15790197Y-11052722D01*
X15790197Y-11052722D01*
X15790197Y-11052721D01*
X15798629Y-11041115D01*
X15802229Y-11036161D01*
X15811522Y-11017922D01*
X15817848Y-10998453D01*
X15821050Y-10978235D01*
X15821050Y-10957765D01*
X15820541Y-10954548D01*
X15817848Y-10937547D01*
X15811522Y-10918078D01*
X15804166Y-10903641D01*
X15802229Y-10899839D01*
X15797727Y-10893643D01*
X15790197Y-10883279D01*
X15775721Y-10868803D01*
X15759161Y-10856772D01*
X15759161Y-10856771D01*
X15759161Y-10856771D01*
X15753465Y-10853869D01*
X15740922Y-10847478D01*
X15721453Y-10841152D01*
X15703999Y-10838388D01*
X15701235Y-10837950D01*
X15680765Y-10837950D01*
X15678333Y-10838335D01*
X15660546Y-10841152D01*
X15641078Y-10847478D01*
X15622839Y-10856772D01*
X15606279Y-10868803D01*
X15591803Y-10883279D01*
X15579771Y-10899839D01*
X15570478Y-10918078D01*
X15564152Y-10937547D01*
X15560950Y-10957765D01*
X15560950Y-10978235D01*
X15562799Y-10989907D01*
X15561903Y-10996836D01*
X15559319Y-11000615D01*
X15445589Y-11114345D01*
X15437922Y-11125819D01*
X15432642Y-11138567D01*
X15432642Y-11138568D01*
X15430734Y-11148161D01*
X15430734Y-11148161D01*
X15430342Y-11150131D01*
X15429950Y-11152101D01*
X15429950Y-11655854D01*
X15427981Y-11662558D01*
X15426318Y-11664622D01*
X15195589Y-11895351D01*
X15195589Y-11895351D01*
X15187922Y-11906825D01*
X15182642Y-11919572D01*
X15182642Y-11919574D01*
X15180359Y-11931050D01*
X15180359Y-11931050D01*
X15179950Y-11933106D01*
X15179950Y-12793101D01*
X15179950Y-12806899D01*
X15179950Y-12806900D01*
X15179950Y-12806900D01*
X15182642Y-12820432D01*
X15182642Y-12820433D01*
X15187922Y-12833181D01*
X15195589Y-12844654D01*
X15307345Y-12956411D01*
X15318819Y-12964078D01*
X15331567Y-12969358D01*
X15331567Y-12969358D01*
X15331568Y-12969358D01*
X15331568Y-12969358D01*
X15345100Y-12972050D01*
X15345101Y-12972050D01*
X15345101Y-12972050D01*
X15388550Y-12972050D01*
X15395254Y-12974018D01*
X15399829Y-12979299D01*
X15400950Y-12984450D01*
X15400950Y-12996788D01*
X15401591Y-13002748D01*
X15406620Y-13016233D01*
X15406621Y-13016233D01*
X15415245Y-13027754D01*
X15415245Y-13027755D01*
X15426766Y-13036379D01*
X15426767Y-13036380D01*
X15440252Y-13041409D01*
X15440252Y-13041409D01*
X15440944Y-13041483D01*
X15446213Y-13042050D01*
X15635787Y-13042050D01*
X15641748Y-13041409D01*
X15655233Y-13036380D01*
X15666755Y-13027755D01*
X15675380Y-13016233D01*
X15680409Y-13002748D01*
X15681050Y-12996787D01*
X15681050Y-12807213D01*
X15680409Y-12801252D01*
X15678367Y-12795777D01*
X15675380Y-12787767D01*
X15675379Y-12787766D01*
X15666755Y-12776245D01*
X15666754Y-12776245D01*
X15655233Y-12767621D01*
X15655233Y-12767620D01*
X15647242Y-12764640D01*
X15641648Y-12760453D01*
X15639207Y-12753906D01*
X15640692Y-12747079D01*
X15642807Y-12744254D01*
X15647824Y-12739236D01*
X15660781Y-12721402D01*
X15670789Y-12701761D01*
X15677601Y-12680795D01*
X15681050Y-12659022D01*
X15681050Y-12636978D01*
X15677601Y-12615205D01*
X15670789Y-12594239D01*
X15670789Y-12594239D01*
X15664140Y-12581190D01*
X15660781Y-12574598D01*
X15653964Y-12565215D01*
X15647825Y-12556764D01*
X15647824Y-12556764D01*
X15632236Y-12541176D01*
X15632236Y-12541175D01*
X15614402Y-12528219D01*
X15614402Y-12528219D01*
X15614402Y-12528218D01*
X15605516Y-12523691D01*
X15594761Y-12518210D01*
X15594760Y-12518210D01*
X15573795Y-12511398D01*
X15562909Y-12509674D01*
X15552022Y-12507950D01*
X15529978Y-12507950D01*
X15522720Y-12509099D01*
X15508205Y-12511398D01*
X15487240Y-12518210D01*
X15487239Y-12518210D01*
X15467597Y-12528219D01*
X15449764Y-12541175D01*
X15449764Y-12541176D01*
X15434176Y-12556764D01*
X15434175Y-12556764D01*
X15421219Y-12574597D01*
X15411210Y-12594239D01*
X15411210Y-12594240D01*
X15404398Y-12615205D01*
X15404398Y-12615205D01*
X15400950Y-12636978D01*
X15400950Y-12659022D01*
X15401654Y-12663465D01*
X15404398Y-12680795D01*
X15411210Y-12701760D01*
X15411210Y-12701761D01*
X15418012Y-12715110D01*
X15420504Y-12720000D01*
X15421219Y-12721402D01*
X15434175Y-12739236D01*
X15434176Y-12739236D01*
X15439193Y-12744253D01*
X15442541Y-12750386D01*
X15442043Y-12757355D01*
X15437856Y-12762948D01*
X15434758Y-12764640D01*
X15426767Y-12767620D01*
X15426766Y-12767621D01*
X15415245Y-12776245D01*
X15415245Y-12776245D01*
X15406621Y-12787766D01*
X15406620Y-12787767D01*
X15401591Y-12801252D01*
X15400950Y-12807212D01*
X15400950Y-12807212D01*
X15400950Y-12807213D01*
X15400950Y-12819550D01*
X15400695Y-12820418D01*
X15400824Y-12821315D01*
X15399726Y-12823719D01*
X15398981Y-12826254D01*
X15398297Y-12826847D01*
X15397921Y-12827670D01*
X15395698Y-12829099D01*
X15393701Y-12830829D01*
X15392650Y-12831058D01*
X15392043Y-12831448D01*
X15388550Y-12831950D01*
X15386152Y-12831950D01*
X15379448Y-12829981D01*
X15377384Y-12828318D01*
X15323682Y-12774616D01*
X15320333Y-12768484D01*
X15320050Y-12765848D01*
X15320050Y-11974158D01*
X15322018Y-11967454D01*
X15323682Y-11965390D01*
X15324073Y-11964998D01*
X15410950Y-11964998D01*
X15410950Y-12085000D01*
X15410950Y-12085002D01*
X15412000Y-12095280D01*
X15412000Y-12095280D01*
X15414310Y-12102252D01*
X15417519Y-12111933D01*
X15426729Y-12126866D01*
X15439134Y-12139271D01*
X15454067Y-12148481D01*
X15458476Y-12149942D01*
X15464220Y-12153920D01*
X15466903Y-12160371D01*
X15465671Y-12167249D01*
X15461864Y-12171745D01*
X15456278Y-12175803D01*
X15456278Y-12175803D01*
X15441803Y-12190279D01*
X15429771Y-12206839D01*
X15420478Y-12225078D01*
X15414152Y-12244546D01*
X15410950Y-12264765D01*
X15410950Y-12285235D01*
X15414152Y-12305453D01*
X15420478Y-12324922D01*
X15429771Y-12343161D01*
X15441803Y-12359721D01*
X15456279Y-12374197D01*
X15471775Y-12385456D01*
X15472839Y-12386229D01*
X15484461Y-12392150D01*
X15491078Y-12395522D01*
X15491078Y-12395522D01*
X15491078Y-12395522D01*
X15501514Y-12398913D01*
X15510546Y-12401848D01*
X15520656Y-12403449D01*
X15530765Y-12405050D01*
X15530765Y-12405050D01*
X15551235Y-12405050D01*
X15551235Y-12405050D01*
X15571453Y-12401848D01*
X15590922Y-12395522D01*
X15609161Y-12386229D01*
X15618459Y-12379473D01*
X15625721Y-12374197D01*
X15625721Y-12374197D01*
X15625722Y-12374197D01*
X15640197Y-12359722D01*
X15640197Y-12359721D01*
X15640197Y-12359721D01*
X15647734Y-12349348D01*
X15652229Y-12343161D01*
X15661522Y-12324922D01*
X15667848Y-12305453D01*
X15671050Y-12285235D01*
X15671050Y-12264765D01*
X15670352Y-12260357D01*
X15667848Y-12244546D01*
X15661522Y-12225078D01*
X15656113Y-12214463D01*
X15652229Y-12206839D01*
X15646932Y-12199548D01*
X15640197Y-12190279D01*
X15625722Y-12175803D01*
X15620136Y-12171745D01*
X15615869Y-12166212D01*
X15615271Y-12159250D01*
X15618532Y-12153071D01*
X15623524Y-12149943D01*
X15627933Y-12148481D01*
X15642866Y-12139271D01*
X15655271Y-12126866D01*
X15664481Y-12111933D01*
X15670000Y-12095280D01*
X15671050Y-12085001D01*
X15671050Y-11964999D01*
X15670769Y-11962249D01*
X15670000Y-11954720D01*
X15670000Y-11954720D01*
X15668223Y-11949358D01*
X15664481Y-11938067D01*
X15655271Y-11923134D01*
X15642866Y-11910729D01*
X15627933Y-11901519D01*
X15611280Y-11896000D01*
X15611279Y-11896000D01*
X15601001Y-11894950D01*
X15481000Y-11894950D01*
X15480998Y-11894950D01*
X15470720Y-11896000D01*
X15470720Y-11896000D01*
X15454067Y-11901518D01*
X15454066Y-11901519D01*
X15439134Y-11910729D01*
X15426729Y-11923134D01*
X15417519Y-11938066D01*
X15417519Y-11938067D01*
X15412000Y-11954720D01*
X15412000Y-11954720D01*
X15412000Y-11954720D01*
X15410950Y-11964998D01*
X15324073Y-11964998D01*
X15542085Y-11746986D01*
X15548218Y-11743638D01*
X15555187Y-11744136D01*
X15560780Y-11748323D01*
X15563101Y-11753814D01*
X15564152Y-11760453D01*
X15570478Y-11779922D01*
X15579771Y-11798161D01*
X15591803Y-11814721D01*
X15606279Y-11829197D01*
X15621775Y-11840456D01*
X15622839Y-11841229D01*
X15633677Y-11846751D01*
X15641078Y-11850522D01*
X15641078Y-11850522D01*
X15641078Y-11850522D01*
X15648648Y-11852981D01*
X15660546Y-11856848D01*
X15670656Y-11858449D01*
X15680765Y-11860050D01*
X15680765Y-11860050D01*
X15701235Y-11860050D01*
X15701235Y-11860050D01*
X15721453Y-11856848D01*
X15740922Y-11850522D01*
X15759161Y-11841229D01*
X15768459Y-11834473D01*
X15775721Y-11829197D01*
X15775721Y-11829197D01*
X15775722Y-11829197D01*
X15790197Y-11814722D01*
X15790197Y-11814721D01*
X15790197Y-11814721D01*
X15796690Y-11805784D01*
X15802229Y-11798161D01*
X15811522Y-11779922D01*
X15817848Y-11760453D01*
X15821050Y-11740235D01*
X15821050Y-11719765D01*
X15820541Y-11716548D01*
X15817848Y-11699546D01*
X15811522Y-11680078D01*
X15804166Y-11665641D01*
X15802229Y-11661839D01*
X15801456Y-11660775D01*
X15790197Y-11645279D01*
X15775721Y-11630803D01*
X15769797Y-11626499D01*
X15768667Y-11625678D01*
X15764401Y-11620145D01*
X15763803Y-11613184D01*
X15767063Y-11607004D01*
X15767181Y-11606885D01*
X15805384Y-11568682D01*
X15811516Y-11565333D01*
X15814152Y-11565050D01*
X15873688Y-11565050D01*
X15880392Y-11567018D01*
X15884737Y-11571820D01*
X15885666Y-11573643D01*
X15899548Y-11592751D01*
X15916249Y-11609452D01*
X15919713Y-11611968D01*
X15923979Y-11617501D01*
X15924577Y-11624463D01*
X15921316Y-11630642D01*
X15919713Y-11632031D01*
X15917936Y-11633322D01*
X15916249Y-11634548D01*
X15899548Y-11651249D01*
X15899548Y-11651249D01*
X15899548Y-11651249D01*
X15896203Y-11655854D01*
X15885666Y-11670357D01*
X15874943Y-11691400D01*
X15867645Y-11713863D01*
X15863950Y-11737190D01*
X15863950Y-11760810D01*
X15867645Y-11784137D01*
X15874943Y-11806600D01*
X15881359Y-11819190D01*
X15885666Y-11827643D01*
X15899548Y-11846751D01*
X15916249Y-11863452D01*
X15919713Y-11865968D01*
X15923979Y-11871501D01*
X15924577Y-11878463D01*
X15921316Y-11884642D01*
X15919713Y-11886031D01*
X15917936Y-11887322D01*
X15916249Y-11888548D01*
X15899548Y-11905249D01*
X15899548Y-11905249D01*
X15899548Y-11905249D01*
X15896133Y-11909950D01*
X15885666Y-11924357D01*
X15874943Y-11945400D01*
X15867645Y-11967863D01*
X15863950Y-11991190D01*
X15863950Y-12014810D01*
X15867645Y-12038137D01*
X15874943Y-12060600D01*
X15880655Y-12071810D01*
X15885666Y-12081643D01*
X15899548Y-12100751D01*
X15916249Y-12117452D01*
X15935357Y-12131334D01*
X15945299Y-12136400D01*
X15956400Y-12142057D01*
X15956400Y-12142057D01*
X15956401Y-12142057D01*
X15968441Y-12145969D01*
X15978863Y-12149355D01*
X16002190Y-12153050D01*
X16002191Y-12153050D01*
X16025810Y-12153050D01*
X16049137Y-12149355D01*
X16071599Y-12142057D01*
X16092643Y-12131334D01*
X16111751Y-12117452D01*
X16128452Y-12100751D01*
X16142334Y-12081643D01*
X16153057Y-12060599D01*
X16160355Y-12038137D01*
X16160816Y-12035230D01*
X16164050Y-12014810D01*
X16164050Y-11991190D01*
X16160355Y-11967863D01*
X16153073Y-11945452D01*
X16153057Y-11945401D01*
X16153057Y-11945400D01*
X16153057Y-11945400D01*
X16144573Y-11928751D01*
X16142334Y-11924357D01*
X16128452Y-11905249D01*
X16111751Y-11888548D01*
X16108287Y-11886032D01*
X16104021Y-11880499D01*
X16103423Y-11873537D01*
X16106683Y-11867358D01*
X16108287Y-11865968D01*
X16111751Y-11863452D01*
X16128452Y-11846751D01*
X16142334Y-11827643D01*
X16153057Y-11806599D01*
X16160355Y-11784137D01*
X16161023Y-11779922D01*
X16164050Y-11760810D01*
X16164050Y-11737190D01*
X16160355Y-11713863D01*
X16153073Y-11691452D01*
X16153057Y-11691401D01*
X16153057Y-11691400D01*
X16153057Y-11691400D01*
X16144573Y-11674751D01*
X16142334Y-11670357D01*
X16128452Y-11651249D01*
X16111751Y-11634548D01*
X16108287Y-11632032D01*
X16104021Y-11626499D01*
X16103423Y-11619537D01*
X16106683Y-11613358D01*
X16108287Y-11611968D01*
X16111751Y-11609452D01*
X16128452Y-11592751D01*
X16142334Y-11573643D01*
X16153057Y-11552599D01*
X16160355Y-11530137D01*
X16160710Y-11527898D01*
X16164050Y-11506810D01*
X16164050Y-11483190D01*
X16160355Y-11459863D01*
X16155689Y-11445501D01*
X16153057Y-11437401D01*
X16153057Y-11437400D01*
X16153057Y-11437400D01*
X16144573Y-11420751D01*
X16142334Y-11416357D01*
X16128452Y-11397249D01*
X16111751Y-11380548D01*
X16108287Y-11378032D01*
X16104021Y-11372499D01*
X16103423Y-11365537D01*
X16106683Y-11359358D01*
X16108287Y-11357968D01*
X16111751Y-11355452D01*
X16128452Y-11338751D01*
X16142334Y-11319643D01*
X16153057Y-11298599D01*
X16160355Y-11276137D01*
X16160356Y-11276132D01*
X16164050Y-11252810D01*
X16164050Y-11229190D01*
X16160355Y-11205863D01*
X16154343Y-11187358D01*
X16153057Y-11183401D01*
X16153057Y-11183401D01*
X16153057Y-11183400D01*
X16144573Y-11166751D01*
X16142334Y-11162357D01*
X16128452Y-11143249D01*
X16111751Y-11126548D01*
X16108287Y-11124032D01*
X16104021Y-11118499D01*
X16103423Y-11111538D01*
X16106683Y-11105358D01*
X16108287Y-11103968D01*
X16111751Y-11101452D01*
X16128452Y-11084751D01*
X16142334Y-11065643D01*
X16153057Y-11044599D01*
X16160355Y-11022137D01*
X16160710Y-11019898D01*
X16164050Y-10998810D01*
X16164050Y-10975190D01*
X16160781Y-10954548D01*
X16160355Y-10951863D01*
X16159723Y-10949918D01*
X16159523Y-10942934D01*
X16162748Y-10937318D01*
X16279411Y-10820654D01*
X16287077Y-10809181D01*
X16292358Y-10796433D01*
X16293946Y-10788450D01*
X16295050Y-10782900D01*
X16295050Y-9743100D01*
X16292358Y-9729568D01*
X16292358Y-9729568D01*
X16292358Y-9729567D01*
X16291133Y-9726611D01*
X16287078Y-9716820D01*
X16287078Y-9716819D01*
X16287077Y-9716819D01*
X16282746Y-9710337D01*
X16279411Y-9705346D01*
X16279411Y-9705345D01*
X15944654Y-9370589D01*
X15933181Y-9362922D01*
X15920433Y-9357642D01*
X15920432Y-9357642D01*
X15906900Y-9354950D01*
X15906899Y-9354950D01*
X15906899Y-9354950D01*
X15334152Y-9354950D01*
X15327448Y-9352982D01*
X15325384Y-9351318D01*
X14639682Y-8665616D01*
X14638211Y-8662923D01*
X14636552Y-8660342D01*
X14636463Y-8659722D01*
X14636333Y-8659484D01*
X14636050Y-8656848D01*
X14636050Y-8634174D01*
X14638018Y-8627471D01*
X14641161Y-8624143D01*
X14650721Y-8617197D01*
X14650721Y-8617197D01*
X14650722Y-8617197D01*
X14665197Y-8602722D01*
X14665197Y-8602722D01*
X14665197Y-8602721D01*
X14674610Y-8589765D01*
X15010950Y-8589765D01*
X15010950Y-8610235D01*
X15014152Y-8630453D01*
X15020478Y-8649922D01*
X15029771Y-8668161D01*
X15041803Y-8684721D01*
X15056278Y-8699197D01*
X15056279Y-8699197D01*
X15061864Y-8703255D01*
X15066131Y-8708788D01*
X15066728Y-8715749D01*
X15063468Y-8721929D01*
X15058476Y-8725057D01*
X15054067Y-8726519D01*
X15054067Y-8726519D01*
X15054066Y-8726519D01*
X15039134Y-8735729D01*
X15026729Y-8748134D01*
X15017519Y-8763066D01*
X15017519Y-8763067D01*
X15012000Y-8779720D01*
X15012000Y-8779720D01*
X15012000Y-8779720D01*
X15010950Y-8789998D01*
X15010950Y-8910000D01*
X15010950Y-8910002D01*
X15012000Y-8920280D01*
X15012000Y-8920280D01*
X15017518Y-8936933D01*
X15017519Y-8936934D01*
X15017897Y-8937547D01*
X15026729Y-8951866D01*
X15039134Y-8964271D01*
X15054067Y-8973481D01*
X15070720Y-8979000D01*
X15080999Y-8980050D01*
X15201001Y-8980050D01*
X15211280Y-8979000D01*
X15227933Y-8973481D01*
X15242866Y-8964271D01*
X15255271Y-8951866D01*
X15264481Y-8936933D01*
X15270000Y-8920280D01*
X15271050Y-8910001D01*
X15271050Y-8789999D01*
X15270000Y-8779720D01*
X15264481Y-8763067D01*
X15255271Y-8748134D01*
X15242866Y-8735729D01*
X15227933Y-8726519D01*
X15223524Y-8725057D01*
X15222985Y-8724685D01*
X15222336Y-8724595D01*
X15220148Y-8722720D01*
X15217779Y-8721080D01*
X15217528Y-8720475D01*
X15217030Y-8720049D01*
X15216203Y-8717289D01*
X15215097Y-8714629D01*
X15215213Y-8713984D01*
X15215025Y-8713356D01*
X15215821Y-8710587D01*
X15216329Y-8707751D01*
X15216819Y-8707115D01*
X15216955Y-8706641D01*
X15218237Y-8705277D01*
X15219252Y-8703961D01*
X15219678Y-8703588D01*
X15222877Y-8701264D01*
X15648950Y-8701264D01*
X15648950Y-8910837D01*
X15648950Y-8910838D01*
X15649591Y-8916798D01*
X15654620Y-8930283D01*
X15654621Y-8930284D01*
X15663245Y-8941804D01*
X15663245Y-8941805D01*
X15665274Y-8943324D01*
X15669461Y-8948917D01*
X15669960Y-8955886D01*
X15666611Y-8962018D01*
X15665274Y-8963177D01*
X15663245Y-8964695D01*
X15663245Y-8964696D01*
X15654621Y-8976216D01*
X15654620Y-8976217D01*
X15649591Y-8989702D01*
X15648950Y-8995662D01*
X15648950Y-8995662D01*
X15648950Y-8995664D01*
X15648950Y-9205237D01*
X15648950Y-9205238D01*
X15649591Y-9211198D01*
X15654620Y-9224683D01*
X15654621Y-9224684D01*
X15663245Y-9236204D01*
X15663245Y-9236205D01*
X15674766Y-9244829D01*
X15674767Y-9244830D01*
X15688252Y-9249859D01*
X15688252Y-9249859D01*
X15688944Y-9249934D01*
X15694213Y-9250500D01*
X15903787Y-9250500D01*
X15909748Y-9249859D01*
X15923233Y-9244830D01*
X15934755Y-9236205D01*
X15943380Y-9224683D01*
X15948409Y-9211198D01*
X15949050Y-9205237D01*
X15949050Y-8995663D01*
X15948409Y-8989702D01*
X15944567Y-8979400D01*
X15943380Y-8976217D01*
X15943379Y-8976216D01*
X15934755Y-8964696D01*
X15934755Y-8964696D01*
X15934755Y-8964695D01*
X15932726Y-8963177D01*
X15928539Y-8957583D01*
X15928040Y-8950614D01*
X15931389Y-8944482D01*
X15932726Y-8943324D01*
X15934755Y-8941805D01*
X15943380Y-8930283D01*
X15948409Y-8916798D01*
X15949050Y-8910837D01*
X15949050Y-8701264D01*
X17503150Y-8701264D01*
X17503150Y-8910837D01*
X17503150Y-8910838D01*
X17503791Y-8916798D01*
X17508820Y-8930283D01*
X17508821Y-8930284D01*
X17517445Y-8941804D01*
X17517445Y-8941805D01*
X17519474Y-8943324D01*
X17523661Y-8948917D01*
X17524160Y-8955886D01*
X17520811Y-8962018D01*
X17519474Y-8963177D01*
X17517445Y-8964695D01*
X17517445Y-8964696D01*
X17508821Y-8976216D01*
X17508820Y-8976217D01*
X17503791Y-8989702D01*
X17503150Y-8995662D01*
X17503150Y-8995662D01*
X17503150Y-8995664D01*
X17503150Y-9205237D01*
X17503150Y-9205238D01*
X17503791Y-9211198D01*
X17508820Y-9224683D01*
X17508821Y-9224684D01*
X17517445Y-9236204D01*
X17517446Y-9236205D01*
X17528966Y-9244829D01*
X17528967Y-9244830D01*
X17542452Y-9249859D01*
X17542452Y-9249859D01*
X17543144Y-9249934D01*
X17548413Y-9250500D01*
X17757987Y-9250500D01*
X17763948Y-9249859D01*
X17777433Y-9244830D01*
X17788955Y-9236205D01*
X17797580Y-9224683D01*
X17802609Y-9211198D01*
X17803250Y-9205237D01*
X17803250Y-8995663D01*
X17802609Y-8989702D01*
X17798767Y-8979400D01*
X17797580Y-8976217D01*
X17797579Y-8976216D01*
X17788955Y-8964696D01*
X17788955Y-8964696D01*
X17788955Y-8964695D01*
X17786926Y-8963177D01*
X17782739Y-8957583D01*
X17782240Y-8950614D01*
X17785589Y-8944482D01*
X17786926Y-8943324D01*
X17788955Y-8941805D01*
X17797580Y-8930283D01*
X17802609Y-8916798D01*
X17803250Y-8910837D01*
X17803250Y-8701263D01*
X17802609Y-8695302D01*
X17802289Y-8694443D01*
X17797580Y-8681817D01*
X17797579Y-8681816D01*
X17788955Y-8670296D01*
X17788954Y-8670295D01*
X17777434Y-8661671D01*
X17777433Y-8661670D01*
X17763948Y-8656641D01*
X17763948Y-8656641D01*
X17757988Y-8656000D01*
X17757988Y-8656000D01*
X17757987Y-8656000D01*
X17757986Y-8656000D01*
X17548413Y-8656000D01*
X17548412Y-8656000D01*
X17542452Y-8656641D01*
X17528967Y-8661670D01*
X17528966Y-8661671D01*
X17517446Y-8670295D01*
X17517445Y-8670296D01*
X17508821Y-8681816D01*
X17508820Y-8681817D01*
X17503791Y-8695302D01*
X17503177Y-8701011D01*
X17503150Y-8701262D01*
X17503150Y-8701264D01*
X15949050Y-8701264D01*
X15949050Y-8701263D01*
X15948409Y-8695302D01*
X15948089Y-8694443D01*
X15943380Y-8681817D01*
X15943379Y-8681816D01*
X15934755Y-8670296D01*
X15934754Y-8670295D01*
X15923233Y-8661671D01*
X15923233Y-8661670D01*
X15909748Y-8656641D01*
X15909748Y-8656641D01*
X15903788Y-8656000D01*
X15903788Y-8656000D01*
X15903787Y-8656000D01*
X15903786Y-8656000D01*
X15694213Y-8656000D01*
X15694212Y-8656000D01*
X15688252Y-8656641D01*
X15674767Y-8661670D01*
X15674766Y-8661671D01*
X15663245Y-8670295D01*
X15663245Y-8670296D01*
X15654621Y-8681816D01*
X15654620Y-8681817D01*
X15649591Y-8695302D01*
X15648977Y-8701011D01*
X15648950Y-8701262D01*
X15648950Y-8701264D01*
X15222877Y-8701264D01*
X15225722Y-8699197D01*
X15240197Y-8684722D01*
X15240197Y-8684722D01*
X15240197Y-8684721D01*
X15245473Y-8677459D01*
X15252229Y-8668161D01*
X15261522Y-8649922D01*
X15267848Y-8630453D01*
X15271050Y-8610235D01*
X15271050Y-8589765D01*
X15270549Y-8586599D01*
X15267848Y-8569547D01*
X15261522Y-8550078D01*
X15256799Y-8540810D01*
X15252229Y-8531839D01*
X15249610Y-8528235D01*
X15240197Y-8515279D01*
X15225721Y-8500803D01*
X15209161Y-8488772D01*
X15209161Y-8488771D01*
X15209161Y-8488771D01*
X15199851Y-8484028D01*
X15190922Y-8479478D01*
X15171453Y-8473152D01*
X15153999Y-8470388D01*
X15151235Y-8469950D01*
X15130765Y-8469950D01*
X15128333Y-8470335D01*
X15110546Y-8473152D01*
X15091078Y-8479478D01*
X15072839Y-8488772D01*
X15056279Y-8500803D01*
X15041803Y-8515279D01*
X15029771Y-8531839D01*
X15020478Y-8550078D01*
X15014152Y-8569547D01*
X15010950Y-8589765D01*
X14674610Y-8589765D01*
X14677229Y-8586161D01*
X14678509Y-8583648D01*
X14686522Y-8567922D01*
X14686522Y-8567922D01*
X14686522Y-8567922D01*
X14692848Y-8548453D01*
X14696050Y-8528235D01*
X14696050Y-8507765D01*
X14692848Y-8487547D01*
X14686522Y-8468078D01*
X14686522Y-8468078D01*
X14686522Y-8468078D01*
X14681534Y-8458289D01*
X14677229Y-8449839D01*
X14674453Y-8446019D01*
X14665197Y-8433279D01*
X14650721Y-8418803D01*
X14634161Y-8406772D01*
X14634161Y-8406771D01*
X14634161Y-8406771D01*
X14627415Y-8403334D01*
X14615922Y-8397478D01*
X14596453Y-8391152D01*
X14578999Y-8388388D01*
X14576235Y-8387950D01*
X14555765Y-8387950D01*
X14553333Y-8388335D01*
X14535546Y-8391152D01*
X14516078Y-8397478D01*
X14497839Y-8406772D01*
X14481279Y-8418803D01*
X14466803Y-8433279D01*
X14454771Y-8449839D01*
X14445478Y-8468078D01*
X14439152Y-8487547D01*
X14435950Y-8507765D01*
X13934050Y-8507765D01*
X13930848Y-8487547D01*
X13924522Y-8468078D01*
X13924522Y-8468078D01*
X13924522Y-8468078D01*
X13919534Y-8458289D01*
X13915229Y-8449839D01*
X13912453Y-8446019D01*
X13903197Y-8433279D01*
X13888721Y-8418803D01*
X13872161Y-8406772D01*
X13872161Y-8406771D01*
X13872161Y-8406771D01*
X13865415Y-8403334D01*
X13853922Y-8397478D01*
X13834453Y-8391152D01*
X13816999Y-8388388D01*
X13814235Y-8387950D01*
X13793765Y-8387950D01*
X13791333Y-8388335D01*
X13773546Y-8391152D01*
X13754078Y-8397478D01*
X13735839Y-8406772D01*
X13719279Y-8418803D01*
X13704803Y-8433278D01*
X13699258Y-8440911D01*
X13698495Y-8441961D01*
X13697857Y-8442838D01*
X13692324Y-8447105D01*
X13687826Y-8447950D01*
X13249100Y-8447950D01*
X13235568Y-8450642D01*
X13235567Y-8450642D01*
X13222819Y-8455922D01*
X13211345Y-8463589D01*
X13160497Y-8514437D01*
X13154365Y-8517786D01*
X13147396Y-8517287D01*
X13141802Y-8513100D01*
X13139482Y-8507609D01*
X13137306Y-8493875D01*
X13130010Y-8471420D01*
X13126392Y-8464319D01*
X13031010Y-8559701D01*
X13037592Y-8548299D01*
X13041000Y-8535583D01*
X13041000Y-8522417D01*
X13037592Y-8509701D01*
X13031010Y-8498299D01*
X13021701Y-8488990D01*
X13010299Y-8482408D01*
X12997583Y-8479000D01*
X12984417Y-8479000D01*
X12971701Y-8482408D01*
X12960299Y-8488990D01*
X12950990Y-8498299D01*
X12944407Y-8509701D01*
X12941000Y-8522417D01*
X12941000Y-8535583D01*
X12944407Y-8548299D01*
X12950990Y-8559701D01*
X12960299Y-8569010D01*
X12971701Y-8575593D01*
X12984417Y-8579000D01*
X12997583Y-8579000D01*
X13010299Y-8575593D01*
X13021701Y-8569010D01*
X12955306Y-8635405D01*
X12950370Y-8638430D01*
X12933400Y-8643943D01*
X12912357Y-8654666D01*
X12902716Y-8661670D01*
X12893249Y-8668548D01*
X12893249Y-8668549D01*
X12893249Y-8668549D01*
X12876548Y-8685249D01*
X12876548Y-8685249D01*
X12876548Y-8685249D01*
X12871735Y-8691874D01*
X12862666Y-8704357D01*
X12851943Y-8725400D01*
X12844645Y-8747863D01*
X12840950Y-8771190D01*
X12840950Y-8794810D01*
X12844645Y-8818137D01*
X12851943Y-8840600D01*
X12861079Y-8858529D01*
X12862666Y-8861643D01*
X12876548Y-8880751D01*
X12893249Y-8897452D01*
X12896713Y-8899968D01*
X12900979Y-8905501D01*
X12901577Y-8912463D01*
X12898316Y-8918642D01*
X12896713Y-8920032D01*
X12896371Y-8920280D01*
X12893249Y-8922548D01*
X12876548Y-8939249D01*
X12876548Y-8939249D01*
X12876548Y-8939249D01*
X12870586Y-8947455D01*
X12862666Y-8958357D01*
X12851943Y-8979400D01*
X12844645Y-9001863D01*
X12840950Y-9025190D01*
X12840950Y-9048810D01*
X12844645Y-9072137D01*
X12851943Y-9094600D01*
X12862666Y-9115643D01*
X12876548Y-9134751D01*
X12893249Y-9151452D01*
X12896713Y-9153968D01*
X12900979Y-9159501D01*
X12901577Y-9166463D01*
X12898316Y-9172642D01*
X12896713Y-9174032D01*
X12894936Y-9175322D01*
X12893249Y-9176548D01*
X12876548Y-9193249D01*
X12876548Y-9193249D01*
X12876548Y-9193249D01*
X12871373Y-9200372D01*
X12862666Y-9212357D01*
X12851943Y-9233400D01*
X12844645Y-9255863D01*
X12840950Y-9279190D01*
X12840950Y-9302810D01*
X12844645Y-9326137D01*
X12851943Y-9348600D01*
X12860305Y-9365011D01*
X12862666Y-9369643D01*
X12876548Y-9388751D01*
X12893249Y-9405452D01*
X12896713Y-9407968D01*
X12900979Y-9413501D01*
X12901577Y-9420463D01*
X12898316Y-9426642D01*
X12896713Y-9428032D01*
X12895709Y-9428761D01*
X12893249Y-9430548D01*
X12876548Y-9447249D01*
X12876548Y-9447249D01*
X12876548Y-9447249D01*
X12870586Y-9455455D01*
X12862666Y-9466357D01*
X12851943Y-9487400D01*
X12844645Y-9509863D01*
X12840950Y-9533190D01*
X12840950Y-9556810D01*
X12844645Y-9580137D01*
X12851943Y-9602600D01*
X12858888Y-9616229D01*
X12862666Y-9623643D01*
X12876548Y-9642751D01*
X12893249Y-9659452D01*
X12896713Y-9661968D01*
X12900979Y-9667501D01*
X12901577Y-9674463D01*
X12898316Y-9680642D01*
X12896713Y-9682032D01*
X12894936Y-9683322D01*
X12893249Y-9684548D01*
X12876548Y-9701249D01*
X12876548Y-9701249D01*
X12876548Y-9701249D01*
X12873572Y-9705345D01*
X12862666Y-9720357D01*
X12851943Y-9741400D01*
X12844645Y-9763863D01*
X12840950Y-9787190D01*
X12840950Y-9810810D01*
X12844645Y-9834137D01*
X12851943Y-9856600D01*
X12858881Y-9870215D01*
X12862666Y-9877643D01*
X12876548Y-9896751D01*
X12893249Y-9913452D01*
X12896713Y-9915968D01*
X12900979Y-9921501D01*
X12901577Y-9928463D01*
X12898316Y-9934642D01*
X12896713Y-9936032D01*
X12894936Y-9937322D01*
X12893249Y-9938548D01*
X12876548Y-9955249D01*
X12876548Y-9955249D01*
X12876548Y-9955249D01*
X12875240Y-9957049D01*
X12862666Y-9974357D01*
X12851943Y-9995400D01*
X12844645Y-10017863D01*
X12840950Y-10041190D01*
X12840950Y-10064810D01*
X12844645Y-10088137D01*
X12851943Y-10110600D01*
X12859565Y-10125558D01*
X12862666Y-10131643D01*
X12876548Y-10150751D01*
X12893249Y-10167452D01*
X12896713Y-10169968D01*
X12900979Y-10175501D01*
X12901577Y-10182463D01*
X12898316Y-10188642D01*
X12896713Y-10190032D01*
X12895170Y-10191152D01*
X12893249Y-10192548D01*
X12876548Y-10209249D01*
X12876548Y-10209249D01*
X12876548Y-10209249D01*
X12873684Y-10213191D01*
X12862666Y-10228357D01*
X12851943Y-10249400D01*
X12844645Y-10271863D01*
X12840950Y-10295190D01*
X12840950Y-10318810D01*
X12844645Y-10342137D01*
X12851943Y-10364600D01*
X12859565Y-10379558D01*
X12862666Y-10385643D01*
X12876548Y-10404751D01*
X12893249Y-10421452D01*
X12896713Y-10423968D01*
X12900979Y-10429501D01*
X12901577Y-10436463D01*
X12898316Y-10442642D01*
X12896713Y-10444032D01*
X12895590Y-10444848D01*
X12893249Y-10446548D01*
X12876548Y-10463249D01*
X12876548Y-10463249D01*
X12876548Y-10463249D01*
X12873684Y-10467191D01*
X12862666Y-10482357D01*
X12851943Y-10503400D01*
X12844645Y-10525863D01*
X12840950Y-10549190D01*
X12840950Y-10572810D01*
X12844645Y-10596137D01*
X12851943Y-10618600D01*
X12859565Y-10633558D01*
X12862666Y-10639643D01*
X12876548Y-10658751D01*
X12893249Y-10675452D01*
X12896713Y-10677968D01*
X12900979Y-10683501D01*
X12901577Y-10690463D01*
X12898316Y-10696642D01*
X12896713Y-10698032D01*
X12896625Y-10698096D01*
X12893249Y-10700548D01*
X12876548Y-10717249D01*
X12876548Y-10717249D01*
X12876548Y-10717249D01*
X12873684Y-10721191D01*
X12862666Y-10736357D01*
X12851943Y-10757400D01*
X12844645Y-10779863D01*
X12840950Y-10803190D01*
X12840950Y-10826810D01*
X12842522Y-10836733D01*
X12841626Y-10843662D01*
X12837126Y-10849007D01*
X12830451Y-10851071D01*
X12823720Y-10849199D01*
X12821506Y-10847441D01*
X12814682Y-10840616D01*
X12811333Y-10834484D01*
X12811050Y-10831848D01*
X12811050Y-8517195D01*
X12841000Y-8517195D01*
X12841000Y-8540805D01*
X12844693Y-8564125D01*
X12851990Y-8586581D01*
X12855608Y-8593681D01*
X12855608Y-8593681D01*
X12920289Y-8529000D01*
X12855608Y-8464318D01*
X12851989Y-8471420D01*
X12851989Y-8471420D01*
X12844693Y-8493875D01*
X12841000Y-8517195D01*
X12811050Y-8517195D01*
X12811050Y-7895800D01*
X12813018Y-7889096D01*
X12818299Y-7884521D01*
X12823450Y-7883400D01*
X12886947Y-7883400D01*
X12893651Y-7885368D01*
X12898226Y-7890649D01*
X12899220Y-7897565D01*
X12896318Y-7903920D01*
X12894235Y-7905832D01*
X12893617Y-7906280D01*
X12893249Y-7906548D01*
X12893249Y-7906548D01*
X12876548Y-7923249D01*
X12876548Y-7923249D01*
X12876548Y-7923249D01*
X12872303Y-7929092D01*
X12862666Y-7942357D01*
X12851943Y-7963400D01*
X12844645Y-7985863D01*
X12840950Y-8009190D01*
X12840950Y-8032810D01*
X12844645Y-8056137D01*
X12851943Y-8078600D01*
X12862602Y-8099519D01*
X12862666Y-8099643D01*
X12876548Y-8118751D01*
X12893249Y-8135452D01*
X12896713Y-8137968D01*
X12900979Y-8143501D01*
X12901577Y-8150463D01*
X12898316Y-8156642D01*
X12896713Y-8158031D01*
X12894936Y-8159322D01*
X12893249Y-8160548D01*
X12876548Y-8177249D01*
X12876548Y-8177249D01*
X12876548Y-8177249D01*
X12870586Y-8185455D01*
X12862666Y-8196357D01*
X12851943Y-8217400D01*
X12844645Y-8239863D01*
X12840950Y-8263190D01*
X12840950Y-8286810D01*
X12844645Y-8310137D01*
X12851943Y-8332600D01*
X12861530Y-8351415D01*
X12862666Y-8353643D01*
X12876548Y-8372751D01*
X12893249Y-8389452D01*
X12912357Y-8403334D01*
X12933401Y-8414057D01*
X12933401Y-8414057D01*
X12933401Y-8414057D01*
X12933401Y-8414057D01*
X12944781Y-8417754D01*
X12950369Y-8419570D01*
X12955306Y-8422595D01*
X12991000Y-8458289D01*
X13026694Y-8422595D01*
X13031630Y-8419570D01*
X13048599Y-8414057D01*
X13069643Y-8403334D01*
X13088751Y-8389452D01*
X13105452Y-8372751D01*
X13119334Y-8353643D01*
X13130057Y-8332599D01*
X13137164Y-8310726D01*
X18048150Y-8310726D01*
X18048150Y-8331196D01*
X18051352Y-8351415D01*
X18057678Y-8370884D01*
X18066972Y-8389123D01*
X18079003Y-8405683D01*
X18093478Y-8420158D01*
X18093479Y-8420158D01*
X18099064Y-8424216D01*
X18103331Y-8429749D01*
X18103929Y-8436711D01*
X18100668Y-8442890D01*
X18095676Y-8446019D01*
X18092398Y-8447105D01*
X18091267Y-8447480D01*
X18091266Y-8447480D01*
X18076334Y-8456690D01*
X18063929Y-8469096D01*
X18054719Y-8484028D01*
X18054719Y-8484028D01*
X18049200Y-8500682D01*
X18049200Y-8500682D01*
X18049200Y-8500682D01*
X18048150Y-8510960D01*
X18048150Y-8630961D01*
X18048150Y-8630963D01*
X18049200Y-8641241D01*
X18049200Y-8641241D01*
X18054719Y-8657894D01*
X18054719Y-8657895D01*
X18057048Y-8661671D01*
X18063929Y-8672827D01*
X18076334Y-8685233D01*
X18091267Y-8694443D01*
X18107920Y-8699961D01*
X18118199Y-8701011D01*
X18238201Y-8701011D01*
X18248480Y-8699961D01*
X18265133Y-8694443D01*
X18280066Y-8685233D01*
X18292471Y-8672827D01*
X18301681Y-8657895D01*
X18307200Y-8641241D01*
X18308250Y-8630962D01*
X18308250Y-8510961D01*
X18307200Y-8500682D01*
X18301681Y-8484028D01*
X18292471Y-8469096D01*
X18280066Y-8456690D01*
X18265133Y-8447480D01*
X18260724Y-8446019D01*
X18254980Y-8442042D01*
X18252297Y-8435590D01*
X18253529Y-8428712D01*
X18257336Y-8424216D01*
X18262922Y-8420158D01*
X18277397Y-8405683D01*
X18277397Y-8405683D01*
X18277397Y-8405683D01*
X18287954Y-8391152D01*
X18289429Y-8389122D01*
X18298722Y-8370883D01*
X18305048Y-8351415D01*
X18308250Y-8331196D01*
X18308250Y-8310726D01*
X18305048Y-8290508D01*
X18298722Y-8271039D01*
X18298722Y-8271039D01*
X18298722Y-8271039D01*
X18294681Y-8263108D01*
X18289429Y-8252800D01*
X18288656Y-8251736D01*
X18277397Y-8236240D01*
X18262921Y-8221764D01*
X18246361Y-8209733D01*
X18246361Y-8209733D01*
X18246361Y-8209733D01*
X18238247Y-8205598D01*
X18228122Y-8200439D01*
X18208653Y-8194113D01*
X18191200Y-8191349D01*
X18188435Y-8190911D01*
X18167965Y-8190911D01*
X18165533Y-8191296D01*
X18147747Y-8194113D01*
X18128278Y-8200439D01*
X18110039Y-8209733D01*
X18093479Y-8221764D01*
X18079003Y-8236240D01*
X18066972Y-8252800D01*
X18057678Y-8271039D01*
X18051352Y-8290508D01*
X18048150Y-8310726D01*
X13137164Y-8310726D01*
X13137355Y-8310137D01*
X13137646Y-8308299D01*
X13141050Y-8286810D01*
X13141050Y-8263190D01*
X13137355Y-8239863D01*
X13130057Y-8217400D01*
X13121414Y-8200439D01*
X13119334Y-8196357D01*
X13105452Y-8177249D01*
X13088751Y-8160548D01*
X13085287Y-8158032D01*
X13081021Y-8152499D01*
X13080423Y-8145537D01*
X13083683Y-8139358D01*
X13085287Y-8137968D01*
X13088751Y-8135452D01*
X13105452Y-8118751D01*
X13119334Y-8099643D01*
X13130057Y-8078599D01*
X13137355Y-8056137D01*
X13140160Y-8038429D01*
X13141050Y-8032810D01*
X13141050Y-8009190D01*
X13137355Y-7985863D01*
X13132401Y-7970617D01*
X13130057Y-7963401D01*
X13130057Y-7963400D01*
X13130057Y-7963400D01*
X13123374Y-7950286D01*
X13119334Y-7942357D01*
X13105452Y-7923249D01*
X13088751Y-7906548D01*
X13087765Y-7905832D01*
X13083498Y-7900299D01*
X13082900Y-7893338D01*
X13086161Y-7887158D01*
X13092245Y-7883722D01*
X13095053Y-7883400D01*
X13307102Y-7883400D01*
X13313806Y-7885368D01*
X13315870Y-7887032D01*
X13678999Y-8250161D01*
X13678999Y-8250161D01*
X13690473Y-8257828D01*
X13703220Y-8263108D01*
X13703221Y-8263108D01*
X13703221Y-8263108D01*
X13703221Y-8263108D01*
X13716754Y-8265800D01*
X13716754Y-8265800D01*
X14860200Y-8265800D01*
X14873316Y-8263191D01*
X14873733Y-8263108D01*
X14880107Y-8260468D01*
X14886481Y-8257828D01*
X14886481Y-8257828D01*
X14886481Y-8257827D01*
X14897954Y-8250161D01*
X15063887Y-8084228D01*
X15070019Y-8080880D01*
X15076487Y-8081203D01*
X15079476Y-8082175D01*
X15100471Y-8085500D01*
X15100471Y-8085500D01*
X15121729Y-8085500D01*
X15121729Y-8085500D01*
X15142724Y-8082175D01*
X15162941Y-8075606D01*
X15181882Y-8065955D01*
X15184079Y-8064359D01*
X15199079Y-8053461D01*
X15199079Y-8053461D01*
X15199079Y-8053460D01*
X15214110Y-8038429D01*
X15214111Y-8038429D01*
X15214111Y-8038429D01*
X15226605Y-8021232D01*
X15226605Y-8021232D01*
X15226605Y-8021232D01*
X15236256Y-8002291D01*
X15242825Y-7982074D01*
X15246150Y-7961079D01*
X15246150Y-7914821D01*
X15242825Y-7893826D01*
X15236256Y-7873609D01*
X15226605Y-7854668D01*
X15226605Y-7854668D01*
X15226605Y-7854668D01*
X15214111Y-7837471D01*
X15199079Y-7822439D01*
X15181882Y-7809945D01*
X15162941Y-7800294D01*
X15162941Y-7800294D01*
X15162941Y-7800294D01*
X15142724Y-7793725D01*
X15142724Y-7793725D01*
X15142724Y-7793725D01*
X15126596Y-7791171D01*
X15121729Y-7790400D01*
X15100471Y-7790400D01*
X15095604Y-7791171D01*
X15079476Y-7793725D01*
X15059258Y-7800294D01*
X15040318Y-7809945D01*
X15023121Y-7822439D01*
X15008089Y-7837471D01*
X15008089Y-7837471D01*
X14996132Y-7853929D01*
X14990599Y-7858196D01*
X14983637Y-7858794D01*
X14977458Y-7855533D01*
X14976068Y-7853929D01*
X14964111Y-7837471D01*
X14964110Y-7837471D01*
X14949079Y-7822439D01*
X14931882Y-7809945D01*
X14912941Y-7800294D01*
X14912941Y-7800294D01*
X14912941Y-7800294D01*
X14892724Y-7793725D01*
X14892724Y-7793725D01*
X14892724Y-7793725D01*
X14876596Y-7791171D01*
X14871729Y-7790400D01*
X14850471Y-7790400D01*
X14845604Y-7791171D01*
X14829476Y-7793725D01*
X14809258Y-7800294D01*
X14790318Y-7809945D01*
X14773121Y-7822439D01*
X14758089Y-7837471D01*
X14758089Y-7837471D01*
X14746132Y-7853929D01*
X14740599Y-7858196D01*
X14733637Y-7858794D01*
X14727458Y-7855533D01*
X14726068Y-7853929D01*
X14714111Y-7837471D01*
X14714110Y-7837471D01*
X14699079Y-7822439D01*
X14681882Y-7809945D01*
X14662941Y-7800294D01*
X14662941Y-7800294D01*
X14662941Y-7800294D01*
X14642724Y-7793725D01*
X14642724Y-7793725D01*
X14642724Y-7793725D01*
X14626596Y-7791171D01*
X14621729Y-7790400D01*
X14600471Y-7790400D01*
X14595604Y-7791171D01*
X14579476Y-7793725D01*
X14559258Y-7800294D01*
X14540318Y-7809945D01*
X14523121Y-7822439D01*
X14508089Y-7837471D01*
X14508089Y-7837471D01*
X14496132Y-7853929D01*
X14490599Y-7858196D01*
X14483637Y-7858794D01*
X14477458Y-7855533D01*
X14476068Y-7853929D01*
X14464111Y-7837471D01*
X14464110Y-7837471D01*
X14449079Y-7822439D01*
X14431882Y-7809945D01*
X14412941Y-7800294D01*
X14412941Y-7800294D01*
X14412941Y-7800294D01*
X14392724Y-7793725D01*
X14392724Y-7793725D01*
X14392724Y-7793725D01*
X14376596Y-7791171D01*
X14371729Y-7790400D01*
X14350471Y-7790400D01*
X14346520Y-7791026D01*
X14329476Y-7793725D01*
X14329475Y-7793725D01*
X14326487Y-7794696D01*
X14319502Y-7794896D01*
X14313887Y-7791671D01*
X14268155Y-7745939D01*
X14268154Y-7745939D01*
X14256681Y-7738272D01*
X14243933Y-7732992D01*
X14243932Y-7732992D01*
X14230400Y-7730300D01*
X14230399Y-7730300D01*
X14230399Y-7730300D01*
X13617388Y-7730300D01*
X13610684Y-7728331D01*
X13608620Y-7726668D01*
X13586051Y-7704099D01*
X13577615Y-7695663D01*
X15648950Y-7695663D01*
X15648950Y-7905237D01*
X15648950Y-7905238D01*
X15649591Y-7911198D01*
X15654620Y-7924683D01*
X15654621Y-7924683D01*
X15663245Y-7936204D01*
X15663245Y-7936205D01*
X15665274Y-7937723D01*
X15669461Y-7943317D01*
X15669960Y-7950286D01*
X15666611Y-7956418D01*
X15665274Y-7957576D01*
X15663245Y-7959095D01*
X15663245Y-7959095D01*
X15654621Y-7970616D01*
X15654620Y-7970617D01*
X15649591Y-7984102D01*
X15648950Y-7990062D01*
X15648950Y-7990062D01*
X15648950Y-7990063D01*
X15648950Y-8199637D01*
X15648950Y-8199638D01*
X15649591Y-8205598D01*
X15654620Y-8219083D01*
X15654621Y-8219083D01*
X15663245Y-8230604D01*
X15663245Y-8230605D01*
X15674766Y-8239229D01*
X15674767Y-8239230D01*
X15688252Y-8244259D01*
X15688252Y-8244259D01*
X15688944Y-8244333D01*
X15694213Y-8244900D01*
X15903787Y-8244900D01*
X15909748Y-8244259D01*
X15923233Y-8239230D01*
X15934755Y-8230605D01*
X15943380Y-8219083D01*
X15948409Y-8205598D01*
X15949050Y-8199637D01*
X15949050Y-7990063D01*
X15948409Y-7984102D01*
X15947653Y-7982074D01*
X15943380Y-7970617D01*
X15943379Y-7970616D01*
X15937978Y-7963401D01*
X15934755Y-7959095D01*
X15932726Y-7957576D01*
X15928539Y-7951983D01*
X15928040Y-7945014D01*
X15931389Y-7938882D01*
X15932726Y-7937723D01*
X15934755Y-7936205D01*
X15943380Y-7924683D01*
X15948409Y-7911198D01*
X15949050Y-7905237D01*
X15949050Y-7695663D01*
X17503150Y-7695663D01*
X17503150Y-7905237D01*
X17503150Y-7905238D01*
X17503791Y-7911198D01*
X17508820Y-7924683D01*
X17508821Y-7924683D01*
X17517445Y-7936204D01*
X17517445Y-7936205D01*
X17519474Y-7937723D01*
X17523661Y-7943317D01*
X17524160Y-7950286D01*
X17520811Y-7956418D01*
X17519474Y-7957576D01*
X17517445Y-7959095D01*
X17517445Y-7959095D01*
X17508821Y-7970616D01*
X17508820Y-7970617D01*
X17503791Y-7984102D01*
X17503150Y-7990062D01*
X17503150Y-7990062D01*
X17503150Y-7990063D01*
X17503150Y-8199637D01*
X17503150Y-8199638D01*
X17503791Y-8205598D01*
X17508820Y-8219083D01*
X17508821Y-8219083D01*
X17517445Y-8230604D01*
X17517446Y-8230605D01*
X17528966Y-8239229D01*
X17528967Y-8239230D01*
X17542452Y-8244259D01*
X17542452Y-8244259D01*
X17543144Y-8244333D01*
X17548413Y-8244900D01*
X17757987Y-8244900D01*
X17763948Y-8244259D01*
X17777433Y-8239230D01*
X17788955Y-8230605D01*
X17797580Y-8219083D01*
X17802609Y-8205598D01*
X17803250Y-8199637D01*
X17803250Y-7990063D01*
X17802609Y-7984102D01*
X17801853Y-7982074D01*
X17797580Y-7970617D01*
X17797579Y-7970616D01*
X17792178Y-7963401D01*
X17788955Y-7959095D01*
X17786926Y-7957576D01*
X17782739Y-7951983D01*
X17782240Y-7945014D01*
X17785589Y-7938882D01*
X17786926Y-7937723D01*
X17788955Y-7936205D01*
X17797580Y-7924683D01*
X17802609Y-7911198D01*
X17803250Y-7905237D01*
X17803250Y-7757871D01*
X18094950Y-7757871D01*
X18094950Y-7782129D01*
X18098116Y-7806178D01*
X18104395Y-7829610D01*
X18113677Y-7852020D01*
X18113678Y-7852021D01*
X18125806Y-7873029D01*
X18125807Y-7873029D01*
X18125807Y-7873029D01*
X18140573Y-7892274D01*
X18140574Y-7892274D01*
X18157726Y-7909426D01*
X18157726Y-7909427D01*
X18169032Y-7918102D01*
X18176971Y-7924194D01*
X18197979Y-7936322D01*
X18220390Y-7945605D01*
X18243821Y-7951884D01*
X18261859Y-7954258D01*
X18267871Y-7955050D01*
X18267871Y-7955050D01*
X18292129Y-7955050D01*
X18296939Y-7954417D01*
X18316179Y-7951884D01*
X18339610Y-7945605D01*
X18362021Y-7936322D01*
X18383029Y-7924194D01*
X18402274Y-7909426D01*
X18419427Y-7892274D01*
X18434194Y-7873029D01*
X18446322Y-7852021D01*
X18455605Y-7829610D01*
X18461884Y-7806179D01*
X18465050Y-7782129D01*
X18465050Y-7757871D01*
X18461884Y-7733821D01*
X18455605Y-7710390D01*
X18446322Y-7687979D01*
X18434194Y-7666971D01*
X18419427Y-7647726D01*
X18419426Y-7647726D01*
X18402274Y-7630574D01*
X18402274Y-7630573D01*
X18383029Y-7615807D01*
X18383029Y-7615807D01*
X18383029Y-7615806D01*
X18362021Y-7603678D01*
X18362021Y-7603677D01*
X18339610Y-7594395D01*
X18316179Y-7588116D01*
X18292129Y-7584950D01*
X18292129Y-7584950D01*
X18267871Y-7584950D01*
X18267871Y-7584950D01*
X18243821Y-7588116D01*
X18220390Y-7594395D01*
X18197979Y-7603677D01*
X18197979Y-7603678D01*
X18176971Y-7615807D01*
X18157726Y-7630573D01*
X18157726Y-7630574D01*
X18140574Y-7647726D01*
X18140573Y-7647726D01*
X18125807Y-7666971D01*
X18113678Y-7687978D01*
X18113677Y-7687979D01*
X18104395Y-7710389D01*
X18098116Y-7733821D01*
X18094950Y-7757871D01*
X17803250Y-7757871D01*
X17803250Y-7695663D01*
X17802609Y-7689702D01*
X17801967Y-7687979D01*
X17797580Y-7676217D01*
X17797579Y-7676216D01*
X17788955Y-7664695D01*
X17788954Y-7664695D01*
X17777434Y-7656071D01*
X17777433Y-7656070D01*
X17763948Y-7651041D01*
X17763948Y-7651041D01*
X17757988Y-7650400D01*
X17757988Y-7650400D01*
X17757987Y-7650400D01*
X17757986Y-7650400D01*
X17548413Y-7650400D01*
X17548412Y-7650400D01*
X17542452Y-7651041D01*
X17528967Y-7656070D01*
X17528966Y-7656071D01*
X17517446Y-7664695D01*
X17517445Y-7664695D01*
X17508821Y-7676216D01*
X17508820Y-7676217D01*
X17503791Y-7689702D01*
X17503150Y-7695662D01*
X17503150Y-7695662D01*
X17503150Y-7695663D01*
X15949050Y-7695663D01*
X15949050Y-7695663D01*
X15948409Y-7689702D01*
X15947767Y-7687979D01*
X15943380Y-7676217D01*
X15943379Y-7676216D01*
X15934755Y-7664695D01*
X15934754Y-7664695D01*
X15923233Y-7656071D01*
X15923233Y-7656070D01*
X15909748Y-7651041D01*
X15909748Y-7651041D01*
X15903788Y-7650400D01*
X15903788Y-7650400D01*
X15903787Y-7650400D01*
X15903786Y-7650400D01*
X15694213Y-7650400D01*
X15694212Y-7650400D01*
X15688252Y-7651041D01*
X15674767Y-7656070D01*
X15674766Y-7656071D01*
X15663245Y-7664695D01*
X15663245Y-7664695D01*
X15654621Y-7676216D01*
X15654620Y-7676217D01*
X15649591Y-7689702D01*
X15648950Y-7695662D01*
X15648950Y-7695662D01*
X15648950Y-7695663D01*
X13577615Y-7695663D01*
X13460591Y-7578639D01*
X13460591Y-7578639D01*
X13451793Y-7572760D01*
X13447312Y-7567399D01*
X13446442Y-7560467D01*
X13449457Y-7554164D01*
X13455401Y-7550492D01*
X13458682Y-7550050D01*
X18487550Y-7550050D01*
X18494254Y-7552018D01*
X18498829Y-7557299D01*
X18499950Y-7562450D01*
X18499950Y-13437550D01*
X18497982Y-13444254D01*
X18492701Y-13448829D01*
X18487550Y-13449950D01*
X14143034Y-13449950D01*
X14136331Y-13447981D01*
X14131755Y-13442701D01*
X14130761Y-13435785D01*
X14133663Y-13429430D01*
X14134266Y-13428782D01*
X14218875Y-13344173D01*
X14225007Y-13340825D01*
X14227643Y-13340541D01*
X17572953Y-13340541D01*
X17582057Y-13338730D01*
X17586486Y-13337849D01*
X17598122Y-13333029D01*
X17599234Y-13332569D01*
X17599234Y-13332569D01*
X17599234Y-13332569D01*
X17610707Y-13324903D01*
X17667743Y-13267867D01*
X17717739Y-13217871D01*
X18094950Y-13217871D01*
X18094950Y-13242129D01*
X18098116Y-13266178D01*
X18104395Y-13289610D01*
X18113677Y-13312020D01*
X18113678Y-13312021D01*
X18125806Y-13333029D01*
X18125807Y-13333029D01*
X18125807Y-13333029D01*
X18140573Y-13352274D01*
X18140574Y-13352274D01*
X18157726Y-13369426D01*
X18157726Y-13369426D01*
X18176971Y-13384194D01*
X18197979Y-13396322D01*
X18220390Y-13405605D01*
X18243821Y-13411884D01*
X18261859Y-13414258D01*
X18267871Y-13415050D01*
X18267871Y-13415050D01*
X18292129Y-13415050D01*
X18296939Y-13414417D01*
X18316179Y-13411884D01*
X18339610Y-13405605D01*
X18362021Y-13396322D01*
X18383029Y-13384194D01*
X18402274Y-13369426D01*
X18419427Y-13352274D01*
X18434194Y-13333029D01*
X18446322Y-13312021D01*
X18455605Y-13289610D01*
X18461884Y-13266179D01*
X18465050Y-13242129D01*
X18465050Y-13217871D01*
X18461884Y-13193821D01*
X18455605Y-13170390D01*
X18446322Y-13147979D01*
X18434194Y-13126971D01*
X18419427Y-13107726D01*
X18419426Y-13107726D01*
X18402274Y-13090574D01*
X18402274Y-13090573D01*
X18383029Y-13075807D01*
X18383029Y-13075807D01*
X18383029Y-13075806D01*
X18362021Y-13063678D01*
X18362021Y-13063677D01*
X18339610Y-13054395D01*
X18316179Y-13048116D01*
X18292129Y-13044950D01*
X18292129Y-13044950D01*
X18267871Y-13044950D01*
X18267871Y-13044950D01*
X18243821Y-13048116D01*
X18220390Y-13054395D01*
X18197979Y-13063677D01*
X18197979Y-13063678D01*
X18176971Y-13075807D01*
X18157726Y-13090573D01*
X18157726Y-13090574D01*
X18140574Y-13107726D01*
X18140573Y-13107726D01*
X18125807Y-13126971D01*
X18113678Y-13147978D01*
X18113677Y-13147979D01*
X18104395Y-13170389D01*
X18098116Y-13193821D01*
X18094950Y-13217871D01*
X17717739Y-13217871D01*
X17726913Y-13208697D01*
X18034967Y-12900643D01*
X18115611Y-12819998D01*
X18116348Y-12818895D01*
X18117075Y-12817808D01*
X18123277Y-12808526D01*
X18123277Y-12808526D01*
X18123278Y-12808525D01*
X18128558Y-12795777D01*
X18131250Y-12782243D01*
X18131250Y-12047504D01*
X18133219Y-12040800D01*
X18138499Y-12036224D01*
X18145415Y-12035230D01*
X18151770Y-12038132D01*
X18155443Y-12043672D01*
X18160943Y-12060600D01*
X18166655Y-12071810D01*
X18171666Y-12081643D01*
X18185548Y-12100751D01*
X18202249Y-12117452D01*
X18221357Y-12131334D01*
X18231299Y-12136400D01*
X18242400Y-12142057D01*
X18242401Y-12142057D01*
X18242401Y-12142057D01*
X18254441Y-12145969D01*
X18264863Y-12149355D01*
X18288190Y-12153050D01*
X18288191Y-12153050D01*
X18311810Y-12153050D01*
X18335137Y-12149355D01*
X18357599Y-12142057D01*
X18378643Y-12131334D01*
X18397751Y-12117452D01*
X18414452Y-12100751D01*
X18428334Y-12081643D01*
X18439057Y-12060599D01*
X18446355Y-12038137D01*
X18446816Y-12035230D01*
X18450050Y-12014810D01*
X18450050Y-11991190D01*
X18446355Y-11967863D01*
X18439073Y-11945452D01*
X18439057Y-11945401D01*
X18439057Y-11945400D01*
X18439057Y-11945400D01*
X18430573Y-11928751D01*
X18428334Y-11924357D01*
X18414452Y-11905249D01*
X18397751Y-11888548D01*
X18394287Y-11886032D01*
X18390021Y-11880499D01*
X18389423Y-11873537D01*
X18392683Y-11867358D01*
X18394287Y-11865968D01*
X18397751Y-11863452D01*
X18414452Y-11846751D01*
X18428334Y-11827643D01*
X18439057Y-11806599D01*
X18446355Y-11784137D01*
X18447023Y-11779922D01*
X18450050Y-11760810D01*
X18450050Y-11737190D01*
X18446355Y-11713863D01*
X18439073Y-11691452D01*
X18439057Y-11691401D01*
X18439057Y-11691400D01*
X18439057Y-11691400D01*
X18430573Y-11674751D01*
X18428334Y-11670357D01*
X18414452Y-11651249D01*
X18397751Y-11634548D01*
X18394287Y-11632032D01*
X18390021Y-11626499D01*
X18389423Y-11619537D01*
X18392683Y-11613358D01*
X18394287Y-11611968D01*
X18397751Y-11609452D01*
X18414452Y-11592751D01*
X18428334Y-11573643D01*
X18439057Y-11552599D01*
X18446355Y-11530137D01*
X18446710Y-11527898D01*
X18450050Y-11506810D01*
X18450050Y-11483190D01*
X18446355Y-11459863D01*
X18441689Y-11445501D01*
X18439057Y-11437401D01*
X18439057Y-11437400D01*
X18439057Y-11437400D01*
X18430573Y-11420751D01*
X18428334Y-11416357D01*
X18414452Y-11397249D01*
X18397751Y-11380548D01*
X18394287Y-11378032D01*
X18390021Y-11372499D01*
X18389423Y-11365537D01*
X18392683Y-11359358D01*
X18394287Y-11357968D01*
X18397751Y-11355452D01*
X18414452Y-11338751D01*
X18428334Y-11319643D01*
X18439057Y-11298599D01*
X18446355Y-11276137D01*
X18446356Y-11276132D01*
X18450050Y-11252810D01*
X18450050Y-11229190D01*
X18446355Y-11205863D01*
X18440343Y-11187358D01*
X18439057Y-11183401D01*
X18439057Y-11183401D01*
X18439057Y-11183400D01*
X18430573Y-11166751D01*
X18428334Y-11162357D01*
X18414452Y-11143249D01*
X18397751Y-11126548D01*
X18394287Y-11124032D01*
X18390021Y-11118499D01*
X18389423Y-11111538D01*
X18392683Y-11105358D01*
X18394287Y-11103968D01*
X18397751Y-11101452D01*
X18414452Y-11084751D01*
X18428334Y-11065643D01*
X18439057Y-11044599D01*
X18446355Y-11022137D01*
X18446710Y-11019898D01*
X18450050Y-10998810D01*
X18450050Y-10975190D01*
X18446355Y-10951863D01*
X18439073Y-10929452D01*
X18439057Y-10929401D01*
X18439057Y-10929401D01*
X18439057Y-10929400D01*
X18430573Y-10912751D01*
X18428334Y-10908357D01*
X18414452Y-10889249D01*
X18397751Y-10872548D01*
X18394287Y-10870032D01*
X18390021Y-10864499D01*
X18389423Y-10857538D01*
X18392683Y-10851358D01*
X18394287Y-10849968D01*
X18397751Y-10847452D01*
X18414452Y-10830751D01*
X18428334Y-10811643D01*
X18439057Y-10790599D01*
X18446355Y-10768137D01*
X18446816Y-10765230D01*
X18450050Y-10744810D01*
X18450050Y-10721190D01*
X18446355Y-10697863D01*
X18439073Y-10675452D01*
X18439057Y-10675401D01*
X18439057Y-10675401D01*
X18439057Y-10675400D01*
X18430573Y-10658751D01*
X18428334Y-10654357D01*
X18414452Y-10635249D01*
X18397751Y-10618548D01*
X18394287Y-10616032D01*
X18390021Y-10610499D01*
X18389423Y-10603538D01*
X18392683Y-10597358D01*
X18394287Y-10595968D01*
X18397751Y-10593452D01*
X18414452Y-10576751D01*
X18428334Y-10557643D01*
X18439057Y-10536599D01*
X18446355Y-10514137D01*
X18450050Y-10490810D01*
X18450050Y-10467190D01*
X18446355Y-10443863D01*
X18440343Y-10425358D01*
X18439057Y-10421401D01*
X18439057Y-10421401D01*
X18439057Y-10421400D01*
X18430573Y-10404751D01*
X18428334Y-10400357D01*
X18414452Y-10381249D01*
X18397751Y-10364548D01*
X18394287Y-10362032D01*
X18390021Y-10356499D01*
X18389423Y-10349538D01*
X18392683Y-10343358D01*
X18394287Y-10341968D01*
X18397751Y-10339452D01*
X18414452Y-10322751D01*
X18428334Y-10303643D01*
X18439057Y-10282599D01*
X18446355Y-10260137D01*
X18447652Y-10251950D01*
X18450050Y-10236810D01*
X18450050Y-10213190D01*
X18446355Y-10189863D01*
X18439073Y-10167452D01*
X18439057Y-10167401D01*
X18439057Y-10167401D01*
X18439057Y-10167400D01*
X18430573Y-10150751D01*
X18428334Y-10146357D01*
X18414452Y-10127249D01*
X18397751Y-10110548D01*
X18378643Y-10096666D01*
X18377043Y-10095850D01*
X18357600Y-10085943D01*
X18335137Y-10078645D01*
X18311810Y-10074950D01*
X18311809Y-10074950D01*
X18288191Y-10074950D01*
X18288190Y-10074950D01*
X18264863Y-10078645D01*
X18242400Y-10085943D01*
X18221357Y-10096666D01*
X18210455Y-10104586D01*
X18202249Y-10110548D01*
X18202249Y-10110549D01*
X18202249Y-10110549D01*
X18185549Y-10127249D01*
X18185549Y-10127249D01*
X18185548Y-10127249D01*
X18181907Y-10132261D01*
X18171666Y-10146357D01*
X18160943Y-10167400D01*
X18153645Y-10189863D01*
X18149950Y-10213190D01*
X18149950Y-10236810D01*
X18153645Y-10260137D01*
X18154277Y-10262083D01*
X18154476Y-10269067D01*
X18151252Y-10274682D01*
X17946689Y-10479245D01*
X17946689Y-10479245D01*
X17939022Y-10490719D01*
X17933742Y-10503467D01*
X17933742Y-10503468D01*
X17932164Y-10511400D01*
X17932164Y-10511400D01*
X17931050Y-10517001D01*
X17931050Y-12716298D01*
X17929082Y-12723002D01*
X17927418Y-12725066D01*
X17515775Y-13136709D01*
X17509643Y-13140058D01*
X17507007Y-13140341D01*
X14161697Y-13140341D01*
X14148165Y-13143033D01*
X14148164Y-13143033D01*
X14135416Y-13148313D01*
X14123942Y-13155980D01*
X14123942Y-13155980D01*
X14015405Y-13264518D01*
X14009272Y-13267867D01*
X14006636Y-13268150D01*
X12091785Y-13268150D01*
X12085081Y-13266181D01*
X12080505Y-13260901D01*
X12079623Y-13258169D01*
X12076974Y-13244851D01*
X12076974Y-13244851D01*
X12076974Y-13244850D01*
X12072072Y-13233016D01*
X12071325Y-13226069D01*
X12072072Y-13223525D01*
X12077074Y-13211449D01*
X12080150Y-13195984D01*
X12080150Y-13195959D01*
X13476301Y-13195959D01*
X13495659Y-13202249D01*
X13515868Y-13205450D01*
X13536332Y-13205450D01*
X13556541Y-13202249D01*
X13575899Y-13195959D01*
X13526100Y-13146161D01*
X13526100Y-13146161D01*
X13476301Y-13195959D01*
X12080150Y-13195959D01*
X12080150Y-13180215D01*
X12080150Y-13180215D01*
X12080150Y-13180215D01*
X12077280Y-13165784D01*
X12077074Y-13164750D01*
X12077074Y-13164749D01*
X12071040Y-13150182D01*
X12071039Y-13150181D01*
X12062279Y-13137070D01*
X12062279Y-13137070D01*
X12051129Y-13125921D01*
X12051129Y-13125920D01*
X12038019Y-13117160D01*
X12038017Y-13117160D01*
X12023450Y-13111126D01*
X12023449Y-13111125D01*
X12008092Y-13108071D01*
X12001900Y-13104832D01*
X12001743Y-13104677D01*
X11962284Y-13065218D01*
X13396100Y-13065218D01*
X13396100Y-13085682D01*
X13399301Y-13105892D01*
X13399301Y-13105892D01*
X13405590Y-13125249D01*
X13405590Y-13125249D01*
X13455389Y-13075450D01*
X13450123Y-13070184D01*
X13486100Y-13070184D01*
X13486100Y-13080716D01*
X13488826Y-13090889D01*
X13494092Y-13100011D01*
X13501539Y-13107458D01*
X13510661Y-13112724D01*
X13520834Y-13115450D01*
X13531366Y-13115450D01*
X13541539Y-13112724D01*
X13550661Y-13107458D01*
X13558108Y-13100011D01*
X13563374Y-13090889D01*
X13566100Y-13080716D01*
X13566100Y-13070184D01*
X13563374Y-13060011D01*
X13558108Y-13050889D01*
X13550661Y-13043442D01*
X13541539Y-13038176D01*
X13531366Y-13035450D01*
X13520834Y-13035450D01*
X13510661Y-13038176D01*
X13501539Y-13043442D01*
X13494092Y-13050889D01*
X13488826Y-13060011D01*
X13486100Y-13070184D01*
X13450123Y-13070184D01*
X13405590Y-13025651D01*
X13399301Y-13045008D01*
X13399301Y-13045008D01*
X13396100Y-13065218D01*
X11962284Y-13065218D01*
X11939682Y-13042616D01*
X11936333Y-13036484D01*
X11936050Y-13033848D01*
X11936050Y-12251106D01*
X11935819Y-12249947D01*
X11935819Y-12249947D01*
X11935819Y-12249946D01*
X11933358Y-12237573D01*
X11932440Y-12235357D01*
X11928078Y-12224825D01*
X11927893Y-12224548D01*
X11920411Y-12213351D01*
X11920411Y-12213351D01*
X11748682Y-12041622D01*
X11745333Y-12035490D01*
X11745050Y-12032854D01*
X11745050Y-11918100D01*
X11742358Y-11904568D01*
X11742358Y-11904568D01*
X11742358Y-11904567D01*
X11741095Y-11901519D01*
X11737078Y-11891819D01*
X11737077Y-11891818D01*
X11729411Y-11880346D01*
X11729411Y-11880345D01*
X11719654Y-11870589D01*
X11719654Y-11870588D01*
X11708182Y-11862923D01*
X11708180Y-11862922D01*
X11695433Y-11857642D01*
X11695432Y-11857642D01*
X11681899Y-11854950D01*
X11681899Y-11854950D01*
X11629450Y-11854950D01*
X11622746Y-11852981D01*
X11618171Y-11847701D01*
X11617050Y-11842550D01*
X11617050Y-11819190D01*
X11613355Y-11795863D01*
X11606642Y-11775201D01*
X11606057Y-11773401D01*
X11606057Y-11773400D01*
X11606057Y-11773400D01*
X11595334Y-11752357D01*
X11581452Y-11733249D01*
X11564751Y-11716548D01*
X11561287Y-11714032D01*
X11557021Y-11708499D01*
X11556423Y-11701537D01*
X11559683Y-11695358D01*
X11561287Y-11693968D01*
X11564751Y-11691452D01*
X11581452Y-11674751D01*
X11595334Y-11655643D01*
X11606057Y-11634599D01*
X11613355Y-11612137D01*
X11613382Y-11611968D01*
X11617050Y-11588810D01*
X11617050Y-11565190D01*
X11613355Y-11541863D01*
X11609340Y-11529505D01*
X11606057Y-11519401D01*
X11606057Y-11519400D01*
X11606057Y-11519400D01*
X11598710Y-11504981D01*
X11595334Y-11498357D01*
X11581452Y-11479249D01*
X11564751Y-11462548D01*
X11561287Y-11460032D01*
X11557021Y-11454499D01*
X11556423Y-11447537D01*
X11559683Y-11441358D01*
X11561287Y-11439968D01*
X11564751Y-11437452D01*
X11581452Y-11420751D01*
X11595334Y-11401643D01*
X11606057Y-11380599D01*
X11613355Y-11358137D01*
X11613706Y-11355922D01*
X11617050Y-11334810D01*
X11617050Y-11311190D01*
X11613355Y-11287863D01*
X11606642Y-11267201D01*
X11606057Y-11265401D01*
X11606057Y-11265400D01*
X11606057Y-11265400D01*
X11597238Y-11248093D01*
X11595334Y-11244357D01*
X11581452Y-11225249D01*
X11564751Y-11208548D01*
X11561287Y-11206032D01*
X11557021Y-11200499D01*
X11556423Y-11193537D01*
X11559683Y-11187358D01*
X11561287Y-11185968D01*
X11564751Y-11183452D01*
X11581452Y-11166751D01*
X11595334Y-11147643D01*
X11606057Y-11126599D01*
X11613355Y-11104137D01*
X11613776Y-11101479D01*
X11617050Y-11080810D01*
X11617050Y-11057190D01*
X11613355Y-11033863D01*
X11609340Y-11021505D01*
X11606057Y-11011401D01*
X11606057Y-11011401D01*
X11606057Y-11011400D01*
X11595334Y-10990357D01*
X11595007Y-10989907D01*
X11581452Y-10971249D01*
X11564751Y-10954548D01*
X11561287Y-10952032D01*
X11557021Y-10946499D01*
X11556423Y-10939538D01*
X11559683Y-10933358D01*
X11561287Y-10931968D01*
X11564751Y-10929452D01*
X11581452Y-10912751D01*
X11595334Y-10893643D01*
X11606057Y-10872599D01*
X11613355Y-10850137D01*
X11613776Y-10847478D01*
X11617050Y-10826810D01*
X11617050Y-10803190D01*
X11613355Y-10779863D01*
X11606642Y-10759201D01*
X11606057Y-10757401D01*
X11606057Y-10757401D01*
X11606057Y-10757400D01*
X11595334Y-10736357D01*
X11581452Y-10717249D01*
X11564751Y-10700548D01*
X11561287Y-10698032D01*
X11557021Y-10692499D01*
X11556423Y-10685538D01*
X11559683Y-10679358D01*
X11561287Y-10677968D01*
X11564751Y-10675452D01*
X11581452Y-10658751D01*
X11595334Y-10639643D01*
X11606057Y-10618599D01*
X11613355Y-10596137D01*
X11613636Y-10594366D01*
X11617050Y-10572810D01*
X11617050Y-10549190D01*
X11613355Y-10525863D01*
X11608656Y-10511400D01*
X11606057Y-10503401D01*
X11606057Y-10503401D01*
X11606057Y-10503400D01*
X11599595Y-10490719D01*
X11595334Y-10482357D01*
X11581452Y-10463249D01*
X11564751Y-10446548D01*
X11561287Y-10444032D01*
X11557021Y-10438499D01*
X11556423Y-10431538D01*
X11559683Y-10425358D01*
X11561287Y-10423968D01*
X11564751Y-10421452D01*
X11581452Y-10404751D01*
X11595334Y-10385643D01*
X11606057Y-10364599D01*
X11613355Y-10342137D01*
X11613382Y-10341968D01*
X11617050Y-10318810D01*
X11617050Y-10295190D01*
X11613355Y-10271863D01*
X11606642Y-10251201D01*
X11606057Y-10249401D01*
X11606057Y-10249401D01*
X11606057Y-10249400D01*
X11597174Y-10231968D01*
X11595334Y-10228357D01*
X11581452Y-10209249D01*
X11564751Y-10192548D01*
X11561287Y-10190032D01*
X11557021Y-10184499D01*
X11556423Y-10177538D01*
X11559683Y-10171358D01*
X11561287Y-10169968D01*
X11564751Y-10167452D01*
X11581452Y-10150751D01*
X11595334Y-10131643D01*
X11606057Y-10110599D01*
X11613355Y-10088137D01*
X11615467Y-10074807D01*
X11617050Y-10064810D01*
X11617050Y-10041190D01*
X11613355Y-10017863D01*
X11606642Y-9997201D01*
X11606057Y-9995401D01*
X11606057Y-9995401D01*
X11606057Y-9995400D01*
X11595334Y-9974357D01*
X11581452Y-9955249D01*
X11564751Y-9938548D01*
X11561287Y-9936032D01*
X11557021Y-9930499D01*
X11556423Y-9923538D01*
X11559683Y-9917358D01*
X11561287Y-9915968D01*
X11564751Y-9913452D01*
X11581452Y-9896751D01*
X11595334Y-9877643D01*
X11606057Y-9856599D01*
X11613355Y-9834137D01*
X11613930Y-9830510D01*
X11617050Y-9810810D01*
X11617050Y-9787190D01*
X11613355Y-9763863D01*
X11608938Y-9750270D01*
X11606057Y-9741401D01*
X11606057Y-9741401D01*
X11606057Y-9741400D01*
X11595334Y-9720357D01*
X11581452Y-9701249D01*
X11564751Y-9684548D01*
X11561287Y-9682032D01*
X11557021Y-9676499D01*
X11556423Y-9669538D01*
X11559683Y-9663358D01*
X11561287Y-9661968D01*
X11564751Y-9659452D01*
X11581452Y-9642751D01*
X11595334Y-9623643D01*
X11606057Y-9602599D01*
X11613355Y-9580137D01*
X11614370Y-9573729D01*
X11617050Y-9556810D01*
X11617050Y-9533190D01*
X11613355Y-9509863D01*
X11608656Y-9495400D01*
X11606057Y-9487401D01*
X11606057Y-9487401D01*
X11606057Y-9487400D01*
X11595334Y-9466357D01*
X11581452Y-9447249D01*
X11564751Y-9430548D01*
X11561287Y-9428032D01*
X11557021Y-9422499D01*
X11556423Y-9415538D01*
X11559683Y-9409358D01*
X11561287Y-9407968D01*
X11564751Y-9405452D01*
X11581452Y-9388751D01*
X11595334Y-9369643D01*
X11606057Y-9348599D01*
X11613355Y-9326137D01*
X11617050Y-9302810D01*
X11617050Y-9279190D01*
X11613355Y-9255863D01*
X11606968Y-9236204D01*
X11606057Y-9233401D01*
X11606057Y-9233401D01*
X11606057Y-9233400D01*
X11595334Y-9212357D01*
X11581452Y-9193249D01*
X11564751Y-9176548D01*
X11561287Y-9174032D01*
X11557021Y-9168499D01*
X11556423Y-9161538D01*
X11559683Y-9155358D01*
X11561287Y-9153968D01*
X11564751Y-9151452D01*
X11581452Y-9134751D01*
X11595334Y-9115643D01*
X11606057Y-9094599D01*
X11613355Y-9072137D01*
X11614138Y-9067197D01*
X11617050Y-9048810D01*
X11617050Y-9025190D01*
X11613355Y-9001863D01*
X11606268Y-8980050D01*
X11606057Y-8979401D01*
X11606057Y-8979401D01*
X11606057Y-8979400D01*
X11597790Y-8963177D01*
X11595334Y-8958357D01*
X11581452Y-8939249D01*
X11564751Y-8922548D01*
X11561287Y-8920032D01*
X11557021Y-8914499D01*
X11556423Y-8907538D01*
X11559683Y-8901358D01*
X11561287Y-8899968D01*
X11564751Y-8897452D01*
X11581452Y-8880751D01*
X11595334Y-8861643D01*
X11606057Y-8840599D01*
X11613355Y-8818137D01*
X11613369Y-8818050D01*
X11617050Y-8794810D01*
X11617050Y-8771190D01*
X11613355Y-8747863D01*
X11606420Y-8726519D01*
X11606057Y-8725401D01*
X11606057Y-8725401D01*
X11606057Y-8725400D01*
X11598944Y-8711442D01*
X11595334Y-8704357D01*
X11581452Y-8685249D01*
X11564751Y-8668548D01*
X11561287Y-8666032D01*
X11557021Y-8660499D01*
X11556423Y-8653538D01*
X11559683Y-8647358D01*
X11561287Y-8645968D01*
X11564751Y-8643452D01*
X11581452Y-8626751D01*
X11595334Y-8607643D01*
X11606057Y-8586599D01*
X11613355Y-8564137D01*
X11615582Y-8550078D01*
X11617050Y-8540810D01*
X11617050Y-8517190D01*
X11613355Y-8493863D01*
X11606626Y-8473152D01*
X11606057Y-8471401D01*
X11606057Y-8471401D01*
X11606057Y-8471400D01*
X11600400Y-8460299D01*
X11595334Y-8450357D01*
X11581452Y-8431249D01*
X11564751Y-8414548D01*
X11561287Y-8412032D01*
X11557021Y-8406499D01*
X11556423Y-8399538D01*
X11559683Y-8393358D01*
X11561287Y-8391968D01*
X11562410Y-8391152D01*
X11564751Y-8389452D01*
X11581452Y-8372751D01*
X11595334Y-8353643D01*
X11606057Y-8332599D01*
X11613355Y-8310137D01*
X11613646Y-8308299D01*
X11617050Y-8286810D01*
X11617050Y-8263190D01*
X11613355Y-8239863D01*
X11606057Y-8217400D01*
X11597414Y-8200439D01*
X11595334Y-8196357D01*
X11581452Y-8177249D01*
X11578182Y-8173979D01*
X11574834Y-8167847D01*
X11575332Y-8160878D01*
X11579519Y-8155285D01*
X11582617Y-8153593D01*
X11585551Y-8152499D01*
X11591233Y-8150380D01*
X11602755Y-8141755D01*
X11611380Y-8130233D01*
X11616409Y-8116748D01*
X11617050Y-8110787D01*
X11617050Y-7931213D01*
X11616409Y-7925252D01*
X11616197Y-7924683D01*
X11611380Y-7911767D01*
X11611379Y-7911766D01*
X11602755Y-7900245D01*
X11602754Y-7900245D01*
X11591233Y-7891621D01*
X11591233Y-7891620D01*
X11577748Y-7886591D01*
X11577748Y-7886591D01*
X11571788Y-7885950D01*
X11571788Y-7885950D01*
X11571787Y-7885950D01*
X11571786Y-7885950D01*
X11362213Y-7885950D01*
X11362212Y-7885950D01*
X11356252Y-7886591D01*
X11342767Y-7891620D01*
X11342766Y-7891621D01*
X11331245Y-7900245D01*
X11331245Y-7900245D01*
X11322621Y-7911766D01*
X11322620Y-7911767D01*
X11317591Y-7925252D01*
X11316950Y-7931212D01*
X11316950Y-7931212D01*
X11316950Y-7931213D01*
X11316950Y-8110787D01*
X11316950Y-8110788D01*
X11317591Y-8116748D01*
X11322620Y-8130233D01*
X11322621Y-8130233D01*
X11331245Y-8141754D01*
X11331245Y-8141755D01*
X11342766Y-8150379D01*
X11342767Y-8150380D01*
X11351383Y-8153593D01*
X11356976Y-8157780D01*
X11359418Y-8164327D01*
X11357933Y-8171154D01*
X11355818Y-8173979D01*
X11352549Y-8177249D01*
X11352548Y-8177249D01*
X11352548Y-8177249D01*
X11346586Y-8185455D01*
X11338666Y-8196357D01*
X11327943Y-8217400D01*
X11320645Y-8239863D01*
X11316950Y-8263190D01*
X11316950Y-8286810D01*
X11320645Y-8310137D01*
X11327943Y-8332600D01*
X11337530Y-8351415D01*
X11338666Y-8353643D01*
X11352548Y-8372751D01*
X11369249Y-8389452D01*
X11372713Y-8391968D01*
X11376979Y-8397501D01*
X11377577Y-8404463D01*
X11374316Y-8410642D01*
X11372713Y-8412032D01*
X11370936Y-8413322D01*
X11369249Y-8414548D01*
X11352548Y-8431249D01*
X11352548Y-8431249D01*
X11352548Y-8431249D01*
X11348580Y-8436711D01*
X11338666Y-8450357D01*
X11327943Y-8471400D01*
X11320645Y-8493863D01*
X11316950Y-8517190D01*
X11316950Y-8540810D01*
X11320645Y-8564137D01*
X11327943Y-8586600D01*
X11336158Y-8602721D01*
X11338666Y-8607643D01*
X11352548Y-8626751D01*
X11369249Y-8643452D01*
X11372713Y-8645968D01*
X11376979Y-8651501D01*
X11377577Y-8658463D01*
X11374316Y-8664642D01*
X11372713Y-8666032D01*
X11370936Y-8667322D01*
X11369249Y-8668548D01*
X11352548Y-8685249D01*
X11352548Y-8685249D01*
X11352548Y-8685249D01*
X11347735Y-8691874D01*
X11338666Y-8704357D01*
X11327943Y-8725400D01*
X11320645Y-8747863D01*
X11316950Y-8771190D01*
X11316950Y-8794810D01*
X11320645Y-8818137D01*
X11327943Y-8840600D01*
X11337079Y-8858529D01*
X11338666Y-8861643D01*
X11352548Y-8880751D01*
X11369249Y-8897452D01*
X11372713Y-8899968D01*
X11376979Y-8905501D01*
X11377577Y-8912463D01*
X11374316Y-8918642D01*
X11372713Y-8920032D01*
X11372371Y-8920280D01*
X11369249Y-8922548D01*
X11352548Y-8939249D01*
X11352548Y-8939249D01*
X11352548Y-8939249D01*
X11346586Y-8947455D01*
X11338666Y-8958357D01*
X11327943Y-8979400D01*
X11320645Y-9001863D01*
X11316950Y-9025190D01*
X11316950Y-9048810D01*
X11320645Y-9072137D01*
X11327943Y-9094600D01*
X11338666Y-9115643D01*
X11352548Y-9134751D01*
X11369249Y-9151452D01*
X11372713Y-9153968D01*
X11376979Y-9159501D01*
X11377577Y-9166463D01*
X11374316Y-9172642D01*
X11372713Y-9174032D01*
X11370936Y-9175322D01*
X11369249Y-9176548D01*
X11352548Y-9193249D01*
X11352548Y-9193249D01*
X11352548Y-9193249D01*
X11347373Y-9200372D01*
X11338666Y-9212357D01*
X11327943Y-9233400D01*
X11320645Y-9255863D01*
X11316950Y-9279190D01*
X11316950Y-9302810D01*
X11320645Y-9326137D01*
X11327943Y-9348600D01*
X11336305Y-9365011D01*
X11338666Y-9369643D01*
X11352548Y-9388751D01*
X11369249Y-9405452D01*
X11372713Y-9407968D01*
X11376979Y-9413501D01*
X11377577Y-9420463D01*
X11374316Y-9426642D01*
X11372713Y-9428032D01*
X11371709Y-9428761D01*
X11369249Y-9430548D01*
X11352548Y-9447249D01*
X11352548Y-9447249D01*
X11352548Y-9447249D01*
X11346586Y-9455455D01*
X11338666Y-9466357D01*
X11327943Y-9487400D01*
X11320645Y-9509863D01*
X11316950Y-9533190D01*
X11316950Y-9556810D01*
X11320645Y-9580137D01*
X11327943Y-9602600D01*
X11334888Y-9616229D01*
X11338666Y-9623643D01*
X11352548Y-9642751D01*
X11369249Y-9659452D01*
X11372713Y-9661968D01*
X11376979Y-9667501D01*
X11377577Y-9674463D01*
X11374316Y-9680642D01*
X11372713Y-9682032D01*
X11370936Y-9683322D01*
X11369249Y-9684548D01*
X11352548Y-9701249D01*
X11352548Y-9701249D01*
X11352548Y-9701249D01*
X11349572Y-9705345D01*
X11338666Y-9720357D01*
X11327943Y-9741400D01*
X11320645Y-9763863D01*
X11316950Y-9787190D01*
X11316950Y-9810810D01*
X11320645Y-9834137D01*
X11327943Y-9856600D01*
X11334881Y-9870215D01*
X11338666Y-9877643D01*
X11352548Y-9896751D01*
X11369249Y-9913452D01*
X11372713Y-9915968D01*
X11376979Y-9921501D01*
X11377577Y-9928463D01*
X11374316Y-9934642D01*
X11372713Y-9936032D01*
X11370936Y-9937322D01*
X11369249Y-9938548D01*
X11352548Y-9955249D01*
X11352548Y-9955249D01*
X11352548Y-9955249D01*
X11351240Y-9957049D01*
X11338666Y-9974357D01*
X11327943Y-9995400D01*
X11320645Y-10017863D01*
X11316950Y-10041190D01*
X11316950Y-10064810D01*
X11320645Y-10088137D01*
X11327943Y-10110600D01*
X11335565Y-10125558D01*
X11338666Y-10131643D01*
X11352548Y-10150751D01*
X11369249Y-10167452D01*
X11372713Y-10169968D01*
X11376979Y-10175501D01*
X11377577Y-10182463D01*
X11374316Y-10188642D01*
X11372713Y-10190032D01*
X11371170Y-10191152D01*
X11369249Y-10192548D01*
X11352548Y-10209249D01*
X11352548Y-10209249D01*
X11352548Y-10209249D01*
X11349684Y-10213191D01*
X11338666Y-10228357D01*
X11327943Y-10249400D01*
X11320645Y-10271863D01*
X11316950Y-10295190D01*
X11316950Y-10318810D01*
X11320645Y-10342137D01*
X11327943Y-10364600D01*
X11335565Y-10379558D01*
X11338666Y-10385643D01*
X11352548Y-10404751D01*
X11369249Y-10421452D01*
X11372713Y-10423968D01*
X11376979Y-10429501D01*
X11377577Y-10436463D01*
X11374316Y-10442642D01*
X11372713Y-10444032D01*
X11371590Y-10444848D01*
X11369249Y-10446548D01*
X11352548Y-10463249D01*
X11352548Y-10463249D01*
X11352548Y-10463249D01*
X11349684Y-10467191D01*
X11338666Y-10482357D01*
X11327943Y-10503400D01*
X11320645Y-10525863D01*
X11316950Y-10549190D01*
X11316950Y-10572810D01*
X11320645Y-10596137D01*
X11327943Y-10618600D01*
X11335565Y-10633558D01*
X11338666Y-10639643D01*
X11352548Y-10658751D01*
X11369249Y-10675452D01*
X11372713Y-10677968D01*
X11376979Y-10683501D01*
X11377577Y-10690463D01*
X11374316Y-10696642D01*
X11372713Y-10698032D01*
X11372625Y-10698096D01*
X11369249Y-10700548D01*
X11352548Y-10717249D01*
X11352548Y-10717249D01*
X11352548Y-10717249D01*
X11349684Y-10721191D01*
X11338666Y-10736357D01*
X11327943Y-10757400D01*
X11320645Y-10779863D01*
X11316950Y-10803190D01*
X11316950Y-10826810D01*
X11320645Y-10850137D01*
X11327943Y-10872600D01*
X11333385Y-10883279D01*
X11338666Y-10893643D01*
X11352548Y-10912751D01*
X11369249Y-10929452D01*
X11372713Y-10931968D01*
X11376979Y-10937501D01*
X11377577Y-10944463D01*
X11374316Y-10950642D01*
X11372713Y-10952032D01*
X11371170Y-10953152D01*
X11369249Y-10954548D01*
X11352548Y-10971249D01*
X11352548Y-10971249D01*
X11352548Y-10971249D01*
X11349684Y-10975191D01*
X11338666Y-10990357D01*
X11327943Y-11011400D01*
X11320645Y-11033863D01*
X11316950Y-11057190D01*
X11316950Y-11080810D01*
X11320645Y-11104137D01*
X11327943Y-11126600D01*
X11336342Y-11143084D01*
X11338666Y-11147643D01*
X11352548Y-11166751D01*
X11369249Y-11183452D01*
X11372713Y-11185968D01*
X11376979Y-11191501D01*
X11377577Y-11198463D01*
X11374316Y-11204642D01*
X11372713Y-11206031D01*
X11372625Y-11206096D01*
X11369249Y-11208548D01*
X11352548Y-11225249D01*
X11352548Y-11225249D01*
X11352548Y-11225249D01*
X11349684Y-11229191D01*
X11338666Y-11244357D01*
X11337737Y-11246180D01*
X11332939Y-11251259D01*
X11326688Y-11252950D01*
X11273450Y-11252950D01*
X11266746Y-11250981D01*
X11262171Y-11245701D01*
X11261050Y-11240550D01*
X11261050Y-10511100D01*
X11258358Y-10497568D01*
X11258358Y-10497568D01*
X11258358Y-10497567D01*
X11253077Y-10484819D01*
X11249166Y-10478966D01*
X11249166Y-10478965D01*
X11249166Y-10478965D01*
X11245411Y-10473346D01*
X11245411Y-10473345D01*
X11035655Y-10263589D01*
X11024181Y-10255922D01*
X11011433Y-10250642D01*
X11011432Y-10250642D01*
X10997900Y-10247950D01*
X10997899Y-10247950D01*
X10997899Y-10247950D01*
X10957174Y-10247950D01*
X10950471Y-10245982D01*
X10947143Y-10242838D01*
X10940197Y-10233278D01*
X10925721Y-10218803D01*
X10909161Y-10206772D01*
X10909161Y-10206771D01*
X10909161Y-10206771D01*
X10901859Y-10203051D01*
X10890922Y-10197478D01*
X10871453Y-10191152D01*
X10854000Y-10188388D01*
X10851235Y-10187950D01*
X10830765Y-10187950D01*
X10828333Y-10188335D01*
X10810547Y-10191152D01*
X10791078Y-10197478D01*
X10772839Y-10206772D01*
X10756279Y-10218803D01*
X10741803Y-10233279D01*
X10729772Y-10249839D01*
X10720478Y-10268078D01*
X10714152Y-10287547D01*
X10710950Y-10307765D01*
X10710950Y-10328235D01*
X10714152Y-10348453D01*
X10720478Y-10367922D01*
X10726407Y-10379558D01*
X10729508Y-10385643D01*
X10729772Y-10386161D01*
X10741803Y-10402721D01*
X10756279Y-10417197D01*
X10770084Y-10427227D01*
X10772839Y-10429229D01*
X10782203Y-10434000D01*
X10791078Y-10438522D01*
X10791078Y-10438522D01*
X10791078Y-10438522D01*
X10801514Y-10441913D01*
X10810547Y-10444848D01*
X10820656Y-10446449D01*
X10830765Y-10448050D01*
X10830765Y-10448050D01*
X10851235Y-10448050D01*
X10851235Y-10448050D01*
X10871453Y-10444848D01*
X10890922Y-10438522D01*
X10909161Y-10429229D01*
X10918459Y-10422473D01*
X10925721Y-10417197D01*
X10925722Y-10417197D01*
X10925722Y-10417197D01*
X10940197Y-10402722D01*
X10947005Y-10393350D01*
X10952538Y-10389084D01*
X10959500Y-10388486D01*
X10965679Y-10391747D01*
X10965805Y-10391871D01*
X11117318Y-10543384D01*
X11120667Y-10549516D01*
X11120950Y-10552152D01*
X11120950Y-11311101D01*
X11120950Y-11324899D01*
X11120950Y-11324900D01*
X11120950Y-11324900D01*
X11123642Y-11338432D01*
X11123642Y-11338433D01*
X11128922Y-11351181D01*
X11136589Y-11362654D01*
X11151345Y-11377411D01*
X11162819Y-11385078D01*
X11175567Y-11390358D01*
X11175567Y-11390358D01*
X11175568Y-11390358D01*
X11175568Y-11390358D01*
X11189100Y-11393050D01*
X11189101Y-11393050D01*
X11189101Y-11393050D01*
X11326688Y-11393050D01*
X11333392Y-11395018D01*
X11337737Y-11399820D01*
X11338666Y-11401643D01*
X11352548Y-11420751D01*
X11369249Y-11437452D01*
X11372713Y-11439968D01*
X11376979Y-11445501D01*
X11377577Y-11452463D01*
X11374316Y-11458642D01*
X11372713Y-11460031D01*
X11372625Y-11460096D01*
X11369249Y-11462548D01*
X11352548Y-11479249D01*
X11352548Y-11479249D01*
X11352548Y-11479249D01*
X11349684Y-11483191D01*
X11338666Y-11498357D01*
X11337737Y-11500180D01*
X11332939Y-11505259D01*
X11326688Y-11506950D01*
X11184152Y-11506950D01*
X11177448Y-11504981D01*
X11175384Y-11503318D01*
X11035655Y-11363589D01*
X11035655Y-11363589D01*
X11024181Y-11355922D01*
X11011433Y-11350642D01*
X11011432Y-11350642D01*
X10997900Y-11347950D01*
X10997899Y-11347950D01*
X10997899Y-11347950D01*
X10957174Y-11347950D01*
X10950471Y-11345981D01*
X10947143Y-11342838D01*
X10940197Y-11333278D01*
X10925721Y-11318803D01*
X10909161Y-11306771D01*
X10909161Y-11306771D01*
X10909161Y-11306771D01*
X10899579Y-11301889D01*
X10890922Y-11297478D01*
X10871453Y-11291152D01*
X10854000Y-11288388D01*
X10851235Y-11287950D01*
X10830765Y-11287950D01*
X10828333Y-11288335D01*
X10810547Y-11291152D01*
X10791078Y-11297478D01*
X10772839Y-11306771D01*
X10756279Y-11318803D01*
X10741803Y-11333278D01*
X10741803Y-11333279D01*
X10733482Y-11344732D01*
X10727949Y-11348998D01*
X10720988Y-11349596D01*
X10714808Y-11346336D01*
X10711372Y-11340252D01*
X10711050Y-11337443D01*
X10711050Y-11314152D01*
X10713019Y-11307448D01*
X10714681Y-11305384D01*
X10808385Y-11211680D01*
X10814517Y-11208332D01*
X10819093Y-11208201D01*
X10824540Y-11209064D01*
X10830765Y-11210050D01*
X10830765Y-11210050D01*
X10851235Y-11210050D01*
X10851235Y-11210050D01*
X10871453Y-11206848D01*
X10890922Y-11200522D01*
X10909161Y-11191229D01*
X10918582Y-11184384D01*
X10925721Y-11179197D01*
X10925722Y-11179197D01*
X10925722Y-11179197D01*
X10940197Y-11164722D01*
X10940197Y-11164722D01*
X10940197Y-11164721D01*
X10945473Y-11157459D01*
X10952229Y-11148161D01*
X10961522Y-11129922D01*
X10967848Y-11110453D01*
X10971050Y-11090235D01*
X10971050Y-11069765D01*
X10970298Y-11065016D01*
X10967848Y-11049547D01*
X10964742Y-11039988D01*
X10961522Y-11030078D01*
X10961522Y-11030078D01*
X10961522Y-11030078D01*
X10957154Y-11021505D01*
X10952229Y-11011839D01*
X10951456Y-11010775D01*
X10940197Y-10995279D01*
X10925721Y-10980803D01*
X10909161Y-10968772D01*
X10909161Y-10968771D01*
X10909161Y-10968771D01*
X10903465Y-10965869D01*
X10890922Y-10959478D01*
X10871453Y-10953152D01*
X10854000Y-10950388D01*
X10851235Y-10949950D01*
X10830765Y-10949950D01*
X10828333Y-10950335D01*
X10810547Y-10953152D01*
X10791078Y-10959478D01*
X10772839Y-10968772D01*
X10756279Y-10980803D01*
X10741803Y-10995279D01*
X10729772Y-11011839D01*
X10720478Y-11030078D01*
X10714152Y-11049547D01*
X10710950Y-11069765D01*
X10710950Y-11090235D01*
X10712799Y-11101907D01*
X10711903Y-11108836D01*
X10709319Y-11112615D01*
X10621218Y-11200716D01*
X10615086Y-11204065D01*
X10608117Y-11203566D01*
X10602523Y-11199379D01*
X10600082Y-11192833D01*
X10600050Y-11191948D01*
X10600050Y-9140215D01*
X10696050Y-9140215D01*
X10696050Y-9160685D01*
X10699252Y-9180903D01*
X10705578Y-9200372D01*
X10714872Y-9218611D01*
X10726903Y-9235171D01*
X10741379Y-9249647D01*
X10751646Y-9257107D01*
X10755913Y-9262640D01*
X10756511Y-9269601D01*
X10753250Y-9275781D01*
X10747166Y-9279216D01*
X10745683Y-9279468D01*
X10740352Y-9280041D01*
X10726867Y-9285070D01*
X10726866Y-9285071D01*
X10715346Y-9293695D01*
X10715345Y-9293696D01*
X10706721Y-9305216D01*
X10706720Y-9305217D01*
X10701691Y-9318702D01*
X10701050Y-9324662D01*
X10701050Y-9324662D01*
X10701050Y-9324664D01*
X10701050Y-9484237D01*
X10701050Y-9484238D01*
X10701691Y-9490198D01*
X10706720Y-9503683D01*
X10706721Y-9503684D01*
X10715345Y-9515204D01*
X10715346Y-9515205D01*
X10726866Y-9523829D01*
X10726867Y-9523830D01*
X10731189Y-9525442D01*
X10740352Y-9528859D01*
X10745684Y-9529432D01*
X10752138Y-9532106D01*
X10756123Y-9537845D01*
X10756373Y-9544828D01*
X10752807Y-9550837D01*
X10751646Y-9551793D01*
X10741379Y-9559253D01*
X10741378Y-9559253D01*
X10726903Y-9573729D01*
X10714872Y-9590289D01*
X10705578Y-9608528D01*
X10699252Y-9627997D01*
X10696050Y-9648215D01*
X10696050Y-9668685D01*
X10699252Y-9688903D01*
X10705578Y-9708372D01*
X10714872Y-9726611D01*
X10726903Y-9743171D01*
X10741379Y-9757647D01*
X10754131Y-9766912D01*
X10757939Y-9769679D01*
X10768211Y-9774913D01*
X10776178Y-9778972D01*
X10776178Y-9778972D01*
X10776178Y-9778972D01*
X10784986Y-9781834D01*
X10795647Y-9785298D01*
X10805756Y-9786899D01*
X10815865Y-9788500D01*
X10815865Y-9788500D01*
X10836335Y-9788500D01*
X10836335Y-9788500D01*
X10856553Y-9785298D01*
X10876022Y-9778972D01*
X10894261Y-9769679D01*
X10907682Y-9759928D01*
X10910821Y-9757647D01*
X10910822Y-9757647D01*
X10910822Y-9757647D01*
X10925297Y-9743172D01*
X10925297Y-9743172D01*
X10925297Y-9743171D01*
X10935181Y-9729567D01*
X10937329Y-9726611D01*
X10946622Y-9708372D01*
X10952948Y-9688903D01*
X10956150Y-9668685D01*
X10956150Y-9648215D01*
X10952948Y-9627997D01*
X10946622Y-9608528D01*
X10946622Y-9608528D01*
X10946622Y-9608528D01*
X10941639Y-9598748D01*
X10937329Y-9590289D01*
X10929953Y-9580137D01*
X10925297Y-9573729D01*
X10910822Y-9559253D01*
X10910821Y-9559253D01*
X10900554Y-9551793D01*
X10896287Y-9546260D01*
X10895689Y-9539299D01*
X10898950Y-9533119D01*
X10905034Y-9529684D01*
X10906516Y-9529432D01*
X10911848Y-9528859D01*
X10925333Y-9523830D01*
X10936855Y-9515205D01*
X10945480Y-9503683D01*
X10950509Y-9490198D01*
X10951150Y-9484237D01*
X10951150Y-9324663D01*
X10950509Y-9318702D01*
X10947166Y-9309739D01*
X10945480Y-9305217D01*
X10945479Y-9305216D01*
X10936855Y-9293696D01*
X10936854Y-9293695D01*
X10925334Y-9285071D01*
X10925333Y-9285070D01*
X10911848Y-9280041D01*
X10911848Y-9280041D01*
X10906517Y-9279468D01*
X10900061Y-9276794D01*
X10896077Y-9271055D01*
X10895827Y-9264072D01*
X10899393Y-9258063D01*
X10900554Y-9257107D01*
X10902266Y-9255863D01*
X10910822Y-9249647D01*
X10925297Y-9235172D01*
X10925297Y-9235172D01*
X10925297Y-9235171D01*
X10932917Y-9224683D01*
X10937329Y-9218611D01*
X10946622Y-9200372D01*
X10952948Y-9180903D01*
X10956150Y-9160685D01*
X10956150Y-9140215D01*
X10952948Y-9119997D01*
X10946622Y-9100528D01*
X10946622Y-9100528D01*
X10946622Y-9100528D01*
X10943250Y-9093911D01*
X10937329Y-9082289D01*
X10929953Y-9072137D01*
X10925297Y-9065729D01*
X10910821Y-9051253D01*
X10894261Y-9039222D01*
X10894261Y-9039221D01*
X10894261Y-9039221D01*
X10888255Y-9036161D01*
X10876022Y-9029928D01*
X10856553Y-9023602D01*
X10839100Y-9020838D01*
X10836335Y-9020400D01*
X10815865Y-9020400D01*
X10813433Y-9020785D01*
X10795647Y-9023602D01*
X10776178Y-9029928D01*
X10757939Y-9039222D01*
X10741379Y-9051253D01*
X10726903Y-9065729D01*
X10714872Y-9082289D01*
X10705578Y-9100528D01*
X10699252Y-9119997D01*
X10696050Y-9140215D01*
X10600050Y-9140215D01*
X10600050Y-7757871D01*
X10634950Y-7757871D01*
X10634950Y-7782129D01*
X10638116Y-7806178D01*
X10644395Y-7829610D01*
X10653677Y-7852020D01*
X10653678Y-7852021D01*
X10665806Y-7873029D01*
X10665807Y-7873029D01*
X10665807Y-7873029D01*
X10680573Y-7892274D01*
X10680574Y-7892274D01*
X10697726Y-7909426D01*
X10697726Y-7909427D01*
X10709032Y-7918102D01*
X10716971Y-7924194D01*
X10737979Y-7936322D01*
X10760390Y-7945605D01*
X10783821Y-7951884D01*
X10801859Y-7954258D01*
X10807871Y-7955050D01*
X10807871Y-7955050D01*
X10832129Y-7955050D01*
X10836939Y-7954417D01*
X10856179Y-7951884D01*
X10879610Y-7945605D01*
X10902021Y-7936322D01*
X10923029Y-7924194D01*
X10942274Y-7909426D01*
X10959427Y-7892274D01*
X10974194Y-7873029D01*
X10986322Y-7852021D01*
X10995605Y-7829610D01*
X11001884Y-7806179D01*
X11005050Y-7782129D01*
X11005050Y-7757871D01*
X11001884Y-7733821D01*
X10995605Y-7710390D01*
X10986322Y-7687979D01*
X10974194Y-7666971D01*
X10959427Y-7647726D01*
X10959426Y-7647726D01*
X10942274Y-7630574D01*
X10942274Y-7630573D01*
X10923029Y-7615807D01*
X10923029Y-7615807D01*
X10923029Y-7615806D01*
X10902021Y-7603678D01*
X10902021Y-7603677D01*
X10879610Y-7594395D01*
X10856179Y-7588116D01*
X10832129Y-7584950D01*
X10832129Y-7584950D01*
X10807871Y-7584950D01*
X10807871Y-7584950D01*
X10783821Y-7588116D01*
X10760390Y-7594395D01*
X10737979Y-7603677D01*
X10737979Y-7603678D01*
X10716971Y-7615807D01*
X10697726Y-7630573D01*
X10697726Y-7630574D01*
X10680574Y-7647726D01*
X10680573Y-7647726D01*
X10665807Y-7666971D01*
X10653678Y-7687978D01*
X10653677Y-7687979D01*
X10644395Y-7710389D01*
X10638116Y-7733821D01*
X10634950Y-7757871D01*
X10600050Y-7757871D01*
X10600050Y-7562450D01*
X10602019Y-7555746D01*
X10607299Y-7551171D01*
X10612450Y-7550050D01*
X12635622Y-7550050D01*
X12642326Y-7552018D01*
G37*
%TD.AperFunction*%
%TD*%
D27*
X10550000Y-7500000D02*
X18550000Y-7500000D01*
X18550000Y-13500000D01*
X10550000Y-13500000D01*
X10550000Y-7500000D01*
M02*
