%TF.GenerationSoftware,KiCad,Pcbnew,9.0.3*%
%TF.CreationDate,2025-07-12T12:33:21+07:00*%
%TF.ProjectId,CFBoard,4346426f-6172-4642-9e6b-696361645f70,rev?*%
%TF.SameCoordinates,Original*%
%TF.FileFunction,Copper,L2,Bot*%
%TF.FilePolarity,Positive*%
%FSLAX45Y45*%
G04 Gerber Fmt 4.5, Leading zero omitted, Abs format (unit mm)*
G04 Created by KiCad (PCBNEW 9.0.3) date 2025-07-12 12:33:21*
%MOMM*%
%LPD*%
G01*
G04 APERTURE LIST*
G04 Aperture macros list*
%AMRoundRect*
0 Rectangle with rounded corners*
0 $1 Rounding radius*
0 $2 $3 $4 $5 $6 $7 $8 $9 X,Y pos of 4 corners*
0 Add a 4 corners polygon primitive as box body*
4,1,4,$2,$3,$4,$5,$6,$7,$8,$9,$2,$3,0*
0 Add four circle primitives for the rounded corners*
1,1,$1+$1,$2,$3*
1,1,$1+$1,$4,$5*
1,1,$1+$1,$6,$7*
1,1,$1+$1,$8,$9*
0 Add four rect primitives between the rounded corners*
20,1,$1+$1,$2,$3,$4,$5,0*
20,1,$1+$1,$4,$5,$6,$7,0*
20,1,$1+$1,$6,$7,$8,$9,0*
20,1,$1+$1,$8,$9,$2,$3,0*%
G04 Aperture macros list end*
%TA.AperFunction,ComponentPad*%
%ADD10RoundRect,0.250000X-0.600000X-0.725000X0.600000X-0.725000X0.600000X0.725000X-0.600000X0.725000X0*%
%TD*%
%TA.AperFunction,ComponentPad*%
%ADD11O,1.700000X1.950000*%
%TD*%
%TA.AperFunction,ComponentPad*%
%ADD12C,1.600000*%
%TD*%
%TA.AperFunction,ComponentPad*%
%ADD13RoundRect,0.249999X0.850001X-0.850001X0.850001X0.850001X-0.850001X0.850001X-0.850001X-0.850001X0*%
%TD*%
%TA.AperFunction,ComponentPad*%
%ADD14C,2.200000*%
%TD*%
%TA.AperFunction,ComponentPad*%
%ADD15R,2.000000X2.000000*%
%TD*%
%TA.AperFunction,ComponentPad*%
%ADD16R,1.700000X1.700000*%
%TD*%
%TA.AperFunction,ComponentPad*%
%ADD17C,1.700000*%
%TD*%
%TA.AperFunction,ComponentPad*%
%ADD18RoundRect,0.250000X-0.550000X0.550000X-0.550000X-0.550000X0.550000X-0.550000X0.550000X0.550000X0*%
%TD*%
%TA.AperFunction,ComponentPad*%
%ADD19RoundRect,0.250000X0.550000X-0.550000X0.550000X0.550000X-0.550000X0.550000X-0.550000X-0.550000X0*%
%TD*%
%TA.AperFunction,ComponentPad*%
%ADD20R,1.800000X1.800000*%
%TD*%
%TA.AperFunction,ComponentPad*%
%ADD21C,1.800000*%
%TD*%
%TA.AperFunction,ComponentPad*%
%ADD22R,1.500000X1.500000*%
%TD*%
%TA.AperFunction,ViaPad*%
%ADD23C,0.600000*%
%TD*%
%TA.AperFunction,Conductor*%
%ADD24C,0.500000*%
%TD*%
%TA.AperFunction,Conductor*%
%ADD25C,0.400000*%
%TD*%
%TA.AperFunction,Profile*%
%ADD26C,0.300000*%
%TD*%
G04 APERTURE END LIST*
D10*
%TO.P,CONN1,1,VIN*%
%TO.N,Net-(CONN1-VIN)*%
X14264900Y-8199550D03*
D11*
%TO.P,CONN1,2,GND*%
%TO.N,Net-(CONN1-GND)*%
X14514900Y-8199550D03*
%TO.P,CONN1,3,Signal_1*%
%TO.N,Net-(CONN1-Signal_1)*%
X14764900Y-8199550D03*
%TO.P,CONN1,4,Signal_2*%
%TO.N,Net-(CONN1-Signal_2)*%
X15014900Y-8199550D03*
%TO.P,CONN1,5,Signal_3*%
%TO.N,Net-(CONN1-Signal_3)*%
X15264900Y-8199550D03*
%TO.P,CONN1,6,Signal_4*%
%TO.N,Net-(CONN1-Signal_4)*%
X15514900Y-8199550D03*
%TD*%
D12*
%TO.P,C4,1*%
%TO.N,Net-(D1-A)*%
X13789900Y-9724550D03*
%TO.P,C4,2*%
%TO.N,Net-(D2-A)*%
X13789900Y-9974550D03*
%TD*%
D13*
%TO.P,D1,1,K*%
%TO.N,Net-(D1-K)*%
X15950000Y-10712000D03*
D14*
%TO.P,D1,2,A*%
%TO.N,Net-(D1-A)*%
X15950000Y-9950000D03*
%TD*%
D12*
%TO.P,R4,1*%
%TO.N,Net-(D2-K)*%
X15964900Y-11317550D03*
%TO.P,R4,2*%
%TO.N,Net-(U2-D7)*%
X15964900Y-12079550D03*
%TD*%
%TO.P,R1,1*%
%TO.N,Net-(U2-D5)*%
X14839900Y-8867550D03*
%TO.P,R1,2*%
%TO.N,Net-(U1-RST)*%
X14077900Y-8867550D03*
%TD*%
%TO.P,R2,1*%
%TO.N,Net-(U1-PB6)*%
X11114900Y-10667550D03*
%TO.P,R2,2*%
%TO.N,Net-(U2-Rx)*%
X11114900Y-11429550D03*
%TD*%
D15*
%TO.P,REG1,1,VIN+*%
%TO.N,Net-(REG1-VIN+)*%
X16110700Y-9074550D03*
X16110700Y-9424550D03*
%TO.P,REG1,2,VIN-*%
%TO.N,Net-(CONN1-GND)*%
X16110700Y-8124550D03*
X16110700Y-8474550D03*
%TO.P,REG1,3,VOUT+*%
%TO.N,Net-(REG1-VOUT+)*%
X17964900Y-9074550D03*
X17964900Y-9424550D03*
%TO.P,REG1,4,VOUT-*%
%TO.N,Net-(D2-A)*%
X17964900Y-8124550D03*
X17964900Y-8474550D03*
%TD*%
D16*
%TO.P,U4,1,VIN*%
%TO.N,Net-(D1-A)*%
X14079900Y-13425550D03*
D17*
%TO.P,U4,2,GND*%
%TO.N,Net-(D2-A)*%
X14079900Y-13171550D03*
%TO.P,U4,3,SCL*%
%TO.N,Net-(U1-PB8)*%
X14079900Y-12917550D03*
%TO.P,U4,4,SDA*%
%TO.N,Net-(U1-PB9)*%
X14079900Y-12663550D03*
%TO.P,U4,5,NC*%
%TO.N,unconnected-(U4-NC-Pad5)*%
X14079900Y-12409550D03*
%TD*%
D18*
%TO.P,C3,1*%
%TO.N,Net-(D1-K)*%
X15814900Y-12374550D03*
D12*
%TO.P,C3,2*%
%TO.N,Net-(D2-A)*%
X15814900Y-12624550D03*
%TD*%
D16*
%TO.P,U1,1,PB12*%
%TO.N,unconnected-(U1-PB12-Pad1)*%
X11740900Y-8370550D03*
D17*
%TO.P,U1,2,PB13*%
%TO.N,unconnected-(U1-PB13-Pad2)*%
X11740900Y-8624550D03*
%TO.P,U1,3,PB14*%
%TO.N,unconnected-(U1-PB14-Pad3)*%
X11740900Y-8878550D03*
%TO.P,U1,4,PB15*%
%TO.N,unconnected-(U1-PB15-Pad4)*%
X11740900Y-9132550D03*
%TO.P,U1,5,PA8*%
%TO.N,unconnected-(U1-PA8-Pad5)*%
X11740900Y-9386550D03*
%TO.P,U1,6,PA9*%
%TO.N,unconnected-(U1-PA9-Pad6)*%
X11740900Y-9640550D03*
%TO.P,U1,7,PA10*%
%TO.N,unconnected-(U1-PA10-Pad7)*%
X11740900Y-9894550D03*
%TO.P,U1,8,PA11*%
%TO.N,unconnected-(U1-PA11-Pad8)*%
X11740900Y-10148550D03*
%TO.P,U1,9,PA12*%
%TO.N,unconnected-(U1-PA12-Pad9)*%
X11740900Y-10402550D03*
%TO.P,U1,10,PA15*%
%TO.N,unconnected-(U1-PA15-Pad10)*%
X11740900Y-10656550D03*
%TO.P,U1,11,PB3*%
%TO.N,unconnected-(U1-PB3-Pad11)*%
X11740900Y-10910550D03*
%TO.P,U1,12,PB4*%
%TO.N,unconnected-(U1-PB4-Pad12)*%
X11740900Y-11164550D03*
%TO.P,U1,13,PB5*%
%TO.N,unconnected-(U1-PB5-Pad13)*%
X11740900Y-11418550D03*
%TO.P,U1,14,PB6*%
%TO.N,Net-(U1-PB6)*%
X11740900Y-11672550D03*
%TO.P,U1,15,PB7*%
%TO.N,Net-(U1-PB7)*%
X11740900Y-11926550D03*
%TO.P,U1,16,PB8*%
%TO.N,Net-(U1-PB8)*%
X11740900Y-12180550D03*
%TO.P,U1,17,PB9*%
%TO.N,Net-(U1-PB9)*%
X11740900Y-12434550D03*
%TO.P,U1,18,5V*%
%TO.N,unconnected-(U1-5V-Pad18)*%
X11740900Y-12688550D03*
%TO.P,U1,19,GND*%
%TO.N,unconnected-(U1-GND-Pad19)*%
X11740900Y-12942550D03*
%TO.P,U1,20,3V3*%
%TO.N,unconnected-(U1-3V3-Pad20)*%
X11740900Y-13196550D03*
%TO.P,U1,21,VBat*%
%TO.N,unconnected-(U1-VBat-Pad21)*%
X13264900Y-13196550D03*
%TO.P,U1,22,PC13*%
%TO.N,unconnected-(U1-PC13-Pad22)*%
X13264900Y-12942550D03*
%TO.P,U1,23,PC14*%
%TO.N,unconnected-(U1-PC14-Pad23)*%
X13264900Y-12688550D03*
%TO.P,U1,24,PC15*%
%TO.N,unconnected-(U1-PC15-Pad24)*%
X13264900Y-12434550D03*
%TO.P,U1,25,PA0*%
%TO.N,Net-(CONN1-Signal_1)*%
X13264900Y-12180550D03*
%TO.P,U1,26,PA1*%
%TO.N,Net-(CONN1-Signal_2)*%
X13264900Y-11926550D03*
%TO.P,U1,27,PA2*%
%TO.N,Net-(CONN1-Signal_3)*%
X13264900Y-11672550D03*
%TO.P,U1,28,PA3*%
%TO.N,Net-(CONN1-Signal_4)*%
X13264900Y-11418550D03*
%TO.P,U1,29,PA4*%
%TO.N,unconnected-(U1-PA4-Pad29)*%
X13264900Y-11164550D03*
%TO.P,U1,30,PA5*%
%TO.N,unconnected-(U1-PA5-Pad30)*%
X13264900Y-10910550D03*
%TO.P,U1,31,PA6*%
%TO.N,unconnected-(U1-PA6-Pad31)*%
X13264900Y-10656550D03*
%TO.P,U1,32,PA7*%
%TO.N,unconnected-(U1-PA7-Pad32)*%
X13264900Y-10402550D03*
%TO.P,U1,33,PB0*%
%TO.N,Net-(U1-PB0)*%
X13264900Y-10148550D03*
%TO.P,U1,34,PB1*%
%TO.N,unconnected-(U1-PB1-Pad34)*%
X13264900Y-9894550D03*
%TO.P,U1,35,PB10*%
%TO.N,unconnected-(U1-PB10-Pad35)*%
X13264900Y-9640550D03*
%TO.P,U1,36,PB11*%
%TO.N,unconnected-(U1-PB11-Pad36)*%
X13264900Y-9386550D03*
%TO.P,U1,37,RST*%
%TO.N,Net-(U1-RST)*%
X13264900Y-9132550D03*
%TO.P,U1,38,3V3*%
%TO.N,Net-(D1-A)*%
X13264900Y-8878550D03*
%TO.P,U1,39,GND*%
%TO.N,Net-(D2-A)*%
X13264900Y-8624550D03*
%TO.P,U1,40,GND*%
%TO.N,unconnected-(U1-GND-Pad40)*%
X13264900Y-8370550D03*
%TD*%
D19*
%TO.P,C2,1*%
%TO.N,Net-(REG1-VOUT+)*%
X18489900Y-8895061D03*
D12*
%TO.P,C2,2*%
%TO.N,Net-(D2-A)*%
X18489900Y-8645061D03*
%TD*%
D19*
%TO.P,C1,1*%
%TO.N,Net-(REG1-VIN+)*%
X15414900Y-9199550D03*
D12*
%TO.P,C1,2*%
%TO.N,Net-(CONN1-GND)*%
X15414900Y-8949550D03*
%TD*%
%TO.P,R3,1*%
%TO.N,Net-(U1-PB7)*%
X11114900Y-11767550D03*
%TO.P,R3,2*%
%TO.N,Net-(U2-Tx)*%
X11114900Y-12529550D03*
%TD*%
D20*
%TO.P,D2,1,K*%
%TO.N,Net-(D2-K)*%
X15814900Y-13251550D03*
D21*
%TO.P,D2,2,A*%
%TO.N,Net-(D2-A)*%
X15814900Y-12997550D03*
%TD*%
D17*
%TO.P,U2,1,5V*%
%TO.N,Net-(REG1-VOUT+)*%
X18575900Y-12352550D03*
%TO.P,U2,2,GND*%
%TO.N,Net-(D2-A)*%
X18575900Y-12098550D03*
%TO.P,U2,3,D4*%
%TO.N,unconnected-(U2-D4-Pad3)*%
X18575900Y-11844550D03*
%TO.P,U2,4,D3*%
%TO.N,unconnected-(U2-D3-Pad4)*%
X18575900Y-11590550D03*
%TO.P,U2,5,D2*%
%TO.N,unconnected-(U2-D2-Pad5)*%
X18575900Y-11336550D03*
%TO.P,U2,6,D1*%
%TO.N,unconnected-(U2-D1-Pad6)*%
X18575900Y-11082550D03*
%TO.P,U2,7,Rx*%
%TO.N,Net-(U2-Rx)*%
X18575900Y-10828550D03*
%TO.P,U2,8,Tx*%
%TO.N,Net-(U2-Tx)*%
X18575900Y-10574550D03*
%TO.P,U2,9,Rst*%
%TO.N,unconnected-(U2-Rst-Pad9)*%
X16289900Y-10574550D03*
%TO.P,U2,10,A0*%
%TO.N,unconnected-(U2-A0-Pad10)*%
X16289900Y-10828550D03*
%TO.P,U2,11,D0*%
%TO.N,unconnected-(U2-D0-Pad11)*%
X16289900Y-11082550D03*
%TO.P,U2,12,D5*%
%TO.N,Net-(U2-D5)*%
X16289900Y-11336550D03*
%TO.P,U2,13,D6*%
%TO.N,unconnected-(U2-D6-Pad13)*%
X16289900Y-11590550D03*
%TO.P,U2,14,D7*%
%TO.N,Net-(U2-D7)*%
X16289900Y-11844550D03*
%TO.P,U2,15,D8*%
%TO.N,unconnected-(U2-D8-Pad15)*%
X16289900Y-12098550D03*
%TO.P,U2,16,3.3V*%
%TO.N,Net-(D1-K)*%
X16289900Y-12352550D03*
%TD*%
D12*
%TO.P,R5,1*%
%TO.N,Net-(U3-INT)*%
X14839900Y-9317550D03*
%TO.P,R5,2*%
%TO.N,Net-(U1-PB0)*%
X14077900Y-9317550D03*
%TD*%
%TO.P,C5,1*%
%TO.N,Net-(D2-A)*%
X13789900Y-13167550D03*
%TO.P,C5,2*%
%TO.N,Net-(D1-A)*%
X13789900Y-13417550D03*
%TD*%
D22*
%TO.P,SW1,1,A*%
%TO.N,Net-(CONN1-VIN)*%
X11100000Y-9754000D03*
D12*
%TO.P,SW1,2,B*%
%TO.N,Net-(REG1-VIN+)*%
X11100000Y-10008000D03*
%TO.P,SW1,3*%
%TO.N,N/C*%
X11100000Y-9500000D03*
%TD*%
D16*
%TO.P,U3,1,VIN*%
%TO.N,Net-(D1-A)*%
X14064900Y-9724550D03*
D17*
%TO.P,U3,2,GND*%
%TO.N,Net-(D2-A)*%
X14064900Y-9978550D03*
%TO.P,U3,3,SCL*%
%TO.N,Net-(U1-PB8)*%
X14064900Y-10232550D03*
%TO.P,U3,4,SDA*%
%TO.N,Net-(U1-PB9)*%
X14064900Y-10486550D03*
%TO.P,U3,5,EDA*%
%TO.N,unconnected-(U3-EDA-Pad5)*%
X14064900Y-10740550D03*
%TO.P,U3,6,ECL*%
%TO.N,unconnected-(U3-ECL-Pad6)*%
X14064900Y-10994550D03*
%TO.P,U3,7,AD0*%
%TO.N,unconnected-(U3-AD0-Pad7)*%
X14064900Y-11248550D03*
%TO.P,U3,8,INT*%
%TO.N,Net-(U3-INT)*%
X14064900Y-11502550D03*
%TO.P,U3,9,NCS*%
%TO.N,unconnected-(U3-NCS-Pad9)*%
X14064900Y-11756550D03*
%TO.P,U3,10,FSYNC*%
%TO.N,unconnected-(U3-FSYNC-Pad10)*%
X14064900Y-12010550D03*
%TD*%
D23*
%TO.N,Net-(D1-A)*%
X14414900Y-13017550D03*
X14414900Y-13317550D03*
%TD*%
D24*
%TO.N,Net-(REG1-VIN+)*%
X11420100Y-9533036D02*
X11260568Y-9692568D01*
X11260568Y-9692568D02*
X11260568Y-9847432D01*
X11529036Y-8020100D02*
X11420100Y-8129036D01*
X11420100Y-8129036D02*
X11420100Y-9533036D01*
X11260568Y-9847432D02*
X11100000Y-10008000D01*
%TO.N,Net-(CONN1-VIN)*%
X14099550Y-8199550D02*
X13850000Y-7950000D01*
X11350000Y-9504000D02*
X11100000Y-9754000D01*
X14264900Y-8199550D02*
X14099550Y-8199550D01*
X11350000Y-8100000D02*
X11350000Y-9504000D01*
X11500000Y-7950000D02*
X11350000Y-8100000D01*
X13850000Y-7950000D02*
X11500000Y-7950000D01*
%TO.N,Net-(CONN1-GND)*%
X14600000Y-8500000D02*
X15150000Y-8500000D01*
X14514900Y-8414900D02*
X14600000Y-8500000D01*
X14514900Y-8199550D02*
X14514900Y-8414900D01*
X15414900Y-8949550D02*
X15635700Y-8949550D01*
X15414900Y-8764900D02*
X15414900Y-8949550D01*
X16103700Y-8117550D02*
X16110700Y-8124550D01*
X15150000Y-8500000D02*
X15414900Y-8764900D01*
X15635700Y-8949550D02*
X16110700Y-8474550D01*
X16110700Y-8124550D02*
X16110700Y-8474550D01*
%TO.N,Net-(D2-A)*%
X18575900Y-12098550D02*
X18739800Y-12262450D01*
D25*
X13064900Y-8824550D02*
X13264900Y-8624550D01*
D24*
X14064900Y-9978550D02*
X13793900Y-9978550D01*
X13789900Y-13167550D02*
X13600000Y-12977650D01*
X18107900Y-8617550D02*
X18114900Y-8617550D01*
X18614900Y-12617550D02*
X18607900Y-12624550D01*
X18714900Y-8870061D02*
X18714900Y-11959550D01*
X13600000Y-12977650D02*
X13600000Y-10150000D01*
X18114900Y-8617550D02*
X18142411Y-8645061D01*
X14075900Y-13167550D02*
X14079900Y-13171550D01*
X13614450Y-10150000D02*
X13789900Y-9974550D01*
X14760900Y-13171550D02*
X14079900Y-13171550D01*
X18142411Y-8645061D02*
X18489900Y-8645061D01*
D25*
X13789900Y-13167550D02*
X13764900Y-13167550D01*
D24*
X14934900Y-12997550D02*
X14760900Y-13171550D01*
X13793900Y-9978550D02*
X13789900Y-9974550D01*
X13600000Y-10150000D02*
X13614450Y-10150000D01*
X18489900Y-8645061D02*
X18714900Y-8870061D01*
X18607900Y-12624550D02*
X15814900Y-12624550D01*
X13814900Y-13167550D02*
X14075900Y-13167550D01*
X15814900Y-12624550D02*
X15814900Y-12997550D01*
X17964900Y-8124550D02*
X17964900Y-8474550D01*
D25*
X13764900Y-13167550D02*
X13514900Y-13417550D01*
X13114900Y-13417550D02*
X13064900Y-13367550D01*
X13064900Y-13367550D02*
X13064900Y-8824550D01*
D24*
X17964900Y-8474550D02*
X18107900Y-8617550D01*
X15814900Y-12997550D02*
X14934900Y-12997550D01*
X18739800Y-12262450D02*
X18739800Y-12617550D01*
X18739800Y-12617550D02*
X18614900Y-12617550D01*
X18714900Y-11959550D02*
X18575900Y-12098550D01*
D25*
X13514900Y-13417550D02*
X13114900Y-13417550D01*
D24*
%TO.N,Net-(D1-K)*%
X15500000Y-12300000D02*
X15574550Y-12374550D01*
X16267900Y-12374550D02*
X16289900Y-12352550D01*
X15500000Y-11400000D02*
X15950000Y-10950000D01*
X15814900Y-12374550D02*
X16267900Y-12374550D01*
X15950000Y-10950000D02*
X15950000Y-10712000D01*
X15500000Y-11400000D02*
X15500000Y-12300000D01*
X15574550Y-12374550D02*
X15814900Y-12374550D01*
%TO.N,Net-(REG1-VOUT+)*%
X18449900Y-12352550D02*
X18575900Y-12352550D01*
X17964900Y-9074550D02*
X18007900Y-9074550D01*
X18187389Y-8895061D02*
X18489900Y-8895061D01*
X17964900Y-9424550D02*
X17964900Y-9074550D01*
X18489900Y-8895061D02*
X18414900Y-8970061D01*
X18414900Y-8970061D02*
X18414900Y-12317550D01*
X18007900Y-9074550D02*
X18187389Y-8895061D01*
X18414900Y-12317550D02*
X18449900Y-12352550D01*
%TO.N,Net-(D1-A)*%
X14264900Y-9650000D02*
X15800000Y-9650000D01*
X14264900Y-12667550D02*
X14264900Y-12267550D01*
X15800000Y-9650000D02*
X15950000Y-9800000D01*
X13814900Y-9067550D02*
X13625900Y-8878550D01*
X13625900Y-8878550D02*
X13264900Y-8878550D01*
X14164900Y-9517550D02*
X13814900Y-9517550D01*
X13814900Y-9517550D02*
X13814900Y-9699550D01*
X14079900Y-13425550D02*
X13822900Y-13425550D01*
X14414900Y-13017550D02*
X14414900Y-12817550D01*
X14414900Y-13367550D02*
X14414900Y-13317550D01*
X14264900Y-9617550D02*
X14164900Y-9517550D01*
X13822900Y-13425550D02*
X13814900Y-13417550D01*
X13789900Y-9724550D02*
X14064900Y-9724550D01*
X14079900Y-13425550D02*
X14356900Y-13425550D01*
X14264900Y-9650000D02*
X14264900Y-9617550D01*
X13814900Y-9517550D02*
X13814900Y-9067550D01*
X14264900Y-12267550D02*
X14264900Y-12017550D01*
X14414900Y-12817550D02*
X14264900Y-12667550D01*
X15950000Y-9800000D02*
X15950000Y-9950000D01*
X14264900Y-12017550D02*
X14264900Y-9650000D01*
X13814900Y-9699550D02*
X13789900Y-9724550D01*
X14356900Y-13425550D02*
X14414900Y-13367550D01*
%TO.N,Net-(REG1-VIN+)*%
X15414900Y-9199550D02*
X15732900Y-9199550D01*
X15250000Y-8719668D02*
X15250000Y-9200000D01*
X15414450Y-9200000D02*
X15414900Y-9199550D01*
X16110700Y-9424550D02*
X16110700Y-9074550D01*
X15250000Y-9200000D02*
X15414450Y-9200000D01*
X15864900Y-9067550D02*
X15871900Y-9074550D01*
X14450000Y-8450000D02*
X14570100Y-8570100D01*
X14570100Y-8570100D02*
X15100432Y-8570100D01*
X15871900Y-9074550D02*
X16110700Y-9074550D01*
X11529036Y-8020100D02*
X13820964Y-8020100D01*
X15100432Y-8570100D02*
X15250000Y-8719668D01*
X13820964Y-8020100D02*
X14250864Y-8450000D01*
X15732900Y-9199550D02*
X15864900Y-9067550D01*
X14250864Y-8450000D02*
X14450000Y-8450000D01*
%TD*%
D26*
X10814900Y-7824550D02*
X18814900Y-7824550D01*
X18814900Y-13824550D01*
X10814900Y-13824550D01*
X10814900Y-7824550D01*
M02*
