%TF.GenerationSoftware,KiCad,Pcbnew,9.0.3*%
%TF.CreationDate,2025-08-04T15:43:45+07:00*%
%TF.ProjectId,CFBoard,4346426f-6172-4642-9e6b-696361645f70,rev?*%
%TF.SameCoordinates,Original*%
%TF.FileFunction,Legend,Top*%
%TF.FilePolarity,Positive*%
%FSLAX45Y45*%
G04 Gerber Fmt 4.5, Leading zero omitted, Abs format (unit mm)*
G04 Created by KiCad (PCBNEW 9.0.3) date 2025-08-04 15:43:45*
%MOMM*%
%LPD*%
G01*
G04 APERTURE LIST*
%ADD10C,0.000000*%
%ADD11C,0.075000*%
%ADD12C,0.150000*%
%ADD13C,0.100000*%
%ADD14C,0.120000*%
%TA.AperFunction,Profile*%
%ADD15C,0.300000*%
%TD*%
G04 APERTURE END LIST*
D10*
G36*
X17928518Y-13334037D02*
G01*
X17929420Y-13334099D01*
X17930318Y-13334201D01*
X17931211Y-13334342D01*
X17932098Y-13334523D01*
X17932977Y-13334741D01*
X17933849Y-13334997D01*
X17934711Y-13335289D01*
X17935564Y-13335617D01*
X17936405Y-13335981D01*
X17937234Y-13336378D01*
X17938051Y-13336809D01*
X17938853Y-13337273D01*
X17939640Y-13337769D01*
X17940412Y-13338296D01*
X17941166Y-13338854D01*
X17942620Y-13340058D01*
X17943995Y-13341376D01*
X17945283Y-13342801D01*
X17945891Y-13343551D01*
X17946475Y-13344327D01*
X17947033Y-13345126D01*
X17947564Y-13345949D01*
X17948067Y-13346793D01*
X17948542Y-13347660D01*
X17948987Y-13348547D01*
X17949401Y-13349454D01*
X17949784Y-13350381D01*
X17950134Y-13351326D01*
X17950528Y-13352554D01*
X17950873Y-13353830D01*
X17951167Y-13355145D01*
X17951410Y-13356493D01*
X17951603Y-13357867D01*
X17951745Y-13359260D01*
X17951836Y-13360664D01*
X17951877Y-13362074D01*
X17951866Y-13363481D01*
X17951805Y-13364879D01*
X17951692Y-13366260D01*
X17951528Y-13367619D01*
X17951313Y-13368947D01*
X17951047Y-13370238D01*
X17950729Y-13371485D01*
X17950360Y-13372681D01*
X17949649Y-13374568D01*
X17948776Y-13376519D01*
X17947739Y-13378532D01*
X17946542Y-13380604D01*
X17945185Y-13382735D01*
X17943669Y-13384922D01*
X17941996Y-13387165D01*
X17940167Y-13389461D01*
X17938183Y-13391809D01*
X17936045Y-13394207D01*
X17933756Y-13396653D01*
X17931315Y-13399147D01*
X17928724Y-13401686D01*
X17925986Y-13404268D01*
X17923100Y-13406893D01*
X17920068Y-13409558D01*
X17917791Y-13411497D01*
X17915272Y-13413590D01*
X17912672Y-13415709D01*
X17910150Y-13417728D01*
X17907867Y-13419519D01*
X17905984Y-13420956D01*
X17904660Y-13421911D01*
X17904258Y-13422168D01*
X17904056Y-13422258D01*
X17903825Y-13422152D01*
X17903359Y-13421850D01*
X17901822Y-13420734D01*
X17899647Y-13419069D01*
X17897034Y-13417013D01*
X17891293Y-13412367D01*
X17888566Y-13410096D01*
X17886201Y-13408071D01*
X17883966Y-13406082D01*
X17881681Y-13403984D01*
X17879394Y-13401824D01*
X17877151Y-13399647D01*
X17875000Y-13397500D01*
X17872988Y-13395429D01*
X17871162Y-13393481D01*
X17869569Y-13391702D01*
X17868221Y-13390126D01*
X17866942Y-13388572D01*
X17865733Y-13387040D01*
X17864595Y-13385533D01*
X17863528Y-13384050D01*
X17862532Y-13382593D01*
X17861607Y-13381162D01*
X17860754Y-13379757D01*
X17859974Y-13378380D01*
X17859266Y-13377032D01*
X17858631Y-13375712D01*
X17858070Y-13374422D01*
X17857583Y-13373163D01*
X17857170Y-13371935D01*
X17856831Y-13370739D01*
X17856568Y-13369576D01*
X17856406Y-13368686D01*
X17856268Y-13367770D01*
X17856152Y-13366832D01*
X17856059Y-13365876D01*
X17855989Y-13364907D01*
X17855941Y-13363929D01*
X17855916Y-13362946D01*
X17855914Y-13361963D01*
X17855934Y-13360984D01*
X17855976Y-13360014D01*
X17856041Y-13359057D01*
X17856129Y-13358117D01*
X17856238Y-13357199D01*
X17856370Y-13356307D01*
X17856524Y-13355445D01*
X17856699Y-13354618D01*
X17857092Y-13353094D01*
X17857557Y-13351611D01*
X17858092Y-13350173D01*
X17858696Y-13348780D01*
X17859368Y-13347434D01*
X17860107Y-13346137D01*
X17860911Y-13344891D01*
X17861779Y-13343696D01*
X17862710Y-13342556D01*
X17863702Y-13341471D01*
X17864754Y-13340443D01*
X17865865Y-13339474D01*
X17867033Y-13338565D01*
X17868256Y-13337718D01*
X17869535Y-13336935D01*
X17870867Y-13336217D01*
X17871524Y-13335915D01*
X17872275Y-13335607D01*
X17873090Y-13335304D01*
X17873936Y-13335016D01*
X17874783Y-13334753D01*
X17875600Y-13334527D01*
X17876356Y-13334347D01*
X17876701Y-13334277D01*
X17877019Y-13334223D01*
X17877362Y-13334178D01*
X17877763Y-13334143D01*
X17878710Y-13334100D01*
X17879794Y-13334091D01*
X17880949Y-13334115D01*
X17882111Y-13334168D01*
X17883213Y-13334250D01*
X17884191Y-13334356D01*
X17884612Y-13334419D01*
X17884978Y-13334486D01*
X17885629Y-13334630D01*
X17886282Y-13334791D01*
X17886935Y-13334969D01*
X17887588Y-13335164D01*
X17888238Y-13335376D01*
X17888886Y-13335602D01*
X17889528Y-13335844D01*
X17890164Y-13336100D01*
X17890792Y-13336369D01*
X17891411Y-13336652D01*
X17892020Y-13336947D01*
X17892617Y-13337254D01*
X17893200Y-13337572D01*
X17893769Y-13337901D01*
X17894321Y-13338240D01*
X17894856Y-13338588D01*
X17895237Y-13338856D01*
X17895637Y-13339158D01*
X17896052Y-13339489D01*
X17896478Y-13339845D01*
X17896911Y-13340222D01*
X17897347Y-13340617D01*
X17897782Y-13341025D01*
X17898212Y-13341443D01*
X17898633Y-13341867D01*
X17899041Y-13342293D01*
X17899431Y-13342716D01*
X17899801Y-13343134D01*
X17900146Y-13343541D01*
X17900461Y-13343935D01*
X17900744Y-13344311D01*
X17900990Y-13344665D01*
X17901390Y-13345288D01*
X17901781Y-13345946D01*
X17902155Y-13346624D01*
X17902506Y-13347306D01*
X17902827Y-13347977D01*
X17903109Y-13348621D01*
X17903346Y-13349222D01*
X17903445Y-13349501D01*
X17903530Y-13349764D01*
X17903551Y-13349848D01*
X17903574Y-13349928D01*
X17903598Y-13350006D01*
X17903622Y-13350081D01*
X17903647Y-13350152D01*
X17903671Y-13350219D01*
X17903696Y-13350281D01*
X17903720Y-13350338D01*
X17903743Y-13350390D01*
X17903766Y-13350436D01*
X17903787Y-13350476D01*
X17903807Y-13350510D01*
X17903826Y-13350537D01*
X17903834Y-13350548D01*
X17903842Y-13350557D01*
X17903849Y-13350564D01*
X17903856Y-13350569D01*
X17903863Y-13350572D01*
X17903868Y-13350573D01*
X17903881Y-13350566D01*
X17903899Y-13350543D01*
X17903949Y-13350458D01*
X17904015Y-13350322D01*
X17904094Y-13350143D01*
X17904183Y-13349925D01*
X17904281Y-13349676D01*
X17904384Y-13349401D01*
X17904489Y-13349106D01*
X17904795Y-13348304D01*
X17905139Y-13347516D01*
X17905940Y-13345983D01*
X17906883Y-13344513D01*
X17907957Y-13343112D01*
X17909153Y-13341787D01*
X17910461Y-13340544D01*
X17911872Y-13339390D01*
X17913377Y-13338329D01*
X17914965Y-13337370D01*
X17916627Y-13336518D01*
X17918353Y-13335780D01*
X17920134Y-13335162D01*
X17921960Y-13334670D01*
X17923821Y-13334311D01*
X17925709Y-13334091D01*
X17927612Y-13334016D01*
X17928518Y-13334037D01*
G37*
D11*
G36*
X16321054Y-13334384D02*
G01*
X16326227Y-13334839D01*
X16330739Y-13335921D01*
X16334688Y-13337584D01*
X16338328Y-13339853D01*
X16341427Y-13342525D01*
X16344032Y-13345619D01*
X16346145Y-13349080D01*
X16347786Y-13352933D01*
X16348951Y-13357231D01*
X16349721Y-13363949D01*
X16349362Y-13371221D01*
X16348541Y-13377068D01*
X16346796Y-13384704D01*
X16344032Y-13391659D01*
X16341604Y-13395980D01*
X16338793Y-13399858D01*
X16335591Y-13403329D01*
X16331994Y-13406376D01*
X16328017Y-13408957D01*
X16323623Y-13411086D01*
X16318994Y-13412628D01*
X16313986Y-13413575D01*
X16308539Y-13413900D01*
X16290016Y-13413900D01*
X16291444Y-13405649D01*
X16301490Y-13405649D01*
X16308759Y-13405703D01*
X16314925Y-13405082D01*
X16320233Y-13403407D01*
X16325006Y-13400752D01*
X16329090Y-13397316D01*
X16332495Y-13393156D01*
X16335264Y-13388245D01*
X16337303Y-13382872D01*
X16338654Y-13377068D01*
X16339529Y-13371055D01*
X16339916Y-13365839D01*
X16339660Y-13360811D01*
X16338667Y-13356011D01*
X16336900Y-13351848D01*
X16334294Y-13348260D01*
X16330809Y-13345395D01*
X16328098Y-13344038D01*
X16324831Y-13343120D01*
X16320893Y-13342693D01*
X16312422Y-13342635D01*
X16301490Y-13405649D01*
X16291444Y-13405649D01*
X16303786Y-13334330D01*
X16321054Y-13334384D01*
G37*
G36*
X16394464Y-13354069D02*
G01*
X16397873Y-13354968D01*
X16400775Y-13356327D01*
X16404561Y-13359216D01*
X16407443Y-13362858D01*
X16409471Y-13367126D01*
X16410720Y-13372066D01*
X16411158Y-13377271D01*
X16410833Y-13382695D01*
X16410120Y-13387229D01*
X16369409Y-13387229D01*
X16369251Y-13390812D01*
X16369653Y-13394282D01*
X16370615Y-13397574D01*
X16372086Y-13400457D01*
X16374112Y-13402919D01*
X16376732Y-13404882D01*
X16379826Y-13406161D01*
X16383614Y-13406685D01*
X16388587Y-13406257D01*
X16393096Y-13404668D01*
X16397216Y-13402135D01*
X16400941Y-13398869D01*
X16406622Y-13403681D01*
X16404427Y-13406355D01*
X16401893Y-13408683D01*
X16399085Y-13410656D01*
X16396076Y-13412259D01*
X16392894Y-13413494D01*
X16389569Y-13414364D01*
X16386168Y-13414864D01*
X16382740Y-13414994D01*
X16378791Y-13414654D01*
X16375288Y-13413824D01*
X16372164Y-13412532D01*
X16367981Y-13409781D01*
X16364651Y-13406304D01*
X16362136Y-13402165D01*
X16360416Y-13397345D01*
X16359580Y-13392165D01*
X16359625Y-13386574D01*
X16359898Y-13384224D01*
X16360536Y-13380378D01*
X16360936Y-13378924D01*
X16370611Y-13378924D01*
X16401429Y-13379032D01*
X16401649Y-13378050D01*
X16401882Y-13375068D01*
X16401596Y-13372203D01*
X16400795Y-13369491D01*
X16399519Y-13367123D01*
X16397777Y-13365098D01*
X16395582Y-13363488D01*
X16393026Y-13362428D01*
X16389955Y-13361984D01*
X16386269Y-13362232D01*
X16383067Y-13363268D01*
X16380179Y-13364955D01*
X16377630Y-13367123D01*
X16375427Y-13369685D01*
X16373508Y-13372642D01*
X16370611Y-13378924D01*
X16360936Y-13378924D01*
X16361589Y-13376550D01*
X16363033Y-13372836D01*
X16364842Y-13369306D01*
X16367006Y-13365994D01*
X16369487Y-13362965D01*
X16372294Y-13360263D01*
X16375388Y-13357968D01*
X16378767Y-13356107D01*
X16382437Y-13354715D01*
X16386311Y-13353885D01*
X16390448Y-13353674D01*
X16394464Y-13354069D01*
G37*
G36*
X16463662Y-13397834D02*
G01*
X16463612Y-13395474D01*
X16462847Y-13393681D01*
X16461528Y-13392203D01*
X16459813Y-13391005D01*
X16455686Y-13389339D01*
X16451641Y-13388269D01*
X16444812Y-13386247D01*
X16441385Y-13384856D01*
X16438305Y-13383135D01*
X16435625Y-13380972D01*
X16433523Y-13378353D01*
X16432213Y-13375256D01*
X16431857Y-13371382D01*
X16432229Y-13368475D01*
X16433088Y-13365892D01*
X16434380Y-13363525D01*
X16436009Y-13361412D01*
X16437949Y-13359553D01*
X16440191Y-13357939D01*
X16445217Y-13355506D01*
X16450630Y-13354085D01*
X16456067Y-13353674D01*
X16460161Y-13354062D01*
X16464073Y-13354989D01*
X16467722Y-13356489D01*
X16470824Y-13358515D01*
X16473413Y-13361100D01*
X16475415Y-13364250D01*
X16476654Y-13367859D01*
X16477052Y-13372203D01*
X16467272Y-13372149D01*
X16467029Y-13369793D01*
X16466339Y-13367831D01*
X16465239Y-13366116D01*
X16463799Y-13364690D01*
X16462079Y-13363571D01*
X16460082Y-13362751D01*
X16457944Y-13362244D01*
X16455686Y-13362037D01*
X16451177Y-13362477D01*
X16448922Y-13363114D01*
X16446834Y-13364035D01*
X16444957Y-13365268D01*
X16443390Y-13366820D01*
X16442254Y-13368697D01*
X16441642Y-13371001D01*
X16441689Y-13373300D01*
X16442433Y-13375016D01*
X16443713Y-13376409D01*
X16445354Y-13377503D01*
X16449321Y-13378978D01*
X16453282Y-13379906D01*
X16457923Y-13381166D01*
X16462627Y-13382862D01*
X16466970Y-13385128D01*
X16468891Y-13386534D01*
X16470496Y-13388132D01*
X16471801Y-13389970D01*
X16472792Y-13392094D01*
X16473373Y-13394423D01*
X16473501Y-13397120D01*
X16472714Y-13401614D01*
X16470877Y-13405322D01*
X16468173Y-13408440D01*
X16464864Y-13410920D01*
X16461099Y-13412780D01*
X16456887Y-13414090D01*
X16452530Y-13414826D01*
X16448363Y-13414994D01*
X16444053Y-13414638D01*
X16439917Y-13413685D01*
X16436045Y-13412117D01*
X16432678Y-13409992D01*
X16429832Y-13407278D01*
X16427622Y-13403984D01*
X16426254Y-13400193D01*
X16425849Y-13395645D01*
X16435682Y-13395704D01*
X16435999Y-13398414D01*
X16436776Y-13400623D01*
X16438003Y-13402526D01*
X16439565Y-13404037D01*
X16441438Y-13405199D01*
X16443664Y-13406060D01*
X16446068Y-13406565D01*
X16448690Y-13406739D01*
X16453336Y-13406363D01*
X16455735Y-13405777D01*
X16457977Y-13404912D01*
X16460014Y-13403711D01*
X16461723Y-13402152D01*
X16462975Y-13400226D01*
X16463662Y-13397834D01*
G37*
G36*
X16499996Y-13354769D02*
G01*
X16529393Y-13354769D01*
X16520649Y-13405156D01*
X16539397Y-13405156D01*
X16537810Y-13413900D01*
X16489718Y-13413900D01*
X16491306Y-13405156D01*
X16510757Y-13405156D01*
X16517972Y-13363566D01*
X16498462Y-13363566D01*
X16499996Y-13354769D01*
G37*
G36*
X16520923Y-13339411D02*
G01*
X16521387Y-13336986D01*
X16522618Y-13335068D01*
X16524477Y-13333762D01*
X16526882Y-13333236D01*
X16529256Y-13333622D01*
X16531117Y-13334824D01*
X16532319Y-13336680D01*
X16532729Y-13339083D01*
X16532305Y-13341490D01*
X16531088Y-13343319D01*
X16529242Y-13344541D01*
X16526829Y-13345043D01*
X16524451Y-13344723D01*
X16522589Y-13343592D01*
X16521355Y-13341806D01*
X16520923Y-13339411D01*
G37*
G36*
X16589197Y-13354170D02*
G01*
X16593297Y-13355565D01*
X16596895Y-13357880D01*
X16599882Y-13361270D01*
X16601792Y-13354769D01*
X16610863Y-13354769D01*
X16601030Y-13412644D01*
X16599858Y-13417981D01*
X16597937Y-13422751D01*
X16595269Y-13427033D01*
X16591983Y-13430591D01*
X16588084Y-13433462D01*
X16583566Y-13435623D01*
X16578622Y-13436903D01*
X16573049Y-13437235D01*
X16570116Y-13437017D01*
X16567202Y-13436468D01*
X16564368Y-13435606D01*
X16561682Y-13434446D01*
X16559154Y-13432992D01*
X16556817Y-13431251D01*
X16554716Y-13429227D01*
X16552880Y-13426908D01*
X16558512Y-13420841D01*
X16561348Y-13424158D01*
X16564603Y-13426684D01*
X16568345Y-13428338D01*
X16572722Y-13428984D01*
X16576376Y-13428775D01*
X16579575Y-13427968D01*
X16582492Y-13426600D01*
X16584988Y-13424774D01*
X16587104Y-13422499D01*
X16588866Y-13419747D01*
X16590202Y-13416679D01*
X16591138Y-13413245D01*
X16592227Y-13408053D01*
X16588585Y-13411113D01*
X16584690Y-13413299D01*
X16580431Y-13414613D01*
X16575614Y-13414994D01*
X16571886Y-13414559D01*
X16568755Y-13413543D01*
X16565968Y-13411975D01*
X16563621Y-13409992D01*
X16561663Y-13407616D01*
X16560065Y-13404858D01*
X16558840Y-13401862D01*
X16557935Y-13398684D01*
X16557032Y-13392016D01*
X16557100Y-13389964D01*
X16566816Y-13389964D01*
X16567143Y-13394663D01*
X16568267Y-13399065D01*
X16569209Y-13401057D01*
X16570421Y-13402777D01*
X16571935Y-13404225D01*
X16573782Y-13405376D01*
X16575915Y-13406122D01*
X16578623Y-13406465D01*
X16581829Y-13406246D01*
X16584654Y-13405467D01*
X16587176Y-13404145D01*
X16590553Y-13401382D01*
X16593541Y-13397834D01*
X16598187Y-13370561D01*
X16596271Y-13367056D01*
X16593732Y-13364499D01*
X16590545Y-13362854D01*
X16586546Y-13362203D01*
X16582175Y-13362589D01*
X16578564Y-13364006D01*
X16575447Y-13366278D01*
X16572854Y-13369169D01*
X16570785Y-13372531D01*
X16569166Y-13376330D01*
X16568000Y-13380310D01*
X16567256Y-13384224D01*
X16567090Y-13385372D01*
X16566816Y-13389964D01*
X16557100Y-13389964D01*
X16557251Y-13385372D01*
X16557364Y-13384224D01*
X16558863Y-13376824D01*
X16560035Y-13373146D01*
X16561516Y-13369633D01*
X16563308Y-13366300D01*
X16565370Y-13363239D01*
X16567759Y-13360475D01*
X16570480Y-13358105D01*
X16573523Y-13356168D01*
X16576898Y-13354715D01*
X16580544Y-13353850D01*
X16584690Y-13353621D01*
X16589197Y-13354170D01*
G37*
G36*
X16638721Y-13354715D02*
G01*
X16637466Y-13363513D01*
X16641398Y-13359473D01*
X16645936Y-13356303D01*
X16648405Y-13355147D01*
X16651016Y-13354305D01*
X16653743Y-13353808D01*
X16656649Y-13353674D01*
X16661359Y-13354255D01*
X16665007Y-13355643D01*
X16668064Y-13357823D01*
X16670390Y-13360591D01*
X16672039Y-13363877D01*
X16673071Y-13367777D01*
X16673460Y-13371928D01*
X16673262Y-13376355D01*
X16666975Y-13413900D01*
X16657083Y-13413900D01*
X16663370Y-13376521D01*
X16663540Y-13373567D01*
X16663395Y-13370947D01*
X16662864Y-13368503D01*
X16661919Y-13366468D01*
X16660521Y-13364765D01*
X16658612Y-13363434D01*
X16656303Y-13362602D01*
X16653205Y-13362257D01*
X16650679Y-13362390D01*
X16648310Y-13362887D01*
X16643967Y-13364797D01*
X16640172Y-13367753D01*
X16636919Y-13371436D01*
X16629542Y-13413900D01*
X16619651Y-13413900D01*
X16629923Y-13354769D01*
X16638721Y-13354715D01*
G37*
G36*
X16723117Y-13354069D02*
G01*
X16726526Y-13354968D01*
X16729428Y-13356327D01*
X16733214Y-13359216D01*
X16736096Y-13362858D01*
X16738124Y-13367126D01*
X16739374Y-13372066D01*
X16739812Y-13377271D01*
X16739486Y-13382695D01*
X16738773Y-13387229D01*
X16698062Y-13387229D01*
X16697904Y-13390812D01*
X16698307Y-13394282D01*
X16699268Y-13397574D01*
X16700739Y-13400457D01*
X16702765Y-13402919D01*
X16705385Y-13404882D01*
X16708480Y-13406161D01*
X16712268Y-13406685D01*
X16717240Y-13406257D01*
X16721749Y-13404668D01*
X16725869Y-13402135D01*
X16729594Y-13398869D01*
X16735275Y-13403681D01*
X16733080Y-13406355D01*
X16730547Y-13408683D01*
X16727739Y-13410656D01*
X16724729Y-13412259D01*
X16721548Y-13413494D01*
X16718222Y-13414364D01*
X16714821Y-13414864D01*
X16711393Y-13414994D01*
X16707445Y-13414654D01*
X16703941Y-13413824D01*
X16700817Y-13412532D01*
X16696634Y-13409781D01*
X16693305Y-13406304D01*
X16690789Y-13402165D01*
X16689069Y-13397345D01*
X16688233Y-13392165D01*
X16688278Y-13386574D01*
X16688552Y-13384224D01*
X16689189Y-13380378D01*
X16689589Y-13378924D01*
X16699264Y-13378924D01*
X16730083Y-13379032D01*
X16730302Y-13378050D01*
X16730535Y-13375068D01*
X16730249Y-13372203D01*
X16729448Y-13369491D01*
X16728173Y-13367123D01*
X16726430Y-13365098D01*
X16724235Y-13363488D01*
X16721679Y-13362428D01*
X16718608Y-13361984D01*
X16714922Y-13362232D01*
X16711720Y-13363268D01*
X16708832Y-13364955D01*
X16706284Y-13367123D01*
X16704080Y-13369685D01*
X16702161Y-13372642D01*
X16699264Y-13378924D01*
X16689589Y-13378924D01*
X16690242Y-13376550D01*
X16691686Y-13372836D01*
X16693495Y-13369306D01*
X16695659Y-13365994D01*
X16698141Y-13362965D01*
X16700947Y-13360263D01*
X16704041Y-13357968D01*
X16707421Y-13356107D01*
X16711090Y-13354715D01*
X16714965Y-13353885D01*
X16719101Y-13353674D01*
X16723117Y-13354069D01*
G37*
G36*
X16797728Y-13413900D02*
G01*
X16788764Y-13413900D01*
X16789805Y-13407672D01*
X16786126Y-13410914D01*
X16782126Y-13413216D01*
X16777731Y-13414593D01*
X16772806Y-13414994D01*
X16769125Y-13414561D01*
X16766001Y-13413543D01*
X16763215Y-13411970D01*
X16760867Y-13409968D01*
X16758908Y-13407568D01*
X16757316Y-13404804D01*
X16756084Y-13401808D01*
X16755157Y-13398625D01*
X16754224Y-13391986D01*
X16754274Y-13389964D01*
X16763954Y-13389964D01*
X16764311Y-13394693D01*
X16765429Y-13399089D01*
X16766351Y-13401060D01*
X16767559Y-13402777D01*
X16769078Y-13404223D01*
X16770949Y-13405376D01*
X16773098Y-13406111D01*
X16775761Y-13406411D01*
X16778930Y-13406226D01*
X16781737Y-13405476D01*
X16784256Y-13404174D01*
X16787640Y-13401450D01*
X16790626Y-13397995D01*
X16795379Y-13370400D01*
X16793423Y-13366989D01*
X16790865Y-13364470D01*
X16787689Y-13362845D01*
X16783738Y-13362203D01*
X16779367Y-13362589D01*
X16775756Y-13364006D01*
X16772634Y-13366277D01*
X16770021Y-13369169D01*
X16767923Y-13372532D01*
X16766274Y-13376330D01*
X16765102Y-13380312D01*
X16764394Y-13384224D01*
X16764228Y-13385372D01*
X16763954Y-13389964D01*
X16754274Y-13389964D01*
X16754390Y-13385372D01*
X16754502Y-13384224D01*
X16755972Y-13376848D01*
X16757165Y-13373194D01*
X16758654Y-13369687D01*
X16760458Y-13366357D01*
X16762562Y-13363293D01*
X16764989Y-13360524D01*
X16767696Y-13358159D01*
X16770723Y-13356225D01*
X16774120Y-13354769D01*
X16777780Y-13353902D01*
X16781882Y-13353674D01*
X16786188Y-13354176D01*
X16790132Y-13355428D01*
X16793661Y-13357527D01*
X16796746Y-13360670D01*
X16802427Y-13329959D01*
X16812319Y-13329959D01*
X16797728Y-13413900D01*
G37*
G36*
X16894380Y-13354769D02*
G01*
X16923777Y-13354769D01*
X16915033Y-13405156D01*
X16933781Y-13405156D01*
X16932194Y-13413900D01*
X16884102Y-13413900D01*
X16885690Y-13405156D01*
X16905141Y-13405156D01*
X16912356Y-13363566D01*
X16892846Y-13363566D01*
X16894380Y-13354769D01*
G37*
G36*
X16915307Y-13339411D02*
G01*
X16915771Y-13336986D01*
X16917002Y-13335068D01*
X16918861Y-13333762D01*
X16921266Y-13333236D01*
X16923640Y-13333622D01*
X16925501Y-13334824D01*
X16926703Y-13336680D01*
X16927113Y-13339083D01*
X16926689Y-13341490D01*
X16925472Y-13343319D01*
X16923625Y-13344541D01*
X16921212Y-13345043D01*
X16918835Y-13344723D01*
X16916972Y-13343592D01*
X16915738Y-13341806D01*
X16915307Y-13339411D01*
G37*
G36*
X16967374Y-13354715D02*
G01*
X16966119Y-13363513D01*
X16970051Y-13359473D01*
X16974589Y-13356303D01*
X16977058Y-13355147D01*
X16979670Y-13354305D01*
X16982397Y-13353808D01*
X16985302Y-13353674D01*
X16990013Y-13354255D01*
X16993660Y-13355643D01*
X16996717Y-13357823D01*
X16999043Y-13360591D01*
X17000692Y-13363877D01*
X17001725Y-13367777D01*
X17002113Y-13371928D01*
X17001915Y-13376355D01*
X16995628Y-13413900D01*
X16985737Y-13413900D01*
X16992023Y-13376521D01*
X16992193Y-13373567D01*
X16992048Y-13370947D01*
X16991517Y-13368503D01*
X16990573Y-13366468D01*
X16989174Y-13364765D01*
X16987266Y-13363434D01*
X16984956Y-13362602D01*
X16981858Y-13362257D01*
X16979332Y-13362390D01*
X16976963Y-13362887D01*
X16972621Y-13364797D01*
X16968825Y-13367753D01*
X16965572Y-13371436D01*
X16958196Y-13413900D01*
X16948304Y-13413900D01*
X16958577Y-13354769D01*
X16967374Y-13354715D01*
G37*
G36*
X17115835Y-13334384D02*
G01*
X17120348Y-13334848D01*
X17124603Y-13335889D01*
X17128558Y-13337560D01*
X17131926Y-13339826D01*
X17134702Y-13342714D01*
X17136762Y-13346220D01*
X17137908Y-13350223D01*
X17138022Y-13355096D01*
X17137483Y-13358308D01*
X17136464Y-13361085D01*
X17134997Y-13363596D01*
X17133181Y-13365808D01*
X17131054Y-13367755D01*
X17128594Y-13369497D01*
X17123157Y-13372310D01*
X17125833Y-13373617D01*
X17128076Y-13375290D01*
X17129979Y-13377305D01*
X17131515Y-13379554D01*
X17132680Y-13382020D01*
X17133455Y-13384718D01*
X17133831Y-13387531D01*
X17133811Y-13390457D01*
X17132864Y-13395837D01*
X17130861Y-13400457D01*
X17127938Y-13404495D01*
X17124330Y-13407833D01*
X17120132Y-13410454D01*
X17115342Y-13412371D01*
X17110259Y-13413518D01*
X17105069Y-13413900D01*
X17079658Y-13413900D01*
X17081148Y-13405322D01*
X17091079Y-13405322D01*
X17105616Y-13405430D01*
X17108895Y-13405129D01*
X17112035Y-13404340D01*
X17114991Y-13403082D01*
X17117637Y-13401414D01*
X17119936Y-13399322D01*
X17121819Y-13396798D01*
X17123168Y-13393916D01*
X17123924Y-13390619D01*
X17124036Y-13387736D01*
X17123621Y-13385182D01*
X17122716Y-13382839D01*
X17121409Y-13380864D01*
X17119697Y-13379236D01*
X17117554Y-13377967D01*
X17115124Y-13377138D01*
X17112284Y-13376736D01*
X17096051Y-13376682D01*
X17091079Y-13405322D01*
X17081148Y-13405322D01*
X17087586Y-13368266D01*
X17097527Y-13368266D01*
X17110642Y-13368378D01*
X17113625Y-13368120D01*
X17116597Y-13367450D01*
X17119429Y-13366363D01*
X17121956Y-13364880D01*
X17124166Y-13362996D01*
X17125995Y-13360728D01*
X17127311Y-13358108D01*
X17128023Y-13355042D01*
X17128089Y-13352202D01*
X17127554Y-13349879D01*
X17126488Y-13347839D01*
X17125014Y-13346191D01*
X17123175Y-13344902D01*
X17120940Y-13343924D01*
X17118511Y-13343304D01*
X17115889Y-13343021D01*
X17101898Y-13342967D01*
X17097527Y-13368266D01*
X17087586Y-13368266D01*
X17093482Y-13334330D01*
X17115835Y-13334384D01*
G37*
G36*
X17183232Y-13354069D02*
G01*
X17186641Y-13354968D01*
X17189543Y-13356327D01*
X17193328Y-13359216D01*
X17196210Y-13362858D01*
X17198238Y-13367126D01*
X17199488Y-13372066D01*
X17199926Y-13377271D01*
X17199600Y-13382695D01*
X17198887Y-13387229D01*
X17158177Y-13387229D01*
X17158019Y-13390812D01*
X17158421Y-13394282D01*
X17159383Y-13397574D01*
X17160854Y-13400457D01*
X17162880Y-13402919D01*
X17165499Y-13404882D01*
X17168594Y-13406161D01*
X17172382Y-13406685D01*
X17177355Y-13406257D01*
X17181864Y-13404668D01*
X17185983Y-13402135D01*
X17189709Y-13398869D01*
X17195390Y-13403681D01*
X17193194Y-13406355D01*
X17190661Y-13408683D01*
X17187853Y-13410656D01*
X17184843Y-13412259D01*
X17181662Y-13413494D01*
X17178337Y-13414364D01*
X17174936Y-13414864D01*
X17171508Y-13414994D01*
X17167559Y-13414654D01*
X17164056Y-13413824D01*
X17160932Y-13412532D01*
X17156749Y-13409781D01*
X17153419Y-13406304D01*
X17150904Y-13402165D01*
X17149184Y-13397345D01*
X17148348Y-13392165D01*
X17148393Y-13386574D01*
X17148666Y-13384224D01*
X17149304Y-13380378D01*
X17149703Y-13378924D01*
X17159379Y-13378924D01*
X17190197Y-13379032D01*
X17190417Y-13378050D01*
X17190650Y-13375068D01*
X17190363Y-13372203D01*
X17189562Y-13369491D01*
X17188287Y-13367123D01*
X17186544Y-13365098D01*
X17184350Y-13363488D01*
X17181794Y-13362428D01*
X17178723Y-13361984D01*
X17175036Y-13362232D01*
X17171835Y-13363268D01*
X17168947Y-13364955D01*
X17166398Y-13367123D01*
X17164194Y-13369685D01*
X17162275Y-13372642D01*
X17159379Y-13378924D01*
X17149703Y-13378924D01*
X17150356Y-13376550D01*
X17151801Y-13372836D01*
X17153610Y-13369306D01*
X17155774Y-13365994D01*
X17158255Y-13362965D01*
X17161062Y-13360263D01*
X17164156Y-13357968D01*
X17167535Y-13356107D01*
X17171205Y-13354715D01*
X17175079Y-13353885D01*
X17179216Y-13353674D01*
X17183232Y-13354069D01*
G37*
G36*
X17233633Y-13386413D02*
G01*
X17224723Y-13393896D01*
X17221284Y-13413900D01*
X17211334Y-13413900D01*
X17225925Y-13329959D01*
X17235875Y-13329959D01*
X17227019Y-13380781D01*
X17234288Y-13374059D01*
X17256260Y-13354769D01*
X17269156Y-13354769D01*
X17241063Y-13379906D01*
X17261614Y-13413900D01*
X17249866Y-13413900D01*
X17233633Y-13386413D01*
G37*
G36*
X17314016Y-13354042D02*
G01*
X17318000Y-13355047D01*
X17321634Y-13356685D01*
X17324638Y-13358896D01*
X17327052Y-13361700D01*
X17328820Y-13365100D01*
X17329751Y-13368928D01*
X17329748Y-13373512D01*
X17325156Y-13401004D01*
X17324638Y-13407017D01*
X17324797Y-13410004D01*
X17325322Y-13412972D01*
X17325215Y-13413900D01*
X17315210Y-13413900D01*
X17314776Y-13410676D01*
X17314937Y-13407452D01*
X17310870Y-13410565D01*
X17306496Y-13412972D01*
X17301783Y-13414495D01*
X17296633Y-13414940D01*
X17292995Y-13414592D01*
X17289609Y-13413680D01*
X17286495Y-13412218D01*
X17283869Y-13410295D01*
X17281718Y-13407887D01*
X17280098Y-13404995D01*
X17279160Y-13401739D01*
X17279017Y-13398737D01*
X17288986Y-13398737D01*
X17289365Y-13400623D01*
X17290149Y-13402293D01*
X17291275Y-13403656D01*
X17292706Y-13404730D01*
X17294445Y-13405542D01*
X17296364Y-13406040D01*
X17298543Y-13406250D01*
X17301978Y-13406031D01*
X17305221Y-13405241D01*
X17308323Y-13403871D01*
X17312493Y-13400967D01*
X17315924Y-13397233D01*
X17318053Y-13385211D01*
X17309583Y-13385153D01*
X17303159Y-13385538D01*
X17299824Y-13386130D01*
X17296741Y-13387121D01*
X17293940Y-13388592D01*
X17291602Y-13390565D01*
X17289923Y-13393096D01*
X17289032Y-13396466D01*
X17288986Y-13398737D01*
X17279017Y-13398737D01*
X17278979Y-13397941D01*
X17279495Y-13394264D01*
X17280538Y-13391166D01*
X17282085Y-13388383D01*
X17284006Y-13386002D01*
X17286293Y-13383968D01*
X17288925Y-13382261D01*
X17291791Y-13380877D01*
X17294855Y-13379774D01*
X17301357Y-13378407D01*
X17308000Y-13377996D01*
X17319255Y-13378050D01*
X17319968Y-13373351D01*
X17320023Y-13370658D01*
X17319558Y-13368432D01*
X17318613Y-13366453D01*
X17317286Y-13364827D01*
X17315609Y-13363542D01*
X17313545Y-13362584D01*
X17311256Y-13362003D01*
X17308655Y-13361764D01*
X17304034Y-13362257D01*
X17301849Y-13362960D01*
X17299882Y-13363952D01*
X17298129Y-13365255D01*
X17296628Y-13366878D01*
X17295483Y-13368792D01*
X17294718Y-13371109D01*
X17284827Y-13371162D01*
X17285815Y-13366929D01*
X17287723Y-13363376D01*
X17290401Y-13360354D01*
X17293649Y-13357885D01*
X17297325Y-13355986D01*
X17301381Y-13354632D01*
X17305586Y-13353842D01*
X17309637Y-13353621D01*
X17314016Y-13354042D01*
G37*
G36*
X17383891Y-13397834D02*
G01*
X17383841Y-13395474D01*
X17383076Y-13393681D01*
X17381757Y-13392203D01*
X17380042Y-13391005D01*
X17375915Y-13389339D01*
X17371870Y-13388269D01*
X17365041Y-13386247D01*
X17361614Y-13384856D01*
X17358534Y-13383135D01*
X17355854Y-13380972D01*
X17353752Y-13378353D01*
X17352442Y-13375256D01*
X17352086Y-13371382D01*
X17352458Y-13368475D01*
X17353317Y-13365892D01*
X17354609Y-13363525D01*
X17356238Y-13361412D01*
X17358178Y-13359553D01*
X17360420Y-13357939D01*
X17365446Y-13355506D01*
X17370859Y-13354085D01*
X17376296Y-13353674D01*
X17380390Y-13354062D01*
X17384302Y-13354989D01*
X17387951Y-13356489D01*
X17391053Y-13358515D01*
X17393642Y-13361100D01*
X17395644Y-13364250D01*
X17396883Y-13367859D01*
X17397281Y-13372203D01*
X17387501Y-13372149D01*
X17387258Y-13369793D01*
X17386568Y-13367831D01*
X17385468Y-13366116D01*
X17384028Y-13364690D01*
X17382308Y-13363571D01*
X17380311Y-13362751D01*
X17378173Y-13362244D01*
X17375915Y-13362037D01*
X17371406Y-13362477D01*
X17369151Y-13363114D01*
X17367063Y-13364035D01*
X17365186Y-13365268D01*
X17363619Y-13366820D01*
X17362483Y-13368697D01*
X17361871Y-13371001D01*
X17361918Y-13373300D01*
X17362662Y-13375016D01*
X17363942Y-13376409D01*
X17365583Y-13377503D01*
X17369550Y-13378978D01*
X17373511Y-13379906D01*
X17378152Y-13381166D01*
X17382856Y-13382862D01*
X17387199Y-13385128D01*
X17389120Y-13386534D01*
X17390725Y-13388132D01*
X17392030Y-13389970D01*
X17393021Y-13392094D01*
X17393602Y-13394423D01*
X17393730Y-13397120D01*
X17392943Y-13401614D01*
X17391106Y-13405322D01*
X17388402Y-13408440D01*
X17385093Y-13410920D01*
X17381328Y-13412780D01*
X17377116Y-13414090D01*
X17372759Y-13414826D01*
X17368592Y-13414994D01*
X17364282Y-13414638D01*
X17360146Y-13413685D01*
X17356274Y-13412117D01*
X17352907Y-13409992D01*
X17350061Y-13407278D01*
X17347851Y-13403984D01*
X17346483Y-13400193D01*
X17346078Y-13395645D01*
X17355911Y-13395704D01*
X17356228Y-13398414D01*
X17357005Y-13400623D01*
X17358232Y-13402526D01*
X17359794Y-13404037D01*
X17361667Y-13405199D01*
X17363893Y-13406060D01*
X17366297Y-13406565D01*
X17368919Y-13406739D01*
X17373565Y-13406363D01*
X17375964Y-13405777D01*
X17378206Y-13404912D01*
X17380243Y-13403711D01*
X17381952Y-13402152D01*
X17383204Y-13400226D01*
X17383891Y-13397834D01*
G37*
G36*
X17420225Y-13354769D02*
G01*
X17449622Y-13354769D01*
X17440878Y-13405156D01*
X17459626Y-13405156D01*
X17458039Y-13413900D01*
X17409947Y-13413900D01*
X17411535Y-13405156D01*
X17430986Y-13405156D01*
X17438201Y-13363566D01*
X17418691Y-13363566D01*
X17420225Y-13354769D01*
G37*
G36*
X17441152Y-13339411D02*
G01*
X17441616Y-13336986D01*
X17442847Y-13335068D01*
X17444706Y-13333762D01*
X17447111Y-13333236D01*
X17449485Y-13333622D01*
X17451346Y-13334824D01*
X17452548Y-13336680D01*
X17452958Y-13339083D01*
X17452534Y-13341490D01*
X17451317Y-13343319D01*
X17449471Y-13344541D01*
X17447058Y-13345043D01*
X17444680Y-13344723D01*
X17442818Y-13343592D01*
X17441584Y-13341806D01*
X17441152Y-13339411D01*
G37*
G36*
X17552287Y-13393081D02*
G01*
X17551955Y-13400618D01*
X17554964Y-13391933D01*
X17570483Y-13354769D01*
X17576878Y-13354769D01*
X17579447Y-13393134D01*
X17579335Y-13401551D01*
X17582231Y-13392915D01*
X17595293Y-13354769D01*
X17604257Y-13354769D01*
X17581797Y-13413900D01*
X17574035Y-13413900D01*
X17571304Y-13377122D01*
X17571465Y-13368705D01*
X17568300Y-13378216D01*
X17553376Y-13413900D01*
X17545566Y-13413900D01*
X17543597Y-13354769D01*
X17552121Y-13354769D01*
X17552287Y-13393081D01*
G37*
G36*
X17617417Y-13354769D02*
G01*
X17646814Y-13354769D01*
X17638070Y-13405156D01*
X17656818Y-13405156D01*
X17655231Y-13413900D01*
X17607139Y-13413900D01*
X17608727Y-13405156D01*
X17628178Y-13405156D01*
X17635393Y-13363566D01*
X17615883Y-13363566D01*
X17617417Y-13354769D01*
G37*
G36*
X17638344Y-13339411D02*
G01*
X17638808Y-13336986D01*
X17640039Y-13335068D01*
X17641898Y-13333762D01*
X17644303Y-13333236D01*
X17646677Y-13333622D01*
X17648538Y-13334824D01*
X17649740Y-13336680D01*
X17650150Y-13339083D01*
X17649726Y-13341490D01*
X17648509Y-13343319D01*
X17646662Y-13344541D01*
X17644249Y-13345043D01*
X17641872Y-13344723D01*
X17640009Y-13343592D01*
X17638775Y-13341806D01*
X17638344Y-13339411D01*
G37*
G36*
X17707411Y-13340451D02*
G01*
X17704895Y-13354769D01*
X17726755Y-13354769D01*
X17725387Y-13362584D01*
X17703527Y-13362584D01*
X17698173Y-13394771D01*
X17698198Y-13399255D01*
X17698669Y-13401230D01*
X17699429Y-13402860D01*
X17700544Y-13404227D01*
X17702081Y-13405322D01*
X17703944Y-13406013D01*
X17706424Y-13406304D01*
X17709423Y-13406249D01*
X17712408Y-13405869D01*
X17718338Y-13404663D01*
X17719266Y-13411931D01*
X17715670Y-13413506D01*
X17711617Y-13414447D01*
X17707446Y-13414873D01*
X17703527Y-13414940D01*
X17699329Y-13414453D01*
X17696039Y-13413216D01*
X17693267Y-13411264D01*
X17691125Y-13408790D01*
X17689578Y-13405853D01*
X17688584Y-13402396D01*
X17688169Y-13398703D01*
X17688282Y-13394717D01*
X17693640Y-13362584D01*
X17678556Y-13362584D01*
X17679919Y-13354769D01*
X17694949Y-13354769D01*
X17697465Y-13340451D01*
X17707411Y-13340451D01*
G37*
G36*
X17755214Y-13363620D02*
G01*
X17759122Y-13359580D01*
X17763601Y-13356410D01*
X17766044Y-13355241D01*
X17768628Y-13354358D01*
X17771332Y-13353822D01*
X17774236Y-13353674D01*
X17778989Y-13354271D01*
X17782647Y-13355702D01*
X17785696Y-13357940D01*
X17788006Y-13360782D01*
X17789628Y-13364141D01*
X17790629Y-13368080D01*
X17790996Y-13372252D01*
X17790790Y-13376682D01*
X17784562Y-13413900D01*
X17774670Y-13413900D01*
X17780957Y-13376521D01*
X17781119Y-13373669D01*
X17780952Y-13371084D01*
X17780395Y-13368658D01*
X17779423Y-13366600D01*
X17778005Y-13364874D01*
X17776116Y-13363542D01*
X17773839Y-13362697D01*
X17770792Y-13362311D01*
X17768319Y-13362431D01*
X17766009Y-13362887D01*
X17761691Y-13364690D01*
X17757808Y-13367450D01*
X17754452Y-13370889D01*
X17746963Y-13413900D01*
X17737072Y-13413900D01*
X17751663Y-13329959D01*
X17761554Y-13329959D01*
X17755214Y-13363620D01*
G37*
D12*
X14312290Y-7928908D02*
X14307528Y-7933670D01*
X14307528Y-7933670D02*
X14293243Y-7938432D01*
X14293243Y-7938432D02*
X14283719Y-7938432D01*
X14283719Y-7938432D02*
X14269433Y-7933670D01*
X14269433Y-7933670D02*
X14259909Y-7924146D01*
X14259909Y-7924146D02*
X14255148Y-7914622D01*
X14255148Y-7914622D02*
X14250386Y-7895575D01*
X14250386Y-7895575D02*
X14250386Y-7881289D01*
X14250386Y-7881289D02*
X14255148Y-7862241D01*
X14255148Y-7862241D02*
X14259909Y-7852718D01*
X14259909Y-7852718D02*
X14269433Y-7843194D01*
X14269433Y-7843194D02*
X14283719Y-7838432D01*
X14283719Y-7838432D02*
X14293243Y-7838432D01*
X14293243Y-7838432D02*
X14307528Y-7843194D01*
X14307528Y-7843194D02*
X14312290Y-7847956D01*
X14374195Y-7838432D02*
X14393243Y-7838432D01*
X14393243Y-7838432D02*
X14402767Y-7843194D01*
X14402767Y-7843194D02*
X14412290Y-7852718D01*
X14412290Y-7852718D02*
X14417052Y-7871765D01*
X14417052Y-7871765D02*
X14417052Y-7905098D01*
X14417052Y-7905098D02*
X14412290Y-7924146D01*
X14412290Y-7924146D02*
X14402767Y-7933670D01*
X14402767Y-7933670D02*
X14393243Y-7938432D01*
X14393243Y-7938432D02*
X14374195Y-7938432D01*
X14374195Y-7938432D02*
X14364671Y-7933670D01*
X14364671Y-7933670D02*
X14355148Y-7924146D01*
X14355148Y-7924146D02*
X14350386Y-7905098D01*
X14350386Y-7905098D02*
X14350386Y-7871765D01*
X14350386Y-7871765D02*
X14355148Y-7852718D01*
X14355148Y-7852718D02*
X14364671Y-7843194D01*
X14364671Y-7843194D02*
X14374195Y-7838432D01*
X14459909Y-7938432D02*
X14459909Y-7838432D01*
X14459909Y-7838432D02*
X14517052Y-7938432D01*
X14517052Y-7938432D02*
X14517052Y-7838432D01*
X14564671Y-7938432D02*
X14564671Y-7838432D01*
X14564671Y-7838432D02*
X14621814Y-7938432D01*
X14621814Y-7938432D02*
X14621814Y-7838432D01*
X14721814Y-7938432D02*
X14664671Y-7938432D01*
X14693243Y-7938432D02*
X14693243Y-7838432D01*
X14693243Y-7838432D02*
X14683719Y-7852718D01*
X14683719Y-7852718D02*
X14674195Y-7862241D01*
X14674195Y-7862241D02*
X14664671Y-7867003D01*
X14172333Y-9045482D02*
X14139000Y-8997863D01*
X14115190Y-9045482D02*
X14115190Y-8945482D01*
X14115190Y-8945482D02*
X14153286Y-8945482D01*
X14153286Y-8945482D02*
X14162809Y-8950244D01*
X14162809Y-8950244D02*
X14167571Y-8955006D01*
X14167571Y-8955006D02*
X14172333Y-8964530D01*
X14172333Y-8964530D02*
X14172333Y-8978815D01*
X14172333Y-8978815D02*
X14167571Y-8988339D01*
X14167571Y-8988339D02*
X14162809Y-8993101D01*
X14162809Y-8993101D02*
X14153286Y-8997863D01*
X14153286Y-8997863D02*
X14115190Y-8997863D01*
X14262809Y-8945482D02*
X14215190Y-8945482D01*
X14215190Y-8945482D02*
X14210429Y-8993101D01*
X14210429Y-8993101D02*
X14215190Y-8988339D01*
X14215190Y-8988339D02*
X14224714Y-8983577D01*
X14224714Y-8983577D02*
X14248524Y-8983577D01*
X14248524Y-8983577D02*
X14258048Y-8988339D01*
X14258048Y-8988339D02*
X14262809Y-8993101D01*
X14262809Y-8993101D02*
X14267571Y-9002625D01*
X14267571Y-9002625D02*
X14267571Y-9026434D01*
X14267571Y-9026434D02*
X14262809Y-9035958D01*
X14262809Y-9035958D02*
X14258048Y-9040720D01*
X14258048Y-9040720D02*
X14248524Y-9045482D01*
X14248524Y-9045482D02*
X14224714Y-9045482D01*
X14224714Y-9045482D02*
X14215190Y-9040720D01*
X14215190Y-9040720D02*
X14210429Y-9035958D01*
X10886482Y-11815667D02*
X10838863Y-11849000D01*
X10886482Y-11872809D02*
X10786482Y-11872809D01*
X10786482Y-11872809D02*
X10786482Y-11834714D01*
X10786482Y-11834714D02*
X10791244Y-11825190D01*
X10791244Y-11825190D02*
X10796006Y-11820428D01*
X10796006Y-11820428D02*
X10805530Y-11815667D01*
X10805530Y-11815667D02*
X10819815Y-11815667D01*
X10819815Y-11815667D02*
X10829339Y-11820428D01*
X10829339Y-11820428D02*
X10834101Y-11825190D01*
X10834101Y-11825190D02*
X10838863Y-11834714D01*
X10838863Y-11834714D02*
X10838863Y-11872809D01*
X10786482Y-11782333D02*
X10786482Y-11720428D01*
X10786482Y-11720428D02*
X10824577Y-11753762D01*
X10824577Y-11753762D02*
X10824577Y-11739476D01*
X10824577Y-11739476D02*
X10829339Y-11729952D01*
X10829339Y-11729952D02*
X10834101Y-11725190D01*
X10834101Y-11725190D02*
X10843625Y-11720428D01*
X10843625Y-11720428D02*
X10867434Y-11720428D01*
X10867434Y-11720428D02*
X10876958Y-11725190D01*
X10876958Y-11725190D02*
X10881720Y-11729952D01*
X10881720Y-11729952D02*
X10886482Y-11739476D01*
X10886482Y-11739476D02*
X10886482Y-11768047D01*
X10886482Y-11768047D02*
X10881720Y-11777571D01*
X10881720Y-11777571D02*
X10876958Y-11782333D01*
X10886482Y-10715667D02*
X10838863Y-10749000D01*
X10886482Y-10772809D02*
X10786482Y-10772809D01*
X10786482Y-10772809D02*
X10786482Y-10734714D01*
X10786482Y-10734714D02*
X10791244Y-10725190D01*
X10791244Y-10725190D02*
X10796006Y-10720429D01*
X10796006Y-10720429D02*
X10805530Y-10715667D01*
X10805530Y-10715667D02*
X10819815Y-10715667D01*
X10819815Y-10715667D02*
X10829339Y-10720429D01*
X10829339Y-10720429D02*
X10834101Y-10725190D01*
X10834101Y-10725190D02*
X10838863Y-10734714D01*
X10838863Y-10734714D02*
X10838863Y-10772809D01*
X10796006Y-10677571D02*
X10791244Y-10672809D01*
X10791244Y-10672809D02*
X10786482Y-10663286D01*
X10786482Y-10663286D02*
X10786482Y-10639476D01*
X10786482Y-10639476D02*
X10791244Y-10629952D01*
X10791244Y-10629952D02*
X10796006Y-10625190D01*
X10796006Y-10625190D02*
X10805530Y-10620429D01*
X10805530Y-10620429D02*
X10815053Y-10620429D01*
X10815053Y-10620429D02*
X10829339Y-10625190D01*
X10829339Y-10625190D02*
X10886482Y-10682333D01*
X10886482Y-10682333D02*
X10886482Y-10620429D01*
X14174333Y-8645482D02*
X14141000Y-8597863D01*
X14117190Y-8645482D02*
X14117190Y-8545482D01*
X14117190Y-8545482D02*
X14155286Y-8545482D01*
X14155286Y-8545482D02*
X14164809Y-8550244D01*
X14164809Y-8550244D02*
X14169571Y-8555006D01*
X14169571Y-8555006D02*
X14174333Y-8564530D01*
X14174333Y-8564530D02*
X14174333Y-8578815D01*
X14174333Y-8578815D02*
X14169571Y-8588339D01*
X14169571Y-8588339D02*
X14164809Y-8593101D01*
X14164809Y-8593101D02*
X14155286Y-8597863D01*
X14155286Y-8597863D02*
X14117190Y-8597863D01*
X14269571Y-8645482D02*
X14212429Y-8645482D01*
X14241000Y-8645482D02*
X14241000Y-8545482D01*
X14241000Y-8545482D02*
X14231476Y-8559768D01*
X14231476Y-8559768D02*
X14221952Y-8569291D01*
X14221952Y-8569291D02*
X14212429Y-8574053D01*
X13562058Y-9642117D02*
X13566820Y-9646879D01*
X13566820Y-9646879D02*
X13571582Y-9661164D01*
X13571582Y-9661164D02*
X13571582Y-9670688D01*
X13571582Y-9670688D02*
X13566820Y-9684974D01*
X13566820Y-9684974D02*
X13557296Y-9694498D01*
X13557296Y-9694498D02*
X13547772Y-9699259D01*
X13547772Y-9699259D02*
X13528725Y-9704021D01*
X13528725Y-9704021D02*
X13514439Y-9704021D01*
X13514439Y-9704021D02*
X13495391Y-9699259D01*
X13495391Y-9699259D02*
X13485868Y-9694498D01*
X13485868Y-9694498D02*
X13476344Y-9684974D01*
X13476344Y-9684974D02*
X13471582Y-9670688D01*
X13471582Y-9670688D02*
X13471582Y-9661164D01*
X13471582Y-9661164D02*
X13476344Y-9646879D01*
X13476344Y-9646879D02*
X13481106Y-9642117D01*
X13504915Y-9556402D02*
X13571582Y-9556402D01*
X13466820Y-9580212D02*
X13538248Y-9604021D01*
X13538248Y-9604021D02*
X13538248Y-9542117D01*
X15736482Y-11365667D02*
X15688863Y-11399000D01*
X15736482Y-11422809D02*
X15636482Y-11422809D01*
X15636482Y-11422809D02*
X15636482Y-11384714D01*
X15636482Y-11384714D02*
X15641244Y-11375190D01*
X15641244Y-11375190D02*
X15646006Y-11370428D01*
X15646006Y-11370428D02*
X15655529Y-11365667D01*
X15655529Y-11365667D02*
X15669815Y-11365667D01*
X15669815Y-11365667D02*
X15679339Y-11370428D01*
X15679339Y-11370428D02*
X15684101Y-11375190D01*
X15684101Y-11375190D02*
X15688863Y-11384714D01*
X15688863Y-11384714D02*
X15688863Y-11422809D01*
X15669815Y-11279952D02*
X15736482Y-11279952D01*
X15631720Y-11303762D02*
X15703148Y-11327571D01*
X15703148Y-11327571D02*
X15703148Y-11265667D01*
X15735482Y-10253809D02*
X15635482Y-10253809D01*
X15635482Y-10253809D02*
X15635482Y-10230000D01*
X15635482Y-10230000D02*
X15640244Y-10215714D01*
X15640244Y-10215714D02*
X15649768Y-10206190D01*
X15649768Y-10206190D02*
X15659291Y-10201429D01*
X15659291Y-10201429D02*
X15678339Y-10196667D01*
X15678339Y-10196667D02*
X15692625Y-10196667D01*
X15692625Y-10196667D02*
X15711672Y-10201429D01*
X15711672Y-10201429D02*
X15721196Y-10206190D01*
X15721196Y-10206190D02*
X15730720Y-10215714D01*
X15730720Y-10215714D02*
X15735482Y-10230000D01*
X15735482Y-10230000D02*
X15735482Y-10253809D01*
X15735482Y-10101429D02*
X15735482Y-10158571D01*
X15735482Y-10130000D02*
X15635482Y-10130000D01*
X15635482Y-10130000D02*
X15649768Y-10139524D01*
X15649768Y-10139524D02*
X15659291Y-10149048D01*
X15659291Y-10149048D02*
X15664053Y-10158571D01*
X15510482Y-9661190D02*
X15410482Y-9661190D01*
X15510482Y-9604048D02*
X15453339Y-9646905D01*
X15410482Y-9604048D02*
X15467625Y-9661190D01*
X16677695Y-8495932D02*
X16644362Y-8448313D01*
X16620552Y-8495932D02*
X16620552Y-8395932D01*
X16620552Y-8395932D02*
X16658648Y-8395932D01*
X16658648Y-8395932D02*
X16668171Y-8400694D01*
X16668171Y-8400694D02*
X16672933Y-8405456D01*
X16672933Y-8405456D02*
X16677695Y-8414980D01*
X16677695Y-8414980D02*
X16677695Y-8429265D01*
X16677695Y-8429265D02*
X16672933Y-8438789D01*
X16672933Y-8438789D02*
X16668171Y-8443551D01*
X16668171Y-8443551D02*
X16658648Y-8448313D01*
X16658648Y-8448313D02*
X16620552Y-8448313D01*
X16720552Y-8443551D02*
X16753886Y-8443551D01*
X16768171Y-8495932D02*
X16720552Y-8495932D01*
X16720552Y-8495932D02*
X16720552Y-8395932D01*
X16720552Y-8395932D02*
X16768171Y-8395932D01*
X16863410Y-8400694D02*
X16853886Y-8395932D01*
X16853886Y-8395932D02*
X16839600Y-8395932D01*
X16839600Y-8395932D02*
X16825314Y-8400694D01*
X16825314Y-8400694D02*
X16815791Y-8410218D01*
X16815791Y-8410218D02*
X16811029Y-8419741D01*
X16811029Y-8419741D02*
X16806267Y-8438789D01*
X16806267Y-8438789D02*
X16806267Y-8453075D01*
X16806267Y-8453075D02*
X16811029Y-8472122D01*
X16811029Y-8472122D02*
X16815791Y-8481646D01*
X16815791Y-8481646D02*
X16825314Y-8491170D01*
X16825314Y-8491170D02*
X16839600Y-8495932D01*
X16839600Y-8495932D02*
X16849124Y-8495932D01*
X16849124Y-8495932D02*
X16863410Y-8491170D01*
X16863410Y-8491170D02*
X16868171Y-8486408D01*
X16868171Y-8486408D02*
X16868171Y-8453075D01*
X16868171Y-8453075D02*
X16849124Y-8453075D01*
X16963410Y-8495932D02*
X16906267Y-8495932D01*
X16934838Y-8495932D02*
X16934838Y-8395932D01*
X16934838Y-8395932D02*
X16925314Y-8410218D01*
X16925314Y-8410218D02*
X16915791Y-8419741D01*
X16915791Y-8419741D02*
X16906267Y-8424503D01*
D13*
X14049909Y-11996192D02*
X14049909Y-12077144D01*
X14049909Y-12077144D02*
X14054671Y-12086668D01*
X14054671Y-12086668D02*
X14059433Y-12091430D01*
X14059433Y-12091430D02*
X14068957Y-12096192D01*
X14068957Y-12096192D02*
X14088005Y-12096192D01*
X14088005Y-12096192D02*
X14097528Y-12091430D01*
X14097528Y-12091430D02*
X14102290Y-12086668D01*
X14102290Y-12086668D02*
X14107052Y-12077144D01*
X14107052Y-12077144D02*
X14107052Y-11996192D01*
X14197528Y-12029525D02*
X14197528Y-12096192D01*
X14173719Y-11991430D02*
X14149909Y-12062858D01*
X14149909Y-12062858D02*
X14211814Y-12062858D01*
D12*
X15937058Y-12242117D02*
X15941820Y-12246878D01*
X15941820Y-12246878D02*
X15946582Y-12261164D01*
X15946582Y-12261164D02*
X15946582Y-12270688D01*
X15946582Y-12270688D02*
X15941820Y-12284974D01*
X15941820Y-12284974D02*
X15932296Y-12294497D01*
X15932296Y-12294497D02*
X15922772Y-12299259D01*
X15922772Y-12299259D02*
X15903725Y-12304021D01*
X15903725Y-12304021D02*
X15889439Y-12304021D01*
X15889439Y-12304021D02*
X15870391Y-12299259D01*
X15870391Y-12299259D02*
X15860868Y-12294497D01*
X15860868Y-12294497D02*
X15851344Y-12284974D01*
X15851344Y-12284974D02*
X15846582Y-12270688D01*
X15846582Y-12270688D02*
X15846582Y-12261164D01*
X15846582Y-12261164D02*
X15851344Y-12246878D01*
X15851344Y-12246878D02*
X15856106Y-12242117D01*
X15846582Y-12208783D02*
X15846582Y-12146878D01*
X15846582Y-12146878D02*
X15884677Y-12180212D01*
X15884677Y-12180212D02*
X15884677Y-12165926D01*
X15884677Y-12165926D02*
X15889439Y-12156402D01*
X15889439Y-12156402D02*
X15894201Y-12151640D01*
X15894201Y-12151640D02*
X15903725Y-12146878D01*
X15903725Y-12146878D02*
X15927534Y-12146878D01*
X15927534Y-12146878D02*
X15937058Y-12151640D01*
X15937058Y-12151640D02*
X15941820Y-12156402D01*
X15941820Y-12156402D02*
X15946582Y-12165926D01*
X15946582Y-12165926D02*
X15946582Y-12194497D01*
X15946582Y-12194497D02*
X15941820Y-12204021D01*
X15941820Y-12204021D02*
X15937058Y-12208783D01*
X12164809Y-8913482D02*
X12164809Y-8994434D01*
X12164809Y-8994434D02*
X12169571Y-9003958D01*
X12169571Y-9003958D02*
X12174333Y-9008720D01*
X12174333Y-9008720D02*
X12183857Y-9013482D01*
X12183857Y-9013482D02*
X12202905Y-9013482D01*
X12202905Y-9013482D02*
X12212428Y-9008720D01*
X12212428Y-9008720D02*
X12217190Y-9003958D01*
X12217190Y-9003958D02*
X12221952Y-8994434D01*
X12221952Y-8994434D02*
X12221952Y-8913482D01*
X12321952Y-9013482D02*
X12264809Y-9013482D01*
X12293381Y-9013482D02*
X12293381Y-8913482D01*
X12293381Y-8913482D02*
X12283857Y-8927768D01*
X12283857Y-8927768D02*
X12274333Y-8937291D01*
X12274333Y-8937291D02*
X12264809Y-8942053D01*
X18245758Y-8914705D02*
X18250520Y-8919467D01*
X18250520Y-8919467D02*
X18255282Y-8933753D01*
X18255282Y-8933753D02*
X18255282Y-8943277D01*
X18255282Y-8943277D02*
X18250520Y-8957562D01*
X18250520Y-8957562D02*
X18240996Y-8967086D01*
X18240996Y-8967086D02*
X18231472Y-8971848D01*
X18231472Y-8971848D02*
X18212425Y-8976610D01*
X18212425Y-8976610D02*
X18198139Y-8976610D01*
X18198139Y-8976610D02*
X18179091Y-8971848D01*
X18179091Y-8971848D02*
X18169568Y-8967086D01*
X18169568Y-8967086D02*
X18160044Y-8957562D01*
X18160044Y-8957562D02*
X18155282Y-8943277D01*
X18155282Y-8943277D02*
X18155282Y-8933753D01*
X18155282Y-8933753D02*
X18160044Y-8919467D01*
X18160044Y-8919467D02*
X18164806Y-8914705D01*
X18164806Y-8876610D02*
X18160044Y-8871848D01*
X18160044Y-8871848D02*
X18155282Y-8862324D01*
X18155282Y-8862324D02*
X18155282Y-8838515D01*
X18155282Y-8838515D02*
X18160044Y-8828991D01*
X18160044Y-8828991D02*
X18164806Y-8824229D01*
X18164806Y-8824229D02*
X18174330Y-8819467D01*
X18174330Y-8819467D02*
X18183853Y-8819467D01*
X18183853Y-8819467D02*
X18198139Y-8824229D01*
X18198139Y-8824229D02*
X18255282Y-8881372D01*
X18255282Y-8881372D02*
X18255282Y-8819467D01*
X15013958Y-8864667D02*
X15018720Y-8869429D01*
X15018720Y-8869429D02*
X15023482Y-8883714D01*
X15023482Y-8883714D02*
X15023482Y-8893238D01*
X15023482Y-8893238D02*
X15018720Y-8907524D01*
X15018720Y-8907524D02*
X15009196Y-8917048D01*
X15009196Y-8917048D02*
X14999672Y-8921809D01*
X14999672Y-8921809D02*
X14980625Y-8926571D01*
X14980625Y-8926571D02*
X14966339Y-8926571D01*
X14966339Y-8926571D02*
X14947291Y-8921809D01*
X14947291Y-8921809D02*
X14937768Y-8917048D01*
X14937768Y-8917048D02*
X14928244Y-8907524D01*
X14928244Y-8907524D02*
X14923482Y-8893238D01*
X14923482Y-8893238D02*
X14923482Y-8883714D01*
X14923482Y-8883714D02*
X14928244Y-8869429D01*
X14928244Y-8869429D02*
X14933006Y-8864667D01*
X15023482Y-8769429D02*
X15023482Y-8826571D01*
X15023482Y-8798000D02*
X14923482Y-8798000D01*
X14923482Y-8798000D02*
X14937768Y-8807524D01*
X14937768Y-8807524D02*
X14947291Y-8817048D01*
X14947291Y-8817048D02*
X14952053Y-8826571D01*
X15940582Y-12991259D02*
X15840582Y-12991259D01*
X15840582Y-12991259D02*
X15840582Y-12967450D01*
X15840582Y-12967450D02*
X15845344Y-12953164D01*
X15845344Y-12953164D02*
X15854868Y-12943640D01*
X15854868Y-12943640D02*
X15864391Y-12938878D01*
X15864391Y-12938878D02*
X15883439Y-12934117D01*
X15883439Y-12934117D02*
X15897725Y-12934117D01*
X15897725Y-12934117D02*
X15916772Y-12938878D01*
X15916772Y-12938878D02*
X15926296Y-12943640D01*
X15926296Y-12943640D02*
X15935820Y-12953164D01*
X15935820Y-12953164D02*
X15940582Y-12967450D01*
X15940582Y-12967450D02*
X15940582Y-12991259D01*
X15850106Y-12896021D02*
X15845344Y-12891259D01*
X15845344Y-12891259D02*
X15840582Y-12881736D01*
X15840582Y-12881736D02*
X15840582Y-12857926D01*
X15840582Y-12857926D02*
X15845344Y-12848402D01*
X15845344Y-12848402D02*
X15850106Y-12843640D01*
X15850106Y-12843640D02*
X15859629Y-12838878D01*
X15859629Y-12838878D02*
X15869153Y-12838878D01*
X15869153Y-12838878D02*
X15883439Y-12843640D01*
X15883439Y-12843640D02*
X15940582Y-12900783D01*
X15940582Y-12900783D02*
X15940582Y-12838878D01*
X17080810Y-10932482D02*
X17080810Y-11013434D01*
X17080810Y-11013434D02*
X17085571Y-11022958D01*
X17085571Y-11022958D02*
X17090333Y-11027720D01*
X17090333Y-11027720D02*
X17099857Y-11032482D01*
X17099857Y-11032482D02*
X17118905Y-11032482D01*
X17118905Y-11032482D02*
X17128429Y-11027720D01*
X17128429Y-11027720D02*
X17133190Y-11022958D01*
X17133190Y-11022958D02*
X17137952Y-11013434D01*
X17137952Y-11013434D02*
X17137952Y-10932482D01*
X17180810Y-10942006D02*
X17185571Y-10937244D01*
X17185571Y-10937244D02*
X17195095Y-10932482D01*
X17195095Y-10932482D02*
X17218905Y-10932482D01*
X17218905Y-10932482D02*
X17228429Y-10937244D01*
X17228429Y-10937244D02*
X17233190Y-10942006D01*
X17233190Y-10942006D02*
X17237952Y-10951530D01*
X17237952Y-10951530D02*
X17237952Y-10961053D01*
X17237952Y-10961053D02*
X17233190Y-10975339D01*
X17233190Y-10975339D02*
X17176048Y-11032482D01*
X17176048Y-11032482D02*
X17237952Y-11032482D01*
X13562058Y-12842117D02*
X13566820Y-12846878D01*
X13566820Y-12846878D02*
X13571582Y-12861164D01*
X13571582Y-12861164D02*
X13571582Y-12870688D01*
X13571582Y-12870688D02*
X13566820Y-12884974D01*
X13566820Y-12884974D02*
X13557296Y-12894497D01*
X13557296Y-12894497D02*
X13547772Y-12899259D01*
X13547772Y-12899259D02*
X13528725Y-12904021D01*
X13528725Y-12904021D02*
X13514439Y-12904021D01*
X13514439Y-12904021D02*
X13495391Y-12899259D01*
X13495391Y-12899259D02*
X13485868Y-12894497D01*
X13485868Y-12894497D02*
X13476344Y-12884974D01*
X13476344Y-12884974D02*
X13471582Y-12870688D01*
X13471582Y-12870688D02*
X13471582Y-12861164D01*
X13471582Y-12861164D02*
X13476344Y-12846878D01*
X13476344Y-12846878D02*
X13481106Y-12842117D01*
X13471582Y-12751640D02*
X13471582Y-12799259D01*
X13471582Y-12799259D02*
X13519201Y-12804021D01*
X13519201Y-12804021D02*
X13514439Y-12799259D01*
X13514439Y-12799259D02*
X13509677Y-12789736D01*
X13509677Y-12789736D02*
X13509677Y-12765926D01*
X13509677Y-12765926D02*
X13514439Y-12756402D01*
X13514439Y-12756402D02*
X13519201Y-12751640D01*
X13519201Y-12751640D02*
X13528725Y-12746878D01*
X13528725Y-12746878D02*
X13552534Y-12746878D01*
X13552534Y-12746878D02*
X13562058Y-12751640D01*
X13562058Y-12751640D02*
X13566820Y-12756402D01*
X13566820Y-12756402D02*
X13571582Y-12765926D01*
X13571582Y-12765926D02*
X13571582Y-12789736D01*
X13571582Y-12789736D02*
X13566820Y-12799259D01*
X13566820Y-12799259D02*
X13562058Y-12804021D01*
X10866820Y-8833783D02*
X10871582Y-8819498D01*
X10871582Y-8819498D02*
X10871582Y-8795688D01*
X10871582Y-8795688D02*
X10866820Y-8786164D01*
X10866820Y-8786164D02*
X10862058Y-8781402D01*
X10862058Y-8781402D02*
X10852534Y-8776640D01*
X10852534Y-8776640D02*
X10843010Y-8776640D01*
X10843010Y-8776640D02*
X10833487Y-8781402D01*
X10833487Y-8781402D02*
X10828725Y-8786164D01*
X10828725Y-8786164D02*
X10823963Y-8795688D01*
X10823963Y-8795688D02*
X10819201Y-8814736D01*
X10819201Y-8814736D02*
X10814439Y-8824259D01*
X10814439Y-8824259D02*
X10809677Y-8829021D01*
X10809677Y-8829021D02*
X10800153Y-8833783D01*
X10800153Y-8833783D02*
X10790630Y-8833783D01*
X10790630Y-8833783D02*
X10781106Y-8829021D01*
X10781106Y-8829021D02*
X10776344Y-8824259D01*
X10776344Y-8824259D02*
X10771582Y-8814736D01*
X10771582Y-8814736D02*
X10771582Y-8790926D01*
X10771582Y-8790926D02*
X10776344Y-8776640D01*
X10771582Y-8743307D02*
X10871582Y-8719498D01*
X10871582Y-8719498D02*
X10800153Y-8700450D01*
X10800153Y-8700450D02*
X10871582Y-8681402D01*
X10871582Y-8681402D02*
X10771582Y-8657593D01*
X10871582Y-8567117D02*
X10871582Y-8624259D01*
X10871582Y-8595688D02*
X10771582Y-8595688D01*
X10771582Y-8595688D02*
X10785868Y-8605212D01*
X10785868Y-8605212D02*
X10795391Y-8614736D01*
X10795391Y-8614736D02*
X10800153Y-8624259D01*
X14885409Y-9387732D02*
X14885409Y-9468684D01*
X14885409Y-9468684D02*
X14890171Y-9478208D01*
X14890171Y-9478208D02*
X14894933Y-9482970D01*
X14894933Y-9482970D02*
X14904457Y-9487732D01*
X14904457Y-9487732D02*
X14923505Y-9487732D01*
X14923505Y-9487732D02*
X14933028Y-9482970D01*
X14933028Y-9482970D02*
X14937790Y-9478208D01*
X14937790Y-9478208D02*
X14942552Y-9468684D01*
X14942552Y-9468684D02*
X14942552Y-9387732D01*
X14980648Y-9387732D02*
X15042552Y-9387732D01*
X15042552Y-9387732D02*
X15009219Y-9425827D01*
X15009219Y-9425827D02*
X15023505Y-9425827D01*
X15023505Y-9425827D02*
X15033028Y-9430589D01*
X15033028Y-9430589D02*
X15037790Y-9435351D01*
X15037790Y-9435351D02*
X15042552Y-9444875D01*
X15042552Y-9444875D02*
X15042552Y-9468684D01*
X15042552Y-9468684D02*
X15037790Y-9478208D01*
X15037790Y-9478208D02*
X15033028Y-9482970D01*
X15033028Y-9482970D02*
X15023505Y-9487732D01*
X15023505Y-9487732D02*
X14994933Y-9487732D01*
X14994933Y-9487732D02*
X14985409Y-9482970D01*
X14985409Y-9482970D02*
X14980648Y-9478208D01*
X13993857Y-9478480D02*
X13948143Y-9478480D01*
X13971000Y-9478480D02*
X13971000Y-9398480D01*
X13971000Y-9398480D02*
X13963381Y-9409908D01*
X13963381Y-9409908D02*
X13955762Y-9417527D01*
X13955762Y-9417527D02*
X13948143Y-9421337D01*
D14*
%TO.C,CONN1*%
X13576100Y-7662950D02*
X13576100Y-7787950D01*
X13605100Y-7691950D02*
X13605100Y-8288950D01*
X13605100Y-8288950D02*
X15367100Y-8288950D01*
X13606100Y-7692950D02*
X13606100Y-7767950D01*
X13606100Y-7767950D02*
X13786100Y-7767950D01*
X13606100Y-7917950D02*
X13681100Y-7917950D01*
X13681100Y-7917950D02*
X13681100Y-8212950D01*
X13681100Y-8212950D02*
X14486100Y-8212950D01*
X13701100Y-7662950D02*
X13576100Y-7662950D01*
X13786100Y-7692950D02*
X13606100Y-7692950D01*
X13786100Y-7767950D02*
X13786100Y-7692950D01*
X13936100Y-7692950D02*
X13936100Y-7767950D01*
X13936100Y-7767950D02*
X15036100Y-7767950D01*
X15036100Y-7692950D02*
X13936100Y-7692950D01*
X15036100Y-7767950D02*
X15036100Y-7692950D01*
X15186100Y-7692950D02*
X15186100Y-7767950D01*
X15186100Y-7767950D02*
X15366100Y-7767950D01*
X15291100Y-7917950D02*
X15291100Y-8212950D01*
X15291100Y-8212950D02*
X14486100Y-8212950D01*
X15366100Y-7692950D02*
X15186100Y-7692950D01*
X15366100Y-7767950D02*
X15366100Y-7692950D01*
X15366100Y-7917950D02*
X15291100Y-7917950D01*
X15367100Y-7691950D02*
X13605100Y-7691950D01*
X15367100Y-8288950D02*
X15367100Y-7691950D01*
%TO.C,R5*%
X14516000Y-9137000D02*
X13862000Y-9137000D01*
X14516000Y-9104000D02*
X14516000Y-9137000D01*
X14516000Y-8896000D02*
X14516000Y-8863000D01*
X14516000Y-8863000D02*
X13862000Y-8863000D01*
X13862000Y-9137000D02*
X13862000Y-9104000D01*
X13862000Y-8863000D02*
X13862000Y-8896000D01*
%TO.C,R3*%
X10978000Y-11472000D02*
X10978000Y-12126000D01*
X10945000Y-11472000D02*
X10978000Y-11472000D01*
X10737000Y-11472000D02*
X10704000Y-11472000D01*
X10704000Y-11472000D02*
X10704000Y-12126000D01*
X10978000Y-12126000D02*
X10945000Y-12126000D01*
X10704000Y-12126000D02*
X10737000Y-12126000D01*
%TO.C,R2*%
X10978000Y-10372000D02*
X10978000Y-11026000D01*
X10945000Y-10372000D02*
X10978000Y-10372000D01*
X10737000Y-10372000D02*
X10704000Y-10372000D01*
X10704000Y-10372000D02*
X10704000Y-11026000D01*
X10978000Y-11026000D02*
X10945000Y-11026000D01*
X10704000Y-11026000D02*
X10737000Y-11026000D01*
%TO.C,R1*%
X14518000Y-8737000D02*
X13864000Y-8737000D01*
X14518000Y-8704000D02*
X14518000Y-8737000D01*
X14518000Y-8496000D02*
X14518000Y-8463000D01*
X14518000Y-8463000D02*
X13864000Y-8463000D01*
X13864000Y-8737000D02*
X13864000Y-8704000D01*
X13864000Y-8463000D02*
X13864000Y-8496000D01*
%TO.C,C4*%
X13421600Y-9857450D02*
X13421600Y-9403450D01*
X13427200Y-9857450D02*
X13421600Y-9857450D01*
X13630000Y-9403450D02*
X13635600Y-9403450D01*
X13635600Y-9403450D02*
X13635600Y-9857450D01*
%TO.C,R4*%
X15554000Y-11022000D02*
X15554000Y-11676000D01*
X15554000Y-11676000D02*
X15587000Y-11676000D01*
X15587000Y-11022000D02*
X15554000Y-11022000D01*
X15795000Y-11022000D02*
X15828000Y-11022000D01*
X15828000Y-11022000D02*
X15828000Y-11676000D01*
X15828000Y-11676000D02*
X15795000Y-11676000D01*
%TO.C,D1*%
X15690000Y-9764000D02*
X15690000Y-9866000D01*
X15690000Y-10512000D02*
X15690000Y-10410000D01*
X15837000Y-9944000D02*
X15543000Y-9944000D01*
X15837000Y-9956000D02*
X15543000Y-9956000D01*
X15837000Y-9968000D02*
X15543000Y-9968000D01*
X15837000Y-9866000D02*
X15543000Y-9866000D01*
X15543000Y-10410000D01*
X15837000Y-10410000D01*
X15837000Y-9866000D01*
D12*
%TO.C,REG1*%
X15621200Y-7612250D02*
X17831000Y-7612250D01*
X15621200Y-8628250D02*
X15976800Y-8628250D01*
X15621200Y-9288650D02*
X15621200Y-7612250D01*
X15976800Y-7612250D02*
X15976800Y-8272650D01*
X15976800Y-8272650D02*
X15621200Y-8272650D01*
X15976800Y-8628250D02*
X15976800Y-9288650D01*
X16078400Y-7688450D02*
X16078400Y-7917050D01*
X16078400Y-7917050D02*
X16281600Y-7790050D01*
X16230800Y-8933050D02*
X17170600Y-8933050D01*
X16281600Y-7688450D02*
X16281600Y-7917050D01*
X16281600Y-7790050D02*
X16078400Y-7688450D01*
X17170600Y-8933050D02*
X16942000Y-8755250D01*
X17170600Y-8933050D02*
X16942000Y-9110850D01*
X17310300Y-7751950D02*
X17411900Y-7751950D01*
X17310300Y-9136250D02*
X17411900Y-9136250D01*
X17361100Y-9085450D02*
X17361100Y-9187050D01*
X17475400Y-8272650D02*
X17475400Y-7612250D01*
X17475400Y-8628250D02*
X17831000Y-8628250D01*
X17476100Y-9290450D02*
X17475362Y-8628250D01*
X17577000Y-8399650D02*
X17729400Y-8399650D01*
X17577000Y-8501250D02*
X17653200Y-8501250D01*
X17653200Y-8272650D02*
X17653200Y-8399650D01*
X17653200Y-8399650D02*
X17577000Y-8399650D01*
X17653200Y-8501250D02*
X17653200Y-8628250D01*
X17729400Y-8501250D02*
X17577000Y-8501250D01*
X17831000Y-7612250D02*
X17831000Y-9288650D01*
X17831000Y-8272650D02*
X17475400Y-8272650D01*
X17831000Y-9288650D02*
X15621200Y-9288650D01*
X17417896Y-7751950D02*
G75*
G02*
X17304304Y-7751950I-56796J0D01*
G01*
X17304304Y-7751950D02*
G75*
G02*
X17417896Y-7751950I56796J0D01*
G01*
X17417896Y-9136250D02*
G75*
G02*
X17304304Y-9136250I-56796J0D01*
G01*
X17304304Y-9136250D02*
G75*
G02*
X17417896Y-9136250I56796J0D01*
G01*
%TO.C,U4*%
D13*
X13679000Y-13203000D02*
X15203000Y-13203000D01*
X15203000Y-11933000D01*
X13679000Y-11933000D01*
X13679000Y-13203000D01*
D14*
%TO.C,C3*%
X15437000Y-12174000D02*
X15284100Y-12174000D01*
X15437000Y-12178000D02*
X15284500Y-12178000D01*
X15437000Y-12182000D02*
X15285000Y-12182000D01*
X15437000Y-12186000D02*
X15285500Y-12186000D01*
X15437000Y-12190000D02*
X15286100Y-12190000D01*
X15437000Y-12194000D02*
X15286700Y-12194000D01*
X15437000Y-12198000D02*
X15287400Y-12198000D01*
X15437000Y-12202000D02*
X15288200Y-12202000D01*
X15437000Y-12206000D02*
X15289100Y-12206000D01*
X15437000Y-12210000D02*
X15290000Y-12210000D01*
X15437000Y-12214000D02*
X15290900Y-12214000D01*
X15437000Y-12218000D02*
X15292000Y-12218000D01*
X15437000Y-12222000D02*
X15293100Y-12222000D01*
X15437000Y-12226000D02*
X15294300Y-12226000D01*
X15437000Y-12230000D02*
X15295500Y-12230000D01*
X15437000Y-12234000D02*
X15296800Y-12234000D01*
X15437000Y-12238000D02*
X15298200Y-12238000D01*
X15437000Y-12242000D02*
X15299700Y-12242000D01*
X15437000Y-12246000D02*
X15301200Y-12246000D01*
X15437000Y-12250000D02*
X15302800Y-12250000D01*
X15437000Y-12254000D02*
X15304500Y-12254000D01*
X15437000Y-12258000D02*
X15306300Y-12258000D01*
X15437000Y-12262000D02*
X15308100Y-12262000D01*
X15437000Y-12266000D02*
X15310100Y-12266000D01*
X15437000Y-12270000D02*
X15312100Y-12270000D01*
X15437000Y-12274000D02*
X15314200Y-12274000D01*
X15437000Y-12278000D02*
X15316400Y-12278000D01*
X15437000Y-12282000D02*
X15318700Y-12282000D01*
X15437000Y-12286000D02*
X15321100Y-12286000D01*
X15437000Y-12290000D02*
X15323500Y-12290000D01*
X15437000Y-12294000D02*
X15326100Y-12294000D01*
X15437000Y-12298000D02*
X15328800Y-12298000D01*
X15437000Y-12302000D02*
X15331600Y-12302000D01*
X15437000Y-12306000D02*
X15334500Y-12306000D01*
X15437000Y-12310000D02*
X15337500Y-12310000D01*
X15437000Y-12314000D02*
X15340700Y-12314000D01*
X15437000Y-12318000D02*
X15344000Y-12318000D01*
X15437000Y-12322000D02*
X15347400Y-12322000D01*
X15437000Y-12326000D02*
X15350900Y-12326000D01*
X15437000Y-12330000D02*
X15354600Y-12330000D01*
X15437000Y-12334000D02*
X15358500Y-12334000D01*
X15437000Y-12338000D02*
X15362500Y-12338000D01*
X15437000Y-12342000D02*
X15366700Y-12342000D01*
X15437000Y-12346000D02*
X15371100Y-12346000D01*
X15437000Y-12350000D02*
X15375800Y-12350000D01*
X15437000Y-12354000D02*
X15380600Y-12354000D01*
X15437000Y-12358000D02*
X15385700Y-12358000D01*
X15437000Y-12362000D02*
X15391100Y-12362000D01*
X15437000Y-12366000D02*
X15396700Y-12366000D01*
X15437000Y-12370000D02*
X15402700Y-12370000D01*
X15437000Y-12374000D02*
X15409100Y-12374000D01*
X15437000Y-12378000D02*
X15415900Y-12378000D01*
X15569300Y-12410000D02*
X15512700Y-12410000D01*
X15592700Y-12406000D02*
X15489300Y-12406000D01*
X15608700Y-12402000D02*
X15473300Y-12402000D01*
X15621500Y-12398000D02*
X15460500Y-12398000D01*
X15632400Y-12394000D02*
X15449600Y-12394000D01*
X15642100Y-12390000D02*
X15439900Y-12390000D01*
X15650800Y-12386000D02*
X15431200Y-12386000D01*
X15658700Y-12382000D02*
X15423300Y-12382000D01*
X15666100Y-12378000D02*
X15645000Y-12378000D01*
X15672900Y-12374000D02*
X15645000Y-12374000D01*
X15679300Y-12370000D02*
X15645000Y-12370000D01*
X15685300Y-12366000D02*
X15645000Y-12366000D01*
X15688500Y-11869522D02*
X15688500Y-11919522D01*
X15690900Y-12362000D02*
X15645000Y-12362000D01*
X15696300Y-12358000D02*
X15645000Y-12358000D01*
X15701400Y-12354000D02*
X15645000Y-12354000D01*
X15706200Y-12350000D02*
X15645000Y-12350000D01*
X15710900Y-12346000D02*
X15645000Y-12346000D01*
X15713500Y-11894522D02*
X15663500Y-11894522D01*
X15715300Y-12342000D02*
X15645000Y-12342000D01*
X15719500Y-12338000D02*
X15645000Y-12338000D01*
X15723500Y-12334000D02*
X15645000Y-12334000D01*
X15727400Y-12330000D02*
X15645000Y-12330000D01*
X15731100Y-12326000D02*
X15645000Y-12326000D01*
X15734600Y-12322000D02*
X15645000Y-12322000D01*
X15738000Y-12318000D02*
X15645000Y-12318000D01*
X15741300Y-12314000D02*
X15645000Y-12314000D01*
X15744500Y-12310000D02*
X15645000Y-12310000D01*
X15747500Y-12306000D02*
X15645000Y-12306000D01*
X15750400Y-12302000D02*
X15645000Y-12302000D01*
X15753200Y-12298000D02*
X15645000Y-12298000D01*
X15755900Y-12294000D02*
X15645000Y-12294000D01*
X15758500Y-12290000D02*
X15645000Y-12290000D01*
X15760900Y-12286000D02*
X15645000Y-12286000D01*
X15763300Y-12282000D02*
X15645000Y-12282000D01*
X15765600Y-12278000D02*
X15645000Y-12278000D01*
X15767800Y-12274000D02*
X15645000Y-12274000D01*
X15769900Y-12270000D02*
X15645000Y-12270000D01*
X15771900Y-12266000D02*
X15645000Y-12266000D01*
X15773900Y-12262000D02*
X15645000Y-12262000D01*
X15775700Y-12258000D02*
X15645000Y-12258000D01*
X15777500Y-12254000D02*
X15645000Y-12254000D01*
X15779200Y-12250000D02*
X15645000Y-12250000D01*
X15780800Y-12246000D02*
X15645000Y-12246000D01*
X15782300Y-12242000D02*
X15645000Y-12242000D01*
X15783800Y-12238000D02*
X15645000Y-12238000D01*
X15785200Y-12234000D02*
X15645000Y-12234000D01*
X15786500Y-12230000D02*
X15645000Y-12230000D01*
X15787700Y-12226000D02*
X15645000Y-12226000D01*
X15788900Y-12222000D02*
X15645000Y-12222000D01*
X15790000Y-12218000D02*
X15645000Y-12218000D01*
X15791100Y-12214000D02*
X15645000Y-12214000D01*
X15792000Y-12210000D02*
X15645000Y-12210000D01*
X15792900Y-12206000D02*
X15645000Y-12206000D01*
X15793800Y-12202000D02*
X15645000Y-12202000D01*
X15794600Y-12198000D02*
X15645000Y-12198000D01*
X15795300Y-12194000D02*
X15645000Y-12194000D01*
X15795900Y-12190000D02*
X15645000Y-12190000D01*
X15796500Y-12186000D02*
X15645000Y-12186000D01*
X15797000Y-12182000D02*
X15645000Y-12182000D01*
X15797500Y-12178000D02*
X15645000Y-12178000D01*
X15797900Y-12174000D02*
X15645000Y-12174000D01*
X15798200Y-12170000D02*
X15283800Y-12170000D01*
X15798500Y-12166000D02*
X15283500Y-12166000D01*
X15798700Y-12162000D02*
X15283300Y-12162000D01*
X15798900Y-12158000D02*
X15283100Y-12158000D01*
X15799000Y-12150000D02*
X15283000Y-12150000D01*
X15799000Y-12154000D02*
X15283000Y-12154000D01*
X15803000Y-12150000D02*
G75*
G02*
X15279000Y-12150000I-262000J0D01*
G01*
X15279000Y-12150000D02*
G75*
G02*
X15803000Y-12150000I262000J0D01*
G01*
%TO.C,U1*%
X11091500Y-7776500D02*
X13366500Y-7776500D01*
X11091500Y-13091500D02*
X11091500Y-7776500D01*
X11334000Y-7888000D02*
X11467000Y-7888000D01*
X11334000Y-8021000D02*
X11334000Y-7888000D01*
X11334000Y-8148000D02*
X11600000Y-8148000D01*
X11334000Y-12980000D02*
X11334000Y-8148000D01*
X11600000Y-8148000D02*
X11600000Y-12980000D01*
X11600000Y-12980000D02*
X11334000Y-12980000D01*
X12864000Y-7894000D02*
X13118000Y-7894000D01*
X12864000Y-12974000D02*
X12864000Y-7894000D01*
X13118000Y-7894000D02*
X13118000Y-12974000D01*
X13118000Y-12974000D02*
X12864000Y-12974000D01*
X13366500Y-7776500D02*
X13366500Y-13091500D01*
X13366500Y-13091500D02*
X11091500Y-13091500D01*
%TO.C,C2*%
X17952000Y-8521000D02*
X18468000Y-8521000D01*
X17952000Y-8525000D02*
X18468000Y-8525000D01*
X17952100Y-8517000D02*
X18467900Y-8517000D01*
X17952300Y-8513000D02*
X18467700Y-8513000D01*
X17952500Y-8509000D02*
X18467500Y-8509000D01*
X17952800Y-8505000D02*
X18467200Y-8505000D01*
X17953100Y-8501000D02*
X18106000Y-8501000D01*
X17953500Y-8497000D02*
X18106000Y-8497000D01*
X17954000Y-8493000D02*
X18106000Y-8493000D01*
X17954500Y-8489000D02*
X18106000Y-8489000D01*
X17955100Y-8485000D02*
X18106000Y-8485000D01*
X17955700Y-8481000D02*
X18106000Y-8481000D01*
X17956400Y-8477000D02*
X18106000Y-8477000D01*
X17957200Y-8473000D02*
X18106000Y-8473000D01*
X17958100Y-8469000D02*
X18106000Y-8469000D01*
X17959000Y-8465000D02*
X18106000Y-8465000D01*
X17959900Y-8461000D02*
X18106000Y-8461000D01*
X17961000Y-8457000D02*
X18106000Y-8457000D01*
X17962100Y-8453000D02*
X18106000Y-8453000D01*
X17963300Y-8449000D02*
X18106000Y-8449000D01*
X17964500Y-8445000D02*
X18106000Y-8445000D01*
X17965800Y-8441000D02*
X18106000Y-8441000D01*
X17967200Y-8437000D02*
X18106000Y-8437000D01*
X17968700Y-8433000D02*
X18106000Y-8433000D01*
X17970200Y-8429000D02*
X18106000Y-8429000D01*
X17971800Y-8425000D02*
X18106000Y-8425000D01*
X17973500Y-8421000D02*
X18106000Y-8421000D01*
X17975300Y-8417000D02*
X18106000Y-8417000D01*
X17977100Y-8413000D02*
X18106000Y-8413000D01*
X17979100Y-8409000D02*
X18106000Y-8409000D01*
X17981100Y-8405000D02*
X18106000Y-8405000D01*
X17983200Y-8401000D02*
X18106000Y-8401000D01*
X17985400Y-8397000D02*
X18106000Y-8397000D01*
X17987700Y-8393000D02*
X18106000Y-8393000D01*
X17990100Y-8389000D02*
X18106000Y-8389000D01*
X17992500Y-8385000D02*
X18106000Y-8385000D01*
X17995100Y-8381000D02*
X18106000Y-8381000D01*
X17997800Y-8377000D02*
X18106000Y-8377000D01*
X18000600Y-8373000D02*
X18106000Y-8373000D01*
X18003500Y-8369000D02*
X18106000Y-8369000D01*
X18006500Y-8365000D02*
X18106000Y-8365000D01*
X18009700Y-8361000D02*
X18106000Y-8361000D01*
X18013000Y-8357000D02*
X18106000Y-8357000D01*
X18016400Y-8353000D02*
X18106000Y-8353000D01*
X18019900Y-8349000D02*
X18106000Y-8349000D01*
X18023600Y-8345000D02*
X18106000Y-8345000D01*
X18027500Y-8341000D02*
X18106000Y-8341000D01*
X18031500Y-8337000D02*
X18106000Y-8337000D01*
X18035700Y-8333000D02*
X18106000Y-8333000D01*
X18037500Y-8780478D02*
X18087500Y-8780478D01*
X18040100Y-8329000D02*
X18106000Y-8329000D01*
X18044800Y-8325000D02*
X18106000Y-8325000D01*
X18049600Y-8321000D02*
X18106000Y-8321000D01*
X18054700Y-8317000D02*
X18106000Y-8317000D01*
X18060100Y-8313000D02*
X18106000Y-8313000D01*
X18062500Y-8805478D02*
X18062500Y-8755478D01*
X18065700Y-8309000D02*
X18106000Y-8309000D01*
X18071700Y-8305000D02*
X18106000Y-8305000D01*
X18078100Y-8301000D02*
X18106000Y-8301000D01*
X18084900Y-8297000D02*
X18106000Y-8297000D01*
X18092300Y-8293000D02*
X18327700Y-8293000D01*
X18100200Y-8289000D02*
X18319800Y-8289000D01*
X18108900Y-8285000D02*
X18311100Y-8285000D01*
X18118600Y-8281000D02*
X18301400Y-8281000D01*
X18129500Y-8277000D02*
X18290500Y-8277000D01*
X18142300Y-8273000D02*
X18277700Y-8273000D01*
X18158300Y-8269000D02*
X18261700Y-8269000D01*
X18181700Y-8265000D02*
X18238300Y-8265000D01*
X18314000Y-8297000D02*
X18335100Y-8297000D01*
X18314000Y-8301000D02*
X18341900Y-8301000D01*
X18314000Y-8305000D02*
X18348300Y-8305000D01*
X18314000Y-8309000D02*
X18354300Y-8309000D01*
X18314000Y-8313000D02*
X18359900Y-8313000D01*
X18314000Y-8317000D02*
X18365300Y-8317000D01*
X18314000Y-8321000D02*
X18370400Y-8321000D01*
X18314000Y-8325000D02*
X18375200Y-8325000D01*
X18314000Y-8329000D02*
X18379900Y-8329000D01*
X18314000Y-8333000D02*
X18384300Y-8333000D01*
X18314000Y-8337000D02*
X18388500Y-8337000D01*
X18314000Y-8341000D02*
X18392500Y-8341000D01*
X18314000Y-8345000D02*
X18396400Y-8345000D01*
X18314000Y-8349000D02*
X18400100Y-8349000D01*
X18314000Y-8353000D02*
X18403600Y-8353000D01*
X18314000Y-8357000D02*
X18407000Y-8357000D01*
X18314000Y-8361000D02*
X18410300Y-8361000D01*
X18314000Y-8365000D02*
X18413500Y-8365000D01*
X18314000Y-8369000D02*
X18416500Y-8369000D01*
X18314000Y-8373000D02*
X18419400Y-8373000D01*
X18314000Y-8377000D02*
X18422200Y-8377000D01*
X18314000Y-8381000D02*
X18424900Y-8381000D01*
X18314000Y-8385000D02*
X18427500Y-8385000D01*
X18314000Y-8389000D02*
X18429900Y-8389000D01*
X18314000Y-8393000D02*
X18432300Y-8393000D01*
X18314000Y-8397000D02*
X18434600Y-8397000D01*
X18314000Y-8401000D02*
X18436800Y-8401000D01*
X18314000Y-8405000D02*
X18438900Y-8405000D01*
X18314000Y-8409000D02*
X18440900Y-8409000D01*
X18314000Y-8413000D02*
X18442900Y-8413000D01*
X18314000Y-8417000D02*
X18444700Y-8417000D01*
X18314000Y-8421000D02*
X18446500Y-8421000D01*
X18314000Y-8425000D02*
X18448200Y-8425000D01*
X18314000Y-8429000D02*
X18449800Y-8429000D01*
X18314000Y-8433000D02*
X18451300Y-8433000D01*
X18314000Y-8437000D02*
X18452800Y-8437000D01*
X18314000Y-8441000D02*
X18454200Y-8441000D01*
X18314000Y-8445000D02*
X18455500Y-8445000D01*
X18314000Y-8449000D02*
X18456700Y-8449000D01*
X18314000Y-8453000D02*
X18457900Y-8453000D01*
X18314000Y-8457000D02*
X18459000Y-8457000D01*
X18314000Y-8461000D02*
X18460100Y-8461000D01*
X18314000Y-8465000D02*
X18461000Y-8465000D01*
X18314000Y-8469000D02*
X18461900Y-8469000D01*
X18314000Y-8473000D02*
X18462800Y-8473000D01*
X18314000Y-8477000D02*
X18463600Y-8477000D01*
X18314000Y-8481000D02*
X18464300Y-8481000D01*
X18314000Y-8485000D02*
X18464900Y-8485000D01*
X18314000Y-8489000D02*
X18465500Y-8489000D01*
X18314000Y-8493000D02*
X18466000Y-8493000D01*
X18314000Y-8497000D02*
X18466500Y-8497000D01*
X18314000Y-8501000D02*
X18466900Y-8501000D01*
X18472000Y-8525000D02*
G75*
G02*
X17948000Y-8525000I-262000J0D01*
G01*
X17948000Y-8525000D02*
G75*
G02*
X18472000Y-8525000I262000J0D01*
G01*
%TO.C,C1*%
X14818000Y-8721000D02*
X15464000Y-8721000D01*
X14818000Y-8725000D02*
X15464000Y-8725000D01*
X14818100Y-8717000D02*
X15463900Y-8717000D01*
X14818200Y-8713000D02*
X15463800Y-8713000D01*
X14818400Y-8709000D02*
X15463600Y-8709000D01*
X14818600Y-8705000D02*
X15463400Y-8705000D01*
X14818900Y-8701000D02*
X15037000Y-8701000D01*
X14819200Y-8697000D02*
X15037000Y-8697000D01*
X14819600Y-8693000D02*
X15037000Y-8693000D01*
X14820000Y-8689000D02*
X15037000Y-8689000D01*
X14820500Y-8685000D02*
X15037000Y-8685000D01*
X14821000Y-8681000D02*
X15037000Y-8681000D01*
X14821500Y-8677000D02*
X15037000Y-8677000D01*
X14822200Y-8673000D02*
X15037000Y-8673000D01*
X14822800Y-8669000D02*
X15037000Y-8669000D01*
X14823600Y-8665000D02*
X15037000Y-8665000D01*
X14824300Y-8661000D02*
X15037000Y-8661000D01*
X14825100Y-8657000D02*
X15037000Y-8657000D01*
X14826000Y-8653000D02*
X15037000Y-8653000D01*
X14827000Y-8649000D02*
X15037000Y-8649000D01*
X14827900Y-8645000D02*
X15037000Y-8645000D01*
X14829000Y-8641000D02*
X15037000Y-8641000D01*
X14830100Y-8637000D02*
X15037000Y-8637000D01*
X14831200Y-8633000D02*
X15037000Y-8633000D01*
X14832400Y-8629000D02*
X15037000Y-8629000D01*
X14833700Y-8625000D02*
X15037000Y-8625000D01*
X14835000Y-8621000D02*
X15037000Y-8621000D01*
X14836300Y-8617000D02*
X15037000Y-8617000D01*
X14837800Y-8613000D02*
X15037000Y-8613000D01*
X14839300Y-8609000D02*
X15037000Y-8609000D01*
X14840800Y-8605000D02*
X15037000Y-8605000D01*
X14842400Y-8601000D02*
X15037000Y-8601000D01*
X14844100Y-8597000D02*
X15037000Y-8597000D01*
X14845800Y-8593000D02*
X15037000Y-8593000D01*
X14847600Y-8589000D02*
X15037000Y-8589000D01*
X14849500Y-8585000D02*
X15037000Y-8585000D01*
X14851400Y-8581000D02*
X15037000Y-8581000D01*
X14853400Y-8577000D02*
X15037000Y-8577000D01*
X14855500Y-8573000D02*
X15037000Y-8573000D01*
X14857600Y-8569000D02*
X15037000Y-8569000D01*
X14859800Y-8565000D02*
X15037000Y-8565000D01*
X14862100Y-8561000D02*
X15037000Y-8561000D01*
X14864500Y-8557000D02*
X15037000Y-8557000D01*
X14866900Y-8553000D02*
X15037000Y-8553000D01*
X14869400Y-8549000D02*
X15037000Y-8549000D01*
X14872000Y-8545000D02*
X15037000Y-8545000D01*
X14874700Y-8541000D02*
X15037000Y-8541000D01*
X14877400Y-8537000D02*
X15037000Y-8537000D01*
X14880300Y-8533000D02*
X15037000Y-8533000D01*
X14883300Y-8529000D02*
X15037000Y-8529000D01*
X14886300Y-8525000D02*
X15037000Y-8525000D01*
X14889400Y-8521000D02*
X15037000Y-8521000D01*
X14892700Y-8517000D02*
X15037000Y-8517000D01*
X14896000Y-8513000D02*
X15037000Y-8513000D01*
X14899500Y-8509000D02*
X15037000Y-8509000D01*
X14903100Y-8505000D02*
X15037000Y-8505000D01*
X14906800Y-8501000D02*
X15037000Y-8501000D01*
X14910600Y-8497000D02*
X15037000Y-8497000D01*
X14914600Y-8493000D02*
X15367400Y-8493000D01*
X14918700Y-8489000D02*
X15363300Y-8489000D01*
X14922900Y-8485000D02*
X15359100Y-8485000D01*
X14925600Y-9043524D02*
X14988600Y-9043524D01*
X14927300Y-8481000D02*
X15354700Y-8481000D01*
X14931900Y-8477000D02*
X15350100Y-8477000D01*
X14936600Y-8473000D02*
X15345400Y-8473000D01*
X14941500Y-8469000D02*
X15340500Y-8469000D01*
X14946700Y-8465000D02*
X15335300Y-8465000D01*
X14952000Y-8461000D02*
X15330000Y-8461000D01*
X14957100Y-9075024D02*
X14957100Y-9012024D01*
X14957600Y-8457000D02*
X15324400Y-8457000D01*
X14963500Y-8453000D02*
X15318500Y-8453000D01*
X14969600Y-8449000D02*
X15312400Y-8449000D01*
X14976100Y-8445000D02*
X15305900Y-8445000D01*
X14982900Y-8441000D02*
X15299100Y-8441000D01*
X14990100Y-8437000D02*
X15291900Y-8437000D01*
X14997800Y-8433000D02*
X15284200Y-8433000D01*
X15006000Y-8429000D02*
X15276000Y-8429000D01*
X15014900Y-8425000D02*
X15267100Y-8425000D01*
X15024500Y-8421000D02*
X15257500Y-8421000D01*
X15035200Y-8417000D02*
X15246800Y-8417000D01*
X15047100Y-8413000D02*
X15234900Y-8413000D01*
X15060900Y-8409000D02*
X15221100Y-8409000D01*
X15077700Y-8405000D02*
X15204300Y-8405000D01*
X15100800Y-8401000D02*
X15181200Y-8401000D01*
X15245000Y-8497000D02*
X15371400Y-8497000D01*
X15245000Y-8501000D02*
X15375200Y-8501000D01*
X15245000Y-8505000D02*
X15378900Y-8505000D01*
X15245000Y-8509000D02*
X15382500Y-8509000D01*
X15245000Y-8513000D02*
X15386000Y-8513000D01*
X15245000Y-8517000D02*
X15389300Y-8517000D01*
X15245000Y-8521000D02*
X15392600Y-8521000D01*
X15245000Y-8525000D02*
X15395700Y-8525000D01*
X15245000Y-8529000D02*
X15398700Y-8529000D01*
X15245000Y-8533000D02*
X15401700Y-8533000D01*
X15245000Y-8537000D02*
X15404600Y-8537000D01*
X15245000Y-8541000D02*
X15407300Y-8541000D01*
X15245000Y-8545000D02*
X15410000Y-8545000D01*
X15245000Y-8549000D02*
X15412600Y-8549000D01*
X15245000Y-8553000D02*
X15415100Y-8553000D01*
X15245000Y-8557000D02*
X15417500Y-8557000D01*
X15245000Y-8561000D02*
X15419900Y-8561000D01*
X15245000Y-8565000D02*
X15422200Y-8565000D01*
X15245000Y-8569000D02*
X15424400Y-8569000D01*
X15245000Y-8573000D02*
X15426500Y-8573000D01*
X15245000Y-8577000D02*
X15428600Y-8577000D01*
X15245000Y-8581000D02*
X15430600Y-8581000D01*
X15245000Y-8585000D02*
X15432500Y-8585000D01*
X15245000Y-8589000D02*
X15434400Y-8589000D01*
X15245000Y-8593000D02*
X15436200Y-8593000D01*
X15245000Y-8597000D02*
X15437900Y-8597000D01*
X15245000Y-8601000D02*
X15439600Y-8601000D01*
X15245000Y-8605000D02*
X15441200Y-8605000D01*
X15245000Y-8609000D02*
X15442700Y-8609000D01*
X15245000Y-8613000D02*
X15444200Y-8613000D01*
X15245000Y-8617000D02*
X15445700Y-8617000D01*
X15245000Y-8621000D02*
X15447000Y-8621000D01*
X15245000Y-8625000D02*
X15448300Y-8625000D01*
X15245000Y-8629000D02*
X15449600Y-8629000D01*
X15245000Y-8633000D02*
X15450800Y-8633000D01*
X15245000Y-8637000D02*
X15451900Y-8637000D01*
X15245000Y-8641000D02*
X15453000Y-8641000D01*
X15245000Y-8645000D02*
X15454100Y-8645000D01*
X15245000Y-8649000D02*
X15455000Y-8649000D01*
X15245000Y-8653000D02*
X15456000Y-8653000D01*
X15245000Y-8657000D02*
X15456900Y-8657000D01*
X15245000Y-8661000D02*
X15457700Y-8661000D01*
X15245000Y-8665000D02*
X15458400Y-8665000D01*
X15245000Y-8669000D02*
X15459200Y-8669000D01*
X15245000Y-8673000D02*
X15459800Y-8673000D01*
X15245000Y-8677000D02*
X15460500Y-8677000D01*
X15245000Y-8681000D02*
X15461000Y-8681000D01*
X15245000Y-8685000D02*
X15461500Y-8685000D01*
X15245000Y-8689000D02*
X15462000Y-8689000D01*
X15245000Y-8693000D02*
X15462400Y-8693000D01*
X15245000Y-8697000D02*
X15462800Y-8697000D01*
X15245000Y-8701000D02*
X15463100Y-8701000D01*
X15468000Y-8725000D02*
G75*
G02*
X14814000Y-8725000I-327000J0D01*
G01*
X14814000Y-8725000D02*
G75*
G02*
X15468000Y-8725000I327000J0D01*
G01*
%TO.C,D2*%
X15436400Y-13073000D02*
X15452000Y-13073000D01*
X15668000Y-13073000D02*
X15683600Y-13073000D01*
X15436448Y-13073000D02*
G75*
G02*
X15452000Y-12749856I123552J156000D01*
G01*
X15452000Y-13021096D02*
G75*
G02*
X15452000Y-12812904I108000J104096D01*
G01*
X15668000Y-12749856D02*
G75*
G02*
X15683552Y-13073000I-108000J-167144D01*
G01*
X15668000Y-12812904D02*
G75*
G02*
X15668000Y-13021096I-108000J-104096D01*
G01*
D13*
%TO.C,U2*%
X15879397Y-12087328D02*
X16073752Y-12183418D01*
X15881892Y-9831819D02*
X15879397Y-12087328D01*
X15893452Y-9742543D02*
X15881892Y-9831819D01*
X15916288Y-9667039D02*
X15893452Y-9742543D01*
X15949040Y-9603854D02*
X15916288Y-9667039D01*
X15990350Y-9551534D02*
X15949040Y-9603854D01*
X16013848Y-12389374D02*
X16013848Y-12588693D01*
X16013848Y-12588693D02*
X16075584Y-12588693D01*
X16038855Y-9508626D02*
X15990350Y-9551534D01*
X16073752Y-12183418D02*
X16076731Y-12864252D01*
X16075253Y-12868723D02*
X16656382Y-12868723D01*
X16077348Y-12789776D02*
X16082640Y-12181235D01*
X16079112Y-12389374D02*
X16013848Y-12389374D01*
X16082640Y-12181235D02*
X16237862Y-12181235D01*
X16093198Y-9473674D02*
X16038855Y-9508626D01*
X16152018Y-9445226D02*
X16093198Y-9473674D01*
X16213954Y-9421827D02*
X16152018Y-9445226D01*
X16234334Y-12789776D02*
X16077348Y-12789776D01*
X16237862Y-12181235D02*
X16290779Y-12234151D01*
X16287251Y-12740388D02*
X16234334Y-12789776D01*
X16290779Y-12234151D02*
X16416015Y-12234151D01*
X16416015Y-12234151D02*
X16416015Y-12740388D01*
X16416015Y-12740388D02*
X16287251Y-12740388D01*
X16656382Y-12868723D02*
X16659015Y-12740379D01*
X16659015Y-12740379D02*
X17542137Y-12741048D01*
X16761007Y-12246145D02*
X16761007Y-12827519D01*
X16761007Y-12827519D02*
X17474965Y-12827519D01*
X17474965Y-12246145D02*
X16761007Y-12246145D01*
X17474965Y-12827519D02*
X17474965Y-12246145D01*
X17541940Y-12861274D02*
X18450019Y-12858666D01*
X17542137Y-12741048D02*
X17541940Y-12861274D01*
X18117745Y-9424702D02*
X16213954Y-9421827D01*
X18177525Y-9443269D02*
X18117745Y-9424702D01*
X18231944Y-9467962D02*
X18177525Y-9443269D01*
X18281051Y-9498726D02*
X18231944Y-9467962D01*
X18324895Y-9535505D02*
X18281051Y-9498726D01*
X18363525Y-9578242D02*
X18324895Y-9535505D01*
X18396990Y-9626883D02*
X18363525Y-9578242D01*
X18425338Y-9681371D02*
X18396990Y-9626883D01*
X18448620Y-9741651D02*
X18425338Y-9681371D01*
X18450019Y-12858666D02*
X18448620Y-9741651D01*
D10*
%TO.C,kibuzzard-689068BD*%
G36*
X16757908Y-13138691D02*
G01*
X16763893Y-13152237D01*
X16761793Y-13161583D01*
X16756438Y-13167254D01*
X16748982Y-13169984D01*
X16740372Y-13170719D01*
X16733966Y-13170509D01*
X16727981Y-13169879D01*
X16727981Y-13134596D01*
X16741842Y-13134596D01*
X16757908Y-13138691D01*
G37*
G36*
X16746672Y-13083037D02*
G01*
X16752552Y-13085137D01*
X16756543Y-13089548D01*
X16758013Y-13097003D01*
X16752972Y-13108869D01*
X16738061Y-13113174D01*
X16727981Y-13113174D01*
X16727981Y-13083352D01*
X16733651Y-13082722D01*
X16739741Y-13082512D01*
X16746672Y-13083037D01*
G37*
G36*
X16962569Y-13148982D02*
G01*
X16968659Y-13149717D01*
X16968659Y-13172399D01*
X16961729Y-13172924D01*
X16953538Y-13173029D01*
X16940517Y-13170194D01*
X16935477Y-13160638D01*
X16937157Y-13154548D01*
X16941672Y-13150977D01*
X16948288Y-13149192D01*
X16956058Y-13148667D01*
X16962569Y-13148982D01*
G37*
G36*
X17168595Y-13114119D02*
G01*
X17175315Y-13116955D01*
X17175315Y-13170719D01*
X17169645Y-13171349D01*
X17163764Y-13171559D01*
X17154340Y-13169459D01*
X17147908Y-13163158D01*
X17144206Y-13153550D01*
X17142973Y-13141527D01*
X17144023Y-13129293D01*
X17147173Y-13120315D01*
X17152633Y-13114802D01*
X17160614Y-13112964D01*
X17168595Y-13114119D01*
G37*
G36*
X16857587Y-13114776D02*
G01*
X16863756Y-13120840D01*
X16867300Y-13130212D01*
X16868481Y-13142157D01*
X16867195Y-13154128D01*
X16863336Y-13163578D01*
X16856957Y-13169721D01*
X16848110Y-13171769D01*
X16839053Y-13169721D01*
X16832884Y-13163578D01*
X16829340Y-13154128D01*
X16828158Y-13142157D01*
X16829445Y-13130212D01*
X16833304Y-13120840D01*
X16839683Y-13114776D01*
X16848530Y-13112754D01*
X16857587Y-13114776D01*
G37*
G36*
X17697809Y-13083536D02*
G01*
X17704661Y-13092278D01*
X17707753Y-13101227D01*
X17709608Y-13112533D01*
X17710226Y-13126195D01*
X17709608Y-13139975D01*
X17707753Y-13151351D01*
X17704661Y-13160323D01*
X17697809Y-13169065D01*
X17688595Y-13171914D01*
X17688385Y-13171979D01*
X17679091Y-13169065D01*
X17672213Y-13160323D01*
X17669063Y-13151351D01*
X17667173Y-13139975D01*
X17666543Y-13126195D01*
X17666640Y-13124095D01*
X17676834Y-13124095D01*
X17679984Y-13133861D01*
X17688595Y-13137956D01*
X17696890Y-13133861D01*
X17700145Y-13124095D01*
X17696890Y-13114225D01*
X17688595Y-13110024D01*
X17679984Y-13114225D01*
X17676834Y-13124095D01*
X17666640Y-13124095D01*
X17667173Y-13112533D01*
X17669063Y-13101227D01*
X17672213Y-13092278D01*
X17679091Y-13083536D01*
X17688385Y-13080622D01*
X17697809Y-13083536D01*
G37*
G36*
X17836899Y-12959031D02*
G01*
X17852600Y-12961360D01*
X17867998Y-12965217D01*
X17882943Y-12970565D01*
X17897292Y-12977351D01*
X17910907Y-12985512D01*
X17923656Y-12994967D01*
X17935417Y-13005627D01*
X17946077Y-13017388D01*
X17955533Y-13030138D01*
X17963693Y-13043753D01*
X17970480Y-13058102D01*
X17975827Y-13073047D01*
X17979684Y-13088445D01*
X17982013Y-13104146D01*
X17982792Y-13120000D01*
X17982013Y-13135854D01*
X17979684Y-13151555D01*
X17975827Y-13166953D01*
X17970480Y-13181898D01*
X17963693Y-13196247D01*
X17955533Y-13209862D01*
X17946077Y-13222611D01*
X17935417Y-13234373D01*
X17923656Y-13245032D01*
X17910907Y-13254488D01*
X17897292Y-13262648D01*
X17882943Y-13269435D01*
X17867998Y-13274783D01*
X17852600Y-13278639D01*
X17836899Y-13280969D01*
X17821045Y-13281747D01*
X17733538Y-13281747D01*
X17688385Y-13281747D01*
X17583586Y-13281747D01*
X17522262Y-13281747D01*
X17359919Y-13281747D01*
X17163554Y-13281747D01*
X17050565Y-13281747D01*
X16951648Y-13281747D01*
X16848530Y-13281747D01*
X16738271Y-13281747D01*
X16599031Y-13281747D01*
X16542956Y-13281747D01*
X16486462Y-13281747D01*
X16398955Y-13281747D01*
X16383101Y-13280969D01*
X16367400Y-13278639D01*
X16352002Y-13274783D01*
X16337057Y-13269435D01*
X16322708Y-13262648D01*
X16309093Y-13254488D01*
X16296344Y-13245032D01*
X16284583Y-13234373D01*
X16273923Y-13222611D01*
X16264467Y-13209862D01*
X16256307Y-13196247D01*
X16249520Y-13181898D01*
X16244173Y-13166953D01*
X16240316Y-13151555D01*
X16237987Y-13135854D01*
X16237523Y-13126405D01*
X16486462Y-13126405D01*
X16487368Y-13141750D01*
X16490085Y-13155230D01*
X16494613Y-13166847D01*
X16500953Y-13176599D01*
X16512061Y-13186400D01*
X16526062Y-13192281D01*
X16542956Y-13194241D01*
X16554428Y-13193532D01*
X16563986Y-13191510D01*
X16599031Y-13191510D01*
X16624863Y-13191510D01*
X16624863Y-13135856D01*
X16671906Y-13135856D01*
X16671906Y-13114435D01*
X16624863Y-13114435D01*
X16624863Y-13082932D01*
X16678627Y-13082932D01*
X16678627Y-13063191D01*
X16702149Y-13063191D01*
X16702149Y-13189410D01*
X16711232Y-13191064D01*
X16720420Y-13192246D01*
X16729503Y-13192954D01*
X16738271Y-13193191D01*
X16748641Y-13192692D01*
X16758328Y-13191195D01*
X16767044Y-13188518D01*
X16774499Y-13184475D01*
X16785315Y-13171874D01*
X16788308Y-13163027D01*
X16789305Y-13152237D01*
X16788124Y-13143417D01*
X16787504Y-13141947D01*
X16801906Y-13141947D01*
X16802746Y-13153156D01*
X16805267Y-13163263D01*
X16809336Y-13172163D01*
X16814822Y-13179750D01*
X16821595Y-13185893D01*
X16829523Y-13190460D01*
X16838528Y-13193296D01*
X16848530Y-13194241D01*
X16858532Y-13193296D01*
X16867536Y-13190460D01*
X16875438Y-13185893D01*
X16882133Y-13179750D01*
X16887540Y-13172163D01*
X16891583Y-13163263D01*
X16892081Y-13161268D01*
X16910065Y-13161268D01*
X16913005Y-13176494D01*
X16921406Y-13186575D01*
X16934532Y-13192140D01*
X16951648Y-13193821D01*
X16964826Y-13193401D01*
X16976640Y-13192140D01*
X16993441Y-13189200D01*
X16993441Y-13130396D01*
X16991341Y-13113699D01*
X16984410Y-13101098D01*
X16981521Y-13099313D01*
X17024523Y-13099313D01*
X17024523Y-13191510D01*
X17050565Y-13191510D01*
X17050565Y-13142787D01*
X17116721Y-13142787D01*
X17118039Y-13157488D01*
X17121994Y-13169949D01*
X17128586Y-13180170D01*
X17137746Y-13187753D01*
X17149401Y-13192304D01*
X17163554Y-13193821D01*
X17173530Y-13193453D01*
X17183716Y-13192351D01*
X17193219Y-13190670D01*
X17201147Y-13188570D01*
X17201147Y-13061510D01*
X17323586Y-13061510D01*
X17326002Y-13073271D01*
X17329467Y-13087972D01*
X17332244Y-13098975D01*
X17335254Y-13110421D01*
X17338498Y-13122310D01*
X17341928Y-13134433D01*
X17345498Y-13146579D01*
X17349208Y-13158748D01*
X17354721Y-13176074D01*
X17359919Y-13191510D01*
X17386591Y-13191510D01*
X17390605Y-13180321D01*
X17394525Y-13168875D01*
X17398352Y-13157173D01*
X17402028Y-13145412D01*
X17405493Y-13133791D01*
X17408748Y-13122310D01*
X17413211Y-13105588D01*
X17417149Y-13089653D01*
X17417389Y-13088603D01*
X17435945Y-13088603D01*
X17444346Y-13110024D01*
X17457157Y-13104879D01*
X17470598Y-13097423D01*
X17470598Y-13170089D01*
X17443296Y-13170089D01*
X17443296Y-13191510D01*
X17522262Y-13191510D01*
X17522262Y-13174919D01*
X17564685Y-13174919D01*
X17566260Y-13183005D01*
X17570460Y-13188885D01*
X17576446Y-13192561D01*
X17583586Y-13193821D01*
X17596607Y-13188990D01*
X17602278Y-13174919D01*
X17596607Y-13161268D01*
X17583586Y-13156438D01*
X17576446Y-13157698D01*
X17570460Y-13161268D01*
X17566260Y-13167044D01*
X17564685Y-13174919D01*
X17522262Y-13174919D01*
X17522262Y-13170089D01*
X17496430Y-13170089D01*
X17496430Y-13126195D01*
X17643231Y-13126195D01*
X17643953Y-13142314D01*
X17646119Y-13156228D01*
X17649728Y-13167936D01*
X17654782Y-13177439D01*
X17663649Y-13186773D01*
X17674850Y-13192374D01*
X17688385Y-13194241D01*
X17701919Y-13192374D01*
X17713120Y-13186773D01*
X17721987Y-13177439D01*
X17727041Y-13167936D01*
X17730650Y-13156228D01*
X17732816Y-13142314D01*
X17733538Y-13126195D01*
X17732816Y-13110175D01*
X17730650Y-13096347D01*
X17727041Y-13084711D01*
X17721987Y-13075267D01*
X17713120Y-13065991D01*
X17701919Y-13060425D01*
X17688385Y-13058570D01*
X17675060Y-13060437D01*
X17663929Y-13066037D01*
X17654992Y-13075372D01*
X17649847Y-13084848D01*
X17646171Y-13096478D01*
X17643966Y-13110260D01*
X17643231Y-13126195D01*
X17496430Y-13126195D01*
X17496430Y-13061510D01*
X17478788Y-13061510D01*
X17469758Y-13069701D01*
X17458627Y-13077262D01*
X17446866Y-13083772D01*
X17435945Y-13088603D01*
X17417389Y-13088603D01*
X17420535Y-13074846D01*
X17423344Y-13061510D01*
X17396252Y-13061510D01*
X17394362Y-13072431D01*
X17392052Y-13085032D01*
X17389427Y-13098657D01*
X17386591Y-13112649D01*
X17383546Y-13126720D01*
X17380291Y-13140582D01*
X17376931Y-13153576D01*
X17373570Y-13165048D01*
X17370184Y-13153419D01*
X17366745Y-13140372D01*
X17363385Y-13126510D01*
X17360234Y-13112439D01*
X17357320Y-13098473D01*
X17354669Y-13084927D01*
X17352464Y-13072405D01*
X17350889Y-13061510D01*
X17323586Y-13061510D01*
X17201147Y-13061510D01*
X17201147Y-13045759D01*
X17175315Y-13050170D01*
X17175315Y-13095113D01*
X17166494Y-13091858D01*
X17156204Y-13090703D01*
X17144244Y-13092254D01*
X17134409Y-13096910D01*
X17126696Y-13104669D01*
X17121154Y-13115111D01*
X17117829Y-13127817D01*
X17116721Y-13142787D01*
X17050565Y-13142787D01*
X17050565Y-13118215D01*
X17061276Y-13116220D01*
X17071987Y-13115695D01*
X17077658Y-13115905D01*
X17084588Y-13116640D01*
X17091624Y-13117795D01*
X17097609Y-13119055D01*
X17102229Y-13095113D01*
X17094144Y-13093118D01*
X17085218Y-13091858D01*
X17076923Y-13091123D01*
X17070937Y-13090913D01*
X17057365Y-13091490D01*
X17045630Y-13093223D01*
X17034946Y-13095901D01*
X17024523Y-13099313D01*
X16981521Y-13099313D01*
X16971494Y-13093118D01*
X16962385Y-13090991D01*
X16951228Y-13090283D01*
X16941935Y-13090624D01*
X16932956Y-13091648D01*
X16919305Y-13094693D01*
X16922876Y-13115485D01*
X16933902Y-13112964D01*
X16948078Y-13111914D01*
X16957738Y-13113148D01*
X16964039Y-13116850D01*
X16968659Y-13129136D01*
X16968659Y-13132286D01*
X16960311Y-13131026D01*
X16950808Y-13130606D01*
X16935477Y-13132181D01*
X16922456Y-13137326D01*
X16913425Y-13146777D01*
X16910065Y-13161268D01*
X16892081Y-13161268D01*
X16894103Y-13153156D01*
X16894944Y-13141947D01*
X16894103Y-13130895D01*
X16891583Y-13120840D01*
X16887514Y-13111967D01*
X16882028Y-13104459D01*
X16875254Y-13098421D01*
X16867326Y-13093958D01*
X16858374Y-13091201D01*
X16848530Y-13090283D01*
X16838817Y-13091201D01*
X16829838Y-13093958D01*
X16821832Y-13098421D01*
X16815032Y-13104459D01*
X16809519Y-13111967D01*
X16805372Y-13120840D01*
X16802773Y-13130895D01*
X16801906Y-13141947D01*
X16787504Y-13141947D01*
X16784580Y-13135016D01*
X16777728Y-13127666D01*
X16766624Y-13121995D01*
X16778700Y-13110654D01*
X16782086Y-13102989D01*
X16783215Y-13094273D01*
X16781325Y-13082092D01*
X16774184Y-13071066D01*
X16759693Y-13063086D01*
X16749087Y-13060802D01*
X16735751Y-13060040D01*
X16718320Y-13060985D01*
X16702149Y-13063191D01*
X16678627Y-13063191D01*
X16678627Y-13061510D01*
X16599031Y-13061510D01*
X16599031Y-13191510D01*
X16563986Y-13191510D01*
X16564483Y-13191405D01*
X16579289Y-13185210D01*
X16572779Y-13164838D01*
X16562173Y-13169459D01*
X16545477Y-13171769D01*
X16530487Y-13168802D01*
X16520380Y-13159903D01*
X16516121Y-13150837D01*
X16513566Y-13139461D01*
X16512714Y-13125775D01*
X16513423Y-13114014D01*
X16515549Y-13104354D01*
X16522900Y-13090598D01*
X16533191Y-13083247D01*
X16545056Y-13081042D01*
X16560703Y-13083247D01*
X16572359Y-13088603D01*
X16579079Y-13068021D01*
X16574774Y-13065501D01*
X16567738Y-13062351D01*
X16557972Y-13059725D01*
X16545477Y-13058570D01*
X16533164Y-13059699D01*
X16521850Y-13063086D01*
X16511769Y-13068651D01*
X16503158Y-13076317D01*
X16496149Y-13086004D01*
X16490872Y-13097633D01*
X16487565Y-13111127D01*
X16486462Y-13126405D01*
X16237523Y-13126405D01*
X16237208Y-13120000D01*
X16237987Y-13104146D01*
X16240316Y-13088445D01*
X16244173Y-13073047D01*
X16249520Y-13058102D01*
X16256307Y-13043753D01*
X16264467Y-13030138D01*
X16273923Y-13017388D01*
X16284583Y-13005627D01*
X16296344Y-12994967D01*
X16309093Y-12985512D01*
X16322708Y-12977351D01*
X16337057Y-12970565D01*
X16352002Y-12965217D01*
X16367400Y-12961360D01*
X16383101Y-12959031D01*
X16398955Y-12958253D01*
X16486462Y-12958253D01*
X17733538Y-12958253D01*
X17821045Y-12958253D01*
X17836899Y-12959031D01*
G37*
D14*
%TO.C,C5*%
X13419100Y-13052450D02*
X13419100Y-12598450D01*
X13424700Y-13052450D02*
X13419100Y-13052450D01*
X13627500Y-12598450D02*
X13633100Y-12598450D01*
X13633100Y-12598450D02*
X13633100Y-13052450D01*
%TO.C,SW1*%
X10690100Y-9915450D02*
X10962100Y-9915450D01*
X10962100Y-8893450D01*
X10690100Y-8893450D01*
X10690100Y-9915450D01*
%TO.C,U3*%
D13*
X13691600Y-9239050D02*
X15215600Y-9239050D01*
X15215600Y-11829050D01*
X13691600Y-11829050D01*
X13691600Y-9239050D01*
%TD*%
D15*
X10550000Y-7500000D02*
X18550000Y-7500000D01*
X18550000Y-13500000D01*
X10550000Y-13500000D01*
X10550000Y-7500000D01*
M02*
