%TF.GenerationSoftware,KiCad,Pcbnew,9.0.3*%
%TF.CreationDate,2025-07-17T19:28:32+07:00*%
%TF.ProjectId,CFBoard,4346426f-6172-4642-9e6b-696361645f70,rev?*%
%TF.SameCoordinates,Original*%
%TF.FileFunction,Copper,L2,Bot*%
%TF.FilePolarity,Positive*%
%FSLAX45Y45*%
G04 Gerber Fmt 4.5, Leading zero omitted, Abs format (unit mm)*
G04 Created by KiCad (PCBNEW 9.0.3) date 2025-07-17 19:28:32*
%MOMM*%
%LPD*%
G01*
G04 APERTURE LIST*
G04 Aperture macros list*
%AMRoundRect*
0 Rectangle with rounded corners*
0 $1 Rounding radius*
0 $2 $3 $4 $5 $6 $7 $8 $9 X,Y pos of 4 corners*
0 Add a 4 corners polygon primitive as box body*
4,1,4,$2,$3,$4,$5,$6,$7,$8,$9,$2,$3,0*
0 Add four circle primitives for the rounded corners*
1,1,$1+$1,$2,$3*
1,1,$1+$1,$4,$5*
1,1,$1+$1,$6,$7*
1,1,$1+$1,$8,$9*
0 Add four rect primitives between the rounded corners*
20,1,$1+$1,$2,$3,$4,$5,0*
20,1,$1+$1,$4,$5,$6,$7,0*
20,1,$1+$1,$6,$7,$8,$9,0*
20,1,$1+$1,$8,$9,$2,$3,0*%
G04 Aperture macros list end*
%TA.AperFunction,ComponentPad*%
%ADD10C,1.600000*%
%TD*%
%TA.AperFunction,ComponentPad*%
%ADD11RoundRect,0.250000X-0.600000X-0.725000X0.600000X-0.725000X0.600000X0.725000X-0.600000X0.725000X0*%
%TD*%
%TA.AperFunction,ComponentPad*%
%ADD12O,1.700000X1.950000*%
%TD*%
%TA.AperFunction,ComponentPad*%
%ADD13RoundRect,0.249999X-0.850001X0.850001X-0.850001X-0.850001X0.850001X-0.850001X0.850001X0.850001X0*%
%TD*%
%TA.AperFunction,ComponentPad*%
%ADD14C,2.200000*%
%TD*%
%TA.AperFunction,ComponentPad*%
%ADD15R,2.000000X2.000000*%
%TD*%
%TA.AperFunction,ComponentPad*%
%ADD16R,1.700000X1.700000*%
%TD*%
%TA.AperFunction,ComponentPad*%
%ADD17C,2.000000*%
%TD*%
%TA.AperFunction,ComponentPad*%
%ADD18RoundRect,0.250000X-0.550000X0.550000X-0.550000X-0.550000X0.550000X-0.550000X0.550000X0.550000X0*%
%TD*%
%TA.AperFunction,ComponentPad*%
%ADD19R,2.000000X1.700000*%
%TD*%
%TA.AperFunction,ComponentPad*%
%ADD20RoundRect,0.250000X0.550000X-0.550000X0.550000X0.550000X-0.550000X0.550000X-0.550000X-0.550000X0*%
%TD*%
%TA.AperFunction,ComponentPad*%
%ADD21R,1.800000X1.800000*%
%TD*%
%TA.AperFunction,ComponentPad*%
%ADD22C,1.800000*%
%TD*%
%TA.AperFunction,ComponentPad*%
%ADD23R,1.500000X1.500000*%
%TD*%
%TA.AperFunction,ViaPad*%
%ADD24C,0.600000*%
%TD*%
%TA.AperFunction,Conductor*%
%ADD25C,0.500000*%
%TD*%
%TA.AperFunction,Conductor*%
%ADD26C,0.400000*%
%TD*%
%TA.AperFunction,Profile*%
%ADD27C,0.300000*%
%TD*%
G04 APERTURE END LIST*
D10*
%TO.P,R5,1*%
%TO.N,Net-(U3-INT)*%
X14566000Y-8968000D03*
%TO.P,R5,2*%
%TO.N,Net-(U1-PB0)*%
X13804000Y-8968000D03*
%TD*%
%TO.P,R3,1*%
%TO.N,Net-(U1-PB7)*%
X10841000Y-11418000D03*
%TO.P,R3,2*%
%TO.N,Net-(U2-Tx)*%
X10841000Y-12180000D03*
%TD*%
%TO.P,R2,1*%
%TO.N,Net-(U1-PB6)*%
X10841000Y-10318000D03*
%TO.P,R2,2*%
%TO.N,Net-(U2-Rx)*%
X10841000Y-11080000D03*
%TD*%
%TO.P,R1,1*%
%TO.N,Net-(U2-D5)*%
X14566000Y-8518000D03*
%TO.P,R1,2*%
%TO.N,Net-(U1-RST)*%
X13804000Y-8518000D03*
%TD*%
D11*
%TO.P,CONN1,1,VIN*%
%TO.N,Net-(CONN1-VIN)*%
X13861100Y-7937950D03*
D12*
%TO.P,CONN1,2,GND*%
%TO.N,GNDPWR*%
X14111100Y-7937950D03*
%TO.P,CONN1,3,Signal_1*%
%TO.N,Net-(CONN1-Signal_1)*%
X14361100Y-7937950D03*
%TO.P,CONN1,4,Signal_2*%
%TO.N,Net-(CONN1-Signal_2)*%
X14611100Y-7937950D03*
%TO.P,CONN1,5,Signal_3*%
%TO.N,Net-(CONN1-Signal_3)*%
X14861100Y-7937950D03*
%TO.P,CONN1,6,Signal_4*%
%TO.N,Net-(CONN1-Signal_4)*%
X15111100Y-7937950D03*
%TD*%
D10*
%TO.P,C4,1*%
%TO.N,Net-(D1-K)*%
X13528600Y-9380450D03*
%TO.P,C4,2*%
%TO.N,Net-(D2-A)*%
X13528600Y-9880450D03*
%TD*%
D13*
%TO.P,D1,1,K*%
%TO.N,Net-(D1-K)*%
X15676100Y-9650000D03*
D14*
%TO.P,D1,2,A*%
%TO.N,Net-(D1-A)*%
X15676100Y-10412000D03*
%TD*%
D10*
%TO.P,R4,1*%
%TO.N,Net-(D2-K)*%
X15691000Y-10968000D03*
%TO.P,R4,2*%
%TO.N,Net-(U2-D7)*%
X15691000Y-11730000D03*
%TD*%
D15*
%TO.P,REG1,1,VIN+*%
%TO.N,Net-(REG1-VIN+)*%
X15799000Y-8806050D03*
X15799000Y-9100450D03*
%TO.P,REG1,2,VIN-*%
%TO.N,GNDPWR*%
X15799000Y-7800450D03*
X15799000Y-8094850D03*
%TO.P,REG1,3,VOUT+*%
%TO.N,Net-(REG1-VOUT+)*%
X17653200Y-8806050D03*
X17653200Y-9100450D03*
%TO.P,REG1,4,VOUT-*%
%TO.N,Net-(D2-A)*%
X17653200Y-7800450D03*
X17653200Y-8094850D03*
%TD*%
D16*
%TO.P,U4,1,VIN*%
%TO.N,Net-(D1-K)*%
X13806000Y-13076000D03*
D17*
%TO.P,U4,2,GND*%
%TO.N,Net-(D2-A)*%
X13806000Y-12822000D03*
%TO.P,U4,3,SCL*%
%TO.N,Net-(U1-PB8)*%
X13806000Y-12568000D03*
%TO.P,U4,4,SDA*%
%TO.N,Net-(U1-PB9)*%
X13806000Y-12314000D03*
%TO.P,U4,5,NC*%
%TO.N,unconnected-(U4-NC-Pad5)*%
X13806000Y-12060000D03*
%TD*%
D18*
%TO.P,C3,1*%
%TO.N,Net-(D1-A)*%
X15541000Y-12025000D03*
D10*
%TO.P,C3,2*%
%TO.N,Net-(D2-A)*%
X15541000Y-12275000D03*
%TD*%
D19*
%TO.P,U1,1,PB12*%
%TO.N,unconnected-(U1-PB12-Pad1)*%
X11467000Y-8021000D03*
D17*
%TO.P,U1,2,PB13*%
%TO.N,unconnected-(U1-PB13-Pad2)*%
X11467000Y-8275000D03*
%TO.P,U1,3,PB14*%
%TO.N,unconnected-(U1-PB14-Pad3)*%
X11467000Y-8529000D03*
%TO.P,U1,4,PB15*%
%TO.N,unconnected-(U1-PB15-Pad4)*%
X11467000Y-8783000D03*
%TO.P,U1,5,PA8*%
%TO.N,unconnected-(U1-PA8-Pad5)*%
X11467000Y-9037000D03*
%TO.P,U1,6,PA9*%
%TO.N,unconnected-(U1-PA9-Pad6)*%
X11467000Y-9291000D03*
%TO.P,U1,7,PA10*%
%TO.N,unconnected-(U1-PA10-Pad7)*%
X11467000Y-9545000D03*
%TO.P,U1,8,PA11*%
%TO.N,unconnected-(U1-PA11-Pad8)*%
X11467000Y-9799000D03*
%TO.P,U1,9,PA12*%
%TO.N,unconnected-(U1-PA12-Pad9)*%
X11467000Y-10053000D03*
%TO.P,U1,10,PA15*%
%TO.N,unconnected-(U1-PA15-Pad10)*%
X11467000Y-10307000D03*
%TO.P,U1,11,PB3*%
%TO.N,unconnected-(U1-PB3-Pad11)*%
X11467000Y-10561000D03*
%TO.P,U1,12,PB4*%
%TO.N,unconnected-(U1-PB4-Pad12)*%
X11467000Y-10815000D03*
%TO.P,U1,13,PB5*%
%TO.N,unconnected-(U1-PB5-Pad13)*%
X11467000Y-11069000D03*
%TO.P,U1,14,PB6*%
%TO.N,Net-(U1-PB6)*%
X11467000Y-11323000D03*
%TO.P,U1,15,PB7*%
%TO.N,Net-(U1-PB7)*%
X11467000Y-11577000D03*
%TO.P,U1,16,PB8*%
%TO.N,Net-(U1-PB8)*%
X11467000Y-11831000D03*
%TO.P,U1,17,PB9*%
%TO.N,Net-(U1-PB9)*%
X11467000Y-12085000D03*
%TO.P,U1,18,5V*%
%TO.N,unconnected-(U1-5V-Pad18)*%
X11467000Y-12339000D03*
%TO.P,U1,19,GND*%
%TO.N,unconnected-(U1-GND-Pad19)*%
X11467000Y-12593000D03*
%TO.P,U1,20,3V3*%
%TO.N,unconnected-(U1-3V3-Pad20)*%
X11467000Y-12847000D03*
%TO.P,U1,21,VBat*%
%TO.N,unconnected-(U1-VBat-Pad21)*%
X12991000Y-12847000D03*
%TO.P,U1,22,PC13*%
%TO.N,unconnected-(U1-PC13-Pad22)*%
X12991000Y-12593000D03*
%TO.P,U1,23,PC14*%
%TO.N,unconnected-(U1-PC14-Pad23)*%
X12991000Y-12339000D03*
%TO.P,U1,24,PC15*%
%TO.N,unconnected-(U1-PC15-Pad24)*%
X12991000Y-12085000D03*
%TO.P,U1,25,PA0*%
%TO.N,Net-(CONN1-Signal_1)*%
X12991000Y-11831000D03*
%TO.P,U1,26,PA1*%
%TO.N,Net-(CONN1-Signal_2)*%
X12991000Y-11577000D03*
%TO.P,U1,27,PA2*%
%TO.N,Net-(CONN1-Signal_3)*%
X12991000Y-11323000D03*
%TO.P,U1,28,PA3*%
%TO.N,Net-(CONN1-Signal_4)*%
X12991000Y-11069000D03*
%TO.P,U1,29,PA4*%
%TO.N,unconnected-(U1-PA4-Pad29)*%
X12991000Y-10815000D03*
%TO.P,U1,30,PA5*%
%TO.N,unconnected-(U1-PA5-Pad30)*%
X12991000Y-10561000D03*
%TO.P,U1,31,PA6*%
%TO.N,unconnected-(U1-PA6-Pad31)*%
X12991000Y-10307000D03*
%TO.P,U1,32,PA7*%
%TO.N,unconnected-(U1-PA7-Pad32)*%
X12991000Y-10053000D03*
%TO.P,U1,33,PB0*%
%TO.N,Net-(U1-PB0)*%
X12991000Y-9799000D03*
%TO.P,U1,34,PB1*%
%TO.N,unconnected-(U1-PB1-Pad34)*%
X12991000Y-9545000D03*
%TO.P,U1,35,PB10*%
%TO.N,unconnected-(U1-PB10-Pad35)*%
X12991000Y-9291000D03*
%TO.P,U1,36,PB11*%
%TO.N,unconnected-(U1-PB11-Pad36)*%
X12991000Y-9037000D03*
%TO.P,U1,37,RST*%
%TO.N,Net-(U1-RST)*%
X12991000Y-8783000D03*
%TO.P,U1,38,3V3*%
%TO.N,Net-(D1-K)*%
X12991000Y-8529000D03*
%TO.P,U1,39,GND*%
%TO.N,Net-(D2-A)*%
X12991000Y-8275000D03*
%TO.P,U1,40,GND*%
%TO.N,unconnected-(U1-GND-Pad40)*%
X12991000Y-8021000D03*
%TD*%
D20*
%TO.P,C2,1*%
%TO.N,Net-(REG1-VOUT+)*%
X18178200Y-8570961D03*
D10*
%TO.P,C2,2*%
%TO.N,Net-(D2-A)*%
X18178200Y-8320961D03*
%TD*%
D20*
%TO.P,C1,1*%
%TO.N,Net-(REG1-VIN+)*%
X15141000Y-8850000D03*
D10*
%TO.P,C1,2*%
%TO.N,GNDPWR*%
X15141000Y-8600000D03*
%TD*%
D21*
%TO.P,D2,1,K*%
%TO.N,Net-(D2-K)*%
X15541000Y-12902000D03*
D22*
%TO.P,D2,2,A*%
%TO.N,Net-(D2-A)*%
X15541000Y-12648000D03*
%TD*%
D17*
%TO.P,U2,1,5V*%
%TO.N,Net-(REG1-VOUT+)*%
X18300000Y-12003000D03*
%TO.P,U2,2,GND*%
%TO.N,Net-(D2-A)*%
X18300000Y-11749000D03*
%TO.P,U2,3,D4*%
%TO.N,unconnected-(U2-D4-Pad3)*%
X18300000Y-11495000D03*
%TO.P,U2,4,D3*%
%TO.N,unconnected-(U2-D3-Pad4)*%
X18300000Y-11241000D03*
%TO.P,U2,5,D2*%
%TO.N,unconnected-(U2-D2-Pad5)*%
X18300000Y-10987000D03*
%TO.P,U2,6,D1*%
%TO.N,unconnected-(U2-D1-Pad6)*%
X18300000Y-10733000D03*
%TO.P,U2,7,Rx*%
%TO.N,Net-(U2-Rx)*%
X18300000Y-10479000D03*
%TO.P,U2,8,Tx*%
%TO.N,Net-(U2-Tx)*%
X18300000Y-10225000D03*
%TO.P,U2,9,Rst*%
%TO.N,unconnected-(U2-Rst-Pad9)*%
X16014000Y-10225000D03*
%TO.P,U2,10,A0*%
%TO.N,unconnected-(U2-A0-Pad10)*%
X16014000Y-10479000D03*
%TO.P,U2,11,D0*%
%TO.N,unconnected-(U2-D0-Pad11)*%
X16014000Y-10733000D03*
%TO.P,U2,12,D5*%
%TO.N,Net-(U2-D5)*%
X16014000Y-10987000D03*
%TO.P,U2,13,D6*%
%TO.N,unconnected-(U2-D6-Pad13)*%
X16014000Y-11241000D03*
%TO.P,U2,14,D7*%
%TO.N,Net-(U2-D7)*%
X16014000Y-11495000D03*
%TO.P,U2,15,D8*%
%TO.N,unconnected-(U2-D8-Pad15)*%
X16014000Y-11749000D03*
%TO.P,U2,16,3.3V*%
%TO.N,Net-(D1-A)*%
X16014000Y-12003000D03*
%TD*%
D10*
%TO.P,C5,1*%
%TO.N,Net-(D2-A)*%
X13526100Y-12575450D03*
%TO.P,C5,2*%
%TO.N,Net-(D1-K)*%
X13526100Y-13075450D03*
%TD*%
D23*
%TO.P,SW1,1,A*%
%TO.N,Net-(CONN1-VIN)*%
X10826100Y-9404450D03*
D10*
%TO.P,SW1,2,B*%
%TO.N,Net-(REG1-VIN+)*%
X10826100Y-9658450D03*
%TO.P,SW1,3*%
%TO.N,N/C*%
X10826100Y-9150450D03*
%TD*%
D16*
%TO.P,U3,1,VIN*%
%TO.N,Net-(D1-K)*%
X13805600Y-9391450D03*
D17*
%TO.P,U3,2,GND*%
%TO.N,Net-(D2-A)*%
X13805600Y-9645450D03*
%TO.P,U3,3,SCL*%
%TO.N,Net-(U1-PB8)*%
X13805600Y-9899450D03*
%TO.P,U3,4,SDA*%
%TO.N,Net-(U1-PB9)*%
X13805600Y-10153450D03*
%TO.P,U3,5,EDA*%
%TO.N,unconnected-(U3-EDA-Pad5)*%
X13805600Y-10407450D03*
%TO.P,U3,6,ECL*%
%TO.N,unconnected-(U3-ECL-Pad6)*%
X13805600Y-10661450D03*
%TO.P,U3,7,AD0*%
%TO.N,unconnected-(U3-AD0-Pad7)*%
X13805600Y-10915450D03*
%TO.P,U3,8,INT*%
%TO.N,Net-(U3-INT)*%
X13805600Y-11169450D03*
%TO.P,U3,9,NCS*%
%TO.N,unconnected-(U3-NCS-Pad9)*%
X13805600Y-11423450D03*
%TO.P,U3,10,FSYNC*%
%TO.N,unconnected-(U3-FSYNC-Pad10)*%
X13805600Y-11677450D03*
%TD*%
D24*
%TO.N,Net-(D2-A)*%
X18131200Y-11875000D03*
X18131200Y-12100000D03*
%TO.N,Net-(D1-K)*%
X14141000Y-12668000D03*
X14141000Y-12968000D03*
%TO.N,Net-(U3-INT)*%
X13425000Y-10975000D03*
%TD*%
D25*
%TO.N,GNDPWR*%
X14990136Y-8600000D02*
X15141000Y-8600000D01*
%TO.N,Net-(CONN1-VIN)*%
X13595750Y-7575100D02*
X11325000Y-7575100D01*
X13861100Y-7937950D02*
X13861100Y-7840450D01*
X13861100Y-7840450D02*
X13595750Y-7575100D01*
X11125000Y-9105550D02*
X10826100Y-9404450D01*
X11325000Y-7575100D02*
X11125000Y-7775100D01*
X11125000Y-7775100D02*
X11125000Y-9105550D01*
%TO.N,GNDPWR*%
X15475000Y-8600000D02*
X15550000Y-8525000D01*
X15799000Y-7800450D02*
X15799000Y-8094850D01*
X15141000Y-8600000D02*
X15475000Y-8600000D01*
X15550000Y-8525000D02*
X15550000Y-7975000D01*
X15829800Y-7768000D02*
X15836800Y-7775000D01*
X15724550Y-7800450D02*
X15799000Y-7800450D01*
X15550000Y-7975000D02*
X15724550Y-7800450D01*
%TO.N,Net-(D2-A)*%
X12806100Y-13170450D02*
X12466100Y-12830450D01*
X13526100Y-12410450D02*
X13344900Y-12229250D01*
X12466100Y-8799900D02*
X12991000Y-8275000D01*
X12466100Y-12830450D02*
X12466100Y-8799900D01*
X17925000Y-11374000D02*
X18300000Y-11749000D01*
X13772650Y-12822000D02*
X13526100Y-12575450D01*
X17956200Y-12275000D02*
X15541000Y-12275000D01*
X13526100Y-12575450D02*
X13526100Y-12410450D01*
X17700450Y-7800450D02*
X17925000Y-8025000D01*
X18131200Y-12100000D02*
X17956200Y-12275000D01*
X17653200Y-7800450D02*
X17653200Y-8094850D01*
X18178200Y-8320961D02*
X18375000Y-8517761D01*
X13802000Y-12818000D02*
X13806000Y-12822000D01*
X13344900Y-12229250D02*
X13344900Y-10051650D01*
X14487000Y-12822000D02*
X13806000Y-12822000D01*
X13226100Y-12875450D02*
X13226100Y-13130450D01*
X13806000Y-12822000D02*
X13772650Y-12822000D01*
X14661000Y-12648000D02*
X14487000Y-12822000D01*
X18375000Y-9575000D02*
X17925000Y-10025000D01*
X13526100Y-12575450D02*
X13226100Y-12875450D01*
X15541000Y-12275000D02*
X15541000Y-12648000D01*
X18257200Y-11749000D02*
X18131200Y-11875000D01*
X17653200Y-7800450D02*
X17700450Y-7800450D01*
X13763600Y-9645450D02*
X13528600Y-9880450D01*
X17925000Y-8025000D02*
X17925000Y-8225000D01*
X13805600Y-9645450D02*
X13763600Y-9645450D01*
X13226100Y-13130450D02*
X13186100Y-13170450D01*
X17925000Y-8225000D02*
X18020961Y-8320961D01*
X18375000Y-8517761D02*
X18375000Y-9575000D01*
X15541000Y-12648000D02*
X14661000Y-12648000D01*
X17925000Y-10025000D02*
X17925000Y-11374000D01*
X13516100Y-9880450D02*
X13528600Y-9880450D01*
X13186100Y-13170450D02*
X12806100Y-13170450D01*
X17653200Y-8094850D02*
X17653200Y-8170800D01*
X18300000Y-11749000D02*
X18257200Y-11749000D01*
X18020961Y-8320961D02*
X18178200Y-8320961D01*
X13344900Y-10051650D02*
X13516100Y-9880450D01*
%TO.N,Net-(D1-K)*%
X13991000Y-9300450D02*
X15526100Y-9300450D01*
X13526650Y-13076000D02*
X13526100Y-13075450D01*
X13991000Y-12318000D02*
X13991000Y-11918000D01*
X15526100Y-9300450D02*
X15676100Y-9450450D01*
X13528600Y-9170450D02*
X13528600Y-8705600D01*
X13352000Y-8529000D02*
X12991000Y-8529000D01*
X13531050Y-9168000D02*
X13528600Y-9170450D01*
X14141000Y-12668000D02*
X14141000Y-12468000D01*
X14141000Y-13018000D02*
X14141000Y-12968000D01*
X13991000Y-9268000D02*
X13891000Y-9168000D01*
X15676100Y-9450450D02*
X15676100Y-9650000D01*
X13549000Y-13076000D02*
X13541000Y-13068000D01*
X13891000Y-9168000D02*
X13531050Y-9168000D01*
X13539600Y-9391450D02*
X13528600Y-9380450D01*
X13806000Y-13076000D02*
X14083000Y-13076000D01*
X13991000Y-9300450D02*
X13991000Y-9268000D01*
X13805600Y-9391450D02*
X13539600Y-9391450D01*
X13991000Y-11918000D02*
X13991000Y-11668000D01*
X13528600Y-9380450D02*
X13528600Y-9170450D01*
X13528600Y-8705600D02*
X13352000Y-8529000D01*
X14141000Y-12468000D02*
X13991000Y-12318000D01*
X13806000Y-13076000D02*
X13526650Y-13076000D01*
X13991000Y-11668000D02*
X13991000Y-9300450D01*
X13541000Y-9350000D02*
X13516000Y-9375000D01*
X14083000Y-13076000D02*
X14141000Y-13018000D01*
%TO.N,Net-(REG1-VOUT+)*%
X17950000Y-8675000D02*
X18054039Y-8570961D01*
X18025932Y-11900932D02*
X18128000Y-12003000D01*
X17653200Y-8750450D02*
X17696200Y-8750450D01*
X17854900Y-11403036D02*
X18025932Y-11574068D01*
X18128000Y-12003000D02*
X18300000Y-12003000D01*
X17854900Y-9995964D02*
X17854900Y-11403036D01*
X17653200Y-8806050D02*
X17653200Y-9100450D01*
X18178200Y-8570961D02*
X18304900Y-8697661D01*
X18025932Y-11574068D02*
X18025932Y-11900932D01*
X17653200Y-9100450D02*
X17749550Y-9100450D01*
X17950000Y-8900000D02*
X17950000Y-8675000D01*
X18304900Y-9545964D02*
X17854900Y-9995964D01*
X17749550Y-9100450D02*
X17950000Y-8900000D01*
X18304900Y-8697661D02*
X18304900Y-9545964D01*
X18054039Y-8570961D02*
X18178200Y-8570961D01*
X17653200Y-8806050D02*
X17653200Y-8791000D01*
D26*
%TO.N,Net-(U3-INT)*%
X13600000Y-11150000D02*
X13786150Y-11150000D01*
X13786150Y-11150000D02*
X13805600Y-11169450D01*
X13425000Y-10975000D02*
X13600000Y-11150000D01*
D25*
%TO.N,Net-(D1-A)*%
X15541000Y-12025000D02*
X15360000Y-11844000D01*
X15360000Y-10728100D02*
X15676100Y-10412000D01*
X15994000Y-12025000D02*
X16016000Y-12003000D01*
X15360000Y-11844000D02*
X15360000Y-10728100D01*
X15563000Y-12003000D02*
X15541000Y-12025000D01*
X16016000Y-12003000D02*
X15563000Y-12003000D01*
%TO.N,Net-(REG1-VIN+)*%
X13300000Y-7645200D02*
X13754800Y-8100000D01*
X10986668Y-9343018D02*
X11195100Y-9134586D01*
X11195100Y-7804136D02*
X11354036Y-7645200D01*
X15140550Y-8850450D02*
X15141000Y-8850000D01*
X15000000Y-8850000D02*
X15141000Y-8850000D01*
X13754800Y-8100000D02*
X14174014Y-8100000D01*
X11354036Y-7645200D02*
X13300000Y-7645200D01*
X14324464Y-8250450D02*
X14541450Y-8250450D01*
X14950000Y-8659000D02*
X14950000Y-8800000D01*
X15141000Y-8850000D02*
X15475000Y-8850000D01*
X15725450Y-9100450D02*
X15799000Y-9100450D01*
X15799000Y-9100450D02*
X15799000Y-8806050D01*
X14950000Y-8800000D02*
X15000000Y-8850000D01*
X10826100Y-9658450D02*
X10986668Y-9497882D01*
X14541450Y-8250450D02*
X14950000Y-8659000D01*
X11195100Y-9134586D02*
X11195100Y-7804136D01*
X10986668Y-9497882D02*
X10986668Y-9343018D01*
X15475000Y-8850000D02*
X15725450Y-9100450D01*
X14174014Y-8100000D02*
X14324464Y-8250450D01*
%TO.N,GNDPWR*%
X14111100Y-7937950D02*
X14353500Y-8180350D01*
X14353500Y-8180350D02*
X14570486Y-8180350D01*
X14570486Y-8180350D02*
X14990136Y-8600000D01*
%TD*%
%TA.AperFunction,Conductor*%
%TO.N,PWR-DIODE*%
G36*
X13247417Y-7772145D02*
G01*
X13255496Y-7777543D01*
X13659417Y-8181465D01*
X13659417Y-8181465D01*
X13673335Y-8195383D01*
X13682431Y-8201991D01*
X13689259Y-8206952D01*
X13706797Y-8215888D01*
X13719144Y-8219900D01*
X13725517Y-8221971D01*
X13725518Y-8221971D01*
X13740809Y-8224393D01*
X13744958Y-8225050D01*
X14111902Y-8225050D01*
X14121431Y-8226945D01*
X14129509Y-8232343D01*
X14229081Y-8331915D01*
X14229081Y-8331915D01*
X14236608Y-8339442D01*
X14242999Y-8345833D01*
X14244797Y-8347139D01*
X14257229Y-8356172D01*
X14258923Y-8357402D01*
X14276461Y-8366338D01*
X14289098Y-8370444D01*
X14295181Y-8372421D01*
X14295181Y-8372421D01*
X14295181Y-8372421D01*
X14308336Y-8374504D01*
X14314622Y-8375500D01*
X14334305Y-8375500D01*
X14397904Y-8375500D01*
X14407433Y-8377395D01*
X14415511Y-8382793D01*
X14420908Y-8390871D01*
X14422804Y-8400400D01*
X14420908Y-8409929D01*
X14417658Y-8415558D01*
X14415973Y-8417755D01*
X14415972Y-8417756D01*
X14404172Y-8438195D01*
X14404171Y-8438196D01*
X14395794Y-8458420D01*
X14395139Y-8460001D01*
X14389031Y-8482799D01*
X14385950Y-8506199D01*
X14385950Y-8529801D01*
X14389031Y-8553201D01*
X14394574Y-8573888D01*
X14395139Y-8575999D01*
X14395139Y-8575999D01*
X14404171Y-8597804D01*
X14404172Y-8597805D01*
X14415972Y-8618244D01*
X14415973Y-8618245D01*
X14430341Y-8636970D01*
X14447030Y-8653659D01*
X14465755Y-8668027D01*
X14465756Y-8668028D01*
X14486194Y-8679828D01*
X14486195Y-8679828D01*
X14486195Y-8679828D01*
X14508001Y-8688861D01*
X14530799Y-8694969D01*
X14554199Y-8698050D01*
X14577801Y-8698050D01*
X14601201Y-8694969D01*
X14623999Y-8688861D01*
X14645805Y-8679828D01*
X14666245Y-8668027D01*
X14684970Y-8653659D01*
X14701659Y-8636970D01*
X14705850Y-8631508D01*
X14713154Y-8625102D01*
X14722354Y-8621979D01*
X14732049Y-8622615D01*
X14740763Y-8626912D01*
X14743212Y-8629059D01*
X14817657Y-8703504D01*
X14823055Y-8711583D01*
X14824950Y-8721111D01*
X14824950Y-8809841D01*
X14824950Y-8809843D01*
X14828029Y-8829282D01*
X14833929Y-8847442D01*
X14834112Y-8848003D01*
X14843048Y-8865541D01*
X14854617Y-8881465D01*
X14918535Y-8945383D01*
X14934459Y-8956952D01*
X14951997Y-8965888D01*
X14965883Y-8970400D01*
X14970717Y-8971971D01*
X14972412Y-8972239D01*
X14973851Y-8972649D01*
X14976869Y-8974195D01*
X14980049Y-8975368D01*
X14981156Y-8976391D01*
X14982498Y-8977079D01*
X14984694Y-8979662D01*
X14987184Y-8981963D01*
X14987507Y-8982418D01*
X14989618Y-8985465D01*
X14989618Y-8985465D01*
X15005535Y-9001382D01*
X15005535Y-9001382D01*
X15005535Y-9001382D01*
X15008161Y-9003201D01*
X15024037Y-9014201D01*
X15044532Y-9023510D01*
X15066359Y-9029010D01*
X15066359Y-9029010D01*
X15066359Y-9029010D01*
X15072968Y-9029530D01*
X15079578Y-9030050D01*
X15202422Y-9030050D01*
X15215641Y-9029010D01*
X15237468Y-9023510D01*
X15257963Y-9014201D01*
X15276465Y-9001382D01*
X15292382Y-8985465D01*
X15292382Y-8985465D01*
X15293099Y-8984607D01*
X15293246Y-8984730D01*
X15299155Y-8979017D01*
X15308192Y-8975450D01*
X15312639Y-8975050D01*
X15412889Y-8975050D01*
X15422417Y-8976945D01*
X15430496Y-8982343D01*
X15587586Y-9139433D01*
X15592983Y-9147512D01*
X15594879Y-9157040D01*
X15592983Y-9166569D01*
X15587586Y-9174647D01*
X15579508Y-9180045D01*
X15569979Y-9181940D01*
X15562284Y-9180722D01*
X15555382Y-9178479D01*
X15535943Y-9175400D01*
X15535942Y-9175400D01*
X15535942Y-9175400D01*
X15535941Y-9175400D01*
X14659801Y-9175400D01*
X14650272Y-9173505D01*
X14642194Y-9168107D01*
X14636796Y-9160029D01*
X14634901Y-9150500D01*
X14636796Y-9140971D01*
X14642194Y-9132893D01*
X14647351Y-9128936D01*
X14656207Y-9123823D01*
X14666245Y-9118027D01*
X14684970Y-9103659D01*
X14701659Y-9086970D01*
X14716027Y-9068245D01*
X14727828Y-9047805D01*
X14736861Y-9025999D01*
X14742969Y-9003201D01*
X14746050Y-8979801D01*
X14746050Y-8956199D01*
X14742969Y-8932799D01*
X14736861Y-8910001D01*
X14727828Y-8888195D01*
X14723942Y-8881465D01*
X14719533Y-8873828D01*
X14716027Y-8867755D01*
X14701659Y-8849030D01*
X14684970Y-8832341D01*
X14666245Y-8817973D01*
X14666244Y-8817972D01*
X14645805Y-8806172D01*
X14645804Y-8806171D01*
X14633722Y-8801167D01*
X14623999Y-8797139D01*
X14601201Y-8791031D01*
X14601201Y-8791031D01*
X14577801Y-8787950D01*
X14554199Y-8787950D01*
X14530799Y-8791031D01*
X14530799Y-8791031D01*
X14530799Y-8791031D01*
X14513564Y-8795649D01*
X14508001Y-8797139D01*
X14508001Y-8797139D01*
X14486196Y-8806171D01*
X14486194Y-8806172D01*
X14465756Y-8817972D01*
X14465755Y-8817973D01*
X14447030Y-8832341D01*
X14447030Y-8832341D01*
X14430341Y-8849030D01*
X14430341Y-8849030D01*
X14415973Y-8867755D01*
X14415972Y-8867756D01*
X14404172Y-8888195D01*
X14404171Y-8888196D01*
X14400296Y-8897550D01*
X14395139Y-8910001D01*
X14389031Y-8932799D01*
X14389031Y-8932799D01*
X14389031Y-8932799D01*
X14387374Y-8945383D01*
X14385950Y-8956199D01*
X14385950Y-8979801D01*
X14389031Y-9003201D01*
X14390734Y-9009557D01*
X14395139Y-9025999D01*
X14395139Y-9025999D01*
X14404171Y-9047804D01*
X14404172Y-9047805D01*
X14415575Y-9067557D01*
X14415973Y-9068245D01*
X14430341Y-9086970D01*
X14447030Y-9103659D01*
X14465755Y-9118027D01*
X14465756Y-9118028D01*
X14484649Y-9128936D01*
X14491954Y-9135342D01*
X14496251Y-9144055D01*
X14496886Y-9153750D01*
X14493763Y-9162950D01*
X14487357Y-9170255D01*
X14478644Y-9174552D01*
X14472199Y-9175400D01*
X14085561Y-9175400D01*
X14076033Y-9173505D01*
X14067954Y-9168107D01*
X13972269Y-9072422D01*
X13966872Y-9064344D01*
X13964976Y-9054815D01*
X13966871Y-9045287D01*
X13974861Y-9025999D01*
X13980969Y-9003201D01*
X13984050Y-8979801D01*
X13984050Y-8956199D01*
X13980969Y-8932799D01*
X13974861Y-8910001D01*
X13965828Y-8888195D01*
X13961942Y-8881465D01*
X13957533Y-8873828D01*
X13954027Y-8867755D01*
X13939659Y-8849030D01*
X13922970Y-8832341D01*
X13904245Y-8817973D01*
X13904244Y-8817972D01*
X13883805Y-8806172D01*
X13883804Y-8806171D01*
X13871722Y-8801167D01*
X13861999Y-8797139D01*
X13839201Y-8791031D01*
X13839201Y-8791031D01*
X13815801Y-8787950D01*
X13792199Y-8787950D01*
X13768799Y-8791031D01*
X13768799Y-8791031D01*
X13768799Y-8791031D01*
X13751564Y-8795649D01*
X13746001Y-8797139D01*
X13746001Y-8797139D01*
X13724196Y-8806171D01*
X13724194Y-8806172D01*
X13703756Y-8817972D01*
X13703754Y-8817973D01*
X13693708Y-8825682D01*
X13684995Y-8829979D01*
X13675300Y-8830614D01*
X13666100Y-8827491D01*
X13658795Y-8821086D01*
X13654498Y-8812372D01*
X13653650Y-8805927D01*
X13653650Y-8695759D01*
X13653650Y-8695758D01*
X13651482Y-8682069D01*
X13651863Y-8672361D01*
X13655931Y-8663538D01*
X13663065Y-8656943D01*
X13672180Y-8653580D01*
X13681888Y-8653962D01*
X13690711Y-8658029D01*
X13691231Y-8658417D01*
X13703755Y-8668027D01*
X13703756Y-8668028D01*
X13724194Y-8679828D01*
X13724195Y-8679828D01*
X13724195Y-8679828D01*
X13746001Y-8688861D01*
X13768799Y-8694969D01*
X13792199Y-8698050D01*
X13815801Y-8698050D01*
X13839201Y-8694969D01*
X13861999Y-8688861D01*
X13883805Y-8679828D01*
X13904245Y-8668027D01*
X13922970Y-8653659D01*
X13939659Y-8636970D01*
X13954027Y-8618245D01*
X13965828Y-8597805D01*
X13974861Y-8575999D01*
X13980969Y-8553201D01*
X13984050Y-8529801D01*
X13984050Y-8506199D01*
X13980969Y-8482799D01*
X13974861Y-8460001D01*
X13965828Y-8438195D01*
X13965815Y-8438172D01*
X13954028Y-8417756D01*
X13954027Y-8417755D01*
X13952945Y-8416344D01*
X13939659Y-8399030D01*
X13922970Y-8382341D01*
X13904245Y-8367973D01*
X13901414Y-8366338D01*
X13883805Y-8356172D01*
X13883804Y-8356171D01*
X13871722Y-8351167D01*
X13861999Y-8347139D01*
X13839201Y-8341031D01*
X13839201Y-8341031D01*
X13815801Y-8337950D01*
X13792199Y-8337950D01*
X13768799Y-8341031D01*
X13768799Y-8341031D01*
X13768799Y-8341031D01*
X13751564Y-8345649D01*
X13746001Y-8347139D01*
X13746001Y-8347139D01*
X13724196Y-8356171D01*
X13724194Y-8356172D01*
X13703756Y-8367972D01*
X13703755Y-8367973D01*
X13685030Y-8382341D01*
X13685030Y-8382341D01*
X13668341Y-8399030D01*
X13668341Y-8399030D01*
X13653973Y-8417755D01*
X13653972Y-8417756D01*
X13642172Y-8438195D01*
X13642171Y-8438196D01*
X13633794Y-8458420D01*
X13633139Y-8460001D01*
X13627031Y-8482799D01*
X13627031Y-8482799D01*
X13627031Y-8482799D01*
X13623950Y-8506199D01*
X13623950Y-8529801D01*
X13625571Y-8542112D01*
X13627031Y-8553201D01*
X13627320Y-8554283D01*
X13630058Y-8564501D01*
X13630694Y-8574196D01*
X13627571Y-8583396D01*
X13621165Y-8590700D01*
X13612451Y-8594997D01*
X13602757Y-8595633D01*
X13593557Y-8592510D01*
X13588400Y-8588553D01*
X13433465Y-8433617D01*
X13417540Y-8422048D01*
X13400003Y-8413112D01*
X13400002Y-8413112D01*
X13400002Y-8413111D01*
X13381282Y-8407029D01*
X13361843Y-8403950D01*
X13361842Y-8403950D01*
X13361842Y-8403950D01*
X13361841Y-8403950D01*
X13190676Y-8403950D01*
X13181148Y-8402055D01*
X13173069Y-8396657D01*
X13167672Y-8388579D01*
X13165776Y-8379050D01*
X13167672Y-8369521D01*
X13169112Y-8366600D01*
X13170804Y-8363670D01*
X13180840Y-8339442D01*
X13187627Y-8314112D01*
X13191050Y-8288112D01*
X13191050Y-8261888D01*
X13187627Y-8235888D01*
X13180840Y-8210558D01*
X13170804Y-8186330D01*
X13157692Y-8163620D01*
X13157692Y-8163619D01*
X13157338Y-8163158D01*
X13153041Y-8154445D01*
X13152406Y-8144750D01*
X13155529Y-8135550D01*
X13157338Y-8132842D01*
X13157520Y-8132605D01*
X13157692Y-8132380D01*
X13170804Y-8109670D01*
X13180840Y-8085442D01*
X13187627Y-8060112D01*
X13191050Y-8034112D01*
X13191050Y-8007888D01*
X13187627Y-7981888D01*
X13180840Y-7956558D01*
X13170804Y-7932330D01*
X13157692Y-7909620D01*
X13157692Y-7909619D01*
X13157692Y-7909619D01*
X13141729Y-7888815D01*
X13141728Y-7888815D01*
X13141728Y-7888815D01*
X13123185Y-7870272D01*
X13123185Y-7870271D01*
X13123184Y-7870271D01*
X13102381Y-7854308D01*
X13102380Y-7854307D01*
X13096294Y-7850793D01*
X13079670Y-7841196D01*
X13079669Y-7841196D01*
X13079669Y-7841195D01*
X13079669Y-7841195D01*
X13055442Y-7831160D01*
X13044473Y-7828221D01*
X13030112Y-7824373D01*
X13030111Y-7824373D01*
X13030111Y-7824373D01*
X13004112Y-7820950D01*
X12977888Y-7820950D01*
X12951889Y-7824373D01*
X12926558Y-7831160D01*
X12902331Y-7841195D01*
X12902331Y-7841195D01*
X12879620Y-7854307D01*
X12879619Y-7854308D01*
X12858815Y-7870271D01*
X12840271Y-7888815D01*
X12824308Y-7909619D01*
X12824307Y-7909620D01*
X12811195Y-7932331D01*
X12811195Y-7932331D01*
X12801160Y-7956558D01*
X12794373Y-7981889D01*
X12790950Y-8007888D01*
X12790950Y-8034112D01*
X12794373Y-8060111D01*
X12801160Y-8085442D01*
X12811195Y-8109669D01*
X12811195Y-8109669D01*
X12824307Y-8132380D01*
X12824308Y-8132381D01*
X12824662Y-8132842D01*
X12828959Y-8141556D01*
X12829594Y-8151251D01*
X12826471Y-8160451D01*
X12824662Y-8163158D01*
X12824308Y-8163619D01*
X12824307Y-8163620D01*
X12811195Y-8186331D01*
X12811195Y-8186331D01*
X12801160Y-8210558D01*
X12794373Y-8235889D01*
X12790950Y-8261888D01*
X12790950Y-8287888D01*
X12789055Y-8297417D01*
X12783657Y-8305495D01*
X12370717Y-8718436D01*
X12368148Y-8721971D01*
X12359328Y-8734112D01*
X12359147Y-8734360D01*
X12359147Y-8734360D01*
X12350212Y-8751897D01*
X12350211Y-8751898D01*
X12345645Y-8765952D01*
X12345645Y-8765952D01*
X12344129Y-8770617D01*
X12344129Y-8770618D01*
X12341050Y-8790057D01*
X12341050Y-8790059D01*
X12341050Y-12840291D01*
X12341050Y-12840293D01*
X12344129Y-12859732D01*
X12349263Y-12875532D01*
X12350212Y-12878453D01*
X12359148Y-12895990D01*
X12370717Y-12911915D01*
X12724635Y-13265833D01*
X12740559Y-13277402D01*
X12758097Y-13286338D01*
X12776817Y-13292421D01*
X12796258Y-13295500D01*
X12796259Y-13295500D01*
X13195941Y-13295500D01*
X13195942Y-13295500D01*
X13215383Y-13292421D01*
X13234103Y-13286338D01*
X13251640Y-13277402D01*
X13267565Y-13265833D01*
X13321483Y-13211915D01*
X13321483Y-13211914D01*
X13321483Y-13211914D01*
X13321484Y-13211914D01*
X13333052Y-13195991D01*
X13333052Y-13195991D01*
X13333853Y-13194420D01*
X13338518Y-13185264D01*
X13344532Y-13177635D01*
X13353009Y-13172887D01*
X13362657Y-13171745D01*
X13372008Y-13174382D01*
X13379638Y-13180397D01*
X13380458Y-13181410D01*
X13390441Y-13194420D01*
X13407130Y-13211109D01*
X13425855Y-13225477D01*
X13431681Y-13228841D01*
X13446294Y-13237278D01*
X13446295Y-13237278D01*
X13446295Y-13237278D01*
X13468101Y-13246311D01*
X13490899Y-13252419D01*
X13514299Y-13255500D01*
X13537901Y-13255500D01*
X13561301Y-13252419D01*
X13584099Y-13246311D01*
X13605905Y-13237278D01*
X13608589Y-13235729D01*
X13620519Y-13228841D01*
X13629719Y-13225718D01*
X13639414Y-13226353D01*
X13648127Y-13230650D01*
X13648899Y-13231327D01*
X13648910Y-13231313D01*
X13649889Y-13232111D01*
X13649889Y-13232111D01*
X13665659Y-13244970D01*
X13683695Y-13254391D01*
X13703258Y-13259989D01*
X13715196Y-13261050D01*
X13896804Y-13261050D01*
X13908742Y-13259989D01*
X13928305Y-13254391D01*
X13946341Y-13244970D01*
X13962111Y-13232111D01*
X13974970Y-13216341D01*
X13975972Y-13214421D01*
X13982064Y-13206853D01*
X13990588Y-13202192D01*
X13998043Y-13201050D01*
X14092841Y-13201050D01*
X14092842Y-13201050D01*
X14112283Y-13197971D01*
X14131003Y-13191888D01*
X14138887Y-13187871D01*
X18064950Y-13187871D01*
X18064950Y-13212129D01*
X18065505Y-13216341D01*
X18068116Y-13236179D01*
X18068116Y-13236179D01*
X18074394Y-13259608D01*
X18074395Y-13259610D01*
X18083677Y-13282020D01*
X18083678Y-13282022D01*
X18095806Y-13303028D01*
X18095806Y-13303029D01*
X18110573Y-13322273D01*
X18110574Y-13322274D01*
X18127726Y-13339426D01*
X18127727Y-13339427D01*
X18139849Y-13348729D01*
X18146971Y-13354194D01*
X18146972Y-13354194D01*
X18167978Y-13366322D01*
X18167980Y-13366323D01*
X18181986Y-13372124D01*
X18190390Y-13375605D01*
X18190391Y-13375606D01*
X18190392Y-13375606D01*
X18208702Y-13380512D01*
X18213821Y-13381884D01*
X18237871Y-13385050D01*
X18262129Y-13385050D01*
X18286179Y-13381884D01*
X18302328Y-13377557D01*
X18309608Y-13375606D01*
X18309608Y-13375606D01*
X18309610Y-13375605D01*
X18324777Y-13369323D01*
X18332020Y-13366323D01*
X18332021Y-13366323D01*
X18332021Y-13366322D01*
X18353029Y-13354194D01*
X18372274Y-13339426D01*
X18389427Y-13322274D01*
X18404194Y-13303029D01*
X18416322Y-13282021D01*
X18425605Y-13259610D01*
X18425726Y-13259160D01*
X18429528Y-13244970D01*
X18431884Y-13236179D01*
X18435050Y-13212129D01*
X18435050Y-13187871D01*
X18431884Y-13163821D01*
X18425605Y-13140390D01*
X18422124Y-13131986D01*
X18416323Y-13117980D01*
X18416322Y-13117978D01*
X18404194Y-13096972D01*
X18404194Y-13096971D01*
X18389427Y-13077727D01*
X18389426Y-13077726D01*
X18372274Y-13060574D01*
X18372273Y-13060573D01*
X18353029Y-13045806D01*
X18353028Y-13045806D01*
X18332022Y-13033678D01*
X18332020Y-13033677D01*
X18309611Y-13024395D01*
X18309610Y-13024395D01*
X18309610Y-13024395D01*
X18309610Y-13024394D01*
X18309608Y-13024394D01*
X18286180Y-13018116D01*
X18286179Y-13018116D01*
X18262129Y-13014950D01*
X18237871Y-13014950D01*
X18213821Y-13018116D01*
X18213820Y-13018116D01*
X18190392Y-13024394D01*
X18190389Y-13024395D01*
X18167980Y-13033677D01*
X18167978Y-13033678D01*
X18146972Y-13045806D01*
X18146971Y-13045806D01*
X18127727Y-13060573D01*
X18127726Y-13060574D01*
X18110574Y-13077726D01*
X18110573Y-13077727D01*
X18095806Y-13096971D01*
X18095806Y-13096972D01*
X18083678Y-13117978D01*
X18083677Y-13117980D01*
X18074395Y-13140389D01*
X18074394Y-13140392D01*
X18068116Y-13163820D01*
X18068116Y-13163821D01*
X18066190Y-13178452D01*
X18064950Y-13187871D01*
X14138887Y-13187871D01*
X14148540Y-13182952D01*
X14164465Y-13171383D01*
X14236383Y-13099465D01*
X14247952Y-13083540D01*
X14256888Y-13066003D01*
X14262971Y-13047283D01*
X14264327Y-13038717D01*
X14266050Y-13027842D01*
X14266050Y-13007202D01*
X14266092Y-13006475D01*
X14266572Y-13004635D01*
X14267269Y-13000236D01*
X14267848Y-12998453D01*
X14267848Y-12998452D01*
X14271050Y-12978236D01*
X14271050Y-12978235D01*
X14271050Y-12971950D01*
X14272945Y-12962421D01*
X14278343Y-12954343D01*
X14286421Y-12948945D01*
X14295950Y-12947050D01*
X14496841Y-12947050D01*
X14496842Y-12947050D01*
X14516283Y-12943971D01*
X14535003Y-12937888D01*
X14552540Y-12928952D01*
X14568465Y-12917383D01*
X14705504Y-12780343D01*
X14713583Y-12774945D01*
X14723111Y-12773050D01*
X15326685Y-12773050D01*
X15336214Y-12774945D01*
X15344292Y-12780343D01*
X15349689Y-12788421D01*
X15351585Y-12797950D01*
X15351487Y-12800155D01*
X15350950Y-12806196D01*
X15350950Y-12997803D01*
X15350950Y-12997804D01*
X15352011Y-13009741D01*
X15352011Y-13009742D01*
X15352011Y-13009742D01*
X15356204Y-13024395D01*
X15357609Y-13029304D01*
X15357609Y-13029305D01*
X15367000Y-13047283D01*
X15367030Y-13047341D01*
X15379889Y-13063111D01*
X15395659Y-13075970D01*
X15413695Y-13085391D01*
X15433258Y-13090989D01*
X15445196Y-13092050D01*
X15636804Y-13092050D01*
X15648742Y-13090989D01*
X15668305Y-13085391D01*
X15686341Y-13075970D01*
X15702111Y-13063111D01*
X15714970Y-13047341D01*
X15724391Y-13029305D01*
X15729989Y-13009742D01*
X15731050Y-12997804D01*
X15731050Y-12806196D01*
X15729989Y-12794258D01*
X15724391Y-12774695D01*
X15714970Y-12756659D01*
X15714969Y-12756659D01*
X15714275Y-12755605D01*
X15714530Y-12755436D01*
X15711016Y-12748812D01*
X15710093Y-12739140D01*
X15711861Y-12732129D01*
X15721350Y-12709221D01*
X15727798Y-12685156D01*
X15731050Y-12660456D01*
X15731050Y-12635543D01*
X15727798Y-12610843D01*
X15721350Y-12586779D01*
X15711816Y-12563763D01*
X15699360Y-12542187D01*
X15685360Y-12523942D01*
X15684194Y-12522423D01*
X15684193Y-12522422D01*
X15673343Y-12511572D01*
X15667945Y-12503493D01*
X15666050Y-12493965D01*
X15666050Y-12424950D01*
X15667945Y-12415421D01*
X15673343Y-12407343D01*
X15681421Y-12401945D01*
X15690950Y-12400050D01*
X17966041Y-12400050D01*
X17966042Y-12400050D01*
X17985483Y-12396971D01*
X18004203Y-12390888D01*
X18021741Y-12381952D01*
X18037665Y-12370383D01*
X18191390Y-12216658D01*
X18194701Y-12213877D01*
X18196133Y-12212873D01*
X18199361Y-12211229D01*
X18215922Y-12199197D01*
X18216586Y-12198533D01*
X18218191Y-12197407D01*
X18221570Y-12195918D01*
X18224790Y-12194114D01*
X18225983Y-12193973D01*
X18227081Y-12193489D01*
X18230773Y-12193406D01*
X18234439Y-12192972D01*
X18236249Y-12193283D01*
X18236794Y-12193270D01*
X18237284Y-12193460D01*
X18238930Y-12193743D01*
X18260888Y-12199627D01*
X18286888Y-12203050D01*
X18313112Y-12203050D01*
X18339112Y-12199627D01*
X18364442Y-12192840D01*
X18388670Y-12182804D01*
X18411380Y-12169692D01*
X18432185Y-12153728D01*
X18450728Y-12135185D01*
X18455296Y-12129232D01*
X18462600Y-12122827D01*
X18471800Y-12119704D01*
X18481495Y-12120339D01*
X18490208Y-12124636D01*
X18496614Y-12131941D01*
X18499737Y-12141141D01*
X18499950Y-12144391D01*
X18499950Y-13425050D01*
X18498055Y-13434579D01*
X18492657Y-13442657D01*
X18484579Y-13448055D01*
X18475050Y-13449950D01*
X10624950Y-13449950D01*
X10615421Y-13448055D01*
X10607343Y-13442657D01*
X10601945Y-13434579D01*
X10600050Y-13425050D01*
X10600050Y-13187421D01*
X10654850Y-13187421D01*
X10654850Y-13211679D01*
X10655211Y-13214422D01*
X10658016Y-13235729D01*
X10658016Y-13235729D01*
X10664294Y-13259158D01*
X10664295Y-13259160D01*
X10673577Y-13281570D01*
X10673578Y-13281572D01*
X10685706Y-13302578D01*
X10685706Y-13302579D01*
X10700473Y-13321823D01*
X10700474Y-13321824D01*
X10717626Y-13338976D01*
X10717627Y-13338977D01*
X10718213Y-13339427D01*
X10736871Y-13353744D01*
X10737651Y-13354194D01*
X10757878Y-13365872D01*
X10757880Y-13365873D01*
X10771886Y-13371674D01*
X10780290Y-13375155D01*
X10780291Y-13375156D01*
X10780292Y-13375156D01*
X10798602Y-13380062D01*
X10803721Y-13381434D01*
X10827771Y-13384600D01*
X10852029Y-13384600D01*
X10876079Y-13381434D01*
X10892228Y-13377107D01*
X10899508Y-13375156D01*
X10899508Y-13375156D01*
X10899510Y-13375155D01*
X10914677Y-13368873D01*
X10921920Y-13365873D01*
X10921921Y-13365873D01*
X10921921Y-13365872D01*
X10942929Y-13353744D01*
X10962174Y-13338976D01*
X10979327Y-13321824D01*
X10994094Y-13302579D01*
X11006222Y-13281571D01*
X11015505Y-13259160D01*
X11021784Y-13235729D01*
X11024950Y-13211679D01*
X11024950Y-13187421D01*
X11021784Y-13163371D01*
X11019609Y-13155255D01*
X11015506Y-13139942D01*
X11015506Y-13139941D01*
X11015505Y-13139940D01*
X11012024Y-13131536D01*
X11006223Y-13117530D01*
X11006222Y-13117528D01*
X10995793Y-13099465D01*
X10994094Y-13096521D01*
X10979327Y-13077276D01*
X10962174Y-13060123D01*
X10962174Y-13060123D01*
X10962173Y-13060123D01*
X10942929Y-13045356D01*
X10942928Y-13045356D01*
X10921922Y-13033228D01*
X10921920Y-13033227D01*
X10899511Y-13023945D01*
X10899510Y-13023945D01*
X10899510Y-13023945D01*
X10899510Y-13023944D01*
X10899508Y-13023944D01*
X10876080Y-13017666D01*
X10876079Y-13017666D01*
X10852029Y-13014500D01*
X10827771Y-13014500D01*
X10803721Y-13017666D01*
X10803720Y-13017666D01*
X10780292Y-13023944D01*
X10780289Y-13023945D01*
X10757880Y-13033227D01*
X10757878Y-13033228D01*
X10736872Y-13045356D01*
X10736871Y-13045356D01*
X10717627Y-13060123D01*
X10717626Y-13060124D01*
X10700474Y-13077276D01*
X10700473Y-13077277D01*
X10685706Y-13096521D01*
X10685706Y-13096522D01*
X10673578Y-13117528D01*
X10673577Y-13117530D01*
X10664295Y-13139939D01*
X10664294Y-13139942D01*
X10658016Y-13163370D01*
X10658016Y-13163371D01*
X10656138Y-13177635D01*
X10654850Y-13187421D01*
X10600050Y-13187421D01*
X10600050Y-12168199D01*
X10660950Y-12168199D01*
X10660950Y-12191801D01*
X10664031Y-12215201D01*
X10670139Y-12237999D01*
X10671470Y-12241212D01*
X10679171Y-12259804D01*
X10679172Y-12259805D01*
X10690972Y-12280244D01*
X10690973Y-12280245D01*
X10705341Y-12298970D01*
X10722030Y-12315659D01*
X10740755Y-12330027D01*
X10740756Y-12330028D01*
X10761195Y-12341828D01*
X10761195Y-12341828D01*
X10761195Y-12341828D01*
X10783001Y-12350861D01*
X10805799Y-12356969D01*
X10829199Y-12360050D01*
X10852801Y-12360050D01*
X10876201Y-12356969D01*
X10898999Y-12350861D01*
X10920805Y-12341828D01*
X10941245Y-12330027D01*
X10959970Y-12315659D01*
X10976659Y-12298970D01*
X10991027Y-12280245D01*
X11002828Y-12259805D01*
X11011861Y-12237999D01*
X11017969Y-12215201D01*
X11021050Y-12191801D01*
X11021050Y-12168199D01*
X11017969Y-12144799D01*
X11011861Y-12122001D01*
X11002828Y-12100195D01*
X11002509Y-12099641D01*
X10991028Y-12079756D01*
X10991027Y-12079755D01*
X10976659Y-12061030D01*
X10959970Y-12044341D01*
X10941245Y-12029973D01*
X10941244Y-12029972D01*
X10920805Y-12018172D01*
X10920804Y-12018171D01*
X10904039Y-12011227D01*
X10898999Y-12009139D01*
X10876201Y-12003031D01*
X10876201Y-12003031D01*
X10852801Y-11999950D01*
X10829199Y-11999950D01*
X10805799Y-12003031D01*
X10805799Y-12003031D01*
X10805799Y-12003031D01*
X10790376Y-12007163D01*
X10783001Y-12009139D01*
X10783001Y-12009139D01*
X10761196Y-12018171D01*
X10761195Y-12018172D01*
X10740756Y-12029972D01*
X10740755Y-12029973D01*
X10722030Y-12044341D01*
X10722030Y-12044341D01*
X10705341Y-12061030D01*
X10705341Y-12061030D01*
X10690973Y-12079755D01*
X10690972Y-12079756D01*
X10679172Y-12100194D01*
X10679171Y-12100196D01*
X10672823Y-12115521D01*
X10670139Y-12122001D01*
X10664031Y-12144799D01*
X10664031Y-12144799D01*
X10664031Y-12144799D01*
X10661968Y-12160465D01*
X10660950Y-12168199D01*
X10600050Y-12168199D01*
X10600050Y-11068199D01*
X10660950Y-11068199D01*
X10660950Y-11091801D01*
X10664031Y-11115201D01*
X10670139Y-11137999D01*
X10671564Y-11141439D01*
X10679171Y-11159804D01*
X10679172Y-11159805D01*
X10688844Y-11176558D01*
X10690973Y-11180245D01*
X10705341Y-11198970D01*
X10722030Y-11215659D01*
X10734125Y-11224940D01*
X10739736Y-11229245D01*
X10746142Y-11236550D01*
X10749265Y-11245750D01*
X10748629Y-11255445D01*
X10744332Y-11264158D01*
X10739736Y-11268754D01*
X10722030Y-11282341D01*
X10722030Y-11282341D01*
X10705341Y-11299030D01*
X10705341Y-11299030D01*
X10690973Y-11317755D01*
X10690972Y-11317756D01*
X10679172Y-11338194D01*
X10679171Y-11338196D01*
X10672026Y-11355445D01*
X10670139Y-11360001D01*
X10664031Y-11382799D01*
X10664031Y-11382799D01*
X10664031Y-11382799D01*
X10662100Y-11397466D01*
X10660950Y-11406199D01*
X10660950Y-11429801D01*
X10664031Y-11453201D01*
X10670139Y-11475999D01*
X10672579Y-11481888D01*
X10679171Y-11497804D01*
X10679172Y-11497805D01*
X10687689Y-11512558D01*
X10690973Y-11518245D01*
X10705341Y-11536970D01*
X10722030Y-11553659D01*
X10740755Y-11568027D01*
X10741005Y-11568172D01*
X10761195Y-11579828D01*
X10761195Y-11579828D01*
X10761195Y-11579828D01*
X10783001Y-11588861D01*
X10805799Y-11594969D01*
X10829199Y-11598050D01*
X10852801Y-11598050D01*
X10876201Y-11594969D01*
X10898999Y-11588861D01*
X10920805Y-11579828D01*
X10941245Y-11568027D01*
X10959970Y-11553659D01*
X10976659Y-11536970D01*
X10991027Y-11518245D01*
X11002828Y-11497805D01*
X11011861Y-11475999D01*
X11017969Y-11453201D01*
X11021050Y-11429801D01*
X11021050Y-11406199D01*
X11017969Y-11382799D01*
X11011861Y-11360001D01*
X11002828Y-11338195D01*
X11001626Y-11336112D01*
X10991028Y-11317756D01*
X10991027Y-11317755D01*
X10986665Y-11312070D01*
X10976659Y-11299030D01*
X10959970Y-11282341D01*
X10947760Y-11272972D01*
X10942264Y-11268754D01*
X10935858Y-11261450D01*
X10932735Y-11252250D01*
X10933370Y-11242555D01*
X10937668Y-11233842D01*
X10942264Y-11229245D01*
X10947875Y-11224940D01*
X10959970Y-11215659D01*
X10976659Y-11198970D01*
X10991027Y-11180245D01*
X11002828Y-11159805D01*
X11011861Y-11137999D01*
X11017969Y-11115201D01*
X11021050Y-11091801D01*
X11021050Y-11068199D01*
X11017969Y-11044799D01*
X11011861Y-11022001D01*
X11002828Y-11000195D01*
X11002780Y-11000112D01*
X10992081Y-10981579D01*
X10991027Y-10979755D01*
X10976659Y-10961030D01*
X10959970Y-10944341D01*
X10941245Y-10929973D01*
X10940513Y-10929550D01*
X10920805Y-10918172D01*
X10920804Y-10918171D01*
X10908722Y-10913167D01*
X10898999Y-10909139D01*
X10876201Y-10903031D01*
X10876201Y-10903031D01*
X10852801Y-10899950D01*
X10829199Y-10899950D01*
X10805799Y-10903031D01*
X10805799Y-10903031D01*
X10805799Y-10903031D01*
X10791586Y-10906839D01*
X10783001Y-10909139D01*
X10783001Y-10909139D01*
X10761196Y-10918171D01*
X10761195Y-10918172D01*
X10740756Y-10929972D01*
X10740755Y-10929973D01*
X10722030Y-10944341D01*
X10722030Y-10944341D01*
X10705341Y-10961030D01*
X10705341Y-10961030D01*
X10690973Y-10979755D01*
X10690972Y-10979756D01*
X10679172Y-11000195D01*
X10679171Y-11000196D01*
X10677364Y-11004558D01*
X10670139Y-11022001D01*
X10664031Y-11044799D01*
X10664031Y-11044799D01*
X10664031Y-11044799D01*
X10661882Y-11061117D01*
X10660950Y-11068199D01*
X10600050Y-11068199D01*
X10600050Y-10306199D01*
X10660950Y-10306199D01*
X10660950Y-10329801D01*
X10664031Y-10353201D01*
X10670139Y-10375999D01*
X10670139Y-10375999D01*
X10679171Y-10397804D01*
X10679172Y-10397805D01*
X10688844Y-10414558D01*
X10690973Y-10418245D01*
X10705341Y-10436970D01*
X10722030Y-10453659D01*
X10740755Y-10468027D01*
X10740756Y-10468028D01*
X10761195Y-10479828D01*
X10761195Y-10479828D01*
X10761195Y-10479828D01*
X10783001Y-10488861D01*
X10805799Y-10494969D01*
X10829199Y-10498050D01*
X10852801Y-10498050D01*
X10876201Y-10494969D01*
X10898999Y-10488861D01*
X10920805Y-10479828D01*
X10941245Y-10468027D01*
X10959970Y-10453659D01*
X10976659Y-10436970D01*
X10991027Y-10418245D01*
X11002828Y-10397805D01*
X11011861Y-10375999D01*
X11017969Y-10353201D01*
X11021050Y-10329801D01*
X11021050Y-10306199D01*
X11017969Y-10282799D01*
X11011861Y-10260001D01*
X11002828Y-10238195D01*
X11002780Y-10238112D01*
X10991556Y-10218672D01*
X10991027Y-10217755D01*
X10976659Y-10199030D01*
X10959970Y-10182341D01*
X10941245Y-10167973D01*
X10938802Y-10166562D01*
X10920805Y-10156172D01*
X10920804Y-10156171D01*
X10908722Y-10151167D01*
X10898999Y-10147139D01*
X10876201Y-10141031D01*
X10876201Y-10141031D01*
X10852801Y-10137950D01*
X10829199Y-10137950D01*
X10805799Y-10141031D01*
X10805799Y-10141031D01*
X10805799Y-10141031D01*
X10788564Y-10145649D01*
X10783001Y-10147139D01*
X10783001Y-10147139D01*
X10761196Y-10156171D01*
X10761195Y-10156172D01*
X10740756Y-10167972D01*
X10740755Y-10167973D01*
X10722030Y-10182341D01*
X10722030Y-10182341D01*
X10705341Y-10199030D01*
X10705341Y-10199030D01*
X10690973Y-10217755D01*
X10690972Y-10217756D01*
X10679172Y-10238195D01*
X10679171Y-10238196D01*
X10672202Y-10255021D01*
X10670139Y-10260001D01*
X10664031Y-10282799D01*
X10664031Y-10282799D01*
X10664031Y-10282799D01*
X10662418Y-10295052D01*
X10660950Y-10306199D01*
X10600050Y-10306199D01*
X10600050Y-9699614D01*
X10601945Y-9690085D01*
X10607343Y-9682007D01*
X10615421Y-9676609D01*
X10624950Y-9674714D01*
X10634479Y-9676609D01*
X10642557Y-9682007D01*
X10647955Y-9690085D01*
X10649002Y-9693169D01*
X10649131Y-9693651D01*
X10649131Y-9693651D01*
X10651765Y-9703481D01*
X10655239Y-9716449D01*
X10655239Y-9716449D01*
X10664271Y-9738254D01*
X10664272Y-9738255D01*
X10676072Y-9758694D01*
X10676073Y-9758695D01*
X10690441Y-9777420D01*
X10707130Y-9794109D01*
X10725855Y-9808477D01*
X10725856Y-9808478D01*
X10746295Y-9820278D01*
X10746295Y-9820278D01*
X10746295Y-9820278D01*
X10768101Y-9829311D01*
X10790899Y-9835419D01*
X10814299Y-9838500D01*
X10837901Y-9838500D01*
X10861301Y-9835419D01*
X10884099Y-9829311D01*
X10905905Y-9820278D01*
X10926345Y-9808477D01*
X10945070Y-9794109D01*
X10961759Y-9777420D01*
X10976127Y-9758695D01*
X10987928Y-9738255D01*
X10996961Y-9716449D01*
X11003069Y-9693651D01*
X11006150Y-9670251D01*
X11006150Y-9665561D01*
X11008045Y-9656033D01*
X11013443Y-9647955D01*
X11082051Y-9579346D01*
X11093621Y-9563422D01*
X11096326Y-9558112D01*
X11102557Y-9545884D01*
X11108639Y-9527164D01*
X11108666Y-9526997D01*
X11111718Y-9507724D01*
X11111718Y-9488040D01*
X11111718Y-9405130D01*
X11113614Y-9395601D01*
X11119011Y-9387523D01*
X11224443Y-9282091D01*
X11232521Y-9276693D01*
X11242050Y-9274798D01*
X11251579Y-9276693D01*
X11259657Y-9282091D01*
X11265055Y-9290169D01*
X11266950Y-9299698D01*
X11266950Y-9304112D01*
X11270373Y-9330111D01*
X11277160Y-9355442D01*
X11287195Y-9379669D01*
X11287195Y-9379669D01*
X11287196Y-9379670D01*
X11294459Y-9392251D01*
X11300307Y-9402380D01*
X11300308Y-9402381D01*
X11300662Y-9402842D01*
X11304959Y-9411556D01*
X11305594Y-9421251D01*
X11302471Y-9430451D01*
X11300662Y-9433158D01*
X11300308Y-9433619D01*
X11300307Y-9433620D01*
X11287195Y-9456331D01*
X11287195Y-9456331D01*
X11277160Y-9480558D01*
X11270373Y-9505889D01*
X11267648Y-9526589D01*
X11266950Y-9531888D01*
X11266950Y-9558112D01*
X11267011Y-9558577D01*
X11270373Y-9584111D01*
X11277160Y-9609442D01*
X11287195Y-9633669D01*
X11287195Y-9633669D01*
X11287196Y-9633670D01*
X11294689Y-9646649D01*
X11300307Y-9656380D01*
X11300308Y-9656381D01*
X11300662Y-9656842D01*
X11304959Y-9665556D01*
X11305594Y-9675251D01*
X11302471Y-9684451D01*
X11300662Y-9687158D01*
X11300308Y-9687619D01*
X11300307Y-9687620D01*
X11287195Y-9710331D01*
X11287195Y-9710331D01*
X11277160Y-9734558D01*
X11270373Y-9759889D01*
X11266950Y-9785888D01*
X11266950Y-9812112D01*
X11270373Y-9838111D01*
X11277160Y-9863442D01*
X11287195Y-9887669D01*
X11287195Y-9887669D01*
X11300307Y-9910380D01*
X11300308Y-9910381D01*
X11300662Y-9910842D01*
X11304959Y-9919556D01*
X11305594Y-9929251D01*
X11302471Y-9938451D01*
X11300662Y-9941158D01*
X11300308Y-9941619D01*
X11300307Y-9941620D01*
X11287195Y-9964331D01*
X11287195Y-9964331D01*
X11277160Y-9988558D01*
X11270373Y-10013889D01*
X11266950Y-10039888D01*
X11266950Y-10066112D01*
X11269715Y-10087111D01*
X11270373Y-10092112D01*
X11270561Y-10092815D01*
X11277160Y-10117442D01*
X11287195Y-10141669D01*
X11287195Y-10141669D01*
X11300307Y-10164380D01*
X11300308Y-10164381D01*
X11300662Y-10164842D01*
X11304959Y-10173556D01*
X11305594Y-10183251D01*
X11302471Y-10192451D01*
X11300662Y-10195158D01*
X11300308Y-10195619D01*
X11300307Y-10195620D01*
X11287195Y-10218331D01*
X11287195Y-10218331D01*
X11277160Y-10242558D01*
X11270373Y-10267889D01*
X11266950Y-10293888D01*
X11266950Y-10320112D01*
X11270373Y-10346111D01*
X11277160Y-10371442D01*
X11287195Y-10395669D01*
X11287195Y-10395669D01*
X11287196Y-10395670D01*
X11288675Y-10398233D01*
X11300307Y-10418380D01*
X11300308Y-10418381D01*
X11300662Y-10418842D01*
X11304959Y-10427556D01*
X11305594Y-10437251D01*
X11302471Y-10446451D01*
X11300662Y-10449158D01*
X11300308Y-10449619D01*
X11300307Y-10449620D01*
X11287195Y-10472331D01*
X11287195Y-10472331D01*
X11277160Y-10496558D01*
X11270373Y-10521889D01*
X11266950Y-10547888D01*
X11266950Y-10574112D01*
X11270373Y-10600111D01*
X11277160Y-10625442D01*
X11287195Y-10649669D01*
X11287195Y-10649669D01*
X11300307Y-10672380D01*
X11300308Y-10672381D01*
X11300662Y-10672842D01*
X11304959Y-10681556D01*
X11305594Y-10691251D01*
X11302471Y-10700451D01*
X11300662Y-10703158D01*
X11300308Y-10703619D01*
X11300307Y-10703620D01*
X11287195Y-10726331D01*
X11287195Y-10726331D01*
X11277160Y-10750558D01*
X11270373Y-10775889D01*
X11266950Y-10801888D01*
X11266950Y-10828112D01*
X11270373Y-10854111D01*
X11277160Y-10879442D01*
X11287195Y-10903669D01*
X11287195Y-10903669D01*
X11300307Y-10926380D01*
X11300308Y-10926381D01*
X11300662Y-10926842D01*
X11304959Y-10935556D01*
X11305594Y-10945251D01*
X11302471Y-10954451D01*
X11300662Y-10957158D01*
X11300308Y-10957619D01*
X11300307Y-10957620D01*
X11287195Y-10980331D01*
X11287195Y-10980331D01*
X11277160Y-11004558D01*
X11270373Y-11029889D01*
X11266950Y-11055888D01*
X11266950Y-11082112D01*
X11270373Y-11108111D01*
X11277160Y-11133442D01*
X11287195Y-11157669D01*
X11287195Y-11157669D01*
X11287196Y-11157670D01*
X11291107Y-11164444D01*
X11300307Y-11180380D01*
X11300308Y-11180381D01*
X11300662Y-11180842D01*
X11304959Y-11189556D01*
X11305594Y-11199251D01*
X11302471Y-11208451D01*
X11300662Y-11211158D01*
X11300308Y-11211619D01*
X11300307Y-11211620D01*
X11287195Y-11234331D01*
X11287195Y-11234331D01*
X11277160Y-11258558D01*
X11270373Y-11283889D01*
X11266950Y-11309888D01*
X11266950Y-11336112D01*
X11270373Y-11362111D01*
X11277160Y-11387442D01*
X11287195Y-11411669D01*
X11287195Y-11411669D01*
X11300307Y-11434380D01*
X11300308Y-11434381D01*
X11300662Y-11434842D01*
X11304959Y-11443556D01*
X11305594Y-11453251D01*
X11302471Y-11462451D01*
X11300662Y-11465158D01*
X11300308Y-11465619D01*
X11300307Y-11465620D01*
X11287195Y-11488331D01*
X11287195Y-11488331D01*
X11277160Y-11512558D01*
X11270373Y-11537889D01*
X11266950Y-11563888D01*
X11266950Y-11590112D01*
X11270373Y-11616111D01*
X11277160Y-11641442D01*
X11287195Y-11665669D01*
X11287195Y-11665669D01*
X11300307Y-11688380D01*
X11300308Y-11688381D01*
X11300662Y-11688842D01*
X11304959Y-11697556D01*
X11305594Y-11707251D01*
X11302471Y-11716451D01*
X11300662Y-11719158D01*
X11300308Y-11719619D01*
X11300307Y-11719620D01*
X11287195Y-11742331D01*
X11287195Y-11742331D01*
X11277160Y-11766558D01*
X11270373Y-11791889D01*
X11266950Y-11817888D01*
X11266950Y-11844112D01*
X11270373Y-11870111D01*
X11277160Y-11895442D01*
X11287195Y-11919669D01*
X11287195Y-11919669D01*
X11300307Y-11942380D01*
X11300308Y-11942381D01*
X11300662Y-11942842D01*
X11304959Y-11951556D01*
X11305594Y-11961251D01*
X11302471Y-11970451D01*
X11300662Y-11973158D01*
X11300308Y-11973619D01*
X11300307Y-11973620D01*
X11287195Y-11996331D01*
X11287195Y-11996331D01*
X11277160Y-12020558D01*
X11270373Y-12045889D01*
X11266950Y-12071888D01*
X11266950Y-12098112D01*
X11270204Y-12122827D01*
X11270373Y-12124112D01*
X11270624Y-12125050D01*
X11277160Y-12149442D01*
X11287195Y-12173669D01*
X11287195Y-12173669D01*
X11287196Y-12173670D01*
X11291826Y-12181689D01*
X11300307Y-12196380D01*
X11300308Y-12196381D01*
X11300662Y-12196842D01*
X11304959Y-12205556D01*
X11305594Y-12215251D01*
X11302471Y-12224451D01*
X11300662Y-12227158D01*
X11300308Y-12227619D01*
X11300307Y-12227620D01*
X11287195Y-12250331D01*
X11287195Y-12250331D01*
X11277160Y-12274558D01*
X11270373Y-12299889D01*
X11266950Y-12325888D01*
X11266950Y-12352112D01*
X11270373Y-12378111D01*
X11277160Y-12403442D01*
X11287195Y-12427669D01*
X11287195Y-12427669D01*
X11300307Y-12450380D01*
X11300308Y-12450381D01*
X11300662Y-12450842D01*
X11304959Y-12459556D01*
X11305594Y-12469251D01*
X11302471Y-12478451D01*
X11300662Y-12481158D01*
X11300308Y-12481619D01*
X11300307Y-12481620D01*
X11287195Y-12504331D01*
X11287195Y-12504331D01*
X11277160Y-12528558D01*
X11270373Y-12553889D01*
X11266950Y-12579888D01*
X11266950Y-12606112D01*
X11270373Y-12632111D01*
X11277160Y-12657442D01*
X11287195Y-12681669D01*
X11287195Y-12681669D01*
X11287196Y-12681670D01*
X11295626Y-12696272D01*
X11300307Y-12704380D01*
X11300308Y-12704381D01*
X11300662Y-12704842D01*
X11304959Y-12713556D01*
X11305594Y-12723251D01*
X11302471Y-12732451D01*
X11300662Y-12735158D01*
X11300308Y-12735619D01*
X11300307Y-12735620D01*
X11287195Y-12758331D01*
X11287195Y-12758331D01*
X11277160Y-12782558D01*
X11270373Y-12807889D01*
X11266950Y-12833888D01*
X11266950Y-12860112D01*
X11270373Y-12886111D01*
X11277160Y-12911442D01*
X11287195Y-12935669D01*
X11287195Y-12935669D01*
X11287196Y-12935670D01*
X11289575Y-12939791D01*
X11300307Y-12958380D01*
X11300308Y-12958381D01*
X11315543Y-12978235D01*
X11316272Y-12979185D01*
X11334815Y-12997728D01*
X11334815Y-12997728D01*
X11334815Y-12997729D01*
X11355619Y-13013692D01*
X11355619Y-13013692D01*
X11355620Y-13013692D01*
X11378330Y-13026804D01*
X11402558Y-13036840D01*
X11427888Y-13043627D01*
X11453888Y-13047050D01*
X11480112Y-13047050D01*
X11506112Y-13043627D01*
X11531442Y-13036840D01*
X11555670Y-13026804D01*
X11578380Y-13013692D01*
X11599185Y-12997728D01*
X11617728Y-12979185D01*
X11633692Y-12958380D01*
X11646804Y-12935670D01*
X11656840Y-12911442D01*
X11663627Y-12886112D01*
X11667050Y-12860112D01*
X11667050Y-12833888D01*
X11663627Y-12807888D01*
X11656840Y-12782558D01*
X11646804Y-12758330D01*
X11633692Y-12735620D01*
X11633692Y-12735619D01*
X11633338Y-12735158D01*
X11629041Y-12726445D01*
X11628406Y-12716750D01*
X11631529Y-12707550D01*
X11633338Y-12704842D01*
X11633520Y-12704605D01*
X11633692Y-12704380D01*
X11646804Y-12681670D01*
X11656840Y-12657442D01*
X11663627Y-12632112D01*
X11667050Y-12606112D01*
X11667050Y-12579888D01*
X11663627Y-12553888D01*
X11656840Y-12528558D01*
X11646804Y-12504330D01*
X11633692Y-12481620D01*
X11633692Y-12481619D01*
X11633338Y-12481158D01*
X11629041Y-12472445D01*
X11628406Y-12462750D01*
X11631529Y-12453550D01*
X11633338Y-12450842D01*
X11633520Y-12450605D01*
X11633692Y-12450380D01*
X11646804Y-12427670D01*
X11656840Y-12403442D01*
X11663627Y-12378112D01*
X11667050Y-12352112D01*
X11667050Y-12325888D01*
X11663627Y-12299888D01*
X11656840Y-12274558D01*
X11646804Y-12250330D01*
X11633692Y-12227620D01*
X11633692Y-12227619D01*
X11633338Y-12227158D01*
X11629041Y-12218445D01*
X11628406Y-12208750D01*
X11631529Y-12199550D01*
X11633338Y-12196842D01*
X11633520Y-12196605D01*
X11633692Y-12196380D01*
X11646804Y-12173670D01*
X11656840Y-12149442D01*
X11663627Y-12124112D01*
X11667050Y-12098112D01*
X11667050Y-12071888D01*
X11663627Y-12045888D01*
X11656840Y-12020558D01*
X11650348Y-12004884D01*
X11646804Y-11996331D01*
X11646804Y-11996331D01*
X11646804Y-11996330D01*
X11633692Y-11973620D01*
X11633692Y-11973619D01*
X11633338Y-11973158D01*
X11629041Y-11964445D01*
X11628406Y-11954750D01*
X11631529Y-11945550D01*
X11633338Y-11942842D01*
X11633520Y-11942605D01*
X11633692Y-11942380D01*
X11646804Y-11919670D01*
X11656840Y-11895442D01*
X11663627Y-11870112D01*
X11667050Y-11844112D01*
X11667050Y-11817888D01*
X11663627Y-11791888D01*
X11656840Y-11766558D01*
X11646804Y-11742330D01*
X11633692Y-11719620D01*
X11633692Y-11719619D01*
X11633338Y-11719158D01*
X11629041Y-11710445D01*
X11628406Y-11700750D01*
X11631529Y-11691550D01*
X11633338Y-11688842D01*
X11633520Y-11688605D01*
X11633692Y-11688380D01*
X11646804Y-11665670D01*
X11656840Y-11641442D01*
X11663627Y-11616112D01*
X11667050Y-11590112D01*
X11667050Y-11563888D01*
X11663627Y-11537888D01*
X11656840Y-11512558D01*
X11646804Y-11488330D01*
X11633692Y-11465620D01*
X11633692Y-11465619D01*
X11633338Y-11465158D01*
X11629041Y-11456445D01*
X11628406Y-11446750D01*
X11631529Y-11437550D01*
X11633338Y-11434842D01*
X11633520Y-11434605D01*
X11633692Y-11434380D01*
X11646804Y-11411670D01*
X11656840Y-11387442D01*
X11663627Y-11362112D01*
X11667050Y-11336112D01*
X11667050Y-11309888D01*
X11663627Y-11283888D01*
X11656840Y-11258558D01*
X11646804Y-11234330D01*
X11633692Y-11211620D01*
X11633692Y-11211619D01*
X11633338Y-11211158D01*
X11629041Y-11202445D01*
X11628406Y-11192750D01*
X11631529Y-11183550D01*
X11633338Y-11180842D01*
X11633520Y-11180605D01*
X11633692Y-11180380D01*
X11646804Y-11157670D01*
X11656840Y-11133442D01*
X11663627Y-11108112D01*
X11667050Y-11082112D01*
X11667050Y-11055888D01*
X11663627Y-11029888D01*
X11656840Y-11004558D01*
X11646804Y-10980330D01*
X11633692Y-10957620D01*
X11633692Y-10957619D01*
X11633338Y-10957158D01*
X11629041Y-10948445D01*
X11628406Y-10938750D01*
X11631529Y-10929550D01*
X11633338Y-10926842D01*
X11633520Y-10926605D01*
X11633692Y-10926380D01*
X11646804Y-10903670D01*
X11656840Y-10879442D01*
X11663627Y-10854112D01*
X11667050Y-10828112D01*
X11667050Y-10801888D01*
X11663627Y-10775888D01*
X11656840Y-10750558D01*
X11646804Y-10726330D01*
X11633692Y-10703620D01*
X11633692Y-10703619D01*
X11633338Y-10703158D01*
X11629041Y-10694445D01*
X11628406Y-10684750D01*
X11631529Y-10675550D01*
X11633338Y-10672842D01*
X11633520Y-10672605D01*
X11633692Y-10672380D01*
X11646804Y-10649670D01*
X11656840Y-10625442D01*
X11663627Y-10600112D01*
X11667050Y-10574112D01*
X11667050Y-10547888D01*
X11663627Y-10521888D01*
X11656840Y-10496558D01*
X11646804Y-10472330D01*
X11633692Y-10449620D01*
X11633351Y-10449175D01*
X11633338Y-10449158D01*
X11629041Y-10440445D01*
X11628406Y-10430750D01*
X11631529Y-10421550D01*
X11633338Y-10418842D01*
X11633520Y-10418605D01*
X11633692Y-10418380D01*
X11646804Y-10395670D01*
X11656840Y-10371442D01*
X11663627Y-10346112D01*
X11667050Y-10320112D01*
X11667050Y-10293888D01*
X11663627Y-10267888D01*
X11656840Y-10242558D01*
X11646804Y-10218330D01*
X11633692Y-10195620D01*
X11633692Y-10195619D01*
X11633338Y-10195158D01*
X11629041Y-10186445D01*
X11628406Y-10176750D01*
X11631529Y-10167550D01*
X11633338Y-10164842D01*
X11633520Y-10164605D01*
X11633692Y-10164380D01*
X11646804Y-10141670D01*
X11656840Y-10117442D01*
X11663627Y-10092112D01*
X11667050Y-10066112D01*
X11667050Y-10039888D01*
X11663627Y-10013888D01*
X11656840Y-9988558D01*
X11646804Y-9964330D01*
X11633692Y-9941620D01*
X11633692Y-9941619D01*
X11633338Y-9941158D01*
X11629041Y-9932445D01*
X11628406Y-9922750D01*
X11631529Y-9913550D01*
X11633338Y-9910842D01*
X11633520Y-9910605D01*
X11633692Y-9910380D01*
X11646804Y-9887670D01*
X11656840Y-9863442D01*
X11663627Y-9838112D01*
X11667050Y-9812112D01*
X11667050Y-9785888D01*
X11663627Y-9759888D01*
X11656840Y-9734558D01*
X11646804Y-9710330D01*
X11633692Y-9687620D01*
X11633692Y-9687619D01*
X11633338Y-9687158D01*
X11629041Y-9678445D01*
X11628406Y-9668750D01*
X11631529Y-9659550D01*
X11633338Y-9656842D01*
X11633628Y-9656465D01*
X11633692Y-9656380D01*
X11646804Y-9633670D01*
X11656840Y-9609442D01*
X11663627Y-9584112D01*
X11667050Y-9558112D01*
X11667050Y-9531888D01*
X11663627Y-9505888D01*
X11656840Y-9480558D01*
X11646804Y-9456330D01*
X11633692Y-9433620D01*
X11633692Y-9433619D01*
X11633338Y-9433158D01*
X11629041Y-9424445D01*
X11628406Y-9414750D01*
X11631529Y-9405550D01*
X11633338Y-9402842D01*
X11633640Y-9402448D01*
X11633692Y-9402380D01*
X11646804Y-9379670D01*
X11656840Y-9355442D01*
X11663627Y-9330112D01*
X11667050Y-9304112D01*
X11667050Y-9277888D01*
X11663627Y-9251888D01*
X11656840Y-9226558D01*
X11646804Y-9202330D01*
X11633692Y-9179620D01*
X11633692Y-9179619D01*
X11633338Y-9179158D01*
X11629041Y-9170445D01*
X11628406Y-9160750D01*
X11631529Y-9151550D01*
X11633338Y-9148842D01*
X11633520Y-9148605D01*
X11633692Y-9148380D01*
X11646804Y-9125670D01*
X11656840Y-9101442D01*
X11663627Y-9076112D01*
X11667050Y-9050112D01*
X11667050Y-9023888D01*
X11663627Y-8997888D01*
X11656840Y-8972558D01*
X11646804Y-8948330D01*
X11633692Y-8925620D01*
X11633692Y-8925619D01*
X11633338Y-8925158D01*
X11629041Y-8916445D01*
X11628406Y-8906750D01*
X11631529Y-8897550D01*
X11633338Y-8894842D01*
X11633520Y-8894605D01*
X11633692Y-8894380D01*
X11646804Y-8871670D01*
X11656840Y-8847442D01*
X11663627Y-8822112D01*
X11667050Y-8796112D01*
X11667050Y-8769888D01*
X11663627Y-8743888D01*
X11656840Y-8718558D01*
X11646804Y-8694330D01*
X11633692Y-8671620D01*
X11633692Y-8671619D01*
X11633338Y-8671158D01*
X11629041Y-8662445D01*
X11628406Y-8652750D01*
X11631529Y-8643550D01*
X11633338Y-8640842D01*
X11633520Y-8640605D01*
X11633692Y-8640380D01*
X11646804Y-8617670D01*
X11656840Y-8593442D01*
X11663627Y-8568112D01*
X11667050Y-8542112D01*
X11667050Y-8515888D01*
X11663627Y-8489888D01*
X11656840Y-8464558D01*
X11646804Y-8440330D01*
X11633692Y-8417620D01*
X11633692Y-8417619D01*
X11633338Y-8417158D01*
X11629041Y-8408445D01*
X11628406Y-8398750D01*
X11631529Y-8389550D01*
X11633338Y-8386842D01*
X11633520Y-8386605D01*
X11633692Y-8386380D01*
X11646804Y-8363670D01*
X11656840Y-8339442D01*
X11663627Y-8314112D01*
X11667050Y-8288112D01*
X11667050Y-8261888D01*
X11663627Y-8235888D01*
X11656840Y-8210558D01*
X11647034Y-8186885D01*
X11645139Y-8177356D01*
X11647034Y-8167828D01*
X11650278Y-8162396D01*
X11650275Y-8162394D01*
X11650319Y-8162327D01*
X11650742Y-8161620D01*
X11650970Y-8161341D01*
X11660391Y-8143305D01*
X11665989Y-8123742D01*
X11667050Y-8111804D01*
X11667050Y-7930196D01*
X11665989Y-7918258D01*
X11660391Y-7898695D01*
X11650970Y-7880659D01*
X11638111Y-7864889D01*
X11622341Y-7852030D01*
X11622340Y-7852030D01*
X11604305Y-7842609D01*
X11604305Y-7842609D01*
X11604305Y-7842609D01*
X11584742Y-7837011D01*
X11572804Y-7835950D01*
X11572804Y-7835950D01*
X11400247Y-7835950D01*
X11390719Y-7834055D01*
X11382640Y-7828657D01*
X11377243Y-7820579D01*
X11375347Y-7811050D01*
X11377243Y-7801521D01*
X11382640Y-7793444D01*
X11398541Y-7777543D01*
X11406619Y-7772145D01*
X11416148Y-7770250D01*
X13237889Y-7770250D01*
X13247417Y-7772145D01*
G37*
%TD.AperFunction*%
%TA.AperFunction,Conductor*%
G36*
X12794136Y-8670450D02*
G01*
X12802214Y-8675847D01*
X12807611Y-8683926D01*
X12809507Y-8693454D01*
X12807612Y-8702983D01*
X12801160Y-8718559D01*
X12794373Y-8743889D01*
X12790950Y-8769888D01*
X12790950Y-8796112D01*
X12794373Y-8822111D01*
X12801160Y-8847442D01*
X12811195Y-8871669D01*
X12811195Y-8871669D01*
X12824307Y-8894380D01*
X12824308Y-8894381D01*
X12824662Y-8894842D01*
X12828959Y-8903556D01*
X12829594Y-8913251D01*
X12826471Y-8922451D01*
X12824662Y-8925158D01*
X12824308Y-8925619D01*
X12824307Y-8925620D01*
X12811195Y-8948331D01*
X12811195Y-8948331D01*
X12801160Y-8972558D01*
X12794373Y-8997889D01*
X12791000Y-9023509D01*
X12790950Y-9023888D01*
X12790950Y-9050112D01*
X12790962Y-9050206D01*
X12794373Y-9076111D01*
X12801160Y-9101442D01*
X12811195Y-9125669D01*
X12811195Y-9125669D01*
X12811196Y-9125670D01*
X12816780Y-9135342D01*
X12824307Y-9148380D01*
X12824308Y-9148381D01*
X12824662Y-9148842D01*
X12828959Y-9157556D01*
X12829594Y-9167251D01*
X12826471Y-9176451D01*
X12824662Y-9179158D01*
X12824308Y-9179619D01*
X12824307Y-9179620D01*
X12811195Y-9202331D01*
X12811195Y-9202331D01*
X12801160Y-9226558D01*
X12794373Y-9251889D01*
X12790950Y-9277888D01*
X12790950Y-9304112D01*
X12794373Y-9330111D01*
X12801160Y-9355442D01*
X12811195Y-9379669D01*
X12811195Y-9379669D01*
X12811196Y-9379670D01*
X12818459Y-9392251D01*
X12824307Y-9402380D01*
X12824308Y-9402381D01*
X12824662Y-9402842D01*
X12828959Y-9411556D01*
X12829594Y-9421251D01*
X12826471Y-9430451D01*
X12824662Y-9433158D01*
X12824308Y-9433619D01*
X12824307Y-9433620D01*
X12811195Y-9456331D01*
X12811195Y-9456331D01*
X12801160Y-9480558D01*
X12794373Y-9505889D01*
X12791648Y-9526589D01*
X12790950Y-9531888D01*
X12790950Y-9558112D01*
X12791011Y-9558577D01*
X12794373Y-9584111D01*
X12801160Y-9609442D01*
X12811195Y-9633669D01*
X12811195Y-9633669D01*
X12811196Y-9633670D01*
X12818689Y-9646649D01*
X12824307Y-9656380D01*
X12824308Y-9656381D01*
X12824662Y-9656842D01*
X12828959Y-9665556D01*
X12829594Y-9675251D01*
X12826471Y-9684451D01*
X12824662Y-9687158D01*
X12824308Y-9687619D01*
X12824307Y-9687620D01*
X12811195Y-9710331D01*
X12811195Y-9710331D01*
X12801160Y-9734558D01*
X12794373Y-9759889D01*
X12790950Y-9785888D01*
X12790950Y-9812112D01*
X12794373Y-9838111D01*
X12801160Y-9863442D01*
X12811195Y-9887669D01*
X12811195Y-9887669D01*
X12824307Y-9910380D01*
X12824308Y-9910381D01*
X12824662Y-9910842D01*
X12828959Y-9919556D01*
X12829594Y-9929251D01*
X12826471Y-9938451D01*
X12824662Y-9941158D01*
X12824308Y-9941619D01*
X12824307Y-9941620D01*
X12811195Y-9964331D01*
X12811195Y-9964331D01*
X12801160Y-9988558D01*
X12794373Y-10013889D01*
X12790950Y-10039888D01*
X12790950Y-10066112D01*
X12793715Y-10087111D01*
X12794373Y-10092112D01*
X12794561Y-10092815D01*
X12801160Y-10117442D01*
X12811195Y-10141669D01*
X12811195Y-10141669D01*
X12824307Y-10164380D01*
X12824308Y-10164381D01*
X12824662Y-10164842D01*
X12828959Y-10173556D01*
X12829594Y-10183251D01*
X12826471Y-10192451D01*
X12824662Y-10195158D01*
X12824308Y-10195619D01*
X12824307Y-10195620D01*
X12811195Y-10218331D01*
X12811195Y-10218331D01*
X12801160Y-10242558D01*
X12794373Y-10267889D01*
X12790950Y-10293888D01*
X12790950Y-10320112D01*
X12794373Y-10346111D01*
X12801160Y-10371442D01*
X12811195Y-10395669D01*
X12811195Y-10395669D01*
X12811196Y-10395670D01*
X12812675Y-10398233D01*
X12824307Y-10418380D01*
X12824308Y-10418381D01*
X12824662Y-10418842D01*
X12828959Y-10427556D01*
X12829594Y-10437251D01*
X12826471Y-10446451D01*
X12824662Y-10449158D01*
X12824308Y-10449619D01*
X12824307Y-10449620D01*
X12811195Y-10472331D01*
X12811195Y-10472331D01*
X12801160Y-10496558D01*
X12794373Y-10521889D01*
X12790950Y-10547888D01*
X12790950Y-10574112D01*
X12794373Y-10600111D01*
X12801160Y-10625442D01*
X12811195Y-10649669D01*
X12811195Y-10649669D01*
X12824307Y-10672380D01*
X12824308Y-10672381D01*
X12824662Y-10672842D01*
X12828959Y-10681556D01*
X12829594Y-10691251D01*
X12826471Y-10700451D01*
X12824662Y-10703158D01*
X12824308Y-10703619D01*
X12824307Y-10703620D01*
X12811195Y-10726331D01*
X12811195Y-10726331D01*
X12801160Y-10750558D01*
X12794373Y-10775889D01*
X12790950Y-10801888D01*
X12790950Y-10828112D01*
X12794373Y-10854111D01*
X12801160Y-10879442D01*
X12811195Y-10903669D01*
X12811195Y-10903669D01*
X12824307Y-10926380D01*
X12824308Y-10926381D01*
X12824662Y-10926842D01*
X12828959Y-10935556D01*
X12829594Y-10945251D01*
X12826471Y-10954451D01*
X12824662Y-10957158D01*
X12824308Y-10957619D01*
X12824307Y-10957620D01*
X12811195Y-10980331D01*
X12811195Y-10980331D01*
X12801160Y-11004558D01*
X12794373Y-11029889D01*
X12790950Y-11055888D01*
X12790950Y-11082112D01*
X12794373Y-11108111D01*
X12801160Y-11133442D01*
X12811195Y-11157669D01*
X12811195Y-11157669D01*
X12811196Y-11157670D01*
X12815107Y-11164444D01*
X12824307Y-11180380D01*
X12824308Y-11180381D01*
X12824662Y-11180842D01*
X12828959Y-11189556D01*
X12829594Y-11199251D01*
X12826471Y-11208451D01*
X12824662Y-11211158D01*
X12824308Y-11211619D01*
X12824307Y-11211620D01*
X12811195Y-11234331D01*
X12811195Y-11234331D01*
X12801160Y-11258558D01*
X12794373Y-11283889D01*
X12790950Y-11309888D01*
X12790950Y-11336112D01*
X12794373Y-11362111D01*
X12801160Y-11387442D01*
X12811195Y-11411669D01*
X12811195Y-11411669D01*
X12824307Y-11434380D01*
X12824308Y-11434381D01*
X12824662Y-11434842D01*
X12828959Y-11443556D01*
X12829594Y-11453251D01*
X12826471Y-11462451D01*
X12824662Y-11465158D01*
X12824308Y-11465619D01*
X12824307Y-11465620D01*
X12811195Y-11488331D01*
X12811195Y-11488331D01*
X12801160Y-11512558D01*
X12794373Y-11537889D01*
X12790950Y-11563888D01*
X12790950Y-11590112D01*
X12794373Y-11616111D01*
X12801160Y-11641442D01*
X12811195Y-11665669D01*
X12811195Y-11665669D01*
X12824307Y-11688380D01*
X12824308Y-11688381D01*
X12824662Y-11688842D01*
X12828959Y-11697556D01*
X12829594Y-11707251D01*
X12826471Y-11716451D01*
X12824662Y-11719158D01*
X12824308Y-11719619D01*
X12824307Y-11719620D01*
X12811195Y-11742331D01*
X12811195Y-11742331D01*
X12801160Y-11766558D01*
X12794373Y-11791889D01*
X12790950Y-11817888D01*
X12790950Y-11844112D01*
X12794373Y-11870111D01*
X12801160Y-11895442D01*
X12811195Y-11919669D01*
X12811195Y-11919669D01*
X12824307Y-11942380D01*
X12824308Y-11942381D01*
X12824662Y-11942842D01*
X12828959Y-11951556D01*
X12829594Y-11961251D01*
X12826471Y-11970451D01*
X12824662Y-11973158D01*
X12824308Y-11973619D01*
X12824307Y-11973620D01*
X12811195Y-11996331D01*
X12811195Y-11996331D01*
X12801160Y-12020558D01*
X12794373Y-12045889D01*
X12790950Y-12071888D01*
X12790950Y-12098112D01*
X12794204Y-12122827D01*
X12794373Y-12124112D01*
X12794624Y-12125050D01*
X12801160Y-12149442D01*
X12811195Y-12173669D01*
X12811195Y-12173669D01*
X12811196Y-12173670D01*
X12815826Y-12181689D01*
X12824307Y-12196380D01*
X12824308Y-12196381D01*
X12824662Y-12196842D01*
X12828959Y-12205556D01*
X12829594Y-12215251D01*
X12826471Y-12224451D01*
X12824662Y-12227158D01*
X12824308Y-12227619D01*
X12824307Y-12227620D01*
X12811195Y-12250331D01*
X12811195Y-12250331D01*
X12801160Y-12274558D01*
X12794373Y-12299889D01*
X12790950Y-12325888D01*
X12790950Y-12352112D01*
X12794373Y-12378111D01*
X12801160Y-12403442D01*
X12811195Y-12427669D01*
X12811195Y-12427669D01*
X12824307Y-12450380D01*
X12824308Y-12450381D01*
X12824662Y-12450842D01*
X12828959Y-12459556D01*
X12829594Y-12469251D01*
X12826471Y-12478451D01*
X12824662Y-12481158D01*
X12824308Y-12481619D01*
X12824307Y-12481620D01*
X12811195Y-12504331D01*
X12811195Y-12504331D01*
X12801160Y-12528558D01*
X12794373Y-12553889D01*
X12790950Y-12579888D01*
X12790950Y-12606112D01*
X12794373Y-12632111D01*
X12801160Y-12657442D01*
X12811195Y-12681669D01*
X12811195Y-12681669D01*
X12811196Y-12681670D01*
X12819626Y-12696272D01*
X12824307Y-12704380D01*
X12824308Y-12704381D01*
X12824662Y-12704842D01*
X12828959Y-12713556D01*
X12829594Y-12723251D01*
X12826471Y-12732451D01*
X12824662Y-12735158D01*
X12824308Y-12735619D01*
X12824307Y-12735620D01*
X12811195Y-12758331D01*
X12811195Y-12758331D01*
X12801160Y-12782558D01*
X12794373Y-12807889D01*
X12790950Y-12833888D01*
X12790950Y-12860112D01*
X12794373Y-12886111D01*
X12801160Y-12911442D01*
X12807859Y-12927614D01*
X12809754Y-12937143D01*
X12807859Y-12946672D01*
X12802461Y-12954750D01*
X12794383Y-12960147D01*
X12784854Y-12962043D01*
X12775325Y-12960147D01*
X12767247Y-12954750D01*
X12598443Y-12785946D01*
X12593045Y-12777867D01*
X12591150Y-12768339D01*
X12591150Y-8862011D01*
X12593045Y-8852483D01*
X12598443Y-8844405D01*
X12767000Y-8675847D01*
X12775078Y-8670450D01*
X12784607Y-8668554D01*
X12794136Y-8670450D01*
G37*
%TD.AperFunction*%
%TA.AperFunction,Conductor*%
G36*
X13535629Y-12764507D02*
G01*
X13543707Y-12769904D01*
X13599524Y-12825721D01*
X13600986Y-12827909D01*
X13602819Y-12829797D01*
X13603521Y-12831704D01*
X13604921Y-12833799D01*
X13606406Y-12838826D01*
X13606521Y-12839450D01*
X13609373Y-12861112D01*
X13612974Y-12874552D01*
X13613154Y-12875532D01*
X13613098Y-12879412D01*
X13613352Y-12883284D01*
X13613028Y-12884239D01*
X13613013Y-12885247D01*
X13611476Y-12888810D01*
X13610229Y-12892484D01*
X13609564Y-12893242D01*
X13609165Y-12894167D01*
X13606381Y-12896871D01*
X13603823Y-12899789D01*
X13602919Y-12900234D01*
X13602196Y-12900937D01*
X13598590Y-12902369D01*
X13595109Y-12904086D01*
X13594104Y-12904152D01*
X13593167Y-12904524D01*
X13589287Y-12904467D01*
X13585415Y-12904721D01*
X13583733Y-12904387D01*
X13583453Y-12904383D01*
X13583230Y-12904287D01*
X13582220Y-12904086D01*
X13567847Y-12900234D01*
X13561301Y-12898481D01*
X13561301Y-12898481D01*
X13561301Y-12898481D01*
X13537901Y-12895400D01*
X13514299Y-12895400D01*
X13490899Y-12898481D01*
X13490899Y-12898481D01*
X13490899Y-12898481D01*
X13476385Y-12902369D01*
X13468101Y-12904589D01*
X13468101Y-12904589D01*
X13446296Y-12913621D01*
X13446294Y-12913622D01*
X13425856Y-12925422D01*
X13425855Y-12925423D01*
X13414020Y-12934504D01*
X13405306Y-12938801D01*
X13395612Y-12939436D01*
X13386412Y-12936313D01*
X13379107Y-12929907D01*
X13374810Y-12921194D01*
X13374175Y-12911499D01*
X13377298Y-12902299D01*
X13381255Y-12897143D01*
X13508493Y-12769904D01*
X13516571Y-12764507D01*
X13526100Y-12762611D01*
X13535629Y-12764507D01*
G37*
%TD.AperFunction*%
%TA.AperFunction,Conductor*%
G36*
X13219236Y-12276214D02*
G01*
X13227950Y-12280511D01*
X13234356Y-12287816D01*
X13234977Y-12288961D01*
X13237948Y-12294790D01*
X13249517Y-12310715D01*
X13314047Y-12375244D01*
X13377102Y-12438299D01*
X13382500Y-12446378D01*
X13384395Y-12455906D01*
X13382500Y-12465435D01*
X13379250Y-12471064D01*
X13376073Y-12475204D01*
X13376072Y-12475206D01*
X13364272Y-12495644D01*
X13364271Y-12495646D01*
X13355982Y-12515657D01*
X13355239Y-12517451D01*
X13349131Y-12540249D01*
X13349131Y-12540249D01*
X13349131Y-12540249D01*
X13346050Y-12563649D01*
X13346050Y-12568338D01*
X13344155Y-12577867D01*
X13338757Y-12585945D01*
X13205876Y-12718826D01*
X13197798Y-12724223D01*
X13188269Y-12726119D01*
X13178741Y-12724223D01*
X13170662Y-12718826D01*
X13165265Y-12710748D01*
X13163369Y-12701219D01*
X13165265Y-12691690D01*
X13166704Y-12688771D01*
X13170804Y-12681670D01*
X13180840Y-12657442D01*
X13187627Y-12632112D01*
X13191050Y-12606112D01*
X13191050Y-12579888D01*
X13187627Y-12553888D01*
X13180840Y-12528558D01*
X13170804Y-12504330D01*
X13157692Y-12481620D01*
X13157692Y-12481619D01*
X13157338Y-12481158D01*
X13153041Y-12472445D01*
X13152406Y-12462750D01*
X13155529Y-12453550D01*
X13157338Y-12450842D01*
X13157520Y-12450605D01*
X13157692Y-12450380D01*
X13170804Y-12427670D01*
X13180840Y-12403442D01*
X13187627Y-12378112D01*
X13191050Y-12352112D01*
X13191050Y-12325888D01*
X13188105Y-12303516D01*
X13188740Y-12293821D01*
X13193037Y-12285108D01*
X13200341Y-12278702D01*
X13209541Y-12275579D01*
X13219236Y-12276214D01*
G37*
%TD.AperFunction*%
%TA.AperFunction,Conductor*%
G36*
X18484579Y-7551945D02*
G01*
X18492657Y-7557343D01*
X18498055Y-7565421D01*
X18499950Y-7574950D01*
X18499950Y-8405750D01*
X18498055Y-8415279D01*
X18492657Y-8423357D01*
X18484579Y-8428755D01*
X18475050Y-8430650D01*
X18465521Y-8428755D01*
X18457443Y-8423357D01*
X18365543Y-8331457D01*
X18360145Y-8323379D01*
X18358250Y-8313850D01*
X18358250Y-8309160D01*
X18356622Y-8296795D01*
X18355169Y-8285760D01*
X18349061Y-8262962D01*
X18340028Y-8241156D01*
X18334831Y-8232154D01*
X18328228Y-8220717D01*
X18328227Y-8220716D01*
X18327601Y-8219900D01*
X18313859Y-8201991D01*
X18297170Y-8185302D01*
X18278445Y-8170934D01*
X18273308Y-8167968D01*
X18258005Y-8159133D01*
X18258004Y-8159133D01*
X18245922Y-8154128D01*
X18236199Y-8150101D01*
X18213401Y-8143992D01*
X18213401Y-8143992D01*
X18190001Y-8140911D01*
X18166399Y-8140911D01*
X18142999Y-8143992D01*
X18142999Y-8143992D01*
X18142999Y-8143992D01*
X18128041Y-8148000D01*
X18120201Y-8150101D01*
X18120201Y-8150101D01*
X18098396Y-8159133D01*
X18098395Y-8159133D01*
X18087400Y-8165481D01*
X18078200Y-8168604D01*
X18068505Y-8167968D01*
X18059792Y-8163671D01*
X18053386Y-8156367D01*
X18050263Y-8147167D01*
X18050050Y-8143917D01*
X18050050Y-8015159D01*
X18050050Y-8015157D01*
X18046971Y-7995718D01*
X18046971Y-7995717D01*
X18040888Y-7976997D01*
X18031952Y-7959459D01*
X18029289Y-7955793D01*
X18020383Y-7943535D01*
X17864719Y-7787871D01*
X18064950Y-7787871D01*
X18064950Y-7812129D01*
X18068116Y-7836179D01*
X18068116Y-7836179D01*
X18074394Y-7859608D01*
X18074395Y-7859610D01*
X18083677Y-7882020D01*
X18083678Y-7882022D01*
X18095806Y-7903028D01*
X18095806Y-7903029D01*
X18110573Y-7922273D01*
X18110574Y-7922274D01*
X18127726Y-7939426D01*
X18127727Y-7939427D01*
X18133081Y-7943536D01*
X18146971Y-7954194D01*
X18152776Y-7957545D01*
X18167978Y-7966322D01*
X18167980Y-7966323D01*
X18181986Y-7972124D01*
X18190390Y-7975605D01*
X18190391Y-7975606D01*
X18190392Y-7975606D01*
X18208702Y-7980512D01*
X18213821Y-7981884D01*
X18237871Y-7985050D01*
X18262129Y-7985050D01*
X18286179Y-7981884D01*
X18304003Y-7977108D01*
X18309608Y-7975606D01*
X18309608Y-7975606D01*
X18309610Y-7975605D01*
X18324777Y-7969323D01*
X18332020Y-7966323D01*
X18332021Y-7966323D01*
X18332021Y-7966322D01*
X18353029Y-7954194D01*
X18372274Y-7939426D01*
X18389427Y-7922274D01*
X18404194Y-7903029D01*
X18416322Y-7882021D01*
X18416887Y-7880659D01*
X18421189Y-7870272D01*
X18425605Y-7859610D01*
X18431884Y-7836179D01*
X18435050Y-7812129D01*
X18435050Y-7787871D01*
X18431884Y-7763821D01*
X18429855Y-7756249D01*
X18425606Y-7740392D01*
X18425606Y-7740391D01*
X18425605Y-7740390D01*
X18419701Y-7726136D01*
X18416323Y-7717980D01*
X18416322Y-7717978D01*
X18406029Y-7700150D01*
X18404194Y-7696971D01*
X18398729Y-7689849D01*
X18389427Y-7677727D01*
X18389426Y-7677726D01*
X18372274Y-7660574D01*
X18372273Y-7660573D01*
X18353029Y-7645806D01*
X18353028Y-7645806D01*
X18332022Y-7633678D01*
X18332020Y-7633677D01*
X18309611Y-7624395D01*
X18309610Y-7624395D01*
X18309610Y-7624395D01*
X18309610Y-7624394D01*
X18309608Y-7624394D01*
X18286180Y-7618116D01*
X18286179Y-7618116D01*
X18262129Y-7614950D01*
X18237871Y-7614950D01*
X18213821Y-7618116D01*
X18213820Y-7618116D01*
X18190392Y-7624394D01*
X18190389Y-7624395D01*
X18167980Y-7633677D01*
X18167978Y-7633678D01*
X18146972Y-7645806D01*
X18146971Y-7645806D01*
X18127727Y-7660573D01*
X18127726Y-7660574D01*
X18110574Y-7677726D01*
X18110573Y-7677727D01*
X18095806Y-7696971D01*
X18095806Y-7696972D01*
X18083678Y-7717978D01*
X18083677Y-7717980D01*
X18074395Y-7740389D01*
X18074394Y-7740392D01*
X18068116Y-7763820D01*
X18068116Y-7763821D01*
X18064950Y-7787871D01*
X17864719Y-7787871D01*
X17860543Y-7783695D01*
X17855145Y-7775617D01*
X17853250Y-7766088D01*
X17853250Y-7694647D01*
X17853250Y-7694646D01*
X17853216Y-7694265D01*
X17852189Y-7682708D01*
X17846591Y-7663145D01*
X17837170Y-7645109D01*
X17824311Y-7629339D01*
X17808541Y-7616480D01*
X17808540Y-7616480D01*
X17790505Y-7607059D01*
X17790505Y-7607059D01*
X17790505Y-7607059D01*
X17770942Y-7601461D01*
X17759004Y-7600400D01*
X17759004Y-7600400D01*
X17547397Y-7600400D01*
X17547396Y-7600400D01*
X17535459Y-7601461D01*
X17515895Y-7607059D01*
X17515895Y-7607059D01*
X17497860Y-7616480D01*
X17497859Y-7616480D01*
X17482089Y-7629339D01*
X17482089Y-7629339D01*
X17469230Y-7645109D01*
X17469230Y-7645110D01*
X17459809Y-7663145D01*
X17459809Y-7663145D01*
X17454212Y-7682708D01*
X17454211Y-7682708D01*
X17453150Y-7694646D01*
X17453150Y-7906253D01*
X17453150Y-7906254D01*
X17454211Y-7918191D01*
X17459809Y-7937755D01*
X17460072Y-7938414D01*
X17461847Y-7947966D01*
X17460072Y-7956886D01*
X17459809Y-7957545D01*
X17454212Y-7977108D01*
X17454211Y-7977108D01*
X17453150Y-7989046D01*
X17453150Y-8200653D01*
X17453150Y-8200654D01*
X17454211Y-8212591D01*
X17454211Y-8212592D01*
X17454211Y-8212592D01*
X17456303Y-8219900D01*
X17459809Y-8232154D01*
X17459809Y-8232155D01*
X17464511Y-8241156D01*
X17469230Y-8250191D01*
X17482089Y-8265961D01*
X17497859Y-8278820D01*
X17515895Y-8288241D01*
X17535458Y-8293839D01*
X17547396Y-8294900D01*
X17637360Y-8294900D01*
X17643358Y-8295850D01*
X17663042Y-8295850D01*
X17669040Y-8294900D01*
X17759004Y-8294900D01*
X17770942Y-8293839D01*
X17790505Y-8288241D01*
X17790506Y-8288240D01*
X17791677Y-8287772D01*
X17791746Y-8287944D01*
X17799536Y-8285660D01*
X17809196Y-8286704D01*
X17817720Y-8291364D01*
X17821888Y-8295826D01*
X17829617Y-8306465D01*
X17939497Y-8416344D01*
X17955421Y-8427914D01*
X17967916Y-8434280D01*
X17975546Y-8440295D01*
X17980293Y-8448772D01*
X17981435Y-8458420D01*
X17978798Y-8467771D01*
X17973222Y-8474843D01*
X17973266Y-8474887D01*
X17972897Y-8475256D01*
X17972784Y-8475400D01*
X17972575Y-8475578D01*
X17854617Y-8593536D01*
X17851516Y-8597804D01*
X17844205Y-8607867D01*
X17843048Y-8609460D01*
X17843047Y-8609460D01*
X17842134Y-8611252D01*
X17836119Y-8618881D01*
X17827643Y-8623628D01*
X17817994Y-8624770D01*
X17808644Y-8622133D01*
X17808420Y-8622017D01*
X17790505Y-8612659D01*
X17790505Y-8612659D01*
X17790505Y-8612659D01*
X17770942Y-8607061D01*
X17759004Y-8606000D01*
X17759004Y-8606000D01*
X17547397Y-8606000D01*
X17547396Y-8606000D01*
X17535459Y-8607061D01*
X17515895Y-8612659D01*
X17515895Y-8612659D01*
X17497860Y-8622080D01*
X17497859Y-8622080D01*
X17482089Y-8634939D01*
X17482089Y-8634939D01*
X17469230Y-8650709D01*
X17469230Y-8650710D01*
X17459809Y-8668745D01*
X17459809Y-8668745D01*
X17454212Y-8688308D01*
X17454211Y-8688308D01*
X17453150Y-8700246D01*
X17453150Y-8911853D01*
X17453150Y-8911854D01*
X17454211Y-8923791D01*
X17459809Y-8943355D01*
X17460072Y-8944014D01*
X17461847Y-8953566D01*
X17460072Y-8962486D01*
X17459809Y-8963145D01*
X17454212Y-8982708D01*
X17454211Y-8982708D01*
X17453150Y-8994646D01*
X17453150Y-9206253D01*
X17453150Y-9206254D01*
X17454211Y-9218191D01*
X17459809Y-9237755D01*
X17459809Y-9237755D01*
X17467192Y-9251889D01*
X17469230Y-9255791D01*
X17482089Y-9271561D01*
X17497859Y-9284420D01*
X17515895Y-9293841D01*
X17535458Y-9299439D01*
X17547396Y-9300500D01*
X17759004Y-9300500D01*
X17770942Y-9299439D01*
X17790505Y-9293841D01*
X17808541Y-9284420D01*
X17824311Y-9271561D01*
X17837170Y-9255791D01*
X17846591Y-9237755D01*
X17852189Y-9218192D01*
X17853250Y-9206254D01*
X17853250Y-9183911D01*
X17855145Y-9174383D01*
X17860543Y-9166304D01*
X18045383Y-8981465D01*
X18056952Y-8965541D01*
X18065888Y-8948003D01*
X18071971Y-8929283D01*
X18075050Y-8909842D01*
X18075050Y-8890158D01*
X18075050Y-8774612D01*
X18076945Y-8765083D01*
X18082343Y-8757005D01*
X18090421Y-8751607D01*
X18099950Y-8749712D01*
X18102511Y-8749921D01*
X18102514Y-8749889D01*
X18109550Y-8750442D01*
X18116778Y-8751011D01*
X18154950Y-8751011D01*
X18164479Y-8752907D01*
X18172557Y-8758304D01*
X18177955Y-8766382D01*
X18179850Y-8775911D01*
X18179850Y-9483852D01*
X18177955Y-9493381D01*
X18172557Y-9501459D01*
X17759517Y-9914499D01*
X17747948Y-9930423D01*
X17739012Y-9947961D01*
X17739012Y-9947961D01*
X17736644Y-9955249D01*
X17732929Y-9966681D01*
X17729850Y-9986121D01*
X17729850Y-9986122D01*
X17729850Y-11412878D01*
X17729850Y-11412879D01*
X17732929Y-11432319D01*
X17736580Y-11443556D01*
X17739012Y-11451039D01*
X17747948Y-11468577D01*
X17759517Y-11484501D01*
X17893589Y-11618573D01*
X17898986Y-11626651D01*
X17900882Y-11636179D01*
X17900882Y-11910773D01*
X17900882Y-11910775D01*
X17903961Y-11930214D01*
X17909941Y-11948620D01*
X17910043Y-11948934D01*
X17918979Y-11966472D01*
X17930549Y-11982396D01*
X17930549Y-11982396D01*
X17983646Y-12035493D01*
X17989043Y-12043571D01*
X17990939Y-12053100D01*
X17989043Y-12062629D01*
X17983646Y-12070707D01*
X17911696Y-12142657D01*
X17903618Y-12148055D01*
X17894089Y-12149950D01*
X16203284Y-12149950D01*
X16193755Y-12148055D01*
X16185677Y-12142657D01*
X16180280Y-12134579D01*
X16178384Y-12125050D01*
X16180280Y-12115521D01*
X16181720Y-12112600D01*
X16182301Y-12111593D01*
X16193804Y-12091670D01*
X16203840Y-12067442D01*
X16210627Y-12042112D01*
X16214050Y-12016112D01*
X16214050Y-11989888D01*
X16210627Y-11963888D01*
X16203840Y-11938558D01*
X16193804Y-11914330D01*
X16180692Y-11891620D01*
X16180692Y-11891619D01*
X16180338Y-11891158D01*
X16176041Y-11882445D01*
X16175406Y-11872750D01*
X16178529Y-11863550D01*
X16180338Y-11860842D01*
X16180520Y-11860605D01*
X16180692Y-11860380D01*
X16193804Y-11837670D01*
X16203840Y-11813442D01*
X16210627Y-11788112D01*
X16214050Y-11762112D01*
X16214050Y-11735888D01*
X16210627Y-11709888D01*
X16203840Y-11684558D01*
X16193804Y-11660330D01*
X16180692Y-11637620D01*
X16180692Y-11637619D01*
X16180338Y-11637158D01*
X16176041Y-11628445D01*
X16175406Y-11618750D01*
X16178529Y-11609550D01*
X16180338Y-11606842D01*
X16180520Y-11606605D01*
X16180692Y-11606380D01*
X16193804Y-11583670D01*
X16203840Y-11559442D01*
X16210627Y-11534112D01*
X16214050Y-11508112D01*
X16214050Y-11481888D01*
X16210627Y-11455888D01*
X16203840Y-11430558D01*
X16193804Y-11406330D01*
X16180692Y-11383620D01*
X16180692Y-11383619D01*
X16180338Y-11383158D01*
X16176041Y-11374445D01*
X16175406Y-11364750D01*
X16178529Y-11355550D01*
X16180338Y-11352842D01*
X16180520Y-11352605D01*
X16180692Y-11352380D01*
X16193804Y-11329670D01*
X16203840Y-11305442D01*
X16210627Y-11280112D01*
X16214050Y-11254112D01*
X16214050Y-11227888D01*
X16210627Y-11201888D01*
X16203840Y-11176558D01*
X16193804Y-11152330D01*
X16180692Y-11129620D01*
X16180692Y-11129619D01*
X16180338Y-11129158D01*
X16176041Y-11120445D01*
X16175406Y-11110750D01*
X16178529Y-11101550D01*
X16180338Y-11098842D01*
X16180520Y-11098605D01*
X16180692Y-11098380D01*
X16193804Y-11075670D01*
X16203840Y-11051442D01*
X16210627Y-11026112D01*
X16214050Y-11000112D01*
X16214050Y-10973888D01*
X16210627Y-10947888D01*
X16203840Y-10922558D01*
X16193804Y-10898330D01*
X16180692Y-10875620D01*
X16180692Y-10875619D01*
X16180338Y-10875158D01*
X16176041Y-10866445D01*
X16175406Y-10856750D01*
X16178529Y-10847550D01*
X16180338Y-10844842D01*
X16180692Y-10844380D01*
X16180692Y-10844380D01*
X16185135Y-10836686D01*
X16193804Y-10821670D01*
X16203840Y-10797442D01*
X16210627Y-10772112D01*
X16214050Y-10746112D01*
X16214050Y-10719888D01*
X16210627Y-10693888D01*
X16203840Y-10668558D01*
X16193804Y-10644330D01*
X16180692Y-10621620D01*
X16180692Y-10621619D01*
X16180338Y-10621158D01*
X16176041Y-10612445D01*
X16175406Y-10602750D01*
X16178529Y-10593550D01*
X16180338Y-10590842D01*
X16180520Y-10590605D01*
X16180692Y-10590380D01*
X16193804Y-10567670D01*
X16203840Y-10543442D01*
X16210627Y-10518112D01*
X16214050Y-10492112D01*
X16214050Y-10465888D01*
X16210627Y-10439888D01*
X16203840Y-10414558D01*
X16193804Y-10390330D01*
X16180692Y-10367620D01*
X16180692Y-10367619D01*
X16180338Y-10367158D01*
X16176041Y-10358445D01*
X16175406Y-10348750D01*
X16178529Y-10339550D01*
X16180338Y-10336842D01*
X16180520Y-10336605D01*
X16180692Y-10336380D01*
X16193804Y-10313670D01*
X16203840Y-10289442D01*
X16210627Y-10264112D01*
X16214050Y-10238112D01*
X16214050Y-10211888D01*
X16210627Y-10185888D01*
X16203840Y-10160558D01*
X16193804Y-10136330D01*
X16180692Y-10113620D01*
X16180692Y-10113619D01*
X16180692Y-10113619D01*
X16164729Y-10092815D01*
X16164728Y-10092815D01*
X16164728Y-10092815D01*
X16146185Y-10074272D01*
X16146185Y-10074271D01*
X16146184Y-10074271D01*
X16125381Y-10058308D01*
X16125380Y-10058307D01*
X16113261Y-10051311D01*
X16102670Y-10045196D01*
X16102669Y-10045196D01*
X16102669Y-10045196D01*
X16102669Y-10045195D01*
X16078442Y-10035160D01*
X16067473Y-10032221D01*
X16053112Y-10028373D01*
X16053111Y-10028373D01*
X16053111Y-10028373D01*
X16027112Y-10024950D01*
X16000888Y-10024950D01*
X15974889Y-10028373D01*
X15949558Y-10035160D01*
X15925331Y-10045195D01*
X15925331Y-10045196D01*
X15902620Y-10058307D01*
X15902619Y-10058308D01*
X15881815Y-10074271D01*
X15863271Y-10092815D01*
X15847308Y-10113619D01*
X15847307Y-10113620D01*
X15834195Y-10136331D01*
X15834195Y-10136331D01*
X15824160Y-10160558D01*
X15817373Y-10185889D01*
X15814268Y-10209472D01*
X15811145Y-10218672D01*
X15804739Y-10225976D01*
X15796026Y-10230273D01*
X15786331Y-10230908D01*
X15777131Y-10227786D01*
X15769203Y-10223208D01*
X15769202Y-10223208D01*
X15769202Y-10223208D01*
X15743763Y-10212671D01*
X15743763Y-10212671D01*
X15743763Y-10212670D01*
X15731825Y-10209472D01*
X15717167Y-10205544D01*
X15717166Y-10205544D01*
X15717166Y-10205544D01*
X15689867Y-10201950D01*
X15662333Y-10201950D01*
X15635034Y-10205544D01*
X15608437Y-10212670D01*
X15608437Y-10212670D01*
X15595831Y-10217892D01*
X15582998Y-10223208D01*
X15582998Y-10223208D01*
X15582997Y-10223208D01*
X15559153Y-10236974D01*
X15559153Y-10236975D01*
X15559152Y-10236975D01*
X15559152Y-10236975D01*
X15542768Y-10249547D01*
X15537307Y-10253737D01*
X15517837Y-10273207D01*
X15517837Y-10273207D01*
X15501075Y-10295052D01*
X15501075Y-10295053D01*
X15501074Y-10295053D01*
X15501074Y-10295053D01*
X15487308Y-10318897D01*
X15487308Y-10318898D01*
X15487308Y-10318898D01*
X15486805Y-10320112D01*
X15476770Y-10344337D01*
X15476770Y-10344337D01*
X15469644Y-10370934D01*
X15466050Y-10398233D01*
X15466050Y-10425768D01*
X15466708Y-10430767D01*
X15466073Y-10440462D01*
X15461776Y-10449175D01*
X15459628Y-10451624D01*
X15264617Y-10646635D01*
X15253048Y-10662560D01*
X15244111Y-10680098D01*
X15239631Y-10693888D01*
X15239631Y-10693889D01*
X15238029Y-10698817D01*
X15234950Y-10718257D01*
X15234950Y-10718259D01*
X15234950Y-11853841D01*
X15234950Y-11853843D01*
X15238029Y-11873282D01*
X15243987Y-11891619D01*
X15244112Y-11892003D01*
X15253048Y-11909540D01*
X15264617Y-11925465D01*
X15264617Y-11925465D01*
X15353657Y-12014504D01*
X15359055Y-12022583D01*
X15360950Y-12032111D01*
X15360950Y-12086421D01*
X15361870Y-12098112D01*
X15361990Y-12099641D01*
X15367046Y-12119704D01*
X15367490Y-12121469D01*
X15369117Y-12125050D01*
X15376799Y-12141963D01*
X15376799Y-12141963D01*
X15376800Y-12141963D01*
X15385873Y-12155059D01*
X15389741Y-12163971D01*
X15389905Y-12173685D01*
X15386969Y-12181689D01*
X15379172Y-12195195D01*
X15379171Y-12195196D01*
X15371436Y-12213870D01*
X15370139Y-12217001D01*
X15364031Y-12239799D01*
X15364031Y-12239799D01*
X15364031Y-12239799D01*
X15362439Y-12251889D01*
X15360950Y-12263199D01*
X15360950Y-12286801D01*
X15364031Y-12310201D01*
X15369343Y-12330027D01*
X15370139Y-12332999D01*
X15370139Y-12332999D01*
X15379171Y-12354804D01*
X15379172Y-12354805D01*
X15389455Y-12372617D01*
X15390973Y-12375245D01*
X15405341Y-12393970D01*
X15405341Y-12393970D01*
X15408657Y-12397286D01*
X15414055Y-12405364D01*
X15415950Y-12414893D01*
X15415950Y-12493965D01*
X15414055Y-12503493D01*
X15408657Y-12511571D01*
X15404571Y-12515657D01*
X15396493Y-12521055D01*
X15386965Y-12522950D01*
X14651158Y-12522950D01*
X14646286Y-12523722D01*
X14644894Y-12523942D01*
X14636472Y-12525276D01*
X14631717Y-12526029D01*
X14612998Y-12532111D01*
X14595459Y-12541048D01*
X14579536Y-12552617D01*
X14442496Y-12689657D01*
X14434417Y-12695055D01*
X14424889Y-12696950D01*
X14295950Y-12696950D01*
X14292542Y-12696272D01*
X14289081Y-12695984D01*
X14287816Y-12695332D01*
X14286421Y-12695055D01*
X14283533Y-12693124D01*
X14280445Y-12691533D01*
X14279526Y-12690447D01*
X14278343Y-12689657D01*
X14276413Y-12686768D01*
X14274169Y-12684116D01*
X14273871Y-12682964D01*
X14272945Y-12681579D01*
X14271209Y-12674863D01*
X14271050Y-12673461D01*
X14271050Y-12657765D01*
X14267848Y-12637547D01*
X14266493Y-12633377D01*
X14266209Y-12630883D01*
X14266308Y-12629699D01*
X14266050Y-12628070D01*
X14266050Y-12458159D01*
X14266050Y-12458158D01*
X14265784Y-12456480D01*
X14264818Y-12450380D01*
X14262971Y-12438717D01*
X14260994Y-12432635D01*
X14256888Y-12419997D01*
X14247952Y-12402459D01*
X14246202Y-12400050D01*
X14239545Y-12390888D01*
X14236383Y-12386535D01*
X14231800Y-12381952D01*
X14222465Y-12372617D01*
X14222465Y-12372617D01*
X14123343Y-12273496D01*
X14117945Y-12265417D01*
X14116050Y-12255889D01*
X14116050Y-9450400D01*
X14117945Y-9440871D01*
X14123343Y-9432793D01*
X14131421Y-9427395D01*
X14140950Y-9425500D01*
X15463989Y-9425500D01*
X15473517Y-9427395D01*
X15481596Y-9432793D01*
X15496421Y-9447618D01*
X15501818Y-9455696D01*
X15503714Y-9465225D01*
X15501818Y-9474754D01*
X15497396Y-9481373D01*
X15496421Y-9482832D01*
X15496420Y-9482832D01*
X15494718Y-9484534D01*
X15494718Y-9484535D01*
X15481900Y-9503037D01*
X15481899Y-9503037D01*
X15472590Y-9523532D01*
X15467090Y-9545359D01*
X15467090Y-9545360D01*
X15466050Y-9558577D01*
X15466050Y-9741423D01*
X15467090Y-9754640D01*
X15467090Y-9754641D01*
X15472590Y-9776468D01*
X15481899Y-9796963D01*
X15481900Y-9796963D01*
X15494718Y-9815465D01*
X15494718Y-9815465D01*
X15494718Y-9815465D01*
X15510635Y-9831382D01*
X15510635Y-9831382D01*
X15510635Y-9831382D01*
X15529136Y-9844200D01*
X15529137Y-9844200D01*
X15529137Y-9844201D01*
X15549632Y-9853510D01*
X15571459Y-9859010D01*
X15571460Y-9859010D01*
X15571460Y-9859010D01*
X15580808Y-9859745D01*
X15584678Y-9860050D01*
X15584678Y-9860050D01*
X15767522Y-9860050D01*
X15767522Y-9860050D01*
X15776871Y-9859314D01*
X15780740Y-9859010D01*
X15780740Y-9859010D01*
X15780741Y-9859010D01*
X15802568Y-9853510D01*
X15823063Y-9844201D01*
X15841565Y-9831382D01*
X15857482Y-9815465D01*
X15870301Y-9796963D01*
X15879610Y-9776468D01*
X15885110Y-9754641D01*
X15886150Y-9741422D01*
X15886150Y-9558578D01*
X15885578Y-9551311D01*
X15885110Y-9545360D01*
X15885110Y-9545360D01*
X15885110Y-9545359D01*
X15879610Y-9523532D01*
X15870301Y-9503037D01*
X15870300Y-9503037D01*
X15870300Y-9503037D01*
X15857482Y-9484535D01*
X15857482Y-9484535D01*
X15857482Y-9484535D01*
X15841565Y-9468618D01*
X15841565Y-9468618D01*
X15841565Y-9468618D01*
X15823063Y-9455800D01*
X15823063Y-9455799D01*
X15822836Y-9455696D01*
X15814243Y-9451793D01*
X15812195Y-9450322D01*
X15809905Y-9449267D01*
X15808287Y-9447517D01*
X15806351Y-9446127D01*
X15805022Y-9443984D01*
X15803310Y-9442132D01*
X15802485Y-9439897D01*
X15801229Y-9437872D01*
X15799948Y-9433018D01*
X15799479Y-9430057D01*
X15799479Y-9430056D01*
X15799479Y-9430056D01*
X15798071Y-9421168D01*
X15798071Y-9421168D01*
X15798071Y-9421167D01*
X15794355Y-9409733D01*
X15791988Y-9402448D01*
X15783052Y-9384910D01*
X15779245Y-9379670D01*
X15771483Y-9368985D01*
X15757565Y-9355067D01*
X15757565Y-9355067D01*
X15745504Y-9343007D01*
X15740107Y-9334929D01*
X15738211Y-9325400D01*
X15740107Y-9315871D01*
X15745504Y-9307793D01*
X15753582Y-9302395D01*
X15763111Y-9300500D01*
X15904803Y-9300500D01*
X15904804Y-9300500D01*
X15916742Y-9299439D01*
X15936305Y-9293841D01*
X15954341Y-9284420D01*
X15970111Y-9271561D01*
X15982970Y-9255791D01*
X15992391Y-9237755D01*
X15997989Y-9218192D01*
X15999050Y-9206254D01*
X15999050Y-8994646D01*
X15997989Y-8982708D01*
X15992391Y-8963145D01*
X15992390Y-8963144D01*
X15992128Y-8962487D01*
X15990353Y-8952935D01*
X15992128Y-8944013D01*
X15992390Y-8943356D01*
X15992391Y-8943355D01*
X15997989Y-8923792D01*
X15999050Y-8911854D01*
X15999050Y-8700246D01*
X15997989Y-8688308D01*
X15992391Y-8668745D01*
X15982970Y-8650709D01*
X15970111Y-8634939D01*
X15954341Y-8622080D01*
X15954340Y-8622080D01*
X15936305Y-8612659D01*
X15936305Y-8612659D01*
X15936305Y-8612659D01*
X15916742Y-8607061D01*
X15904804Y-8606000D01*
X15904803Y-8606000D01*
X15693197Y-8606000D01*
X15693194Y-8606000D01*
X15691564Y-8606145D01*
X15681905Y-8605101D01*
X15673381Y-8600440D01*
X15667289Y-8592871D01*
X15664558Y-8583547D01*
X15665602Y-8573888D01*
X15665678Y-8573648D01*
X15665888Y-8573003D01*
X15665888Y-8573003D01*
X15671971Y-8554283D01*
X15675050Y-8534842D01*
X15675050Y-8515158D01*
X15675050Y-8319800D01*
X15676945Y-8310271D01*
X15682343Y-8302193D01*
X15690421Y-8296795D01*
X15699949Y-8294900D01*
X15904804Y-8294900D01*
X15916742Y-8293839D01*
X15936305Y-8288241D01*
X15954341Y-8278820D01*
X15970111Y-8265961D01*
X15982970Y-8250191D01*
X15992391Y-8232155D01*
X15997989Y-8212592D01*
X15999050Y-8200654D01*
X15999050Y-7989046D01*
X15997989Y-7977108D01*
X15992391Y-7957545D01*
X15992390Y-7957544D01*
X15992128Y-7956887D01*
X15990353Y-7947335D01*
X15992128Y-7938413D01*
X15992390Y-7937756D01*
X15992391Y-7937755D01*
X15997989Y-7918192D01*
X15999050Y-7906254D01*
X15999050Y-7694646D01*
X15997989Y-7682708D01*
X15992391Y-7663145D01*
X15982970Y-7645109D01*
X15970111Y-7629339D01*
X15954341Y-7616480D01*
X15954340Y-7616480D01*
X15936305Y-7607059D01*
X15936305Y-7607059D01*
X15936305Y-7607059D01*
X15916742Y-7601461D01*
X15904804Y-7600400D01*
X15904803Y-7600400D01*
X15693197Y-7600400D01*
X15693196Y-7600400D01*
X15681258Y-7601461D01*
X15661695Y-7607059D01*
X15661695Y-7607059D01*
X15643660Y-7616480D01*
X15643659Y-7616480D01*
X15627889Y-7629339D01*
X15627889Y-7629339D01*
X15615030Y-7645109D01*
X15615030Y-7645110D01*
X15605609Y-7663145D01*
X15605609Y-7663145D01*
X15600011Y-7682708D01*
X15600011Y-7682708D01*
X15598950Y-7694646D01*
X15598950Y-7738888D01*
X15597055Y-7748417D01*
X15591657Y-7756495D01*
X15454617Y-7893535D01*
X15454617Y-7893536D01*
X15443047Y-7909460D01*
X15434111Y-7926998D01*
X15430046Y-7939509D01*
X15430046Y-7939509D01*
X15428029Y-7945717D01*
X15424950Y-7965157D01*
X15424950Y-7965159D01*
X15424950Y-8450050D01*
X15423055Y-8459579D01*
X15417657Y-8467657D01*
X15409579Y-8473055D01*
X15400050Y-8474950D01*
X15280893Y-8474950D01*
X15271364Y-8473055D01*
X15263286Y-8467657D01*
X15259970Y-8464341D01*
X15259970Y-8464341D01*
X15241245Y-8449973D01*
X15241244Y-8449972D01*
X15220805Y-8438172D01*
X15220804Y-8438171D01*
X15208722Y-8433167D01*
X15198999Y-8429139D01*
X15176201Y-8423031D01*
X15176201Y-8423031D01*
X15152801Y-8419950D01*
X15129199Y-8419950D01*
X15105799Y-8423031D01*
X15105799Y-8423031D01*
X15105799Y-8423031D01*
X15088564Y-8427649D01*
X15083001Y-8429139D01*
X15083001Y-8429139D01*
X15061196Y-8438171D01*
X15061195Y-8438172D01*
X15042214Y-8449130D01*
X15033014Y-8452253D01*
X15023319Y-8451618D01*
X15014606Y-8447321D01*
X15012157Y-8445173D01*
X14710105Y-8143121D01*
X14709145Y-8141684D01*
X14707853Y-8140535D01*
X14706470Y-8137681D01*
X14704708Y-8135043D01*
X14704370Y-8133347D01*
X14703616Y-8131792D01*
X14703431Y-8128625D01*
X14702812Y-8125514D01*
X14703149Y-8123819D01*
X14703048Y-8122093D01*
X14704089Y-8119096D01*
X14704708Y-8115986D01*
X14705668Y-8114548D01*
X14706235Y-8112915D01*
X14708033Y-8111009D01*
X14710105Y-8107907D01*
X14712692Y-8105655D01*
X14713706Y-8104887D01*
X14714129Y-8104644D01*
X14721016Y-8099359D01*
X14721079Y-8099311D01*
X14725375Y-8097230D01*
X14729655Y-8095119D01*
X14729743Y-8095113D01*
X14729823Y-8095075D01*
X14734580Y-8094796D01*
X14739350Y-8094483D01*
X14739434Y-8094512D01*
X14739521Y-8094506D01*
X14744024Y-8096070D01*
X14748550Y-8097606D01*
X14748659Y-8097679D01*
X14748699Y-8097693D01*
X14748757Y-8097745D01*
X14751258Y-8099416D01*
X14758071Y-8104644D01*
X14758072Y-8104644D01*
X14779078Y-8116772D01*
X14779080Y-8116773D01*
X14793086Y-8122574D01*
X14801490Y-8126055D01*
X14801491Y-8126056D01*
X14801492Y-8126056D01*
X14819802Y-8130962D01*
X14824921Y-8132334D01*
X14848971Y-8135500D01*
X14873229Y-8135500D01*
X14897279Y-8132334D01*
X14913427Y-8128007D01*
X14920708Y-8126056D01*
X14920708Y-8126056D01*
X14920710Y-8126055D01*
X14937510Y-8119096D01*
X14943120Y-8116773D01*
X14943121Y-8116773D01*
X14943121Y-8116772D01*
X14964129Y-8104644D01*
X14970942Y-8099416D01*
X14979655Y-8095119D01*
X14989350Y-8094483D01*
X14998550Y-8097606D01*
X15001258Y-8099416D01*
X15008071Y-8104644D01*
X15008072Y-8104644D01*
X15029078Y-8116772D01*
X15029080Y-8116773D01*
X15043086Y-8122574D01*
X15051490Y-8126055D01*
X15051491Y-8126056D01*
X15051492Y-8126056D01*
X15069802Y-8130962D01*
X15074921Y-8132334D01*
X15098971Y-8135500D01*
X15123229Y-8135500D01*
X15147279Y-8132334D01*
X15163427Y-8128007D01*
X15170708Y-8126056D01*
X15170708Y-8126056D01*
X15170710Y-8126055D01*
X15187510Y-8119096D01*
X15193120Y-8116773D01*
X15193121Y-8116773D01*
X15193121Y-8116772D01*
X15214129Y-8104644D01*
X15233374Y-8089876D01*
X15250526Y-8072724D01*
X15265294Y-8053479D01*
X15277422Y-8032471D01*
X15286705Y-8010060D01*
X15292984Y-7986629D01*
X15296150Y-7962579D01*
X15296150Y-7913321D01*
X15292984Y-7889271D01*
X15286705Y-7865840D01*
X15281929Y-7854308D01*
X15277423Y-7843430D01*
X15277422Y-7843428D01*
X15265294Y-7822422D01*
X15265293Y-7822421D01*
X15263880Y-7820579D01*
X15256568Y-7811050D01*
X15250527Y-7803177D01*
X15250526Y-7803176D01*
X15233374Y-7786024D01*
X15233373Y-7786023D01*
X15214129Y-7771256D01*
X15214128Y-7771256D01*
X15193122Y-7759128D01*
X15193120Y-7759127D01*
X15170710Y-7749845D01*
X15170710Y-7749845D01*
X15170710Y-7749845D01*
X15170710Y-7749844D01*
X15170708Y-7749844D01*
X15147279Y-7743566D01*
X15147279Y-7743566D01*
X15123229Y-7740400D01*
X15098971Y-7740400D01*
X15074921Y-7743566D01*
X15074920Y-7743566D01*
X15051492Y-7749844D01*
X15051489Y-7749845D01*
X15029080Y-7759127D01*
X15029078Y-7759128D01*
X15008072Y-7771256D01*
X15008071Y-7771256D01*
X15008071Y-7771256D01*
X15005628Y-7773131D01*
X15001258Y-7776484D01*
X14992544Y-7780781D01*
X14982850Y-7781416D01*
X14973650Y-7778293D01*
X14970942Y-7776484D01*
X14969047Y-7775030D01*
X14964129Y-7771256D01*
X14957701Y-7767545D01*
X14943122Y-7759128D01*
X14943120Y-7759127D01*
X14920710Y-7749845D01*
X14920710Y-7749845D01*
X14920710Y-7749845D01*
X14920710Y-7749844D01*
X14920708Y-7749844D01*
X14897279Y-7743566D01*
X14897279Y-7743566D01*
X14873229Y-7740400D01*
X14848971Y-7740400D01*
X14824921Y-7743566D01*
X14824920Y-7743566D01*
X14801492Y-7749844D01*
X14801489Y-7749845D01*
X14779080Y-7759127D01*
X14779078Y-7759128D01*
X14758072Y-7771256D01*
X14758071Y-7771256D01*
X14758071Y-7771256D01*
X14755628Y-7773131D01*
X14751258Y-7776484D01*
X14742544Y-7780781D01*
X14732850Y-7781416D01*
X14723650Y-7778293D01*
X14720942Y-7776484D01*
X14719047Y-7775030D01*
X14714129Y-7771256D01*
X14707701Y-7767545D01*
X14693122Y-7759128D01*
X14693120Y-7759127D01*
X14670710Y-7749845D01*
X14670710Y-7749845D01*
X14670710Y-7749845D01*
X14670710Y-7749844D01*
X14670708Y-7749844D01*
X14647279Y-7743566D01*
X14647279Y-7743566D01*
X14623229Y-7740400D01*
X14598971Y-7740400D01*
X14574921Y-7743566D01*
X14574920Y-7743566D01*
X14551492Y-7749844D01*
X14551489Y-7749845D01*
X14529080Y-7759127D01*
X14529078Y-7759128D01*
X14508072Y-7771256D01*
X14508071Y-7771256D01*
X14508071Y-7771256D01*
X14505628Y-7773131D01*
X14501258Y-7776484D01*
X14492544Y-7780781D01*
X14482850Y-7781416D01*
X14473650Y-7778293D01*
X14470942Y-7776484D01*
X14469047Y-7775030D01*
X14464129Y-7771256D01*
X14457701Y-7767545D01*
X14443122Y-7759128D01*
X14443120Y-7759127D01*
X14420710Y-7749845D01*
X14420710Y-7749845D01*
X14420710Y-7749845D01*
X14420710Y-7749844D01*
X14420708Y-7749844D01*
X14397279Y-7743566D01*
X14397279Y-7743566D01*
X14373229Y-7740400D01*
X14348971Y-7740400D01*
X14324921Y-7743566D01*
X14324920Y-7743566D01*
X14301492Y-7749844D01*
X14301489Y-7749845D01*
X14279080Y-7759127D01*
X14279078Y-7759128D01*
X14258072Y-7771256D01*
X14258071Y-7771256D01*
X14258071Y-7771256D01*
X14255628Y-7773131D01*
X14251258Y-7776484D01*
X14242544Y-7780781D01*
X14232850Y-7781416D01*
X14223650Y-7778293D01*
X14220942Y-7776484D01*
X14219047Y-7775030D01*
X14214129Y-7771256D01*
X14207701Y-7767545D01*
X14193122Y-7759128D01*
X14193120Y-7759127D01*
X14170710Y-7749845D01*
X14170710Y-7749845D01*
X14170710Y-7749845D01*
X14170710Y-7749844D01*
X14170708Y-7749844D01*
X14147279Y-7743566D01*
X14147279Y-7743566D01*
X14123229Y-7740400D01*
X14098971Y-7740400D01*
X14074921Y-7743566D01*
X14074920Y-7743566D01*
X14051492Y-7749844D01*
X14051489Y-7749845D01*
X14029080Y-7759127D01*
X14029079Y-7759128D01*
X14019908Y-7764422D01*
X14010708Y-7767545D01*
X14001013Y-7766910D01*
X13993278Y-7763326D01*
X13987216Y-7759127D01*
X13983063Y-7756249D01*
X13962568Y-7746940D01*
X13962568Y-7746940D01*
X13944994Y-7742512D01*
X13936217Y-7738346D01*
X13933471Y-7735974D01*
X13790054Y-7592557D01*
X13784657Y-7584479D01*
X13782761Y-7574950D01*
X13784657Y-7565421D01*
X13790054Y-7557343D01*
X13798133Y-7551945D01*
X13807661Y-7550050D01*
X18475050Y-7550050D01*
X18484579Y-7551945D01*
G37*
%TD.AperFunction*%
%TA.AperFunction,Conductor*%
G36*
X13504379Y-11226836D02*
G01*
X13512457Y-11232233D01*
X13521793Y-11241569D01*
X13537080Y-11252676D01*
X13553917Y-11261255D01*
X13571888Y-11267094D01*
X13590552Y-11270050D01*
X13609448Y-11270050D01*
X13618395Y-11270050D01*
X13620207Y-11270410D01*
X13622053Y-11270320D01*
X13624928Y-11271349D01*
X13627924Y-11271945D01*
X13629460Y-11272972D01*
X13631200Y-11273595D01*
X13633099Y-11275403D01*
X13636002Y-11277343D01*
X13638397Y-11280120D01*
X13638851Y-11280731D01*
X13638908Y-11280830D01*
X13639387Y-11281455D01*
X13639509Y-11281620D01*
X13641501Y-11285834D01*
X13643559Y-11290006D01*
X13643572Y-11290214D01*
X13643662Y-11290404D01*
X13643890Y-11295056D01*
X13644194Y-11299701D01*
X13644127Y-11299899D01*
X13644137Y-11300108D01*
X13642568Y-11304491D01*
X13641071Y-11308901D01*
X13640895Y-11309163D01*
X13640863Y-11309255D01*
X13640755Y-11309373D01*
X13639262Y-11311608D01*
X13638908Y-11312069D01*
X13638907Y-11312070D01*
X13625795Y-11334781D01*
X13625795Y-11334781D01*
X13615760Y-11359008D01*
X13608973Y-11384339D01*
X13605550Y-11410338D01*
X13605550Y-11436562D01*
X13608973Y-11462561D01*
X13615760Y-11487892D01*
X13625795Y-11512119D01*
X13625795Y-11512119D01*
X13625796Y-11512120D01*
X13629332Y-11518245D01*
X13638907Y-11534830D01*
X13638908Y-11534831D01*
X13639262Y-11535292D01*
X13643559Y-11544006D01*
X13644194Y-11553701D01*
X13641071Y-11562901D01*
X13639262Y-11565608D01*
X13638908Y-11566069D01*
X13638907Y-11566070D01*
X13625795Y-11588781D01*
X13625795Y-11588781D01*
X13615760Y-11613008D01*
X13608973Y-11638339D01*
X13605550Y-11664338D01*
X13605550Y-11690562D01*
X13608973Y-11716561D01*
X13615760Y-11741892D01*
X13625795Y-11766119D01*
X13625795Y-11766119D01*
X13638907Y-11788830D01*
X13638908Y-11788831D01*
X13654871Y-11809634D01*
X13654872Y-11809635D01*
X13673415Y-11828178D01*
X13673415Y-11828178D01*
X13673415Y-11828179D01*
X13694219Y-11844142D01*
X13694219Y-11844142D01*
X13694220Y-11844142D01*
X13699648Y-11847276D01*
X13706952Y-11853682D01*
X13711249Y-11862396D01*
X13711885Y-11872090D01*
X13708762Y-11881290D01*
X13702356Y-11888595D01*
X13699648Y-11890404D01*
X13694620Y-11893307D01*
X13694619Y-11893308D01*
X13673815Y-11909271D01*
X13655271Y-11927815D01*
X13639308Y-11948619D01*
X13639307Y-11948620D01*
X13626195Y-11971331D01*
X13626195Y-11971331D01*
X13616160Y-11995558D01*
X13609373Y-12020889D01*
X13605950Y-12046888D01*
X13605950Y-12073112D01*
X13609373Y-12099111D01*
X13616160Y-12124442D01*
X13626195Y-12148669D01*
X13626195Y-12148669D01*
X13626196Y-12148670D01*
X13629885Y-12155059D01*
X13639307Y-12171380D01*
X13639308Y-12171381D01*
X13639662Y-12171842D01*
X13643959Y-12180556D01*
X13644594Y-12190251D01*
X13641471Y-12199451D01*
X13639662Y-12202158D01*
X13639308Y-12202619D01*
X13639307Y-12202620D01*
X13626195Y-12225331D01*
X13626195Y-12225331D01*
X13616160Y-12249559D01*
X13611662Y-12266344D01*
X13607365Y-12275058D01*
X13600061Y-12281463D01*
X13590861Y-12284586D01*
X13581166Y-12283951D01*
X13572453Y-12279654D01*
X13570004Y-12277506D01*
X13477243Y-12184746D01*
X13471845Y-12176667D01*
X13469950Y-12167139D01*
X13469950Y-11249840D01*
X13471845Y-11240311D01*
X13477243Y-11232233D01*
X13485321Y-11226836D01*
X13494850Y-11224940D01*
X13504379Y-11226836D01*
G37*
%TD.AperFunction*%
%TA.AperFunction,Conductor*%
G36*
X13204479Y-12157439D02*
G01*
X13212557Y-12162837D01*
X13217955Y-12170915D01*
X13219850Y-12180444D01*
X13219850Y-12239092D01*
X13220186Y-12241212D01*
X13220166Y-12241720D01*
X13220322Y-12242204D01*
X13219976Y-12246557D01*
X13219804Y-12250920D01*
X13219591Y-12251382D01*
X13219551Y-12251889D01*
X13217565Y-12255778D01*
X13215737Y-12259743D01*
X13215363Y-12260088D01*
X13215132Y-12260541D01*
X13211809Y-12263373D01*
X13208602Y-12266338D01*
X13208125Y-12266514D01*
X13207738Y-12266844D01*
X13203584Y-12268189D01*
X13199487Y-12269700D01*
X13198979Y-12269680D01*
X13198495Y-12269837D01*
X13194142Y-12269490D01*
X13189779Y-12269319D01*
X13189317Y-12269106D01*
X13188811Y-12269066D01*
X13184921Y-12267079D01*
X13180956Y-12265251D01*
X13180611Y-12264878D01*
X13180158Y-12264647D01*
X13179083Y-12263225D01*
X13174361Y-12258117D01*
X13173856Y-12257253D01*
X13173145Y-12255981D01*
X13170804Y-12250330D01*
X13157692Y-12227620D01*
X13156238Y-12225724D01*
X13155356Y-12224146D01*
X13154406Y-12221211D01*
X13153041Y-12218445D01*
X13152922Y-12216632D01*
X13152363Y-12214903D01*
X13152607Y-12211828D01*
X13152406Y-12208750D01*
X13152990Y-12207030D01*
X13153134Y-12205218D01*
X13154537Y-12202471D01*
X13155529Y-12199550D01*
X13157338Y-12196842D01*
X13157520Y-12196605D01*
X13157692Y-12196380D01*
X13170804Y-12173670D01*
X13170805Y-12173669D01*
X13170805Y-12173668D01*
X13171945Y-12170915D01*
X13177343Y-12162837D01*
X13185421Y-12157439D01*
X13194950Y-12155544D01*
X13204479Y-12157439D01*
G37*
%TD.AperFunction*%
%TA.AperFunction,Conductor*%
G36*
X13204479Y-11903439D02*
G01*
X13212557Y-11908837D01*
X13217955Y-11916915D01*
X13219850Y-11926444D01*
X13219850Y-11989556D01*
X13219194Y-11992854D01*
X13218945Y-11996208D01*
X13218254Y-11997579D01*
X13217955Y-11999085D01*
X13216086Y-12001881D01*
X13214573Y-12004884D01*
X13213410Y-12005887D01*
X13212557Y-12007163D01*
X13209760Y-12009032D01*
X13207213Y-12011227D01*
X13205755Y-12011708D01*
X13204479Y-12012561D01*
X13201180Y-12013217D01*
X13197987Y-12014270D01*
X13196456Y-12014157D01*
X13194950Y-12014456D01*
X13191652Y-12013800D01*
X13188298Y-12013551D01*
X13186927Y-12012860D01*
X13185421Y-12012561D01*
X13182625Y-12010692D01*
X13179622Y-12009179D01*
X13178619Y-12008016D01*
X13177343Y-12007163D01*
X13175474Y-12004367D01*
X13173279Y-12001819D01*
X13172528Y-12000493D01*
X13170804Y-11996330D01*
X13157692Y-11973620D01*
X13156279Y-11971778D01*
X13155422Y-11970263D01*
X13154435Y-11967271D01*
X13153041Y-11964445D01*
X13152927Y-11962698D01*
X13152379Y-11961037D01*
X13152612Y-11957894D01*
X13152406Y-11954750D01*
X13152968Y-11953093D01*
X13153098Y-11951348D01*
X13154548Y-11948438D01*
X13155529Y-11945550D01*
X13156593Y-11944336D01*
X13157338Y-11942842D01*
X13157520Y-11942605D01*
X13157692Y-11942380D01*
X13170804Y-11919670D01*
X13170805Y-11919669D01*
X13170805Y-11919668D01*
X13171945Y-11916915D01*
X13177343Y-11908837D01*
X13185421Y-11903439D01*
X13194950Y-11901544D01*
X13204479Y-11903439D01*
G37*
%TD.AperFunction*%
%TA.AperFunction,Conductor*%
G36*
X13204479Y-11649439D02*
G01*
X13212557Y-11654837D01*
X13217955Y-11662915D01*
X13219850Y-11672444D01*
X13219850Y-11735556D01*
X13219194Y-11738854D01*
X13218945Y-11742208D01*
X13218254Y-11743579D01*
X13217955Y-11745085D01*
X13216086Y-11747881D01*
X13214573Y-11750884D01*
X13213410Y-11751887D01*
X13212557Y-11753163D01*
X13209760Y-11755032D01*
X13207213Y-11757227D01*
X13205755Y-11757708D01*
X13204479Y-11758561D01*
X13201180Y-11759217D01*
X13197987Y-11760270D01*
X13196456Y-11760157D01*
X13194950Y-11760456D01*
X13191652Y-11759800D01*
X13188298Y-11759551D01*
X13186927Y-11758860D01*
X13185421Y-11758561D01*
X13182625Y-11756692D01*
X13179622Y-11755179D01*
X13178619Y-11754016D01*
X13177343Y-11753163D01*
X13175474Y-11750367D01*
X13173279Y-11747819D01*
X13172528Y-11746493D01*
X13170804Y-11742330D01*
X13157692Y-11719620D01*
X13156279Y-11717778D01*
X13155422Y-11716263D01*
X13154435Y-11713271D01*
X13153041Y-11710445D01*
X13152927Y-11708698D01*
X13152379Y-11707037D01*
X13152612Y-11703894D01*
X13152406Y-11700750D01*
X13152968Y-11699093D01*
X13153098Y-11697348D01*
X13154548Y-11694438D01*
X13155529Y-11691550D01*
X13156593Y-11690336D01*
X13157338Y-11688842D01*
X13157520Y-11688605D01*
X13157692Y-11688380D01*
X13170804Y-11665670D01*
X13170805Y-11665669D01*
X13170805Y-11665668D01*
X13171945Y-11662915D01*
X13177343Y-11654837D01*
X13185421Y-11649439D01*
X13194950Y-11647544D01*
X13204479Y-11649439D01*
G37*
%TD.AperFunction*%
%TA.AperFunction,Conductor*%
G36*
X15513145Y-11040048D02*
G01*
X15516395Y-11040261D01*
X15517868Y-11040987D01*
X15519479Y-11041308D01*
X15522187Y-11043117D01*
X15525108Y-11044558D01*
X15526191Y-11045792D01*
X15527557Y-11046705D01*
X15531514Y-11051862D01*
X15534981Y-11057868D01*
X15540973Y-11068245D01*
X15555341Y-11086970D01*
X15572030Y-11103659D01*
X15590755Y-11118027D01*
X15596828Y-11121534D01*
X15611194Y-11129828D01*
X15611195Y-11129828D01*
X15611195Y-11129828D01*
X15633001Y-11138861D01*
X15655799Y-11144969D01*
X15679199Y-11148050D01*
X15702801Y-11148050D01*
X15726201Y-11144969D01*
X15748999Y-11138861D01*
X15770805Y-11129828D01*
X15791245Y-11118027D01*
X15804603Y-11107777D01*
X15813316Y-11103481D01*
X15823011Y-11102845D01*
X15832211Y-11105968D01*
X15839515Y-11112374D01*
X15843812Y-11121087D01*
X15844448Y-11130782D01*
X15841325Y-11139982D01*
X15834195Y-11152331D01*
X15834195Y-11152331D01*
X15824160Y-11176558D01*
X15817373Y-11201889D01*
X15815560Y-11215659D01*
X15813950Y-11227888D01*
X15813950Y-11254112D01*
X15814221Y-11256172D01*
X15816298Y-11271945D01*
X15817373Y-11280112D01*
X15817970Y-11282341D01*
X15824160Y-11305442D01*
X15834195Y-11329669D01*
X15834195Y-11329669D01*
X15834196Y-11329670D01*
X15839117Y-11338194D01*
X15847307Y-11352380D01*
X15847308Y-11352381D01*
X15847662Y-11352842D01*
X15851959Y-11361556D01*
X15852594Y-11371251D01*
X15849471Y-11380451D01*
X15847662Y-11383158D01*
X15847308Y-11383619D01*
X15847307Y-11383620D01*
X15834195Y-11406331D01*
X15834195Y-11406331D01*
X15824160Y-11430558D01*
X15817373Y-11455889D01*
X15815702Y-11468577D01*
X15813950Y-11481888D01*
X15813950Y-11508112D01*
X15817373Y-11534112D01*
X15818139Y-11536970D01*
X15821133Y-11548146D01*
X15821769Y-11557841D01*
X15818646Y-11567041D01*
X15812240Y-11574345D01*
X15803526Y-11578642D01*
X15793832Y-11579278D01*
X15784632Y-11576155D01*
X15770805Y-11568172D01*
X15770804Y-11568171D01*
X15758080Y-11562901D01*
X15748999Y-11559139D01*
X15726201Y-11553031D01*
X15726201Y-11553031D01*
X15702801Y-11549950D01*
X15679199Y-11549950D01*
X15655799Y-11553031D01*
X15655799Y-11553031D01*
X15655799Y-11553031D01*
X15638564Y-11557649D01*
X15633001Y-11559139D01*
X15633001Y-11559139D01*
X15611196Y-11568171D01*
X15611194Y-11568172D01*
X15590756Y-11579972D01*
X15590755Y-11579973D01*
X15572030Y-11594341D01*
X15572030Y-11594341D01*
X15555341Y-11611030D01*
X15555341Y-11611030D01*
X15540973Y-11629755D01*
X15540972Y-11629756D01*
X15531514Y-11646138D01*
X15525108Y-11653442D01*
X15516395Y-11657739D01*
X15506700Y-11658375D01*
X15497500Y-11655252D01*
X15490195Y-11648846D01*
X15485898Y-11640132D01*
X15485050Y-11633688D01*
X15485050Y-11064312D01*
X15485685Y-11061117D01*
X15485898Y-11057868D01*
X15486625Y-11056394D01*
X15486945Y-11054783D01*
X15488755Y-11052075D01*
X15490195Y-11049154D01*
X15491430Y-11048071D01*
X15492343Y-11046705D01*
X15495051Y-11044895D01*
X15497500Y-11042748D01*
X15499055Y-11042220D01*
X15500421Y-11041308D01*
X15503616Y-11040672D01*
X15506700Y-11039625D01*
X15508339Y-11039733D01*
X15509950Y-11039412D01*
X15513145Y-11040048D01*
G37*
%TD.AperFunction*%
%TA.AperFunction,Conductor*%
G36*
X13204479Y-11395439D02*
G01*
X13212557Y-11400837D01*
X13217955Y-11408915D01*
X13219850Y-11418444D01*
X13219850Y-11481556D01*
X13217955Y-11491085D01*
X13212557Y-11499163D01*
X13204479Y-11504561D01*
X13194950Y-11506456D01*
X13185421Y-11504561D01*
X13177343Y-11499163D01*
X13171945Y-11491085D01*
X13170804Y-11488331D01*
X13170804Y-11488330D01*
X13157692Y-11465620D01*
X13157692Y-11465619D01*
X13157338Y-11465158D01*
X13153041Y-11456445D01*
X13152406Y-11446750D01*
X13155529Y-11437550D01*
X13157338Y-11434842D01*
X13157520Y-11434605D01*
X13157692Y-11434380D01*
X13170804Y-11411670D01*
X13170805Y-11411669D01*
X13170805Y-11411668D01*
X13171945Y-11408915D01*
X13177343Y-11400837D01*
X13185421Y-11395439D01*
X13194950Y-11393544D01*
X13204479Y-11395439D01*
G37*
%TD.AperFunction*%
%TA.AperFunction,Conductor*%
G36*
X18484579Y-9664007D02*
G01*
X18492657Y-9669404D01*
X18498055Y-9677483D01*
X18499950Y-9687011D01*
X18499950Y-10083609D01*
X18498055Y-10093138D01*
X18492657Y-10101216D01*
X18484579Y-10106614D01*
X18475050Y-10108509D01*
X18465521Y-10106614D01*
X18457443Y-10101216D01*
X18455296Y-10098767D01*
X18454798Y-10098119D01*
X18450728Y-10092815D01*
X18432185Y-10074272D01*
X18432185Y-10074271D01*
X18432185Y-10074271D01*
X18411381Y-10058308D01*
X18411380Y-10058307D01*
X18399261Y-10051311D01*
X18388670Y-10045196D01*
X18388670Y-10045196D01*
X18388669Y-10045196D01*
X18388669Y-10045195D01*
X18364442Y-10035160D01*
X18353473Y-10032221D01*
X18339112Y-10028373D01*
X18339111Y-10028373D01*
X18339111Y-10028373D01*
X18313112Y-10024950D01*
X18286888Y-10024950D01*
X18260889Y-10028373D01*
X18235558Y-10035160D01*
X18211331Y-10045195D01*
X18211331Y-10045196D01*
X18188620Y-10058307D01*
X18188619Y-10058308D01*
X18167815Y-10074271D01*
X18149271Y-10092815D01*
X18133308Y-10113619D01*
X18133307Y-10113620D01*
X18120196Y-10136331D01*
X18120195Y-10136331D01*
X18110160Y-10160558D01*
X18103373Y-10185889D01*
X18101643Y-10199030D01*
X18099950Y-10211888D01*
X18099950Y-10238112D01*
X18099961Y-10238196D01*
X18103373Y-10264111D01*
X18110160Y-10289442D01*
X18120195Y-10313669D01*
X18120196Y-10313669D01*
X18120196Y-10313670D01*
X18129509Y-10329801D01*
X18133307Y-10336380D01*
X18133308Y-10336381D01*
X18133662Y-10336842D01*
X18137959Y-10345556D01*
X18138594Y-10355251D01*
X18135471Y-10364451D01*
X18133662Y-10367158D01*
X18133308Y-10367619D01*
X18133307Y-10367620D01*
X18120196Y-10390331D01*
X18120195Y-10390331D01*
X18110160Y-10414558D01*
X18103373Y-10439889D01*
X18099950Y-10465888D01*
X18099950Y-10492112D01*
X18103373Y-10518111D01*
X18110160Y-10543442D01*
X18120195Y-10567669D01*
X18120196Y-10567669D01*
X18120196Y-10567670D01*
X18125069Y-10576110D01*
X18133307Y-10590380D01*
X18133308Y-10590381D01*
X18133662Y-10590842D01*
X18137959Y-10599556D01*
X18138594Y-10609251D01*
X18135471Y-10618451D01*
X18133662Y-10621158D01*
X18133308Y-10621619D01*
X18133307Y-10621620D01*
X18120196Y-10644331D01*
X18120195Y-10644331D01*
X18110160Y-10668558D01*
X18106677Y-10681556D01*
X18103373Y-10693888D01*
X18102092Y-10703619D01*
X18099950Y-10719888D01*
X18099950Y-10746112D01*
X18103373Y-10772111D01*
X18110160Y-10797442D01*
X18120195Y-10821669D01*
X18120196Y-10821669D01*
X18120196Y-10821670D01*
X18133308Y-10844380D01*
X18133308Y-10844381D01*
X18133662Y-10844842D01*
X18137959Y-10853556D01*
X18138594Y-10863251D01*
X18135471Y-10872451D01*
X18133662Y-10875158D01*
X18133308Y-10875619D01*
X18133307Y-10875620D01*
X18120196Y-10898331D01*
X18120195Y-10898331D01*
X18110160Y-10922558D01*
X18103373Y-10947889D01*
X18101643Y-10961030D01*
X18099950Y-10973888D01*
X18099950Y-11000112D01*
X18099961Y-11000196D01*
X18103373Y-11026111D01*
X18110160Y-11051442D01*
X18120195Y-11075669D01*
X18120196Y-11075669D01*
X18120196Y-11075670D01*
X18126720Y-11086970D01*
X18133307Y-11098380D01*
X18133308Y-11098381D01*
X18133662Y-11098842D01*
X18137959Y-11107556D01*
X18138594Y-11117251D01*
X18135471Y-11126451D01*
X18133662Y-11129158D01*
X18133308Y-11129619D01*
X18133307Y-11129620D01*
X18120196Y-11152331D01*
X18120195Y-11152331D01*
X18110160Y-11176558D01*
X18103373Y-11201889D01*
X18101560Y-11215659D01*
X18099950Y-11227888D01*
X18099950Y-11254112D01*
X18100221Y-11256172D01*
X18102298Y-11271945D01*
X18103373Y-11280112D01*
X18103970Y-11282341D01*
X18110160Y-11305442D01*
X18116611Y-11321017D01*
X18118507Y-11330545D01*
X18116611Y-11340074D01*
X18111214Y-11348152D01*
X18103136Y-11353550D01*
X18093607Y-11355445D01*
X18084078Y-11353550D01*
X18076000Y-11348152D01*
X18057343Y-11329496D01*
X18051945Y-11321417D01*
X18050050Y-11311889D01*
X18050050Y-10087111D01*
X18051945Y-10077583D01*
X18057343Y-10069505D01*
X18457443Y-9669404D01*
X18465521Y-9664007D01*
X18475050Y-9662111D01*
X18484579Y-9664007D01*
G37*
%TD.AperFunction*%
%TA.AperFunction,Conductor*%
G36*
X13204479Y-11141439D02*
G01*
X13212557Y-11146837D01*
X13217955Y-11154915D01*
X13219850Y-11164444D01*
X13219850Y-11227556D01*
X13219194Y-11230854D01*
X13218945Y-11234208D01*
X13218254Y-11235579D01*
X13217955Y-11237085D01*
X13216086Y-11239881D01*
X13214573Y-11242884D01*
X13213410Y-11243887D01*
X13212557Y-11245163D01*
X13209760Y-11247032D01*
X13207213Y-11249227D01*
X13205755Y-11249708D01*
X13204479Y-11250561D01*
X13201180Y-11251217D01*
X13197987Y-11252270D01*
X13196456Y-11252157D01*
X13194950Y-11252456D01*
X13191652Y-11251800D01*
X13188298Y-11251551D01*
X13186927Y-11250860D01*
X13185421Y-11250561D01*
X13182625Y-11248692D01*
X13179622Y-11247179D01*
X13178619Y-11246016D01*
X13177343Y-11245163D01*
X13175474Y-11242367D01*
X13173279Y-11239819D01*
X13172528Y-11238493D01*
X13170804Y-11234330D01*
X13157692Y-11211620D01*
X13156279Y-11209778D01*
X13155422Y-11208263D01*
X13154435Y-11205271D01*
X13153041Y-11202445D01*
X13152927Y-11200698D01*
X13152379Y-11199037D01*
X13152612Y-11195894D01*
X13152406Y-11192750D01*
X13152968Y-11191093D01*
X13153098Y-11189348D01*
X13154548Y-11186438D01*
X13155529Y-11183550D01*
X13156593Y-11182336D01*
X13157338Y-11180842D01*
X13157520Y-11180605D01*
X13157692Y-11180380D01*
X13170804Y-11157670D01*
X13170805Y-11157669D01*
X13170805Y-11157668D01*
X13171945Y-11154915D01*
X13177343Y-11146837D01*
X13185421Y-11141439D01*
X13194950Y-11139544D01*
X13204479Y-11141439D01*
G37*
%TD.AperFunction*%
%TA.AperFunction,Conductor*%
G36*
X13204479Y-10887439D02*
G01*
X13212557Y-10892837D01*
X13217955Y-10900915D01*
X13219850Y-10910444D01*
X13219850Y-10973556D01*
X13219194Y-10976855D01*
X13218945Y-10980208D01*
X13218254Y-10981579D01*
X13217955Y-10983085D01*
X13216086Y-10985881D01*
X13214573Y-10988885D01*
X13213410Y-10989887D01*
X13212557Y-10991163D01*
X13209760Y-10993032D01*
X13207213Y-10995227D01*
X13205755Y-10995708D01*
X13204479Y-10996561D01*
X13201180Y-10997217D01*
X13197987Y-10998270D01*
X13196456Y-10998157D01*
X13194950Y-10998456D01*
X13191652Y-10997800D01*
X13188298Y-10997551D01*
X13186927Y-10996860D01*
X13185421Y-10996561D01*
X13182625Y-10994692D01*
X13179622Y-10993179D01*
X13178619Y-10992016D01*
X13177343Y-10991163D01*
X13175474Y-10988367D01*
X13173279Y-10985819D01*
X13172528Y-10984493D01*
X13170804Y-10980330D01*
X13157692Y-10957620D01*
X13156279Y-10955778D01*
X13155422Y-10954263D01*
X13154435Y-10951271D01*
X13153041Y-10948445D01*
X13152927Y-10946698D01*
X13152379Y-10945037D01*
X13152612Y-10941894D01*
X13152406Y-10938750D01*
X13152968Y-10937093D01*
X13153098Y-10935348D01*
X13154548Y-10932438D01*
X13155529Y-10929550D01*
X13156593Y-10928336D01*
X13157338Y-10926842D01*
X13157520Y-10926605D01*
X13157692Y-10926380D01*
X13170804Y-10903670D01*
X13170805Y-10903669D01*
X13170805Y-10903668D01*
X13171945Y-10900915D01*
X13177343Y-10892837D01*
X13185421Y-10887439D01*
X13194950Y-10885544D01*
X13204479Y-10887439D01*
G37*
%TD.AperFunction*%
%TA.AperFunction,Conductor*%
G36*
X13595475Y-10050129D02*
G01*
X13596293Y-10050021D01*
X13600213Y-10051071D01*
X13604194Y-10051863D01*
X13604880Y-10052322D01*
X13605677Y-10052535D01*
X13608898Y-10055006D01*
X13612272Y-10057261D01*
X13612731Y-10057947D01*
X13613385Y-10058449D01*
X13615415Y-10061964D01*
X13617670Y-10065339D01*
X13617831Y-10066148D01*
X13618244Y-10066863D01*
X13618774Y-10070886D01*
X13619566Y-10074868D01*
X13619405Y-10075677D01*
X13619512Y-10076495D01*
X13617670Y-10084397D01*
X13615760Y-10089008D01*
X13608973Y-10114339D01*
X13607511Y-10125439D01*
X13605550Y-10140338D01*
X13605550Y-10166562D01*
X13605736Y-10167973D01*
X13608973Y-10192561D01*
X13615760Y-10217892D01*
X13625795Y-10242119D01*
X13625795Y-10242119D01*
X13625796Y-10242120D01*
X13633244Y-10255021D01*
X13638907Y-10264830D01*
X13638908Y-10264831D01*
X13639262Y-10265292D01*
X13643559Y-10274006D01*
X13644194Y-10283701D01*
X13641071Y-10292901D01*
X13639262Y-10295608D01*
X13638908Y-10296069D01*
X13638907Y-10296070D01*
X13625795Y-10318781D01*
X13625795Y-10318781D01*
X13615760Y-10343008D01*
X13608973Y-10368339D01*
X13605550Y-10394338D01*
X13605550Y-10420562D01*
X13608973Y-10446561D01*
X13615760Y-10471892D01*
X13625795Y-10496119D01*
X13625795Y-10496119D01*
X13638907Y-10518830D01*
X13638908Y-10518831D01*
X13639262Y-10519292D01*
X13643559Y-10528006D01*
X13644194Y-10537701D01*
X13641071Y-10546901D01*
X13639262Y-10549608D01*
X13638908Y-10550069D01*
X13638907Y-10550070D01*
X13625795Y-10572781D01*
X13625795Y-10572781D01*
X13615760Y-10597008D01*
X13608973Y-10622339D01*
X13605550Y-10648338D01*
X13605550Y-10674562D01*
X13608973Y-10700561D01*
X13615760Y-10725892D01*
X13625795Y-10750119D01*
X13625795Y-10750119D01*
X13638907Y-10772830D01*
X13638908Y-10772831D01*
X13639262Y-10773292D01*
X13643559Y-10782006D01*
X13644194Y-10791701D01*
X13641071Y-10800901D01*
X13639262Y-10803608D01*
X13638908Y-10804069D01*
X13638907Y-10804070D01*
X13625795Y-10826781D01*
X13625795Y-10826781D01*
X13615760Y-10851008D01*
X13608973Y-10876339D01*
X13605550Y-10902338D01*
X13605550Y-10925660D01*
X13603655Y-10935189D01*
X13598257Y-10943267D01*
X13590179Y-10948664D01*
X13580650Y-10950560D01*
X13571121Y-10948664D01*
X13563043Y-10943267D01*
X13549004Y-10929228D01*
X13544425Y-10922926D01*
X13536229Y-10906839D01*
X13524197Y-10890278D01*
X13509722Y-10875803D01*
X13493161Y-10863771D01*
X13488330Y-10861310D01*
X13483545Y-10858872D01*
X13475916Y-10852857D01*
X13471169Y-10844380D01*
X13469950Y-10836686D01*
X13469950Y-10113761D01*
X13471845Y-10104232D01*
X13477243Y-10096155D01*
X13505604Y-10067793D01*
X13513682Y-10062395D01*
X13523211Y-10060500D01*
X13540401Y-10060500D01*
X13563801Y-10057419D01*
X13586599Y-10051311D01*
X13586600Y-10051310D01*
X13586600Y-10051310D01*
X13586660Y-10051290D01*
X13586692Y-10051286D01*
X13587387Y-10051100D01*
X13587411Y-10051191D01*
X13590684Y-10050760D01*
X13594665Y-10049968D01*
X13595475Y-10050129D01*
G37*
%TD.AperFunction*%
%TA.AperFunction,Conductor*%
G36*
X15826447Y-10571981D02*
G01*
X15827774Y-10572035D01*
X15831012Y-10573531D01*
X15834389Y-10574677D01*
X15835388Y-10575553D01*
X15836594Y-10576110D01*
X15839012Y-10578732D01*
X15841694Y-10581083D01*
X15843037Y-10583094D01*
X15843182Y-10583251D01*
X15843346Y-10583519D01*
X15847308Y-10590380D01*
X15848463Y-10591886D01*
X15849150Y-10593009D01*
X15850381Y-10596357D01*
X15851959Y-10599556D01*
X15852046Y-10600881D01*
X15852504Y-10602127D01*
X15852361Y-10605692D01*
X15852594Y-10609251D01*
X15852167Y-10610508D01*
X15852114Y-10611835D01*
X15850617Y-10615073D01*
X15849471Y-10618451D01*
X15848595Y-10619449D01*
X15848038Y-10620654D01*
X15847662Y-10621158D01*
X15847308Y-10621619D01*
X15847307Y-10621620D01*
X15834195Y-10644331D01*
X15834195Y-10644331D01*
X15824160Y-10668558D01*
X15820677Y-10681556D01*
X15817373Y-10693888D01*
X15816092Y-10703619D01*
X15813950Y-10719888D01*
X15813950Y-10746112D01*
X15817373Y-10772111D01*
X15821133Y-10786146D01*
X15821769Y-10795841D01*
X15818646Y-10805041D01*
X15812240Y-10812345D01*
X15803526Y-10816642D01*
X15793832Y-10817278D01*
X15784632Y-10814155D01*
X15770805Y-10806172D01*
X15770804Y-10806171D01*
X15758080Y-10800901D01*
X15748999Y-10797139D01*
X15726201Y-10791031D01*
X15726201Y-10791031D01*
X15702801Y-10787950D01*
X15679199Y-10787950D01*
X15655799Y-10791031D01*
X15655799Y-10791031D01*
X15655799Y-10791031D01*
X15638564Y-10795649D01*
X15633001Y-10797139D01*
X15633001Y-10797139D01*
X15611196Y-10806171D01*
X15611194Y-10806172D01*
X15590756Y-10817972D01*
X15590755Y-10817973D01*
X15572030Y-10832341D01*
X15572030Y-10832341D01*
X15555341Y-10849030D01*
X15555341Y-10849030D01*
X15540973Y-10867755D01*
X15540972Y-10867756D01*
X15531514Y-10884138D01*
X15525108Y-10891442D01*
X15516395Y-10895739D01*
X15506700Y-10896375D01*
X15497500Y-10893252D01*
X15490195Y-10886846D01*
X15485898Y-10878132D01*
X15485050Y-10871688D01*
X15485050Y-10790211D01*
X15486945Y-10780683D01*
X15492343Y-10772605D01*
X15636476Y-10628471D01*
X15644554Y-10623074D01*
X15654082Y-10621179D01*
X15657332Y-10621392D01*
X15662333Y-10622050D01*
X15662333Y-10622050D01*
X15689867Y-10622050D01*
X15717167Y-10618456D01*
X15743763Y-10611330D01*
X15769202Y-10600792D01*
X15793048Y-10587025D01*
X15806782Y-10576486D01*
X15807972Y-10575899D01*
X15808949Y-10574999D01*
X15812296Y-10573767D01*
X15815495Y-10572190D01*
X15816820Y-10572103D01*
X15818067Y-10571644D01*
X15821631Y-10571788D01*
X15825189Y-10571554D01*
X15826447Y-10571981D01*
G37*
%TD.AperFunction*%
%TA.AperFunction,Conductor*%
G36*
X13204479Y-10633439D02*
G01*
X13212557Y-10638837D01*
X13217955Y-10646915D01*
X13219850Y-10656444D01*
X13219850Y-10719556D01*
X13217955Y-10729085D01*
X13212557Y-10737163D01*
X13204479Y-10742561D01*
X13194950Y-10744456D01*
X13185421Y-10742561D01*
X13177343Y-10737163D01*
X13171945Y-10729085D01*
X13170804Y-10726331D01*
X13170804Y-10726330D01*
X13157692Y-10703620D01*
X13157692Y-10703619D01*
X13157338Y-10703158D01*
X13153041Y-10694445D01*
X13152406Y-10684750D01*
X13155529Y-10675550D01*
X13157338Y-10672842D01*
X13157520Y-10672605D01*
X13157692Y-10672380D01*
X13170804Y-10649670D01*
X13170805Y-10649669D01*
X13170805Y-10649668D01*
X13171945Y-10646915D01*
X13177343Y-10638837D01*
X13185421Y-10633439D01*
X13194950Y-10631544D01*
X13204479Y-10633439D01*
G37*
%TD.AperFunction*%
%TA.AperFunction,Conductor*%
G36*
X13204479Y-10379439D02*
G01*
X13212557Y-10384837D01*
X13217955Y-10392915D01*
X13219850Y-10402444D01*
X13219850Y-10465556D01*
X13219194Y-10468855D01*
X13218945Y-10472208D01*
X13218254Y-10473579D01*
X13217955Y-10475085D01*
X13216086Y-10477881D01*
X13214573Y-10480885D01*
X13213410Y-10481887D01*
X13212557Y-10483163D01*
X13209760Y-10485032D01*
X13207213Y-10487227D01*
X13205755Y-10487708D01*
X13204479Y-10488561D01*
X13201180Y-10489217D01*
X13197987Y-10490270D01*
X13196456Y-10490157D01*
X13194950Y-10490456D01*
X13191652Y-10489800D01*
X13188298Y-10489551D01*
X13186927Y-10488860D01*
X13185421Y-10488561D01*
X13182625Y-10486692D01*
X13179622Y-10485179D01*
X13178619Y-10484016D01*
X13177343Y-10483163D01*
X13175474Y-10480367D01*
X13173279Y-10477819D01*
X13172528Y-10476493D01*
X13170804Y-10472330D01*
X13157692Y-10449620D01*
X13156279Y-10447778D01*
X13155422Y-10446263D01*
X13154435Y-10443271D01*
X13153041Y-10440445D01*
X13152927Y-10438698D01*
X13152379Y-10437037D01*
X13152612Y-10433894D01*
X13152406Y-10430750D01*
X13152968Y-10429093D01*
X13153098Y-10427348D01*
X13154548Y-10424438D01*
X13155529Y-10421550D01*
X13156593Y-10420336D01*
X13157338Y-10418842D01*
X13157520Y-10418605D01*
X13157692Y-10418380D01*
X13170804Y-10395670D01*
X13170805Y-10395669D01*
X13170805Y-10395668D01*
X13171945Y-10392915D01*
X13177343Y-10384837D01*
X13185421Y-10379439D01*
X13194950Y-10377544D01*
X13204479Y-10379439D01*
G37*
%TD.AperFunction*%
%TA.AperFunction,Conductor*%
G36*
X13204479Y-10125439D02*
G01*
X13212557Y-10130837D01*
X13217955Y-10138915D01*
X13219850Y-10148444D01*
X13219850Y-10211556D01*
X13219194Y-10214855D01*
X13218945Y-10218208D01*
X13218254Y-10219579D01*
X13217955Y-10221085D01*
X13216086Y-10223881D01*
X13214573Y-10226885D01*
X13213410Y-10227887D01*
X13212557Y-10229163D01*
X13209760Y-10231032D01*
X13207213Y-10233227D01*
X13205755Y-10233708D01*
X13204479Y-10234561D01*
X13201180Y-10235217D01*
X13197987Y-10236270D01*
X13196456Y-10236157D01*
X13194950Y-10236456D01*
X13191652Y-10235800D01*
X13188298Y-10235551D01*
X13186927Y-10234860D01*
X13185421Y-10234561D01*
X13182625Y-10232692D01*
X13179622Y-10231179D01*
X13178619Y-10230016D01*
X13177343Y-10229163D01*
X13175474Y-10226367D01*
X13173279Y-10223819D01*
X13172528Y-10222493D01*
X13170804Y-10218330D01*
X13157692Y-10195620D01*
X13156279Y-10193778D01*
X13155422Y-10192263D01*
X13154435Y-10189271D01*
X13153041Y-10186445D01*
X13152927Y-10184698D01*
X13152379Y-10183037D01*
X13152612Y-10179894D01*
X13152406Y-10176750D01*
X13152968Y-10175093D01*
X13153098Y-10173348D01*
X13154548Y-10170438D01*
X13155529Y-10167550D01*
X13156593Y-10166336D01*
X13157338Y-10164842D01*
X13157520Y-10164605D01*
X13157692Y-10164380D01*
X13170804Y-10141670D01*
X13170805Y-10141669D01*
X13170805Y-10141668D01*
X13171945Y-10138915D01*
X13177343Y-10130837D01*
X13185421Y-10125439D01*
X13194950Y-10123544D01*
X13204479Y-10125439D01*
G37*
%TD.AperFunction*%
%TA.AperFunction,Conductor*%
G36*
X13299417Y-8655945D02*
G01*
X13307496Y-8661343D01*
X13396257Y-8750104D01*
X13401655Y-8758183D01*
X13403550Y-8767711D01*
X13403550Y-9240557D01*
X13401655Y-9250086D01*
X13396257Y-9258164D01*
X13392941Y-9261480D01*
X13392941Y-9261480D01*
X13378573Y-9280205D01*
X13378572Y-9280206D01*
X13366772Y-9300645D01*
X13366771Y-9300646D01*
X13357739Y-9322451D01*
X13351631Y-9345249D01*
X13351631Y-9345249D01*
X13351631Y-9345249D01*
X13350289Y-9355442D01*
X13348550Y-9368649D01*
X13348550Y-9392251D01*
X13349892Y-9402448D01*
X13351512Y-9414750D01*
X13351631Y-9415651D01*
X13356445Y-9433619D01*
X13357739Y-9438449D01*
X13357739Y-9438449D01*
X13366771Y-9460254D01*
X13366772Y-9460255D01*
X13378494Y-9480558D01*
X13378573Y-9480695D01*
X13392941Y-9499420D01*
X13409630Y-9516109D01*
X13428355Y-9530477D01*
X13428356Y-9530478D01*
X13448794Y-9542278D01*
X13448795Y-9542278D01*
X13448795Y-9542278D01*
X13470601Y-9551311D01*
X13493399Y-9557419D01*
X13516799Y-9560500D01*
X13540401Y-9560500D01*
X13563801Y-9557419D01*
X13584930Y-9551758D01*
X13586040Y-9551685D01*
X13587078Y-9551283D01*
X13590855Y-9551369D01*
X13594625Y-9551122D01*
X13595679Y-9551480D01*
X13596791Y-9551506D01*
X13600247Y-9553031D01*
X13603825Y-9554245D01*
X13604661Y-9554979D01*
X13605679Y-9555428D01*
X13608289Y-9558161D01*
X13611129Y-9560651D01*
X13611621Y-9561649D01*
X13612390Y-9562454D01*
X13613755Y-9565976D01*
X13615426Y-9569365D01*
X13615499Y-9570475D01*
X13615901Y-9571513D01*
X13615767Y-9574557D01*
X13616062Y-9579060D01*
X13615679Y-9581226D01*
X13615563Y-9581743D01*
X13608973Y-9606338D01*
X13607372Y-9618501D01*
X13607132Y-9619577D01*
X13605606Y-9623033D01*
X13604392Y-9626611D01*
X13603534Y-9627728D01*
X13603209Y-9628465D01*
X13602310Y-9629324D01*
X13600435Y-9631767D01*
X13539096Y-9693107D01*
X13531018Y-9698505D01*
X13521489Y-9700400D01*
X13516799Y-9700400D01*
X13493399Y-9703481D01*
X13493399Y-9703481D01*
X13493399Y-9703481D01*
X13476164Y-9708099D01*
X13470601Y-9709589D01*
X13470601Y-9709589D01*
X13448796Y-9718621D01*
X13448794Y-9718622D01*
X13428356Y-9730422D01*
X13428355Y-9730423D01*
X13409630Y-9744791D01*
X13409630Y-9744791D01*
X13392941Y-9761480D01*
X13392941Y-9761480D01*
X13378573Y-9780205D01*
X13378572Y-9780206D01*
X13366772Y-9800645D01*
X13366771Y-9800646D01*
X13362022Y-9812112D01*
X13357739Y-9822451D01*
X13351912Y-9844200D01*
X13351631Y-9845249D01*
X13349274Y-9863152D01*
X13346151Y-9872352D01*
X13342194Y-9877509D01*
X13249517Y-9970185D01*
X13237947Y-9986110D01*
X13237947Y-9986110D01*
X13229540Y-10002610D01*
X13223525Y-10010240D01*
X13215049Y-10014987D01*
X13205400Y-10016129D01*
X13196050Y-10013491D01*
X13188420Y-10007477D01*
X13183673Y-9999000D01*
X13183303Y-9997752D01*
X13180840Y-9988558D01*
X13170804Y-9964330D01*
X13157692Y-9941620D01*
X13157692Y-9941619D01*
X13157338Y-9941158D01*
X13153041Y-9932445D01*
X13152406Y-9922750D01*
X13155529Y-9913550D01*
X13157338Y-9910842D01*
X13157520Y-9910605D01*
X13157692Y-9910380D01*
X13170804Y-9887670D01*
X13180840Y-9863442D01*
X13187627Y-9838112D01*
X13191050Y-9812112D01*
X13191050Y-9785888D01*
X13187627Y-9759888D01*
X13180840Y-9734558D01*
X13170804Y-9710330D01*
X13157692Y-9687620D01*
X13157692Y-9687619D01*
X13157338Y-9687158D01*
X13153041Y-9678445D01*
X13152406Y-9668750D01*
X13155529Y-9659550D01*
X13157338Y-9656842D01*
X13157628Y-9656465D01*
X13157692Y-9656380D01*
X13170804Y-9633670D01*
X13180840Y-9609442D01*
X13187627Y-9584112D01*
X13191050Y-9558112D01*
X13191050Y-9531888D01*
X13187627Y-9505888D01*
X13180840Y-9480558D01*
X13170804Y-9456330D01*
X13157692Y-9433620D01*
X13157692Y-9433619D01*
X13157338Y-9433158D01*
X13153041Y-9424445D01*
X13152406Y-9414750D01*
X13155529Y-9405550D01*
X13157338Y-9402842D01*
X13157640Y-9402448D01*
X13157692Y-9402380D01*
X13170804Y-9379670D01*
X13180840Y-9355442D01*
X13187627Y-9330112D01*
X13191050Y-9304112D01*
X13191050Y-9277888D01*
X13187627Y-9251888D01*
X13180840Y-9226558D01*
X13170804Y-9202330D01*
X13157692Y-9179620D01*
X13157692Y-9179619D01*
X13157338Y-9179158D01*
X13153041Y-9170445D01*
X13152406Y-9160750D01*
X13155529Y-9151550D01*
X13157338Y-9148842D01*
X13157520Y-9148605D01*
X13157692Y-9148380D01*
X13170804Y-9125670D01*
X13180840Y-9101442D01*
X13187627Y-9076112D01*
X13191050Y-9050112D01*
X13191050Y-9023888D01*
X13187627Y-8997888D01*
X13180840Y-8972558D01*
X13170804Y-8948330D01*
X13157692Y-8925620D01*
X13157692Y-8925619D01*
X13157338Y-8925158D01*
X13153041Y-8916445D01*
X13152406Y-8906750D01*
X13155529Y-8897550D01*
X13157338Y-8894842D01*
X13157520Y-8894605D01*
X13157692Y-8894380D01*
X13170804Y-8871670D01*
X13180840Y-8847442D01*
X13187627Y-8822112D01*
X13191050Y-8796112D01*
X13191050Y-8769888D01*
X13187627Y-8743888D01*
X13180840Y-8718558D01*
X13170804Y-8694330D01*
X13169112Y-8691400D01*
X13165989Y-8682200D01*
X13166625Y-8672505D01*
X13170922Y-8663792D01*
X13178227Y-8657386D01*
X13187426Y-8654263D01*
X13190676Y-8654050D01*
X13289889Y-8654050D01*
X13299417Y-8655945D01*
G37*
%TD.AperFunction*%
%TA.AperFunction,Conductor*%
G36*
X10634479Y-9168609D02*
G01*
X10642557Y-9174007D01*
X10647955Y-9182085D01*
X10649002Y-9185169D01*
X10649131Y-9185651D01*
X10649131Y-9185651D01*
X10651233Y-9193498D01*
X10655239Y-9208449D01*
X10655239Y-9208449D01*
X10664271Y-9230254D01*
X10664272Y-9230255D01*
X10671692Y-9243108D01*
X10674815Y-9252308D01*
X10674180Y-9262003D01*
X10669883Y-9270716D01*
X10669426Y-9271293D01*
X10667131Y-9274109D01*
X10667130Y-9274110D01*
X10657709Y-9292145D01*
X10657709Y-9292145D01*
X10652112Y-9311708D01*
X10652111Y-9311708D01*
X10651050Y-9323646D01*
X10651050Y-9485253D01*
X10651050Y-9485254D01*
X10652111Y-9497191D01*
X10652111Y-9497192D01*
X10652111Y-9497192D01*
X10657524Y-9516109D01*
X10657709Y-9516755D01*
X10657709Y-9516755D01*
X10667130Y-9534790D01*
X10667131Y-9534791D01*
X10669426Y-9537607D01*
X10673979Y-9546189D01*
X10674901Y-9555861D01*
X10672051Y-9565149D01*
X10671692Y-9565792D01*
X10664272Y-9578645D01*
X10664271Y-9578646D01*
X10655239Y-9600451D01*
X10649131Y-9623249D01*
X10649131Y-9623249D01*
X10649002Y-9623731D01*
X10644705Y-9632444D01*
X10637400Y-9638850D01*
X10628200Y-9641973D01*
X10618505Y-9641338D01*
X10609792Y-9637041D01*
X10603386Y-9629736D01*
X10600263Y-9620536D01*
X10600050Y-9617286D01*
X10600050Y-9191614D01*
X10601945Y-9182085D01*
X10607343Y-9174007D01*
X10615421Y-9168609D01*
X10624950Y-9166714D01*
X10634479Y-9168609D01*
G37*
%TD.AperFunction*%
%TA.AperFunction,Conductor*%
G36*
X11122617Y-7551945D02*
G01*
X11130696Y-7557343D01*
X11136093Y-7565421D01*
X11137989Y-7574950D01*
X11136093Y-7584479D01*
X11130696Y-7592557D01*
X11029617Y-7693636D01*
X11029526Y-7693742D01*
X11029453Y-7693800D01*
X11028926Y-7694327D01*
X11028863Y-7694265D01*
X11021896Y-7699756D01*
X11012546Y-7702393D01*
X11002898Y-7701251D01*
X10994421Y-7696504D01*
X10990838Y-7692728D01*
X10979327Y-7677727D01*
X10979327Y-7677726D01*
X10962174Y-7660573D01*
X10962174Y-7660573D01*
X10962173Y-7660573D01*
X10942929Y-7645806D01*
X10942928Y-7645806D01*
X10921922Y-7633678D01*
X10921920Y-7633677D01*
X10899511Y-7624395D01*
X10899510Y-7624395D01*
X10899510Y-7624395D01*
X10899510Y-7624394D01*
X10899508Y-7624394D01*
X10876080Y-7618116D01*
X10876079Y-7618116D01*
X10852029Y-7614950D01*
X10827771Y-7614950D01*
X10803721Y-7618116D01*
X10803720Y-7618116D01*
X10780292Y-7624394D01*
X10780289Y-7624395D01*
X10757880Y-7633677D01*
X10757878Y-7633678D01*
X10736872Y-7645806D01*
X10736871Y-7645806D01*
X10717627Y-7660573D01*
X10717626Y-7660574D01*
X10700474Y-7677726D01*
X10700473Y-7677727D01*
X10685706Y-7696971D01*
X10685706Y-7696972D01*
X10673578Y-7717978D01*
X10673577Y-7717980D01*
X10664295Y-7740389D01*
X10664294Y-7740392D01*
X10658016Y-7763820D01*
X10658016Y-7763821D01*
X10654850Y-7787871D01*
X10654850Y-7812129D01*
X10658016Y-7836179D01*
X10658016Y-7836179D01*
X10664294Y-7859608D01*
X10664295Y-7859610D01*
X10673577Y-7882020D01*
X10673578Y-7882022D01*
X10685706Y-7903028D01*
X10685706Y-7903029D01*
X10700473Y-7922273D01*
X10700474Y-7922274D01*
X10717626Y-7939426D01*
X10717627Y-7939427D01*
X10722981Y-7943536D01*
X10736871Y-7954194D01*
X10742676Y-7957545D01*
X10757878Y-7966322D01*
X10757880Y-7966323D01*
X10771886Y-7972124D01*
X10780290Y-7975605D01*
X10780291Y-7975606D01*
X10780292Y-7975606D01*
X10798602Y-7980512D01*
X10803721Y-7981884D01*
X10827771Y-7985050D01*
X10852029Y-7985050D01*
X10876079Y-7981884D01*
X10893903Y-7977108D01*
X10899508Y-7975606D01*
X10899508Y-7975606D01*
X10899510Y-7975605D01*
X10914677Y-7969323D01*
X10921920Y-7966323D01*
X10921921Y-7966323D01*
X10921921Y-7966322D01*
X10942929Y-7954194D01*
X10959892Y-7941177D01*
X10968605Y-7936880D01*
X10978300Y-7936245D01*
X10987500Y-7939368D01*
X10994805Y-7945774D01*
X10999102Y-7954487D01*
X10999950Y-7960932D01*
X10999950Y-9009557D01*
X10998055Y-9019086D01*
X10992657Y-9027164D01*
X10984579Y-9032562D01*
X10975050Y-9034457D01*
X10965521Y-9032562D01*
X10957443Y-9027164D01*
X10945070Y-9014791D01*
X10945070Y-9014791D01*
X10926345Y-9000423D01*
X10916341Y-8994647D01*
X10905905Y-8988622D01*
X10905904Y-8988621D01*
X10891629Y-8982708D01*
X10884099Y-8979589D01*
X10861301Y-8973481D01*
X10861301Y-8973481D01*
X10837901Y-8970400D01*
X10814299Y-8970400D01*
X10790899Y-8973481D01*
X10790899Y-8973481D01*
X10790899Y-8973481D01*
X10777472Y-8977079D01*
X10768101Y-8979589D01*
X10768101Y-8979589D01*
X10746296Y-8988621D01*
X10746295Y-8988622D01*
X10725856Y-9000422D01*
X10725855Y-9000423D01*
X10707130Y-9014791D01*
X10707130Y-9014791D01*
X10690441Y-9031480D01*
X10690441Y-9031480D01*
X10676073Y-9050205D01*
X10676072Y-9050206D01*
X10664272Y-9070645D01*
X10664271Y-9070646D01*
X10657510Y-9086970D01*
X10655239Y-9092451D01*
X10649131Y-9115249D01*
X10649131Y-9115249D01*
X10649002Y-9115731D01*
X10644705Y-9124444D01*
X10637400Y-9130850D01*
X10628200Y-9133973D01*
X10618505Y-9133338D01*
X10609792Y-9129041D01*
X10603386Y-9121736D01*
X10600263Y-9112536D01*
X10600050Y-9109286D01*
X10600050Y-7574950D01*
X10601945Y-7565421D01*
X10607343Y-7557343D01*
X10615421Y-7551945D01*
X10624950Y-7550050D01*
X11113089Y-7550050D01*
X11122617Y-7551945D01*
G37*
%TD.AperFunction*%
%TD*%
D27*
X10550000Y-7500000D02*
X18550000Y-7500000D01*
X18550000Y-13500000D01*
X10550000Y-13500000D01*
X10550000Y-7500000D01*
M02*
