%TF.GenerationSoftware,KiCad,Pcbnew,9.0.3*%
%TF.CreationDate,2025-08-14T19:21:04+07:00*%
%TF.ProjectId,CFBoard,4346426f-6172-4642-9e6b-696361645f70,rev?*%
%TF.SameCoordinates,Original*%
%TF.FileFunction,Copper,L2,Bot*%
%TF.FilePolarity,Positive*%
%FSLAX45Y45*%
G04 Gerber Fmt 4.5, Leading zero omitted, Abs format (unit mm)*
G04 Created by KiCad (PCBNEW 9.0.3) date 2025-08-14 19:21:04*
%MOMM*%
%LPD*%
G01*
G04 APERTURE LIST*
G04 Aperture macros list*
%AMRoundRect*
0 Rectangle with rounded corners*
0 $1 Rounding radius*
0 $2 $3 $4 $5 $6 $7 $8 $9 X,Y pos of 4 corners*
0 Add a 4 corners polygon primitive as box body*
4,1,4,$2,$3,$4,$5,$6,$7,$8,$9,$2,$3,0*
0 Add four circle primitives for the rounded corners*
1,1,$1+$1,$2,$3*
1,1,$1+$1,$4,$5*
1,1,$1+$1,$6,$7*
1,1,$1+$1,$8,$9*
0 Add four rect primitives between the rounded corners*
20,1,$1+$1,$2,$3,$4,$5,0*
20,1,$1+$1,$4,$5,$6,$7,0*
20,1,$1+$1,$6,$7,$8,$9,0*
20,1,$1+$1,$8,$9,$2,$3,0*%
G04 Aperture macros list end*
%TA.AperFunction,ComponentPad*%
%ADD10R,2.000000X2.000000*%
%TD*%
%TA.AperFunction,ComponentPad*%
%ADD11RoundRect,0.250000X-0.600000X-0.725000X0.600000X-0.725000X0.600000X0.725000X-0.600000X0.725000X0*%
%TD*%
%TA.AperFunction,ComponentPad*%
%ADD12O,1.700000X1.950000*%
%TD*%
%TA.AperFunction,ComponentPad*%
%ADD13C,1.600000*%
%TD*%
%TA.AperFunction,ComponentPad*%
%ADD14RoundRect,0.249999X-0.850001X0.850001X-0.850001X-0.850001X0.850001X-0.850001X0.850001X0.850001X0*%
%TD*%
%TA.AperFunction,ComponentPad*%
%ADD15C,2.200000*%
%TD*%
%TA.AperFunction,ComponentPad*%
%ADD16R,1.700000X1.700000*%
%TD*%
%TA.AperFunction,ComponentPad*%
%ADD17C,2.000000*%
%TD*%
%TA.AperFunction,ComponentPad*%
%ADD18RoundRect,0.250000X-0.550000X0.550000X-0.550000X-0.550000X0.550000X-0.550000X0.550000X0.550000X0*%
%TD*%
%TA.AperFunction,ComponentPad*%
%ADD19R,2.000000X1.700000*%
%TD*%
%TA.AperFunction,ComponentPad*%
%ADD20RoundRect,0.250000X0.550000X-0.550000X0.550000X0.550000X-0.550000X0.550000X-0.550000X-0.550000X0*%
%TD*%
%TA.AperFunction,ComponentPad*%
%ADD21R,1.800000X1.800000*%
%TD*%
%TA.AperFunction,ComponentPad*%
%ADD22C,1.800000*%
%TD*%
%TA.AperFunction,ComponentPad*%
%ADD23R,1.500000X1.500000*%
%TD*%
%TA.AperFunction,Conductor*%
%ADD24C,1.000000*%
%TD*%
%TA.AperFunction,Conductor*%
%ADD25C,0.400000*%
%TD*%
%TA.AperFunction,Profile*%
%ADD26C,0.300000*%
%TD*%
G04 APERTURE END LIST*
D10*
%TO.P,REG1,1,VIN+*%
%TO.N,Net-(REG1-VIN+)*%
X15799000Y-8831450D03*
X15799000Y-9100450D03*
%TO.P,REG1,2,VIN-*%
%TO.N,GNDPWR*%
X15799000Y-7800450D03*
X15799000Y-8069450D03*
%TO.P,REG1,3,VOUT+*%
%TO.N,Net-(REG1-VOUT+)*%
X17653200Y-8831450D03*
X17653200Y-9100450D03*
%TO.P,REG1,4,VOUT-*%
%TO.N,Net-(D2-A)*%
X17653200Y-7800450D03*
X17653600Y-8069450D03*
%TD*%
D11*
%TO.P,CONN1,1,VIN*%
%TO.N,Net-(CONN1-VIN)*%
X13863600Y-8095450D03*
D12*
%TO.P,CONN1,2,GND*%
%TO.N,GNDPWR*%
X14113600Y-8095450D03*
%TO.P,CONN1,3,Signal_1*%
%TO.N,Net-(CONN1-Signal_1)*%
X14363600Y-8095450D03*
%TO.P,CONN1,4,Signal_2*%
%TO.N,Net-(CONN1-Signal_2)*%
X14613600Y-8095450D03*
%TO.P,CONN1,5,Signal_3*%
%TO.N,Net-(CONN1-Signal_3)*%
X14863600Y-8095450D03*
%TO.P,CONN1,6,Signal_4*%
%TO.N,Net-(CONN1-Signal_4)*%
X15113600Y-8095450D03*
%TD*%
D13*
%TO.P,C4,1*%
%TO.N,Net-(D1-K)*%
X13528600Y-9380450D03*
%TO.P,C4,2*%
%TO.N,Net-(D2-A)*%
X13528600Y-9880450D03*
%TD*%
%TO.P,R4,1*%
%TO.N,Net-(D2-K)*%
X15691000Y-10968000D03*
%TO.P,R4,2*%
%TO.N,Net-(U2-D7)*%
X15691000Y-11730000D03*
%TD*%
D14*
%TO.P,D1,1,K*%
%TO.N,Net-(D1-K)*%
X15690000Y-9630000D03*
D15*
%TO.P,D1,2,A*%
%TO.N,Net-(D1-A)*%
X15690000Y-10646000D03*
%TD*%
D13*
%TO.P,R1,1*%
%TO.N,Net-(U2-D5)*%
X14572000Y-8600000D03*
%TO.P,R1,2*%
%TO.N,Net-(U1-RST)*%
X13810000Y-8600000D03*
%TD*%
%TO.P,R2,1*%
%TO.N,Net-(U1-PB6)*%
X10841000Y-10318000D03*
%TO.P,R2,2*%
%TO.N,Net-(U2-Rx)*%
X10841000Y-11080000D03*
%TD*%
D16*
%TO.P,U4,1,VIN*%
%TO.N,Net-(D1-K)*%
X13806000Y-13076000D03*
D17*
%TO.P,U4,2,GND*%
%TO.N,Net-(D2-A)*%
X13806000Y-12822000D03*
%TO.P,U4,3,SCL*%
%TO.N,Net-(U1-PB8)*%
X13806000Y-12568000D03*
%TO.P,U4,4,SDA*%
%TO.N,Net-(U1-PB9)*%
X13806000Y-12314000D03*
%TO.P,U4,5,NC*%
%TO.N,unconnected-(U4-NC-Pad5)*%
X13806000Y-12060000D03*
%TD*%
D18*
%TO.P,C3,1*%
%TO.N,Net-(D1-A)*%
X15541000Y-12025000D03*
D13*
%TO.P,C3,2*%
%TO.N,Net-(D2-A)*%
X15541000Y-12275000D03*
%TD*%
D19*
%TO.P,U1,1,PB12*%
%TO.N,unconnected-(U1-PB12-Pad1)*%
X11467000Y-8021000D03*
D17*
%TO.P,U1,2,PB13*%
%TO.N,unconnected-(U1-PB13-Pad2)*%
X11467000Y-8275000D03*
%TO.P,U1,3,PB14*%
%TO.N,unconnected-(U1-PB14-Pad3)*%
X11467000Y-8529000D03*
%TO.P,U1,4,PB15*%
%TO.N,unconnected-(U1-PB15-Pad4)*%
X11467000Y-8783000D03*
%TO.P,U1,5,PA8*%
%TO.N,unconnected-(U1-PA8-Pad5)*%
X11467000Y-9037000D03*
%TO.P,U1,6,PA9*%
%TO.N,unconnected-(U1-PA9-Pad6)*%
X11467000Y-9291000D03*
%TO.P,U1,7,PA10*%
%TO.N,unconnected-(U1-PA10-Pad7)*%
X11467000Y-9545000D03*
%TO.P,U1,8,PA11*%
%TO.N,unconnected-(U1-PA11-Pad8)*%
X11467000Y-9799000D03*
%TO.P,U1,9,PA12*%
%TO.N,unconnected-(U1-PA12-Pad9)*%
X11467000Y-10053000D03*
%TO.P,U1,10,PA15*%
%TO.N,unconnected-(U1-PA15-Pad10)*%
X11467000Y-10307000D03*
%TO.P,U1,11,PB3*%
%TO.N,unconnected-(U1-PB3-Pad11)*%
X11467000Y-10561000D03*
%TO.P,U1,12,PB4*%
%TO.N,unconnected-(U1-PB4-Pad12)*%
X11467000Y-10815000D03*
%TO.P,U1,13,PB5*%
%TO.N,unconnected-(U1-PB5-Pad13)*%
X11467000Y-11069000D03*
%TO.P,U1,14,PB6*%
%TO.N,Net-(U1-PB6)*%
X11467000Y-11323000D03*
%TO.P,U1,15,PB7*%
%TO.N,Net-(U1-PB7)*%
X11467000Y-11577000D03*
%TO.P,U1,16,PB8*%
%TO.N,Net-(U1-PB8)*%
X11467000Y-11831000D03*
%TO.P,U1,17,PB9*%
%TO.N,Net-(U1-PB9)*%
X11467000Y-12085000D03*
%TO.P,U1,18,5V*%
%TO.N,unconnected-(U1-5V-Pad18)*%
X11467000Y-12339000D03*
%TO.P,U1,19,GND*%
%TO.N,unconnected-(U1-GND-Pad19)*%
X11467000Y-12593000D03*
%TO.P,U1,20,3V3*%
%TO.N,unconnected-(U1-3V3-Pad20)*%
X11467000Y-12847000D03*
%TO.P,U1,21,VBat*%
%TO.N,unconnected-(U1-VBat-Pad21)*%
X12991000Y-12847000D03*
%TO.P,U1,22,PC13*%
%TO.N,unconnected-(U1-PC13-Pad22)*%
X12991000Y-12593000D03*
%TO.P,U1,23,PC14*%
%TO.N,unconnected-(U1-PC14-Pad23)*%
X12991000Y-12339000D03*
%TO.P,U1,24,PC15*%
%TO.N,unconnected-(U1-PC15-Pad24)*%
X12991000Y-12085000D03*
%TO.P,U1,25,PA0*%
%TO.N,Net-(CONN1-Signal_1)*%
X12991000Y-11831000D03*
%TO.P,U1,26,PA1*%
%TO.N,Net-(CONN1-Signal_2)*%
X12991000Y-11577000D03*
%TO.P,U1,27,PA2*%
%TO.N,Net-(CONN1-Signal_3)*%
X12991000Y-11323000D03*
%TO.P,U1,28,PA3*%
%TO.N,Net-(CONN1-Signal_4)*%
X12991000Y-11069000D03*
%TO.P,U1,29,PA4*%
%TO.N,unconnected-(U1-PA4-Pad29)*%
X12991000Y-10815000D03*
%TO.P,U1,30,PA5*%
%TO.N,unconnected-(U1-PA5-Pad30)*%
X12991000Y-10561000D03*
%TO.P,U1,31,PA6*%
%TO.N,unconnected-(U1-PA6-Pad31)*%
X12991000Y-10307000D03*
%TO.P,U1,32,PA7*%
%TO.N,unconnected-(U1-PA7-Pad32)*%
X12991000Y-10053000D03*
%TO.P,U1,33,PB0*%
%TO.N,Net-(U1-PB0)*%
X12991000Y-9799000D03*
%TO.P,U1,34,PB1*%
%TO.N,unconnected-(U1-PB1-Pad34)*%
X12991000Y-9545000D03*
%TO.P,U1,35,PB10*%
%TO.N,unconnected-(U1-PB10-Pad35)*%
X12991000Y-9291000D03*
%TO.P,U1,36,PB11*%
%TO.N,unconnected-(U1-PB11-Pad36)*%
X12991000Y-9037000D03*
%TO.P,U1,37,RST*%
%TO.N,Net-(U1-RST)*%
X12991000Y-8783000D03*
%TO.P,U1,38,3V3*%
%TO.N,Net-(D1-K)*%
X12991000Y-8529000D03*
%TO.P,U1,39,GND*%
%TO.N,Net-(D2-A)*%
X12991000Y-8275000D03*
%TO.P,U1,40,GND*%
%TO.N,unconnected-(U1-GND-Pad40)*%
X12991000Y-8021000D03*
%TD*%
D20*
%TO.P,C2,1*%
%TO.N,Net-(REG1-VOUT+)*%
X18210000Y-8650000D03*
D13*
%TO.P,C2,2*%
%TO.N,Net-(D2-A)*%
X18210000Y-8400000D03*
%TD*%
D20*
%TO.P,C1,1*%
%TO.N,Net-(REG1-VIN+)*%
X15141000Y-8850000D03*
D13*
%TO.P,C1,2*%
%TO.N,GNDPWR*%
X15141000Y-8600000D03*
%TD*%
%TO.P,R3,1*%
%TO.N,Net-(U1-PB7)*%
X10841000Y-11418000D03*
%TO.P,R3,2*%
%TO.N,Net-(U2-Tx)*%
X10841000Y-12180000D03*
%TD*%
D21*
%TO.P,D2,1,K*%
%TO.N,Net-(D2-K)*%
X15560000Y-13044000D03*
D22*
%TO.P,D2,2,A*%
%TO.N,Net-(D2-A)*%
X15560000Y-12790000D03*
%TD*%
D17*
%TO.P,U2,1,5V*%
%TO.N,Net-(REG1-VOUT+)*%
X18300000Y-12003000D03*
%TO.P,U2,2,GND*%
%TO.N,Net-(D2-A)*%
X18300000Y-11749000D03*
%TO.P,U2,3,D4*%
%TO.N,unconnected-(U2-D4-Pad3)*%
X18300000Y-11495000D03*
%TO.P,U2,4,D3*%
%TO.N,unconnected-(U2-D3-Pad4)*%
X18300000Y-11241000D03*
%TO.P,U2,5,D2*%
%TO.N,unconnected-(U2-D2-Pad5)*%
X18300000Y-10987000D03*
%TO.P,U2,6,D1*%
%TO.N,unconnected-(U2-D1-Pad6)*%
X18300000Y-10733000D03*
%TO.P,U2,7,Rx*%
%TO.N,Net-(U2-Rx)*%
X18300000Y-10479000D03*
%TO.P,U2,8,Tx*%
%TO.N,Net-(U2-Tx)*%
X18300000Y-10225000D03*
%TO.P,U2,9,Rst*%
%TO.N,unconnected-(U2-Rst-Pad9)*%
X16014000Y-10225000D03*
%TO.P,U2,10,A0*%
%TO.N,unconnected-(U2-A0-Pad10)*%
X16014000Y-10479000D03*
%TO.P,U2,11,D0*%
%TO.N,unconnected-(U2-D0-Pad11)*%
X16014000Y-10733000D03*
%TO.P,U2,12,D5*%
%TO.N,Net-(U2-D5)*%
X16014000Y-10987000D03*
%TO.P,U2,13,D6*%
%TO.N,unconnected-(U2-D6-Pad13)*%
X16014000Y-11241000D03*
%TO.P,U2,14,D7*%
%TO.N,Net-(U2-D7)*%
X16014000Y-11495000D03*
%TO.P,U2,15,D8*%
%TO.N,unconnected-(U2-D8-Pad15)*%
X16014000Y-11749000D03*
%TO.P,U2,16,3.3V*%
%TO.N,Net-(D1-A)*%
X16014000Y-12003000D03*
%TD*%
D13*
%TO.P,R5,1*%
%TO.N,Net-(U3-INT)*%
X14570000Y-9000000D03*
%TO.P,R5,2*%
%TO.N,Net-(U1-PB0)*%
X13808000Y-9000000D03*
%TD*%
%TO.P,C5,1*%
%TO.N,Net-(D2-A)*%
X13526100Y-12575450D03*
%TO.P,C5,2*%
%TO.N,Net-(D1-K)*%
X13526100Y-13075450D03*
%TD*%
D23*
%TO.P,SW1,1,A*%
%TO.N,Net-(CONN1-VIN)*%
X10826100Y-9404450D03*
D13*
%TO.P,SW1,2,B*%
%TO.N,Net-(REG1-VIN+)*%
X10826100Y-9658450D03*
%TO.P,SW1,3*%
%TO.N,N/C*%
X10826100Y-9150450D03*
%TD*%
D16*
%TO.P,U3,1,VIN*%
%TO.N,Net-(D1-K)*%
X13805600Y-9391450D03*
D17*
%TO.P,U3,2,GND*%
%TO.N,Net-(D2-A)*%
X13805600Y-9645450D03*
%TO.P,U3,3,SCL*%
%TO.N,Net-(U1-PB8)*%
X13805600Y-9899450D03*
%TO.P,U3,4,SDA*%
%TO.N,Net-(U1-PB9)*%
X13805600Y-10153450D03*
%TO.P,U3,5,EDA*%
%TO.N,unconnected-(U3-EDA-Pad5)*%
X13805600Y-10407450D03*
%TO.P,U3,6,ECL*%
%TO.N,unconnected-(U3-ECL-Pad6)*%
X13805600Y-10661450D03*
%TO.P,U3,7,AD0*%
%TO.N,unconnected-(U3-AD0-Pad7)*%
X13805600Y-10915450D03*
%TO.P,U3,8,INT*%
%TO.N,Net-(U3-INT)*%
X13805600Y-11169450D03*
%TO.P,U3,9,NCS*%
%TO.N,unconnected-(U3-NCS-Pad9)*%
X13805600Y-11423450D03*
%TO.P,U3,10,FSYNC*%
%TO.N,unconnected-(U3-FSYNC-Pad10)*%
X13805600Y-11677450D03*
%TD*%
D24*
%TO.N,Net-(CONN1-VIN)*%
X13863600Y-7940450D02*
X13863600Y-8095450D01*
X13523250Y-7600100D02*
X13863600Y-7940450D01*
X13523250Y-7600100D02*
X11410100Y-7600100D01*
X11010000Y-9220550D02*
X10826100Y-9404450D01*
X11410100Y-7600100D02*
X11010000Y-8000200D01*
X11010000Y-8000200D02*
X11010000Y-9220550D01*
D25*
%TO.N,Net-(U3-INT)*%
X13760000Y-9190000D02*
X14380000Y-9190000D01*
X14380000Y-9190000D02*
X14570000Y-9000000D01*
X13665500Y-9284500D02*
X13760000Y-9190000D01*
X13665500Y-11029350D02*
X13805600Y-11169450D01*
X13665500Y-9284500D02*
X13665500Y-11029350D01*
D24*
%TO.N,Net-(D1-A)*%
X15449000Y-10646000D02*
X15690000Y-10646000D01*
X15541000Y-12025000D02*
X15515000Y-12025000D01*
X15515000Y-12025000D02*
X15352500Y-11862500D01*
X15352500Y-11862500D02*
X15352500Y-10742500D01*
X16014000Y-12003000D02*
X15563000Y-12003000D01*
X15352500Y-10742500D02*
X15449000Y-10646000D01*
%TO.N,Net-(REG1-VIN+)*%
X14111353Y-8263050D02*
X14258403Y-8410100D01*
X13691651Y-7938348D02*
X13691651Y-8191186D01*
X10826100Y-9658450D02*
X10862300Y-9658450D01*
X11459847Y-7720200D02*
X13473503Y-7720200D01*
X10862300Y-9658450D02*
X11130100Y-9390650D01*
X15480450Y-9100450D02*
X15799000Y-9100450D01*
X14940576Y-8569424D02*
X14940576Y-8760577D01*
X14940576Y-8760577D02*
X15030000Y-8850000D01*
X13473503Y-7720200D02*
X13691651Y-7938348D01*
X15799000Y-9100450D02*
X15799000Y-8806050D01*
X14258403Y-8410100D02*
X14781253Y-8410100D01*
X15230000Y-8850000D02*
X15480450Y-9100450D01*
X14781253Y-8410100D02*
X14940576Y-8569424D01*
X11130100Y-9390650D02*
X11130100Y-8049947D01*
X13691651Y-8191186D02*
X13763516Y-8263050D01*
X15030000Y-8850000D02*
X15141000Y-8850000D01*
X15141000Y-8850000D02*
X15230000Y-8850000D01*
X13763516Y-8263050D02*
X14111353Y-8263050D01*
X11130100Y-8049947D02*
X11459847Y-7720200D01*
%TO.N,GNDPWR*%
X15799000Y-7800450D02*
X15799000Y-8094850D01*
X14113600Y-8095450D02*
X14308150Y-8290000D01*
X14308150Y-8290000D02*
X14831000Y-8290000D01*
X15719550Y-7800450D02*
X15799000Y-7800450D01*
X15290000Y-8600000D02*
X15460000Y-8430000D01*
X14831000Y-8290000D02*
X15141000Y-8600000D01*
X15460000Y-8060000D02*
X15719550Y-7800450D01*
X15460000Y-8430000D02*
X15460000Y-8060000D01*
X15141000Y-8600000D02*
X15290000Y-8600000D01*
%TO.N,Net-(REG1-VOUT+)*%
X18210000Y-9920000D02*
X18210000Y-8650000D01*
X17653200Y-8806050D02*
X17653200Y-8676800D01*
X17870000Y-11573000D02*
X17870000Y-10260000D01*
X17653200Y-9100450D02*
X17653200Y-8806050D01*
X17870000Y-10260000D02*
X18210000Y-9920000D01*
X18300000Y-12003000D02*
X17870000Y-11573000D01*
X17810000Y-8520000D02*
X18080000Y-8520000D01*
X18080000Y-8520000D02*
X18210000Y-8650000D01*
X17653200Y-8676800D02*
X17810000Y-8520000D01*
%TD*%
%TA.AperFunction,Conductor*%
%TO.N,Net-(D2-A)*%
G36*
X11295426Y-7552018D02*
G01*
X11300001Y-7557299D01*
X11300995Y-7564215D01*
X11298093Y-7570570D01*
X11297490Y-7571218D01*
X11008932Y-7859776D01*
X11002800Y-7863124D01*
X10995830Y-7862626D01*
X10990237Y-7858439D01*
X10987795Y-7851892D01*
X10988708Y-7846262D01*
X10995605Y-7829610D01*
X10995605Y-7829610D01*
X11001884Y-7806179D01*
X11005050Y-7782129D01*
X11005050Y-7757871D01*
X11001884Y-7733821D01*
X10995605Y-7710390D01*
X10986322Y-7687979D01*
X10974194Y-7666971D01*
X10959427Y-7647726D01*
X10959426Y-7647726D01*
X10942274Y-7630574D01*
X10942274Y-7630573D01*
X10923029Y-7615807D01*
X10923029Y-7615807D01*
X10923029Y-7615806D01*
X10902021Y-7603678D01*
X10902021Y-7603677D01*
X10879610Y-7594395D01*
X10856179Y-7588116D01*
X10832129Y-7584950D01*
X10832129Y-7584950D01*
X10807871Y-7584950D01*
X10807871Y-7584950D01*
X10783821Y-7588116D01*
X10760390Y-7594395D01*
X10737979Y-7603677D01*
X10737979Y-7603678D01*
X10716971Y-7615807D01*
X10697726Y-7630573D01*
X10697726Y-7630574D01*
X10680574Y-7647726D01*
X10680573Y-7647726D01*
X10665807Y-7666971D01*
X10653678Y-7687978D01*
X10653677Y-7687979D01*
X10644395Y-7710389D01*
X10638116Y-7733821D01*
X10634950Y-7757871D01*
X10634950Y-7782129D01*
X10638116Y-7806178D01*
X10644395Y-7829610D01*
X10653624Y-7851892D01*
X10653678Y-7852021D01*
X10665806Y-7873029D01*
X10665807Y-7873029D01*
X10665807Y-7873029D01*
X10680573Y-7892274D01*
X10680574Y-7892274D01*
X10697726Y-7909426D01*
X10697726Y-7909427D01*
X10700124Y-7911266D01*
X10716971Y-7924194D01*
X10737979Y-7936322D01*
X10760390Y-7945605D01*
X10783821Y-7951884D01*
X10801859Y-7954258D01*
X10807871Y-7955050D01*
X10807871Y-7955050D01*
X10832129Y-7955050D01*
X10836939Y-7954417D01*
X10856179Y-7951884D01*
X10879610Y-7945605D01*
X10902021Y-7936322D01*
X10905347Y-7934402D01*
X10912136Y-7932755D01*
X10918739Y-7935040D01*
X10923058Y-7940532D01*
X10923723Y-7947488D01*
X10922814Y-7950318D01*
X10922403Y-7951212D01*
X10921337Y-7952809D01*
X10918379Y-7959950D01*
X10918288Y-7960168D01*
X10918288Y-7960169D01*
X10914465Y-7969400D01*
X10914464Y-7969400D01*
X10913795Y-7971016D01*
X10913795Y-7971017D01*
X10909950Y-7990346D01*
X10909950Y-9026980D01*
X10907982Y-9033684D01*
X10902701Y-9038260D01*
X10895785Y-9039254D01*
X10891921Y-9038029D01*
X10876022Y-9029928D01*
X10876022Y-9029928D01*
X10876022Y-9029928D01*
X10866950Y-9026980D01*
X10856553Y-9023602D01*
X10839100Y-9020838D01*
X10836335Y-9020400D01*
X10815865Y-9020400D01*
X10813433Y-9020785D01*
X10795647Y-9023602D01*
X10776178Y-9029928D01*
X10757939Y-9039222D01*
X10741379Y-9051253D01*
X10726903Y-9065729D01*
X10714872Y-9082289D01*
X10705578Y-9100528D01*
X10699252Y-9119997D01*
X10696050Y-9140215D01*
X10696050Y-9160685D01*
X10699252Y-9180903D01*
X10705578Y-9200372D01*
X10714872Y-9218611D01*
X10726903Y-9235171D01*
X10741379Y-9249647D01*
X10751646Y-9257107D01*
X10755913Y-9262640D01*
X10756511Y-9269601D01*
X10753250Y-9275781D01*
X10747166Y-9279216D01*
X10745683Y-9279468D01*
X10740352Y-9280041D01*
X10726867Y-9285070D01*
X10726866Y-9285071D01*
X10715346Y-9293695D01*
X10715345Y-9293696D01*
X10706721Y-9305216D01*
X10706720Y-9305217D01*
X10701691Y-9318702D01*
X10701050Y-9324662D01*
X10701050Y-9324664D01*
X10701050Y-9484237D01*
X10701050Y-9484238D01*
X10701691Y-9490198D01*
X10706720Y-9503683D01*
X10706721Y-9503684D01*
X10715345Y-9515204D01*
X10715346Y-9515205D01*
X10726866Y-9523829D01*
X10726867Y-9523830D01*
X10731362Y-9525506D01*
X10740352Y-9528859D01*
X10745684Y-9529432D01*
X10752138Y-9532106D01*
X10756123Y-9537845D01*
X10756373Y-9544828D01*
X10752807Y-9550837D01*
X10751646Y-9551793D01*
X10741379Y-9559253D01*
X10741378Y-9559253D01*
X10726903Y-9573729D01*
X10714872Y-9590289D01*
X10705578Y-9608528D01*
X10699252Y-9627997D01*
X10696050Y-9648215D01*
X10696050Y-9668685D01*
X10699252Y-9688903D01*
X10705578Y-9708372D01*
X10711503Y-9720000D01*
X10713366Y-9723656D01*
X10714872Y-9726611D01*
X10726903Y-9743171D01*
X10741379Y-9757647D01*
X10753890Y-9766737D01*
X10757939Y-9769679D01*
X10766952Y-9774271D01*
X10776178Y-9778972D01*
X10776178Y-9778972D01*
X10776178Y-9778972D01*
X10786614Y-9782363D01*
X10795647Y-9785298D01*
X10805756Y-9786899D01*
X10815865Y-9788500D01*
X10815865Y-9788500D01*
X10836335Y-9788500D01*
X10836335Y-9788500D01*
X10856553Y-9785298D01*
X10876022Y-9778972D01*
X10894261Y-9769679D01*
X10907042Y-9760393D01*
X10910821Y-9757647D01*
X10910822Y-9757647D01*
X10910822Y-9757647D01*
X10925297Y-9743172D01*
X10937329Y-9726611D01*
X10938201Y-9724900D01*
X10938336Y-9724713D01*
X10938362Y-9724593D01*
X10939064Y-9723656D01*
X10939027Y-9723633D01*
X10939028Y-9723632D01*
X10939831Y-9722630D01*
X10940415Y-9721849D01*
X10940475Y-9721767D01*
X10940555Y-9721686D01*
X10940716Y-9721526D01*
X10940716Y-9721526D01*
X10940720Y-9721522D01*
X10940720Y-9721521D01*
X11193878Y-9468364D01*
X11193878Y-9468364D01*
X11207814Y-9454428D01*
X11218763Y-9438041D01*
X11224096Y-9425167D01*
X11226305Y-9419834D01*
X11229068Y-9405943D01*
X11230150Y-9400504D01*
X11230150Y-8096525D01*
X11232118Y-8089821D01*
X11233781Y-8087757D01*
X11295782Y-8025757D01*
X11301914Y-8022408D01*
X11308883Y-8022907D01*
X11314477Y-8027094D01*
X11316918Y-8033640D01*
X11316950Y-8034525D01*
X11316950Y-8110787D01*
X11316950Y-8110788D01*
X11317591Y-8116748D01*
X11322620Y-8130233D01*
X11322621Y-8130233D01*
X11331245Y-8141754D01*
X11331245Y-8141755D01*
X11342766Y-8150379D01*
X11342767Y-8150380D01*
X11351383Y-8153593D01*
X11356976Y-8157780D01*
X11359418Y-8164327D01*
X11357933Y-8171154D01*
X11355818Y-8173979D01*
X11352549Y-8177249D01*
X11352548Y-8177249D01*
X11352548Y-8177249D01*
X11350934Y-8179471D01*
X11338666Y-8196357D01*
X11327943Y-8217400D01*
X11320645Y-8239863D01*
X11316950Y-8263190D01*
X11316950Y-8286810D01*
X11320645Y-8310137D01*
X11327943Y-8332600D01*
X11332103Y-8340764D01*
X11338666Y-8353643D01*
X11352548Y-8372751D01*
X11369249Y-8389452D01*
X11372713Y-8391968D01*
X11376979Y-8397501D01*
X11377577Y-8404463D01*
X11374316Y-8410642D01*
X11372713Y-8412032D01*
X11370936Y-8413322D01*
X11369249Y-8414548D01*
X11352548Y-8431249D01*
X11352548Y-8431249D01*
X11352548Y-8431249D01*
X11352484Y-8431337D01*
X11338666Y-8450357D01*
X11327943Y-8471400D01*
X11320645Y-8493863D01*
X11316950Y-8517190D01*
X11316950Y-8540810D01*
X11320645Y-8564137D01*
X11327943Y-8586600D01*
X11334306Y-8599086D01*
X11338666Y-8607643D01*
X11352548Y-8626751D01*
X11369249Y-8643452D01*
X11372713Y-8645968D01*
X11376979Y-8651501D01*
X11377577Y-8658463D01*
X11374316Y-8664642D01*
X11372713Y-8666032D01*
X11371455Y-8666946D01*
X11369249Y-8668548D01*
X11352548Y-8685249D01*
X11352548Y-8685249D01*
X11352548Y-8685249D01*
X11349051Y-8690062D01*
X11338666Y-8704357D01*
X11327943Y-8725400D01*
X11320645Y-8747863D01*
X11316950Y-8771190D01*
X11316950Y-8794810D01*
X11320645Y-8818137D01*
X11327943Y-8840600D01*
X11338666Y-8861643D01*
X11352548Y-8880751D01*
X11369249Y-8897452D01*
X11372713Y-8899968D01*
X11376979Y-8905501D01*
X11377577Y-8912463D01*
X11374316Y-8918642D01*
X11372713Y-8920032D01*
X11370936Y-8921322D01*
X11369249Y-8922548D01*
X11352548Y-8939249D01*
X11352548Y-8939249D01*
X11352548Y-8939249D01*
X11350406Y-8942198D01*
X11338666Y-8958357D01*
X11327943Y-8979400D01*
X11320645Y-9001863D01*
X11316950Y-9025190D01*
X11316950Y-9048810D01*
X11320645Y-9072137D01*
X11327943Y-9094600D01*
X11333452Y-9105411D01*
X11338666Y-9115643D01*
X11352548Y-9134751D01*
X11369249Y-9151452D01*
X11372713Y-9153968D01*
X11376979Y-9159501D01*
X11377577Y-9166463D01*
X11374316Y-9172642D01*
X11372713Y-9174032D01*
X11370936Y-9175322D01*
X11369249Y-9176548D01*
X11352548Y-9193249D01*
X11352548Y-9193249D01*
X11352548Y-9193249D01*
X11350074Y-9196655D01*
X11338666Y-9212357D01*
X11327943Y-9233400D01*
X11320645Y-9255863D01*
X11316950Y-9279190D01*
X11316950Y-9302810D01*
X11320645Y-9326137D01*
X11327943Y-9348600D01*
X11335840Y-9364098D01*
X11338666Y-9369643D01*
X11352548Y-9388751D01*
X11369249Y-9405452D01*
X11372713Y-9407968D01*
X11376979Y-9413501D01*
X11377577Y-9420463D01*
X11374316Y-9426642D01*
X11372713Y-9428032D01*
X11372608Y-9428108D01*
X11369249Y-9430548D01*
X11352548Y-9447249D01*
X11352548Y-9447249D01*
X11352548Y-9447249D01*
X11347332Y-9454428D01*
X11338666Y-9466357D01*
X11327943Y-9487400D01*
X11320645Y-9509863D01*
X11316950Y-9533190D01*
X11316950Y-9556810D01*
X11320645Y-9580137D01*
X11327943Y-9602600D01*
X11338666Y-9623643D01*
X11352548Y-9642751D01*
X11369249Y-9659452D01*
X11372713Y-9661968D01*
X11376979Y-9667501D01*
X11377577Y-9674463D01*
X11374316Y-9680642D01*
X11372713Y-9682032D01*
X11370936Y-9683322D01*
X11369249Y-9684548D01*
X11352548Y-9701249D01*
X11352548Y-9701249D01*
X11352548Y-9701249D01*
X11347373Y-9708372D01*
X11338666Y-9720357D01*
X11327943Y-9741400D01*
X11320645Y-9763863D01*
X11316950Y-9787190D01*
X11316950Y-9810810D01*
X11320645Y-9834137D01*
X11327943Y-9856600D01*
X11336515Y-9873422D01*
X11338666Y-9877643D01*
X11352548Y-9896751D01*
X11369249Y-9913452D01*
X11372713Y-9915968D01*
X11376979Y-9921501D01*
X11377577Y-9928463D01*
X11374316Y-9934642D01*
X11372713Y-9936032D01*
X11370936Y-9937322D01*
X11369249Y-9938548D01*
X11352548Y-9955249D01*
X11352548Y-9955249D01*
X11352548Y-9955249D01*
X11351240Y-9957049D01*
X11338666Y-9974357D01*
X11327943Y-9995400D01*
X11320645Y-10017863D01*
X11316950Y-10041190D01*
X11316950Y-10064810D01*
X11320645Y-10088137D01*
X11327943Y-10110600D01*
X11336426Y-10127249D01*
X11338666Y-10131643D01*
X11352548Y-10150751D01*
X11369249Y-10167452D01*
X11372713Y-10169968D01*
X11376979Y-10175501D01*
X11377577Y-10182463D01*
X11374316Y-10188642D01*
X11372713Y-10190032D01*
X11371170Y-10191152D01*
X11369249Y-10192548D01*
X11352548Y-10209249D01*
X11352548Y-10209249D01*
X11352548Y-10209249D01*
X11349684Y-10213191D01*
X11338666Y-10228357D01*
X11327943Y-10249400D01*
X11320645Y-10271863D01*
X11316950Y-10295190D01*
X11316950Y-10318810D01*
X11320645Y-10342137D01*
X11327943Y-10364600D01*
X11336426Y-10381249D01*
X11338666Y-10385643D01*
X11352548Y-10404751D01*
X11369249Y-10421452D01*
X11372713Y-10423968D01*
X11376979Y-10429501D01*
X11377577Y-10436463D01*
X11374316Y-10442642D01*
X11372713Y-10444032D01*
X11371590Y-10444848D01*
X11369249Y-10446548D01*
X11352548Y-10463249D01*
X11352548Y-10463249D01*
X11352548Y-10463249D01*
X11349684Y-10467191D01*
X11338666Y-10482357D01*
X11327943Y-10503400D01*
X11320645Y-10525863D01*
X11316950Y-10549190D01*
X11316950Y-10572810D01*
X11320645Y-10596137D01*
X11327943Y-10618600D01*
X11335486Y-10633404D01*
X11338666Y-10639643D01*
X11352548Y-10658751D01*
X11369249Y-10675452D01*
X11372713Y-10677968D01*
X11376979Y-10683501D01*
X11377577Y-10690463D01*
X11374316Y-10696642D01*
X11372713Y-10698032D01*
X11370936Y-10699322D01*
X11369249Y-10700548D01*
X11352548Y-10717249D01*
X11352548Y-10717249D01*
X11352548Y-10717249D01*
X11349684Y-10721191D01*
X11338666Y-10736357D01*
X11327943Y-10757400D01*
X11320645Y-10779863D01*
X11316950Y-10803190D01*
X11316950Y-10826810D01*
X11320645Y-10850137D01*
X11327943Y-10872600D01*
X11333385Y-10883279D01*
X11338666Y-10893643D01*
X11352548Y-10912751D01*
X11369249Y-10929452D01*
X11372713Y-10931968D01*
X11376979Y-10937501D01*
X11377577Y-10944463D01*
X11374316Y-10950642D01*
X11372713Y-10952032D01*
X11371170Y-10953152D01*
X11369249Y-10954548D01*
X11352548Y-10971249D01*
X11352548Y-10971249D01*
X11352548Y-10971249D01*
X11349684Y-10975191D01*
X11338666Y-10990357D01*
X11327943Y-11011400D01*
X11320645Y-11033863D01*
X11316950Y-11057190D01*
X11316950Y-11080810D01*
X11320645Y-11104137D01*
X11327943Y-11126600D01*
X11336426Y-11143249D01*
X11338666Y-11147643D01*
X11352548Y-11166751D01*
X11369249Y-11183452D01*
X11372713Y-11185968D01*
X11376979Y-11191501D01*
X11377577Y-11198463D01*
X11374316Y-11204642D01*
X11372713Y-11206031D01*
X11371590Y-11206848D01*
X11369249Y-11208548D01*
X11352548Y-11225249D01*
X11352548Y-11225249D01*
X11352548Y-11225249D01*
X11349684Y-11229191D01*
X11338666Y-11244357D01*
X11327943Y-11265400D01*
X11320645Y-11287863D01*
X11316950Y-11311190D01*
X11316950Y-11334810D01*
X11320645Y-11358137D01*
X11327943Y-11380600D01*
X11336426Y-11397249D01*
X11338666Y-11401643D01*
X11352548Y-11420751D01*
X11369249Y-11437452D01*
X11372713Y-11439968D01*
X11376979Y-11445501D01*
X11377577Y-11452463D01*
X11374316Y-11458642D01*
X11372713Y-11460031D01*
X11370936Y-11461322D01*
X11369249Y-11462548D01*
X11352548Y-11479249D01*
X11352548Y-11479249D01*
X11352548Y-11479249D01*
X11349684Y-11483191D01*
X11338666Y-11498357D01*
X11327943Y-11519400D01*
X11320645Y-11541863D01*
X11316950Y-11565190D01*
X11316950Y-11588810D01*
X11320645Y-11612137D01*
X11327943Y-11634600D01*
X11333385Y-11645279D01*
X11338666Y-11655643D01*
X11352548Y-11674751D01*
X11369249Y-11691452D01*
X11372713Y-11693968D01*
X11376979Y-11699501D01*
X11377577Y-11706463D01*
X11374316Y-11712642D01*
X11372713Y-11714031D01*
X11370936Y-11715322D01*
X11369249Y-11716548D01*
X11352548Y-11733249D01*
X11352548Y-11733249D01*
X11352548Y-11733249D01*
X11349684Y-11737191D01*
X11338666Y-11752357D01*
X11327943Y-11773400D01*
X11320645Y-11795863D01*
X11316950Y-11819190D01*
X11316950Y-11842810D01*
X11320645Y-11866137D01*
X11327943Y-11888600D01*
X11335158Y-11902759D01*
X11338666Y-11909643D01*
X11352548Y-11928751D01*
X11369249Y-11945452D01*
X11372713Y-11947968D01*
X11376979Y-11953501D01*
X11377577Y-11960463D01*
X11374316Y-11966642D01*
X11372713Y-11968031D01*
X11370936Y-11969322D01*
X11369249Y-11970548D01*
X11352548Y-11987249D01*
X11352548Y-11987249D01*
X11352548Y-11987249D01*
X11349684Y-11991191D01*
X11338666Y-12006357D01*
X11327943Y-12027400D01*
X11320645Y-12049863D01*
X11316950Y-12073190D01*
X11316950Y-12096810D01*
X11320645Y-12120137D01*
X11327943Y-12142600D01*
X11335663Y-12157751D01*
X11338666Y-12163643D01*
X11352548Y-12182751D01*
X11369249Y-12199452D01*
X11372713Y-12201968D01*
X11376979Y-12207501D01*
X11377577Y-12214463D01*
X11374316Y-12220642D01*
X11372713Y-12222031D01*
X11370936Y-12223322D01*
X11369249Y-12224548D01*
X11352548Y-12241249D01*
X11352548Y-12241249D01*
X11352548Y-12241249D01*
X11347526Y-12248161D01*
X11338666Y-12260357D01*
X11327943Y-12281400D01*
X11320645Y-12303863D01*
X11316950Y-12327190D01*
X11316950Y-12350810D01*
X11320645Y-12374137D01*
X11327943Y-12396600D01*
X11335663Y-12411751D01*
X11338666Y-12417643D01*
X11352548Y-12436751D01*
X11369249Y-12453452D01*
X11372713Y-12455968D01*
X11376979Y-12461501D01*
X11377577Y-12468463D01*
X11374316Y-12474642D01*
X11372713Y-12476031D01*
X11370936Y-12477322D01*
X11369249Y-12478548D01*
X11352548Y-12495249D01*
X11352548Y-12495249D01*
X11352548Y-12495249D01*
X11346586Y-12503455D01*
X11338666Y-12514357D01*
X11327943Y-12535400D01*
X11320645Y-12557863D01*
X11316950Y-12581190D01*
X11316950Y-12604810D01*
X11320645Y-12628137D01*
X11327943Y-12650600D01*
X11335663Y-12665751D01*
X11338666Y-12671643D01*
X11352548Y-12690751D01*
X11369249Y-12707452D01*
X11372713Y-12709968D01*
X11376979Y-12715501D01*
X11377577Y-12722463D01*
X11374316Y-12728642D01*
X11372713Y-12730031D01*
X11370936Y-12731322D01*
X11369249Y-12732548D01*
X11352548Y-12749249D01*
X11352548Y-12749249D01*
X11352548Y-12749249D01*
X11346586Y-12757455D01*
X11338666Y-12768357D01*
X11327943Y-12789400D01*
X11320645Y-12811863D01*
X11316950Y-12835190D01*
X11316950Y-12858810D01*
X11320645Y-12882137D01*
X11327943Y-12904600D01*
X11334896Y-12918245D01*
X11338666Y-12925643D01*
X11352548Y-12944751D01*
X11369249Y-12961452D01*
X11388357Y-12975334D01*
X11398008Y-12980252D01*
X11409400Y-12986057D01*
X11409400Y-12986057D01*
X11409401Y-12986057D01*
X11421441Y-12989969D01*
X11431863Y-12993355D01*
X11455190Y-12997050D01*
X11455191Y-12997050D01*
X11478810Y-12997050D01*
X11502137Y-12993355D01*
X11524599Y-12986057D01*
X11545643Y-12975334D01*
X11564751Y-12961452D01*
X11581452Y-12944751D01*
X11595334Y-12925643D01*
X11606057Y-12904599D01*
X11613355Y-12882137D01*
X11617050Y-12858810D01*
X11617050Y-12835190D01*
X11613355Y-12811863D01*
X11606057Y-12789400D01*
X11595334Y-12768357D01*
X11581452Y-12749249D01*
X11564751Y-12732548D01*
X11561287Y-12730032D01*
X11557021Y-12724499D01*
X11556423Y-12717537D01*
X11559683Y-12711358D01*
X11561287Y-12709968D01*
X11564751Y-12707452D01*
X11581452Y-12690751D01*
X11595334Y-12671643D01*
X11606057Y-12650599D01*
X11613355Y-12628137D01*
X11617050Y-12604810D01*
X11617050Y-12581190D01*
X11613355Y-12557863D01*
X11606057Y-12535400D01*
X11595334Y-12514357D01*
X11581452Y-12495249D01*
X11564751Y-12478548D01*
X11561287Y-12476032D01*
X11557021Y-12470499D01*
X11556423Y-12463537D01*
X11559683Y-12457358D01*
X11561287Y-12455968D01*
X11564751Y-12453452D01*
X11581452Y-12436751D01*
X11595334Y-12417643D01*
X11606057Y-12396599D01*
X11613355Y-12374137D01*
X11617050Y-12350810D01*
X11617050Y-12327190D01*
X11613355Y-12303863D01*
X11606057Y-12281400D01*
X11597558Y-12264722D01*
X11595334Y-12260357D01*
X11581452Y-12241249D01*
X11564751Y-12224548D01*
X11561287Y-12222032D01*
X11557021Y-12216499D01*
X11556423Y-12209537D01*
X11559683Y-12203358D01*
X11561287Y-12201968D01*
X11564751Y-12199452D01*
X11581452Y-12182751D01*
X11595334Y-12163643D01*
X11606057Y-12142599D01*
X11613355Y-12120137D01*
X11617050Y-12096810D01*
X11617050Y-12073190D01*
X11613355Y-12049863D01*
X11606057Y-12027400D01*
X11595334Y-12006357D01*
X11581452Y-11987249D01*
X11564751Y-11970548D01*
X11561287Y-11968032D01*
X11557021Y-11962499D01*
X11556423Y-11955537D01*
X11559683Y-11949358D01*
X11561287Y-11947968D01*
X11564751Y-11945452D01*
X11581452Y-11928751D01*
X11595334Y-11909643D01*
X11606057Y-11888599D01*
X11613355Y-11866137D01*
X11613703Y-11863943D01*
X11617050Y-11842810D01*
X11617050Y-11819190D01*
X11613355Y-11795863D01*
X11606642Y-11775201D01*
X11606057Y-11773401D01*
X11606057Y-11773400D01*
X11606057Y-11773400D01*
X11595334Y-11752357D01*
X11581452Y-11733249D01*
X11564751Y-11716548D01*
X11561287Y-11714032D01*
X11557021Y-11708499D01*
X11556423Y-11701537D01*
X11559683Y-11695358D01*
X11561287Y-11693968D01*
X11564751Y-11691452D01*
X11581452Y-11674751D01*
X11595334Y-11655643D01*
X11606057Y-11634599D01*
X11613355Y-11612137D01*
X11613776Y-11609478D01*
X11617050Y-11588810D01*
X11617050Y-11565190D01*
X11613355Y-11541863D01*
X11606642Y-11521201D01*
X11606057Y-11519401D01*
X11606057Y-11519400D01*
X11606057Y-11519400D01*
X11597558Y-11502722D01*
X11595334Y-11498357D01*
X11581452Y-11479249D01*
X11564751Y-11462548D01*
X11561287Y-11460032D01*
X11557021Y-11454499D01*
X11556423Y-11447537D01*
X11559683Y-11441358D01*
X11561287Y-11439968D01*
X11564751Y-11437452D01*
X11581452Y-11420751D01*
X11595334Y-11401643D01*
X11606057Y-11380599D01*
X11613355Y-11358137D01*
X11613382Y-11357968D01*
X11617050Y-11334810D01*
X11617050Y-11311190D01*
X11613355Y-11287863D01*
X11606642Y-11267201D01*
X11606057Y-11265401D01*
X11606057Y-11265400D01*
X11606057Y-11265400D01*
X11595334Y-11244357D01*
X11581452Y-11225249D01*
X11564751Y-11208548D01*
X11561287Y-11206032D01*
X11557021Y-11200499D01*
X11556423Y-11193537D01*
X11559683Y-11187358D01*
X11561287Y-11185968D01*
X11564751Y-11183452D01*
X11581452Y-11166751D01*
X11595334Y-11147643D01*
X11606057Y-11126599D01*
X11613355Y-11104137D01*
X11613382Y-11103968D01*
X11617050Y-11080810D01*
X11617050Y-11057190D01*
X11613355Y-11033863D01*
X11606642Y-11013201D01*
X11606057Y-11011401D01*
X11606057Y-11011401D01*
X11606057Y-11011400D01*
X11595334Y-10990357D01*
X11581452Y-10971249D01*
X11564751Y-10954548D01*
X11561287Y-10952032D01*
X11557021Y-10946499D01*
X11556423Y-10939538D01*
X11559683Y-10933358D01*
X11561287Y-10931968D01*
X11564751Y-10929452D01*
X11581452Y-10912751D01*
X11595334Y-10893643D01*
X11606057Y-10872599D01*
X11613355Y-10850137D01*
X11613776Y-10847478D01*
X11617050Y-10826810D01*
X11617050Y-10803190D01*
X11613355Y-10779863D01*
X11606642Y-10759201D01*
X11606057Y-10757401D01*
X11606057Y-10757401D01*
X11606057Y-10757400D01*
X11595334Y-10736357D01*
X11592638Y-10732646D01*
X11581452Y-10717249D01*
X11564751Y-10700548D01*
X11561287Y-10698032D01*
X11557021Y-10692499D01*
X11556423Y-10685538D01*
X11559683Y-10679358D01*
X11561287Y-10677968D01*
X11564751Y-10675452D01*
X11581452Y-10658751D01*
X11595334Y-10639643D01*
X11606057Y-10618599D01*
X11613355Y-10596137D01*
X11613382Y-10595968D01*
X11617050Y-10572810D01*
X11617050Y-10549190D01*
X11613355Y-10525863D01*
X11606642Y-10505201D01*
X11606057Y-10503401D01*
X11606057Y-10503401D01*
X11606057Y-10503400D01*
X11597238Y-10486093D01*
X11595334Y-10482357D01*
X11581452Y-10463249D01*
X11564751Y-10446548D01*
X11561287Y-10444032D01*
X11557021Y-10438499D01*
X11556423Y-10431538D01*
X11559683Y-10425358D01*
X11561287Y-10423968D01*
X11564751Y-10421452D01*
X11581452Y-10404751D01*
X11595334Y-10385643D01*
X11606057Y-10364599D01*
X11613355Y-10342137D01*
X11613382Y-10341968D01*
X11617050Y-10318810D01*
X11617050Y-10295190D01*
X11613355Y-10271863D01*
X11606642Y-10251201D01*
X11606057Y-10249401D01*
X11606057Y-10249401D01*
X11606057Y-10249400D01*
X11596588Y-10230817D01*
X11595334Y-10228357D01*
X11581452Y-10209249D01*
X11564751Y-10192548D01*
X11561287Y-10190032D01*
X11557021Y-10184499D01*
X11556423Y-10177538D01*
X11559683Y-10171358D01*
X11561287Y-10169968D01*
X11564751Y-10167452D01*
X11581452Y-10150751D01*
X11595334Y-10131643D01*
X11606057Y-10110599D01*
X11613355Y-10088137D01*
X11615467Y-10074807D01*
X11617050Y-10064810D01*
X11617050Y-10041190D01*
X11613355Y-10017863D01*
X11606808Y-9997714D01*
X11606057Y-9995401D01*
X11606057Y-9995401D01*
X11606057Y-9995400D01*
X11595334Y-9974357D01*
X11590274Y-9967392D01*
X11581452Y-9955249D01*
X11564751Y-9938548D01*
X11561287Y-9936032D01*
X11557021Y-9930499D01*
X11556423Y-9923538D01*
X11559683Y-9917358D01*
X11561287Y-9915968D01*
X11564751Y-9913452D01*
X11581452Y-9896751D01*
X11595334Y-9877643D01*
X11606057Y-9856599D01*
X11613355Y-9834137D01*
X11615467Y-9820807D01*
X11617050Y-9810810D01*
X11617050Y-9787190D01*
X11613355Y-9763863D01*
X11607997Y-9747372D01*
X11606057Y-9741401D01*
X11606057Y-9741401D01*
X11606057Y-9741400D01*
X11597493Y-9724593D01*
X11595334Y-9720357D01*
X11581452Y-9701249D01*
X11564751Y-9684548D01*
X11561287Y-9682032D01*
X11557021Y-9676499D01*
X11556423Y-9669538D01*
X11559683Y-9663358D01*
X11561287Y-9661968D01*
X11564751Y-9659452D01*
X11581452Y-9642751D01*
X11595334Y-9623643D01*
X11606057Y-9602599D01*
X11613355Y-9580137D01*
X11614370Y-9573729D01*
X11617050Y-9556810D01*
X11617050Y-9533190D01*
X11613355Y-9509863D01*
X11607447Y-9491678D01*
X11606057Y-9487401D01*
X11606057Y-9487401D01*
X11606057Y-9487400D01*
X11597700Y-9471000D01*
X11595334Y-9466357D01*
X11581452Y-9447249D01*
X11564751Y-9430548D01*
X11561287Y-9428032D01*
X11557021Y-9422499D01*
X11556423Y-9415538D01*
X11559683Y-9409358D01*
X11561287Y-9407968D01*
X11564751Y-9405452D01*
X11581452Y-9388751D01*
X11595334Y-9369643D01*
X11606057Y-9348599D01*
X11613355Y-9326137D01*
X11617050Y-9302810D01*
X11617050Y-9279190D01*
X11613355Y-9255863D01*
X11606968Y-9236204D01*
X11606057Y-9233401D01*
X11606057Y-9233401D01*
X11606057Y-9233400D01*
X11595334Y-9212357D01*
X11581452Y-9193249D01*
X11564751Y-9176548D01*
X11561287Y-9174032D01*
X11557021Y-9168499D01*
X11556423Y-9161538D01*
X11559683Y-9155358D01*
X11561287Y-9153968D01*
X11564751Y-9151452D01*
X11581452Y-9134751D01*
X11595334Y-9115643D01*
X11606057Y-9094599D01*
X11613355Y-9072137D01*
X11614370Y-9065729D01*
X11617050Y-9048810D01*
X11617050Y-9025190D01*
X11613355Y-9001863D01*
X11606268Y-8980050D01*
X11606057Y-8979401D01*
X11606057Y-8979401D01*
X11606057Y-8979400D01*
X11600400Y-8968299D01*
X11595334Y-8958357D01*
X11581452Y-8939249D01*
X11564751Y-8922548D01*
X11561287Y-8920032D01*
X11557021Y-8914499D01*
X11556423Y-8907538D01*
X11559683Y-8901358D01*
X11561287Y-8899968D01*
X11564751Y-8897452D01*
X11581452Y-8880751D01*
X11595334Y-8861643D01*
X11606057Y-8840599D01*
X11613355Y-8818137D01*
X11614966Y-8807967D01*
X11617050Y-8794810D01*
X11617050Y-8771190D01*
X11613355Y-8747863D01*
X11607567Y-8730050D01*
X11606057Y-8725401D01*
X11606057Y-8725401D01*
X11606057Y-8725400D01*
X11599343Y-8712225D01*
X11595334Y-8704357D01*
X11581452Y-8685249D01*
X11564751Y-8668548D01*
X11561287Y-8666032D01*
X11557021Y-8660499D01*
X11556423Y-8653538D01*
X11559683Y-8647358D01*
X11561287Y-8645968D01*
X11564751Y-8643452D01*
X11581452Y-8626751D01*
X11595334Y-8607643D01*
X11606057Y-8586599D01*
X11613355Y-8564137D01*
X11613525Y-8563067D01*
X11617050Y-8540810D01*
X11617050Y-8517190D01*
X12840950Y-8517190D01*
X12840950Y-8540810D01*
X12844645Y-8564137D01*
X12851943Y-8586600D01*
X12858306Y-8599086D01*
X12862666Y-8607643D01*
X12876548Y-8626751D01*
X12893249Y-8643452D01*
X12896713Y-8645968D01*
X12900979Y-8651501D01*
X12901577Y-8658463D01*
X12898316Y-8664642D01*
X12896713Y-8666032D01*
X12895455Y-8666946D01*
X12893249Y-8668548D01*
X12876548Y-8685249D01*
X12876548Y-8685249D01*
X12876548Y-8685249D01*
X12873051Y-8690062D01*
X12862666Y-8704357D01*
X12851943Y-8725400D01*
X12844645Y-8747863D01*
X12840950Y-8771190D01*
X12840950Y-8794810D01*
X12844645Y-8818137D01*
X12851943Y-8840600D01*
X12862666Y-8861643D01*
X12876548Y-8880751D01*
X12893249Y-8897452D01*
X12896713Y-8899968D01*
X12900979Y-8905501D01*
X12901577Y-8912463D01*
X12898316Y-8918642D01*
X12896713Y-8920032D01*
X12894936Y-8921322D01*
X12893249Y-8922548D01*
X12876548Y-8939249D01*
X12876548Y-8939249D01*
X12876548Y-8939249D01*
X12874406Y-8942198D01*
X12862666Y-8958357D01*
X12851943Y-8979400D01*
X12844645Y-9001863D01*
X12840950Y-9025190D01*
X12840950Y-9048810D01*
X12844645Y-9072137D01*
X12851943Y-9094600D01*
X12857452Y-9105411D01*
X12862666Y-9115643D01*
X12876548Y-9134751D01*
X12893249Y-9151452D01*
X12896713Y-9153968D01*
X12900979Y-9159501D01*
X12901577Y-9166463D01*
X12898316Y-9172642D01*
X12896713Y-9174032D01*
X12894936Y-9175322D01*
X12893249Y-9176548D01*
X12876548Y-9193249D01*
X12876548Y-9193249D01*
X12876548Y-9193249D01*
X12874074Y-9196655D01*
X12862666Y-9212357D01*
X12851943Y-9233400D01*
X12844645Y-9255863D01*
X12840950Y-9279190D01*
X12840950Y-9302810D01*
X12844645Y-9326137D01*
X12851943Y-9348600D01*
X12859840Y-9364098D01*
X12862666Y-9369643D01*
X12876548Y-9388751D01*
X12893249Y-9405452D01*
X12896713Y-9407968D01*
X12900979Y-9413501D01*
X12901577Y-9420463D01*
X12898316Y-9426642D01*
X12896713Y-9428032D01*
X12896608Y-9428108D01*
X12893249Y-9430548D01*
X12876548Y-9447249D01*
X12876548Y-9447249D01*
X12876548Y-9447249D01*
X12871332Y-9454428D01*
X12862666Y-9466357D01*
X12851943Y-9487400D01*
X12844645Y-9509863D01*
X12840950Y-9533190D01*
X12840950Y-9556810D01*
X12844645Y-9580137D01*
X12851943Y-9602600D01*
X12862666Y-9623643D01*
X12876548Y-9642751D01*
X12893249Y-9659452D01*
X12896713Y-9661968D01*
X12900979Y-9667501D01*
X12901577Y-9674463D01*
X12898316Y-9680642D01*
X12896713Y-9682032D01*
X12894936Y-9683322D01*
X12893249Y-9684548D01*
X12876548Y-9701249D01*
X12876548Y-9701249D01*
X12876548Y-9701249D01*
X12871373Y-9708372D01*
X12862666Y-9720357D01*
X12851943Y-9741400D01*
X12844645Y-9763863D01*
X12840950Y-9787190D01*
X12840950Y-9810810D01*
X12844645Y-9834137D01*
X12851943Y-9856600D01*
X12860515Y-9873422D01*
X12862666Y-9877643D01*
X12876548Y-9896751D01*
X12893249Y-9913452D01*
X12896713Y-9915968D01*
X12900979Y-9921501D01*
X12901577Y-9928463D01*
X12898316Y-9934642D01*
X12896713Y-9936032D01*
X12894936Y-9937322D01*
X12893249Y-9938548D01*
X12876548Y-9955249D01*
X12876548Y-9955249D01*
X12876548Y-9955249D01*
X12875240Y-9957049D01*
X12862666Y-9974357D01*
X12851943Y-9995400D01*
X12844645Y-10017863D01*
X12840950Y-10041190D01*
X12840950Y-10064810D01*
X12844645Y-10088137D01*
X12851943Y-10110600D01*
X12860426Y-10127249D01*
X12862666Y-10131643D01*
X12876548Y-10150751D01*
X12893249Y-10167452D01*
X12896713Y-10169968D01*
X12900979Y-10175501D01*
X12901577Y-10182463D01*
X12898316Y-10188642D01*
X12896713Y-10190032D01*
X12895170Y-10191152D01*
X12893249Y-10192548D01*
X12876548Y-10209249D01*
X12876548Y-10209249D01*
X12876548Y-10209249D01*
X12873684Y-10213191D01*
X12862666Y-10228357D01*
X12851943Y-10249400D01*
X12844645Y-10271863D01*
X12840950Y-10295190D01*
X12840950Y-10318810D01*
X12844645Y-10342137D01*
X12851943Y-10364600D01*
X12860426Y-10381249D01*
X12862666Y-10385643D01*
X12876548Y-10404751D01*
X12893249Y-10421452D01*
X12896713Y-10423968D01*
X12900979Y-10429501D01*
X12901577Y-10436463D01*
X12898316Y-10442642D01*
X12896713Y-10444032D01*
X12895590Y-10444848D01*
X12893249Y-10446548D01*
X12876548Y-10463249D01*
X12876548Y-10463249D01*
X12876548Y-10463249D01*
X12873684Y-10467191D01*
X12862666Y-10482357D01*
X12851943Y-10503400D01*
X12844645Y-10525863D01*
X12840950Y-10549190D01*
X12840950Y-10572810D01*
X12844645Y-10596137D01*
X12851943Y-10618600D01*
X12859486Y-10633404D01*
X12862666Y-10639643D01*
X12876548Y-10658751D01*
X12893249Y-10675452D01*
X12896713Y-10677968D01*
X12900979Y-10683501D01*
X12901577Y-10690463D01*
X12898316Y-10696642D01*
X12896713Y-10698032D01*
X12894936Y-10699322D01*
X12893249Y-10700548D01*
X12876548Y-10717249D01*
X12876548Y-10717249D01*
X12876548Y-10717249D01*
X12873684Y-10721191D01*
X12862666Y-10736357D01*
X12851943Y-10757400D01*
X12844645Y-10779863D01*
X12840950Y-10803190D01*
X12840950Y-10826810D01*
X12844645Y-10850137D01*
X12851943Y-10872600D01*
X12857385Y-10883279D01*
X12862666Y-10893643D01*
X12876548Y-10912751D01*
X12893249Y-10929452D01*
X12896713Y-10931968D01*
X12900979Y-10937501D01*
X12901577Y-10944463D01*
X12898316Y-10950642D01*
X12896713Y-10952032D01*
X12895170Y-10953152D01*
X12893249Y-10954548D01*
X12876548Y-10971249D01*
X12876548Y-10971249D01*
X12876548Y-10971249D01*
X12873684Y-10975191D01*
X12862666Y-10990357D01*
X12851943Y-11011400D01*
X12844645Y-11033863D01*
X12840950Y-11057190D01*
X12840950Y-11080810D01*
X12844645Y-11104137D01*
X12851943Y-11126600D01*
X12860426Y-11143249D01*
X12862666Y-11147643D01*
X12876548Y-11166751D01*
X12893249Y-11183452D01*
X12896713Y-11185968D01*
X12900979Y-11191501D01*
X12901577Y-11198463D01*
X12898316Y-11204642D01*
X12896713Y-11206031D01*
X12895590Y-11206848D01*
X12893249Y-11208548D01*
X12876548Y-11225249D01*
X12876548Y-11225249D01*
X12876548Y-11225249D01*
X12873684Y-11229191D01*
X12862666Y-11244357D01*
X12851943Y-11265400D01*
X12844645Y-11287863D01*
X12840950Y-11311190D01*
X12840950Y-11334810D01*
X12844645Y-11358137D01*
X12851943Y-11380600D01*
X12860426Y-11397249D01*
X12862666Y-11401643D01*
X12876548Y-11420751D01*
X12893249Y-11437452D01*
X12896713Y-11439968D01*
X12900979Y-11445501D01*
X12901577Y-11452463D01*
X12898316Y-11458642D01*
X12896713Y-11460031D01*
X12894936Y-11461322D01*
X12893249Y-11462548D01*
X12876548Y-11479249D01*
X12876548Y-11479249D01*
X12876548Y-11479249D01*
X12873684Y-11483191D01*
X12862666Y-11498357D01*
X12851943Y-11519400D01*
X12844645Y-11541863D01*
X12840950Y-11565190D01*
X12840950Y-11588810D01*
X12844645Y-11612137D01*
X12851943Y-11634600D01*
X12857385Y-11645279D01*
X12862666Y-11655643D01*
X12876548Y-11674751D01*
X12893249Y-11691452D01*
X12896713Y-11693968D01*
X12900979Y-11699501D01*
X12901577Y-11706463D01*
X12898316Y-11712642D01*
X12896713Y-11714031D01*
X12894936Y-11715322D01*
X12893249Y-11716548D01*
X12876548Y-11733249D01*
X12876548Y-11733249D01*
X12876548Y-11733249D01*
X12873684Y-11737191D01*
X12862666Y-11752357D01*
X12851943Y-11773400D01*
X12844645Y-11795863D01*
X12840950Y-11819190D01*
X12840950Y-11842810D01*
X12844645Y-11866137D01*
X12851943Y-11888600D01*
X12859158Y-11902759D01*
X12862666Y-11909643D01*
X12876548Y-11928751D01*
X12893249Y-11945452D01*
X12896713Y-11947968D01*
X12900979Y-11953501D01*
X12901577Y-11960463D01*
X12898316Y-11966642D01*
X12896713Y-11968031D01*
X12894936Y-11969322D01*
X12893249Y-11970548D01*
X12876548Y-11987249D01*
X12876548Y-11987249D01*
X12876548Y-11987249D01*
X12873684Y-11991191D01*
X12862666Y-12006357D01*
X12851943Y-12027400D01*
X12844645Y-12049863D01*
X12840950Y-12073190D01*
X12840950Y-12096810D01*
X12844645Y-12120137D01*
X12851943Y-12142600D01*
X12859663Y-12157751D01*
X12862666Y-12163643D01*
X12876548Y-12182751D01*
X12893249Y-12199452D01*
X12896713Y-12201968D01*
X12900979Y-12207501D01*
X12901577Y-12214463D01*
X12898316Y-12220642D01*
X12896713Y-12222031D01*
X12894936Y-12223322D01*
X12893249Y-12224548D01*
X12876548Y-12241249D01*
X12876548Y-12241249D01*
X12876548Y-12241249D01*
X12871526Y-12248161D01*
X12862666Y-12260357D01*
X12851943Y-12281400D01*
X12844645Y-12303863D01*
X12840950Y-12327190D01*
X12840950Y-12350810D01*
X12844645Y-12374137D01*
X12851943Y-12396600D01*
X12859663Y-12411751D01*
X12862666Y-12417643D01*
X12876548Y-12436751D01*
X12893249Y-12453452D01*
X12896713Y-12455968D01*
X12900979Y-12461501D01*
X12901577Y-12468463D01*
X12898316Y-12474642D01*
X12896713Y-12476031D01*
X12894936Y-12477322D01*
X12893249Y-12478548D01*
X12876548Y-12495249D01*
X12876548Y-12495249D01*
X12876548Y-12495249D01*
X12870586Y-12503455D01*
X12862666Y-12514357D01*
X12851943Y-12535400D01*
X12844645Y-12557863D01*
X12840950Y-12581190D01*
X12840950Y-12604810D01*
X12844645Y-12628137D01*
X12851943Y-12650600D01*
X12859663Y-12665751D01*
X12862666Y-12671643D01*
X12876548Y-12690751D01*
X12893249Y-12707452D01*
X12896713Y-12709968D01*
X12900979Y-12715501D01*
X12901577Y-12722463D01*
X12898316Y-12728642D01*
X12896713Y-12730031D01*
X12894936Y-12731322D01*
X12893249Y-12732548D01*
X12876548Y-12749249D01*
X12876548Y-12749249D01*
X12876548Y-12749249D01*
X12870586Y-12757455D01*
X12862666Y-12768357D01*
X12851943Y-12789400D01*
X12844645Y-12811863D01*
X12840950Y-12835190D01*
X12840950Y-12858810D01*
X12844645Y-12882137D01*
X12851943Y-12904600D01*
X12858896Y-12918245D01*
X12862666Y-12925643D01*
X12876548Y-12944751D01*
X12893249Y-12961452D01*
X12912357Y-12975334D01*
X12922008Y-12980252D01*
X12933400Y-12986057D01*
X12933400Y-12986057D01*
X12933401Y-12986057D01*
X12945441Y-12989969D01*
X12955863Y-12993355D01*
X12979190Y-12997050D01*
X12979191Y-12997050D01*
X13002810Y-12997050D01*
X13026137Y-12993355D01*
X13048599Y-12986057D01*
X13069643Y-12975334D01*
X13088751Y-12961452D01*
X13105452Y-12944751D01*
X13119334Y-12925643D01*
X13130057Y-12904599D01*
X13137355Y-12882137D01*
X13141050Y-12858810D01*
X13141050Y-12835190D01*
X13137355Y-12811863D01*
X13130057Y-12789400D01*
X13119334Y-12768357D01*
X13105452Y-12749249D01*
X13088751Y-12732548D01*
X13085287Y-12730032D01*
X13081021Y-12724499D01*
X13080423Y-12717537D01*
X13083683Y-12711358D01*
X13085287Y-12709968D01*
X13088751Y-12707452D01*
X13105452Y-12690751D01*
X13119334Y-12671643D01*
X13130057Y-12650599D01*
X13137355Y-12628137D01*
X13141050Y-12604810D01*
X13141050Y-12581190D01*
X13137355Y-12557863D01*
X13130057Y-12535400D01*
X13119334Y-12514357D01*
X13105452Y-12495249D01*
X13088751Y-12478548D01*
X13085287Y-12476032D01*
X13081021Y-12470499D01*
X13080423Y-12463537D01*
X13083683Y-12457358D01*
X13085287Y-12455968D01*
X13088751Y-12453452D01*
X13105452Y-12436751D01*
X13119334Y-12417643D01*
X13130057Y-12396599D01*
X13137355Y-12374137D01*
X13141050Y-12350810D01*
X13141050Y-12327190D01*
X13137355Y-12303863D01*
X13130057Y-12281400D01*
X13121558Y-12264722D01*
X13119334Y-12260357D01*
X13105452Y-12241249D01*
X13088751Y-12224548D01*
X13085287Y-12222032D01*
X13081021Y-12216499D01*
X13080423Y-12209537D01*
X13083683Y-12203358D01*
X13085287Y-12201968D01*
X13088751Y-12199452D01*
X13105452Y-12182751D01*
X13119334Y-12163643D01*
X13130057Y-12142599D01*
X13137355Y-12120137D01*
X13141050Y-12096810D01*
X13141050Y-12073190D01*
X13137369Y-12049950D01*
X13137355Y-12049863D01*
X13136812Y-12048190D01*
X13655950Y-12048190D01*
X13655950Y-12071810D01*
X13659645Y-12095137D01*
X13666943Y-12117600D01*
X13677666Y-12138643D01*
X13691548Y-12157751D01*
X13708249Y-12174452D01*
X13711713Y-12176968D01*
X13715979Y-12182501D01*
X13716577Y-12189463D01*
X13713316Y-12195642D01*
X13711713Y-12197031D01*
X13709936Y-12198322D01*
X13708249Y-12199548D01*
X13691548Y-12216249D01*
X13691548Y-12216249D01*
X13691548Y-12216249D01*
X13685586Y-12224455D01*
X13677666Y-12235357D01*
X13666943Y-12256400D01*
X13659645Y-12278863D01*
X13655950Y-12302190D01*
X13655950Y-12325810D01*
X13659645Y-12349137D01*
X13666943Y-12371600D01*
X13677666Y-12392643D01*
X13691548Y-12411751D01*
X13708249Y-12428452D01*
X13711713Y-12430968D01*
X13715979Y-12436501D01*
X13716577Y-12443463D01*
X13713316Y-12449642D01*
X13711713Y-12451031D01*
X13709936Y-12452322D01*
X13708249Y-12453548D01*
X13691548Y-12470249D01*
X13691548Y-12470249D01*
X13691548Y-12470249D01*
X13685586Y-12478455D01*
X13677666Y-12489357D01*
X13666943Y-12510400D01*
X13659645Y-12532863D01*
X13655950Y-12556190D01*
X13655950Y-12579810D01*
X13659645Y-12603137D01*
X13666943Y-12625600D01*
X13677666Y-12646643D01*
X13691548Y-12665751D01*
X13708249Y-12682452D01*
X13727357Y-12696334D01*
X13737299Y-12701400D01*
X13748400Y-12707057D01*
X13748400Y-12707057D01*
X13748401Y-12707057D01*
X13760441Y-12710969D01*
X13770863Y-12714355D01*
X13794190Y-12718050D01*
X13794191Y-12718050D01*
X13817810Y-12718050D01*
X13841137Y-12714355D01*
X13863599Y-12707057D01*
X13884643Y-12696334D01*
X13903751Y-12682452D01*
X13920452Y-12665751D01*
X13934334Y-12646643D01*
X13945057Y-12625599D01*
X13952355Y-12603137D01*
X13956050Y-12579810D01*
X13956050Y-12556190D01*
X13952355Y-12532863D01*
X13948969Y-12522441D01*
X13945057Y-12510401D01*
X13945057Y-12510400D01*
X13945057Y-12510400D01*
X13934334Y-12489357D01*
X13920452Y-12470249D01*
X13903751Y-12453548D01*
X13903618Y-12453452D01*
X13900287Y-12451032D01*
X13896021Y-12445499D01*
X13895423Y-12438537D01*
X13898683Y-12432358D01*
X13900287Y-12430968D01*
X13903751Y-12428452D01*
X13920452Y-12411751D01*
X13934334Y-12392643D01*
X13945057Y-12371599D01*
X13952355Y-12349137D01*
X13956050Y-12325810D01*
X13956050Y-12302190D01*
X13952355Y-12278863D01*
X13947760Y-12264721D01*
X13945057Y-12256401D01*
X13945057Y-12256400D01*
X13945057Y-12256400D01*
X13934334Y-12235357D01*
X13920452Y-12216249D01*
X13903751Y-12199548D01*
X13903618Y-12199452D01*
X13900287Y-12197032D01*
X13896021Y-12191499D01*
X13895423Y-12184537D01*
X13898683Y-12178358D01*
X13900287Y-12176968D01*
X13903751Y-12174452D01*
X13920452Y-12157751D01*
X13934334Y-12138643D01*
X13945057Y-12117599D01*
X13952355Y-12095137D01*
X13953961Y-12085000D01*
X13956050Y-12071810D01*
X13956050Y-12048190D01*
X13952355Y-12024863D01*
X13948969Y-12014441D01*
X13945057Y-12002401D01*
X13945057Y-12002400D01*
X13945057Y-12002400D01*
X13934334Y-11981357D01*
X13920452Y-11962249D01*
X13903751Y-11945548D01*
X13884643Y-11931666D01*
X13878923Y-11928751D01*
X13863600Y-11920943D01*
X13841137Y-11913645D01*
X13817810Y-11909950D01*
X13817809Y-11909950D01*
X13794191Y-11909950D01*
X13794190Y-11909950D01*
X13770863Y-11913645D01*
X13748400Y-11920943D01*
X13727357Y-11931666D01*
X13716455Y-11939586D01*
X13708249Y-11945548D01*
X13708249Y-11945548D01*
X13708249Y-11945548D01*
X13691548Y-11962249D01*
X13691548Y-11962249D01*
X13691548Y-11962249D01*
X13685586Y-11970455D01*
X13677666Y-11981357D01*
X13666943Y-12002400D01*
X13659645Y-12024863D01*
X13655950Y-12048190D01*
X13136812Y-12048190D01*
X13130057Y-12027401D01*
X13130057Y-12027400D01*
X13130057Y-12027400D01*
X13119334Y-12006357D01*
X13105452Y-11987249D01*
X13088751Y-11970548D01*
X13085287Y-11968032D01*
X13081021Y-11962499D01*
X13080423Y-11955537D01*
X13083683Y-11949358D01*
X13085287Y-11947968D01*
X13088751Y-11945452D01*
X13105452Y-11928751D01*
X13119334Y-11909643D01*
X13130057Y-11888599D01*
X13137355Y-11866137D01*
X13137703Y-11863943D01*
X13141050Y-11842810D01*
X13141050Y-11819190D01*
X13137355Y-11795863D01*
X13130642Y-11775201D01*
X13130057Y-11773401D01*
X13130057Y-11773400D01*
X13130057Y-11773400D01*
X13119334Y-11752357D01*
X13105452Y-11733249D01*
X13088751Y-11716548D01*
X13085287Y-11714032D01*
X13081021Y-11708499D01*
X13080423Y-11701537D01*
X13083683Y-11695358D01*
X13085287Y-11693968D01*
X13088751Y-11691452D01*
X13105452Y-11674751D01*
X13119334Y-11655643D01*
X13130057Y-11634599D01*
X13137355Y-11612137D01*
X13137776Y-11609478D01*
X13141050Y-11588810D01*
X13141050Y-11565190D01*
X13137355Y-11541863D01*
X13130642Y-11521201D01*
X13130057Y-11519401D01*
X13130057Y-11519400D01*
X13130057Y-11519400D01*
X13121558Y-11502722D01*
X13119334Y-11498357D01*
X13105452Y-11479249D01*
X13088751Y-11462548D01*
X13085287Y-11460032D01*
X13081021Y-11454499D01*
X13080423Y-11447537D01*
X13083683Y-11441358D01*
X13085287Y-11439968D01*
X13088751Y-11437452D01*
X13105452Y-11420751D01*
X13119334Y-11401643D01*
X13130057Y-11380599D01*
X13137355Y-11358137D01*
X13137382Y-11357968D01*
X13141050Y-11334810D01*
X13141050Y-11311190D01*
X13137355Y-11287863D01*
X13130642Y-11267201D01*
X13130057Y-11265401D01*
X13130057Y-11265400D01*
X13130057Y-11265400D01*
X13119334Y-11244357D01*
X13105452Y-11225249D01*
X13088751Y-11208548D01*
X13085287Y-11206032D01*
X13081021Y-11200499D01*
X13080423Y-11193537D01*
X13083683Y-11187358D01*
X13085287Y-11185968D01*
X13088751Y-11183452D01*
X13105452Y-11166751D01*
X13119334Y-11147643D01*
X13130057Y-11126599D01*
X13137355Y-11104137D01*
X13137382Y-11103968D01*
X13141050Y-11080810D01*
X13141050Y-11057190D01*
X13137355Y-11033863D01*
X13130642Y-11013201D01*
X13130057Y-11011401D01*
X13130057Y-11011401D01*
X13130057Y-11011400D01*
X13119334Y-10990357D01*
X13105452Y-10971249D01*
X13088751Y-10954548D01*
X13085287Y-10952032D01*
X13081021Y-10946499D01*
X13080423Y-10939538D01*
X13083683Y-10933358D01*
X13085287Y-10931968D01*
X13088751Y-10929452D01*
X13105452Y-10912751D01*
X13119334Y-10893643D01*
X13130057Y-10872599D01*
X13137355Y-10850137D01*
X13137776Y-10847478D01*
X13141050Y-10826810D01*
X13141050Y-10803190D01*
X13137355Y-10779863D01*
X13130642Y-10759201D01*
X13130057Y-10757401D01*
X13130057Y-10757401D01*
X13130057Y-10757400D01*
X13119334Y-10736357D01*
X13116638Y-10732646D01*
X13105452Y-10717249D01*
X13088751Y-10700548D01*
X13085287Y-10698032D01*
X13081021Y-10692499D01*
X13080423Y-10685538D01*
X13083683Y-10679358D01*
X13085287Y-10677968D01*
X13088751Y-10675452D01*
X13105452Y-10658751D01*
X13119334Y-10639643D01*
X13130057Y-10618599D01*
X13137355Y-10596137D01*
X13137382Y-10595968D01*
X13141050Y-10572810D01*
X13141050Y-10549190D01*
X13137355Y-10525863D01*
X13130642Y-10505201D01*
X13130057Y-10503401D01*
X13130057Y-10503401D01*
X13130057Y-10503400D01*
X13121238Y-10486093D01*
X13119334Y-10482357D01*
X13105452Y-10463249D01*
X13088751Y-10446548D01*
X13085287Y-10444032D01*
X13081021Y-10438499D01*
X13080423Y-10431538D01*
X13083683Y-10425358D01*
X13085287Y-10423968D01*
X13088751Y-10421452D01*
X13105452Y-10404751D01*
X13119334Y-10385643D01*
X13130057Y-10364599D01*
X13137355Y-10342137D01*
X13137382Y-10341968D01*
X13141050Y-10318810D01*
X13141050Y-10295190D01*
X13137355Y-10271863D01*
X13130642Y-10251201D01*
X13130057Y-10249401D01*
X13130057Y-10249401D01*
X13130057Y-10249400D01*
X13120588Y-10230817D01*
X13119334Y-10228357D01*
X13105452Y-10209249D01*
X13088751Y-10192548D01*
X13085287Y-10190032D01*
X13081021Y-10184499D01*
X13080423Y-10177538D01*
X13083683Y-10171358D01*
X13085287Y-10169968D01*
X13088751Y-10167452D01*
X13105452Y-10150751D01*
X13119334Y-10131643D01*
X13130057Y-10110599D01*
X13137355Y-10088137D01*
X13139467Y-10074807D01*
X13141050Y-10064810D01*
X13141050Y-10041190D01*
X13137355Y-10017863D01*
X13130808Y-9997714D01*
X13130057Y-9995401D01*
X13130057Y-9995401D01*
X13130057Y-9995400D01*
X13119334Y-9974357D01*
X13114274Y-9967392D01*
X13105452Y-9955249D01*
X13088751Y-9938548D01*
X13085287Y-9936032D01*
X13081021Y-9930499D01*
X13080423Y-9923538D01*
X13083683Y-9917358D01*
X13085287Y-9915968D01*
X13088751Y-9913452D01*
X13105452Y-9896751D01*
X13119334Y-9877643D01*
X13130057Y-9856599D01*
X13137355Y-9834137D01*
X13139467Y-9820807D01*
X13141050Y-9810810D01*
X13141050Y-9787190D01*
X13137355Y-9763863D01*
X13131997Y-9747372D01*
X13130057Y-9741401D01*
X13130057Y-9741401D01*
X13130057Y-9741400D01*
X13121493Y-9724593D01*
X13119334Y-9720357D01*
X13105452Y-9701249D01*
X13088751Y-9684548D01*
X13085287Y-9682032D01*
X13081021Y-9676499D01*
X13080423Y-9669538D01*
X13083683Y-9663358D01*
X13085287Y-9661968D01*
X13088751Y-9659452D01*
X13105452Y-9642751D01*
X13119334Y-9623643D01*
X13130057Y-9602599D01*
X13137355Y-9580137D01*
X13138370Y-9573729D01*
X13141050Y-9556810D01*
X13141050Y-9533190D01*
X13137355Y-9509863D01*
X13131447Y-9491678D01*
X13130057Y-9487401D01*
X13130057Y-9487401D01*
X13130057Y-9487400D01*
X13121700Y-9471000D01*
X13119334Y-9466357D01*
X13105452Y-9447249D01*
X13088751Y-9430548D01*
X13085287Y-9428032D01*
X13081021Y-9422499D01*
X13080423Y-9415538D01*
X13083683Y-9409358D01*
X13085287Y-9407968D01*
X13088751Y-9405452D01*
X13105452Y-9388751D01*
X13118919Y-9370215D01*
X13398550Y-9370215D01*
X13398550Y-9390685D01*
X13401752Y-9410903D01*
X13408078Y-9430372D01*
X13414469Y-9442915D01*
X13416677Y-9447249D01*
X13417371Y-9448611D01*
X13429403Y-9465171D01*
X13443879Y-9479647D01*
X13454550Y-9487400D01*
X13460439Y-9491679D01*
X13472061Y-9497600D01*
X13478678Y-9500972D01*
X13478678Y-9500972D01*
X13478678Y-9500972D01*
X13489114Y-9504363D01*
X13498146Y-9507298D01*
X13508256Y-9508899D01*
X13518365Y-9510500D01*
X13518365Y-9510500D01*
X13538835Y-9510500D01*
X13538835Y-9510500D01*
X13559053Y-9507298D01*
X13578522Y-9500972D01*
X13578522Y-9500972D01*
X13578985Y-9500821D01*
X13579038Y-9500983D01*
X13585250Y-9500315D01*
X13591499Y-9503442D01*
X13595064Y-9509450D01*
X13595450Y-9512518D01*
X13595450Y-11022451D01*
X13595450Y-11036249D01*
X13595450Y-11036250D01*
X13595450Y-11036250D01*
X13598142Y-11049782D01*
X13598142Y-11049783D01*
X13603422Y-11062531D01*
X13611089Y-11074005D01*
X13611089Y-11074005D01*
X13656852Y-11119768D01*
X13660200Y-11125900D01*
X13659877Y-11132367D01*
X13659245Y-11134313D01*
X13659245Y-11134313D01*
X13655550Y-11157640D01*
X13655550Y-11181260D01*
X13659245Y-11204587D01*
X13666543Y-11227050D01*
X13675362Y-11244357D01*
X13677266Y-11248093D01*
X13691148Y-11267201D01*
X13707849Y-11283902D01*
X13711313Y-11286418D01*
X13715579Y-11291951D01*
X13716177Y-11298913D01*
X13712916Y-11305092D01*
X13711313Y-11306481D01*
X13709536Y-11307772D01*
X13707849Y-11308998D01*
X13691148Y-11325699D01*
X13691148Y-11325699D01*
X13691148Y-11325699D01*
X13685642Y-11333278D01*
X13677266Y-11344807D01*
X13666543Y-11365850D01*
X13659245Y-11388313D01*
X13655550Y-11411640D01*
X13655550Y-11435260D01*
X13659245Y-11458587D01*
X13666543Y-11481050D01*
X13675362Y-11498357D01*
X13677266Y-11502093D01*
X13691148Y-11521201D01*
X13707849Y-11537902D01*
X13711313Y-11540418D01*
X13715579Y-11545951D01*
X13716177Y-11552913D01*
X13712916Y-11559092D01*
X13711313Y-11560481D01*
X13709536Y-11561772D01*
X13707849Y-11562998D01*
X13691148Y-11579699D01*
X13691148Y-11579699D01*
X13691148Y-11579699D01*
X13685186Y-11587905D01*
X13677266Y-11598807D01*
X13666543Y-11619850D01*
X13659245Y-11642313D01*
X13655550Y-11665640D01*
X13655550Y-11689260D01*
X13659245Y-11712587D01*
X13666543Y-11735050D01*
X13675362Y-11752357D01*
X13677266Y-11756093D01*
X13691148Y-11775201D01*
X13707849Y-11791902D01*
X13726957Y-11805784D01*
X13736899Y-11810850D01*
X13748000Y-11816507D01*
X13748000Y-11816507D01*
X13748001Y-11816507D01*
X13756261Y-11819191D01*
X13770463Y-11823805D01*
X13793790Y-11827500D01*
X13793791Y-11827500D01*
X13817410Y-11827500D01*
X13840737Y-11823805D01*
X13863199Y-11816507D01*
X13884243Y-11805784D01*
X13903351Y-11791902D01*
X13920052Y-11775201D01*
X13933934Y-11756093D01*
X13944657Y-11735049D01*
X13951955Y-11712587D01*
X13953315Y-11704000D01*
X13955650Y-11689260D01*
X13955650Y-11665640D01*
X13951955Y-11642313D01*
X13946817Y-11626499D01*
X13944657Y-11619851D01*
X13944657Y-11619850D01*
X13944657Y-11619850D01*
X13936148Y-11603152D01*
X13933934Y-11598807D01*
X13920052Y-11579699D01*
X13903351Y-11562998D01*
X13899887Y-11560482D01*
X13895621Y-11554949D01*
X13895023Y-11547987D01*
X13898283Y-11541808D01*
X13899887Y-11540418D01*
X13903351Y-11537902D01*
X13920052Y-11521201D01*
X13933934Y-11502093D01*
X13944657Y-11481049D01*
X13951955Y-11458587D01*
X13953560Y-11448453D01*
X13955650Y-11435260D01*
X13955650Y-11411640D01*
X13951955Y-11388313D01*
X13946817Y-11372499D01*
X13944657Y-11365851D01*
X13944657Y-11365850D01*
X13944657Y-11365850D01*
X13933934Y-11344807D01*
X13920052Y-11325699D01*
X13903351Y-11308998D01*
X13899887Y-11306482D01*
X13895621Y-11300949D01*
X13895023Y-11293987D01*
X13898283Y-11287808D01*
X13899887Y-11286418D01*
X13903351Y-11283902D01*
X13920052Y-11267201D01*
X13933934Y-11248093D01*
X13944657Y-11227049D01*
X13951955Y-11204587D01*
X13953315Y-11196000D01*
X13955650Y-11181260D01*
X13955650Y-11157640D01*
X13951955Y-11134313D01*
X13946817Y-11118499D01*
X13944657Y-11111851D01*
X13944657Y-11111851D01*
X13944657Y-11111850D01*
X13933934Y-11090807D01*
X13920052Y-11071699D01*
X13903351Y-11054998D01*
X13899887Y-11052482D01*
X13895621Y-11046949D01*
X13895023Y-11039988D01*
X13898283Y-11033808D01*
X13899887Y-11032418D01*
X13903351Y-11029902D01*
X13920052Y-11013201D01*
X13933934Y-10994093D01*
X13944657Y-10973049D01*
X13951955Y-10950587D01*
X13953315Y-10942000D01*
X13955650Y-10927260D01*
X13955650Y-10903640D01*
X13951955Y-10880313D01*
X13946817Y-10864499D01*
X13944657Y-10857851D01*
X13944657Y-10857851D01*
X13944657Y-10857850D01*
X13933934Y-10836807D01*
X13920052Y-10817699D01*
X13903351Y-10800998D01*
X13899887Y-10798482D01*
X13895621Y-10792949D01*
X13895023Y-10785988D01*
X13898283Y-10779808D01*
X13899887Y-10778418D01*
X13903351Y-10775902D01*
X13920052Y-10759201D01*
X13933934Y-10740093D01*
X13937729Y-10732645D01*
X15252450Y-10732645D01*
X15252450Y-11872354D01*
X15256295Y-11891683D01*
X15256295Y-11891684D01*
X15257816Y-11895355D01*
X15257816Y-11895355D01*
X15263836Y-11909891D01*
X15263837Y-11909892D01*
X15274786Y-11926278D01*
X15274786Y-11926278D01*
X15289154Y-11940646D01*
X15289156Y-11940648D01*
X15407318Y-12058810D01*
X15410667Y-12064942D01*
X15410950Y-12067578D01*
X15410950Y-12085000D01*
X15410950Y-12085002D01*
X15412000Y-12095280D01*
X15412000Y-12095280D01*
X15415227Y-12105018D01*
X15417519Y-12111933D01*
X15426729Y-12126866D01*
X15439134Y-12139271D01*
X15454067Y-12148481D01*
X15470720Y-12154000D01*
X15480999Y-12155050D01*
X15601001Y-12155050D01*
X15611280Y-12154000D01*
X15627933Y-12148481D01*
X15642866Y-12139271D01*
X15655271Y-12126866D01*
X15664481Y-12111933D01*
X15664609Y-12111549D01*
X15664767Y-12111320D01*
X15664787Y-12111279D01*
X15664794Y-12111282D01*
X15668586Y-12105805D01*
X15675038Y-12103123D01*
X15676379Y-12103050D01*
X15896711Y-12103050D01*
X15903415Y-12105018D01*
X15905479Y-12106682D01*
X15916249Y-12117452D01*
X15935357Y-12131334D01*
X15945299Y-12136400D01*
X15956400Y-12142057D01*
X15956400Y-12142057D01*
X15956401Y-12142057D01*
X15968441Y-12145969D01*
X15978863Y-12149355D01*
X16002190Y-12153050D01*
X16002191Y-12153050D01*
X16025810Y-12153050D01*
X16049137Y-12149355D01*
X16051827Y-12148481D01*
X16071599Y-12142057D01*
X16092643Y-12131334D01*
X16111751Y-12117452D01*
X16128452Y-12100751D01*
X16142334Y-12081643D01*
X16153057Y-12060599D01*
X16160355Y-12038137D01*
X16162056Y-12027400D01*
X16164050Y-12014810D01*
X16164050Y-11991190D01*
X16160355Y-11967863D01*
X16153073Y-11945452D01*
X16153057Y-11945401D01*
X16153057Y-11945400D01*
X16153057Y-11945400D01*
X16144573Y-11928751D01*
X16142334Y-11924357D01*
X16128452Y-11905249D01*
X16111751Y-11888548D01*
X16108287Y-11886032D01*
X16104021Y-11880499D01*
X16103423Y-11873537D01*
X16106683Y-11867358D01*
X16108287Y-11865968D01*
X16111751Y-11863452D01*
X16128452Y-11846751D01*
X16142334Y-11827643D01*
X16153057Y-11806599D01*
X16160355Y-11784137D01*
X16161023Y-11779922D01*
X16164050Y-11760810D01*
X16164050Y-11737190D01*
X16160355Y-11713863D01*
X16153073Y-11691452D01*
X16153057Y-11691401D01*
X16153057Y-11691400D01*
X16153057Y-11691400D01*
X16144573Y-11674751D01*
X16142334Y-11670357D01*
X16128452Y-11651249D01*
X16111751Y-11634548D01*
X16108287Y-11632032D01*
X16104021Y-11626499D01*
X16103423Y-11619537D01*
X16106683Y-11613358D01*
X16108287Y-11611968D01*
X16111751Y-11609452D01*
X16128452Y-11592751D01*
X16142334Y-11573643D01*
X16153057Y-11552599D01*
X16160355Y-11530137D01*
X16160944Y-11526422D01*
X16164050Y-11506810D01*
X16164050Y-11483190D01*
X16160355Y-11459863D01*
X16153073Y-11437452D01*
X16153057Y-11437401D01*
X16153057Y-11437400D01*
X16153057Y-11437400D01*
X16144573Y-11420751D01*
X16142334Y-11416357D01*
X16128452Y-11397249D01*
X16111751Y-11380548D01*
X16108287Y-11378032D01*
X16104021Y-11372499D01*
X16103423Y-11365537D01*
X16106683Y-11359358D01*
X16108287Y-11357968D01*
X16111751Y-11355452D01*
X16128452Y-11338751D01*
X16142334Y-11319643D01*
X16153057Y-11298599D01*
X16160355Y-11276137D01*
X16164050Y-11252810D01*
X16164050Y-11229190D01*
X16160355Y-11205863D01*
X16153073Y-11183452D01*
X16153057Y-11183401D01*
X16153057Y-11183401D01*
X16153057Y-11183400D01*
X16144573Y-11166751D01*
X16142334Y-11162357D01*
X16128452Y-11143249D01*
X16111751Y-11126548D01*
X16108287Y-11124032D01*
X16104021Y-11118499D01*
X16103423Y-11111538D01*
X16106683Y-11105358D01*
X16108287Y-11103968D01*
X16111751Y-11101452D01*
X16128452Y-11084751D01*
X16142334Y-11065643D01*
X16153057Y-11044599D01*
X16160355Y-11022137D01*
X16161023Y-11017922D01*
X16164050Y-10998810D01*
X16164050Y-10975190D01*
X16160355Y-10951863D01*
X16153073Y-10929452D01*
X16153057Y-10929401D01*
X16153057Y-10929401D01*
X16153057Y-10929400D01*
X16144573Y-10912751D01*
X16142334Y-10908357D01*
X16128452Y-10889249D01*
X16111751Y-10872548D01*
X16108287Y-10870032D01*
X16104021Y-10864499D01*
X16103423Y-10857538D01*
X16106683Y-10851358D01*
X16108287Y-10849968D01*
X16111751Y-10847452D01*
X16128452Y-10830751D01*
X16142334Y-10811643D01*
X16153057Y-10790599D01*
X16160355Y-10768137D01*
X16160364Y-10768079D01*
X16164050Y-10744810D01*
X16164050Y-10721190D01*
X16160355Y-10697863D01*
X16154136Y-10678722D01*
X16153057Y-10675401D01*
X16153057Y-10675401D01*
X16153057Y-10675400D01*
X16144573Y-10658751D01*
X16142334Y-10654357D01*
X16128452Y-10635249D01*
X16111751Y-10618548D01*
X16108287Y-10616032D01*
X16104021Y-10610499D01*
X16103423Y-10603538D01*
X16106683Y-10597358D01*
X16108287Y-10595968D01*
X16111751Y-10593452D01*
X16128452Y-10576751D01*
X16142334Y-10557643D01*
X16153057Y-10536599D01*
X16160355Y-10514137D01*
X16161151Y-10509113D01*
X16164050Y-10490810D01*
X16164050Y-10467190D01*
X16160355Y-10443863D01*
X16153073Y-10421452D01*
X16153057Y-10421401D01*
X16153057Y-10421401D01*
X16153057Y-10421400D01*
X16144573Y-10404751D01*
X16142334Y-10400357D01*
X16128452Y-10381249D01*
X16111751Y-10364548D01*
X16108287Y-10362032D01*
X16104021Y-10356499D01*
X16103423Y-10349538D01*
X16106683Y-10343358D01*
X16108287Y-10341968D01*
X16111751Y-10339452D01*
X16128452Y-10322751D01*
X16142334Y-10303643D01*
X16153057Y-10282599D01*
X16160355Y-10260137D01*
X16164050Y-10236810D01*
X16164050Y-10213190D01*
X16160355Y-10189863D01*
X16153073Y-10167452D01*
X16153057Y-10167401D01*
X16153057Y-10167401D01*
X16153057Y-10167400D01*
X16144573Y-10150751D01*
X16142334Y-10146357D01*
X16128452Y-10127249D01*
X16111751Y-10110548D01*
X16092643Y-10096666D01*
X16091043Y-10095850D01*
X16071600Y-10085943D01*
X16049137Y-10078645D01*
X16025810Y-10074950D01*
X16025809Y-10074950D01*
X16002191Y-10074950D01*
X16002190Y-10074950D01*
X15978863Y-10078645D01*
X15956400Y-10085943D01*
X15935357Y-10096666D01*
X15924455Y-10104586D01*
X15916249Y-10110548D01*
X15916249Y-10110549D01*
X15916249Y-10110549D01*
X15899548Y-10127249D01*
X15899548Y-10127249D01*
X15899548Y-10127249D01*
X15893586Y-10135455D01*
X15885666Y-10146357D01*
X15874943Y-10167400D01*
X15867645Y-10189863D01*
X15863950Y-10213190D01*
X15863950Y-10236810D01*
X15867645Y-10260137D01*
X15874943Y-10282600D01*
X15880242Y-10292998D01*
X15885666Y-10303643D01*
X15899548Y-10322751D01*
X15916249Y-10339452D01*
X15919713Y-10341968D01*
X15923979Y-10347501D01*
X15924577Y-10354463D01*
X15921316Y-10360642D01*
X15919713Y-10362032D01*
X15917936Y-10363322D01*
X15916249Y-10364548D01*
X15899548Y-10381249D01*
X15899548Y-10381249D01*
X15899548Y-10381249D01*
X15895979Y-10386161D01*
X15885666Y-10400357D01*
X15874943Y-10421400D01*
X15867645Y-10443863D01*
X15863950Y-10467190D01*
X15863950Y-10490810D01*
X15867645Y-10514137D01*
X15874943Y-10536600D01*
X15880242Y-10546998D01*
X15885666Y-10557643D01*
X15899548Y-10576751D01*
X15916249Y-10593452D01*
X15919713Y-10595968D01*
X15923979Y-10601501D01*
X15924577Y-10608463D01*
X15921316Y-10614642D01*
X15919713Y-10616032D01*
X15917936Y-10617322D01*
X15916249Y-10618548D01*
X15899548Y-10635249D01*
X15899548Y-10635249D01*
X15899548Y-10635249D01*
X15893586Y-10643455D01*
X15885666Y-10654357D01*
X15874943Y-10675400D01*
X15867645Y-10697863D01*
X15863950Y-10721190D01*
X15863950Y-10744810D01*
X15867645Y-10768137D01*
X15874943Y-10790600D01*
X15885666Y-10811643D01*
X15899548Y-10830751D01*
X15916249Y-10847452D01*
X15919713Y-10849968D01*
X15923979Y-10855501D01*
X15924577Y-10862463D01*
X15921316Y-10868642D01*
X15919713Y-10870032D01*
X15917936Y-10871322D01*
X15916249Y-10872548D01*
X15899548Y-10889249D01*
X15899548Y-10889249D01*
X15899548Y-10889249D01*
X15893586Y-10897455D01*
X15885666Y-10908357D01*
X15874943Y-10929400D01*
X15867645Y-10951863D01*
X15863950Y-10975190D01*
X15863950Y-10998810D01*
X15867645Y-11022137D01*
X15874943Y-11044600D01*
X15885666Y-11065643D01*
X15899548Y-11084751D01*
X15916249Y-11101452D01*
X15919713Y-11103968D01*
X15923979Y-11109501D01*
X15924577Y-11116463D01*
X15921316Y-11122642D01*
X15919713Y-11124032D01*
X15918186Y-11125141D01*
X15916249Y-11126548D01*
X15899548Y-11143249D01*
X15899548Y-11143249D01*
X15899548Y-11143249D01*
X15895979Y-11148161D01*
X15885666Y-11162357D01*
X15874943Y-11183400D01*
X15867645Y-11205863D01*
X15863950Y-11229190D01*
X15863950Y-11252810D01*
X15867645Y-11276137D01*
X15874943Y-11298600D01*
X15880242Y-11308998D01*
X15885666Y-11319643D01*
X15899548Y-11338751D01*
X15916249Y-11355452D01*
X15919713Y-11357968D01*
X15923979Y-11363501D01*
X15924577Y-11370463D01*
X15921316Y-11376642D01*
X15919713Y-11378031D01*
X15917936Y-11379322D01*
X15916249Y-11380548D01*
X15899548Y-11397249D01*
X15899548Y-11397249D01*
X15899548Y-11397249D01*
X15893586Y-11405455D01*
X15885666Y-11416357D01*
X15874943Y-11437400D01*
X15867645Y-11459863D01*
X15863950Y-11483190D01*
X15863950Y-11506810D01*
X15867645Y-11530137D01*
X15874943Y-11552600D01*
X15880242Y-11562998D01*
X15885666Y-11573643D01*
X15899548Y-11592751D01*
X15916249Y-11609452D01*
X15919713Y-11611968D01*
X15923979Y-11617501D01*
X15924577Y-11624463D01*
X15921316Y-11630642D01*
X15919713Y-11632031D01*
X15917936Y-11633322D01*
X15916249Y-11634548D01*
X15899548Y-11651249D01*
X15899548Y-11651249D01*
X15899548Y-11651249D01*
X15893586Y-11659455D01*
X15885666Y-11670357D01*
X15874943Y-11691400D01*
X15867645Y-11713863D01*
X15863950Y-11737190D01*
X15863950Y-11760810D01*
X15867645Y-11784137D01*
X15874943Y-11806600D01*
X15881036Y-11818558D01*
X15885666Y-11827643D01*
X15899548Y-11846751D01*
X15916249Y-11863452D01*
X15919713Y-11865968D01*
X15920996Y-11867632D01*
X15922629Y-11868956D01*
X15923087Y-11870344D01*
X15923979Y-11871501D01*
X15924159Y-11873595D01*
X15924817Y-11875591D01*
X15924452Y-11877006D01*
X15924577Y-11878463D01*
X15923596Y-11880321D01*
X15923071Y-11882356D01*
X15921773Y-11883777D01*
X15921316Y-11884642D01*
X15920849Y-11885098D01*
X15920309Y-11885599D01*
X15916249Y-11888548D01*
X15905310Y-11899487D01*
X15905136Y-11899648D01*
X15902212Y-11901102D01*
X15899347Y-11902667D01*
X15898988Y-11902705D01*
X15898880Y-11902759D01*
X15898686Y-11902738D01*
X15896711Y-11902950D01*
X15633752Y-11902950D01*
X15628512Y-11901788D01*
X15627934Y-11901519D01*
X15627933Y-11901519D01*
X15627933Y-11901519D01*
X15611280Y-11896000D01*
X15611279Y-11896000D01*
X15601002Y-11894950D01*
X15601001Y-11894950D01*
X15531578Y-11894950D01*
X15524874Y-11892981D01*
X15522810Y-11891318D01*
X15456182Y-11824690D01*
X15452833Y-11818558D01*
X15452550Y-11815922D01*
X15452550Y-11719765D01*
X15560950Y-11719765D01*
X15560950Y-11740235D01*
X15564152Y-11760453D01*
X15570478Y-11779922D01*
X15579771Y-11798161D01*
X15591803Y-11814721D01*
X15606279Y-11829197D01*
X15621775Y-11840456D01*
X15622839Y-11841229D01*
X15633677Y-11846751D01*
X15641078Y-11850522D01*
X15641078Y-11850522D01*
X15641078Y-11850522D01*
X15647615Y-11852646D01*
X15660546Y-11856848D01*
X15670656Y-11858449D01*
X15680765Y-11860050D01*
X15680765Y-11860050D01*
X15701235Y-11860050D01*
X15701235Y-11860050D01*
X15721453Y-11856848D01*
X15740922Y-11850522D01*
X15759161Y-11841229D01*
X15768459Y-11834473D01*
X15775721Y-11829197D01*
X15775721Y-11829197D01*
X15775722Y-11829197D01*
X15790197Y-11814722D01*
X15790197Y-11814721D01*
X15790197Y-11814721D01*
X15796690Y-11805784D01*
X15802229Y-11798161D01*
X15811522Y-11779922D01*
X15817848Y-11760453D01*
X15821050Y-11740235D01*
X15821050Y-11719765D01*
X15820541Y-11716548D01*
X15817848Y-11699546D01*
X15811522Y-11680078D01*
X15804166Y-11665641D01*
X15802229Y-11661839D01*
X15797727Y-11655643D01*
X15790197Y-11645279D01*
X15775721Y-11630803D01*
X15759161Y-11618771D01*
X15759161Y-11618771D01*
X15759161Y-11618771D01*
X15753465Y-11615869D01*
X15740922Y-11609478D01*
X15721453Y-11603152D01*
X15703999Y-11600388D01*
X15701235Y-11599950D01*
X15680765Y-11599950D01*
X15678333Y-11600335D01*
X15660546Y-11603152D01*
X15641078Y-11609478D01*
X15622839Y-11618771D01*
X15606279Y-11630803D01*
X15591803Y-11645279D01*
X15579771Y-11661839D01*
X15570478Y-11680078D01*
X15564152Y-11699546D01*
X15560950Y-11719765D01*
X15452550Y-11719765D01*
X15452550Y-10957765D01*
X15560950Y-10957765D01*
X15560950Y-10978235D01*
X15564152Y-10998453D01*
X15570478Y-11017922D01*
X15576582Y-11029901D01*
X15577864Y-11032418D01*
X15579771Y-11036161D01*
X15591803Y-11052721D01*
X15606279Y-11067197D01*
X15621775Y-11078456D01*
X15622839Y-11079229D01*
X15633677Y-11084751D01*
X15641078Y-11088522D01*
X15641078Y-11088522D01*
X15641078Y-11088522D01*
X15646350Y-11090235D01*
X15660546Y-11094848D01*
X15670656Y-11096449D01*
X15680765Y-11098050D01*
X15680765Y-11098050D01*
X15701235Y-11098050D01*
X15701235Y-11098050D01*
X15721453Y-11094848D01*
X15740922Y-11088522D01*
X15759161Y-11079229D01*
X15769525Y-11071699D01*
X15775721Y-11067197D01*
X15775721Y-11067197D01*
X15775722Y-11067197D01*
X15790197Y-11052722D01*
X15790197Y-11052722D01*
X15790197Y-11052721D01*
X15799449Y-11039988D01*
X15802229Y-11036161D01*
X15811522Y-11017922D01*
X15817848Y-10998453D01*
X15821050Y-10978235D01*
X15821050Y-10957765D01*
X15820541Y-10954548D01*
X15817848Y-10937547D01*
X15811522Y-10918078D01*
X15804166Y-10903641D01*
X15802229Y-10899839D01*
X15797727Y-10893643D01*
X15790197Y-10883279D01*
X15775721Y-10868803D01*
X15759161Y-10856772D01*
X15759161Y-10856771D01*
X15759161Y-10856771D01*
X15753465Y-10853869D01*
X15740922Y-10847478D01*
X15721453Y-10841152D01*
X15703999Y-10838388D01*
X15701235Y-10837950D01*
X15680765Y-10837950D01*
X15678333Y-10838335D01*
X15660546Y-10841152D01*
X15641078Y-10847478D01*
X15622839Y-10856772D01*
X15606279Y-10868803D01*
X15591803Y-10883279D01*
X15579771Y-10899839D01*
X15570478Y-10918078D01*
X15564152Y-10937547D01*
X15560950Y-10957765D01*
X15452550Y-10957765D01*
X15452550Y-10789078D01*
X15454518Y-10782374D01*
X15456182Y-10780310D01*
X15486810Y-10749682D01*
X15492942Y-10746333D01*
X15495578Y-10746050D01*
X15558604Y-10746050D01*
X15565308Y-10748019D01*
X15567535Y-10749962D01*
X15567576Y-10749921D01*
X15585734Y-10768079D01*
X15585735Y-10768080D01*
X15585813Y-10768137D01*
X15606115Y-10782887D01*
X15620418Y-10790175D01*
X15628562Y-10794324D01*
X15628562Y-10794324D01*
X15628562Y-10794324D01*
X15652521Y-10802109D01*
X15677404Y-10806050D01*
X15677404Y-10806050D01*
X15702596Y-10806050D01*
X15702596Y-10806050D01*
X15727478Y-10802109D01*
X15751438Y-10794324D01*
X15773884Y-10782887D01*
X15794266Y-10768079D01*
X15812079Y-10750266D01*
X15826887Y-10729885D01*
X15838324Y-10707438D01*
X15846109Y-10683479D01*
X15850050Y-10658596D01*
X15850050Y-10633404D01*
X15846109Y-10608522D01*
X15838324Y-10584562D01*
X15838324Y-10584562D01*
X15838324Y-10584562D01*
X15834175Y-10576418D01*
X15826887Y-10562116D01*
X15823415Y-10557337D01*
X15812080Y-10541735D01*
X15812079Y-10541735D01*
X15794265Y-10523921D01*
X15794265Y-10523920D01*
X15773885Y-10509113D01*
X15773885Y-10509113D01*
X15773884Y-10509113D01*
X15762673Y-10503400D01*
X15751438Y-10497676D01*
X15727478Y-10489891D01*
X15702596Y-10485950D01*
X15677404Y-10485950D01*
X15664963Y-10487921D01*
X15652521Y-10489891D01*
X15628562Y-10497676D01*
X15606115Y-10509113D01*
X15585735Y-10523920D01*
X15585734Y-10523921D01*
X15567576Y-10542079D01*
X15567469Y-10541971D01*
X15562182Y-10545423D01*
X15558604Y-10545950D01*
X15439146Y-10545950D01*
X15437389Y-10546299D01*
X15433876Y-10546998D01*
X15419817Y-10549795D01*
X15419816Y-10549795D01*
X15414483Y-10552004D01*
X15414483Y-10552004D01*
X15409931Y-10553889D01*
X15401609Y-10557337D01*
X15401608Y-10557337D01*
X15385222Y-10568286D01*
X15380699Y-10572809D01*
X15371286Y-10582222D01*
X15371286Y-10582222D01*
X15288722Y-10664786D01*
X15288722Y-10664786D01*
X15281754Y-10671754D01*
X15274786Y-10678722D01*
X15263837Y-10695108D01*
X15263836Y-10695109D01*
X15260230Y-10703817D01*
X15260230Y-10703817D01*
X15256440Y-10712965D01*
X15256295Y-10713316D01*
X15256295Y-10713317D01*
X15252450Y-10732645D01*
X13937729Y-10732645D01*
X13944657Y-10719049D01*
X13951955Y-10696587D01*
X13953315Y-10688000D01*
X13955650Y-10673260D01*
X13955650Y-10649640D01*
X13951955Y-10626313D01*
X13946174Y-10608521D01*
X13944657Y-10603851D01*
X13944657Y-10603851D01*
X13944657Y-10603850D01*
X13934829Y-10584562D01*
X13933934Y-10582807D01*
X13920052Y-10563699D01*
X13903351Y-10546998D01*
X13899887Y-10544482D01*
X13895621Y-10538949D01*
X13895023Y-10531988D01*
X13898283Y-10525808D01*
X13899887Y-10524418D01*
X13903351Y-10521902D01*
X13920052Y-10505201D01*
X13933934Y-10486093D01*
X13944657Y-10465049D01*
X13951955Y-10442587D01*
X13953315Y-10434000D01*
X13955650Y-10419260D01*
X13955650Y-10395640D01*
X13951955Y-10372313D01*
X13946817Y-10356499D01*
X13944657Y-10349851D01*
X13944657Y-10349851D01*
X13944657Y-10349850D01*
X13933934Y-10328807D01*
X13920052Y-10309699D01*
X13903351Y-10292998D01*
X13899887Y-10290482D01*
X13895621Y-10284949D01*
X13895023Y-10277988D01*
X13898283Y-10271808D01*
X13899887Y-10270418D01*
X13903351Y-10267902D01*
X13920052Y-10251201D01*
X13933934Y-10232093D01*
X13944657Y-10211049D01*
X13951955Y-10188587D01*
X13953315Y-10180000D01*
X13955650Y-10165260D01*
X13955650Y-10141640D01*
X13951955Y-10118313D01*
X13948569Y-10107891D01*
X13944657Y-10095851D01*
X13944657Y-10095851D01*
X13944657Y-10095850D01*
X13939000Y-10084749D01*
X13933934Y-10074807D01*
X13920052Y-10055699D01*
X13903351Y-10038998D01*
X13899887Y-10036482D01*
X13895621Y-10030949D01*
X13895023Y-10023988D01*
X13898283Y-10017808D01*
X13899887Y-10016418D01*
X13903351Y-10013902D01*
X13920052Y-9997201D01*
X13933934Y-9978093D01*
X13944657Y-9957049D01*
X13951955Y-9934587D01*
X13952603Y-9930499D01*
X13955650Y-9911260D01*
X13955650Y-9887640D01*
X13951955Y-9864313D01*
X13944657Y-9841850D01*
X13933934Y-9820807D01*
X13920052Y-9801699D01*
X13903351Y-9784998D01*
X13884243Y-9771116D01*
X13863200Y-9760393D01*
X13840737Y-9753095D01*
X13817410Y-9749400D01*
X13817409Y-9749400D01*
X13793791Y-9749400D01*
X13793790Y-9749400D01*
X13770463Y-9753095D01*
X13770463Y-9753095D01*
X13751782Y-9759165D01*
X13744798Y-9759364D01*
X13738814Y-9755756D01*
X13735732Y-9749486D01*
X13735550Y-9747372D01*
X13735550Y-9539998D01*
X15529950Y-9539998D01*
X15529950Y-9720002D01*
X15531000Y-9730280D01*
X15536518Y-9746933D01*
X15536519Y-9746934D01*
X15538093Y-9749486D01*
X15545729Y-9761866D01*
X15558134Y-9774271D01*
X15573066Y-9783481D01*
X15589720Y-9789000D01*
X15599999Y-9790050D01*
X15599999Y-9790050D01*
X15780000Y-9790050D01*
X15780001Y-9790050D01*
X15790280Y-9789000D01*
X15806933Y-9783481D01*
X15821866Y-9774271D01*
X15834271Y-9761866D01*
X15843481Y-9746934D01*
X15849000Y-9730280D01*
X15850050Y-9720001D01*
X15850050Y-9539999D01*
X15849000Y-9529720D01*
X15843481Y-9513067D01*
X15834271Y-9498134D01*
X15821866Y-9485729D01*
X15806933Y-9476519D01*
X15790280Y-9471000D01*
X15790280Y-9471000D01*
X15780002Y-9469950D01*
X15780001Y-9469950D01*
X15599999Y-9469950D01*
X15599998Y-9469950D01*
X15589720Y-9471000D01*
X15589720Y-9471000D01*
X15581467Y-9473735D01*
X15573067Y-9476519D01*
X15573066Y-9476519D01*
X15558134Y-9485729D01*
X15545729Y-9498134D01*
X15536519Y-9513066D01*
X15536518Y-9513067D01*
X15533946Y-9520829D01*
X15531000Y-9529720D01*
X15531000Y-9529720D01*
X15531000Y-9529720D01*
X15529950Y-9539998D01*
X13735550Y-9539998D01*
X13735550Y-9538900D01*
X13737518Y-9532196D01*
X13742799Y-9527621D01*
X13747950Y-9526500D01*
X13895387Y-9526500D01*
X13895387Y-9526500D01*
X13901348Y-9525859D01*
X13914833Y-9520830D01*
X13926355Y-9512205D01*
X13934980Y-9500683D01*
X13940009Y-9487198D01*
X13940650Y-9481237D01*
X13940650Y-9301663D01*
X13940009Y-9295702D01*
X13939261Y-9293696D01*
X13934980Y-9282217D01*
X13934979Y-9282216D01*
X13933231Y-9279881D01*
X13930789Y-9273335D01*
X13932274Y-9266507D01*
X13937215Y-9261567D01*
X13943158Y-9260050D01*
X14386900Y-9260050D01*
X14396004Y-9258239D01*
X14400433Y-9257358D01*
X14409500Y-9253602D01*
X14413181Y-9252078D01*
X14413181Y-9252078D01*
X14413181Y-9252078D01*
X14424654Y-9244411D01*
X14537385Y-9131680D01*
X14543517Y-9128332D01*
X14548093Y-9128201D01*
X14559765Y-9130050D01*
X14559765Y-9130050D01*
X14580235Y-9130050D01*
X14580235Y-9130050D01*
X14600453Y-9126848D01*
X14619922Y-9120522D01*
X14638161Y-9111229D01*
X14647459Y-9104473D01*
X14654721Y-9099197D01*
X14654721Y-9099197D01*
X14654722Y-9099197D01*
X14669197Y-9084722D01*
X14669197Y-9084722D01*
X14669197Y-9084721D01*
X14678340Y-9072137D01*
X14681229Y-9068161D01*
X14690522Y-9049922D01*
X14696848Y-9030453D01*
X14700050Y-9010235D01*
X14700050Y-8989765D01*
X14698913Y-8982589D01*
X14696848Y-8969547D01*
X14691693Y-8953682D01*
X14690522Y-8950078D01*
X14690522Y-8950078D01*
X14690522Y-8950078D01*
X14685004Y-8939249D01*
X14681229Y-8931839D01*
X14680456Y-8930775D01*
X14669197Y-8915279D01*
X14654721Y-8900803D01*
X14638161Y-8888772D01*
X14638161Y-8888771D01*
X14638161Y-8888771D01*
X14632465Y-8885869D01*
X14619922Y-8879478D01*
X14600453Y-8873152D01*
X14582999Y-8870388D01*
X14580235Y-8869950D01*
X14559765Y-8869950D01*
X14557333Y-8870335D01*
X14539546Y-8873152D01*
X14520078Y-8879478D01*
X14501839Y-8888772D01*
X14485279Y-8900803D01*
X14470803Y-8915279D01*
X14458771Y-8931839D01*
X14449478Y-8950078D01*
X14443152Y-8969547D01*
X14439950Y-8989765D01*
X14439950Y-9010235D01*
X14441799Y-9021907D01*
X14440903Y-9028836D01*
X14438319Y-9032615D01*
X14354616Y-9116318D01*
X14348484Y-9119667D01*
X14345848Y-9119950D01*
X13901905Y-9119950D01*
X13895201Y-9117982D01*
X13890625Y-9112701D01*
X13889631Y-9105785D01*
X13892533Y-9099430D01*
X13893137Y-9098782D01*
X13897319Y-9094599D01*
X13907197Y-9084722D01*
X13907197Y-9084722D01*
X13907197Y-9084721D01*
X13916340Y-9072137D01*
X13919229Y-9068161D01*
X13928522Y-9049922D01*
X13934848Y-9030453D01*
X13938050Y-9010235D01*
X13938050Y-8989765D01*
X13936913Y-8982589D01*
X13934848Y-8969547D01*
X13929693Y-8953682D01*
X13928522Y-8950078D01*
X13928522Y-8950078D01*
X13928522Y-8950078D01*
X13923004Y-8939249D01*
X13919229Y-8931839D01*
X13918456Y-8930775D01*
X13907197Y-8915279D01*
X13892721Y-8900803D01*
X13876161Y-8888772D01*
X13876161Y-8888771D01*
X13876161Y-8888771D01*
X13870465Y-8885869D01*
X13857922Y-8879478D01*
X13838453Y-8873152D01*
X13820999Y-8870388D01*
X13818235Y-8869950D01*
X13797765Y-8869950D01*
X13795333Y-8870335D01*
X13777546Y-8873152D01*
X13758078Y-8879478D01*
X13739839Y-8888772D01*
X13723279Y-8900803D01*
X13708803Y-8915279D01*
X13696771Y-8931839D01*
X13687478Y-8950078D01*
X13681152Y-8969547D01*
X13677950Y-8989765D01*
X13677950Y-9010235D01*
X13681152Y-9030453D01*
X13687478Y-9049922D01*
X13693869Y-9062465D01*
X13695532Y-9065729D01*
X13696771Y-9068161D01*
X13708803Y-9084721D01*
X13723278Y-9099197D01*
X13731832Y-9105411D01*
X13736099Y-9110944D01*
X13736697Y-9117906D01*
X13733436Y-9124085D01*
X13729289Y-9126899D01*
X13726819Y-9127922D01*
X13715345Y-9135589D01*
X13611089Y-9239845D01*
X13603422Y-9251319D01*
X13601272Y-9256511D01*
X13596888Y-9261951D01*
X13590258Y-9264158D01*
X13584186Y-9262814D01*
X13578522Y-9259928D01*
X13559053Y-9253602D01*
X13541599Y-9250838D01*
X13538835Y-9250400D01*
X13518365Y-9250400D01*
X13515933Y-9250785D01*
X13498146Y-9253602D01*
X13478678Y-9259928D01*
X13460439Y-9269222D01*
X13443879Y-9281253D01*
X13429403Y-9295729D01*
X13417371Y-9312289D01*
X13408078Y-9330528D01*
X13401752Y-9349997D01*
X13398550Y-9370215D01*
X13118919Y-9370215D01*
X13119334Y-9369643D01*
X13130057Y-9348599D01*
X13137355Y-9326137D01*
X13141050Y-9302810D01*
X13141050Y-9279190D01*
X13137355Y-9255863D01*
X13130968Y-9236204D01*
X13130057Y-9233401D01*
X13130057Y-9233401D01*
X13130057Y-9233400D01*
X13119334Y-9212357D01*
X13105452Y-9193249D01*
X13088751Y-9176548D01*
X13085287Y-9174032D01*
X13081021Y-9168499D01*
X13080423Y-9161538D01*
X13083683Y-9155358D01*
X13085287Y-9153968D01*
X13088751Y-9151452D01*
X13105452Y-9134751D01*
X13119334Y-9115643D01*
X13130057Y-9094599D01*
X13137355Y-9072137D01*
X13138370Y-9065729D01*
X13141050Y-9048810D01*
X13141050Y-9025190D01*
X13137355Y-9001863D01*
X13130268Y-8980050D01*
X13130057Y-8979401D01*
X13130057Y-8979401D01*
X13130057Y-8979400D01*
X13124400Y-8968299D01*
X13119334Y-8958357D01*
X13105452Y-8939249D01*
X13088751Y-8922548D01*
X13085287Y-8920032D01*
X13081021Y-8914499D01*
X13080423Y-8907538D01*
X13083683Y-8901358D01*
X13085287Y-8899968D01*
X13088751Y-8897452D01*
X13105452Y-8880751D01*
X13119334Y-8861643D01*
X13130057Y-8840599D01*
X13137355Y-8818137D01*
X13138966Y-8807967D01*
X13141050Y-8794810D01*
X13141050Y-8771190D01*
X13137355Y-8747863D01*
X13131567Y-8730050D01*
X13130057Y-8725401D01*
X13130057Y-8725401D01*
X13130057Y-8725400D01*
X13123343Y-8712225D01*
X13119334Y-8704357D01*
X13105452Y-8685249D01*
X13088751Y-8668548D01*
X13085287Y-8666032D01*
X13081021Y-8660499D01*
X13080423Y-8653538D01*
X13083683Y-8647358D01*
X13085287Y-8645968D01*
X13088751Y-8643452D01*
X13105452Y-8626751D01*
X13119334Y-8607643D01*
X13128444Y-8589765D01*
X13679950Y-8589765D01*
X13679950Y-8610235D01*
X13683152Y-8630453D01*
X13689478Y-8649922D01*
X13695348Y-8661442D01*
X13698152Y-8666946D01*
X13698771Y-8668161D01*
X13710803Y-8684721D01*
X13725279Y-8699197D01*
X13737052Y-8707751D01*
X13741839Y-8711229D01*
X13752742Y-8716784D01*
X13760078Y-8720522D01*
X13760078Y-8720522D01*
X13760078Y-8720522D01*
X13765886Y-8722409D01*
X13779546Y-8726848D01*
X13789656Y-8728449D01*
X13799765Y-8730050D01*
X13799765Y-8730050D01*
X13820235Y-8730050D01*
X13820235Y-8730050D01*
X13840453Y-8726848D01*
X13859922Y-8720522D01*
X13878161Y-8711229D01*
X13890288Y-8702418D01*
X13894721Y-8699197D01*
X13894721Y-8699197D01*
X13894722Y-8699197D01*
X13909197Y-8684722D01*
X13909197Y-8684722D01*
X13909197Y-8684721D01*
X13915202Y-8676456D01*
X13921229Y-8668161D01*
X13930522Y-8649922D01*
X13936848Y-8630453D01*
X13940050Y-8610235D01*
X13940050Y-8589765D01*
X13936848Y-8569547D01*
X13935090Y-8564137D01*
X13930522Y-8550078D01*
X13925799Y-8540810D01*
X13921229Y-8531839D01*
X13917363Y-8526519D01*
X13909197Y-8515279D01*
X13894721Y-8500803D01*
X13878161Y-8488772D01*
X13878161Y-8488771D01*
X13878161Y-8488771D01*
X13872465Y-8485869D01*
X13859922Y-8479478D01*
X13840453Y-8473152D01*
X13821669Y-8470177D01*
X13820235Y-8469950D01*
X13799765Y-8469950D01*
X13798331Y-8470177D01*
X13779546Y-8473152D01*
X13760078Y-8479478D01*
X13741839Y-8488772D01*
X13725279Y-8500803D01*
X13710803Y-8515279D01*
X13698771Y-8531839D01*
X13689478Y-8550078D01*
X13683152Y-8569547D01*
X13679950Y-8589765D01*
X13128444Y-8589765D01*
X13130057Y-8586599D01*
X13137355Y-8564137D01*
X13137525Y-8563067D01*
X13141050Y-8540810D01*
X13141050Y-8517190D01*
X13137355Y-8493863D01*
X13132681Y-8479478D01*
X13130057Y-8471401D01*
X13130057Y-8471401D01*
X13130057Y-8471400D01*
X13122683Y-8456929D01*
X13119334Y-8450357D01*
X13105452Y-8431249D01*
X13088751Y-8414548D01*
X13069643Y-8400666D01*
X13067429Y-8399538D01*
X13048600Y-8389943D01*
X13026137Y-8382645D01*
X13002810Y-8378950D01*
X13002809Y-8378950D01*
X12979191Y-8378950D01*
X12979190Y-8378950D01*
X12955863Y-8382645D01*
X12933400Y-8389943D01*
X12912357Y-8400666D01*
X12907131Y-8404463D01*
X12893249Y-8414548D01*
X12893249Y-8414549D01*
X12893249Y-8414549D01*
X12876548Y-8431249D01*
X12876548Y-8431249D01*
X12876548Y-8431249D01*
X12876484Y-8431337D01*
X12862666Y-8450357D01*
X12851943Y-8471400D01*
X12844645Y-8493863D01*
X12840950Y-8517190D01*
X11617050Y-8517190D01*
X11613355Y-8493863D01*
X11608681Y-8479478D01*
X11606057Y-8471401D01*
X11606057Y-8471401D01*
X11606057Y-8471400D01*
X11598683Y-8456929D01*
X11595334Y-8450357D01*
X11581452Y-8431249D01*
X11564751Y-8414548D01*
X11561287Y-8412032D01*
X11557021Y-8406499D01*
X11556423Y-8399538D01*
X11559683Y-8393358D01*
X11561287Y-8391968D01*
X11564751Y-8389452D01*
X11581452Y-8372751D01*
X11595334Y-8353643D01*
X11606057Y-8332599D01*
X11613355Y-8310137D01*
X11617050Y-8286810D01*
X11617050Y-8263190D01*
X11613355Y-8239863D01*
X11608024Y-8223455D01*
X11606057Y-8217401D01*
X11606057Y-8217400D01*
X11606057Y-8217400D01*
X11597872Y-8201337D01*
X11595334Y-8196357D01*
X11581452Y-8177249D01*
X11578182Y-8173979D01*
X11574834Y-8167847D01*
X11575332Y-8160878D01*
X11579519Y-8155285D01*
X11582617Y-8153593D01*
X11591233Y-8150380D01*
X11591233Y-8150380D01*
X11591233Y-8150380D01*
X11602755Y-8141755D01*
X11611380Y-8130233D01*
X11616409Y-8116748D01*
X11617050Y-8110787D01*
X11617050Y-8009190D01*
X12840950Y-8009190D01*
X12840950Y-8032810D01*
X12844645Y-8056137D01*
X12851943Y-8078600D01*
X12858460Y-8091389D01*
X12862666Y-8099643D01*
X12876548Y-8118751D01*
X12893249Y-8135452D01*
X12912357Y-8149334D01*
X12920715Y-8153593D01*
X12933400Y-8160057D01*
X12933400Y-8160057D01*
X12933401Y-8160057D01*
X12945441Y-8163969D01*
X12955863Y-8167355D01*
X12979190Y-8171050D01*
X12979191Y-8171050D01*
X13002810Y-8171050D01*
X13026137Y-8167355D01*
X13035458Y-8164327D01*
X13048599Y-8160057D01*
X13069643Y-8149334D01*
X13088751Y-8135452D01*
X13105452Y-8118751D01*
X13119334Y-8099643D01*
X13130057Y-8078599D01*
X13137355Y-8056137D01*
X13141050Y-8032810D01*
X13141050Y-8009190D01*
X13137355Y-7985863D01*
X13132006Y-7969400D01*
X13130057Y-7963401D01*
X13130057Y-7963400D01*
X13130057Y-7963400D01*
X13123391Y-7950318D01*
X13119334Y-7942357D01*
X13105452Y-7923249D01*
X13088751Y-7906548D01*
X13069643Y-7892666D01*
X13067591Y-7891620D01*
X13048600Y-7881943D01*
X13026137Y-7874645D01*
X13002810Y-7870950D01*
X13002809Y-7870950D01*
X12979191Y-7870950D01*
X12979190Y-7870950D01*
X12955863Y-7874645D01*
X12933400Y-7881943D01*
X12912357Y-7892666D01*
X12902703Y-7899679D01*
X12893249Y-7906548D01*
X12893249Y-7906548D01*
X12893249Y-7906548D01*
X12876548Y-7923249D01*
X12876548Y-7923249D01*
X12876548Y-7923249D01*
X12870763Y-7931212D01*
X12862666Y-7942357D01*
X12851943Y-7963400D01*
X12844645Y-7985863D01*
X12840950Y-8009190D01*
X11617050Y-8009190D01*
X11617050Y-7931213D01*
X11616409Y-7925252D01*
X11616197Y-7924683D01*
X11611380Y-7911767D01*
X11611379Y-7911766D01*
X11602755Y-7900245D01*
X11602754Y-7900245D01*
X11591233Y-7891621D01*
X11591233Y-7891620D01*
X11577748Y-7886591D01*
X11577748Y-7886591D01*
X11571788Y-7885950D01*
X11571788Y-7885950D01*
X11571787Y-7885950D01*
X11571786Y-7885950D01*
X11465525Y-7885950D01*
X11458821Y-7883981D01*
X11454246Y-7878701D01*
X11453251Y-7871785D01*
X11456154Y-7865430D01*
X11456757Y-7864782D01*
X11469518Y-7852021D01*
X11497657Y-7823882D01*
X11503789Y-7820533D01*
X11506425Y-7820250D01*
X13426925Y-7820250D01*
X13433629Y-7822218D01*
X13435693Y-7823882D01*
X13587970Y-7976159D01*
X13591318Y-7982291D01*
X13591601Y-7984927D01*
X13591601Y-8201040D01*
X13591661Y-8201337D01*
X13594145Y-8213830D01*
X13595273Y-8219499D01*
X13595446Y-8220370D01*
X13602988Y-8238577D01*
X13602989Y-8238578D01*
X13613937Y-8254964D01*
X13613938Y-8254964D01*
X13628305Y-8269332D01*
X13628307Y-8269334D01*
X13685489Y-8326515D01*
X13685492Y-8326519D01*
X13699737Y-8340764D01*
X13699737Y-8340764D01*
X13716123Y-8351713D01*
X13716125Y-8351713D01*
X13728999Y-8357046D01*
X13733290Y-8358823D01*
X13734332Y-8359255D01*
X13743997Y-8361177D01*
X13748829Y-8362139D01*
X13753661Y-8363100D01*
X13753661Y-8363100D01*
X13753662Y-8363100D01*
X13773370Y-8363100D01*
X14064775Y-8363100D01*
X14071479Y-8365068D01*
X14073543Y-8366732D01*
X14180376Y-8473566D01*
X14180379Y-8473569D01*
X14194624Y-8487814D01*
X14194625Y-8487814D01*
X14211011Y-8498763D01*
X14211011Y-8498763D01*
X14211012Y-8498763D01*
X14223159Y-8503795D01*
X14229219Y-8506305D01*
X14236302Y-8507714D01*
X14239524Y-8508355D01*
X14248549Y-8510150D01*
X14248549Y-8510150D01*
X14248549Y-8510150D01*
X14268257Y-8510150D01*
X14452193Y-8510150D01*
X14458897Y-8512119D01*
X14463472Y-8517399D01*
X14464467Y-8524315D01*
X14462225Y-8529839D01*
X14460771Y-8531839D01*
X14451478Y-8550078D01*
X14445152Y-8569547D01*
X14441950Y-8589765D01*
X14441950Y-8610235D01*
X14445152Y-8630453D01*
X14451478Y-8649922D01*
X14457348Y-8661442D01*
X14460152Y-8666946D01*
X14460771Y-8668161D01*
X14472803Y-8684721D01*
X14487279Y-8699197D01*
X14499052Y-8707751D01*
X14503839Y-8711229D01*
X14514742Y-8716784D01*
X14522078Y-8720522D01*
X14522078Y-8720522D01*
X14522078Y-8720522D01*
X14527886Y-8722409D01*
X14541546Y-8726848D01*
X14551656Y-8728449D01*
X14561765Y-8730050D01*
X14561765Y-8730050D01*
X14582235Y-8730050D01*
X14582235Y-8730050D01*
X14602453Y-8726848D01*
X14621922Y-8720522D01*
X14640161Y-8711229D01*
X14652288Y-8702418D01*
X14656721Y-8699197D01*
X14656721Y-8699197D01*
X14656722Y-8699197D01*
X14671197Y-8684722D01*
X14671197Y-8684722D01*
X14671197Y-8684721D01*
X14677202Y-8676456D01*
X14683229Y-8668161D01*
X14692522Y-8649922D01*
X14698848Y-8630453D01*
X14702050Y-8610235D01*
X14702050Y-8589765D01*
X14698848Y-8569547D01*
X14697090Y-8564137D01*
X14692522Y-8550078D01*
X14685211Y-8535729D01*
X14683229Y-8531839D01*
X14681775Y-8529839D01*
X14679427Y-8523258D01*
X14681010Y-8516453D01*
X14686020Y-8511583D01*
X14691807Y-8510150D01*
X14734675Y-8510150D01*
X14741379Y-8512119D01*
X14743443Y-8513782D01*
X14836895Y-8607234D01*
X14840243Y-8613366D01*
X14840526Y-8616002D01*
X14840526Y-8770431D01*
X14840896Y-8772286D01*
X14841803Y-8776850D01*
X14844371Y-8789760D01*
X14845546Y-8792597D01*
X14845906Y-8793465D01*
X14845906Y-8793465D01*
X14851913Y-8807967D01*
X14851914Y-8807969D01*
X14862862Y-8824355D01*
X14862862Y-8824355D01*
X14862863Y-8824355D01*
X14876798Y-8838290D01*
X14876798Y-8838290D01*
X14877505Y-8838997D01*
X14877505Y-8838997D01*
X14877505Y-8838997D01*
X14952286Y-8913778D01*
X14952286Y-8913778D01*
X14961056Y-8922548D01*
X14966222Y-8927714D01*
X14982608Y-8938663D01*
X14982609Y-8938664D01*
X14995483Y-8943996D01*
X14999774Y-8945774D01*
X15000816Y-8946205D01*
X15010481Y-8948128D01*
X15020146Y-8950050D01*
X15020146Y-8950050D01*
X15020911Y-8950050D01*
X15022026Y-8950256D01*
X15024173Y-8951341D01*
X15026481Y-8952019D01*
X15028108Y-8953330D01*
X15028262Y-8953408D01*
X15028313Y-8953495D01*
X15028545Y-8953682D01*
X15039134Y-8964271D01*
X15054067Y-8973481D01*
X15070720Y-8979000D01*
X15080999Y-8980050D01*
X15201001Y-8980050D01*
X15211069Y-8979021D01*
X15217938Y-8980298D01*
X15221097Y-8982589D01*
X15402423Y-9163916D01*
X15402426Y-9163919D01*
X15416671Y-9178164D01*
X15416672Y-9178164D01*
X15433058Y-9189113D01*
X15433058Y-9189113D01*
X15433059Y-9189113D01*
X15443043Y-9193249D01*
X15451266Y-9196655D01*
X15460931Y-9198578D01*
X15468407Y-9200065D01*
X15470596Y-9200500D01*
X15470596Y-9200500D01*
X15470596Y-9200500D01*
X15490304Y-9200500D01*
X15637302Y-9200500D01*
X15644006Y-9202469D01*
X15648582Y-9207749D01*
X15649327Y-9210463D01*
X15649412Y-9210443D01*
X15649591Y-9211198D01*
X15654620Y-9224683D01*
X15654621Y-9224684D01*
X15663245Y-9236204D01*
X15663245Y-9236205D01*
X15674766Y-9244829D01*
X15674767Y-9244830D01*
X15688252Y-9249859D01*
X15688252Y-9249859D01*
X15688944Y-9249934D01*
X15694213Y-9250500D01*
X15903787Y-9250500D01*
X15909748Y-9249859D01*
X15923233Y-9244830D01*
X15934755Y-9236205D01*
X15943380Y-9224683D01*
X15948409Y-9211198D01*
X15949050Y-9205237D01*
X15949050Y-8995663D01*
X15948409Y-8989702D01*
X15945756Y-8982589D01*
X15943380Y-8976217D01*
X15943380Y-8976217D01*
X15943379Y-8976217D01*
X15941257Y-8973381D01*
X15938815Y-8966835D01*
X15940300Y-8960008D01*
X15941257Y-8958519D01*
X15941378Y-8958357D01*
X15943380Y-8955683D01*
X15944126Y-8953682D01*
X15945481Y-8950050D01*
X15948409Y-8942198D01*
X15949050Y-8936237D01*
X15949050Y-8726664D01*
X17503150Y-8726664D01*
X17503150Y-8936237D01*
X17503150Y-8936238D01*
X17503791Y-8942198D01*
X17508820Y-8955683D01*
X17508821Y-8955683D01*
X17510943Y-8958519D01*
X17513385Y-8965066D01*
X17511900Y-8971893D01*
X17510943Y-8973381D01*
X17508821Y-8976217D01*
X17508820Y-8976217D01*
X17503791Y-8989702D01*
X17503150Y-8995662D01*
X17503150Y-8995662D01*
X17503150Y-8995664D01*
X17503150Y-9205237D01*
X17503150Y-9205238D01*
X17503791Y-9211198D01*
X17508820Y-9224683D01*
X17508821Y-9224684D01*
X17517445Y-9236204D01*
X17517446Y-9236205D01*
X17528966Y-9244829D01*
X17528967Y-9244830D01*
X17542452Y-9249859D01*
X17542452Y-9249859D01*
X17543144Y-9249934D01*
X17548413Y-9250500D01*
X17757987Y-9250500D01*
X17763948Y-9249859D01*
X17777433Y-9244830D01*
X17788955Y-9236205D01*
X17797580Y-9224683D01*
X17802609Y-9211198D01*
X17803250Y-9205237D01*
X17803250Y-8995663D01*
X17802609Y-8989702D01*
X17799956Y-8982589D01*
X17797580Y-8976217D01*
X17797580Y-8976217D01*
X17797579Y-8976217D01*
X17795457Y-8973381D01*
X17793015Y-8966835D01*
X17794500Y-8960008D01*
X17795457Y-8958519D01*
X17795578Y-8958357D01*
X17797580Y-8955683D01*
X17798326Y-8953682D01*
X17799681Y-8950050D01*
X17802609Y-8942198D01*
X17803250Y-8936237D01*
X17803250Y-8726663D01*
X17802609Y-8720702D01*
X17802452Y-8720280D01*
X17797580Y-8707217D01*
X17797580Y-8707217D01*
X17797579Y-8707216D01*
X17789760Y-8696772D01*
X17787319Y-8690226D01*
X17788804Y-8683398D01*
X17790919Y-8680573D01*
X17847810Y-8623682D01*
X17853942Y-8620333D01*
X17856578Y-8620050D01*
X18033422Y-8620050D01*
X18040126Y-8622019D01*
X18042190Y-8623682D01*
X18076318Y-8657810D01*
X18079667Y-8663943D01*
X18079950Y-8666578D01*
X18079950Y-8710000D01*
X18079950Y-8710002D01*
X18081000Y-8720280D01*
X18081000Y-8720280D01*
X18086119Y-8735729D01*
X18086519Y-8736933D01*
X18095016Y-8750711D01*
X18095729Y-8751866D01*
X18106318Y-8762455D01*
X18109667Y-8768587D01*
X18109950Y-8771223D01*
X18109950Y-9873422D01*
X18107982Y-9880126D01*
X18106318Y-9882190D01*
X17957559Y-10030949D01*
X17806222Y-10182286D01*
X17806222Y-10182286D01*
X17800558Y-10187950D01*
X17792286Y-10196222D01*
X17781337Y-10212608D01*
X17781337Y-10212609D01*
X17776004Y-10225484D01*
X17773795Y-10230815D01*
X17773795Y-10230817D01*
X17772992Y-10234854D01*
X17769950Y-10250146D01*
X17769950Y-10250146D01*
X17769950Y-11582854D01*
X17769950Y-11582854D01*
X17769950Y-11582854D01*
X17773795Y-11602183D01*
X17773795Y-11602184D01*
X17781336Y-11620391D01*
X17781337Y-11620392D01*
X17792286Y-11636778D01*
X17792286Y-11636778D01*
X17792286Y-11636778D01*
X17806222Y-11650714D01*
X17806222Y-11650714D01*
X17806929Y-11651421D01*
X17806929Y-11651421D01*
X17806929Y-11651421D01*
X18146318Y-11990810D01*
X18149667Y-11996942D01*
X18149950Y-11999578D01*
X18149950Y-12014810D01*
X18153645Y-12038137D01*
X18160943Y-12060600D01*
X18166655Y-12071810D01*
X18171666Y-12081643D01*
X18185548Y-12100751D01*
X18202249Y-12117452D01*
X18221357Y-12131334D01*
X18231299Y-12136400D01*
X18242400Y-12142057D01*
X18242401Y-12142057D01*
X18242401Y-12142057D01*
X18254441Y-12145969D01*
X18264863Y-12149355D01*
X18288190Y-12153050D01*
X18288191Y-12153050D01*
X18311810Y-12153050D01*
X18335137Y-12149355D01*
X18337827Y-12148481D01*
X18357599Y-12142057D01*
X18378643Y-12131334D01*
X18397751Y-12117452D01*
X18414452Y-12100751D01*
X18428334Y-12081643D01*
X18439057Y-12060599D01*
X18446355Y-12038137D01*
X18448056Y-12027400D01*
X18450050Y-12014810D01*
X18450050Y-11991190D01*
X18446355Y-11967863D01*
X18439073Y-11945452D01*
X18439057Y-11945401D01*
X18439057Y-11945400D01*
X18439057Y-11945400D01*
X18430573Y-11928751D01*
X18428334Y-11924357D01*
X18414452Y-11905249D01*
X18397751Y-11888548D01*
X18378643Y-11874666D01*
X18357600Y-11863943D01*
X18335137Y-11856645D01*
X18311810Y-11852950D01*
X18311809Y-11852950D01*
X18296578Y-11852950D01*
X18289874Y-11850981D01*
X18287810Y-11849318D01*
X17973682Y-11535190D01*
X17970333Y-11529057D01*
X17970050Y-11526422D01*
X17970050Y-10306578D01*
X17972019Y-10299874D01*
X17973681Y-10297811D01*
X18058302Y-10213190D01*
X18149950Y-10213190D01*
X18149950Y-10236810D01*
X18153645Y-10260137D01*
X18160943Y-10282600D01*
X18166242Y-10292998D01*
X18171666Y-10303643D01*
X18185548Y-10322751D01*
X18202249Y-10339452D01*
X18205713Y-10341968D01*
X18209979Y-10347501D01*
X18210577Y-10354463D01*
X18207317Y-10360642D01*
X18205713Y-10362032D01*
X18203937Y-10363322D01*
X18202249Y-10364548D01*
X18185549Y-10381249D01*
X18185549Y-10381249D01*
X18185548Y-10381249D01*
X18181980Y-10386161D01*
X18171666Y-10400357D01*
X18160943Y-10421400D01*
X18153645Y-10443863D01*
X18149950Y-10467190D01*
X18149950Y-10490810D01*
X18153645Y-10514137D01*
X18160943Y-10536600D01*
X18166242Y-10546998D01*
X18171666Y-10557643D01*
X18185548Y-10576751D01*
X18202249Y-10593452D01*
X18205713Y-10595968D01*
X18209979Y-10601501D01*
X18210577Y-10608463D01*
X18207317Y-10614642D01*
X18205713Y-10616032D01*
X18203937Y-10617322D01*
X18202249Y-10618548D01*
X18185549Y-10635249D01*
X18185549Y-10635249D01*
X18185548Y-10635249D01*
X18179586Y-10643455D01*
X18171666Y-10654357D01*
X18160943Y-10675400D01*
X18153645Y-10697863D01*
X18149950Y-10721190D01*
X18149950Y-10744810D01*
X18153645Y-10768137D01*
X18160943Y-10790600D01*
X18171666Y-10811643D01*
X18185548Y-10830751D01*
X18202249Y-10847452D01*
X18205713Y-10849968D01*
X18209979Y-10855501D01*
X18210577Y-10862463D01*
X18207317Y-10868642D01*
X18205713Y-10870032D01*
X18203937Y-10871322D01*
X18202249Y-10872548D01*
X18185549Y-10889249D01*
X18185549Y-10889249D01*
X18185548Y-10889249D01*
X18179586Y-10897455D01*
X18171666Y-10908357D01*
X18160943Y-10929400D01*
X18153645Y-10951863D01*
X18149950Y-10975190D01*
X18149950Y-10998810D01*
X18153645Y-11022137D01*
X18160943Y-11044600D01*
X18171666Y-11065643D01*
X18185548Y-11084751D01*
X18202249Y-11101452D01*
X18205713Y-11103968D01*
X18209979Y-11109501D01*
X18210577Y-11116463D01*
X18207317Y-11122642D01*
X18205713Y-11124032D01*
X18204186Y-11125141D01*
X18202249Y-11126548D01*
X18185549Y-11143249D01*
X18185549Y-11143249D01*
X18185548Y-11143249D01*
X18181980Y-11148161D01*
X18171666Y-11162357D01*
X18160943Y-11183400D01*
X18153645Y-11205863D01*
X18149950Y-11229190D01*
X18149950Y-11252810D01*
X18153645Y-11276137D01*
X18160943Y-11298600D01*
X18166242Y-11308998D01*
X18171666Y-11319643D01*
X18185548Y-11338751D01*
X18202249Y-11355452D01*
X18205713Y-11357968D01*
X18209979Y-11363501D01*
X18210577Y-11370463D01*
X18207317Y-11376642D01*
X18205713Y-11378031D01*
X18203937Y-11379322D01*
X18202249Y-11380548D01*
X18185549Y-11397249D01*
X18185549Y-11397249D01*
X18185548Y-11397249D01*
X18179586Y-11405455D01*
X18171666Y-11416357D01*
X18160943Y-11437400D01*
X18153645Y-11459863D01*
X18149950Y-11483190D01*
X18149950Y-11506810D01*
X18153645Y-11530137D01*
X18160943Y-11552600D01*
X18166242Y-11562998D01*
X18171666Y-11573643D01*
X18185548Y-11592751D01*
X18202249Y-11609452D01*
X18221357Y-11623334D01*
X18227568Y-11626499D01*
X18242400Y-11634057D01*
X18242401Y-11634057D01*
X18242401Y-11634057D01*
X18250776Y-11636778D01*
X18264863Y-11641355D01*
X18288190Y-11645050D01*
X18288191Y-11645050D01*
X18311810Y-11645050D01*
X18335137Y-11641355D01*
X18357599Y-11634057D01*
X18378643Y-11623334D01*
X18397751Y-11609452D01*
X18414452Y-11592751D01*
X18428334Y-11573643D01*
X18439057Y-11552599D01*
X18446355Y-11530137D01*
X18446944Y-11526422D01*
X18450050Y-11506810D01*
X18450050Y-11483190D01*
X18446355Y-11459863D01*
X18439073Y-11437452D01*
X18439057Y-11437401D01*
X18439057Y-11437400D01*
X18439057Y-11437400D01*
X18430573Y-11420751D01*
X18428334Y-11416357D01*
X18414452Y-11397249D01*
X18397751Y-11380548D01*
X18394287Y-11378032D01*
X18390021Y-11372499D01*
X18389423Y-11365537D01*
X18392683Y-11359358D01*
X18394287Y-11357968D01*
X18397751Y-11355452D01*
X18414452Y-11338751D01*
X18428334Y-11319643D01*
X18439057Y-11298599D01*
X18446355Y-11276137D01*
X18450050Y-11252810D01*
X18450050Y-11229190D01*
X18446355Y-11205863D01*
X18439073Y-11183452D01*
X18439057Y-11183401D01*
X18439057Y-11183401D01*
X18439057Y-11183400D01*
X18430573Y-11166751D01*
X18428334Y-11162357D01*
X18414452Y-11143249D01*
X18397751Y-11126548D01*
X18394287Y-11124032D01*
X18390021Y-11118499D01*
X18389423Y-11111538D01*
X18392683Y-11105358D01*
X18394287Y-11103968D01*
X18397751Y-11101452D01*
X18414452Y-11084751D01*
X18428334Y-11065643D01*
X18439057Y-11044599D01*
X18446355Y-11022137D01*
X18447023Y-11017922D01*
X18450050Y-10998810D01*
X18450050Y-10975190D01*
X18446355Y-10951863D01*
X18439073Y-10929452D01*
X18439057Y-10929401D01*
X18439057Y-10929401D01*
X18439057Y-10929400D01*
X18430573Y-10912751D01*
X18428334Y-10908357D01*
X18414452Y-10889249D01*
X18397751Y-10872548D01*
X18394287Y-10870032D01*
X18390021Y-10864499D01*
X18389423Y-10857538D01*
X18392683Y-10851358D01*
X18394287Y-10849968D01*
X18397751Y-10847452D01*
X18414452Y-10830751D01*
X18428334Y-10811643D01*
X18439057Y-10790599D01*
X18446355Y-10768137D01*
X18446364Y-10768079D01*
X18450050Y-10744810D01*
X18450050Y-10721190D01*
X18446355Y-10697863D01*
X18440136Y-10678722D01*
X18439057Y-10675401D01*
X18439057Y-10675401D01*
X18439057Y-10675400D01*
X18430573Y-10658751D01*
X18428334Y-10654357D01*
X18414452Y-10635249D01*
X18397751Y-10618548D01*
X18394287Y-10616032D01*
X18390021Y-10610499D01*
X18389423Y-10603538D01*
X18392683Y-10597358D01*
X18394287Y-10595968D01*
X18397751Y-10593452D01*
X18414452Y-10576751D01*
X18428334Y-10557643D01*
X18439057Y-10536599D01*
X18446355Y-10514137D01*
X18447151Y-10509113D01*
X18450050Y-10490810D01*
X18450050Y-10467190D01*
X18446355Y-10443863D01*
X18439073Y-10421452D01*
X18439057Y-10421401D01*
X18439057Y-10421401D01*
X18439057Y-10421400D01*
X18430573Y-10404751D01*
X18428334Y-10400357D01*
X18414452Y-10381249D01*
X18397751Y-10364548D01*
X18394287Y-10362032D01*
X18390021Y-10356499D01*
X18389423Y-10349538D01*
X18392683Y-10343358D01*
X18394287Y-10341968D01*
X18397751Y-10339452D01*
X18414452Y-10322751D01*
X18428334Y-10303643D01*
X18439057Y-10282599D01*
X18446355Y-10260137D01*
X18450050Y-10236810D01*
X18450050Y-10213190D01*
X18446355Y-10189863D01*
X18439073Y-10167452D01*
X18439057Y-10167401D01*
X18439057Y-10167401D01*
X18439057Y-10167400D01*
X18430573Y-10150751D01*
X18428334Y-10146357D01*
X18414452Y-10127249D01*
X18397751Y-10110548D01*
X18378643Y-10096666D01*
X18377043Y-10095850D01*
X18357600Y-10085943D01*
X18335137Y-10078645D01*
X18311810Y-10074950D01*
X18311809Y-10074950D01*
X18288191Y-10074950D01*
X18288190Y-10074950D01*
X18264863Y-10078645D01*
X18242400Y-10085943D01*
X18221357Y-10096666D01*
X18210455Y-10104586D01*
X18202249Y-10110548D01*
X18202249Y-10110549D01*
X18202249Y-10110549D01*
X18185549Y-10127249D01*
X18185549Y-10127249D01*
X18185548Y-10127249D01*
X18179586Y-10135455D01*
X18171666Y-10146357D01*
X18160943Y-10167400D01*
X18153645Y-10189863D01*
X18149950Y-10213190D01*
X18058302Y-10213190D01*
X18273778Y-9997714D01*
X18273778Y-9997714D01*
X18287714Y-9983778D01*
X18298663Y-9967391D01*
X18306205Y-9949184D01*
X18309109Y-9934587D01*
X18310050Y-9929854D01*
X18310050Y-8771223D01*
X18312019Y-8764519D01*
X18313682Y-8762455D01*
X18314800Y-8761337D01*
X18324271Y-8751866D01*
X18333481Y-8736933D01*
X18339000Y-8720280D01*
X18340050Y-8710001D01*
X18340050Y-8589999D01*
X18339000Y-8579720D01*
X18333481Y-8563067D01*
X18324271Y-8548134D01*
X18311866Y-8535729D01*
X18296933Y-8526519D01*
X18280280Y-8521000D01*
X18280280Y-8521000D01*
X18270002Y-8519950D01*
X18270001Y-8519950D01*
X18226578Y-8519950D01*
X18219874Y-8517982D01*
X18217810Y-8516318D01*
X18158421Y-8456929D01*
X18158421Y-8456929D01*
X18158421Y-8456929D01*
X18157714Y-8456222D01*
X18157714Y-8456222D01*
X18143778Y-8442286D01*
X18143778Y-8442286D01*
X18143778Y-8442286D01*
X18127392Y-8431337D01*
X18127391Y-8431336D01*
X18113134Y-8425431D01*
X18113133Y-8425431D01*
X18112214Y-8425050D01*
X18109184Y-8423795D01*
X18090839Y-8420146D01*
X18090621Y-8420103D01*
X18090619Y-8420102D01*
X18089854Y-8419950D01*
X18089854Y-8419950D01*
X17800146Y-8419950D01*
X17800146Y-8419950D01*
X17799381Y-8420102D01*
X17799377Y-8420103D01*
X17799161Y-8420146D01*
X17780816Y-8423795D01*
X17777786Y-8425050D01*
X17776867Y-8425431D01*
X17776866Y-8425431D01*
X17762609Y-8431337D01*
X17762608Y-8431337D01*
X17746222Y-8442286D01*
X17739254Y-8449254D01*
X17732286Y-8456222D01*
X17732286Y-8456222D01*
X17589422Y-8599086D01*
X17589422Y-8599086D01*
X17582454Y-8606054D01*
X17575486Y-8613022D01*
X17564537Y-8629408D01*
X17564536Y-8629409D01*
X17556995Y-8647616D01*
X17556995Y-8647617D01*
X17553150Y-8666946D01*
X17553150Y-8669752D01*
X17551182Y-8676456D01*
X17545901Y-8681032D01*
X17543187Y-8681777D01*
X17543207Y-8681862D01*
X17542452Y-8682041D01*
X17528967Y-8687070D01*
X17528966Y-8687071D01*
X17517446Y-8695695D01*
X17517445Y-8695696D01*
X17508821Y-8707216D01*
X17508820Y-8707217D01*
X17503791Y-8720702D01*
X17503166Y-8726518D01*
X17503150Y-8726662D01*
X17503150Y-8726664D01*
X15949050Y-8726664D01*
X15949050Y-8726663D01*
X15948409Y-8720702D01*
X15948252Y-8720280D01*
X15943380Y-8707217D01*
X15943379Y-8707216D01*
X15934755Y-8695696D01*
X15934754Y-8695695D01*
X15923233Y-8687071D01*
X15923233Y-8687070D01*
X15909748Y-8682041D01*
X15909748Y-8682041D01*
X15903788Y-8681400D01*
X15903788Y-8681400D01*
X15903787Y-8681400D01*
X15903786Y-8681400D01*
X15694213Y-8681400D01*
X15694212Y-8681400D01*
X15688252Y-8682041D01*
X15674767Y-8687070D01*
X15674766Y-8687071D01*
X15663245Y-8695695D01*
X15663245Y-8695696D01*
X15654621Y-8707216D01*
X15654620Y-8707217D01*
X15649591Y-8720702D01*
X15648965Y-8726518D01*
X15648950Y-8726662D01*
X15648950Y-8726664D01*
X15648950Y-8936237D01*
X15648950Y-8936238D01*
X15649591Y-8942198D01*
X15654620Y-8955683D01*
X15654620Y-8955683D01*
X15656743Y-8958519D01*
X15659185Y-8965066D01*
X15658202Y-8970863D01*
X15657621Y-8972208D01*
X15654620Y-8976217D01*
X15649591Y-8989702D01*
X15649431Y-8991190D01*
X15648688Y-8992913D01*
X15647605Y-8994216D01*
X15646957Y-8995781D01*
X15645420Y-8996848D01*
X15644224Y-8998288D01*
X15642609Y-8998799D01*
X15641218Y-8999766D01*
X15637819Y-9000316D01*
X15637563Y-9000397D01*
X15637472Y-9000373D01*
X15637302Y-9000400D01*
X15527028Y-9000400D01*
X15520324Y-8998432D01*
X15518260Y-8996768D01*
X15308148Y-8786656D01*
X15308146Y-8786654D01*
X15293778Y-8772286D01*
X15293778Y-8772286D01*
X15277392Y-8761337D01*
X15277391Y-8761337D01*
X15269068Y-8757889D01*
X15264516Y-8756004D01*
X15263799Y-8755707D01*
X15262322Y-8755095D01*
X15256881Y-8750711D01*
X15256513Y-8750148D01*
X15255271Y-8748134D01*
X15242866Y-8735729D01*
X15228467Y-8726848D01*
X15227934Y-8726519D01*
X15227933Y-8726519D01*
X15227933Y-8726519D01*
X15227933Y-8726518D01*
X15223524Y-8725057D01*
X15222518Y-8724361D01*
X15221326Y-8724084D01*
X15219699Y-8722409D01*
X15217779Y-8721080D01*
X15217309Y-8719950D01*
X15216457Y-8719073D01*
X15215993Y-8716784D01*
X15215097Y-8714628D01*
X15215313Y-8713424D01*
X15215070Y-8712225D01*
X15215917Y-8710049D01*
X15216329Y-8707751D01*
X15217224Y-8706694D01*
X15217605Y-8705714D01*
X15220136Y-8703255D01*
X15221288Y-8702418D01*
X15227869Y-8700070D01*
X15228576Y-8700050D01*
X15299854Y-8700050D01*
X15302957Y-8699433D01*
X15309519Y-8698128D01*
X15319184Y-8696205D01*
X15324516Y-8693996D01*
X15337391Y-8688663D01*
X15353778Y-8677714D01*
X15367714Y-8663778D01*
X15367714Y-8663778D01*
X15368421Y-8663071D01*
X15368421Y-8663071D01*
X15523778Y-8507714D01*
X15523778Y-8507714D01*
X15537714Y-8493778D01*
X15548663Y-8477391D01*
X15556205Y-8459184D01*
X15557961Y-8450357D01*
X15560050Y-8439854D01*
X15560050Y-8106578D01*
X15562018Y-8099874D01*
X15563682Y-8097810D01*
X15589171Y-8072321D01*
X15627782Y-8033710D01*
X15633914Y-8030361D01*
X15640883Y-8030860D01*
X15646477Y-8035047D01*
X15648918Y-8041593D01*
X15648950Y-8042478D01*
X15648950Y-8174237D01*
X15648950Y-8174238D01*
X15649591Y-8180198D01*
X15654620Y-8193683D01*
X15654621Y-8193683D01*
X15663245Y-8205204D01*
X15663245Y-8205205D01*
X15674766Y-8213829D01*
X15674767Y-8213830D01*
X15688252Y-8218859D01*
X15688252Y-8218859D01*
X15688944Y-8218933D01*
X15694213Y-8219500D01*
X15903787Y-8219500D01*
X15909748Y-8218859D01*
X15923233Y-8213830D01*
X15934755Y-8205205D01*
X15943380Y-8193683D01*
X15948409Y-8180198D01*
X15949050Y-8174237D01*
X15949050Y-7964663D01*
X15948409Y-7958702D01*
X15947047Y-7955050D01*
X15943380Y-7945217D01*
X15943380Y-7945217D01*
X15941257Y-7942381D01*
X15938815Y-7935835D01*
X15940300Y-7929008D01*
X15941257Y-7927519D01*
X15942954Y-7925252D01*
X15943380Y-7924683D01*
X15948409Y-7911198D01*
X15949050Y-7905237D01*
X15949050Y-7757871D01*
X18094950Y-7757871D01*
X18094950Y-7782129D01*
X18098116Y-7806178D01*
X18104395Y-7829610D01*
X18113624Y-7851892D01*
X18113678Y-7852021D01*
X18125806Y-7873029D01*
X18125807Y-7873029D01*
X18125807Y-7873029D01*
X18140573Y-7892274D01*
X18140574Y-7892274D01*
X18157726Y-7909426D01*
X18157726Y-7909427D01*
X18160124Y-7911266D01*
X18176971Y-7924194D01*
X18197979Y-7936322D01*
X18220390Y-7945605D01*
X18243821Y-7951884D01*
X18261859Y-7954258D01*
X18267871Y-7955050D01*
X18267871Y-7955050D01*
X18292129Y-7955050D01*
X18296939Y-7954417D01*
X18316179Y-7951884D01*
X18339610Y-7945605D01*
X18362021Y-7936322D01*
X18383029Y-7924194D01*
X18402274Y-7909426D01*
X18419427Y-7892274D01*
X18434194Y-7873029D01*
X18446322Y-7852021D01*
X18455605Y-7829610D01*
X18461884Y-7806179D01*
X18465050Y-7782129D01*
X18465050Y-7757871D01*
X18461884Y-7733821D01*
X18455605Y-7710390D01*
X18446322Y-7687979D01*
X18434194Y-7666971D01*
X18419427Y-7647726D01*
X18419426Y-7647726D01*
X18402274Y-7630574D01*
X18402274Y-7630573D01*
X18383029Y-7615807D01*
X18383029Y-7615807D01*
X18383029Y-7615806D01*
X18362021Y-7603678D01*
X18362021Y-7603677D01*
X18339610Y-7594395D01*
X18316179Y-7588116D01*
X18292129Y-7584950D01*
X18292129Y-7584950D01*
X18267871Y-7584950D01*
X18267871Y-7584950D01*
X18243821Y-7588116D01*
X18220390Y-7594395D01*
X18197979Y-7603677D01*
X18197979Y-7603678D01*
X18176971Y-7615807D01*
X18157726Y-7630573D01*
X18157726Y-7630574D01*
X18140574Y-7647726D01*
X18140573Y-7647726D01*
X18125807Y-7666971D01*
X18113678Y-7687978D01*
X18113677Y-7687979D01*
X18104395Y-7710389D01*
X18098116Y-7733821D01*
X18094950Y-7757871D01*
X15949050Y-7757871D01*
X15949050Y-7695663D01*
X15948409Y-7689702D01*
X15947767Y-7687979D01*
X15943380Y-7676217D01*
X15943379Y-7676216D01*
X15934755Y-7664695D01*
X15934754Y-7664695D01*
X15923233Y-7656071D01*
X15923233Y-7656070D01*
X15909748Y-7651041D01*
X15909748Y-7651041D01*
X15903788Y-7650400D01*
X15903788Y-7650400D01*
X15903787Y-7650400D01*
X15903786Y-7650400D01*
X15694213Y-7650400D01*
X15694212Y-7650400D01*
X15688252Y-7651041D01*
X15674767Y-7656070D01*
X15674766Y-7656071D01*
X15663245Y-7664695D01*
X15663245Y-7664695D01*
X15654621Y-7676216D01*
X15654620Y-7676217D01*
X15649591Y-7689702D01*
X15648950Y-7695662D01*
X15648950Y-7695662D01*
X15648950Y-7695663D01*
X15648950Y-7724422D01*
X15646981Y-7731125D01*
X15645318Y-7733190D01*
X15396222Y-7982286D01*
X15396222Y-7982286D01*
X15392645Y-7985863D01*
X15382286Y-7996222D01*
X15371337Y-8012608D01*
X15371336Y-8012609D01*
X15368536Y-8019369D01*
X15368535Y-8019372D01*
X15368409Y-8019678D01*
X15363795Y-8030816D01*
X15363051Y-8034554D01*
X15362879Y-8035422D01*
X15362879Y-8035422D01*
X15359950Y-8050146D01*
X15359950Y-8383422D01*
X15357981Y-8390126D01*
X15356318Y-8392190D01*
X15252190Y-8496318D01*
X15249497Y-8497788D01*
X15246915Y-8499448D01*
X15246295Y-8499537D01*
X15246058Y-8499667D01*
X15243422Y-8499950D01*
X15228576Y-8499950D01*
X15221872Y-8497982D01*
X15221288Y-8497582D01*
X15209161Y-8488772D01*
X15209161Y-8488771D01*
X15209161Y-8488771D01*
X15203465Y-8485869D01*
X15190922Y-8479478D01*
X15171453Y-8473152D01*
X15156648Y-8470807D01*
X15150335Y-8467814D01*
X15149820Y-8467328D01*
X14927613Y-8245121D01*
X14924265Y-8238989D01*
X14924763Y-8232020D01*
X14928950Y-8226426D01*
X14930751Y-8225305D01*
X14934382Y-8223455D01*
X14951579Y-8210960D01*
X14966610Y-8195929D01*
X14978568Y-8179470D01*
X14984101Y-8175204D01*
X14991062Y-8174606D01*
X14997242Y-8177867D01*
X14998631Y-8179470D01*
X15006245Y-8189950D01*
X15010590Y-8195929D01*
X15025621Y-8210961D01*
X15042818Y-8223455D01*
X15042818Y-8223455D01*
X15042818Y-8223455D01*
X15061759Y-8233106D01*
X15081976Y-8239675D01*
X15102971Y-8243000D01*
X15102971Y-8243000D01*
X15124229Y-8243000D01*
X15124229Y-8243000D01*
X15145224Y-8239675D01*
X15165441Y-8233106D01*
X15184382Y-8223455D01*
X15189825Y-8219500D01*
X15201579Y-8210961D01*
X15201579Y-8210961D01*
X15201579Y-8210960D01*
X15216610Y-8195929D01*
X15216611Y-8195929D01*
X15216611Y-8195929D01*
X15229105Y-8178732D01*
X15229105Y-8178732D01*
X15229105Y-8178732D01*
X15238756Y-8159791D01*
X15245325Y-8139574D01*
X15248650Y-8118579D01*
X15248650Y-8072321D01*
X15245325Y-8051326D01*
X15238756Y-8031109D01*
X15229105Y-8012168D01*
X15229105Y-8012168D01*
X15229105Y-8012168D01*
X15216611Y-7994971D01*
X15201579Y-7979939D01*
X15184382Y-7967445D01*
X15165441Y-7957794D01*
X15165441Y-7957794D01*
X15165441Y-7957794D01*
X15145224Y-7951225D01*
X15145224Y-7951225D01*
X15145224Y-7951225D01*
X15129096Y-7948671D01*
X15124229Y-7947900D01*
X15102971Y-7947900D01*
X15098104Y-7948671D01*
X15081976Y-7951225D01*
X15061758Y-7957794D01*
X15042818Y-7967445D01*
X15025621Y-7979939D01*
X15010589Y-7994971D01*
X15010589Y-7994971D01*
X14998632Y-8011429D01*
X14993099Y-8015696D01*
X14986137Y-8016294D01*
X14979958Y-8013033D01*
X14978568Y-8011429D01*
X14966611Y-7994971D01*
X14966610Y-7994971D01*
X14951579Y-7979939D01*
X14934382Y-7967445D01*
X14915441Y-7957794D01*
X14915441Y-7957794D01*
X14915441Y-7957794D01*
X14895224Y-7951225D01*
X14895224Y-7951225D01*
X14895224Y-7951225D01*
X14879096Y-7948671D01*
X14874229Y-7947900D01*
X14852971Y-7947900D01*
X14848104Y-7948671D01*
X14831976Y-7951225D01*
X14811758Y-7957794D01*
X14792818Y-7967445D01*
X14775621Y-7979939D01*
X14760589Y-7994971D01*
X14760589Y-7994971D01*
X14748632Y-8011429D01*
X14743099Y-8015696D01*
X14736137Y-8016294D01*
X14729958Y-8013033D01*
X14728568Y-8011429D01*
X14716611Y-7994971D01*
X14716610Y-7994971D01*
X14701579Y-7979939D01*
X14684382Y-7967445D01*
X14665441Y-7957794D01*
X14665441Y-7957794D01*
X14665441Y-7957794D01*
X14645224Y-7951225D01*
X14645224Y-7951225D01*
X14645224Y-7951225D01*
X14629096Y-7948671D01*
X14624229Y-7947900D01*
X14602971Y-7947900D01*
X14598104Y-7948671D01*
X14581976Y-7951225D01*
X14561758Y-7957794D01*
X14542818Y-7967445D01*
X14525621Y-7979939D01*
X14510589Y-7994971D01*
X14510589Y-7994971D01*
X14498632Y-8011429D01*
X14493099Y-8015696D01*
X14486137Y-8016294D01*
X14479958Y-8013033D01*
X14478568Y-8011429D01*
X14466611Y-7994971D01*
X14466610Y-7994971D01*
X14451579Y-7979939D01*
X14434382Y-7967445D01*
X14415441Y-7957794D01*
X14415441Y-7957794D01*
X14415441Y-7957794D01*
X14395224Y-7951225D01*
X14395224Y-7951225D01*
X14395224Y-7951225D01*
X14379096Y-7948671D01*
X14374229Y-7947900D01*
X14352971Y-7947900D01*
X14348104Y-7948671D01*
X14331976Y-7951225D01*
X14311758Y-7957794D01*
X14292818Y-7967445D01*
X14275621Y-7979939D01*
X14260589Y-7994971D01*
X14260589Y-7994971D01*
X14248632Y-8011429D01*
X14243099Y-8015696D01*
X14236137Y-8016294D01*
X14229958Y-8013033D01*
X14228568Y-8011429D01*
X14216611Y-7994971D01*
X14216610Y-7994971D01*
X14201579Y-7979939D01*
X14184382Y-7967445D01*
X14165441Y-7957794D01*
X14165441Y-7957794D01*
X14165441Y-7957794D01*
X14145224Y-7951225D01*
X14145224Y-7951225D01*
X14145224Y-7951225D01*
X14129096Y-7948671D01*
X14124229Y-7947900D01*
X14102971Y-7947900D01*
X14098104Y-7948671D01*
X14081976Y-7951225D01*
X14061758Y-7957794D01*
X14042818Y-7967445D01*
X14025621Y-7979939D01*
X14011740Y-7993821D01*
X14005607Y-7997169D01*
X13998638Y-7996671D01*
X13993045Y-7992483D01*
X13992418Y-7991562D01*
X13982871Y-7976084D01*
X13970465Y-7963679D01*
X13969540Y-7963108D01*
X13964868Y-7957913D01*
X13963650Y-7952554D01*
X13963650Y-7930596D01*
X13963650Y-7930596D01*
X13961423Y-7919400D01*
X13959805Y-7911266D01*
X13955200Y-7900150D01*
X13952263Y-7893059D01*
X13952001Y-7892666D01*
X13941314Y-7876672D01*
X13927069Y-7862426D01*
X13927065Y-7862423D01*
X13635860Y-7571218D01*
X13632512Y-7565086D01*
X13633010Y-7558117D01*
X13637197Y-7552523D01*
X13643744Y-7550082D01*
X13644628Y-7550050D01*
X18487550Y-7550050D01*
X18494254Y-7552018D01*
X18498829Y-7557299D01*
X18499950Y-7562450D01*
X18499950Y-13437550D01*
X18497982Y-13444254D01*
X18492701Y-13448829D01*
X18487550Y-13449950D01*
X10612450Y-13449950D01*
X10605746Y-13447981D01*
X10601171Y-13442701D01*
X10600050Y-13437550D01*
X10600050Y-13217871D01*
X10634950Y-13217871D01*
X10634950Y-13242129D01*
X10638116Y-13266178D01*
X10644395Y-13289610D01*
X10653677Y-13312020D01*
X10653678Y-13312021D01*
X10665806Y-13333029D01*
X10665807Y-13333029D01*
X10665807Y-13333029D01*
X10680573Y-13352274D01*
X10680574Y-13352274D01*
X10697726Y-13369426D01*
X10697726Y-13369426D01*
X10716971Y-13384194D01*
X10737979Y-13396322D01*
X10760390Y-13405605D01*
X10783821Y-13411884D01*
X10801859Y-13414258D01*
X10807871Y-13415050D01*
X10807871Y-13415050D01*
X10832129Y-13415050D01*
X10836939Y-13414417D01*
X10856179Y-13411884D01*
X10879610Y-13405605D01*
X10902021Y-13396322D01*
X10923029Y-13384194D01*
X10942274Y-13369426D01*
X10959427Y-13352274D01*
X10974194Y-13333029D01*
X10986322Y-13312021D01*
X10995605Y-13289610D01*
X11001884Y-13266179D01*
X11005050Y-13242129D01*
X11005050Y-13217871D01*
X11005050Y-13217871D01*
X18094950Y-13217871D01*
X18094950Y-13242129D01*
X18098116Y-13266178D01*
X18104395Y-13289610D01*
X18113677Y-13312020D01*
X18113678Y-13312021D01*
X18125806Y-13333029D01*
X18125807Y-13333029D01*
X18125807Y-13333029D01*
X18140573Y-13352274D01*
X18140574Y-13352274D01*
X18157726Y-13369426D01*
X18157726Y-13369426D01*
X18176971Y-13384194D01*
X18197979Y-13396322D01*
X18220390Y-13405605D01*
X18243821Y-13411884D01*
X18261859Y-13414258D01*
X18267871Y-13415050D01*
X18267871Y-13415050D01*
X18292129Y-13415050D01*
X18296939Y-13414417D01*
X18316179Y-13411884D01*
X18339610Y-13405605D01*
X18362021Y-13396322D01*
X18383029Y-13384194D01*
X18402274Y-13369426D01*
X18419427Y-13352274D01*
X18434194Y-13333029D01*
X18446322Y-13312021D01*
X18455605Y-13289610D01*
X18461884Y-13266179D01*
X18465050Y-13242129D01*
X18465050Y-13217871D01*
X18461884Y-13193821D01*
X18455605Y-13170390D01*
X18446322Y-13147979D01*
X18434194Y-13126971D01*
X18427049Y-13117660D01*
X18419427Y-13107726D01*
X18419426Y-13107726D01*
X18402274Y-13090574D01*
X18402274Y-13090573D01*
X18383029Y-13075807D01*
X18383029Y-13075807D01*
X18383029Y-13075806D01*
X18362021Y-13063678D01*
X18362021Y-13063677D01*
X18339610Y-13054395D01*
X18316179Y-13048116D01*
X18292129Y-13044950D01*
X18292129Y-13044950D01*
X18267871Y-13044950D01*
X18267871Y-13044950D01*
X18243821Y-13048116D01*
X18220390Y-13054395D01*
X18197979Y-13063677D01*
X18197979Y-13063678D01*
X18176971Y-13075807D01*
X18157726Y-13090573D01*
X18157726Y-13090574D01*
X18140574Y-13107726D01*
X18140573Y-13107726D01*
X18125807Y-13126971D01*
X18113678Y-13147978D01*
X18113677Y-13147979D01*
X18104395Y-13170389D01*
X18098116Y-13193821D01*
X18094950Y-13217871D01*
X11005050Y-13217871D01*
X11001884Y-13193821D01*
X10995605Y-13170390D01*
X10986322Y-13147979D01*
X10974194Y-13126971D01*
X10967049Y-13117660D01*
X10959427Y-13107726D01*
X10959426Y-13107726D01*
X10942274Y-13090574D01*
X10942274Y-13090573D01*
X10931877Y-13082596D01*
X10923029Y-13075806D01*
X10904684Y-13065215D01*
X13396050Y-13065215D01*
X13396050Y-13085685D01*
X13399252Y-13105903D01*
X13405578Y-13125372D01*
X13407319Y-13128788D01*
X13412413Y-13138787D01*
X13414871Y-13143611D01*
X13426903Y-13160171D01*
X13441379Y-13174647D01*
X13455949Y-13185233D01*
X13457939Y-13186679D01*
X13469561Y-13192600D01*
X13476178Y-13195972D01*
X13476178Y-13195972D01*
X13476178Y-13195972D01*
X13486614Y-13199363D01*
X13495646Y-13202298D01*
X13505756Y-13203899D01*
X13515865Y-13205500D01*
X13515865Y-13205500D01*
X13536335Y-13205500D01*
X13536335Y-13205500D01*
X13556553Y-13202298D01*
X13576022Y-13195972D01*
X13594261Y-13186679D01*
X13605684Y-13178380D01*
X13610821Y-13174647D01*
X13610821Y-13174647D01*
X13610822Y-13174647D01*
X13625297Y-13160172D01*
X13625297Y-13160171D01*
X13625297Y-13160171D01*
X13634155Y-13147979D01*
X13637329Y-13143611D01*
X13646622Y-13125372D01*
X13646757Y-13124957D01*
X13650700Y-13119190D01*
X13657135Y-13116469D01*
X13664020Y-13117660D01*
X13669168Y-13122384D01*
X13670950Y-13128788D01*
X13670950Y-13165787D01*
X13670950Y-13165788D01*
X13671591Y-13171748D01*
X13676620Y-13185233D01*
X13676621Y-13185233D01*
X13685245Y-13196754D01*
X13685245Y-13196755D01*
X13696766Y-13205379D01*
X13696767Y-13205380D01*
X13710252Y-13210409D01*
X13710252Y-13210409D01*
X13710944Y-13210483D01*
X13716213Y-13211050D01*
X13895787Y-13211050D01*
X13901748Y-13210409D01*
X13913980Y-13205847D01*
X13915233Y-13205380D01*
X13915233Y-13205380D01*
X13915233Y-13205380D01*
X13926755Y-13196755D01*
X13935380Y-13185233D01*
X13940409Y-13171748D01*
X13941050Y-13165787D01*
X13941050Y-12986213D01*
X13940409Y-12980252D01*
X13938918Y-12976253D01*
X13935380Y-12966767D01*
X13935380Y-12966767D01*
X13927553Y-12956312D01*
X13926755Y-12955245D01*
X13926754Y-12955245D01*
X13926754Y-12955245D01*
X13918697Y-12949213D01*
X15419950Y-12949213D01*
X15419950Y-13138787D01*
X15419950Y-13138788D01*
X15420591Y-13144748D01*
X15425620Y-13158233D01*
X15425621Y-13158233D01*
X15434245Y-13169754D01*
X15434245Y-13169755D01*
X15445766Y-13178379D01*
X15445767Y-13178380D01*
X15459252Y-13183409D01*
X15459252Y-13183409D01*
X15459944Y-13183483D01*
X15465213Y-13184050D01*
X15654787Y-13184050D01*
X15660748Y-13183409D01*
X15674233Y-13178380D01*
X15685755Y-13169755D01*
X15694380Y-13158233D01*
X15699409Y-13144748D01*
X15700050Y-13138787D01*
X15700050Y-12949213D01*
X15699409Y-12943252D01*
X15698790Y-12941591D01*
X15694380Y-12929767D01*
X15694379Y-12929766D01*
X15685755Y-12918245D01*
X15685754Y-12918245D01*
X15674233Y-12909621D01*
X15674233Y-12909620D01*
X15660748Y-12904591D01*
X15660748Y-12904591D01*
X15654788Y-12903950D01*
X15654788Y-12903950D01*
X15654787Y-12903950D01*
X15654786Y-12903950D01*
X15465213Y-12903950D01*
X15465212Y-12903950D01*
X15459252Y-12904591D01*
X15445767Y-12909620D01*
X15445766Y-12909621D01*
X15434245Y-12918245D01*
X15434245Y-12918245D01*
X15425621Y-12929766D01*
X15425620Y-12929767D01*
X15420591Y-12943252D01*
X15420016Y-12948602D01*
X15419950Y-12949212D01*
X15419950Y-12949213D01*
X13918697Y-12949213D01*
X13915233Y-12946621D01*
X13915233Y-12946620D01*
X13901748Y-12941591D01*
X13901748Y-12941591D01*
X13895788Y-12940950D01*
X13895788Y-12940950D01*
X13895787Y-12940950D01*
X13895786Y-12940950D01*
X13716213Y-12940950D01*
X13716212Y-12940950D01*
X13710252Y-12941591D01*
X13696767Y-12946620D01*
X13696766Y-12946621D01*
X13685245Y-12955245D01*
X13685245Y-12955245D01*
X13676621Y-12966766D01*
X13676620Y-12966767D01*
X13671591Y-12980252D01*
X13670950Y-12986212D01*
X13670950Y-12986212D01*
X13670950Y-12986213D01*
X13670950Y-13022112D01*
X13668981Y-13028815D01*
X13663701Y-13033391D01*
X13656785Y-13034385D01*
X13650430Y-13031483D01*
X13646757Y-13025943D01*
X13646622Y-13025528D01*
X13637329Y-13007289D01*
X13636556Y-13006225D01*
X13625297Y-12990729D01*
X13610821Y-12976253D01*
X13594261Y-12964221D01*
X13594261Y-12964221D01*
X13594261Y-12964221D01*
X13588565Y-12961319D01*
X13576022Y-12954928D01*
X13556553Y-12948602D01*
X13539099Y-12945838D01*
X13536335Y-12945400D01*
X13515865Y-12945400D01*
X13513433Y-12945785D01*
X13495646Y-12948602D01*
X13476178Y-12954928D01*
X13457939Y-12964221D01*
X13441379Y-12976253D01*
X13426903Y-12990729D01*
X13414871Y-13007289D01*
X13405578Y-13025528D01*
X13399252Y-13044996D01*
X13396050Y-13065215D01*
X10904684Y-13065215D01*
X10902021Y-13063678D01*
X10902021Y-13063677D01*
X10879610Y-13054395D01*
X10856179Y-13048116D01*
X10832129Y-13044950D01*
X10832129Y-13044950D01*
X10807871Y-13044950D01*
X10807871Y-13044950D01*
X10783821Y-13048116D01*
X10760390Y-13054395D01*
X10737979Y-13063677D01*
X10737979Y-13063678D01*
X10716971Y-13075807D01*
X10697726Y-13090573D01*
X10697726Y-13090574D01*
X10680574Y-13107726D01*
X10680573Y-13107726D01*
X10665807Y-13126971D01*
X10653678Y-13147978D01*
X10653677Y-13147979D01*
X10644395Y-13170389D01*
X10638116Y-13193821D01*
X10634950Y-13217871D01*
X10600050Y-13217871D01*
X10600050Y-12169765D01*
X10710950Y-12169765D01*
X10710950Y-12190235D01*
X10714152Y-12210453D01*
X10720478Y-12229922D01*
X10729772Y-12248161D01*
X10741803Y-12264721D01*
X10756279Y-12279197D01*
X10771775Y-12290456D01*
X10772839Y-12291229D01*
X10784461Y-12297150D01*
X10791078Y-12300522D01*
X10791078Y-12300522D01*
X10791078Y-12300522D01*
X10801361Y-12303863D01*
X10810547Y-12306848D01*
X10820656Y-12308449D01*
X10830765Y-12310050D01*
X10830765Y-12310050D01*
X10851235Y-12310050D01*
X10851235Y-12310050D01*
X10871453Y-12306848D01*
X10890922Y-12300522D01*
X10909161Y-12291229D01*
X10922688Y-12281401D01*
X10925721Y-12279197D01*
X10925722Y-12279197D01*
X10925722Y-12279197D01*
X10940197Y-12264722D01*
X10940197Y-12264721D01*
X10940197Y-12264721D01*
X10946243Y-12256400D01*
X10952229Y-12248161D01*
X10961522Y-12229922D01*
X10967848Y-12210453D01*
X10971050Y-12190235D01*
X10971050Y-12169765D01*
X10968719Y-12155050D01*
X10967848Y-12149546D01*
X10964305Y-12138643D01*
X10961522Y-12130078D01*
X10961522Y-12130078D01*
X10961522Y-12130078D01*
X10956457Y-12120137D01*
X10952229Y-12111839D01*
X10945843Y-12103050D01*
X10940197Y-12095279D01*
X10925721Y-12080803D01*
X10909161Y-12068771D01*
X10909161Y-12068771D01*
X10909161Y-12068771D01*
X10901646Y-12064942D01*
X10890922Y-12059478D01*
X10871453Y-12053152D01*
X10854000Y-12050388D01*
X10851235Y-12049950D01*
X10830765Y-12049950D01*
X10828333Y-12050335D01*
X10810547Y-12053152D01*
X10791078Y-12059478D01*
X10772839Y-12068771D01*
X10756279Y-12080803D01*
X10741803Y-12095279D01*
X10729772Y-12111839D01*
X10720478Y-12130078D01*
X10714152Y-12149546D01*
X10710950Y-12169765D01*
X10600050Y-12169765D01*
X10600050Y-11407765D01*
X10710950Y-11407765D01*
X10710950Y-11428235D01*
X10714152Y-11448453D01*
X10720478Y-11467922D01*
X10729772Y-11486161D01*
X10741803Y-11502721D01*
X10756279Y-11517197D01*
X10771775Y-11528456D01*
X10772839Y-11529229D01*
X10784461Y-11535150D01*
X10791078Y-11538522D01*
X10791078Y-11538522D01*
X10791078Y-11538522D01*
X10801191Y-11541808D01*
X10810547Y-11544848D01*
X10817514Y-11545951D01*
X10830765Y-11548050D01*
X10830765Y-11548050D01*
X10851235Y-11548050D01*
X10851235Y-11548050D01*
X10871453Y-11544848D01*
X10890922Y-11538522D01*
X10909161Y-11529229D01*
X10920210Y-11521201D01*
X10925721Y-11517197D01*
X10925722Y-11517197D01*
X10925722Y-11517197D01*
X10940197Y-11502722D01*
X10940197Y-11502721D01*
X10940197Y-11502721D01*
X10945473Y-11495459D01*
X10952229Y-11486161D01*
X10961522Y-11467922D01*
X10967848Y-11448453D01*
X10971050Y-11428235D01*
X10971050Y-11407765D01*
X10967848Y-11387547D01*
X10965574Y-11380548D01*
X10962958Y-11372499D01*
X10961522Y-11368078D01*
X10961522Y-11368078D01*
X10961522Y-11368078D01*
X10955088Y-11355451D01*
X10952229Y-11349839D01*
X10951456Y-11348775D01*
X10940197Y-11333279D01*
X10925721Y-11318803D01*
X10909161Y-11306771D01*
X10909161Y-11306771D01*
X10909161Y-11306771D01*
X10903465Y-11303869D01*
X10890922Y-11297478D01*
X10871453Y-11291152D01*
X10854000Y-11288388D01*
X10851235Y-11287950D01*
X10830765Y-11287950D01*
X10828333Y-11288335D01*
X10810547Y-11291152D01*
X10791078Y-11297478D01*
X10772839Y-11306771D01*
X10756279Y-11318803D01*
X10741803Y-11333279D01*
X10729772Y-11349839D01*
X10720478Y-11368078D01*
X10714152Y-11387546D01*
X10710950Y-11407765D01*
X10600050Y-11407765D01*
X10600050Y-11069765D01*
X10710950Y-11069765D01*
X10710950Y-11090235D01*
X10714152Y-11110453D01*
X10720478Y-11129922D01*
X10726869Y-11142465D01*
X10729508Y-11147643D01*
X10729772Y-11148161D01*
X10741803Y-11164721D01*
X10756279Y-11179197D01*
X10771775Y-11190456D01*
X10772839Y-11191229D01*
X10782203Y-11196000D01*
X10791078Y-11200522D01*
X10791078Y-11200522D01*
X10791078Y-11200522D01*
X10801514Y-11203913D01*
X10810547Y-11206848D01*
X10820656Y-11208449D01*
X10830765Y-11210050D01*
X10830765Y-11210050D01*
X10851235Y-11210050D01*
X10851235Y-11210050D01*
X10871453Y-11206848D01*
X10890922Y-11200522D01*
X10909161Y-11191229D01*
X10918459Y-11184473D01*
X10925721Y-11179197D01*
X10925722Y-11179197D01*
X10925722Y-11179197D01*
X10940197Y-11164722D01*
X10940197Y-11164722D01*
X10940197Y-11164721D01*
X10945473Y-11157459D01*
X10952229Y-11148161D01*
X10961522Y-11129922D01*
X10967848Y-11110453D01*
X10971050Y-11090235D01*
X10971050Y-11069765D01*
X10969904Y-11062531D01*
X10967848Y-11049547D01*
X10963527Y-11036249D01*
X10961522Y-11030078D01*
X10961522Y-11030078D01*
X10961522Y-11030078D01*
X10955328Y-11017922D01*
X10952229Y-11011839D01*
X10951456Y-11010775D01*
X10940197Y-10995279D01*
X10925721Y-10980803D01*
X10909161Y-10968772D01*
X10909161Y-10968771D01*
X10909161Y-10968771D01*
X10903465Y-10965869D01*
X10890922Y-10959478D01*
X10871453Y-10953152D01*
X10854000Y-10950388D01*
X10851235Y-10949950D01*
X10830765Y-10949950D01*
X10828333Y-10950335D01*
X10810547Y-10953152D01*
X10791078Y-10959478D01*
X10772839Y-10968772D01*
X10756279Y-10980803D01*
X10741803Y-10995279D01*
X10729772Y-11011839D01*
X10720478Y-11030078D01*
X10714152Y-11049547D01*
X10710950Y-11069765D01*
X10600050Y-11069765D01*
X10600050Y-10307765D01*
X10710950Y-10307765D01*
X10710950Y-10328235D01*
X10714152Y-10348453D01*
X10720478Y-10367922D01*
X10726869Y-10380465D01*
X10729508Y-10385643D01*
X10729772Y-10386161D01*
X10741803Y-10402721D01*
X10756279Y-10417197D01*
X10771775Y-10428456D01*
X10772839Y-10429229D01*
X10782203Y-10434000D01*
X10791078Y-10438522D01*
X10791078Y-10438522D01*
X10791078Y-10438522D01*
X10801514Y-10441913D01*
X10810547Y-10444848D01*
X10820656Y-10446449D01*
X10830765Y-10448050D01*
X10830765Y-10448050D01*
X10851235Y-10448050D01*
X10851235Y-10448050D01*
X10871453Y-10444848D01*
X10890922Y-10438522D01*
X10909161Y-10429229D01*
X10918459Y-10422473D01*
X10925721Y-10417197D01*
X10925722Y-10417197D01*
X10925722Y-10417197D01*
X10940197Y-10402722D01*
X10940197Y-10402722D01*
X10940197Y-10402721D01*
X10945473Y-10395459D01*
X10952229Y-10386161D01*
X10961522Y-10367922D01*
X10967848Y-10348453D01*
X10971050Y-10328235D01*
X10971050Y-10307765D01*
X10969473Y-10297810D01*
X10967848Y-10287547D01*
X10964742Y-10277988D01*
X10961522Y-10268078D01*
X10961522Y-10268078D01*
X10961522Y-10268078D01*
X10957476Y-10260137D01*
X10952229Y-10249839D01*
X10951456Y-10248775D01*
X10940197Y-10233279D01*
X10925721Y-10218803D01*
X10909161Y-10206772D01*
X10909161Y-10206771D01*
X10909161Y-10206771D01*
X10903465Y-10203869D01*
X10890922Y-10197478D01*
X10871453Y-10191152D01*
X10854000Y-10188388D01*
X10851235Y-10187950D01*
X10830765Y-10187950D01*
X10828333Y-10188335D01*
X10810547Y-10191152D01*
X10791078Y-10197478D01*
X10772839Y-10206772D01*
X10756279Y-10218803D01*
X10741803Y-10233279D01*
X10729772Y-10249839D01*
X10720478Y-10268078D01*
X10714152Y-10287547D01*
X10710950Y-10307765D01*
X10600050Y-10307765D01*
X10600050Y-7562450D01*
X10602019Y-7555746D01*
X10607299Y-7551171D01*
X10612450Y-7550050D01*
X11288722Y-7550050D01*
X11295426Y-7552018D01*
G37*
%TD.AperFunction*%
%TD*%
D26*
X10550000Y-7500000D02*
X18550000Y-7500000D01*
X18550000Y-13500000D01*
X10550000Y-13500000D01*
X10550000Y-7500000D01*
M02*
