M48
; DRILL file {KiCad 9.0.2} date 2025-07-11T23:39:44+0700
; FORMAT={-:-/ absolute / metric / decimal}
; #@! TF.CreationDate,2025-07-11T23:39:44+07:00
; #@! TF.GenerationSoftware,Kicad,Pcbnew,9.0.2
; #@! TF.FileFunction,MixedPlating,1,2
FMAT,2
METRIC
; #@! TA.AperFunction,Plated,PTH,ViaDrill
T1C0.300
; #@! TA.AperFunction,Plated,PTH,ComponentDrill
T2C0.800
; #@! TA.AperFunction,Plated,PTH,ComponentDrill
T3C0.900
; #@! TA.AperFunction,Plated,PTH,ComponentDrill
T4C0.950
; #@! TA.AperFunction,Plated,PTH,ComponentDrill
T5C1.000
; #@! TA.AperFunction,NonPlated,NPTH,ComponentDrill
T6C3.200
%
G90
G05
T1
X144.149Y-130.175
X144.149Y-133.175
T2
X111.149Y-106.675
X111.149Y-114.295
X111.149Y-117.675
X111.149Y-125.295
X137.899Y-97.245
X137.899Y-99.745
X137.899Y-131.675
X137.899Y-134.175
X140.779Y-88.675
X140.779Y-93.175
X148.399Y-88.675
X148.399Y-93.175
X154.149Y-89.495
X154.149Y-91.995
X158.149Y-123.745
X158.149Y-126.245
X159.649Y-113.175
X159.649Y-120.795
X184.899Y-86.451
X184.899Y-88.951
T3
X158.149Y-129.975
X158.149Y-132.516
T4
X142.649Y-81.995
X145.149Y-81.995
X147.649Y-81.995
X150.149Y-81.995
X152.649Y-81.995
X155.149Y-81.995
T5
X117.409Y-83.706
X117.409Y-86.245
X117.409Y-88.785
X117.409Y-91.325
X117.409Y-93.865
X117.409Y-96.405
X117.409Y-98.945
X117.409Y-101.486
X117.409Y-104.025
X117.409Y-106.566
X117.409Y-109.105
X117.409Y-111.645
X117.409Y-114.185
X117.409Y-116.725
X117.409Y-119.265
X117.409Y-121.805
X117.409Y-124.346
X117.409Y-126.885
X117.409Y-129.425
X117.409Y-131.965
X132.649Y-83.706
X132.649Y-86.245
X132.649Y-88.785
X132.649Y-91.325
X132.649Y-93.865
X132.649Y-96.405
X132.649Y-98.945
X132.649Y-101.486
X132.649Y-104.025
X132.649Y-106.566
X132.649Y-109.105
X132.649Y-111.645
X132.649Y-114.185
X132.649Y-116.725
X132.649Y-119.265
X132.649Y-121.805
X132.649Y-124.346
X132.649Y-126.885
X132.649Y-129.425
X132.649Y-131.965
X140.649Y-97.245
X140.649Y-99.785
X140.649Y-102.325
X140.649Y-104.865
X140.649Y-107.405
X140.649Y-109.945
X140.649Y-112.486
X140.649Y-115.025
X140.649Y-117.566
X140.649Y-120.105
X140.799Y-124.096
X140.799Y-126.635
X140.799Y-129.175
X140.799Y-131.715
X140.799Y-134.255
X161.107Y-81.245
X161.107Y-84.745
X161.107Y-90.745
X161.107Y-94.245
X162.899Y-105.745
X162.899Y-108.285
X162.899Y-110.825
X162.899Y-113.365
X162.899Y-115.905
X162.899Y-118.445
X162.899Y-120.985
X162.899Y-123.525
X179.649Y-81.245
X179.649Y-84.745
X179.649Y-90.745
X179.649Y-94.245
X185.759Y-105.745
X185.759Y-108.285
X185.759Y-110.825
X185.759Y-113.365
X185.759Y-115.905
X185.759Y-118.445
X185.759Y-120.985
X185.759Y-123.525
T6
X110.899Y-80.995
X110.899Y-135.495
X185.399Y-80.995
X185.399Y-135.495
M30
