M48
; DRILL file {KiCad 9.0.3} date 2025-07-17T22:22:10+0700
; FORMAT={-:-/ absolute / metric / decimal}
; #@! TF.CreationDate,2025-07-17T22:22:10+07:00
; #@! TF.GenerationSoftware,Kicad,Pcbnew,9.0.3
; #@! TF.FileFunction,MixedPlating,1,2
FMAT,2
METRIC
; #@! TA.AperFunction,Plated,PTH,ViaDrill
T1C0.300
; #@! TA.AperFunction,Plated,PTH,ComponentDrill
T2C0.800
; #@! TA.AperFunction,Plated,PTH,ComponentDrill
T3C0.900
; #@! TA.AperFunction,Plated,PTH,ComponentDrill
T4C0.950
; #@! TA.AperFunction,Plated,PTH,ComponentDrill
T5C1.000
; #@! TA.AperFunction,Plated,PTH,ComponentDrill
T6C1.100
; #@! TA.AperFunction,NonPlated,NPTH,ComponentDrill
T7C3.200
%
G90
G05
T1
X120.0Y-132.682
X120.001Y-131.881
T2
X108.261Y-91.504
X108.261Y-94.044
X108.261Y-96.584
X108.41Y-103.18
X108.41Y-110.8
X108.41Y-114.18
X108.41Y-121.8
X135.261Y-125.754
X135.261Y-130.755
X135.286Y-93.804
X135.286Y-98.804
X138.04Y-85.18
X138.04Y-89.68
X145.66Y-85.18
X145.66Y-89.68
X151.41Y-86.0
X151.41Y-88.5
X155.41Y-120.25
X155.41Y-122.75
X156.91Y-109.68
X156.91Y-117.3
X181.782Y-83.21
X181.782Y-85.71
T3
X155.41Y-126.48
X155.41Y-129.02
T4
X138.611Y-79.379
X141.111Y-79.379
X143.611Y-79.379
X146.111Y-79.379
X148.611Y-79.379
X151.111Y-79.379
T5
X114.67Y-80.21
X114.67Y-82.75
X114.67Y-85.29
X114.67Y-87.83
X114.67Y-90.37
X114.67Y-92.91
X114.67Y-95.45
X114.67Y-97.99
X114.67Y-100.53
X114.67Y-103.07
X114.67Y-105.61
X114.67Y-108.15
X114.67Y-110.69
X114.67Y-113.23
X114.67Y-115.77
X114.67Y-118.31
X114.67Y-120.85
X114.67Y-123.39
X114.67Y-125.93
X114.67Y-128.47
X129.91Y-80.21
X129.91Y-82.75
X129.91Y-85.29
X129.91Y-87.83
X129.91Y-90.37
X129.91Y-92.91
X129.91Y-95.45
X129.91Y-97.99
X129.91Y-100.53
X129.91Y-103.07
X129.91Y-105.61
X129.91Y-108.15
X129.91Y-110.69
X129.91Y-113.23
X129.91Y-115.77
X129.91Y-118.31
X129.91Y-120.85
X129.91Y-123.39
X129.91Y-125.93
X129.91Y-128.47
X138.056Y-93.914
X138.056Y-96.454
X138.056Y-98.995
X138.056Y-101.534
X138.056Y-104.075
X138.056Y-106.614
X138.056Y-109.154
X138.056Y-111.694
X138.056Y-114.234
X138.056Y-116.774
X138.06Y-120.6
X138.06Y-123.14
X138.06Y-125.68
X138.06Y-128.22
X138.06Y-130.76
X157.99Y-78.004
X157.99Y-80.948
X157.99Y-88.06
X157.99Y-91.004
X160.14Y-102.25
X160.14Y-104.79
X160.14Y-107.33
X160.14Y-109.87
X160.14Y-112.41
X160.14Y-114.95
X160.14Y-117.49
X160.14Y-120.03
X176.532Y-78.004
X176.532Y-80.948
X176.532Y-88.06
X176.532Y-91.004
X183.0Y-102.25
X183.0Y-104.79
X183.0Y-107.33
X183.0Y-109.87
X183.0Y-112.41
X183.0Y-114.95
X183.0Y-117.49
X183.0Y-120.03
T6
X156.761Y-96.5
X156.761Y-104.12
T7
X108.2Y-77.7
X108.2Y-132.3
X182.8Y-77.7
X182.8Y-132.3
M30
