%TF.GenerationSoftware,KiCad,Pcbnew,9.0.3*%
%TF.CreationDate,2025-07-12T12:33:21+07:00*%
%TF.ProjectId,CFBoard,4346426f-6172-4642-9e6b-696361645f70,rev?*%
%TF.SameCoordinates,Original*%
%TF.FileFunction,Soldermask,Bot*%
%TF.FilePolarity,Negative*%
%FSLAX45Y45*%
G04 Gerber Fmt 4.5, Leading zero omitted, Abs format (unit mm)*
G04 Created by KiCad (PCBNEW 9.0.3) date 2025-07-12 12:33:21*
%MOMM*%
%LPD*%
G01*
G04 APERTURE LIST*
G04 Aperture macros list*
%AMRoundRect*
0 Rectangle with rounded corners*
0 $1 Rounding radius*
0 $2 $3 $4 $5 $6 $7 $8 $9 X,Y pos of 4 corners*
0 Add a 4 corners polygon primitive as box body*
4,1,4,$2,$3,$4,$5,$6,$7,$8,$9,$2,$3,0*
0 Add four circle primitives for the rounded corners*
1,1,$1+$1,$2,$3*
1,1,$1+$1,$4,$5*
1,1,$1+$1,$6,$7*
1,1,$1+$1,$8,$9*
0 Add four rect primitives between the rounded corners*
20,1,$1+$1,$2,$3,$4,$5,0*
20,1,$1+$1,$4,$5,$6,$7,0*
20,1,$1+$1,$6,$7,$8,$9,0*
20,1,$1+$1,$8,$9,$2,$3,0*%
G04 Aperture macros list end*
%ADD10C,3.200000*%
%ADD11RoundRect,0.250000X-0.600000X-0.725000X0.600000X-0.725000X0.600000X0.725000X-0.600000X0.725000X0*%
%ADD12O,1.700000X1.950000*%
%ADD13C,1.600000*%
%ADD14RoundRect,0.249999X0.850001X-0.850001X0.850001X0.850001X-0.850001X0.850001X-0.850001X-0.850001X0*%
%ADD15C,2.200000*%
%ADD16R,2.000000X2.000000*%
%ADD17R,1.700000X1.700000*%
%ADD18C,1.700000*%
%ADD19RoundRect,0.250000X-0.550000X0.550000X-0.550000X-0.550000X0.550000X-0.550000X0.550000X0.550000X0*%
%ADD20RoundRect,0.250000X0.550000X-0.550000X0.550000X0.550000X-0.550000X0.550000X-0.550000X-0.550000X0*%
%ADD21R,1.800000X1.800000*%
%ADD22C,1.800000*%
%ADD23R,1.500000X1.500000*%
%TA.AperFunction,Profile*%
%ADD24C,0.300000*%
%TD*%
G04 APERTURE END LIST*
D10*
%TO.C,REF\u002A\u002A*%
X11089900Y-13549550D03*
%TD*%
D11*
%TO.C,CONN1*%
X14264900Y-8199550D03*
D12*
X14514900Y-8199550D03*
X14764900Y-8199550D03*
X15014900Y-8199550D03*
X15264900Y-8199550D03*
X15514900Y-8199550D03*
%TD*%
D13*
%TO.C,C4*%
X13789900Y-9724550D03*
X13789900Y-9974550D03*
%TD*%
D14*
%TO.C,D1*%
X15950000Y-10712000D03*
D15*
X15950000Y-9950000D03*
%TD*%
D13*
%TO.C,R4*%
X15964900Y-11317550D03*
X15964900Y-12079550D03*
%TD*%
D10*
%TO.C,REF\u002A\u002A*%
X18539900Y-8099550D03*
%TD*%
D13*
%TO.C,R1*%
X14839900Y-8867550D03*
X14077900Y-8867550D03*
%TD*%
%TO.C,R2*%
X11114900Y-10667550D03*
X11114900Y-11429550D03*
%TD*%
D16*
%TO.C,REG1*%
X16110700Y-9074550D03*
X16110700Y-9424550D03*
X16110700Y-8124550D03*
X16110700Y-8474550D03*
X17964900Y-9074550D03*
X17964900Y-9424550D03*
X17964900Y-8124550D03*
X17964900Y-8474550D03*
%TD*%
D17*
%TO.C,U4*%
X14079900Y-13425550D03*
D18*
X14079900Y-13171550D03*
X14079900Y-12917550D03*
X14079900Y-12663550D03*
X14079900Y-12409550D03*
%TD*%
D19*
%TO.C,C3*%
X15814900Y-12374550D03*
D13*
X15814900Y-12624550D03*
%TD*%
D10*
%TO.C,REF\u002A\u002A*%
X11089900Y-8099550D03*
%TD*%
D17*
%TO.C,U1*%
X11740900Y-8370550D03*
D18*
X11740900Y-8624550D03*
X11740900Y-8878550D03*
X11740900Y-9132550D03*
X11740900Y-9386550D03*
X11740900Y-9640550D03*
X11740900Y-9894550D03*
X11740900Y-10148550D03*
X11740900Y-10402550D03*
X11740900Y-10656550D03*
X11740900Y-10910550D03*
X11740900Y-11164550D03*
X11740900Y-11418550D03*
X11740900Y-11672550D03*
X11740900Y-11926550D03*
X11740900Y-12180550D03*
X11740900Y-12434550D03*
X11740900Y-12688550D03*
X11740900Y-12942550D03*
X11740900Y-13196550D03*
X13264900Y-13196550D03*
X13264900Y-12942550D03*
X13264900Y-12688550D03*
X13264900Y-12434550D03*
X13264900Y-12180550D03*
X13264900Y-11926550D03*
X13264900Y-11672550D03*
X13264900Y-11418550D03*
X13264900Y-11164550D03*
X13264900Y-10910550D03*
X13264900Y-10656550D03*
X13264900Y-10402550D03*
X13264900Y-10148550D03*
X13264900Y-9894550D03*
X13264900Y-9640550D03*
X13264900Y-9386550D03*
X13264900Y-9132550D03*
X13264900Y-8878550D03*
X13264900Y-8624550D03*
X13264900Y-8370550D03*
%TD*%
D20*
%TO.C,C2*%
X18489900Y-8895061D03*
D13*
X18489900Y-8645061D03*
%TD*%
D20*
%TO.C,C1*%
X15414900Y-9199550D03*
D13*
X15414900Y-8949550D03*
%TD*%
%TO.C,R3*%
X11114900Y-11767550D03*
X11114900Y-12529550D03*
%TD*%
D21*
%TO.C,D2*%
X15814900Y-13251550D03*
D22*
X15814900Y-12997550D03*
%TD*%
D18*
%TO.C,U2*%
X18575900Y-12352550D03*
X18575900Y-12098550D03*
X18575900Y-11844550D03*
X18575900Y-11590550D03*
X18575900Y-11336550D03*
X18575900Y-11082550D03*
X18575900Y-10828550D03*
X18575900Y-10574550D03*
X16289900Y-10574550D03*
X16289900Y-10828550D03*
X16289900Y-11082550D03*
X16289900Y-11336550D03*
X16289900Y-11590550D03*
X16289900Y-11844550D03*
X16289900Y-12098550D03*
X16289900Y-12352550D03*
%TD*%
D13*
%TO.C,R5*%
X14839900Y-9317550D03*
X14077900Y-9317550D03*
%TD*%
%TO.C,C5*%
X13789900Y-13167550D03*
X13789900Y-13417550D03*
%TD*%
D23*
%TO.C,SW1*%
X11100000Y-9754000D03*
D13*
X11100000Y-10008000D03*
X11100000Y-9500000D03*
%TD*%
D17*
%TO.C,U3*%
X14064900Y-9724550D03*
D18*
X14064900Y-9978550D03*
X14064900Y-10232550D03*
X14064900Y-10486550D03*
X14064900Y-10740550D03*
X14064900Y-10994550D03*
X14064900Y-11248550D03*
X14064900Y-11502550D03*
X14064900Y-11756550D03*
X14064900Y-12010550D03*
%TD*%
D10*
%TO.C,REF\u002A\u002A*%
X18539900Y-13549550D03*
%TD*%
D24*
X10814900Y-7824550D02*
X18814900Y-7824550D01*
X18814900Y-13824550D01*
X10814900Y-13824550D01*
X10814900Y-7824550D01*
M02*
