%TF.GenerationSoftware,KiCad,Pcbnew,9.0.2*%
%TF.CreationDate,2025-07-11T23:39:46+07:00*%
%TF.ProjectId,CFBoard,4346426f-6172-4642-9e6b-696361645f70,rev?*%
%TF.SameCoordinates,Original*%
%TF.FileFunction,Soldermask,Bot*%
%TF.FilePolarity,Negative*%
%FSLAX45Y45*%
G04 Gerber Fmt 4.5, Leading zero omitted, Abs format (unit mm)*
G04 Created by KiCad (PCBNEW 9.0.2) date 2025-07-11 23:39:46*
%MOMM*%
%LPD*%
G01*
G04 APERTURE LIST*
G04 Aperture macros list*
%AMRoundRect*
0 Rectangle with rounded corners*
0 $1 Rounding radius*
0 $2 $3 $4 $5 $6 $7 $8 $9 X,Y pos of 4 corners*
0 Add a 4 corners polygon primitive as box body*
4,1,4,$2,$3,$4,$5,$6,$7,$8,$9,$2,$3,0*
0 Add four circle primitives for the rounded corners*
1,1,$1+$1,$2,$3*
1,1,$1+$1,$4,$5*
1,1,$1+$1,$6,$7*
1,1,$1+$1,$8,$9*
0 Add four rect primitives between the rounded corners*
20,1,$1+$1,$2,$3,$4,$5,0*
20,1,$1+$1,$4,$5,$6,$7,0*
20,1,$1+$1,$6,$7,$8,$9,0*
20,1,$1+$1,$8,$9,$2,$3,0*%
G04 Aperture macros list end*
%ADD10O,1.700000X1.950000*%
%ADD11RoundRect,0.250000X-0.600000X-0.725000X0.600000X-0.725000X0.600000X0.725000X-0.600000X0.725000X0*%
%ADD12C,3.200000*%
%ADD13C,1.600000*%
%ADD14R,2.000000X2.000000*%
%ADD15R,1.700000X1.700000*%
%ADD16C,1.700000*%
%ADD17RoundRect,0.250000X-0.550000X0.550000X-0.550000X-0.550000X0.550000X-0.550000X0.550000X0.550000X0*%
%ADD18RoundRect,0.250000X0.550000X-0.550000X0.550000X0.550000X-0.550000X0.550000X-0.550000X-0.550000X0*%
%ADD19R,1.800000X1.800000*%
%ADD20C,1.800000*%
%TA.AperFunction,ComponentPad*%
%ADD21O,1.700000X1.950000*%
%TD*%
%TA.AperFunction,ComponentPad*%
%ADD22RoundRect,0.250000X-0.600000X-0.725000X0.600000X-0.725000X0.600000X0.725000X-0.600000X0.725000X0*%
%TD*%
%TA.AperFunction,ComponentPad*%
%ADD23C,1.600000*%
%TD*%
%TA.AperFunction,ComponentPad*%
%ADD24R,2.000000X2.000000*%
%TD*%
%TA.AperFunction,ComponentPad*%
%ADD25R,1.700000X1.700000*%
%TD*%
%TA.AperFunction,ComponentPad*%
%ADD26C,1.700000*%
%TD*%
%TA.AperFunction,ComponentPad*%
%ADD27RoundRect,0.250000X-0.550000X0.550000X-0.550000X-0.550000X0.550000X-0.550000X0.550000X0.550000X0*%
%TD*%
%TA.AperFunction,ComponentPad*%
%ADD28RoundRect,0.250000X0.550000X-0.550000X0.550000X0.550000X-0.550000X0.550000X-0.550000X-0.550000X0*%
%TD*%
%TA.AperFunction,ComponentPad*%
%ADD29R,1.800000X1.800000*%
%TD*%
%TA.AperFunction,ComponentPad*%
%ADD30C,1.800000*%
%TD*%
%TA.AperFunction,ViaPad*%
%ADD31C,0.600000*%
%TD*%
%TA.AperFunction,Conductor*%
%ADD32C,0.500000*%
%TD*%
%TA.AperFunction,Conductor*%
%ADD33C,0.400000*%
%TD*%
%TA.AperFunction,Conductor*%
%ADD34C,0.200000*%
%TD*%
%ADD35C,0.150000*%
%ADD36C,0.100000*%
%ADD37C,0.120000*%
%TA.AperFunction,Profile*%
%ADD38C,0.300000*%
%TD*%
G04 APERTURE END LIST*
D10*
%TO.C,CONN1*%
X15514900Y-8199550D03*
X15264900Y-8199550D03*
X15014900Y-8199550D03*
X14764900Y-8199550D03*
X14514900Y-8199550D03*
D11*
X14264900Y-8199550D03*
%TD*%
D12*
%TO.C,REF\u002A\u002A*%
X11089900Y-13549550D03*
%TD*%
D13*
%TO.C,C4*%
X13789900Y-9724550D03*
X13789900Y-9974550D03*
%TD*%
%TO.C,R4*%
X15964900Y-11317550D03*
X15964900Y-12079550D03*
%TD*%
D12*
%TO.C,REF\u002A\u002A*%
X18539900Y-8099550D03*
%TD*%
D13*
%TO.C,R1*%
X14839900Y-8867550D03*
X14077900Y-8867550D03*
%TD*%
%TO.C,R2*%
X11114900Y-10667550D03*
X11114900Y-11429550D03*
%TD*%
D14*
%TO.C,REG1*%
X16110700Y-9074550D03*
X16110700Y-9424550D03*
X16110700Y-8124550D03*
X16110700Y-8474550D03*
X17964900Y-9074550D03*
X17964900Y-9424550D03*
X17964900Y-8124550D03*
X17964900Y-8474550D03*
%TD*%
D15*
%TO.C,U4*%
X14079900Y-13425550D03*
D16*
X14079900Y-13171550D03*
X14079900Y-12917550D03*
X14079900Y-12663550D03*
X14079900Y-12409550D03*
%TD*%
D17*
%TO.C,C3*%
X15814900Y-12374550D03*
D13*
X15814900Y-12624550D03*
%TD*%
D12*
%TO.C,REF\u002A\u002A*%
X11089900Y-8099550D03*
%TD*%
D15*
%TO.C,U1*%
X11740900Y-8370550D03*
D16*
X11740900Y-8624550D03*
X11740900Y-8878550D03*
X11740900Y-9132550D03*
X11740900Y-9386550D03*
X11740900Y-9640550D03*
X11740900Y-9894550D03*
X11740900Y-10148550D03*
X11740900Y-10402550D03*
X11740900Y-10656550D03*
X11740900Y-10910550D03*
X11740900Y-11164550D03*
X11740900Y-11418550D03*
X11740900Y-11672550D03*
X11740900Y-11926550D03*
X11740900Y-12180550D03*
X11740900Y-12434550D03*
X11740900Y-12688550D03*
X11740900Y-12942550D03*
X11740900Y-13196550D03*
X13264900Y-13196550D03*
X13264900Y-12942550D03*
X13264900Y-12688550D03*
X13264900Y-12434550D03*
X13264900Y-12180550D03*
X13264900Y-11926550D03*
X13264900Y-11672550D03*
X13264900Y-11418550D03*
X13264900Y-11164550D03*
X13264900Y-10910550D03*
X13264900Y-10656550D03*
X13264900Y-10402550D03*
X13264900Y-10148550D03*
X13264900Y-9894550D03*
X13264900Y-9640550D03*
X13264900Y-9386550D03*
X13264900Y-9132550D03*
X13264900Y-8878550D03*
X13264900Y-8624550D03*
X13264900Y-8370550D03*
%TD*%
D18*
%TO.C,C2*%
X18489900Y-8895061D03*
D13*
X18489900Y-8645061D03*
%TD*%
D18*
%TO.C,C1*%
X15414900Y-9199550D03*
D13*
X15414900Y-8949550D03*
%TD*%
%TO.C,R3*%
X11114900Y-11767550D03*
X11114900Y-12529550D03*
%TD*%
D19*
%TO.C,D2*%
X15814900Y-13251550D03*
D20*
X15814900Y-12997550D03*
%TD*%
D16*
%TO.C,U2*%
X18575900Y-12352550D03*
X18575900Y-12098550D03*
X18575900Y-11844550D03*
X18575900Y-11590550D03*
X18575900Y-11336550D03*
X18575900Y-11082550D03*
X18575900Y-10828550D03*
X18575900Y-10574550D03*
X16289900Y-10574550D03*
X16289900Y-10828550D03*
X16289900Y-11082550D03*
X16289900Y-11336550D03*
X16289900Y-11590550D03*
X16289900Y-11844550D03*
X16289900Y-12098550D03*
X16289900Y-12352550D03*
%TD*%
D13*
%TO.C,R5*%
X14839900Y-9317550D03*
X14077900Y-9317550D03*
%TD*%
%TO.C,C5*%
X13789900Y-13167550D03*
X13789900Y-13417550D03*
%TD*%
D15*
%TO.C,U3*%
X14064900Y-9724550D03*
D16*
X14064900Y-9978550D03*
X14064900Y-10232550D03*
X14064900Y-10486550D03*
X14064900Y-10740550D03*
X14064900Y-10994550D03*
X14064900Y-11248550D03*
X14064900Y-11502550D03*
X14064900Y-11756550D03*
X14064900Y-12010550D03*
%TD*%
D12*
%TO.C,REF\u002A\u002A*%
X18539900Y-13549550D03*
%TD*%
D21*
%TO.P,CONN1,6,Signal_4*%
%TO.N,Net-(CONN1-Signal_4)*%
X15514900Y-8199550D03*
%TO.P,CONN1,5,Signal_3*%
%TO.N,Net-(CONN1-Signal_3)*%
X15264900Y-8199550D03*
%TO.P,CONN1,4,Signal_2*%
%TO.N,Net-(CONN1-Signal_2)*%
X15014900Y-8199550D03*
%TO.P,CONN1,3,Signal_1*%
%TO.N,Net-(CONN1-Signal_1)*%
X14764900Y-8199550D03*
%TO.P,CONN1,2,GND*%
%TO.N,Net-(CONN1-GND)*%
X14514900Y-8199550D03*
D22*
%TO.P,CONN1,1,VIN*%
%TO.N,Net-(CONN1-VIN)*%
X14264900Y-8199550D03*
%TD*%
D23*
%TO.P,C4,1*%
%TO.N,Net-(U2-3.3V)*%
X13789900Y-9724550D03*
%TO.P,C4,2*%
%TO.N,Net-(D2-A)*%
X13789900Y-9974550D03*
%TD*%
%TO.P,R4,1*%
%TO.N,Net-(D2-K)*%
X15964900Y-11317550D03*
%TO.P,R4,2*%
%TO.N,Net-(U2-D7)*%
X15964900Y-12079550D03*
%TD*%
%TO.P,R1,1*%
%TO.N,Net-(U2-D5)*%
X14839900Y-8867550D03*
%TO.P,R1,2*%
%TO.N,Net-(U1-RST)*%
X14077900Y-8867550D03*
%TD*%
%TO.P,R2,1*%
%TO.N,Net-(U1-PB6)*%
X11114900Y-10667550D03*
%TO.P,R2,2*%
%TO.N,Net-(U2-Rx)*%
X11114900Y-11429550D03*
%TD*%
D24*
%TO.P,REG1,1,VIN+*%
%TO.N,Net-(CONN1-VIN)*%
X16110700Y-9074550D03*
X16110700Y-9424550D03*
%TO.P,REG1,2,VIN-*%
%TO.N,Net-(CONN1-GND)*%
X16110700Y-8124550D03*
X16110700Y-8474550D03*
%TO.P,REG1,3,VOUT+*%
%TO.N,Net-(REG1-VOUT+)*%
X17964900Y-9074550D03*
X17964900Y-9424550D03*
%TO.P,REG1,4,VOUT-*%
%TO.N,Net-(D2-A)*%
X17964900Y-8124550D03*
X17964900Y-8474550D03*
%TD*%
D25*
%TO.P,U4,1,VIN*%
%TO.N,Net-(U2-3.3V)*%
X14079900Y-13425550D03*
D26*
%TO.P,U4,2,GND*%
%TO.N,Net-(D2-A)*%
X14079900Y-13171550D03*
%TO.P,U4,3,SCL*%
%TO.N,Net-(U1-PB8)*%
X14079900Y-12917550D03*
%TO.P,U4,4,SDA*%
%TO.N,Net-(U1-PB9)*%
X14079900Y-12663550D03*
%TO.P,U4,5,NC*%
%TO.N,unconnected-(U4-NC-Pad5)*%
X14079900Y-12409550D03*
%TD*%
D27*
%TO.P,C3,1*%
%TO.N,Net-(U2-3.3V)*%
X15814900Y-12374550D03*
D23*
%TO.P,C3,2*%
%TO.N,Net-(D2-A)*%
X15814900Y-12624550D03*
%TD*%
D25*
%TO.P,U1,1,PB12*%
%TO.N,unconnected-(U1-PB12-Pad1)*%
X11740900Y-8370550D03*
D26*
%TO.P,U1,2,PB13*%
%TO.N,unconnected-(U1-PB13-Pad2)*%
X11740900Y-8624550D03*
%TO.P,U1,3,PB14*%
%TO.N,unconnected-(U1-PB14-Pad3)*%
X11740900Y-8878550D03*
%TO.P,U1,4,PB15*%
%TO.N,unconnected-(U1-PB15-Pad4)*%
X11740900Y-9132550D03*
%TO.P,U1,5,PA8*%
%TO.N,unconnected-(U1-PA8-Pad5)*%
X11740900Y-9386550D03*
%TO.P,U1,6,PA9*%
%TO.N,unconnected-(U1-PA9-Pad6)*%
X11740900Y-9640550D03*
%TO.P,U1,7,PA10*%
%TO.N,unconnected-(U1-PA10-Pad7)*%
X11740900Y-9894550D03*
%TO.P,U1,8,PA11*%
%TO.N,unconnected-(U1-PA11-Pad8)*%
X11740900Y-10148550D03*
%TO.P,U1,9,PA12*%
%TO.N,unconnected-(U1-PA12-Pad9)*%
X11740900Y-10402550D03*
%TO.P,U1,10,PA15*%
%TO.N,unconnected-(U1-PA15-Pad10)*%
X11740900Y-10656550D03*
%TO.P,U1,11,PB3*%
%TO.N,unconnected-(U1-PB3-Pad11)*%
X11740900Y-10910550D03*
%TO.P,U1,12,PB4*%
%TO.N,unconnected-(U1-PB4-Pad12)*%
X11740900Y-11164550D03*
%TO.P,U1,13,PB5*%
%TO.N,unconnected-(U1-PB5-Pad13)*%
X11740900Y-11418550D03*
%TO.P,U1,14,PB6*%
%TO.N,Net-(U1-PB6)*%
X11740900Y-11672550D03*
%TO.P,U1,15,PB7*%
%TO.N,Net-(U1-PB7)*%
X11740900Y-11926550D03*
%TO.P,U1,16,PB8*%
%TO.N,Net-(U1-PB8)*%
X11740900Y-12180550D03*
%TO.P,U1,17,PB9*%
%TO.N,Net-(U1-PB9)*%
X11740900Y-12434550D03*
%TO.P,U1,18,5V*%
%TO.N,unconnected-(U1-5V-Pad18)*%
X11740900Y-12688550D03*
%TO.P,U1,19,GND*%
%TO.N,unconnected-(U1-GND-Pad19)*%
X11740900Y-12942550D03*
%TO.P,U1,20,3V3*%
%TO.N,unconnected-(U1-3V3-Pad20)*%
X11740900Y-13196550D03*
%TO.P,U1,21,VBat*%
%TO.N,unconnected-(U1-VBat-Pad21)*%
X13264900Y-13196550D03*
%TO.P,U1,22,PC13*%
%TO.N,unconnected-(U1-PC13-Pad22)*%
X13264900Y-12942550D03*
%TO.P,U1,23,PC14*%
%TO.N,unconnected-(U1-PC14-Pad23)*%
X13264900Y-12688550D03*
%TO.P,U1,24,PC15*%
%TO.N,unconnected-(U1-PC15-Pad24)*%
X13264900Y-12434550D03*
%TO.P,U1,25,PA0*%
%TO.N,Net-(CONN1-Signal_1)*%
X13264900Y-12180550D03*
%TO.P,U1,26,PA1*%
%TO.N,Net-(CONN1-Signal_2)*%
X13264900Y-11926550D03*
%TO.P,U1,27,PA2*%
%TO.N,Net-(CONN1-Signal_3)*%
X13264900Y-11672550D03*
%TO.P,U1,28,PA3*%
%TO.N,Net-(CONN1-Signal_4)*%
X13264900Y-11418550D03*
%TO.P,U1,29,PA4*%
%TO.N,unconnected-(U1-PA4-Pad29)*%
X13264900Y-11164550D03*
%TO.P,U1,30,PA5*%
%TO.N,unconnected-(U1-PA5-Pad30)*%
X13264900Y-10910550D03*
%TO.P,U1,31,PA6*%
%TO.N,unconnected-(U1-PA6-Pad31)*%
X13264900Y-10656550D03*
%TO.P,U1,32,PA7*%
%TO.N,unconnected-(U1-PA7-Pad32)*%
X13264900Y-10402550D03*
%TO.P,U1,33,PB0*%
%TO.N,Net-(U1-PB0)*%
X13264900Y-10148550D03*
%TO.P,U1,34,PB1*%
%TO.N,unconnected-(U1-PB1-Pad34)*%
X13264900Y-9894550D03*
%TO.P,U1,35,PB10*%
%TO.N,unconnected-(U1-PB10-Pad35)*%
X13264900Y-9640550D03*
%TO.P,U1,36,PB11*%
%TO.N,unconnected-(U1-PB11-Pad36)*%
X13264900Y-9386550D03*
%TO.P,U1,37,RST*%
%TO.N,Net-(U1-RST)*%
X13264900Y-9132550D03*
%TO.P,U1,38,3V3*%
%TO.N,Net-(U2-3.3V)*%
X13264900Y-8878550D03*
%TO.P,U1,39,GND*%
%TO.N,Net-(D2-A)*%
X13264900Y-8624550D03*
%TO.P,U1,40,GND*%
%TO.N,unconnected-(U1-GND-Pad40)*%
X13264900Y-8370550D03*
%TD*%
D28*
%TO.P,C2,1*%
%TO.N,Net-(REG1-VOUT+)*%
X18489900Y-8895061D03*
D23*
%TO.P,C2,2*%
%TO.N,Net-(D2-A)*%
X18489900Y-8645061D03*
%TD*%
D28*
%TO.P,C1,1*%
%TO.N,Net-(CONN1-VIN)*%
X15414900Y-9199550D03*
D23*
%TO.P,C1,2*%
%TO.N,Net-(CONN1-GND)*%
X15414900Y-8949550D03*
%TD*%
%TO.P,R3,1*%
%TO.N,Net-(U1-PB7)*%
X11114900Y-11767550D03*
%TO.P,R3,2*%
%TO.N,Net-(U2-Tx)*%
X11114900Y-12529550D03*
%TD*%
D29*
%TO.P,D2,1,K*%
%TO.N,Net-(D2-K)*%
X15814900Y-13251550D03*
D30*
%TO.P,D2,2,A*%
%TO.N,Net-(D2-A)*%
X15814900Y-12997550D03*
%TD*%
D26*
%TO.P,U2,1,5V*%
%TO.N,Net-(REG1-VOUT+)*%
X18575900Y-12352550D03*
%TO.P,U2,2,GND*%
%TO.N,Net-(D2-A)*%
X18575900Y-12098550D03*
%TO.P,U2,3,D4*%
%TO.N,unconnected-(U2-D4-Pad3)*%
X18575900Y-11844550D03*
%TO.P,U2,4,D3*%
%TO.N,unconnected-(U2-D3-Pad4)*%
X18575900Y-11590550D03*
%TO.P,U2,5,D2*%
%TO.N,unconnected-(U2-D2-Pad5)*%
X18575900Y-11336550D03*
%TO.P,U2,6,D1*%
%TO.N,unconnected-(U2-D1-Pad6)*%
X18575900Y-11082550D03*
%TO.P,U2,7,Rx*%
%TO.N,Net-(U2-Rx)*%
X18575900Y-10828550D03*
%TO.P,U2,8,Tx*%
%TO.N,Net-(U2-Tx)*%
X18575900Y-10574550D03*
%TO.P,U2,9,Rst*%
%TO.N,unconnected-(U2-Rst-Pad9)*%
X16289900Y-10574550D03*
%TO.P,U2,10,A0*%
%TO.N,unconnected-(U2-A0-Pad10)*%
X16289900Y-10828550D03*
%TO.P,U2,11,D0*%
%TO.N,unconnected-(U2-D0-Pad11)*%
X16289900Y-11082550D03*
%TO.P,U2,12,D5*%
%TO.N,Net-(U2-D5)*%
X16289900Y-11336550D03*
%TO.P,U2,13,D6*%
%TO.N,unconnected-(U2-D6-Pad13)*%
X16289900Y-11590550D03*
%TO.P,U2,14,D7*%
%TO.N,Net-(U2-D7)*%
X16289900Y-11844550D03*
%TO.P,U2,15,D8*%
%TO.N,unconnected-(U2-D8-Pad15)*%
X16289900Y-12098550D03*
%TO.P,U2,16,3.3V*%
%TO.N,Net-(U2-3.3V)*%
X16289900Y-12352550D03*
%TD*%
D23*
%TO.P,R5,1*%
%TO.N,Net-(U3-INT)*%
X14839900Y-9317550D03*
%TO.P,R5,2*%
%TO.N,Net-(U1-PB0)*%
X14077900Y-9317550D03*
%TD*%
%TO.P,C5,1*%
%TO.N,Net-(D2-A)*%
X13789900Y-13167550D03*
%TO.P,C5,2*%
%TO.N,Net-(U2-3.3V)*%
X13789900Y-13417550D03*
%TD*%
D25*
%TO.P,U3,1,VIN*%
%TO.N,Net-(U2-3.3V)*%
X14064900Y-9724550D03*
D26*
%TO.P,U3,2,GND*%
%TO.N,Net-(D2-A)*%
X14064900Y-9978550D03*
%TO.P,U3,3,SCL*%
%TO.N,Net-(U1-PB8)*%
X14064900Y-10232550D03*
%TO.P,U3,4,SDA*%
%TO.N,Net-(U1-PB9)*%
X14064900Y-10486550D03*
%TO.P,U3,5,EDA*%
%TO.N,unconnected-(U3-EDA-Pad5)*%
X14064900Y-10740550D03*
%TO.P,U3,6,ECL*%
%TO.N,unconnected-(U3-ECL-Pad6)*%
X14064900Y-10994550D03*
%TO.P,U3,7,AD0*%
%TO.N,unconnected-(U3-AD0-Pad7)*%
X14064900Y-11248550D03*
%TO.P,U3,8,INT*%
%TO.N,Net-(U3-INT)*%
X14064900Y-11502550D03*
%TO.P,U3,9,NCS*%
%TO.N,unconnected-(U3-NCS-Pad9)*%
X14064900Y-11756550D03*
%TO.P,U3,10,FSYNC*%
%TO.N,unconnected-(U3-FSYNC-Pad10)*%
X14064900Y-12010550D03*
%TD*%
D31*
%TO.N,Net-(U2-3.3V)*%
X14414900Y-13017550D03*
X14414900Y-13317550D03*
%TD*%
D32*
%TO.N,Net-(CONN1-VIN)*%
X15732900Y-9199550D02*
X15864900Y-9067550D01*
X15414900Y-9199550D02*
X15732900Y-9199550D01*
X15864900Y-9067550D02*
X15871900Y-9074550D01*
X15871900Y-9074550D02*
X16110700Y-9074550D01*
%TO.N,Net-(CONN1-GND)*%
X15414900Y-8949550D02*
X15635700Y-8949550D01*
X15635700Y-8949550D02*
X16110700Y-8474550D01*
X14514900Y-8199550D02*
X14514900Y-8517550D01*
X14514900Y-8517550D02*
X14614900Y-8617550D01*
X14614900Y-8617550D02*
X14864900Y-8617550D01*
X14864900Y-8617550D02*
X15196900Y-8949550D01*
X15196900Y-8949550D02*
X15414900Y-8949550D01*
%TO.N,Net-(CONN1-VIN)*%
X14264900Y-8967550D02*
X14314900Y-9017550D01*
X14946900Y-9199550D02*
X15414900Y-9199550D01*
X14264900Y-8199550D02*
X14264900Y-8967550D01*
X14764900Y-9017550D02*
X14946900Y-9199550D01*
X14314900Y-9017550D02*
X14764900Y-9017550D01*
X16110700Y-9424550D02*
X16110700Y-9074550D01*
%TO.N,Net-(CONN1-GND)*%
X16103700Y-8117550D02*
X16110700Y-8124550D01*
X16110700Y-8124550D02*
X16110700Y-8474550D01*
%TO.N,Net-(D2-A)*%
X13789900Y-9974550D02*
X13789900Y-13167550D01*
X18575900Y-12098550D02*
X18739800Y-12262450D01*
D33*
X13064900Y-8824550D02*
X13264900Y-8624550D01*
D32*
X14064900Y-9978550D02*
X13793900Y-9978550D01*
X18107900Y-8617550D02*
X18114900Y-8617550D01*
X18614900Y-12617550D02*
X18607900Y-12624550D01*
X18714900Y-8870061D02*
X18714900Y-11959550D01*
X18114900Y-8617550D02*
X18142411Y-8645061D01*
X14075900Y-13167550D02*
X14079900Y-13171550D01*
X14760900Y-13171550D02*
X14079900Y-13171550D01*
X18142411Y-8645061D02*
X18489900Y-8645061D01*
D33*
X13789900Y-13167550D02*
X13764900Y-13167550D01*
D32*
X14934900Y-12997550D02*
X14760900Y-13171550D01*
X13793900Y-9978550D02*
X13789900Y-9974550D01*
X18489900Y-8645061D02*
X18714900Y-8870061D01*
X18607900Y-12624550D02*
X15814900Y-12624550D01*
X13814900Y-13167550D02*
X14075900Y-13167550D01*
X15814900Y-12624550D02*
X15814900Y-12997550D01*
X17964900Y-8124550D02*
X17964900Y-8474550D01*
D33*
X13764900Y-13167550D02*
X13514900Y-13417550D01*
X13114900Y-13417550D02*
X13064900Y-13367550D01*
X13064900Y-13367550D02*
X13064900Y-8824550D01*
D32*
X17964900Y-8474550D02*
X18107900Y-8617550D01*
X15814900Y-12997550D02*
X14934900Y-12997550D01*
X18739800Y-12262450D02*
X18739800Y-12617550D01*
X18739800Y-12617550D02*
X18614900Y-12617550D01*
X18714900Y-11959550D02*
X18575900Y-12098550D01*
D33*
X13514900Y-13417550D02*
X13114900Y-13417550D01*
D32*
%TO.N,Net-(U2-3.3V)*%
X14264900Y-12667550D02*
X14264900Y-12267550D01*
X13814900Y-9067550D02*
X13625900Y-8878550D01*
X13625900Y-8878550D02*
X13264900Y-8878550D01*
X16267900Y-12374550D02*
X16289900Y-12352550D01*
X14164900Y-9517550D02*
X13814900Y-9517550D01*
X13814900Y-9517550D02*
X13814900Y-9699550D01*
X14079900Y-13425550D02*
X13822900Y-13425550D01*
X14414900Y-13017550D02*
X14414900Y-12817550D01*
X14414900Y-13367550D02*
X14414900Y-13317550D01*
X15707900Y-12267550D02*
X14264900Y-12267550D01*
X14264900Y-9617550D02*
X14164900Y-9517550D01*
X13822900Y-13425550D02*
X13814900Y-13417550D01*
X13789900Y-9724550D02*
X14064900Y-9724550D01*
X14079900Y-13425550D02*
X14356900Y-13425550D01*
X14264900Y-12017550D02*
X14264900Y-9617550D01*
X13814900Y-9517550D02*
X13814900Y-9067550D01*
X15814900Y-12374550D02*
X16267900Y-12374550D01*
X14264900Y-12267550D02*
X14264900Y-12017550D01*
X14414900Y-12817550D02*
X14264900Y-12667550D01*
X15814900Y-12374550D02*
X15707900Y-12267550D01*
X13814900Y-9699550D02*
X13789900Y-9724550D01*
X14356900Y-13425550D02*
X14414900Y-13367550D01*
%TO.N,Net-(REG1-VOUT+)*%
X18449900Y-12352550D02*
X18575900Y-12352550D01*
X17964900Y-9074550D02*
X18007900Y-9074550D01*
X18187389Y-8895061D02*
X18489900Y-8895061D01*
X17964900Y-9424550D02*
X17964900Y-9074550D01*
X18489900Y-8895061D02*
X18414900Y-8970061D01*
X18414900Y-8970061D02*
X18414900Y-12317550D01*
X18007900Y-9074550D02*
X18187389Y-8895061D01*
X18414900Y-12317550D02*
X18449900Y-12352550D01*
%TD*%
D21*
%TO.P,CONN1,6,Signal_4*%
%TO.N,Net-(CONN1-Signal_4)*%
X15514900Y-8199550D03*
%TO.P,CONN1,5,Signal_3*%
%TO.N,Net-(CONN1-Signal_3)*%
X15264900Y-8199550D03*
%TO.P,CONN1,4,Signal_2*%
%TO.N,Net-(CONN1-Signal_2)*%
X15014900Y-8199550D03*
%TO.P,CONN1,3,Signal_1*%
%TO.N,Net-(CONN1-Signal_1)*%
X14764900Y-8199550D03*
%TO.P,CONN1,2,GND*%
%TO.N,Net-(CONN1-GND)*%
X14514900Y-8199550D03*
D22*
%TO.P,CONN1,1,VIN*%
%TO.N,Net-(CONN1-VIN)*%
X14264900Y-8199550D03*
%TD*%
D23*
%TO.P,C4,1*%
%TO.N,Net-(U2-3.3V)*%
X13789900Y-9724550D03*
%TO.P,C4,2*%
%TO.N,Net-(D2-A)*%
X13789900Y-9974550D03*
%TD*%
%TO.P,R4,1*%
%TO.N,Net-(D2-K)*%
X15964900Y-11317550D03*
%TO.P,R4,2*%
%TO.N,Net-(U2-D7)*%
X15964900Y-12079550D03*
%TD*%
%TO.P,R1,1*%
%TO.N,Net-(U2-D5)*%
X14839900Y-8867550D03*
%TO.P,R1,2*%
%TO.N,Net-(U1-RST)*%
X14077900Y-8867550D03*
%TD*%
%TO.P,R2,1*%
%TO.N,Net-(U1-PB6)*%
X11114900Y-10667550D03*
%TO.P,R2,2*%
%TO.N,Net-(U2-Rx)*%
X11114900Y-11429550D03*
%TD*%
D24*
%TO.P,REG1,1,VIN+*%
%TO.N,Net-(CONN1-VIN)*%
X16110700Y-9074550D03*
X16110700Y-9424550D03*
%TO.P,REG1,2,VIN-*%
%TO.N,Net-(CONN1-GND)*%
X16110700Y-8124550D03*
X16110700Y-8474550D03*
%TO.P,REG1,3,VOUT+*%
%TO.N,Net-(REG1-VOUT+)*%
X17964900Y-9074550D03*
X17964900Y-9424550D03*
%TO.P,REG1,4,VOUT-*%
%TO.N,Net-(D2-A)*%
X17964900Y-8124550D03*
X17964900Y-8474550D03*
%TD*%
D25*
%TO.P,U4,1,VIN*%
%TO.N,Net-(U2-3.3V)*%
X14079900Y-13425550D03*
D26*
%TO.P,U4,2,GND*%
%TO.N,Net-(D2-A)*%
X14079900Y-13171550D03*
%TO.P,U4,3,SCL*%
%TO.N,Net-(U1-PB8)*%
X14079900Y-12917550D03*
%TO.P,U4,4,SDA*%
%TO.N,Net-(U1-PB9)*%
X14079900Y-12663550D03*
%TO.P,U4,5,NC*%
%TO.N,unconnected-(U4-NC-Pad5)*%
X14079900Y-12409550D03*
%TD*%
D27*
%TO.P,C3,1*%
%TO.N,Net-(U2-3.3V)*%
X15814900Y-12374550D03*
D23*
%TO.P,C3,2*%
%TO.N,Net-(D2-A)*%
X15814900Y-12624550D03*
%TD*%
D25*
%TO.P,U1,1,PB12*%
%TO.N,unconnected-(U1-PB12-Pad1)*%
X11740900Y-8370550D03*
D26*
%TO.P,U1,2,PB13*%
%TO.N,unconnected-(U1-PB13-Pad2)*%
X11740900Y-8624550D03*
%TO.P,U1,3,PB14*%
%TO.N,unconnected-(U1-PB14-Pad3)*%
X11740900Y-8878550D03*
%TO.P,U1,4,PB15*%
%TO.N,unconnected-(U1-PB15-Pad4)*%
X11740900Y-9132550D03*
%TO.P,U1,5,PA8*%
%TO.N,unconnected-(U1-PA8-Pad5)*%
X11740900Y-9386550D03*
%TO.P,U1,6,PA9*%
%TO.N,unconnected-(U1-PA9-Pad6)*%
X11740900Y-9640550D03*
%TO.P,U1,7,PA10*%
%TO.N,unconnected-(U1-PA10-Pad7)*%
X11740900Y-9894550D03*
%TO.P,U1,8,PA11*%
%TO.N,unconnected-(U1-PA11-Pad8)*%
X11740900Y-10148550D03*
%TO.P,U1,9,PA12*%
%TO.N,unconnected-(U1-PA12-Pad9)*%
X11740900Y-10402550D03*
%TO.P,U1,10,PA15*%
%TO.N,unconnected-(U1-PA15-Pad10)*%
X11740900Y-10656550D03*
%TO.P,U1,11,PB3*%
%TO.N,unconnected-(U1-PB3-Pad11)*%
X11740900Y-10910550D03*
%TO.P,U1,12,PB4*%
%TO.N,unconnected-(U1-PB4-Pad12)*%
X11740900Y-11164550D03*
%TO.P,U1,13,PB5*%
%TO.N,unconnected-(U1-PB5-Pad13)*%
X11740900Y-11418550D03*
%TO.P,U1,14,PB6*%
%TO.N,Net-(U1-PB6)*%
X11740900Y-11672550D03*
%TO.P,U1,15,PB7*%
%TO.N,Net-(U1-PB7)*%
X11740900Y-11926550D03*
%TO.P,U1,16,PB8*%
%TO.N,Net-(U1-PB8)*%
X11740900Y-12180550D03*
%TO.P,U1,17,PB9*%
%TO.N,Net-(U1-PB9)*%
X11740900Y-12434550D03*
%TO.P,U1,18,5V*%
%TO.N,unconnected-(U1-5V-Pad18)*%
X11740900Y-12688550D03*
%TO.P,U1,19,GND*%
%TO.N,unconnected-(U1-GND-Pad19)*%
X11740900Y-12942550D03*
%TO.P,U1,20,3V3*%
%TO.N,unconnected-(U1-3V3-Pad20)*%
X11740900Y-13196550D03*
%TO.P,U1,21,VBat*%
%TO.N,unconnected-(U1-VBat-Pad21)*%
X13264900Y-13196550D03*
%TO.P,U1,22,PC13*%
%TO.N,unconnected-(U1-PC13-Pad22)*%
X13264900Y-12942550D03*
%TO.P,U1,23,PC14*%
%TO.N,unconnected-(U1-PC14-Pad23)*%
X13264900Y-12688550D03*
%TO.P,U1,24,PC15*%
%TO.N,unconnected-(U1-PC15-Pad24)*%
X13264900Y-12434550D03*
%TO.P,U1,25,PA0*%
%TO.N,Net-(CONN1-Signal_1)*%
X13264900Y-12180550D03*
%TO.P,U1,26,PA1*%
%TO.N,Net-(CONN1-Signal_2)*%
X13264900Y-11926550D03*
%TO.P,U1,27,PA2*%
%TO.N,Net-(CONN1-Signal_3)*%
X13264900Y-11672550D03*
%TO.P,U1,28,PA3*%
%TO.N,Net-(CONN1-Signal_4)*%
X13264900Y-11418550D03*
%TO.P,U1,29,PA4*%
%TO.N,unconnected-(U1-PA4-Pad29)*%
X13264900Y-11164550D03*
%TO.P,U1,30,PA5*%
%TO.N,unconnected-(U1-PA5-Pad30)*%
X13264900Y-10910550D03*
%TO.P,U1,31,PA6*%
%TO.N,unconnected-(U1-PA6-Pad31)*%
X13264900Y-10656550D03*
%TO.P,U1,32,PA7*%
%TO.N,unconnected-(U1-PA7-Pad32)*%
X13264900Y-10402550D03*
%TO.P,U1,33,PB0*%
%TO.N,Net-(U1-PB0)*%
X13264900Y-10148550D03*
%TO.P,U1,34,PB1*%
%TO.N,unconnected-(U1-PB1-Pad34)*%
X13264900Y-9894550D03*
%TO.P,U1,35,PB10*%
%TO.N,unconnected-(U1-PB10-Pad35)*%
X13264900Y-9640550D03*
%TO.P,U1,36,PB11*%
%TO.N,unconnected-(U1-PB11-Pad36)*%
X13264900Y-9386550D03*
%TO.P,U1,37,RST*%
%TO.N,Net-(U1-RST)*%
X13264900Y-9132550D03*
%TO.P,U1,38,3V3*%
%TO.N,Net-(U2-3.3V)*%
X13264900Y-8878550D03*
%TO.P,U1,39,GND*%
%TO.N,Net-(D2-A)*%
X13264900Y-8624550D03*
%TO.P,U1,40,GND*%
%TO.N,unconnected-(U1-GND-Pad40)*%
X13264900Y-8370550D03*
%TD*%
D28*
%TO.P,C2,1*%
%TO.N,Net-(REG1-VOUT+)*%
X18489900Y-8895061D03*
D23*
%TO.P,C2,2*%
%TO.N,Net-(D2-A)*%
X18489900Y-8645061D03*
%TD*%
D28*
%TO.P,C1,1*%
%TO.N,Net-(CONN1-VIN)*%
X15414900Y-9199550D03*
D23*
%TO.P,C1,2*%
%TO.N,Net-(CONN1-GND)*%
X15414900Y-8949550D03*
%TD*%
%TO.P,R3,1*%
%TO.N,Net-(U1-PB7)*%
X11114900Y-11767550D03*
%TO.P,R3,2*%
%TO.N,Net-(U2-Tx)*%
X11114900Y-12529550D03*
%TD*%
D29*
%TO.P,D2,1,K*%
%TO.N,Net-(D2-K)*%
X15814900Y-13251550D03*
D30*
%TO.P,D2,2,A*%
%TO.N,Net-(D2-A)*%
X15814900Y-12997550D03*
%TD*%
D26*
%TO.P,U2,1,5V*%
%TO.N,Net-(REG1-VOUT+)*%
X18575900Y-12352550D03*
%TO.P,U2,2,GND*%
%TO.N,Net-(D2-A)*%
X18575900Y-12098550D03*
%TO.P,U2,3,D4*%
%TO.N,unconnected-(U2-D4-Pad3)*%
X18575900Y-11844550D03*
%TO.P,U2,4,D3*%
%TO.N,unconnected-(U2-D3-Pad4)*%
X18575900Y-11590550D03*
%TO.P,U2,5,D2*%
%TO.N,unconnected-(U2-D2-Pad5)*%
X18575900Y-11336550D03*
%TO.P,U2,6,D1*%
%TO.N,unconnected-(U2-D1-Pad6)*%
X18575900Y-11082550D03*
%TO.P,U2,7,Rx*%
%TO.N,Net-(U2-Rx)*%
X18575900Y-10828550D03*
%TO.P,U2,8,Tx*%
%TO.N,Net-(U2-Tx)*%
X18575900Y-10574550D03*
%TO.P,U2,9,Rst*%
%TO.N,unconnected-(U2-Rst-Pad9)*%
X16289900Y-10574550D03*
%TO.P,U2,10,A0*%
%TO.N,unconnected-(U2-A0-Pad10)*%
X16289900Y-10828550D03*
%TO.P,U2,11,D0*%
%TO.N,unconnected-(U2-D0-Pad11)*%
X16289900Y-11082550D03*
%TO.P,U2,12,D5*%
%TO.N,Net-(U2-D5)*%
X16289900Y-11336550D03*
%TO.P,U2,13,D6*%
%TO.N,unconnected-(U2-D6-Pad13)*%
X16289900Y-11590550D03*
%TO.P,U2,14,D7*%
%TO.N,Net-(U2-D7)*%
X16289900Y-11844550D03*
%TO.P,U2,15,D8*%
%TO.N,unconnected-(U2-D8-Pad15)*%
X16289900Y-12098550D03*
%TO.P,U2,16,3.3V*%
%TO.N,Net-(U2-3.3V)*%
X16289900Y-12352550D03*
%TD*%
D23*
%TO.P,R5,1*%
%TO.N,Net-(U3-INT)*%
X14839900Y-9317550D03*
%TO.P,R5,2*%
%TO.N,Net-(U1-PB0)*%
X14077900Y-9317550D03*
%TD*%
%TO.P,C5,1*%
%TO.N,Net-(D2-A)*%
X13789900Y-13167550D03*
%TO.P,C5,2*%
%TO.N,Net-(U2-3.3V)*%
X13789900Y-13417550D03*
%TD*%
D25*
%TO.P,U3,1,VIN*%
%TO.N,Net-(U2-3.3V)*%
X14064900Y-9724550D03*
D26*
%TO.P,U3,2,GND*%
%TO.N,Net-(D2-A)*%
X14064900Y-9978550D03*
%TO.P,U3,3,SCL*%
%TO.N,Net-(U1-PB8)*%
X14064900Y-10232550D03*
%TO.P,U3,4,SDA*%
%TO.N,Net-(U1-PB9)*%
X14064900Y-10486550D03*
%TO.P,U3,5,EDA*%
%TO.N,unconnected-(U3-EDA-Pad5)*%
X14064900Y-10740550D03*
%TO.P,U3,6,ECL*%
%TO.N,unconnected-(U3-ECL-Pad6)*%
X14064900Y-10994550D03*
%TO.P,U3,7,AD0*%
%TO.N,unconnected-(U3-AD0-Pad7)*%
X14064900Y-11248550D03*
%TO.P,U3,8,INT*%
%TO.N,Net-(U3-INT)*%
X14064900Y-11502550D03*
%TO.P,U3,9,NCS*%
%TO.N,unconnected-(U3-NCS-Pad9)*%
X14064900Y-11756550D03*
%TO.P,U3,10,FSYNC*%
%TO.N,unconnected-(U3-FSYNC-Pad10)*%
X14064900Y-12010550D03*
%TD*%
D31*
%TO.N,Net-(U2-3.3V)*%
X14414900Y-13017550D03*
X14414900Y-13317550D03*
%TD*%
D34*
%TO.N,Net-(CONN1-VIN)*%
X14264900Y-8199550D02*
X14295605Y-8199550D01*
%TO.N,Net-(D2-A)*%
X18594900Y-12117550D02*
X18575900Y-12098550D01*
D33*
%TO.N,Net-(CONN1-Signal_2)*%
X12894700Y-8125162D02*
X12894700Y-11232550D01*
X14177242Y-8337150D02*
X14169494Y-8337150D01*
X14169494Y-8337150D02*
X13787094Y-7954750D01*
X13065112Y-7954750D02*
X12894700Y-8125162D01*
X13079700Y-11741350D02*
X13264900Y-11926550D01*
X14177242Y-8337150D02*
X13794842Y-7954750D01*
X13787094Y-7954750D02*
X13065112Y-7954750D01*
X15014900Y-8199550D02*
X14877300Y-8337150D01*
X12894700Y-11232550D02*
X13079700Y-11417550D01*
X13079700Y-11417550D02*
X13079700Y-11741350D01*
X14877300Y-8337150D02*
X14177242Y-8337150D01*
%TO.N,Net-(CONN1-Signal_3)*%
X13090006Y-8014850D02*
X12954800Y-8150056D01*
X13139800Y-11378444D02*
X13139800Y-11547450D01*
X12954800Y-8150056D02*
X12954800Y-11193444D01*
X15067200Y-8397250D02*
X14144600Y-8397250D01*
X15264900Y-8199550D02*
X15067200Y-8397250D01*
X13139800Y-11547450D02*
X13264900Y-11672550D01*
X12954800Y-11193444D02*
X13139800Y-11378444D01*
X13762200Y-8014850D02*
X13090006Y-8014850D01*
X14144600Y-8397250D02*
X13762200Y-8014850D01*
%TO.N,Net-(CONN1-Signal_4)*%
X13014900Y-11168550D02*
X13264900Y-11418550D01*
X13114900Y-8074950D02*
X13014900Y-8174950D01*
X15257100Y-8457350D02*
X14119706Y-8457350D01*
X15514900Y-8199550D02*
X15257100Y-8457350D01*
X13737306Y-8074950D02*
X13114900Y-8074950D01*
X13014900Y-8174950D02*
X13014900Y-11168550D01*
X14119706Y-8457350D02*
X13737306Y-8074950D01*
%TO.N,Net-(CONN1-Signal_1)*%
X14764900Y-8044650D02*
X14614900Y-7894650D01*
X12834600Y-8100267D02*
X12834600Y-11257444D01*
X14614900Y-7894650D02*
X13040217Y-7894650D01*
X12834600Y-11257444D02*
X13019600Y-11442444D01*
X14764900Y-8199550D02*
X14764900Y-8044650D01*
X13019600Y-11442444D02*
X13019600Y-11935250D01*
X13019600Y-11935250D02*
X13264900Y-12180550D01*
X13040217Y-7894650D02*
X12834600Y-8100267D01*
%TO.N,Net-(D2-K)*%
X15964900Y-11317550D02*
X15739900Y-11317550D01*
X15589900Y-13026550D02*
X15814900Y-13251550D01*
X15739900Y-11317550D02*
X15589900Y-11467550D01*
X15589900Y-11467550D02*
X15589900Y-13026550D01*
%TO.N,Net-(U2-D5)*%
X14839900Y-8867550D02*
X15014900Y-9042550D01*
X15014900Y-9567550D02*
X14900000Y-9682450D01*
X14900000Y-11017550D02*
X15970900Y-11017550D01*
X15970900Y-11017550D02*
X16289900Y-11336550D01*
X14900000Y-9682450D02*
X14900000Y-11017550D01*
X15014900Y-9042550D02*
X15014900Y-9567550D01*
%TO.N,Net-(U1-RST)*%
X13529900Y-8867550D02*
X13264900Y-9132550D01*
X14077900Y-8867550D02*
X13529900Y-8867550D01*
%TO.N,Net-(U2-Rx)*%
X18701000Y-10953650D02*
X18575900Y-10828550D01*
X11590006Y-13527650D02*
X11995017Y-13527650D01*
X11454800Y-12954444D02*
X11454800Y-13392444D01*
X11191403Y-12691047D02*
X11454800Y-12954444D01*
X10914900Y-11629550D02*
X10914900Y-12617550D01*
X14467391Y-13620041D02*
X17485327Y-13620041D01*
X11114900Y-11429550D02*
X10914900Y-11629550D01*
X14339583Y-13747850D02*
X14467391Y-13620041D01*
X11454800Y-13392444D02*
X11590006Y-13527650D01*
X18701000Y-12404368D02*
X18701000Y-10953650D01*
X11995017Y-13527650D02*
X12215217Y-13747850D01*
X17485327Y-13620041D02*
X18701000Y-12404368D01*
X12215217Y-13747850D02*
X14339583Y-13747850D01*
X10914900Y-12617550D02*
X10988397Y-12691047D01*
X10988397Y-12691047D02*
X11191403Y-12691047D01*
%TO.N,Net-(U1-PB6)*%
X11464900Y-10867550D02*
X11464900Y-11667550D01*
X11114900Y-10667550D02*
X11264900Y-10667550D01*
X11264900Y-10667550D02*
X11464900Y-10867550D01*
X11469900Y-11672550D02*
X11740900Y-11672550D01*
X11464900Y-11667550D02*
X11469900Y-11672550D01*
%TO.N,Net-(U2-Tx)*%
X18408862Y-12611512D02*
X18408862Y-10741588D01*
X11114900Y-12529550D02*
X11514900Y-12929550D01*
X12019912Y-13467550D02*
X12240112Y-13687750D01*
X14314688Y-13687750D02*
X14442497Y-13559941D01*
X11514900Y-12929550D02*
X11514900Y-13367550D01*
X11514900Y-13367550D02*
X11614900Y-13467550D01*
X14442497Y-13559941D02*
X17460433Y-13559941D01*
X12240112Y-13687750D02*
X14314688Y-13687750D01*
X11614900Y-13467550D02*
X12019912Y-13467550D01*
X18408862Y-10741588D02*
X18575900Y-10574550D01*
X17460433Y-13559941D02*
X18408862Y-12611512D01*
%TO.N,Net-(U1-PB7)*%
X11264900Y-11767550D02*
X11423900Y-11926550D01*
X11423900Y-11926550D02*
X11740900Y-11926550D01*
X11114900Y-11767550D02*
X11264900Y-11767550D01*
%TO.N,Net-(U2-D7)*%
X16199900Y-11844550D02*
X16289900Y-11844550D01*
X15964900Y-12079550D02*
X16199900Y-11844550D01*
%TO.N,Net-(U1-PB9)*%
X13789900Y-10761550D02*
X13789900Y-12373550D01*
X13789900Y-12373550D02*
X14079900Y-12663550D01*
X12079800Y-12632450D02*
X11881900Y-12434550D01*
X14289794Y-13627650D02*
X12265006Y-13627650D01*
X14079900Y-12663550D02*
X14325000Y-12908650D01*
X11881900Y-12434550D02*
X11740900Y-12434550D01*
X14064900Y-10486550D02*
X13789900Y-10761550D01*
X14325000Y-12908650D02*
X14325000Y-13592444D01*
X12265006Y-13627650D02*
X12079800Y-13442444D01*
X12079800Y-13442444D02*
X12079800Y-12632450D01*
X14325000Y-13592444D02*
X14289794Y-13627650D01*
%TO.N,Net-(U1-PB0)*%
X13390000Y-9092444D02*
X13390000Y-10023450D01*
X14077900Y-9040650D02*
X13964900Y-8927650D01*
X14077900Y-9317550D02*
X14077900Y-9040650D01*
X13390000Y-10023450D02*
X13264900Y-10148550D01*
X13554794Y-8927650D02*
X13390000Y-9092444D01*
X13964900Y-8927650D02*
X13554794Y-8927650D01*
%TO.N,Net-(U1-PB8)*%
X14264900Y-13102550D02*
X14264900Y-13567550D01*
X11899894Y-12367550D02*
X11864900Y-12367550D01*
X13729800Y-12782450D02*
X13864900Y-12917550D01*
X14264900Y-13567550D02*
X12289900Y-13567550D01*
X11864900Y-12367550D02*
X11864900Y-12167550D01*
X13864900Y-12917550D02*
X14079900Y-12917550D01*
X12139900Y-13417550D02*
X12139900Y-12607556D01*
X13729800Y-10567650D02*
X13729800Y-12782450D01*
X11864900Y-12167550D02*
X11753900Y-12167550D01*
X11753900Y-12167550D02*
X11740900Y-12180550D01*
X14064900Y-10232550D02*
X13729800Y-10567650D01*
X14079900Y-12917550D02*
X14264900Y-13102550D01*
X12289900Y-13567550D02*
X12139900Y-13417550D01*
X11777900Y-12180550D02*
X11740900Y-12180550D01*
X12139900Y-12607556D02*
X11899894Y-12367550D01*
D32*
%TO.N,Net-(U2-3.3V)*%
X14414900Y-13317550D02*
X14414900Y-13017550D01*
D34*
%TO.N,Net-(REG1-VOUT+)*%
X17964900Y-9074550D02*
X17964900Y-9017550D01*
X18489900Y-8895061D02*
X18487389Y-8895061D01*
D33*
%TO.N,Net-(U3-INT)*%
X14839900Y-9317550D02*
X14839900Y-11392550D01*
X14729900Y-11502550D02*
X14064900Y-11502550D01*
X14839900Y-11392550D02*
X14729900Y-11502550D01*
%TD*%
D10*
%TO.C,CONN1*%
X15514900Y-8199550D03*
X15264900Y-8199550D03*
X15014900Y-8199550D03*
X14764900Y-8199550D03*
X14514900Y-8199550D03*
D11*
X14264900Y-8199550D03*
%TD*%
D12*
%TO.C,REF\u002A\u002A*%
X11089900Y-13549550D03*
%TD*%
D13*
%TO.C,C4*%
X13789900Y-9724550D03*
X13789900Y-9974550D03*
%TD*%
%TO.C,R4*%
X15964900Y-11317550D03*
X15964900Y-12079550D03*
%TD*%
D12*
%TO.C,REF\u002A\u002A*%
X18539900Y-8099550D03*
%TD*%
D13*
%TO.C,R1*%
X14839900Y-8867550D03*
X14077900Y-8867550D03*
%TD*%
%TO.C,R2*%
X11114900Y-10667550D03*
X11114900Y-11429550D03*
%TD*%
D14*
%TO.C,REG1*%
X16110700Y-9074550D03*
X16110700Y-9424550D03*
X16110700Y-8124550D03*
X16110700Y-8474550D03*
X17964900Y-9074550D03*
X17964900Y-9424550D03*
X17964900Y-8124550D03*
X17964900Y-8474550D03*
%TD*%
D15*
%TO.C,U4*%
X14079900Y-13425550D03*
D16*
X14079900Y-13171550D03*
X14079900Y-12917550D03*
X14079900Y-12663550D03*
X14079900Y-12409550D03*
%TD*%
D17*
%TO.C,C3*%
X15814900Y-12374550D03*
D13*
X15814900Y-12624550D03*
%TD*%
D12*
%TO.C,REF\u002A\u002A*%
X11089900Y-8099550D03*
%TD*%
D15*
%TO.C,U1*%
X11740900Y-8370550D03*
D16*
X11740900Y-8624550D03*
X11740900Y-8878550D03*
X11740900Y-9132550D03*
X11740900Y-9386550D03*
X11740900Y-9640550D03*
X11740900Y-9894550D03*
X11740900Y-10148550D03*
X11740900Y-10402550D03*
X11740900Y-10656550D03*
X11740900Y-10910550D03*
X11740900Y-11164550D03*
X11740900Y-11418550D03*
X11740900Y-11672550D03*
X11740900Y-11926550D03*
X11740900Y-12180550D03*
X11740900Y-12434550D03*
X11740900Y-12688550D03*
X11740900Y-12942550D03*
X11740900Y-13196550D03*
X13264900Y-13196550D03*
X13264900Y-12942550D03*
X13264900Y-12688550D03*
X13264900Y-12434550D03*
X13264900Y-12180550D03*
X13264900Y-11926550D03*
X13264900Y-11672550D03*
X13264900Y-11418550D03*
X13264900Y-11164550D03*
X13264900Y-10910550D03*
X13264900Y-10656550D03*
X13264900Y-10402550D03*
X13264900Y-10148550D03*
X13264900Y-9894550D03*
X13264900Y-9640550D03*
X13264900Y-9386550D03*
X13264900Y-9132550D03*
X13264900Y-8878550D03*
X13264900Y-8624550D03*
X13264900Y-8370550D03*
%TD*%
D18*
%TO.C,C2*%
X18489900Y-8895061D03*
D13*
X18489900Y-8645061D03*
%TD*%
D18*
%TO.C,C1*%
X15414900Y-9199550D03*
D13*
X15414900Y-8949550D03*
%TD*%
%TO.C,R3*%
X11114900Y-11767550D03*
X11114900Y-12529550D03*
%TD*%
D19*
%TO.C,D2*%
X15814900Y-13251550D03*
D20*
X15814900Y-12997550D03*
%TD*%
D16*
%TO.C,U2*%
X18575900Y-12352550D03*
X18575900Y-12098550D03*
X18575900Y-11844550D03*
X18575900Y-11590550D03*
X18575900Y-11336550D03*
X18575900Y-11082550D03*
X18575900Y-10828550D03*
X18575900Y-10574550D03*
X16289900Y-10574550D03*
X16289900Y-10828550D03*
X16289900Y-11082550D03*
X16289900Y-11336550D03*
X16289900Y-11590550D03*
X16289900Y-11844550D03*
X16289900Y-12098550D03*
X16289900Y-12352550D03*
%TD*%
D13*
%TO.C,R5*%
X14839900Y-9317550D03*
X14077900Y-9317550D03*
%TD*%
%TO.C,C5*%
X13789900Y-13167550D03*
X13789900Y-13417550D03*
%TD*%
D15*
%TO.C,U3*%
X14064900Y-9724550D03*
D16*
X14064900Y-9978550D03*
X14064900Y-10232550D03*
X14064900Y-10486550D03*
X14064900Y-10740550D03*
X14064900Y-10994550D03*
X14064900Y-11248550D03*
X14064900Y-11502550D03*
X14064900Y-11756550D03*
X14064900Y-12010550D03*
%TD*%
D12*
%TO.C,REF\u002A\u002A*%
X18539900Y-13549550D03*
%TD*%
D35*
X14716090Y-8403508D02*
X14711328Y-8408270D01*
X14711328Y-8408270D02*
X14697043Y-8413032D01*
X14697043Y-8413032D02*
X14687519Y-8413032D01*
X14687519Y-8413032D02*
X14673233Y-8408270D01*
X14673233Y-8408270D02*
X14663709Y-8398746D01*
X14663709Y-8398746D02*
X14658948Y-8389222D01*
X14658948Y-8389222D02*
X14654186Y-8370175D01*
X14654186Y-8370175D02*
X14654186Y-8355889D01*
X14654186Y-8355889D02*
X14658948Y-8336841D01*
X14658948Y-8336841D02*
X14663709Y-8327318D01*
X14663709Y-8327318D02*
X14673233Y-8317794D01*
X14673233Y-8317794D02*
X14687519Y-8313032D01*
X14687519Y-8313032D02*
X14697043Y-8313032D01*
X14697043Y-8313032D02*
X14711328Y-8317794D01*
X14711328Y-8317794D02*
X14716090Y-8322556D01*
X14777995Y-8313032D02*
X14797043Y-8313032D01*
X14797043Y-8313032D02*
X14806567Y-8317794D01*
X14806567Y-8317794D02*
X14816090Y-8327318D01*
X14816090Y-8327318D02*
X14820852Y-8346365D01*
X14820852Y-8346365D02*
X14820852Y-8379698D01*
X14820852Y-8379698D02*
X14816090Y-8398746D01*
X14816090Y-8398746D02*
X14806567Y-8408270D01*
X14806567Y-8408270D02*
X14797043Y-8413032D01*
X14797043Y-8413032D02*
X14777995Y-8413032D01*
X14777995Y-8413032D02*
X14768471Y-8408270D01*
X14768471Y-8408270D02*
X14758948Y-8398746D01*
X14758948Y-8398746D02*
X14754186Y-8379698D01*
X14754186Y-8379698D02*
X14754186Y-8346365D01*
X14754186Y-8346365D02*
X14758948Y-8327318D01*
X14758948Y-8327318D02*
X14768471Y-8317794D01*
X14768471Y-8317794D02*
X14777995Y-8313032D01*
X14863709Y-8413032D02*
X14863709Y-8313032D01*
X14863709Y-8313032D02*
X14920852Y-8413032D01*
X14920852Y-8413032D02*
X14920852Y-8313032D01*
X14968471Y-8413032D02*
X14968471Y-8313032D01*
X14968471Y-8313032D02*
X15025614Y-8413032D01*
X15025614Y-8413032D02*
X15025614Y-8313032D01*
X15125614Y-8413032D02*
X15068471Y-8413032D01*
X15097043Y-8413032D02*
X15097043Y-8313032D01*
X15097043Y-8313032D02*
X15087519Y-8327318D01*
X15087519Y-8327318D02*
X15077995Y-8336841D01*
X15077995Y-8336841D02*
X15068471Y-8341603D01*
X13825858Y-10216217D02*
X13830620Y-10220979D01*
X13830620Y-10220979D02*
X13835382Y-10235264D01*
X13835382Y-10235264D02*
X13835382Y-10244788D01*
X13835382Y-10244788D02*
X13830620Y-10259074D01*
X13830620Y-10259074D02*
X13821096Y-10268598D01*
X13821096Y-10268598D02*
X13811572Y-10273359D01*
X13811572Y-10273359D02*
X13792525Y-10278121D01*
X13792525Y-10278121D02*
X13778239Y-10278121D01*
X13778239Y-10278121D02*
X13759191Y-10273359D01*
X13759191Y-10273359D02*
X13749668Y-10268598D01*
X13749668Y-10268598D02*
X13740144Y-10259074D01*
X13740144Y-10259074D02*
X13735382Y-10244788D01*
X13735382Y-10244788D02*
X13735382Y-10235264D01*
X13735382Y-10235264D02*
X13740144Y-10220979D01*
X13740144Y-10220979D02*
X13744906Y-10216217D01*
X13768715Y-10130502D02*
X13835382Y-10130502D01*
X13730620Y-10154312D02*
X13802048Y-10178121D01*
X13802048Y-10178121D02*
X13802048Y-10116217D01*
X16010382Y-11715217D02*
X15962763Y-11748550D01*
X16010382Y-11772359D02*
X15910382Y-11772359D01*
X15910382Y-11772359D02*
X15910382Y-11734264D01*
X15910382Y-11734264D02*
X15915144Y-11724740D01*
X15915144Y-11724740D02*
X15919906Y-11719978D01*
X15919906Y-11719978D02*
X15929429Y-11715217D01*
X15929429Y-11715217D02*
X15943715Y-11715217D01*
X15943715Y-11715217D02*
X15953239Y-11719978D01*
X15953239Y-11719978D02*
X15958001Y-11724740D01*
X15958001Y-11724740D02*
X15962763Y-11734264D01*
X15962763Y-11734264D02*
X15962763Y-11772359D01*
X15943715Y-11629502D02*
X16010382Y-11629502D01*
X15905620Y-11653312D02*
X15977048Y-11677121D01*
X15977048Y-11677121D02*
X15977048Y-11615217D01*
X14442233Y-8913032D02*
X14408900Y-8865413D01*
X14385090Y-8913032D02*
X14385090Y-8813032D01*
X14385090Y-8813032D02*
X14423186Y-8813032D01*
X14423186Y-8813032D02*
X14432709Y-8817794D01*
X14432709Y-8817794D02*
X14437471Y-8822556D01*
X14437471Y-8822556D02*
X14442233Y-8832080D01*
X14442233Y-8832080D02*
X14442233Y-8846365D01*
X14442233Y-8846365D02*
X14437471Y-8855889D01*
X14437471Y-8855889D02*
X14432709Y-8860651D01*
X14432709Y-8860651D02*
X14423186Y-8865413D01*
X14423186Y-8865413D02*
X14385090Y-8865413D01*
X14537471Y-8913032D02*
X14480329Y-8913032D01*
X14508900Y-8913032D02*
X14508900Y-8813032D01*
X14508900Y-8813032D02*
X14499376Y-8827318D01*
X14499376Y-8827318D02*
X14489852Y-8836841D01*
X14489852Y-8836841D02*
X14480329Y-8841603D01*
X11160382Y-11065217D02*
X11112763Y-11098550D01*
X11160382Y-11122359D02*
X11060382Y-11122359D01*
X11060382Y-11122359D02*
X11060382Y-11084264D01*
X11060382Y-11084264D02*
X11065144Y-11074740D01*
X11065144Y-11074740D02*
X11069906Y-11069979D01*
X11069906Y-11069979D02*
X11079430Y-11065217D01*
X11079430Y-11065217D02*
X11093715Y-11065217D01*
X11093715Y-11065217D02*
X11103239Y-11069979D01*
X11103239Y-11069979D02*
X11108001Y-11074740D01*
X11108001Y-11074740D02*
X11112763Y-11084264D01*
X11112763Y-11084264D02*
X11112763Y-11122359D01*
X11069906Y-11027121D02*
X11065144Y-11022359D01*
X11065144Y-11022359D02*
X11060382Y-11012836D01*
X11060382Y-11012836D02*
X11060382Y-10989026D01*
X11060382Y-10989026D02*
X11065144Y-10979502D01*
X11065144Y-10979502D02*
X11069906Y-10974740D01*
X11069906Y-10974740D02*
X11079430Y-10969979D01*
X11079430Y-10969979D02*
X11088953Y-10969979D01*
X11088953Y-10969979D02*
X11103239Y-10974740D01*
X11103239Y-10974740D02*
X11160382Y-11031883D01*
X11160382Y-11031883D02*
X11160382Y-10969979D01*
X16989395Y-8820032D02*
X16956062Y-8772413D01*
X16932252Y-8820032D02*
X16932252Y-8720032D01*
X16932252Y-8720032D02*
X16970348Y-8720032D01*
X16970348Y-8720032D02*
X16979871Y-8724794D01*
X16979871Y-8724794D02*
X16984633Y-8729556D01*
X16984633Y-8729556D02*
X16989395Y-8739080D01*
X16989395Y-8739080D02*
X16989395Y-8753365D01*
X16989395Y-8753365D02*
X16984633Y-8762889D01*
X16984633Y-8762889D02*
X16979871Y-8767651D01*
X16979871Y-8767651D02*
X16970348Y-8772413D01*
X16970348Y-8772413D02*
X16932252Y-8772413D01*
X17032252Y-8767651D02*
X17065586Y-8767651D01*
X17079871Y-8820032D02*
X17032252Y-8820032D01*
X17032252Y-8820032D02*
X17032252Y-8720032D01*
X17032252Y-8720032D02*
X17079871Y-8720032D01*
X17175110Y-8724794D02*
X17165586Y-8720032D01*
X17165586Y-8720032D02*
X17151300Y-8720032D01*
X17151300Y-8720032D02*
X17137014Y-8724794D01*
X17137014Y-8724794D02*
X17127491Y-8734318D01*
X17127491Y-8734318D02*
X17122729Y-8743841D01*
X17122729Y-8743841D02*
X17117967Y-8762889D01*
X17117967Y-8762889D02*
X17117967Y-8777175D01*
X17117967Y-8777175D02*
X17122729Y-8796222D01*
X17122729Y-8796222D02*
X17127491Y-8805746D01*
X17127491Y-8805746D02*
X17137014Y-8815270D01*
X17137014Y-8815270D02*
X17151300Y-8820032D01*
X17151300Y-8820032D02*
X17160824Y-8820032D01*
X17160824Y-8820032D02*
X17175110Y-8815270D01*
X17175110Y-8815270D02*
X17179871Y-8810508D01*
X17179871Y-8810508D02*
X17179871Y-8777175D01*
X17179871Y-8777175D02*
X17160824Y-8777175D01*
X17275110Y-8820032D02*
X17217967Y-8820032D01*
X17246538Y-8820032D02*
X17246538Y-8720032D01*
X17246538Y-8720032D02*
X17237014Y-8734318D01*
X17237014Y-8734318D02*
X17227491Y-8743841D01*
X17227491Y-8743841D02*
X17217967Y-8748603D01*
D36*
X14333909Y-12863292D02*
X14333909Y-12944244D01*
X14333909Y-12944244D02*
X14338671Y-12953768D01*
X14338671Y-12953768D02*
X14343433Y-12958530D01*
X14343433Y-12958530D02*
X14352957Y-12963292D01*
X14352957Y-12963292D02*
X14372005Y-12963292D01*
X14372005Y-12963292D02*
X14381528Y-12958530D01*
X14381528Y-12958530D02*
X14386290Y-12953768D01*
X14386290Y-12953768D02*
X14391052Y-12944244D01*
X14391052Y-12944244D02*
X14391052Y-12863292D01*
X14481528Y-12896625D02*
X14481528Y-12963292D01*
X14457719Y-12858530D02*
X14433909Y-12929958D01*
X14433909Y-12929958D02*
X14495814Y-12929958D01*
D35*
X16200858Y-12641217D02*
X16205620Y-12645978D01*
X16205620Y-12645978D02*
X16210382Y-12660264D01*
X16210382Y-12660264D02*
X16210382Y-12669788D01*
X16210382Y-12669788D02*
X16205620Y-12684074D01*
X16205620Y-12684074D02*
X16196096Y-12693597D01*
X16196096Y-12693597D02*
X16186572Y-12698359D01*
X16186572Y-12698359D02*
X16167525Y-12703121D01*
X16167525Y-12703121D02*
X16153239Y-12703121D01*
X16153239Y-12703121D02*
X16134191Y-12698359D01*
X16134191Y-12698359D02*
X16124668Y-12693597D01*
X16124668Y-12693597D02*
X16115144Y-12684074D01*
X16115144Y-12684074D02*
X16110382Y-12669788D01*
X16110382Y-12669788D02*
X16110382Y-12660264D01*
X16110382Y-12660264D02*
X16115144Y-12645978D01*
X16115144Y-12645978D02*
X16119906Y-12641217D01*
X16110382Y-12607883D02*
X16110382Y-12545978D01*
X16110382Y-12545978D02*
X16148477Y-12579312D01*
X16148477Y-12579312D02*
X16148477Y-12565026D01*
X16148477Y-12565026D02*
X16153239Y-12555502D01*
X16153239Y-12555502D02*
X16158001Y-12550740D01*
X16158001Y-12550740D02*
X16167525Y-12545978D01*
X16167525Y-12545978D02*
X16191334Y-12545978D01*
X16191334Y-12545978D02*
X16200858Y-12550740D01*
X16200858Y-12550740D02*
X16205620Y-12555502D01*
X16205620Y-12555502D02*
X16210382Y-12565026D01*
X16210382Y-12565026D02*
X16210382Y-12593597D01*
X16210382Y-12593597D02*
X16205620Y-12603121D01*
X16205620Y-12603121D02*
X16200858Y-12607883D01*
X12438709Y-9263032D02*
X12438709Y-9343984D01*
X12438709Y-9343984D02*
X12443471Y-9353508D01*
X12443471Y-9353508D02*
X12448233Y-9358270D01*
X12448233Y-9358270D02*
X12457757Y-9363032D01*
X12457757Y-9363032D02*
X12476805Y-9363032D01*
X12476805Y-9363032D02*
X12486328Y-9358270D01*
X12486328Y-9358270D02*
X12491090Y-9353508D01*
X12491090Y-9353508D02*
X12495852Y-9343984D01*
X12495852Y-9343984D02*
X12495852Y-9263032D01*
X12595852Y-9363032D02*
X12538709Y-9363032D01*
X12567281Y-9363032D02*
X12567281Y-9263032D01*
X12567281Y-9263032D02*
X12557757Y-9277318D01*
X12557757Y-9277318D02*
X12548233Y-9286841D01*
X12548233Y-9286841D02*
X12538709Y-9291603D01*
X18525858Y-9191217D02*
X18530620Y-9195979D01*
X18530620Y-9195979D02*
X18535382Y-9210264D01*
X18535382Y-9210264D02*
X18535382Y-9219788D01*
X18535382Y-9219788D02*
X18530620Y-9234074D01*
X18530620Y-9234074D02*
X18521096Y-9243598D01*
X18521096Y-9243598D02*
X18511572Y-9248359D01*
X18511572Y-9248359D02*
X18492525Y-9253121D01*
X18492525Y-9253121D02*
X18478239Y-9253121D01*
X18478239Y-9253121D02*
X18459191Y-9248359D01*
X18459191Y-9248359D02*
X18449668Y-9243598D01*
X18449668Y-9243598D02*
X18440144Y-9234074D01*
X18440144Y-9234074D02*
X18435382Y-9219788D01*
X18435382Y-9219788D02*
X18435382Y-9210264D01*
X18435382Y-9210264D02*
X18440144Y-9195979D01*
X18440144Y-9195979D02*
X18444906Y-9191217D01*
X18444906Y-9153121D02*
X18440144Y-9148359D01*
X18440144Y-9148359D02*
X18435382Y-9138836D01*
X18435382Y-9138836D02*
X18435382Y-9115026D01*
X18435382Y-9115026D02*
X18440144Y-9105502D01*
X18440144Y-9105502D02*
X18444906Y-9100740D01*
X18444906Y-9100740D02*
X18454430Y-9095979D01*
X18454430Y-9095979D02*
X18463953Y-9095979D01*
X18463953Y-9095979D02*
X18478239Y-9100740D01*
X18478239Y-9100740D02*
X18535382Y-9157883D01*
X18535382Y-9157883D02*
X18535382Y-9095979D01*
X15250858Y-9184217D02*
X15255620Y-9188979D01*
X15255620Y-9188979D02*
X15260382Y-9203264D01*
X15260382Y-9203264D02*
X15260382Y-9212788D01*
X15260382Y-9212788D02*
X15255620Y-9227074D01*
X15255620Y-9227074D02*
X15246096Y-9236598D01*
X15246096Y-9236598D02*
X15236572Y-9241359D01*
X15236572Y-9241359D02*
X15217525Y-9246121D01*
X15217525Y-9246121D02*
X15203239Y-9246121D01*
X15203239Y-9246121D02*
X15184191Y-9241359D01*
X15184191Y-9241359D02*
X15174668Y-9236598D01*
X15174668Y-9236598D02*
X15165144Y-9227074D01*
X15165144Y-9227074D02*
X15160382Y-9212788D01*
X15160382Y-9212788D02*
X15160382Y-9203264D01*
X15160382Y-9203264D02*
X15165144Y-9188979D01*
X15165144Y-9188979D02*
X15169906Y-9184217D01*
X15260382Y-9088979D02*
X15260382Y-9146121D01*
X15260382Y-9117550D02*
X15160382Y-9117550D01*
X15160382Y-9117550D02*
X15174668Y-9127074D01*
X15174668Y-9127074D02*
X15184191Y-9136598D01*
X15184191Y-9136598D02*
X15188953Y-9146121D01*
X11160382Y-12165217D02*
X11112763Y-12198550D01*
X11160382Y-12222359D02*
X11060382Y-12222359D01*
X11060382Y-12222359D02*
X11060382Y-12184264D01*
X11060382Y-12184264D02*
X11065144Y-12174740D01*
X11065144Y-12174740D02*
X11069906Y-12169978D01*
X11069906Y-12169978D02*
X11079430Y-12165217D01*
X11079430Y-12165217D02*
X11093715Y-12165217D01*
X11093715Y-12165217D02*
X11103239Y-12169978D01*
X11103239Y-12169978D02*
X11108001Y-12174740D01*
X11108001Y-12174740D02*
X11112763Y-12184264D01*
X11112763Y-12184264D02*
X11112763Y-12222359D01*
X11060382Y-12131883D02*
X11060382Y-12069978D01*
X11060382Y-12069978D02*
X11098477Y-12103312D01*
X11098477Y-12103312D02*
X11098477Y-12089026D01*
X11098477Y-12089026D02*
X11103239Y-12079502D01*
X11103239Y-12079502D02*
X11108001Y-12074740D01*
X11108001Y-12074740D02*
X11117525Y-12069978D01*
X11117525Y-12069978D02*
X11141334Y-12069978D01*
X11141334Y-12069978D02*
X11150858Y-12074740D01*
X11150858Y-12074740D02*
X11155620Y-12079502D01*
X11155620Y-12079502D02*
X11160382Y-12089026D01*
X11160382Y-12089026D02*
X11160382Y-12117597D01*
X11160382Y-12117597D02*
X11155620Y-12127121D01*
X11155620Y-12127121D02*
X11150858Y-12131883D01*
X15860382Y-13548359D02*
X15760382Y-13548359D01*
X15760382Y-13548359D02*
X15760382Y-13524550D01*
X15760382Y-13524550D02*
X15765144Y-13510264D01*
X15765144Y-13510264D02*
X15774668Y-13500740D01*
X15774668Y-13500740D02*
X15784191Y-13495978D01*
X15784191Y-13495978D02*
X15803239Y-13491217D01*
X15803239Y-13491217D02*
X15817525Y-13491217D01*
X15817525Y-13491217D02*
X15836572Y-13495978D01*
X15836572Y-13495978D02*
X15846096Y-13500740D01*
X15846096Y-13500740D02*
X15855620Y-13510264D01*
X15855620Y-13510264D02*
X15860382Y-13524550D01*
X15860382Y-13524550D02*
X15860382Y-13548359D01*
X15769906Y-13453121D02*
X15765144Y-13448359D01*
X15765144Y-13448359D02*
X15760382Y-13438836D01*
X15760382Y-13438836D02*
X15760382Y-13415026D01*
X15760382Y-13415026D02*
X15765144Y-13405502D01*
X15765144Y-13405502D02*
X15769906Y-13400740D01*
X15769906Y-13400740D02*
X15779429Y-13395978D01*
X15779429Y-13395978D02*
X15788953Y-13395978D01*
X15788953Y-13395978D02*
X15803239Y-13400740D01*
X15803239Y-13400740D02*
X15860382Y-13457883D01*
X15860382Y-13457883D02*
X15860382Y-13395978D01*
X17356710Y-11282032D02*
X17356710Y-11362984D01*
X17356710Y-11362984D02*
X17361471Y-11372508D01*
X17361471Y-11372508D02*
X17366233Y-11377270D01*
X17366233Y-11377270D02*
X17375757Y-11382032D01*
X17375757Y-11382032D02*
X17394805Y-11382032D01*
X17394805Y-11382032D02*
X17404329Y-11377270D01*
X17404329Y-11377270D02*
X17409090Y-11372508D01*
X17409090Y-11372508D02*
X17413852Y-11362984D01*
X17413852Y-11362984D02*
X17413852Y-11282032D01*
X17456710Y-11291556D02*
X17461471Y-11286794D01*
X17461471Y-11286794D02*
X17470995Y-11282032D01*
X17470995Y-11282032D02*
X17494805Y-11282032D01*
X17494805Y-11282032D02*
X17504329Y-11286794D01*
X17504329Y-11286794D02*
X17509090Y-11291556D01*
X17509090Y-11291556D02*
X17513852Y-11301079D01*
X17513852Y-11301079D02*
X17513852Y-11310603D01*
X17513852Y-11310603D02*
X17509090Y-11324889D01*
X17509090Y-11324889D02*
X17451948Y-11382032D01*
X17451948Y-11382032D02*
X17513852Y-11382032D01*
X13825858Y-13659217D02*
X13830620Y-13663978D01*
X13830620Y-13663978D02*
X13835382Y-13678264D01*
X13835382Y-13678264D02*
X13835382Y-13687788D01*
X13835382Y-13687788D02*
X13830620Y-13702074D01*
X13830620Y-13702074D02*
X13821096Y-13711597D01*
X13821096Y-13711597D02*
X13811572Y-13716359D01*
X13811572Y-13716359D02*
X13792525Y-13721121D01*
X13792525Y-13721121D02*
X13778239Y-13721121D01*
X13778239Y-13721121D02*
X13759191Y-13716359D01*
X13759191Y-13716359D02*
X13749668Y-13711597D01*
X13749668Y-13711597D02*
X13740144Y-13702074D01*
X13740144Y-13702074D02*
X13735382Y-13687788D01*
X13735382Y-13687788D02*
X13735382Y-13678264D01*
X13735382Y-13678264D02*
X13740144Y-13663978D01*
X13740144Y-13663978D02*
X13744906Y-13659217D01*
X13735382Y-13568740D02*
X13735382Y-13616359D01*
X13735382Y-13616359D02*
X13783001Y-13621121D01*
X13783001Y-13621121D02*
X13778239Y-13616359D01*
X13778239Y-13616359D02*
X13773477Y-13606836D01*
X13773477Y-13606836D02*
X13773477Y-13583026D01*
X13773477Y-13583026D02*
X13778239Y-13573502D01*
X13778239Y-13573502D02*
X13783001Y-13568740D01*
X13783001Y-13568740D02*
X13792525Y-13563978D01*
X13792525Y-13563978D02*
X13816334Y-13563978D01*
X13816334Y-13563978D02*
X13825858Y-13568740D01*
X13825858Y-13568740D02*
X13830620Y-13573502D01*
X13830620Y-13573502D02*
X13835382Y-13583026D01*
X13835382Y-13583026D02*
X13835382Y-13606836D01*
X13835382Y-13606836D02*
X13830620Y-13616359D01*
X13830620Y-13616359D02*
X13825858Y-13621121D01*
X14763709Y-10838432D02*
X14763709Y-10919384D01*
X14763709Y-10919384D02*
X14768471Y-10928908D01*
X14768471Y-10928908D02*
X14773233Y-10933670D01*
X14773233Y-10933670D02*
X14782757Y-10938432D01*
X14782757Y-10938432D02*
X14801805Y-10938432D01*
X14801805Y-10938432D02*
X14811328Y-10933670D01*
X14811328Y-10933670D02*
X14816090Y-10928908D01*
X14816090Y-10928908D02*
X14820852Y-10919384D01*
X14820852Y-10919384D02*
X14820852Y-10838432D01*
X14858948Y-10838432D02*
X14920852Y-10838432D01*
X14920852Y-10838432D02*
X14887519Y-10876527D01*
X14887519Y-10876527D02*
X14901805Y-10876527D01*
X14901805Y-10876527D02*
X14911328Y-10881289D01*
X14911328Y-10881289D02*
X14916090Y-10886051D01*
X14916090Y-10886051D02*
X14920852Y-10895575D01*
X14920852Y-10895575D02*
X14920852Y-10919384D01*
X14920852Y-10919384D02*
X14916090Y-10928908D01*
X14916090Y-10928908D02*
X14911328Y-10933670D01*
X14911328Y-10933670D02*
X14901805Y-10938432D01*
X14901805Y-10938432D02*
X14873233Y-10938432D01*
X14873233Y-10938432D02*
X14863709Y-10933670D01*
X14863709Y-10933670D02*
X14858948Y-10928908D01*
X14312757Y-9887780D02*
X14267043Y-9887780D01*
X14289900Y-9887780D02*
X14289900Y-9807780D01*
X14289900Y-9807780D02*
X14282281Y-9819208D01*
X14282281Y-9819208D02*
X14274662Y-9826827D01*
X14274662Y-9826827D02*
X14267043Y-9830637D01*
D37*
%TO.C,CONN1*%
X15770900Y-8550550D02*
X15770900Y-7953550D01*
X15770900Y-7953550D02*
X14008900Y-7953550D01*
X15769900Y-8179550D02*
X15694900Y-8179550D01*
X15769900Y-8029550D02*
X15769900Y-7954550D01*
X15769900Y-7954550D02*
X15589900Y-7954550D01*
X15694900Y-8474550D02*
X14889900Y-8474550D01*
X15694900Y-8179550D02*
X15694900Y-8474550D01*
X15589900Y-8029550D02*
X15769900Y-8029550D01*
X15589900Y-7954550D02*
X15589900Y-8029550D01*
X15439900Y-8029550D02*
X15439900Y-7954550D01*
X15439900Y-7954550D02*
X14339900Y-7954550D01*
X14339900Y-8029550D02*
X15439900Y-8029550D01*
X14339900Y-7954550D02*
X14339900Y-8029550D01*
X14189900Y-8029550D02*
X14189900Y-7954550D01*
X14189900Y-7954550D02*
X14009900Y-7954550D01*
X14104900Y-7924550D02*
X13979900Y-7924550D01*
X14084900Y-8474550D02*
X14889900Y-8474550D01*
X14084900Y-8179550D02*
X14084900Y-8474550D01*
X14009900Y-8179550D02*
X14084900Y-8179550D01*
X14009900Y-8029550D02*
X14189900Y-8029550D01*
X14009900Y-7954550D02*
X14009900Y-8029550D01*
X14008900Y-8550550D02*
X15770900Y-8550550D01*
X14008900Y-7953550D02*
X14008900Y-8550550D01*
X13979900Y-7924550D02*
X13979900Y-8049550D01*
%TO.C,C4*%
X13697900Y-9773050D02*
X13697900Y-9926050D01*
X13881900Y-9773050D02*
X13881900Y-9926050D01*
%TO.C,R4*%
X15827900Y-11371550D02*
X15827900Y-12025550D01*
X15827900Y-12025550D02*
X15860900Y-12025550D01*
X15860900Y-11371550D02*
X15827900Y-11371550D01*
X16068900Y-11371550D02*
X16101900Y-11371550D01*
X16101900Y-11371550D02*
X16101900Y-12025550D01*
X16101900Y-12025550D02*
X16068900Y-12025550D01*
%TO.C,R1*%
X14131900Y-8730550D02*
X14131900Y-8763550D01*
X14131900Y-9004550D02*
X14131900Y-8971550D01*
X14785900Y-8730550D02*
X14131900Y-8730550D01*
X14785900Y-8763550D02*
X14785900Y-8730550D01*
X14785900Y-8971550D02*
X14785900Y-9004550D01*
X14785900Y-9004550D02*
X14131900Y-9004550D01*
%TO.C,R2*%
X10977900Y-10721550D02*
X10977900Y-11375550D01*
X10977900Y-11375550D02*
X11010900Y-11375550D01*
X11010900Y-10721550D02*
X10977900Y-10721550D01*
X11218900Y-10721550D02*
X11251900Y-10721550D01*
X11251900Y-10721550D02*
X11251900Y-11375550D01*
X11251900Y-11375550D02*
X11218900Y-11375550D01*
D35*
%TO.C,REG1*%
X15932900Y-7936350D02*
X18142700Y-7936350D01*
X15932900Y-8874550D02*
X16288500Y-8874550D01*
X15932900Y-9612750D02*
X15932900Y-7936350D01*
X16288500Y-7936350D02*
X16288500Y-8674550D01*
X16288500Y-8674550D02*
X15932900Y-8674550D01*
X16288500Y-8874550D02*
X16288500Y-9612750D01*
X16390100Y-8012550D02*
X16390100Y-8241150D01*
X16390100Y-8241150D02*
X16593300Y-8114150D01*
X16542500Y-9257150D02*
X17482300Y-9257150D01*
X16593300Y-8012550D02*
X16593300Y-8241150D01*
X16593300Y-8114150D02*
X16390100Y-8012550D01*
X17482300Y-9257150D02*
X17253700Y-9079350D01*
X17482300Y-9257150D02*
X17253700Y-9434950D01*
X17622000Y-8076050D02*
X17723600Y-8076050D01*
X17622000Y-9460350D02*
X17723600Y-9460350D01*
X17672800Y-9409550D02*
X17672800Y-9511150D01*
X17787100Y-8672950D02*
X17787100Y-7936350D01*
X17787100Y-8876150D02*
X18142700Y-8876150D01*
X17787800Y-9614550D02*
X17787062Y-8876150D01*
X17888700Y-8723750D02*
X18041100Y-8723750D01*
X17888700Y-8825350D02*
X17964900Y-8825350D01*
X17964900Y-8672950D02*
X17964900Y-8723750D01*
X17964900Y-8723750D02*
X17888700Y-8723750D01*
X17964900Y-8825350D02*
X17964900Y-8876150D01*
X18041100Y-8825350D02*
X17888700Y-8825350D01*
X18142700Y-7936350D02*
X18142700Y-9612750D01*
X18142700Y-8672950D02*
X17787100Y-8672950D01*
X18142700Y-9612750D02*
X15932900Y-9612750D01*
X17729596Y-8076050D02*
G75*
G02*
X17616004Y-8076050I-56796J0D01*
G01*
X17616004Y-8076050D02*
G75*
G02*
X17729596Y-8076050I56796J0D01*
G01*
X17729596Y-9460350D02*
G75*
G02*
X17616004Y-9460350I-56796J0D01*
G01*
X17616004Y-9460350D02*
G75*
G02*
X17729596Y-9460350I56796J0D01*
G01*
%TO.C,U4*%
D36*
X13952900Y-13552550D02*
X15476900Y-13552550D01*
X15476900Y-12282550D01*
X13952900Y-12282550D01*
X13952900Y-13552550D01*
D37*
%TO.C,C3*%
X15710900Y-12523550D02*
X15558000Y-12523550D01*
X15710900Y-12527550D02*
X15558400Y-12527550D01*
X15710900Y-12531550D02*
X15558900Y-12531550D01*
X15710900Y-12535550D02*
X15559400Y-12535550D01*
X15710900Y-12539550D02*
X15560000Y-12539550D01*
X15710900Y-12543550D02*
X15560600Y-12543550D01*
X15710900Y-12547550D02*
X15561300Y-12547550D01*
X15710900Y-12551550D02*
X15562100Y-12551550D01*
X15710900Y-12555550D02*
X15563000Y-12555550D01*
X15710900Y-12559550D02*
X15563900Y-12559550D01*
X15710900Y-12563550D02*
X15564800Y-12563550D01*
X15710900Y-12567550D02*
X15565900Y-12567550D01*
X15710900Y-12571550D02*
X15567000Y-12571550D01*
X15710900Y-12575550D02*
X15568200Y-12575550D01*
X15710900Y-12579550D02*
X15569400Y-12579550D01*
X15710900Y-12583550D02*
X15570700Y-12583550D01*
X15710900Y-12587550D02*
X15572100Y-12587550D01*
X15710900Y-12591550D02*
X15573600Y-12591550D01*
X15710900Y-12595550D02*
X15575100Y-12595550D01*
X15710900Y-12599550D02*
X15576700Y-12599550D01*
X15710900Y-12603550D02*
X15578400Y-12603550D01*
X15710900Y-12607550D02*
X15580200Y-12607550D01*
X15710900Y-12611550D02*
X15582000Y-12611550D01*
X15710900Y-12615550D02*
X15584000Y-12615550D01*
X15710900Y-12619550D02*
X15586000Y-12619550D01*
X15710900Y-12623550D02*
X15588100Y-12623550D01*
X15710900Y-12627550D02*
X15590300Y-12627550D01*
X15710900Y-12631550D02*
X15592600Y-12631550D01*
X15710900Y-12635550D02*
X15595000Y-12635550D01*
X15710900Y-12639550D02*
X15597400Y-12639550D01*
X15710900Y-12643550D02*
X15600000Y-12643550D01*
X15710900Y-12647550D02*
X15602700Y-12647550D01*
X15710900Y-12651550D02*
X15605500Y-12651550D01*
X15710900Y-12655550D02*
X15608400Y-12655550D01*
X15710900Y-12659550D02*
X15611400Y-12659550D01*
X15710900Y-12663550D02*
X15614600Y-12663550D01*
X15710900Y-12667550D02*
X15617900Y-12667550D01*
X15710900Y-12671550D02*
X15621300Y-12671550D01*
X15710900Y-12675550D02*
X15624800Y-12675550D01*
X15710900Y-12679550D02*
X15628500Y-12679550D01*
X15710900Y-12683550D02*
X15632400Y-12683550D01*
X15710900Y-12687550D02*
X15636400Y-12687550D01*
X15710900Y-12691550D02*
X15640600Y-12691550D01*
X15710900Y-12695550D02*
X15645000Y-12695550D01*
X15710900Y-12699550D02*
X15649700Y-12699550D01*
X15710900Y-12703550D02*
X15654500Y-12703550D01*
X15710900Y-12707550D02*
X15659600Y-12707550D01*
X15710900Y-12711550D02*
X15665000Y-12711550D01*
X15710900Y-12715550D02*
X15670600Y-12715550D01*
X15710900Y-12719550D02*
X15676600Y-12719550D01*
X15710900Y-12723550D02*
X15683000Y-12723550D01*
X15710900Y-12727550D02*
X15689800Y-12727550D01*
X15843200Y-12759550D02*
X15786600Y-12759550D01*
X15866600Y-12755550D02*
X15763200Y-12755550D01*
X15882600Y-12751550D02*
X15747200Y-12751550D01*
X15895400Y-12747550D02*
X15734400Y-12747550D01*
X15906300Y-12743550D02*
X15723500Y-12743550D01*
X15916000Y-12739550D02*
X15713800Y-12739550D01*
X15924700Y-12735550D02*
X15705100Y-12735550D01*
X15932600Y-12731550D02*
X15697200Y-12731550D01*
X15940000Y-12727550D02*
X15918900Y-12727550D01*
X15946800Y-12723550D02*
X15918900Y-12723550D01*
X15953200Y-12719550D02*
X15918900Y-12719550D01*
X15959200Y-12715550D02*
X15918900Y-12715550D01*
X15962400Y-12219072D02*
X15962400Y-12269072D01*
X15964800Y-12711550D02*
X15918900Y-12711550D01*
X15970200Y-12707550D02*
X15918900Y-12707550D01*
X15975300Y-12703550D02*
X15918900Y-12703550D01*
X15980100Y-12699550D02*
X15918900Y-12699550D01*
X15984800Y-12695550D02*
X15918900Y-12695550D01*
X15987400Y-12244072D02*
X15937400Y-12244072D01*
X15989200Y-12691550D02*
X15918900Y-12691550D01*
X15993400Y-12687550D02*
X15918900Y-12687550D01*
X15997400Y-12683550D02*
X15918900Y-12683550D01*
X16001300Y-12679550D02*
X15918900Y-12679550D01*
X16005000Y-12675550D02*
X15918900Y-12675550D01*
X16008500Y-12671550D02*
X15918900Y-12671550D01*
X16011900Y-12667550D02*
X15918900Y-12667550D01*
X16015200Y-12663550D02*
X15918900Y-12663550D01*
X16018400Y-12659550D02*
X15918900Y-12659550D01*
X16021400Y-12655550D02*
X15918900Y-12655550D01*
X16024300Y-12651550D02*
X15918900Y-12651550D01*
X16027100Y-12647550D02*
X15918900Y-12647550D01*
X16029800Y-12643550D02*
X15918900Y-12643550D01*
X16032400Y-12639550D02*
X15918900Y-12639550D01*
X16034800Y-12635550D02*
X15918900Y-12635550D01*
X16037200Y-12631550D02*
X15918900Y-12631550D01*
X16039500Y-12627550D02*
X15918900Y-12627550D01*
X16041700Y-12623550D02*
X15918900Y-12623550D01*
X16043800Y-12619550D02*
X15918900Y-12619550D01*
X16045800Y-12615550D02*
X15918900Y-12615550D01*
X16047800Y-12611550D02*
X15918900Y-12611550D01*
X16049600Y-12607550D02*
X15918900Y-12607550D01*
X16051400Y-12603550D02*
X15918900Y-12603550D01*
X16053100Y-12599550D02*
X15918900Y-12599550D01*
X16054700Y-12595550D02*
X15918900Y-12595550D01*
X16056200Y-12591550D02*
X15918900Y-12591550D01*
X16057700Y-12587550D02*
X15918900Y-12587550D01*
X16059100Y-12583550D02*
X15918900Y-12583550D01*
X16060400Y-12579550D02*
X15918900Y-12579550D01*
X16061600Y-12575550D02*
X15918900Y-12575550D01*
X16062800Y-12571550D02*
X15918900Y-12571550D01*
X16063900Y-12567550D02*
X15918900Y-12567550D01*
X16065000Y-12563550D02*
X15918900Y-12563550D01*
X16065900Y-12559550D02*
X15918900Y-12559550D01*
X16066800Y-12555550D02*
X15918900Y-12555550D01*
X16067700Y-12551550D02*
X15918900Y-12551550D01*
X16068500Y-12547550D02*
X15918900Y-12547550D01*
X16069200Y-12543550D02*
X15918900Y-12543550D01*
X16069800Y-12539550D02*
X15918900Y-12539550D01*
X16070400Y-12535550D02*
X15918900Y-12535550D01*
X16070900Y-12531550D02*
X15918900Y-12531550D01*
X16071400Y-12527550D02*
X15918900Y-12527550D01*
X16071800Y-12523550D02*
X15918900Y-12523550D01*
X16072100Y-12519550D02*
X15557700Y-12519550D01*
X16072400Y-12515550D02*
X15557400Y-12515550D01*
X16072600Y-12511550D02*
X15557200Y-12511550D01*
X16072800Y-12507550D02*
X15557000Y-12507550D01*
X16072900Y-12499550D02*
X15556900Y-12499550D01*
X16072900Y-12503550D02*
X15556900Y-12503550D01*
X16076900Y-12499550D02*
G75*
G02*
X15552900Y-12499550I-262000J0D01*
G01*
X15552900Y-12499550D02*
G75*
G02*
X16076900Y-12499550I262000J0D01*
G01*
%TO.C,U1*%
X11365400Y-8126050D02*
X13640400Y-8126050D01*
X11365400Y-13441050D02*
X11365400Y-8126050D01*
X11607900Y-8237550D02*
X11740900Y-8237550D01*
X11607900Y-8370550D02*
X11607900Y-8237550D01*
X11607900Y-8497550D02*
X11873900Y-8497550D01*
X11607900Y-13329550D02*
X11607900Y-8497550D01*
X11873900Y-8497550D02*
X11873900Y-13329550D01*
X11873900Y-13329550D02*
X11607900Y-13329550D01*
X13137900Y-8243550D02*
X13391900Y-8243550D01*
X13137900Y-13323550D02*
X13137900Y-8243550D01*
X13391900Y-8243550D02*
X13391900Y-13323550D01*
X13391900Y-13323550D02*
X13137900Y-13323550D01*
X13640400Y-8126050D02*
X13640400Y-13441050D01*
X13640400Y-13441050D02*
X11365400Y-13441050D01*
%TO.C,C2*%
X18231900Y-8766061D02*
X18747900Y-8766061D01*
X18231900Y-8770061D02*
X18747900Y-8770061D01*
X18232000Y-8762061D02*
X18747800Y-8762061D01*
X18232200Y-8758061D02*
X18747600Y-8758061D01*
X18232400Y-8754061D02*
X18747400Y-8754061D01*
X18232700Y-8750061D02*
X18747100Y-8750061D01*
X18233000Y-8746061D02*
X18385900Y-8746061D01*
X18233400Y-8742061D02*
X18385900Y-8742061D01*
X18233900Y-8738061D02*
X18385900Y-8738061D01*
X18234400Y-8734061D02*
X18385900Y-8734061D01*
X18235000Y-8730061D02*
X18385900Y-8730061D01*
X18235600Y-8726061D02*
X18385900Y-8726061D01*
X18236300Y-8722061D02*
X18385900Y-8722061D01*
X18237100Y-8718061D02*
X18385900Y-8718061D01*
X18238000Y-8714061D02*
X18385900Y-8714061D01*
X18238900Y-8710061D02*
X18385900Y-8710061D01*
X18239800Y-8706061D02*
X18385900Y-8706061D01*
X18240900Y-8702061D02*
X18385900Y-8702061D01*
X18242000Y-8698061D02*
X18385900Y-8698061D01*
X18243200Y-8694061D02*
X18385900Y-8694061D01*
X18244400Y-8690061D02*
X18385900Y-8690061D01*
X18245700Y-8686061D02*
X18385900Y-8686061D01*
X18247100Y-8682061D02*
X18385900Y-8682061D01*
X18248600Y-8678061D02*
X18385900Y-8678061D01*
X18250100Y-8674061D02*
X18385900Y-8674061D01*
X18251700Y-8670061D02*
X18385900Y-8670061D01*
X18253400Y-8666061D02*
X18385900Y-8666061D01*
X18255200Y-8662061D02*
X18385900Y-8662061D01*
X18257000Y-8658061D02*
X18385900Y-8658061D01*
X18259000Y-8654061D02*
X18385900Y-8654061D01*
X18261000Y-8650061D02*
X18385900Y-8650061D01*
X18263100Y-8646061D02*
X18385900Y-8646061D01*
X18265300Y-8642061D02*
X18385900Y-8642061D01*
X18267600Y-8638061D02*
X18385900Y-8638061D01*
X18270000Y-8634061D02*
X18385900Y-8634061D01*
X18272400Y-8630061D02*
X18385900Y-8630061D01*
X18275000Y-8626061D02*
X18385900Y-8626061D01*
X18277700Y-8622061D02*
X18385900Y-8622061D01*
X18280500Y-8618061D02*
X18385900Y-8618061D01*
X18283400Y-8614061D02*
X18385900Y-8614061D01*
X18286400Y-8610061D02*
X18385900Y-8610061D01*
X18289600Y-8606061D02*
X18385900Y-8606061D01*
X18292900Y-8602061D02*
X18385900Y-8602061D01*
X18296300Y-8598061D02*
X18385900Y-8598061D01*
X18299800Y-8594061D02*
X18385900Y-8594061D01*
X18303500Y-8590061D02*
X18385900Y-8590061D01*
X18307400Y-8586061D02*
X18385900Y-8586061D01*
X18311400Y-8582061D02*
X18385900Y-8582061D01*
X18315600Y-8578061D02*
X18385900Y-8578061D01*
X18317400Y-9025539D02*
X18367400Y-9025539D01*
X18320000Y-8574061D02*
X18385900Y-8574061D01*
X18324700Y-8570061D02*
X18385900Y-8570061D01*
X18329500Y-8566061D02*
X18385900Y-8566061D01*
X18334600Y-8562061D02*
X18385900Y-8562061D01*
X18340000Y-8558061D02*
X18385900Y-8558061D01*
X18342400Y-9050539D02*
X18342400Y-9000539D01*
X18345600Y-8554061D02*
X18385900Y-8554061D01*
X18351600Y-8550061D02*
X18385900Y-8550061D01*
X18358000Y-8546061D02*
X18385900Y-8546061D01*
X18364800Y-8542061D02*
X18385900Y-8542061D01*
X18372200Y-8538061D02*
X18607600Y-8538061D01*
X18380100Y-8534061D02*
X18599700Y-8534061D01*
X18388800Y-8530061D02*
X18591000Y-8530061D01*
X18398500Y-8526061D02*
X18581300Y-8526061D01*
X18409400Y-8522061D02*
X18570400Y-8522061D01*
X18422200Y-8518061D02*
X18557600Y-8518061D01*
X18438200Y-8514061D02*
X18541600Y-8514061D01*
X18461600Y-8510061D02*
X18518200Y-8510061D01*
X18593900Y-8542061D02*
X18615000Y-8542061D01*
X18593900Y-8546061D02*
X18621800Y-8546061D01*
X18593900Y-8550061D02*
X18628200Y-8550061D01*
X18593900Y-8554061D02*
X18634200Y-8554061D01*
X18593900Y-8558061D02*
X18639800Y-8558061D01*
X18593900Y-8562061D02*
X18645200Y-8562061D01*
X18593900Y-8566061D02*
X18650300Y-8566061D01*
X18593900Y-8570061D02*
X18655100Y-8570061D01*
X18593900Y-8574061D02*
X18659800Y-8574061D01*
X18593900Y-8578061D02*
X18664200Y-8578061D01*
X18593900Y-8582061D02*
X18668400Y-8582061D01*
X18593900Y-8586061D02*
X18672400Y-8586061D01*
X18593900Y-8590061D02*
X18676300Y-8590061D01*
X18593900Y-8594061D02*
X18680000Y-8594061D01*
X18593900Y-8598061D02*
X18683500Y-8598061D01*
X18593900Y-8602061D02*
X18686900Y-8602061D01*
X18593900Y-8606061D02*
X18690200Y-8606061D01*
X18593900Y-8610061D02*
X18693400Y-8610061D01*
X18593900Y-8614061D02*
X18696400Y-8614061D01*
X18593900Y-8618061D02*
X18699300Y-8618061D01*
X18593900Y-8622061D02*
X18702100Y-8622061D01*
X18593900Y-8626061D02*
X18704800Y-8626061D01*
X18593900Y-8630061D02*
X18707400Y-8630061D01*
X18593900Y-8634061D02*
X18709800Y-8634061D01*
X18593900Y-8638061D02*
X18712200Y-8638061D01*
X18593900Y-8642061D02*
X18714500Y-8642061D01*
X18593900Y-8646061D02*
X18716700Y-8646061D01*
X18593900Y-8650061D02*
X18718800Y-8650061D01*
X18593900Y-8654061D02*
X18720800Y-8654061D01*
X18593900Y-8658061D02*
X18722800Y-8658061D01*
X18593900Y-8662061D02*
X18724600Y-8662061D01*
X18593900Y-8666061D02*
X18726400Y-8666061D01*
X18593900Y-8670061D02*
X18728100Y-8670061D01*
X18593900Y-8674061D02*
X18729700Y-8674061D01*
X18593900Y-8678061D02*
X18731200Y-8678061D01*
X18593900Y-8682061D02*
X18732700Y-8682061D01*
X18593900Y-8686061D02*
X18734100Y-8686061D01*
X18593900Y-8690061D02*
X18735400Y-8690061D01*
X18593900Y-8694061D02*
X18736600Y-8694061D01*
X18593900Y-8698061D02*
X18737800Y-8698061D01*
X18593900Y-8702061D02*
X18738900Y-8702061D01*
X18593900Y-8706061D02*
X18740000Y-8706061D01*
X18593900Y-8710061D02*
X18740900Y-8710061D01*
X18593900Y-8714061D02*
X18741800Y-8714061D01*
X18593900Y-8718061D02*
X18742700Y-8718061D01*
X18593900Y-8722061D02*
X18743500Y-8722061D01*
X18593900Y-8726061D02*
X18744200Y-8726061D01*
X18593900Y-8730061D02*
X18744800Y-8730061D01*
X18593900Y-8734061D02*
X18745400Y-8734061D01*
X18593900Y-8738061D02*
X18745900Y-8738061D01*
X18593900Y-8742061D02*
X18746400Y-8742061D01*
X18593900Y-8746061D02*
X18746800Y-8746061D01*
X18751900Y-8770061D02*
G75*
G02*
X18227900Y-8770061I-262000J0D01*
G01*
X18227900Y-8770061D02*
G75*
G02*
X18751900Y-8770061I262000J0D01*
G01*
%TO.C,C1*%
X15091900Y-9070550D02*
X15737900Y-9070550D01*
X15091900Y-9074550D02*
X15737900Y-9074550D01*
X15092000Y-9066550D02*
X15737800Y-9066550D01*
X15092100Y-9062550D02*
X15737700Y-9062550D01*
X15092300Y-9058550D02*
X15737500Y-9058550D01*
X15092500Y-9054550D02*
X15737300Y-9054550D01*
X15092800Y-9050550D02*
X15310900Y-9050550D01*
X15093100Y-9046550D02*
X15310900Y-9046550D01*
X15093500Y-9042550D02*
X15310900Y-9042550D01*
X15093900Y-9038550D02*
X15310900Y-9038550D01*
X15094400Y-9034550D02*
X15310900Y-9034550D01*
X15094900Y-9030550D02*
X15310900Y-9030550D01*
X15095400Y-9026550D02*
X15310900Y-9026550D01*
X15096100Y-9022550D02*
X15310900Y-9022550D01*
X15096700Y-9018550D02*
X15310900Y-9018550D01*
X15097500Y-9014550D02*
X15310900Y-9014550D01*
X15098200Y-9010550D02*
X15310900Y-9010550D01*
X15099000Y-9006550D02*
X15310900Y-9006550D01*
X15099900Y-9002550D02*
X15310900Y-9002550D01*
X15100900Y-8998550D02*
X15310900Y-8998550D01*
X15101800Y-8994550D02*
X15310900Y-8994550D01*
X15102900Y-8990550D02*
X15310900Y-8990550D01*
X15104000Y-8986550D02*
X15310900Y-8986550D01*
X15105100Y-8982550D02*
X15310900Y-8982550D01*
X15106300Y-8978550D02*
X15310900Y-8978550D01*
X15107600Y-8974550D02*
X15310900Y-8974550D01*
X15108900Y-8970550D02*
X15310900Y-8970550D01*
X15110200Y-8966550D02*
X15310900Y-8966550D01*
X15111700Y-8962550D02*
X15310900Y-8962550D01*
X15113200Y-8958550D02*
X15310900Y-8958550D01*
X15114700Y-8954550D02*
X15310900Y-8954550D01*
X15116300Y-8950550D02*
X15310900Y-8950550D01*
X15118000Y-8946550D02*
X15310900Y-8946550D01*
X15119700Y-8942550D02*
X15310900Y-8942550D01*
X15121500Y-8938550D02*
X15310900Y-8938550D01*
X15123400Y-8934550D02*
X15310900Y-8934550D01*
X15125300Y-8930550D02*
X15310900Y-8930550D01*
X15127300Y-8926550D02*
X15310900Y-8926550D01*
X15129400Y-8922550D02*
X15310900Y-8922550D01*
X15131500Y-8918550D02*
X15310900Y-8918550D01*
X15133700Y-8914550D02*
X15310900Y-8914550D01*
X15136000Y-8910550D02*
X15310900Y-8910550D01*
X15138400Y-8906550D02*
X15310900Y-8906550D01*
X15140800Y-8902550D02*
X15310900Y-8902550D01*
X15143300Y-8898550D02*
X15310900Y-8898550D01*
X15145900Y-8894550D02*
X15310900Y-8894550D01*
X15148600Y-8890550D02*
X15310900Y-8890550D01*
X15151300Y-8886550D02*
X15310900Y-8886550D01*
X15154200Y-8882550D02*
X15310900Y-8882550D01*
X15157200Y-8878550D02*
X15310900Y-8878550D01*
X15160200Y-8874550D02*
X15310900Y-8874550D01*
X15163300Y-8870550D02*
X15310900Y-8870550D01*
X15166600Y-8866550D02*
X15310900Y-8866550D01*
X15169900Y-8862550D02*
X15310900Y-8862550D01*
X15173400Y-8858550D02*
X15310900Y-8858550D01*
X15177000Y-8854550D02*
X15310900Y-8854550D01*
X15180700Y-8850550D02*
X15310900Y-8850550D01*
X15184500Y-8846550D02*
X15310900Y-8846550D01*
X15188500Y-8842550D02*
X15641300Y-8842550D01*
X15192600Y-8838550D02*
X15637200Y-8838550D01*
X15196800Y-8834550D02*
X15633000Y-8834550D01*
X15199500Y-9393074D02*
X15262500Y-9393074D01*
X15201200Y-8830550D02*
X15628600Y-8830550D01*
X15205800Y-8826550D02*
X15624000Y-8826550D01*
X15210500Y-8822550D02*
X15619300Y-8822550D01*
X15215400Y-8818550D02*
X15614400Y-8818550D01*
X15220600Y-8814550D02*
X15609200Y-8814550D01*
X15225900Y-8810550D02*
X15603900Y-8810550D01*
X15231000Y-9424574D02*
X15231000Y-9361574D01*
X15231500Y-8806550D02*
X15598300Y-8806550D01*
X15237400Y-8802550D02*
X15592400Y-8802550D01*
X15243500Y-8798550D02*
X15586300Y-8798550D01*
X15250000Y-8794550D02*
X15579800Y-8794550D01*
X15256800Y-8790550D02*
X15573000Y-8790550D01*
X15264000Y-8786550D02*
X15565800Y-8786550D01*
X15271700Y-8782550D02*
X15558100Y-8782550D01*
X15279900Y-8778550D02*
X15549900Y-8778550D01*
X15288800Y-8774550D02*
X15541000Y-8774550D01*
X15298400Y-8770550D02*
X15531400Y-8770550D01*
X15309100Y-8766550D02*
X15520700Y-8766550D01*
X15321000Y-8762550D02*
X15508800Y-8762550D01*
X15334800Y-8758550D02*
X15495000Y-8758550D01*
X15351600Y-8754550D02*
X15478200Y-8754550D01*
X15374700Y-8750550D02*
X15455100Y-8750550D01*
X15518900Y-8846550D02*
X15645300Y-8846550D01*
X15518900Y-8850550D02*
X15649100Y-8850550D01*
X15518900Y-8854550D02*
X15652800Y-8854550D01*
X15518900Y-8858550D02*
X15656400Y-8858550D01*
X15518900Y-8862550D02*
X15659900Y-8862550D01*
X15518900Y-8866550D02*
X15663200Y-8866550D01*
X15518900Y-8870550D02*
X15666500Y-8870550D01*
X15518900Y-8874550D02*
X15669600Y-8874550D01*
X15518900Y-8878550D02*
X15672600Y-8878550D01*
X15518900Y-8882550D02*
X15675600Y-8882550D01*
X15518900Y-8886550D02*
X15678500Y-8886550D01*
X15518900Y-8890550D02*
X15681200Y-8890550D01*
X15518900Y-8894550D02*
X15683900Y-8894550D01*
X15518900Y-8898550D02*
X15686500Y-8898550D01*
X15518900Y-8902550D02*
X15689000Y-8902550D01*
X15518900Y-8906550D02*
X15691400Y-8906550D01*
X15518900Y-8910550D02*
X15693800Y-8910550D01*
X15518900Y-8914550D02*
X15696100Y-8914550D01*
X15518900Y-8918550D02*
X15698300Y-8918550D01*
X15518900Y-8922550D02*
X15700400Y-8922550D01*
X15518900Y-8926550D02*
X15702500Y-8926550D01*
X15518900Y-8930550D02*
X15704500Y-8930550D01*
X15518900Y-8934550D02*
X15706400Y-8934550D01*
X15518900Y-8938550D02*
X15708300Y-8938550D01*
X15518900Y-8942550D02*
X15710100Y-8942550D01*
X15518900Y-8946550D02*
X15711800Y-8946550D01*
X15518900Y-8950550D02*
X15713500Y-8950550D01*
X15518900Y-8954550D02*
X15715100Y-8954550D01*
X15518900Y-8958550D02*
X15716600Y-8958550D01*
X15518900Y-8962550D02*
X15718100Y-8962550D01*
X15518900Y-8966550D02*
X15719600Y-8966550D01*
X15518900Y-8970550D02*
X15720900Y-8970550D01*
X15518900Y-8974550D02*
X15722200Y-8974550D01*
X15518900Y-8978550D02*
X15723500Y-8978550D01*
X15518900Y-8982550D02*
X15724700Y-8982550D01*
X15518900Y-8986550D02*
X15725800Y-8986550D01*
X15518900Y-8990550D02*
X15726900Y-8990550D01*
X15518900Y-8994550D02*
X15728000Y-8994550D01*
X15518900Y-8998550D02*
X15728900Y-8998550D01*
X15518900Y-9002550D02*
X15729900Y-9002550D01*
X15518900Y-9006550D02*
X15730800Y-9006550D01*
X15518900Y-9010550D02*
X15731600Y-9010550D01*
X15518900Y-9014550D02*
X15732300Y-9014550D01*
X15518900Y-9018550D02*
X15733100Y-9018550D01*
X15518900Y-9022550D02*
X15733700Y-9022550D01*
X15518900Y-9026550D02*
X15734400Y-9026550D01*
X15518900Y-9030550D02*
X15734900Y-9030550D01*
X15518900Y-9034550D02*
X15735400Y-9034550D01*
X15518900Y-9038550D02*
X15735900Y-9038550D01*
X15518900Y-9042550D02*
X15736300Y-9042550D01*
X15518900Y-9046550D02*
X15736700Y-9046550D01*
X15518900Y-9050550D02*
X15737000Y-9050550D01*
X15741900Y-9074550D02*
G75*
G02*
X15087900Y-9074550I-327000J0D01*
G01*
X15087900Y-9074550D02*
G75*
G02*
X15741900Y-9074550I327000J0D01*
G01*
%TO.C,R3*%
X10977900Y-11821550D02*
X10977900Y-12475550D01*
X10977900Y-12475550D02*
X11010900Y-12475550D01*
X11010900Y-11821550D02*
X10977900Y-11821550D01*
X11218900Y-11821550D02*
X11251900Y-11821550D01*
X11251900Y-11821550D02*
X11251900Y-12475550D01*
X11251900Y-12475550D02*
X11218900Y-12475550D01*
%TO.C,D2*%
X15691300Y-13280550D02*
X15706900Y-13280550D01*
X15922900Y-13280550D02*
X15938500Y-13280550D01*
X15691348Y-13280550D02*
G75*
G02*
X15706900Y-12957406I123552J156000D01*
G01*
X15706900Y-13228646D02*
G75*
G02*
X15706900Y-13020454I108000J104096D01*
G01*
X15922900Y-12957406D02*
G75*
G02*
X15938452Y-13280550I-108000J-167144D01*
G01*
X15922900Y-13020454D02*
G75*
G02*
X15922900Y-13228646I-108000J-104096D01*
G01*
D36*
%TO.C,U2*%
X16155297Y-12436878D02*
X16349652Y-12532968D01*
X16157792Y-10181369D02*
X16155297Y-12436878D01*
X16169352Y-10092093D02*
X16157792Y-10181369D01*
X16192188Y-10016589D02*
X16169352Y-10092093D01*
X16224940Y-9953404D02*
X16192188Y-10016589D01*
X16266250Y-9901084D02*
X16224940Y-9953404D01*
X16289748Y-12738924D02*
X16289748Y-12938243D01*
X16289748Y-12938243D02*
X16351484Y-12938243D01*
X16314755Y-9858176D02*
X16266250Y-9901084D01*
X16349652Y-12532968D02*
X16352631Y-13213802D01*
X16351153Y-13218273D02*
X16932282Y-13218273D01*
X16353248Y-13139326D02*
X16358540Y-12530785D01*
X16355012Y-12738924D02*
X16289748Y-12738924D01*
X16358540Y-12530785D02*
X16513762Y-12530785D01*
X16369098Y-9823224D02*
X16314755Y-9858176D01*
X16427918Y-9794776D02*
X16369098Y-9823224D01*
X16489854Y-9771377D02*
X16427918Y-9794776D01*
X16510234Y-13139326D02*
X16353248Y-13139326D01*
X16513762Y-12530785D02*
X16566679Y-12583701D01*
X16563151Y-13089938D02*
X16510234Y-13139326D01*
X16566679Y-12583701D02*
X16691915Y-12583701D01*
X16691915Y-12583701D02*
X16691915Y-13089938D01*
X16691915Y-13089938D02*
X16563151Y-13089938D01*
X16932282Y-13218273D02*
X16934915Y-13089929D01*
X16934915Y-13089929D02*
X17818037Y-13090598D01*
X17036907Y-12595695D02*
X17036907Y-13177069D01*
X17036907Y-13177069D02*
X17750865Y-13177069D01*
X17750865Y-12595695D02*
X17036907Y-12595695D01*
X17750865Y-13177069D02*
X17750865Y-12595695D01*
X17817840Y-13210824D02*
X18725919Y-13208216D01*
X17818037Y-13090598D02*
X17817840Y-13210824D01*
X18393645Y-9774252D02*
X16489854Y-9771377D01*
X18453425Y-9792819D02*
X18393645Y-9774252D01*
X18507844Y-9817512D02*
X18453425Y-9792819D01*
X18556951Y-9848276D02*
X18507844Y-9817512D01*
X18600795Y-9885055D02*
X18556951Y-9848276D01*
X18639425Y-9927792D02*
X18600795Y-9885055D01*
X18672890Y-9976433D02*
X18639425Y-9927792D01*
X18701238Y-10030921D02*
X18672890Y-9976433D01*
X18724520Y-10091201D02*
X18701238Y-10030921D01*
X18725919Y-13208216D02*
X18724520Y-10091201D01*
D37*
%TO.C,R5*%
X14131900Y-9180550D02*
X14131900Y-9213550D01*
X14131900Y-9454550D02*
X14131900Y-9421550D01*
X14785900Y-9180550D02*
X14131900Y-9180550D01*
X14785900Y-9213550D02*
X14785900Y-9180550D01*
X14785900Y-9421550D02*
X14785900Y-9454550D01*
X14785900Y-9454550D02*
X14131900Y-9454550D01*
%TO.C,C5*%
X13697900Y-13216050D02*
X13697900Y-13369050D01*
X13881900Y-13216050D02*
X13881900Y-13369050D01*
D35*
%TO.C,U3*%
X13950900Y-9572550D02*
X15728900Y-9572550D01*
X13950900Y-12162550D02*
X13950900Y-9572550D01*
X15728900Y-9572550D02*
X15728900Y-12162550D01*
X15728900Y-12162550D02*
X13950900Y-12162550D01*
%TD*%
D38*
X10814900Y-7824550D02*
X18814900Y-7824550D01*
X18814900Y-13824550D01*
X10814900Y-13824550D01*
X10814900Y-7824550D01*
M02*
